<?xml version="1.0" encoding="utf-8"?>
<!-- Generator: Adobe Illustrator 22.0.1, SVG Export Plug-In . SVG Version: 6.00 Build 0)  -->
<svg version="1.1" id="Layer_1" xmlns="http://www.w3.org/2000/svg" xmlns:xlink="http://www.w3.org/1999/xlink" x="0px" y="0px"
	 viewBox="0 0 343 148" style="enable-background:new 0 0 343 148;" xml:space="preserve">
<style type="text/css">
	.st0{fill:#FEFEFE;}
	.st1{fill:#D8CDB3;}
	.st2{fill:#010101;}
	.st3{fill:#020202;}
	.st4{fill:#040404;}
	.st5{fill:#050505;}
	.st6{fill:#060606;}
	.st7{fill:#030303;}
	.st8{fill:#F2F2F2;}
	.st9{fill:#A2937E;}
	.st10{fill:#D4C9B0;}
	.st11{fill:#070707;}
	.st12{fill:#A1927C;}
	.st13{fill:#D7CCB2;}
	.st14{fill:#F8F8F8;}
	.st15{fill:#F7F5F2;}
	.st16{fill:#AFA38D;}
	.st17{fill:#BAB09A;}
	.st18{fill:#A4A4A4;}
	.st19{fill:#D0C5AC;}
	.st20{fill:#1A95D5;}
	.st21{fill:#38A4DB;}
	.st22{fill:#E8E8E8;}
	.st23{fill:#1D99D6;}
	.st24{fill:#1996D5;}
	.st25{fill:#090908;}
	.st26{fill:#070706;}
	.st27{fill:#1192D4;}
	.st28{fill:#A5A5A5;}
	.st29{fill:#9CD3ED;}
	.st30{fill:#AAD0ED;}
	.st31{fill:#BBB09A;}
	.st32{fill:#A1CCEB;}
	.st33{fill:#DCDCDC;}
	.st34{fill:#C3C4C6;}
	.st35{fill:#B4B5B6;}
	.st36{fill:#BCBDBD;}
	.st37{fill:#C2B9A2;}
	.st38{fill:#BDBEBF;}
	.st39{fill:#B9BABA;}
	.st40{fill:#B8B8B7;}
	.st41{fill:#2B2B2B;}
	.st42{fill:#70B6E3;}
	.st43{fill:#D7EBF7;}
	.st44{fill:#CBCBCB;}
	.st45{fill:#2E2E2E;}
	.st46{fill:#E6E6E6;}
	.st47{fill:#56AFDF;}
	.st48{fill:#B6B6B6;}
	.st49{fill:#D5D5D5;}
	.st50{fill:#CBCBCC;}
	.st51{fill:#A5D6EF;}
	.st52{fill:#C6C6C7;}
	.st53{fill:#DEDEDE;}
	.st54{fill:#BDBDBC;}
	.st55{fill:#B3B3B3;}
	.st56{fill:#BDBDBE;}
	.st57{fill:#BBBCBD;}
	.st58{fill:#BDBEBE;}
	.st59{fill:#D7D8D8;}
	.st60{fill:#EDEDED;}
	.st61{fill:#D6D6D6;}
	.st62{fill:#CFCFCF;}
	.st63{fill:#E0E0E0;}
	.st64{fill:#D8D8D8;}
	.st65{fill:#AFAFB0;}
	.st66{fill:#C5C6C7;}
	.st67{fill:#E7E7E7;}
	.st68{fill:#B4B4B4;}
	.st69{fill:#CCCDCE;}
	.st70{fill:#BEC0C1;}
	.st71{fill:#B5B5B5;}
	.st72{fill:#E5E5E5;}
	.st73{fill:#AEAEAF;}
	.st74{fill:#B3B4B5;}
	.st75{fill:#D1D2D2;}
	.st76{fill:#A3A3A3;}
	.st77{fill:#96D1EC;}
	.st78{fill:#BCBEBF;}
	.st79{fill:#2C2C2C;}
	.st80{fill:#CACBCC;}
	.st81{fill:#E3E3E3;}
	.st82{fill:#A7D3ED;}
	.st83{fill:#D2D2D2;}
	.st84{fill:#CDCDCE;}
	.st85{fill:#C4C4C4;}
	.st86{fill:#FCFCFC;}
	.st87{fill:#ACACAC;}
	.st88{fill:#6ABCE4;}
	.st89{fill:#C3C4C4;}
	.st90{fill:#E4E4E4;}
	.st91{fill:#CCCDCD;}
	.st92{fill:#E1E1E1;}
	.st93{fill:#EAEAEA;}
	.st94{fill:#DBDBDB;}
	.st95{fill:#C9CACA;}
	.st96{fill:#BFBFBF;}
	.st97{fill:#C2C2C2;}
	.st98{fill:#D1D1D1;}
	.st99{fill:#0F0F0F;}
	.st100{fill:#C0C0C0;}
	.st101{fill:#666666;}
	.st102{fill:#D0D1D1;}
	.st103{fill:#C7C5C1;}
	.st104{fill:#0A0A0A;}
	.st105{fill:#E2E2E2;}
	.st106{fill:#A1A1A1;}
	.st107{fill:#D6D6D7;}
	.st108{fill:#B2B2B2;}
	.st109{fill:#808080;}
	.st110{fill:#0D0D0D;}
	.st111{fill:#A7A7A7;}
	.st112{fill:#1F1F1F;}
	.st113{fill:#141414;}
	.st114{fill:#7F7F7F;}
	.st115{fill:#CACACB;}
	.st116{fill:#BCBCBC;}
	.st117{fill:#AFAFAF;}
	.st118{fill:#C1C1C2;}
	.st119{fill:#EBEBEB;}
	.st120{fill:#646464;}
	.st121{fill:#939393;}
	.st122{fill:#D1D1D2;}
	.st123{fill:#D2D3D4;}
	.st124{fill:#C5C5C5;}
	.st125{fill:#303030;}
	.st126{fill:#D0D0D0;}
	.st127{fill:#575757;}
	.st128{fill:#474747;}
	.st129{fill:#AAAAAA;}
	.st130{fill:#4CA7DC;}
	.st131{fill:#B9B9B9;}
	.st132{fill:#DDDDDD;}
	.st133{fill:#6E6E6E;}
	.st134{fill:#BBBBBC;}
	.st135{fill:#BFC1C3;}
	.st136{fill:#C6C7C8;}
	.st137{fill:#AFAEAA;}
	.st138{fill:#5A5A5A;}
	.st139{fill:#2F2F2F;}
	.st140{fill:#EFEFEF;}
	.st141{fill:#008CD1;}
	.st142{fill:#393939;}
	.st143{fill:#008BD1;}
	.st144{fill:#7C7C7C;}
	.st145{fill:#FAFAFA;}
	.st146{fill:#A2A2A2;}
	.st147{fill:#B7B4AC;}
	.st148{fill:#B7B7B7;}
	.st149{fill:#CDCDCD;}
	.st150{fill:#CACACA;}
	.st151{fill:#C9C9C9;}
	.st152{fill:#D7D7D7;}
	.st153{fill:#BDBDBD;}
	.st154{fill:#999999;}
	.st155{fill:#AB9C85;}
	.st156{fill:#1B1E24;}
	.st157{fill:#A0907B;}
	.st158{fill:#D6CBB2;}
	.st159{fill:#1E1C19;}
	.st160{fill:#151412;}
	.st161{fill:#141311;}
	.st162{fill:#1A1916;}
	.st163{fill:#11100E;}
	.st164{fill:#0E0E0C;}
	.st165{fill:#141310;}
	.st166{fill:#060605;}
	.st167{fill:#201E1A;}
	.st168{fill:#131210;}
	.st169{fill:#080707;}
	.st170{fill:#35322C;}
	.st171{fill:#32302A;}
	.st172{fill:#262520;}
	.st173{fill:#26241F;}
	.st174{fill:#1F1E1A;}
	.st175{fill:#2B2924;}
	.st176{fill:#4F4C42;}
	.st177{fill:#211F1B;}
	.st178{fill:#2D2B25;}
	.st179{fill:#24221E;}
	.st180{fill:#38352F;}
	.st181{fill:#2F2C27;}
	.st182{fill:#423F37;}
	.st183{fill:#48443B;}
	.st184{fill:#282621;}
	.st185{fill:#3E3B34;}
	.st186{fill:#1C1B18;}
	.st187{fill:#716B5E;}
	.st188{fill:#A19985;}
	.st189{fill:#534E45;}
	.st190{fill:#1F1D1A;}
	.st191{fill:#33302A;}
	.st192{fill:#302E28;}
	.st193{fill:#0A0A09;}
	.st194{fill:#615C51;}
	.st195{fill:#D5CAB1;}
	.st196{fill:#272521;}
	.st197{fill:#3A3730;}
	.st198{fill:#FBFBFB;}
	.st199{fill:#F0F0F0;}
	.st200{fill:#ECECEC;}
	.st201{fill:#C1C2C3;}
	.st202{fill:#E0DEDA;}
	.st203{fill:#EEEEEE;}
	.st204{fill:#9E9E9E;}
	.st205{fill:#CFC4AC;}
	.st206{fill:#C9C9C8;}
	.st207{fill:#B9BABB;}
	.st208{fill:#F5F5F5;}
	.st209{fill:#DDDCDA;}
	.st210{fill:#D9D6CF;}
	.st211{fill:#C9BFA7;}
	.st212{fill:#C7BDA5;}
	.st213{fill:#D7CCB1;}
	.st214{fill:#BFB69F;}
	.st215{fill:#AB9D87;}
	.st216{fill:#CAC0A7;}
	.st217{fill:#CCCBC8;}
	.st218{fill:#AEA590;}
	.st219{fill:#BCBCBA;}
	.st220{fill:#DFDEDE;}
	.st221{fill:#BFDCF1;}
	.st222{fill:#C6E2F3;}
	.st223{fill:#BADDF1;}
	.st224{fill:#F2F7FA;}
	.st225{fill:#008AD0;}
</style>
<g>
	<g>
		<path class="st0" d="M1,148C1,98.8,1,50,1,1.1c114,0,228,0,342,0c0,49,0,97.9,0,146.9C229,148,115.1,148,1,148z"/>
		<path class="st1" d="M234,95c-12.5-15.7-28.8-25.3-48.5-28.9c-15.3-2.8-30.5-1.2-44.8,5.1c-12.1,5.4-22.7,13-30.8,23.8
			c-0.7,3.3-3,5.6-4.9,8.2c-4.5,0.1-7.5-3.2-11-5.3c-2.6-1.6-5.1-2.2-8-1.4c-0.5-0.1-0.9-0.3-1.2-0.6c0.5-1.3,1.8-1.7,2.8-2.5
			C86.2,91.3,84,90.1,83,88l0,0c3.2-0.7,3-4.2,4.9-6c0,0,0.1-0.4,0.1-0.4c0.2-0.2,0.2-0.4,0.2-0.4c-0.4,0.1-0.6-0.1-0.7-0.4
			c-0.1-0.4,0.1-0.6,0.5-0.7c2.9-0.5,4.4-2.4,5.1-5.1c0.3-0.3,0.5-0.5,0.8-0.8c2-1.3,3.8-2.9,5-5.1c0.1-0.6,0.6-0.7,1.1-0.9
			c1.7-1.4,3.4-2.8,5-4.1c0.3-0.4,0.4-1,1.1-1.1c1.8-1.5,4.7-1.9,5-4.9c0.4-0.3,0.7-0.3,1,0c2.4-0.8,4.5-1.9,6-4.1
			c0.4-0.4,0.7-0.4,1,0c2-1.4,4.8-1.5,6-4.1c0.2-0.3,0.4-0.6,0.5-0.9c0.2,0,0.3-0.1,0.5-0.1c2.5,1.5,4.4-0.9,6.7-1
			c0.4-0.4,0.6-1,1.3-1.1c2.1-0.6,4.8-0.3,6-2.8c0.4-0.5,0.7-0.6,1.1,0c2.4,0.8,4.6-0.1,6.8-1c0.4-0.6,0.8-0.6,1.2,0
			c2.2-0.6,4.3-1.3,6.7-1c0.4-0.5,0.9-0.5,1.3,0c1.8-1.2,3.8-0.9,5.8-1c0.7-0.6,1.4-0.6,2.1,0c1.9,0,3.9,0,5.8,0
			c0.7-0.6,1.5-0.6,2.2,0c1.9,0,3.9,0,5.8,0c0.4-0.6,0.9-0.6,1.3,0c2.3-0.1,4.5,0.5,6.6,1c0.4-0.5,0.8-0.5,1.3,0
			c2.2-0.7,4.5,1.9,6.8-0.1c0.6,0.1,0.8,0.7,1.1,1.1c2.2,1,4.3,1.8,6.7,1c0.4-0.4,0.7-0.5,1.1,0c1,3.1,3.7,2.6,6.1,3
			c0.6,0.1,0.7,0.7,1.1,1c2.3-0.2,4.2,3.2,6.8,0.9c0.7,0,0.8,0.6,1,1.1c1.6,1.9,3,4,6,3c0.5,0.2,0.8,0.5,1,1c1,2.2,3.2,3,5.1,4.1
			c0.4,0.3,0.9,0.5,1.1,1c1.6,1.3,3.3,2.7,4.9,4c0.5,0.5,1.5,0.2,1.9,1c1.3,2,3.1,3.6,5,5c0.3-0.2,0.6-0.3,0.9-0.4
			c0.1,0.2,0.1,0.3,0.2,0.5c0.6,2.8,2.3,4.4,5,5.1c0.3,0.2,0.4,0.4,0.3,0.6c-0.1,0.2-0.2,0.3-0.3,0.3c1.6,1.9,2.8,4.3,4.9,5.8
			c0.2,0,0.3,0.1,0.5,0.1c0.1,0.3,0.3,0.6,0.5,0.9c0.3,2.4,2.5,3.8,3.1,6c0.6,0.4,0.6,0.8,0,1.2c0.3,2.5-3.2,3-2.8,5.5
			c-4.6,2.2-8.9,4.8-13.2,7.4c-2,1.2-3.9,2-5.6-0.4C236.2,99.5,234.1,97.8,234,95z"/>
		<path class="st2" d="M196.9,135c-1.5,2.5-4.1,3.5-6.4,5c-1.1-1-0.3-2.4-1.1-3.5c-2.1,0-3.2,2-5.4,2.5c-2.1-0.9-4-2.4-5.3-3.6
			c0-8.6,0-16.7,0-24.9c3.9-1.8,7.1-4,11.2-4.8c-0.6-2.3,1.1-4.8-1-6.9c-0.3-0.2-0.4-0.4-0.3-0.6c0.1-0.2,0.2-0.3,0.2-0.3
			c2.3,0.8,4.1-0.2,6.1-3c0,12.8,0,24.3,0,35.7c0,1.6-0.9,3.9,1.9,4.3L196.9,135z"/>
		<path class="st3" d="M140.7,113.1c-3.2-8,1.5-14.9,10.9-16.1c5.5-0.7,10.9-0.5,15.7,2.3c1.7-0.1,1.8-2.1,3.3-2.1
			c0.6,0.3,0.5,0.8,0.5,1.2c-0.4,9.8-0.5,19.5-0.5,29.3c0,3.1,0.7,5.6,4.2,6.2l0.2,0.2c-0.7,2.2-2.7,3.2-4.2,5
			c-2.4-0.8-4.1-2.5-5.8-4.2c-1.6-1.5-1.2-3.5-1.4-5.4c-0.1-1.5,0.4-3.3-1.2-4.4c-2.6-1.3-5.7,0.1-8.2-1.5c-0.4-0.4-0.6-0.9-0.4-1.4
			c0.5-0.6,1.2-1,2-1.1c1.9-0.4,4,0.1,6-1.2c1.5-3.5,1.4-7.5,2.1-11.3c0.1-0.3,0.2-0.6,0.3-0.8c0.2-0.3,0.3-0.5,0.4-0.7
			c0,0.7,0.2-0.1-0.5,0.1c-0.8,0.4-1.5,0.1-2.2-0.4c-2.9-3.1-6.4-4.5-10.6-4.3c-6.2,0.3-8.9,2.9-9,9.1c0,0.7-0.1,1.3-0.5,1.9
			C141.5,113.5,141.1,113.4,140.7,113.1z"/>
		<path class="st4" d="M208.1,108c1.3-0.7,2.7-1.3,4.1-2c2.2,0.6,3.9,2.3,6,3.3c-1.1,8.3-0.1,16.6-0.7,24.9
			c-2.7,2.1-5.9,3.1-8.9,4.9c-2.5-1.3-4.9-2.7-7.3-4c-0.2-8.7,1.3-17.3-1.2-26.4c-0.2,0.5-0.1,0.2,0-0.1c0.6-1,1.3-1.9,1.7-2.5
			c2.5,0.6,3.4,1.8,4.4,2.9c2.3,4.6,0.7,9.5,1.1,14.2c0.3,2.9-0.1,6,3.5,9c0.7-7.5,2.2-14.2-1.2-20.7
			C209,110.4,207.6,109.6,208.1,108z"/>
		<path class="st3" d="M288.9,127c0.9-2.6-2.2-2.4-2.5-3.7c0-4.5,0-8.6,0-12.4c2.5-2.4,5.4-3.2,8-4.8c2.5,0.8,3.5,3.4,5.4,4.7
			c1.1,0.5,1.3-0.9,2.2-0.8c0.2,0,0.4,0,0.6,0c-1.1,3.3-3.3,6-4.8,9c1.4,1.9,3.5,2.4,4.9,3.6c0,1.9-0.2,3.8,0,5.5
			c0.8,5.1-1.3,8.1-6,9.9c-1.8,0.7-3.3,1.1-5.2,0.3c-2.1-0.9-4.1-2.3-6.5-2.2l-0.2-0.2c-0.1-3.1,2.3-5.1,3.2-7.7
			c0.2-0.5,0.6-0.7,1.1-0.7c0.5,0,0.9,0.3,1.2,0.7c0.8,2.6,2.1,4.4,5.4,4.5c1.7-2.3,1.1-4.4-0.5-6.3c-1.9-0.8-3,0.7-4.4,1
			c-0.5,0.1-0.9,0.1-1.4,0C289.3,127.3,289.1,127.2,288.9,127z"/>
		<path class="st3" d="M65.1,126.1c2.4-0.3,4-3.1,6.8-1.9c0.2,0.2,0.3,0.5,0.3,0.8c0,0.3-0.1,0.4-0.1,0.4c-0.6,1.1-1.1,2.3-1,3.7
			c0,0.4,0.1,0.8,0.1,1.3c0.4,1.5,0.5,3.3,2.9,2.5c1.3-2.2,0.6-4.6,0.4-6.9c0-0.2,0-0.4-0.1-0.7c0-0.5,0.2-0.9,0.5-1.2l-0.1-0.2
			c1.4-3.1-0.6-5.9-0.6-8.8c-1.3-3.2-4.2-2.9-6.8-3.2c-0.4-0.2-0.8-0.4-1.1-0.7c0.5-1.7,1.2-3.3,2.4-4.9c3.4-1.1,6.1,1.9,9.3,1.9
			c2.8-0.4,3.9,1.2,4.2,3.6c0.3,2.4,0.2,4.9,0.2,7.4c0,0.5,0,1.1,0,1.7c0,0.5,0,1.1,0,1.6c-0.1,2.1,0.1,4.3-0.4,6.4
			c-0.2,0.5-0.5,0.9-0.8,1.4c0.2,1.6-1.2,3.6,0.9,4.9c0.3,0.2,0.4,0.5,0.3,0.7c-0.1,0.2-0.2,0.4-0.3,0.4c-1.8,1-3.7,2.1-5.3,3
			c-1.8-0.4-0.5-2.3-2.1-2.9c-1.3,0.9-2.8,1.9-4.4,3c-2.3-1.4-4.5-2.8-6.1-4.9C65.2,131.6,63.5,128.7,65.1,126.1z"/>
		<path class="st4" d="M11,115c-2.5-1.9-1.7-4.4-1.3-6.9c0.4-2.2,1.8-3.8,2.4-5.8c0.2-0.5,0.6-0.7,1.1-0.7c0.5,0,0.9,0.3,1.1,0.7
			c-0.3,6.9,4,7.9,9.6,8.5c2.2,0.2,4.2-0.7,6.3-1c0.2,0.1,0.4,0.1,0.7,0.2c0.6,1.9,2.1,1.1,3.3,1.3c4.7,0.7,9.6,1.5,11.3,6.6
			c1.8,5.4,0.1,10.4-4.2,14.3c-0.4,0.3-0.8,0.4-1.3,0.2c-1.1-2.4-0.4-4.9-0.7-7.3c0-0.8,1.7-1.1,0.7-2.3c-0.5-0.7-1-1.3-1.6-1.9
			c-3.4-3.2-7.6-3.2-11.7-2.9c-3.8,0.3-7.6,0.7-11.4-0.7c-0.9-0.3-1.7-0.8-2.4-1.4c-0.5-0.4-0.8-0.9-1.5-1C11.4,115,11.2,115,11,115
			z"/>
		<path class="st5" d="M54.8,111.2c0,6.4,0,12.5,0,18.7c0,2.6,1.4,3.9,3.8,4.5c1.1,0.2,2.2,0.4,3.6,0.7c-1.6,2.4-4.3,2.6-6.2,4.1
			c-2.7-1-4.6-2.8-6.5-4.1c-0.5-8.8,2.3-17.7-2-26.7c1.6-1.8,3.9-3.9,6.4-5.6c1.2,1.4,0.3,2.9,1.1,4.1c2.1,1.1,4.5-0.1,6.7,0.7
			C61.8,110.8,61.8,110.8,54.8,111.2z"/>
		<path class="st6" d="M265.9,107.1c1.6,0.6,3.5-0.3,5,0.6c0.9,1.2-0.1,2.2-0.2,3.2c-0.5,0.8-1.4,1-2.2,1.1
			c-0.6,0.1-1.2,0.1-1.8,0.1c-0.3,0.1-0.7,0.2-1,0.4c-0.4,0.5-0.4,1.1-0.5,1.6c0,2.7,0.1,5.3,0.1,8c0,1.9,0.1,3.8-0.2,5.7
			c-0.1,0.9-0.6,1.5-1.1,2.2c-0.2,5.1,4.2,3.9,7.1,5.2c-1.5,2.2-4.2,2.4-6.2,4.1c-2.4-2-6.2-2.1-6.8-6.2c-0.9-6.9-0.1-13.8-1-20.6
			c-0.5-1.2-1.5-2.2-1.7-3.5c1.9-3.3,3.9-6.6,8.5-6l0,0C265.2,104.1,264.1,106.4,265.9,107.1z"/>
		<path class="st7" d="M314.8,122.8c-4,6.2-2,10.1,6.1,12.1c1-0.4,1.3,0,1,1c-1.9,1.1-3.7,2.1-5.7,3.3c-2.9-1.1-5.7-2.5-8.1-4.3
			c0-8.3,0-16.4,0-24.7c2.7-1.4,5.3-2.8,7.8-4.2c1.5,0.3,2.3,1.4,3.4,2.1c1,0.7,1.8,1.8,4,0.8c-1.7,3.3-3.3,5.8-5.4,8.1
			c-1.3-0.8-1.6-2.5-3.1-3.9C313.8,116.5,314.2,119.7,314.8,122.8z"/>
		<path class="st7" d="M237.9,135c-1.4,2.2-4,2.6-6.1,4.1c-2.9-1.1-5.6-2.6-8-4.2c0-8.3,0-16.4,0-24.3c2.2-2.4,5.3-2.6,7.3-4.6
			c0.8-0.6,1.6-0.2,2.3,0.1c0.8,0.3,1.4,0.8,2.1,1.3c0.8,0.6,1.7,1.1,2.3,2c0.1,0.2,0.1,0.4,0.2,0.6c-0.7,2.4-2,4.5-4,6
			c-0.2-0.1-0.4-0.1-0.7-0.2c-1-0.6-1.5-1.7-2.8-2.6c-0.6,2.8,0,5.5-0.4,8c0,0.2,0,0.5-0.1,0.7c-0.1,0.2-0.1,0.3-0.2,0.5
			c-2.6,8.4-1.4,10.6,7.1,12.5C237.3,134.6,237.6,134.6,237.9,135z"/>
		<path class="st7" d="M335.8,136.3c-1.5,1.5-3.1,2.1-4.5,2.8c-2-0.8-3.5-2.2-4.4-3c-0.7-9,1.9-17.6-2-26.8c0.2-0.5,1.1-1.9,2.9-2.7
			c1.3,0.8,2.7,1.7,3.9,2.4c2-0.1,2.5-1.9,4-2.6c2,0.4,3.4,1.6,4.4,3.5c-0.4,2.1-0.9,4.2-1.4,6.5c-2.4-1.4-2.3-5.4-5.7-5.7
			c-1.4,0.6-0.9,2-0.9,3c-0.1,5,0.1,10-0.1,14.9C331.7,131.9,332.3,134.6,335.8,136.3z"/>
		<path class="st3" d="M5.9,144.1c-2.1-5.2-0.6-12.8,3.2-16.2c1.5-1.3,3.1-1.6,5-1.2c1.7,0.3,3.4,1.5,5.2,0.4c0.4-0.2,0.9-0.2,1.3,0
			c5.2,3.6,11.8,4.1,17.2,7.5c0.1,0.2,0.2,0.4,0.3,0.6c-3.4,3.9-7.4,5.1-12.4,2.8c-2.7-1.3-5.6-2.1-8.3-3.2c-1-0.4-1.9-0.6-2.7,0.3
			c-0.4,0.2-0.8,0.3-1.3,0.2C9.6,134,8,136,7.3,139.4c-0.3,1.4,0,3-0.9,4.3C6.3,143.8,6.1,144,5.9,144.1z"/>
		<path class="st3" d="M91.8,132.2c0.1,2.1,2.3,2.6,3.3,4.1c-0.9,1.6-2.6,1.8-4.2,2.8c-1.8-1.5-4.9-1.7-4.9-5.1
			c-0.3-6.6-0.2-13.2-1-19.8c-1.3-2.6-3-5.2,0.3-7.6c1.3-0.8,2.6-0.7,4,0c0.5,0.3,1,0.6,1.5,0.9c0.3,0.1,0.6,0.1,1,0.1
			c0.3-0.1,0.6-0.2,0.9-0.4c0.4-0.3,0.8-0.7,1.2-1c0.4-0.4,0.9-0.7,1.5-0.8c0.4,0,0.8,0,1.2,0.2c1.1,0.5,2.2,1.1,3,2.1
			c0.5,0.7,0.8,1.5,1,2.3c0,0.4,0,0.8,0,1.3c-0.2,0.8-0.4,1.7-0.5,2.5c-0.4,1.1-0.9,2-2.3,2.3c-1.7-0.4-2.3-2.1-3.5-3.1
			c-1-0.9-1.3-0.1-1.6,0.7C92.1,119.9,92.7,126.1,91.8,132.2z"/>
		<path class="st2" d="M248,133.1c0.5,1.5,2.2,1.9,3,3.3c-0.8,1.6-2.7,1.6-4,2.9c-1.9-1-3.5-2-4.8-3.4c0.6-6.6-0.1-13.2,0.5-19.8
			c0.3-3.1-2.8-4.3-2.7-7c0.3-1.7,1.5-2.6,2.9-3.4c0.9-0.2,1.6,0.2,2.4,0.7c0.8,0.5,1.5,1.2,2.5,1.1c1.4-0.4,2.2-1.8,3.8-1.8
			c1.8,0.6,3.5,1.3,3.9,3.4c0.8,2.7,0.9,5.2-1.3,6.8c-2.8,0.5-3-3.5-5.7-2.3C248.4,120.1,248.3,126.6,248,133.1z"/>
		<path class="st3" d="M280.2,130c-0.5,2.2-0.1,4.2,1.5,5.7c-0.4,1.8-2.2,2-2.9,3.1c-1.9-0.2-2.7-1.5-3.9-2.7c0-1.9,0-4,0-6.1
			c-0.3-0.4-0.6-0.9-0.8-1.4c-0.6-2.4-0.3-4.8-0.4-7.2c0-0.5,0-1,0-1.6c0.1-3.3-0.1-6.6-0.6-9.9c0.5-1.4,1.3-2.6,2.5-4
			c1.5,1.1,3,2.2,4.7,3.4c0,6.2,0,12.4,0,18.6C280.5,128.7,280.6,129.3,280.2,130z"/>
		<path class="st8" d="M208.1,108c4.3,2.7,4.9,6.7,4.7,11.4c-0.3,4.8-0.1,9.5-0.1,14.4c-3.7,0.8-4.9-1.1-5.8-3.6
			c-0.8-2.2-0.5-4.6-0.6-6.9c-0.1-4.8-0.1-9.6-0.1-14.4C206.8,108.7,207.5,108.3,208.1,108z"/>
		<path class="st9" d="M243.1,106.4c-1.1,0.8-1.6,2.3-3,2.6l-0.5,0.1l-0.5-0.1c-0.3,0.3-0.7,0.4-1.2,0.2c-0.8-0.7-1.7-1.2-2.6-1.7
			c-0.7-0.3-1.2-1.1-2.1-0.7c-0.7-0.2-1.4-0.5-2.1-0.7c-1.5-1.6-3.8-2.7-3.9-5.7c0.3-1.4,1.4-2.5,3-3.2c1.7,0.7,3.2,1.8,4.2,3.3
			c1.1,1.6,2.4,1.4,3.8,0.5c0.4,0.5,0.8,1,1.5,1.7c4-2.3,8.2-4.6,12.1-7.2c1.6-1,2.9-1.1,4.5-0.9c0.3,0.1,0.5,0.1,0.8,0.2
			c2.5,1.9,0.9,3.1-0.7,4.3c-0.4,0.2-0.9,0.3-1.3,0.3c-4.1-0.3-6.7,2.3-9.3,4.9C245,105.4,243.7,105.4,243.1,106.4z"/>
		<path class="st10" d="M91.8,111.8c0.5-2,1.6-1.1,2.5-0.4c1.5,1.2,2.2,3.1,3.2,4.7c1.4-0.7,1.1-2,1.6-3c0.4-0.6,0.3-1.5,0.8-2.1
			l0,0c1.1-0.5,1.7,0.1,2.1,1.1c-4.5,6.2-2.7,13.4-3.1,20.3c-1.7,0-2.2-1.3-2.9-2.3c-0.8-0.6-1.7-1-2.2-1.8
			c-1.3-1.6-2.1-3.5-2.2-5.6C91.7,118.9,91.1,115.3,91.8,111.8z"/>
		<path class="st11" d="M16,99c4.1-3.6,8.5-3.5,13.2-1.4c3.1,1.4,6.2,3.1,9.8,2.8c0,0.2,0,0.4,0,0.6c-1.2,2.4-3.5,3.9-5.1,6
			c-0.3,0.4-0.8,0.5-1.2,0.3c-5.4-2.9-10.7-6-16.8-7.1C15.5,99.7,15.6,99.3,16,99z"/>
		<path class="st12" d="M86,96c1.3-0.6,2.7-1.3,3.9-1.9c5.2,3,9.9,6.5,15.2,8.8c3.9,0,5.1-4.9,8.9-5c1.7,0.3,2.3,1.6,2.8,3
			c-1.3,5.2-6.1,4.7-9.7,6.2c-5.6-1.1-9.9-4.9-15.1-6.9c-1.1-0.4-2.1-0.8-3.2-0.8C87.1,99,85.5,98.3,86,96z"/>
		<path class="st13" d="M86,107.1c-0.7,1.1-1.3,2.1-2,3.1c0.4,1.1,1.9,1.3,2.1,2.5c0.6,2,0.3,4,0.2,6.1c-1.3,2.3-3.1,2.6-5.3,1.2
			c0-3.2,0-6.5,0-9c-0.5-2.3-2.5-1.7-3.1-3c0-1,0-2,0-3c0.1-0.6,0.6-0.8,0.9-1.2c0.4-2,1.8-3.3,3-4.8c0.2,0,0.3,0.1,0.5,0.1
			c0.3-0.1,0.7-0.2,1.1-0.3c0.4,0.2,0.7,0.4,0.9,0.8c0.4,0.9,0.3,2,1,2.8c1,0.9,2.5,1.5,2.7,2.8C88,106.8,86.4,106.2,86,107.1z"/>
		<path class="st11" d="M163.8,123.1c2.1,1.4,0.9,3.6,1.1,5.4c0.2,2.1,0,4.2,0,6.4c-2.6,0.4-4,2.7-6.5,3.8
			c-6.1-0.9-12.5-5.5-18.7,0.3c-0.2,0-0.4,0-0.6,0c1.7-2.5,3-5.4,5.8-7c0.2,0,0.5,0,0.7-0.1c5.4-0.5,10.8-0.2,16.4-0.3
			C163.5,128.8,161.7,125.5,163.8,123.1z"/>
		<path class="st14" d="M67.1,111c3.3-0.9,6.1-0.4,8,2.7c0.5,2.1,0.5,4.1,0,6.1c-2.3,1.4-4.9-0.2-7.1,1.1c-2.2,0.3-4-1.2-6.4-1.3
			c2.8-0.6,1.8-3.3,3.1-4.7c0.8,0.2,0.7,0.8,0.7,1.4c0.3-1.2-0.4-2.5,0.6-3.5l-0.1,0.2C66.6,112.6,66.3,111.5,67.1,111z"/>
		<path class="st15" d="M273,110c3.2,2.8,1.8,6.6,1.9,10c-6.6,3.1-9.7,1.5-9.8-5.1c-0.2-1.9,1.5-2.1,2.5-2.8c-0.1-0.4,0-0.7,0.4-0.8
			c0.9-0.1,1.8-0.2,2.8-0.3C271.7,111,272.5,111,273,110z"/>
		<path class="st16" d="M89,99c1.3-1.3,2.5-2.1,3.4,0.4c0.3,0.9,0.9,1,1.9,1.1c5,0.8,8.7,4.2,12.8,6.7c-0.5,0.8-1.2,1.4-2.1,1.6
			c-0.3-0.1-0.5-0.4-0.5-0.8c0,0-0.3-0.4-0.3-0.4s0.1,0.5,0.1,0.5c-0.2,0.2-0.5,0.4-0.9,0.5c0,0-0.5,0-0.5,0s-0.5-0.1-0.5-0.1
			c-0.3-0.1-0.6-0.3-0.8-0.5c-0.2-0.2-0.5-0.3-0.8-0.3c-0.3,0.1-0.5,0.2-0.8,0.4c-0.4,0.2-0.9,0.3-1.2-0.1c-1.1-0.5-2.1-0.9-2.8-1.9
			c-0.4-0.3-0.7-0.3-0.9,0.1c-0.1,0.6-0.5,0.8-1,0.9c-0.5-0.3-0.9-0.7-1.2-1.2c-0.3-0.4-0.7-0.8-1.1-1.1c-0.3-0.1-0.6-0.2-1-0.3
			c-0.2,0-0.3-0.1-0.5-0.1c-0.3-0.2-0.6-0.4-0.7-0.7c-0.2-0.5-0.2-1-0.1-1.5c0-0.3-0.1-0.6-0.1-0.9c-0.2-0.5-0.4-0.9-0.6-1.4
			C88.6,99.5,88.7,99.2,89,99z"/>
		<path class="st17" d="M256,99c0.6-1.3,2.4-2.4,1-4.2c1.2-1.1,1.7,0.3,2.1,0.8c0.9,1,1.9,0.8,2.9,0.5c0,0.2,0,0.4,0,0.6
			c0,0.7,0,1.4,0,2.2c1.1,1.7,0.2,3.3-1.1,3.6c-2.5,0.5-4.5,2.7-7.2,2.3c-0.4-0.5-0.9-1-1.5-0.2c-0.4,0.4-0.8,0.8-1,1.3
			c-0.9,1.1-1.7,2.3-3.1,2.7c-0.9-1-2-1.4-3.2-1.7c-0.6-0.2-1.1-0.5-1.7-0.7c0.1-1.2,0.8-2,1.9-2.4c1.3,0,2.1-1.2,3.3-1.2
			c0.7,0.2,1.3,0.1,1.8-0.6c0.9-1,1.9-1.8,3.1-2.3c0.3-0.2,0.7-0.3,1.1-0.3c0.4,0,0.6,0.1,0.8,0.4c0.3,0,0.6-0.1,0.8-0.2
			c0,0,0.4,0.1,0.4,0.1s-0.2-0.4-0.2-0.4C256.1,99.4,256,99,256,99z"/>
		<path class="st18" d="M248,133.1c-1.7-2.2-0.7-4.7-0.6-7.1c0.1-5-1-10,0.7-14.9c2.3,2.9,1.1,6.2,1.4,9.4c0.2,2.1-0.3,4.2,0.4,6.3
			c2.1,1.4,4.3,1.5,6.4-0.1c0.7-1.5,0.4-3,0.5-4.6c0-0.5,0-1,0-1.5c0-0.8,0-1.6,0-2.3c0.1-2.4-0.6-5,1.3-7.1c1.8,2,0.8,4.4,0.8,6.6
			c0,5.2,1,10.4-0.6,15.5c-0.2-0.9-0.4-1.9-0.6-3c-3,0-5.9,0-8.7,0C247.8,131,248.3,132.2,248,133.1z"/>
		<path class="st19" d="M253,104c3,1.9,2.7-1.8,4.2-2.4c1.1-0.4,1.5,1.2,2.7,0.8c1.1-0.7,2.1-1.7,2.1-3.4c1.3,1,2.1,2.3,2,4
			c-3.9,0.4-5.4,4-8.1,6c-0.2,0-0.5,0-0.7,0c-1.3-1.1-2.5-2.2-4.1-2.9c-1.4-1.4,0.1-1.6,0.9-2.1c0,0,0.4,0.1,0.4,0.1
			c0,0,0.1,0.4,0.1,0.4s0.1-0.4,0.1-0.4C252.6,104.1,253,104,253,104z"/>
		<path class="st20" d="M117.1,126.1c-1.1,1.7-2,3.4-3.3,5c-1,1.3,0.3,1.7,0.8,2.5c-1.6,2.1-4,3.2-6,4.9c-0.6-1.3,0.2-1.8,0.5-2.6
			c0.2-0.2,0.3-0.4,0.3-0.6c0-0.2-0.1-0.3-0.1-0.3c0.9-3,1.9-6,2.8-9.1c0.5-0.9,1.3-1.4,2.3-1.7c1-0.2,2-0.2,2.8,0.5
			C117.4,125.2,117.4,125.7,117.1,126.1z"/>
		<path class="st21" d="M117.9,108.9c0.2-1.1-0.1-2.4,1.8-2.9c1.2,3.6,2.4,7.2,3.5,10.9c0.6,1.2,0.3,2.4-0.4,3.4
			c-0.9,1.2-1.5,2.6-3.1,3c-0.5,0-1-0.3-1.3-0.8c-0.7-1.4-0.7-3-0.7-4.6c0-1,0-2.1,0-3.1C118,112.9,117.9,110.9,117.9,108.9z"/>
		<path class="st22" d="M314.8,122.8c-0.9-0.1-1.6-0.4-1.7-1.4c0-3.7,0-7.4,0-12c3.1,2.4,5,4.3,4.8,7.6l0.1-0.1
			c-0.4,0.4-0.6,0.9-0.9,1.3c-0.5,0.5-0.8,1.2-1.2,1.8l0-0.1c-0.3,0.2-0.4,0.4-0.3,0.6c0.1,0.2,0.1,0.4,0.2,0.4
			C315.9,121.8,315.4,122.3,314.8,122.8z"/>
		<path class="st23" d="M131,118c1.6,0,3.2,0,5.5,0c-3.4,3.5-7.1,5.5-10.4,8c-0.2,0-0.4,0-0.6,0c-0.8,0-1.6-0.1-2.4-0.2
			c-1.1-0.3-2-0.8-2.5-1.8c-0.1-0.5,0-0.9,0.3-1.2c0.7-0.6,1.4-1.1,2.2-1.5C125.7,120,128.8,120,131,118z"/>
		<path class="st24" d="M107,122c-1.6-1-3.2-2.1-4.8-3.1c-0.3-1.2,0.5-1.4,1.3-1.3c4,0.1,8.1-0.4,12.1,0.3c1.3,0.7,2,1.8,2.2,3.3
			c0,0.5-0.1,1-0.3,1.5c-0.3,0.4-0.7,0.7-1.2,0.8c-1.2,0-2.3-0.4-3.5-0.8C111,121.7,109,121.7,107,122z"/>
		<path class="st25" d="M114,98c-1.6,1.2-3.2,2.2-4.2,4.1c-1.1,2.2-2.8,2.7-4.8,0.9c0.5-3.3,2.5-5.7,4.9-7.9c1,0.7,2,1.3,3,2
			C113.3,97.4,113.7,97.7,114,98L114,98z"/>
		<path class="st26" d="M238.2,100.9c-0.3,0.9,0.2,2-1,3.2c-3.8-0.7-4.4-5-7-7c1.3-0.7,2.6-1.4,3.9-2.1
			C235.6,96.8,237.1,98.8,238.2,100.9z"/>
		<path class="st27" d="M126.9,136.2c-3-1.1-5.2-3.4-7.6-5.2c-0.6-2-0.1-4-0.2-5.9c0.3-0.3,0.6-0.4,1-0.3c0.5,0.2,0.9,0.6,1.3,1
			c0.4,0.4,0.8,0.8,1.1,1.3c0.2,0.3,0.4,0.6,0.6,0.9c0.4,0.6,0.9,1.2,1.4,1.8c0.5,0.6,1,1.3,1.4,1.9c0.4,0.5,0.7,1,1,1.6
			C127.5,134.2,128,135.2,126.9,136.2z"/>
		<path class="st28" d="M85.9,119.1c0.1-2.1,0.2-4.2,0.3-6.3c1.6,4.8,0.7,9.8,0.7,14.7c0,2.1,1.3,4.6-0.8,6.6
			c-0.1-1.1-0.1-2.3-0.2-3.3c-1.2-1.3-2.7-0.6-3.9-1c-0.2-0.2-0.3-0.5-0.3-0.7c0.1-0.3,0.1-0.4,0.2-0.4c0.3-0.3,0.7-0.5,1.1-0.6
			c0.8-0.3,1.4-0.7,1.6-1.6c0.6-2.9-2.2-3.1-3.6-4.5c0-0.4,0-0.7,0-1.1C82.5,119.8,85,121.4,85.9,119.1z"/>
		<path class="st29" d="M131,118c-0.1,0.6,1,1.5-0.4,1.9c-2.5,0.7-4.8,2.2-7.5,2.3c-0.9-0.4-1.1-1.2-1.1-2.1
			c0.4-1.1,0.8-2.1,1.2-3.2C125.6,119,128.4,117.3,131,118z"/>
		<path class="st30" d="M116,119c-4.6-1.5-9.2-1.6-13.8-0.1c-0.5-0.2-0.8-0.5-0.8-1.8c3.2,0,6.4-0.1,9.6,0c2,0.1,3.9-0.1,5.1-2.1
			c1-0.8,2-0.8,2.9,0.1c0,1,0,2-0.1,3C118.1,118.9,117.1,119.1,116,119z"/>
		<path class="st31" d="M89,99c0,0.3,0,0.7,0,1c0,0-0.1,0.5-0.1,0.5c0.1,0.3,0.3,0.6,0.5,0.8c0,0,0.1,0.5,0.1,0.5
			c-0.1,0.4-0.2,0.7-0.4,1.1c-0.9,0.6-1.6,0.2-2.2-0.3c-0.2-0.2-0.4-0.5-0.5-0.9c-0.3,0.3-0.3,0.6-0.5,0.9c-0.6,0.5-1.2,1.1-2,0.5
			c-1.6-1,1-3.1-1-4c-0.6-1.1,0.3-1.6,0.9-2.1c0.3-0.3,0.7-0.7,1-1c0.4,0,0.7,0,1.1,0.1C86.6,97.4,87.6,98.4,89,99z"/>
		<path class="st18" d="M94.9,128.2c0.4,0.6,0.7,1.2,1.1,1.8c-1.7,0.2-3.9-0.6-4.2,2.2c-1.1-6.8-0.8-13.6,0-20.5
			c0.1,4.1,0.2,8.2,0.3,12.3c0.5,1.2,0.7,2.5,0.7,3.8C93.6,127.5,94.3,127.3,94.9,128.2z"/>
		<path class="st32" d="M107,122c1.1-0.2,0.3-1.4,1.1-1.9c1.6,0.6,3.5,0.6,4.9,1.8c0.9,0.9,1.3,1.9,1.1,3.2
			c-0.5,0.7-1.3,0.8-2.1,0.9C110.4,124.7,108.7,123.4,107,122z"/>
		<path class="st33" d="M171,28c0.1-3.8-0.7-7.8,1.9-12.1c0,4.6,0,8.4,0,12.1C172.3,28.6,171.7,28.6,171,28z"/>
		<path class="st11" d="M18,120.2c-0.3-0.2-0.7-0.3-1-0.5c-0.1-0.7,0.1-1.1,0.8-1.4c5.4,0,11-1.7,16.3,0.7c0.3,0.5,0.4,1,0.3,1.6
			c-3.4,1.9-7.2,0.1-10.7,1.2c-0.5,0-1-0.1-1.5-0.2C21,120.3,19.4,120.7,18,120.2z"/>
		<path class="st34" d="M68.1,121c1.8-2.1,4.5-0.1,6.5-1.6c0.9-1.7,0.1-3.8,0.6-5.7c1.3,3.4,1.5,6.7-0.3,10c0-0.8,0.2-1.7-0.6-2.5
			C72.4,120.7,70.2,121.1,68.1,121z"/>
		<path class="st33" d="M65.1,126.1c-0.7,2.7,0.7,5.7-1,8.2c-0.2-1.3-0.3-2.5-0.5-3.7c-2.3-1.3-4.7,0-7.2-1.1
			c2.2-0.9,4.3-0.2,5.3-0.5C64.3,128.6,63.6,126.4,65.1,126.1z"/>
		<path class="st35" d="M265.9,107.1c-4,0.3-1.7-2.5-2-4.1c3.3,1.4,6.2-1.8,9.7-0.7c-2.2,1.4-4.5,1.6-6.7,2.2
			C265.5,105,265.3,105.9,265.9,107.1z"/>
		<path class="st36" d="M274.9,129c0,0.4,0,0.7,0,1.1c-3.6,0-7.2,0-10.8,0c0-0.7-0.1-1.3-0.1-2C267.8,125.8,271.3,127.1,274.9,129z"
			/>
		<path class="st37" d="M101,106c0.9,0.4,1,1.2,1,2l0,0c0.7,0,1.4,0,2,0c0.3,0.2,0.4,0.5,0.3,0.7c-0.1,0.2-0.2,0.4-0.3,0.4l0-0.1
			c-0.4,0.3-0.8,0.6-1.1,1.1l0.1-0.1c-0.3,0.1-0.4,0.3-0.4,0.5c0,0.2,0.1,0.4,0.1,0.4c-0.3,0.4-0.6,0.7-0.9,1.1
			c-0.7-0.4-1.4-0.7-2.1-1.1c-0.4-1-0.7-1.9-1.1-2.9c0.6-0.1,1-0.5,1.2-1.1C100.4,106.7,100.7,106.3,101,106z"/>
		<path class="st38" d="M173.1,41c-0.7,0-1.5,0-2.2,0c0.1-2.6,0.1-5.3,0.2-7.9c1.1-0.6,1.3,0.4,1.8,1C173,36.3,173,38.6,173.1,41z"
			/>
		<path class="st39" d="M179.1,40c-0.1-3.7,1.5-7.2,1-10.9c0.3-0.5,0.6-0.5,0.9,0c-0.3,3.7,0.9,7.4-0.8,11
			C179.8,40.4,179.4,40.4,179.1,40z"/>
		<path class="st40" d="M238.9,64c-0.8,0-1.5-0.1-1.9-1c2.3-2,4.6-4,6.9-6c0.4-0.4,0.8-0.4,1.1,0C243,59.3,241,61.6,238.9,64z"/>
		<path class="st41" d="M156.2,121.9c-0.7,0.1-1.3,0.2-2,0.3c-0.8,0.3-1.1,1.2-1.7,1.7c-0.3,0.3-0.7,0.4-1.1,0.5
			c-0.2-0.1-0.4-0.1-0.6-0.2c-0.2-0.4-0.1-0.8,0.2-1.1c-0.2-1.9-2.4-1.4-3.1-2.7c-0.3-0.2-0.4-0.5-0.4-0.8c0-0.3,0-0.4,0.1-0.4
			c1.8-1.2,3.4,0.5,5.2,0.2c0.4,0,0.9,0.1,1.3,0.2C155.2,120,156.2,120.5,156.2,121.9z"/>
		<path class="st42" d="M118.9,115.1c-1,0-1.9-0.1-2.9-0.1c0.5-2.1,0.7-4.3,1.9-6.1C119.2,110.8,119.1,112.9,118.9,115.1z"/>
		<path class="st43" d="M121,126c-0.4-0.3-0.7-0.6-1.1-0.9c-0.2-0.9,0-1.4,1.1-1.1c1,0.4,2,0.8,3,1.2c0.6,0.4,1.4,0.3,2.1,0.7
			L126,126c0,0.3,0,0.7,0,1c-0.9,1.7-2.1,2.3-3.7,0.9c-0.2-0.2-0.3-0.4-0.3-0.7C121.7,126.7,121.4,126.4,121,126z"/>
		<path class="st44" d="M172.9,34c-0.6-0.3-1.2-0.6-1.8-1c0-1.7,0-3.4,0-5c0.6,0,1.3,0,1.9,0C172.9,30,172.9,32,172.9,34z"/>
		<path class="st45" d="M276.1,100c1.5-2.1,3.1-2.9,5-0.3c-1.1,1.7-2.7,1.1-4,1.3C276.4,101,276.4,100.3,276.1,100z"/>
		<path class="st46" d="M181,29l-0.5,0l-0.5,0c-0.2-2.8,1.6-5.3,1.4-8.1C181.9,23.7,182.6,26.4,181,29z"/>
		<path class="st47" d="M126.9,136.2c0.3-1.2-0.6-2.1-1-3.1c0.7-0.6,1.4-0.6,2.1-0.1l0,0c0.3,0.3,0.5,0.7,0.7,1
			c0.3,1.4,1.5,2.6,1.1,4.2c-1,0.3-1.5-0.3-1.9-1.1c-0.3-0.4-0.6-0.8-1.1-1.1L126.9,136.2z"/>
		<path class="st48" d="M106.1,62.9c-0.4,0.4-0.7,0.7-1.1,1.1c-1.3-1.6-2.7-3.3-4-4.9c-0.1-0.2-0.2-0.3-0.4-0.5
			c0.1-0.2,0.2-0.4,0.3-0.5C103,59.2,104.6,61,106.1,62.9z"/>
		<path class="st49" d="M253,49c-1.3,2-2.9,3.7-4.9,5c-0.4,0.4-0.8,0.4-1.1,0c1.4-2,3-3.7,5.1-5C252.3,48.6,252.7,48.6,253,49z"/>
		<path class="st50" d="M98.9,57c-2-1.3-3.7-2.9-4.9-5l0,0c3,0.5,4.4,2.9,6,5C99.6,57.4,99.3,57.4,98.9,57z"/>
		<path class="st51" d="M122.3,127.9c1.4,0.3,2.6-0.3,3.7-0.9c0.3,0.7,0.6,1.4,0.9,2c-0.6,1.3-1.5,2-2.9,1
			C123.1,129.5,122.5,128.9,122.3,127.9z"/>
		<path class="st52" d="M165.1,40.9c-0.7,0-1.4,0-2.1,0c0.1-1.4,0.1-2.7,0.2-4.1c0.2-0.4,0.5-0.7,0.9-1
			C165.7,37.3,164.7,39.3,165.1,40.9z"/>
		<path class="st53" d="M163.1,30.1c-0.5-2.4-1.8-4.7-0.5-7.9c0.2,3.1,1.5,5.4,1.3,8C163.6,30.5,163.3,30.4,163.1,30.1z"/>
		<path class="st54" d="M78.9,103.8c-0.1,0.6-0.4,1-0.9,1.2c-1.7-0.6-3.6-0.6-5-2c-0.3-0.2-0.5-0.4-0.4-0.6c0.1-0.2,0.2-0.3,0.3-0.3
			C75,102.7,77,103.2,78.9,103.8z"/>
		<path class="st55" d="M218.9,50c-0.3-0.4-0.7-0.7-1-1.1c1.1-1.6,1.6-3.6,3.1-4.9c0.3,0.3,0.4,0.5,0.3,0.8
			c-0.1,0.3-0.2,0.4-0.2,0.4C220.9,47.1,219.7,48.4,218.9,50z"/>
		<path class="st56" d="M189,34c-0.1,2,0.7,4.2-0.8,6c-0.4,0.5-0.7,0.5-1.1,0c0.4-2,0.7-4,1.1-6C188.4,33.6,188.7,33.6,189,34z"/>
		<path class="st57" d="M155.1,36c-0.3-2.1-1.8-4-0.5-6.7c0.4,2.6,1.6,4.5,1.4,6.7C155.6,36.5,155.3,36.5,155.1,36z"/>
		<path class="st58" d="M198.8,32c-1,1.5-0.2,3.7-1.7,5c-0.3,0.5-0.6,0.5-1,0c0.3-1.8,0.5-3.7,1.9-5.1
			C198.3,31.5,198.5,31.5,198.8,32z"/>
		<path class="st59" d="M213.1,40.1c0.9-1.8,1.3-3.7,2.9-5l0,0c0.1,2-0.3,3.7-1.9,5C213.8,40.5,213.4,40.5,213.1,40.1z"/>
		<path class="st60" d="M77,86c-1.4-0.7-2.9-1.5-5.1-2.6c2.7-0.6,4,0.3,5.1,1.6c0.3,0.2,0.5,0.4,0.4,0.6C77.2,85.9,77.1,86,77,86z"
			/>
		<path class="st61" d="M128,35c1.6,1.3,2,3.3,3,5c-0.4,0.6-0.7,0.6-1.1,0C128.4,38.6,127.8,37,128,35L128,35z"/>
		<path class="st62" d="M75,94c2.2,0,4.3,0.6,6,2c-0.3,0.4-0.7,0.4-1.1,0c-1.8,0.5-3.2-1-4.9-1c-0.3-0.2-0.4-0.4-0.3-0.6
			C74.8,94.1,74.9,94,75,94z"/>
		<path class="st63" d="M189,29c0-1.8,1.3-3.3,0.9-5.8c1.9,2.5,0.8,4.1,0.1,5.8C189.7,29.5,189.4,29.4,189,29z"/>
		<path class="st64" d="M280.2,130c0-0.7,0-1.4,0-2.1c1.4,1.3,3.4,0.9,5,2.1C283.6,130,281.9,130,280.2,130z"/>
		<path class="st49" d="M208,31c0.1,2.3-0.6,4.3-1.9,6.1c-0.3-0.2-0.4-0.5-0.3-0.8c0.1-0.3,0.2-0.4,0.3-0.4
			C205.9,34,206.4,32.3,208,31L208,31z"/>
		<path class="st65" d="M163.1,30.1c0.3,0,0.6,0,0.8,0c0,2,0.1,3.9,0.1,5.9c-0.3,0.3-0.6,0.6-0.9,1
			C163.1,34.6,163.1,32.4,163.1,30.1z"/>
		<path class="st66" d="M246.9,54c0.4,0,0.8,0,1.1,0c-0.7,1.3-1.7,2.3-3,3c-0.4,0-0.7,0-1.1,0C244.6,55.7,245.7,54.7,246.9,54z"/>
		<path class="st61" d="M95,65c-2.1,0-3.1-1.4-4-3l0,0C93,62.1,94.2,63.3,95,65L95,65z"/>
		<path class="st67" d="M253,49c-0.3,0-0.7,0-1,0c0.7-1.3,1.5-2.4,4-3.2C255,47.6,254.2,48.5,253,49z"/>
		<path class="st68" d="M123.1,44.7c1.6,1,2.1,2.8,3,4.3l-0.3,0.1c-0.3,0.3-0.6,0.3-0.9-0.1c-1.2-0.6-1.4-1.9-2-3
			C122.5,45.5,122.6,45.1,123.1,44.7z"/>
		<path class="st69" d="M71,103c-1.8-0.4-3.6-0.6-5-2l0,0c1.8-0.2,3.5,0,5,1c0.3,0.2,0.4,0.4,0.3,0.6C71.2,102.9,71.1,103,71,103z"
			/>
		<path class="st70" d="M189,29c0.3,0,0.6,0,0.9,0c-0.2,1.7,0.7,3.6-1,5c-0.3,0-0.6,0-0.8,0C188.8,32.4,189.1,30.8,189,29z"/>
		<path class="st71" d="M189,98c-0.2,0.3-0.2,0.6,0.1,0.9c-1.1,0-2.4,0.4-2.9-1.2C187.3,96.5,188.2,96.9,189,98z"/>
		<path class="st72" d="M115,32c-1.4-1-1.9-2.4-2-4l0,0c1.9,0.7,2.2,2.5,3,4C115.6,32.4,115.3,32.4,115,32z"/>
		<path class="st73" d="M146,33c1.6,0.9,1.2,2.7,1.8,4.1c-0.1,0.4-0.4,0.8-0.8,1C145.5,36.6,146,34.7,146,33L146,33z"/>
		<path class="st74" d="M80,96c0.4,0,0.7,0,1.1,0c1.1-0.1,1.9,0.6,2.9,1c-0.3,0.7-0.6,1.4-0.9,2.1l0,0l-0.4,0.3l-0.4-0.2L82,99
			C82.5,97.1,80.4,97.2,80,96z"/>
		<path class="st75" d="M225.1,37c0.8-1.5,1.1-3.3,2.9-4l0,0c-0.1,1.6-0.7,3-2,4C225.7,37.4,225.4,37.4,225.1,37z"/>
		<path class="st50" d="M236.9,52.9c-0.5,1.4-1.4,2.4-2.8,3.1c-0.3,0.4-0.7,0.4-1,0c0.6-1.4,1.5-2.4,2.9-3
			C236.3,52.6,236.5,52.6,236.9,52.9z"/>
		<path class="st76" d="M196,43c-0.4-0.4-0.8-0.7-1.1-1.1c0.2-1-0.1-2.3,1.2-2.9c0.2-0.5,0.5-0.5,0.8,0
			C196.5,40.3,196.3,41.7,196,43z"/>
		<path class="st77" d="M124,130c1.1,0.1,2-0.6,2.9-1c0.3,0.7,0.6,1.4,0.9,2c-0.8,0.7-1.5,1.5-2.7,0.8
			C124.7,131.3,124.3,130.6,124,130z"/>
		<path class="st78" d="M144.9,26.1c-0.1,1.4,0.5,2.7,0.9,4c-0.3,0.4-0.6,0.4-0.8-0.1c-1.6-1-0.9-2.6-1-4
			C144.3,25.6,144.6,25.6,144.9,26.1z"/>
		<path class="st79" d="M66,112.9c0,1.6,0.3,3.2-0.4,4.8c-1.2-0.7-0.6-1.8-0.9-2.7C65.1,114.2,65,113.2,66,112.9z"/>
		<path class="st80" d="M254,72c-0.6,1.4-1.7,2.4-3.1,2.8c-0.2-0.2-0.3-0.4-0.2-0.6c0.1-0.2,0.2-0.3,0.3-0.3
			C251.5,72.6,252.6,72,254,72L254,72z"/>
		<path class="st61" d="M144.9,26.1c-0.3,0-0.6-0.1-0.9-0.1c-1.7-1-0.9-2.6-1-4l0,0C144.6,22.9,144,24.8,144.9,26.1z"/>
		<path class="st81" d="M202,18c-0.2,1.4,0.6,3-1,4c-0.3,0.5-0.6,0.5-0.9,0C201,20.8,200.5,18.9,202,18L202,18z"/>
		<path class="st82" d="M121,124c-0.6,0.2-0.9,0.6-1.1,1.1c-0.3,0-0.5,0-0.8-0.1c-0.3,0-0.7,0-1,0.1c-0.4-0.3-0.6-0.7-0.7-1.1
			c0.1-0.5,0.3-0.8,0.6-1.2c0.4-0.2,0.8-0.2,1.2,0.2c0.2-0.1,0.5-0.1,0.7,0.1c0.3-0.4,0.7-0.4,1,0C121,123.3,121,123.7,121,124z"/>
		<path class="st83" d="M90.1,72.9c-1.5-0.5-2.5-1.5-3.1-2.9l0,0c1.5,0,2.5,0.6,3,2c0.2,0.2,0.3,0.4,0.2,0.6
			C90.2,72.8,90.1,72.9,90.1,72.9z"/>
		<path class="st84" d="M206,35.9c0,0.4,0.1,0.8,0.1,1.2c0,1.1,0.2,2.3-1,3c-0.4-0.2-0.7-0.5-0.8-0.9
			C204.6,37.9,204.8,36.7,206,35.9z"/>
		<path class="st85" d="M100,68.1c-0.4,0.3-0.7,0.6-1.1,0.9C98,68.6,97.3,68,97,67c-0.3-0.2-0.3-0.4-0.3-0.5
			c0.1-0.2,0.1-0.3,0.2-0.3C97.9,66.8,99,67.5,100,68.1z"/>
		<path class="st80" d="M107,52c1.4,0.6,2.4,1.6,3,3c-0.3,0.3-0.6,0.3-0.9,0C107.6,54.5,106.9,53.5,107,52L107,52z"/>
		<path class="st86" d="M18,120.2c1.4,0.1,3.1-0.8,4.2,0.8c0,0.2,0.1,0.5,0.1,0.7c-0.2,0.2-0.3,0.4-0.5,0.5c-0.2,0-0.5,0-0.7,0
			C20.7,120.6,18.7,121.4,18,120.2z"/>
		<path class="st87" d="M155.1,36c0.3,0,0.6,0,0.8,0c0.3,1.3,0.6,2.7,0.9,4c-0.3,0.5-0.6,0.5-0.9,0C154.6,38.9,155.1,37.4,155.1,36z
			"/>
		<path class="st88" d="M125.1,131.9c0.9-0.3,1.6-1,2.7-0.8c0.1,0.6,0.2,1.3,0.3,1.9c-0.7,0-1.4,0-2.1,0.1
			C125.5,132.8,125.1,132.5,125.1,131.9z"/>
		<path class="st89" d="M245,68c0.6-1.3,1.5-2,3-2l0,0c-0.5,1.5-1.7,2.3-2.9,3.1l-0.2-0.2C244.6,68.5,244.7,68.2,245,68z"/>
		<path class="st90" d="M238.1,50c0.6-1.4,1.6-2.4,2.9-3l0,0c0.1,1.5-0.6,2.5-2,3C238.7,50.4,238.4,50.4,238.1,50z"/>
		<path class="st91" d="M116,50c-1.4-0.5-2-1.6-2-3l0.1-0.1c1.4,0.7,2.4,1.7,2.8,3.1C116.5,50.4,116.3,50.3,116,50z"/>
		<path class="st61" d="M143,22c-1.6-1-0.8-2.6-1-4l0,0C143.6,19,142.8,20.6,143,22L143,22z"/>
		<path class="st72" d="M257,70c0.5-1.4,1.5-2,3-2l0,0C259.5,69.4,258.5,70,257,70L257,70z"/>
		<path class="st81" d="M202,18c0.1-1.1-0.3-2.3,0.5-3.4C203.2,15.9,203.3,17,202,18L202,18z"/>
		<path class="st92" d="M87,70c-1.5,0.1-2.5-0.6-3-2l0,0C85.4,68,86.5,68.6,87,70L87,70z"/>
		<path class="st93" d="M267,85c0.7-1.3,1.9-0.9,3-1l0,0c-0.7,1.2-2,1.4-3,2c-0.3-0.2-0.4-0.5-0.3-0.7C266.8,85.1,266.9,85,267,85z"
			/>
		<path class="st67" d="M75,94c0,0.3,0,0.7,0,1c-1.1-0.6-2.4-0.7-3-2l0,0C73.1,93.1,74.3,92.6,75,94z"/>
		<path class="st94" d="M266,95c0.7-1.3,1.9-0.9,3-1l0,0c-0.6,1.3-2,1.4-3,2c-0.3-0.2-0.5-0.5-0.3-0.7C265.8,95.1,265.9,95,266,95z"
			/>
		<path class="st95" d="M266,95c0,0.3,0,0.7,0,1c-1,0.3-2,0.6-3,0.9c-0.2-0.2-0.3-0.4-0.2-0.6c0.1-0.2,0.2-0.3,0.3-0.3
			C263.6,94.7,264.9,95,266,95z"/>
		<path class="st96" d="M258,80.1c-0.3,0.9-0.9,1-1.7,1c-0.4,0.3-0.8,0.3-1.2,0l-0.3-0.1c0.8-1,2-1.4,3.2-1.8
			c0.3,0.2,0.4,0.4,0.3,0.6C258.2,80,258.1,80.1,258,80.1z"/>
		<path class="st97" d="M88,80.1c0,0.3,0,0.6,0,0.9c0.2,0.2,0.3,0.4,0.2,0.6c-0.1,0.2-0.1,0.3-0.2,0.3L88,82c-0.8-0.5-1.7-0.9-2-1.9
			c-0.3-0.2-0.4-0.4-0.4-0.6c0.1-0.2,0.2-0.3,0.3-0.3C86.6,79.5,87.3,79.8,88,80.1z"/>
		<path class="st98" d="M66,101c-1.4-0.2-3,0.6-4-1l0,0C63.4,100.2,65,99.3,66,101L66,101z"/>
		<path class="st99" d="M17,119.1c0,0.2,0.1,0.4,0,0.6c-1-0.6-2.6-0.1-3-1.7c0.2-0.2,0.4-0.3,0.6-0.5C15.9,117.4,17.3,117,17,119.1z
			"/>
		<path class="st90" d="M229,31c0.1-1.1,0.1-2.2,1.6-2.5C231,30.1,230,30.5,229,31L229,31z"/>
		<path class="st100" d="M200,25c-0.2,1.4,0.7,3-1,4l0,0C199.2,27.6,198.3,26,200,25L200,25z"/>
		<path class="st33" d="M153.5,27.4c-0.6-0.9-0.6-1.7,0-2.8C154.1,25.6,154.3,26.5,153.5,27.4z"/>
		<path class="st101" d="M32.8,107c0.4,0,0.7,0,1.1-0.1c-0.4,0.9-0.6,1.9-1.8,2.1c-0.4,0.4-0.8,0.4-1.2,0.1
			C30.6,107.6,31.2,106.9,32.8,107z"/>
		<path class="st102" d="M257,70c-0.5,1.4-1.5,2-3,2L254,72C254.5,70.6,255.6,70,257,70L257,70z"/>
		<path class="st93" d="M104,49c-1-0.5-2-0.9-1.6-2.5C103.9,46.8,103.9,47.9,104,49L104,49z"/>
		<path class="st103" d="M134.1,46.8c-0.2,0.6-0.6,1-1.3,1.1c-0.2-0.7-0.4-1.4-0.7-2.1c0.2-0.4,0.5-0.7,0.9-0.9
			C133.8,45.4,134,46.1,134.1,46.8z"/>
		<path class="st75" d="M112,44c1.4,0.5,2,1.5,2,3L114,47C112.6,46.5,112,45.4,112,44L112,44z"/>
		<path class="st97" d="M123.1,44.7c0,0.4-0.1,0.9-0.1,1.3c-1.1-0.8-1.5-1.9-1.8-3.1c0.3-0.4,0.7-0.4,0.9,0.1
			C122.9,43.3,123.1,43.9,123.1,44.7z"/>
		<path class="st104" d="M285.1,136.1c-0.1,1.2-0.1,2.5-0.2,3.7c-1-1.4-1.6-2.7,0-3.9C284.9,135.9,285.1,136.1,285.1,136.1z"/>
		<path class="st72" d="M232,44c0.1-1.1,0.1-2.2,1.6-2.5C234,43.1,233,43.5,232,44L232,44z"/>
		<path class="st105" d="M110,41c1.4,0.5,2,1.5,2,3l0,0C110.6,43.5,110,42.5,110,41L110,41z"/>
		<path class="st106" d="M119.1,54c-0.3,0-0.7,0-1,0c-0.5-0.9-1.3-1.8-1.1-3L117,51C118.3,51.6,118.9,52.6,119.1,54z"/>
		<path class="st71" d="M225.9,54c-0.5-0.1-0.8-0.5-1-1c0.5-0.9,1-1.7,2-2l0,0C227.2,52.2,226.3,53,225.9,54z"/>
		<path class="st33" d="M253,62c-0.5,1.4-1.5,2.1-3,2l0,0C250.5,62.6,251.5,62,253,62L253,62z"/>
		<path class="st107" d="M137,34c1.3,0.6,1.4,2,1.9,3.1c-0.3,0.4-0.6,0.4-0.9-0.1C136.6,36.3,137,35.1,137,34L137,34z"/>
		<path class="st108" d="M204.2,39.1c0.3,0.3,0.6,0.6,0.8,0.9c0,0.8-0.2,1.6-1.1,2c-0.2,0.5-0.4,0.5-0.7,0
			C203.5,41.1,203.9,40.1,204.2,39.1z"/>
		<path class="st41" d="M11,141.9c0.5,1.8-0.9,2.2-2,2.8c-0.3-0.3-0.5-0.7-0.4-1.2c0.3-0.9,0.8-1.6,1.8-1.8
			C10.5,141.8,10.7,141.9,11,141.9z"/>
		<path class="st33" d="M62,100c-0.8,0-1.5,0-2.5,0C60.7,98.5,61.4,99,62,100L62,100z"/>
		<path class="st109" d="M316,120c-0.2-1,0-1.8,1.2-2.1c0.2,0,0.4-0.1,0.6-0.1C317.4,118.8,317.3,119.9,316,120z"/>
		<path class="st110" d="M148.1,128c0-0.6,0-1.2,0-1.8c0.2-0.4,0.6-0.7,1-0.7c0.5,0,0.9,0.2,1.1,0.6c0,1.1-0.6,1.7-1.5,2
			C148.5,128.1,148.3,128.1,148.1,128z"/>
		<path class="st35" d="M198.8,32c-0.3,0-0.6,0-0.8,0c0.1-1.1-0.4-2.4,1-3l0,0C198.9,30,198.9,31,198.8,32z"/>
		<path class="st111" d="M145.1,30c0.3,0,0.5,0,0.8,0.1c0,1,0.1,2,0.1,3l0.1,0C144.7,32.3,145,31.1,145.1,30z"/>
		<path class="st112" d="M40.8,133c-0.3,0.9-1,1.4-1.8,1.8c-0.3-0.3-0.4-0.6-0.4-1c0.2-0.6,0.6-1,1.2-1.2
			C40.2,132.5,40.5,132.7,40.8,133z"/>
		<path class="st113" d="M145.1,132c-0.4-1.1,0.3-1.6,1.2-2c0.5-0.3,0.8-0.2,1,0.3c-0.3,1.3-0.7,2.3-2.3,1.6L145.1,132z"/>
		<path class="st114" d="M43,97c0.1-0.8,0.6-1,1.6-0.7c-0.2,0.9-0.6,1.5-1.7,1.7c-0.2-0.2-0.3-0.5-0.2-0.7C42.8,97.1,42.9,97,43,97z
			"/>
		<path class="st107" d="M136,31c1.3,0.7,1,1.9,1,3l0,0C135.6,33.3,136.1,32.1,136,31L136,31z"/>
		<path class="st115" d="M263,87c-0.3,1-1.1,1-2,1c-0.4,0.4-0.7,0.4-1,0C260.7,86.8,261.9,87,263,87L263,87z"/>
		<path class="st67" d="M72,93c-0.7,0-1.5,0-2.5,0C70.7,91.5,71.4,92.1,72,93L72,93z"/>
		<path class="st94" d="M269,94c0.7-1.3,1.9-0.9,3-1l0,0C271.3,94.3,270.1,93.9,269,94L269,94z"/>
		<path class="st93" d="M272,93c0.5-1,1.3-1.1,2.4-0.8C273.7,93.5,272.7,92.8,272,93L272,93z"/>
		<path class="st92" d="M142,18c-1-0.5-1.3-1.2-0.6-2.3C142.4,16.3,141.8,17.3,142,18L142,18z"/>
		<path class="st116" d="M117,35c1,0.3,1.6,1,1.8,2c-0.2,0-0.4,0-0.6,0C117.2,36.6,117,35.9,117,35L117,35z"/>
		<path class="st76" d="M147,38.1c0.3-0.3,0.5-0.6,0.8-1c0.1,1,0.2,1.9,0.3,2.9c-0.3,0.3-0.7,0.3-1,0C147.1,39.3,147,38.7,147,38.1z
			"/>
		<path class="st52" d="M223.2,40.1c0.2-1,0.7-1.8,1.8-2.1l0,0c0.1,0.9,0,1.7-1,2C223.8,40.5,223.5,40.5,223.2,40.1z"/>
		<path class="st117" d="M139,39c1.3,0.7,1.1,1.9,1,3l0,0C138.5,41.4,139.1,40.1,139,39L139,39z"/>
		<path class="st44" d="M200,22c0.3,0,0.6,0,0.9,0c-0.1,1.1,0.4,2.4-1,3l0,0C200,24,200,23,200,22z"/>
		<path class="st111" d="M120,40c1.1,0.2,1.5,1.1,1.7,2c-0.2,0-0.4,0-0.6-0.1C120.1,41.7,120,40.9,120,40L120,40z"/>
		<path class="st118" d="M129.9,40c0.4,0,0.7,0,1.1,0c0.3,0.7,0.6,1.4,0.9,2c-0.3,0.4-0.6,0.4-0.9,0C130,41.7,130,40.8,129.9,40z"/>
		<path class="st111" d="M223.2,40.1c0.3,0,0.5-0.1,0.8-0.1c0,0.9-0.2,1.6-1.1,2c-0.2,0-0.4,0-0.7,0
			C222.5,41.4,222.9,40.7,223.2,40.1z"/>
		<path class="st119" d="M136,31c-1.4-0.7-0.9-1.9-1-3l0,0C136.3,28.7,135.9,29.9,136,31L136,31z"/>
		<path d="M140.7,113.1c0.4,0,0.7-0.1,1.1-0.1c1.1,0.2,1.6,0.9,1.4,2c-0.4,0.3-0.8,0.4-1.2,0C141,114.7,140.9,113.9,140.7,113.1z"/>
		<path class="st72" d="M208,31c0-0.7,0-1.5,0-2.5C209.5,29.7,209,30.4,208,31L208,31z"/>
		<path class="st116" d="M210.9,45.8c0-0.8,0.1-1.5,1-1.8L212,44c0.1,1.1,0.2,2.3-1,3C210.6,46.6,210.5,46.2,210.9,45.8z"/>
		<path class="st120" d="M321.9,135.8c-0.3-0.3-0.7-0.7-1-1c0.5-0.4,1-0.7,1.8-0.7C323.3,135.1,322.7,135.5,321.9,135.8z"/>
		<path class="st33" d="M282.6,99.5c0.5-0.5,1.1-0.5,1.8-0.1C283.8,100.2,283.2,100.1,282.6,99.5z"/>
		<path d="M147,119.8c-1-0.2-1.8-0.7-2.2-1.8c0.3-0.3,0.7-0.5,1.1-0.6c0.7,0.1,1.2,0.5,1.5,1.2C147.5,119.1,147.3,119.5,147,119.8z"
			/>
		<path class="st121" d="M82,136c0-0.4,0-0.7,0-1.1c0.3-0.7,0.7-1,1.4-0.4C83.3,135.3,83,136,82,136z"/>
		<path class="st122" d="M78.1,75.9c-1-0.2-1.8-0.8-2.1-1.9l0,0c0.9,0,1.6,0.1,2,1c0.3,0.2,0.5,0.3,0.4,0.5
			C78.3,75.8,78.2,75.9,78.1,75.9z"/>
		<path class="st123" d="M268,74c-0.3,1-1,1.6-2.1,1.9c-0.2-0.2-0.3-0.4-0.2-0.6c0.1-0.2,0.2-0.2,0.3-0.2
			C266.3,74.1,267.1,74,268,74L268,74z"/>
		<path class="st44" d="M80.9,77.1c-0.8,0-1.6-0.1-1.9-1.1c-0.3-0.2-0.4-0.3-0.3-0.5c0.1-0.2,0.2-0.3,0.2-0.3c1,0.2,1.7,0.8,2.1,1.7
			L80.9,77.1z"/>
		<path class="st124" d="M83.1,78.8c-1-0.2-1.8-0.8-2.2-1.7l0.1-0.2C81.9,77,82.7,77,83,78c0.3,0.2,0.5,0.3,0.4,0.5
			C83.3,78.7,83.2,78.8,83.1,78.8z"/>
		<path class="st67" d="M71,71c0.8,0,1.6,0.1,2,1c0.3,0.2,0.4,0.4,0.3,0.6C73.2,72.9,73.1,73,73,73C72,72.7,71.3,72,71,71L71,71z"/>
		<path class="st125" d="M75,124c0,0.3,0,0.6,0,0.9c-1.1,0.9-2.1,1-3.1-0.1c0-0.2,0-0.4,0-0.7C73,124.1,74,124.1,75,124z"/>
		<path class="st111" d="M83.1,78.8c0-0.3-0.1-0.6-0.1-0.8c0.9,0,1.6,0.2,2,1.1c0,0.2,0,0.4,0,0.7C84.4,79.5,83.7,79.1,83.1,78.8z"
			/>
		<path class="st111" d="M261,78c-0.2,1.1-1.1,1.5-2,1.7c0-0.2,0-0.4,0-0.6C259.3,78.1,260.1,78,261,78L261,78z"/>
		<path class="st87" d="M141.2,44c-0.4,0-0.7,0-1.1,0c0-0.7,0-1.3-0.1-2l0,0C141,42.3,141,43.2,141.2,44z"/>
		<path d="M12,116.8c-0.9-0.3-1.3-0.8-1-1.8l0,0c0.2-0.4,0.6-0.5,1-0.4c0.3,0.3,0.5,0.6,0.6,1C12.5,116.1,12.3,116.5,12,116.8z"/>
		<path class="st111" d="M203.2,42c0.2,0,0.5,0,0.7,0c0,0.7,0,1.3-0.1,2c-0.4,0-0.7,0-1.1,0C202.9,43.3,203.1,42.7,203.2,42z"/>
		<path class="st83" d="M228,33c0-0.8,0.1-1.6,1-2l0,0C229,31.8,229,32.6,228,33L228,33z"/>
		<path class="st48" d="M211.9,44c0-0.8,0-1.7,1.1-1.9l0,0C213,42.8,213,43.7,211.9,44L211.9,44z"/>
		<path d="M141.9,115c0.3,0,0.7,0,1,0c1-0.4,1.3,0.2,1.2,1c-0.4,0.3-0.9,0.3-1.3,0C142.2,116,141.9,115.6,141.9,115z"/>
		<path d="M12,116.8c0-0.2-0.1-0.5-0.1-0.7c0.7-0.7,1.1-0.1,1.4,0.4c0.1,0.4-0.1,0.8-0.4,1.2C12.5,117.6,12.2,117.3,12,116.8z"/>
		<path class="st48" d="M138,37c0.3,0,0.6,0,0.9,0.1c0,0.7,0,1.3,0.1,2L139,39C137.9,38.7,138,37.8,138,37z"/>
		<path class="st111" d="M221.1,45.2c0-0.4,0-0.8,0-1.2c0.1-0.6,0.4-0.9,1-1l0,0C222.1,43.9,222,44.7,221.1,45.2z"/>
		<path d="M142.8,116.1c0.3,0,0.6,0,0.9,0c1.1-0.6,1.3,0.1,1.4,0.9c-0.4,0.4-0.9,0.5-1.3,0.1C143.2,117.1,142.9,116.7,142.8,116.1z"
			/>
		<path class="st126" d="M270,73c-0.4,0.9-1.2,1-2,1l0,0C268.3,73,269.2,73,270,73L270,73z"/>
		<path class="st35" d="M71,103c0-0.3,0-0.6,0-1c0.7,0,1.3,0.1,2,0.1c0,0.3,0,0.6,0,0.9C72.3,103,71.7,103,71,103z"/>
		<path d="M275.9,101.8c-0.2,0.5-0.5,0.9-0.8,0.2c-0.3-0.6,0-1.2,0.7-1.4C276.4,101,276.4,101.4,275.9,101.8z"/>
		<path class="st127" d="M20,126.1c-0.1-0.9-0.4-1.9,1-2c0.1,0.2,0.2,0.4,0.4,0.5c0.1,0.7-0.1,1.3-0.8,1.6
			C20.4,126.2,20.2,126.1,20,126.1z"/>
		<path class="st111" d="M133,45c-0.3,0.3-0.6,0.6-0.9,0.9c-0.1-0.6-0.1-1.3-0.2-1.9v0C132.6,44,132.9,44.4,133,45z"/>
		<path d="M8,144.8c-0.9,0.3-1.8,0.6-2.1-0.7l0.3-0.3c0.6-0.4,1.2-0.4,1.8-0.1c0.2,0.2,0.3,0.5,0.2,0.7C8.2,144.7,8.1,144.8,8,144.8
			z"/>
		<path class="st128" d="M234,116c0.2,0.9,0,1.7-1,2c-0.1-0.2-0.2-0.4-0.4-0.6C232.7,116.5,232.7,115.5,234,116L234,116z"/>
		<path d="M143.8,117.1c0.3,0,0.6-0.1,1,0c1.1-0.5,1.3,0,1.1,1c-0.4,0-0.7,0-1.1,0C144.2,118,143.9,117.7,143.8,117.1z"/>
		<path d="M275.9,101.8c0-0.4-0.1-0.8-0.1-1.2c-0.1-0.3,0-0.5,0.2-0.6c0.5,0.2,0.8,0.5,0.9,1C276.7,101.3,276.3,101.6,275.9,101.8z"
			/>
		<path d="M302.6,110l-0.3,0l-0.3,0c-0.1-0.6-0.2-1.2,0.5-1.6C303.4,108.8,303,109.4,302.6,110z"/>
		<path class="st1" d="M147.1,40c0.3,0,0.7,0,1,0l-0.1,0c0.3,0.3,0.4,0.7,0.4,1.1c0,0.4-0.2,0.8-0.6,1C147.1,41.6,147,40.8,147.1,40
			z"/>
		<path class="st92" d="M273,71c0.2-0.7,0.7-0.9,1.4-0.8C274.2,71.2,273.5,70.9,273,71L273,71z"/>
		<path class="st67" d="M71,71c-0.5-0.1-1.2,0.2-1.4-0.6C70.4,69.9,70.7,70.5,71,71L71,71z"/>
		<path d="M12.9,139c0.2,0.9,0.1,1.7-1,2c-0.1-0.2-0.2-0.3-0.4-0.5c-0.1-0.7,0.1-1.2,0.7-1.6C12.5,138.9,12.7,138.9,12.9,139z"/>
		<path class="st111" d="M155.9,40c0.3,0,0.6,0,0.9,0c0.1,0.7,0.2,1.3,0.3,2c-0.4,0-0.9,0-1.3,0C155.9,41.3,155.9,40.7,155.9,40z"/>
		<path d="M13.9,137c0.1,0.9,0.1,1.7-1,2l0.1,0.1c-0.9-0.8-0.6-1.5,0.2-2.2C13.5,136.9,13.7,137,13.9,137z"/>
		<path class="st129" d="M187.1,40c0.4,0,0.7,0,1.1,0c0,0.6,0,1.3,0,1.9c-0.4,0-0.8,0-1.3,0C186.9,41.3,187,40.7,187.1,40z"/>
		<path class="st57" d="M213.1,40.1c0.3,0,0.7-0.1,1-0.1c-0.1,0.8-0.1,1.7-1.1,2l0,0C213,41.4,213.1,40.7,213.1,40.1z"/>
		<path class="st130" d="M118,124c0,0.4,0.1,0.7,0.1,1.1c-0.3,0.3-0.7,0.7-1,1c0-0.4-0.1-0.9-0.1-1.3c-0.3-0.4-0.3-0.7,0-1.1
			C117.4,123.5,117.7,123.6,118,124z"/>
		<path class="st67" d="M113,28c-0.6-0.3-1.1-0.6-0.6-1.3C113.2,26.8,112.9,27.5,113,28L113,28z"/>
		<path class="st119" d="M135,28c-0.6-0.2-0.9-0.7-0.8-1.4C135.2,26.8,134.9,27.5,135,28L135,28z"/>
		<path d="M67.1,111c-0.2,0.8-0.1,1.8-1.2,2c0.1-0.7,0.2-1.4,0.4-2.1C66.6,111,66.8,111,67.1,111z"/>
		<path class="st106" d="M147.9,42.1c0.1-0.4,0.1-0.7,0.2-1.1c0.2,0,0.5,0,0.7,0c0.1,0.7,0.3,1.3,0.4,2c-0.4,0-0.8,0-1.2,0
			C148,42.7,147.9,42.4,147.9,42.1z"/>
		<path class="st131" d="M119,38c1,0.3,1.1,1.1,1,2l0,0C118.9,39.7,119,38.8,119,38L119,38z"/>
		<path class="st106" d="M196.8,39c-0.3,0-0.5,0-0.8,0c0-0.7,0.1-1.3,0.1-2c0.3,0,0.7,0,1,0C197,37.7,196.9,38.3,196.8,39z"/>
		<path class="st132" d="M272,72c-0.4,0.9-1.2,1-2,1l0,0C270.3,72,271.2,72,272,72L272,72z"/>
		<path class="st83" d="M76,74c-0.8,0-1.6-0.1-2-1l0,0C74.8,73,75.6,73,76,74L76,74z"/>
		<path class="st117" d="M130.9,42c0.3,0,0.6,0,0.9,0c0.1,0.6,0.1,1.3,0.2,1.9v0C131,43.7,131,42.8,130.9,42z"/>
		<path class="st111" d="M98.9,57c0.4,0,0.7,0,1.1,0c0.3,0.3,0.6,0.7,0.9,1l-0.1,0c-0.3,0.3-0.6,0.3-0.8-0.1
			C99.4,57.9,99.1,57.6,98.9,57z"/>
		<path class="st133" d="M232,118.9c0.3,1,0.1,1.8-1.1,2c-0.1-0.2-0.2-0.4-0.3-0.5c-0.1-0.7,0.1-1.3,0.8-1.6
			C231.6,118.9,231.8,118.9,232,118.9z"/>
		<path class="st48" d="M261,78c0.3-1.1,1.1-1.1,2-1l0,0C262.7,78,261.9,78.1,261,78L261,78z"/>
		<path class="st41" d="M21.1,122.2c0.3-0.1,0.6-0.2,0.9-0.3c0.4,1.1,0.8,2.2-1.1,2c0,0,0.1,0.1,0.1,0.1
			C21.1,123.4,21.1,122.8,21.1,122.2z"/>
		<path class="st48" d="M263,77c0.3-1.1,1.2-1,2-1L265,76C264.6,76.9,263.8,77,263,77L263,77z"/>
		<path class="st22" d="M127,33c-0.7-0.2-0.9-0.7-0.8-1.4C127.2,31.8,126.9,32.5,127,33L127,33z"/>
		<path class="st61" d="M128,35c-1-0.3-1-1.2-1-2l0,0C127.9,33.4,128,34.2,128,35L128,35z"/>
		<path class="st49" d="M77,86c0-0.3,0-0.7,0-1c0.8,0,1.6,0.1,2,1l0,0C78.4,86,77.7,86,77,86z"/>
		<path class="st134" d="M260,88c0.3,0,0.7,0,1,0c-0.3,0.9-1.2,1-2,1.1c0-0.4,0-0.8,0-1.2C259.3,88,259.7,88,260,88z"/>
		<path class="st135" d="M81,87c0.8,0,1.7,0,2,1l0,0C82.2,88,81.3,88,81,87L81,87z"/>
		<path class="st136" d="M265,86c-0.3,1-1.2,1-2,1v0C263.4,86,264.2,86,265,86L265,86z"/>
		<path class="st136" d="M79,86c0.8,0,1.7,0,2,1l0,0C80.2,87,79.3,87,79,86L79,86z"/>
		<path class="st49" d="M267,85c0,0.3,0,0.7,0,1c-0.7,0-1.3,0-2,0l0,0C265.4,85.1,266.2,85,267,85z"/>
		<path class="st126" d="M231,45c0,0.9,0,1.7-1,2l0,0C230,46.2,230.1,45.4,231,45L231,45z"/>
		<path class="st44" d="M117,35c-1-0.3-1-1.2-1-2l0,0C117,33.4,117,34.2,117,35L117,35z"/>
		<path d="M14.4,135l0.4,0c0.5,1-0.2,1.5-0.8,2c0,0,0.1,0.1,0.1,0.1C13.4,136.3,13.4,135.6,14.4,135z"/>
		<path class="st137" d="M210.9,45.8c0,0.4,0.1,0.9,0.1,1.3c0,0.3,0,0.6,0,0.9c-0.4-0.3-0.7-0.7-1.1-1
			C210.3,46.6,210.6,46.2,210.9,45.8z"/>
		<path class="st138" d="M237.9,135c-0.3,0-0.7-0.1-1-0.1c0.5-0.5,1.1-1.1,1.9-0.5C238.7,135,238.3,135,237.9,135z"/>
		<path d="M8,144.8c0-0.2,0-0.3,0-0.5c0.3-0.5,0.6-0.5,1-0.1c-0.1,0.2-0.1,0.4-0.1,0.6C8.6,144.8,8.3,144.8,8,144.8z"/>
		<path class="st112" d="M316,121c-0.3-0.1-0.7-0.1-0.7-0.3c-0.1-0.6,0.3-0.7,0.8-0.7C316,120.3,316,120.6,316,121z"/>
		<path d="M19.6,127c0,0-0.3,0.1-0.3,0.1c-0.4-0.8-0.2-1.1,0.7-1c0,0-0.1-0.1-0.1-0.1C20.3,126.5,20.2,126.8,19.6,127z"/>
		<path d="M139.3,139c0.2,0,0.4,0,0.6,0c0.1,0.5-0.1,1-0.5,1C139,139.9,139,139.4,139.3,139z"/>
		<path class="st139" d="M151,123c0,0.4-0.1,0.7-0.1,1.1c-0.2,0-0.4,0-0.6,0C150.2,123.5,150.6,123.2,151,123z"/>
		<path d="M150.3,124.1c0.2,0.1,0.4,0.1,0.6,0l0.2-0.1c0.2,0.5,0,0.8-0.3,1.1c-0.2,0-0.4-0.1-0.7-0.1
			C150.1,124.7,150.2,124.4,150.3,124.1z"/>
		<path d="M147,129c-0.1-0.7,0.1-1.3,1-1c0,0-0.1-0.1-0.1-0.1c0.2,0.4,0.2,0.8-0.2,1.1C147.5,129.1,147.3,129.1,147,129z"/>
		<path class="st113" d="M230.9,121c0,0.6,0,1.2-0.9,0.9l0.1,0.2C229.5,120.9,230.1,120.8,230.9,121L230.9,121z"/>
		<path d="M11.9,141c0,0.7,0,1.3-1,1c0,0,0.1,0.1,0.1,0.1c-0.3-0.9,0-1.3,1-1L11.9,141z"/>
		<path class="st140" d="M289,128c-0.3,0.1-0.6,0.2-0.9,0.2c0-0.6,0.2-1,0.8-1.2c0.1-0.2,0.3-0.3,0.5-0.1
			C289.5,127.4,289.4,127.7,289,128z"/>
		<path class="st112" d="M317.8,117.9c-0.2,0-0.4,0-0.6,0.1c-0.1-0.7,0.1-1.1,0.9-1C318.1,117.3,318,117.6,317.8,117.9z"/>
		<path class="st141" d="M109.2,135.1c0.4,0.2,0.5,0.4,0.3,0.7c-0.1,0.1-0.3,0.1-0.4,0.2C109,135.6,109,135.3,109.2,135.1z"/>
		<path d="M13,117.6c0,0-0.1-0.4-0.1-0.4c0.3-0.5,0.6-0.6,1.1-0.4c0.3,0.5,0.3,0.9-0.2,1.2c0,0,0.1-0.1,0.1-0.1
			C13.7,117.9,13.3,117.8,13,117.6z"/>
		<path class="st138" d="M197,135.1c-0.2-0.4-0.1-0.7,0.2-0.8c0.1,0,0.3,0.2,0.5,0.4c-0.3,0.1-0.5,0.2-0.8,0.3
			C196.9,135,197,135.1,197,135.1z"/>
		<path class="st142" d="M233,118c0,0.6-0.2,1.2-1,1c0,0,0.1,0.1,0.1,0.1C231.8,118.1,232.1,117.7,233,118L233,118z"/>
		<path class="st143" d="M126.9,136c0.6,0.1,1,0.5,1.1,1.1C127.4,137,127,136.7,126.9,136z"/>
		<path d="M39,134.1c-0.1,0.2-0.2,0.4-0.1,0.6c-0.3,0.1-0.6,0.3-0.8,0.4c0,0-0.3-0.3-0.3-0.3C38,134.1,38.2,133.5,39,134.1z"/>
		<path d="M174.8,133.9c0.1-0.8,0.5-1,1.2-0.8l-0.1-0.1c0.2,0.7-0.1,1.1-0.9,1L174.8,133.9z"/>
		<path class="st88" d="M128.7,134c-0.2-0.3-0.5-0.7-0.7-1C128.5,133.1,128.8,133.4,128.7,134z"/>
		<path d="M147,119.8c0-0.3,0-0.6,0-0.9c0.4-0.2,0.7-0.1,0.9,0.3c0,0.4,0,0.8,0,1.1C147.6,120.2,147.3,120,147,119.8z"/>
		<path class="st144" d="M176,133.1c0.1-0.3,0.1-0.5,0.2-0.8c0.1,0.1,0.3,0.3,0.4,0.4C176.4,132.8,176.2,132.9,176,133.1L176,133.1z
			"/>
		<path d="M40.8,133l-0.4-0.1L40,133c-0.3-0.5-0.2-0.8,0.4-1c0.4,0,0.7,0.1,1.1,0.1C41.2,132.4,41,132.7,40.8,133z"/>
		<path d="M146.7,130l-0.3,0c0,0-0.2,0.1-0.2,0.1c-0.3-0.8,0-1.1,0.8-1c0,0-0.1-0.1-0.1-0.1C147.3,129.4,147.2,129.7,146.7,130z"/>
		<path class="st129" d="M82,129c0,0.3,0,0.5,0,0.8c-0.3,0.1-0.6,0.2-0.9,0.2c0-0.4,0-0.7,0.1-1.1C81.4,128.7,81.7,128.7,82,129z"/>
		<path class="st145" d="M149.2,126c-0.4,0.1-0.7,0.1-1.1,0.2c0-0.6,0.4-1,0.9-1.2c0.3,0.2,0.4,0.4,0.3,0.7
			C149.3,125.9,149.2,126,149.2,126z"/>
		<path d="M149.2,126c0-0.3-0.1-0.7-0.1-1c0.3,0,0.7,0,1,0c0,0-0.1-0.1-0.1-0.1c0.3,0.4,0.3,0.8-0.2,1l-0.3,0L149.2,126z"/>
		<path class="st111" d="M233.1,56c0.3,0,0.7,0,1,0c-0.2,0.5-0.5,0.9-1.1,1l0,0C232.9,56.7,232.9,56.4,233.1,56z"/>
		<path class="st106" d="M112.1,58c-0.3,0-0.7,0-1,0c0-0.3-0.1-0.7-0.1-1l0,0C111.6,57,111.9,57.4,112.1,58z"/>
		<path class="st146" d="M233,57c0,0.6-0.3,1-1,1l0,0C232,57.4,232.4,57,233,57C233,57,233,57,233,57z"/>
		<path class="st111" d="M100,58c0.3,0,0.5,0,0.8,0.1c0,0.3,0.1,0.7,0.1,1C100.4,58.9,100.1,58.6,100,58z"/>
		<path class="st147" d="M232.1,59c-0.5-0.1-0.9-0.4-1.1-1c0.3-0.1,0.6-0.1,1,0l0,0C232.1,58.3,232.1,58.7,232.1,59z"/>
		<path class="st33" d="M90,61c-0.2-0.1-0.4-0.3-0.2-0.2C89.7,60.7,89.8,60.8,90,61L90,61z"/>
		<path class="st33" d="M254,61c0.2-0.2,0.3-0.3,0.1-0.1C254.3,60.7,254.2,60.8,254,61L254,61z"/>
		<path class="st61" d="M91,62c-0.5-0.1-0.9-0.5-1-1l0,0C90.5,61.1,90.9,61.5,91,62L91,62z"/>
		<path class="st33" d="M253,62c0.1-0.6,0.5-0.9,1-1l0,0C253.9,61.5,253.5,61.9,253,62L253,62z"/>
		<path class="st116" d="M250,64c-0.1,0.6-0.5,0.9-1,1L249,65C249.1,64.5,249.4,64.1,250,64L250,64z"/>
		<path class="st148" d="M90.1,72.9c0-0.3-0.1-0.6-0.1-0.9c0.2,0.1,0.5,0.3,0.7,0.4C90.5,72.6,90.3,72.7,90.1,72.9z"/>
		<path class="st149" d="M73,73c0-0.3,0-0.6,0-1c0.5,0.1,0.9,0.5,1,1l0,0l-0.5,0L73,73z"/>
		<path class="st132" d="M273,71c-0.1,0.5-0.5,0.9-1,1l0,0C272.1,71.5,272.5,71.1,273,71L273,71z"/>
		<path class="st111" d="M245,68c0,0.3,0,0.6-0.1,0.9c-0.3,0.1-0.6,0.1-1,0.1C244,68.4,244.4,68.1,245,68z"/>
		<path class="st92" d="M260,68c0.2-0.2,0.3-0.3,0.1-0.1C260.3,67.7,260.2,67.8,260,68L260,68z"/>
		<path class="st63" d="M84,68c-0.2-0.2-0.4-0.3-0.1-0.1C83.7,67.7,83.8,67.8,84,68L84,68z"/>
		<path class="st111" d="M96.9,66.2c0,0.3,0,0.6,0.1,0.9c-0.6-0.1-0.9-0.4-1-1L96,66C96.3,66,96.6,66,96.9,66.2z"/>
		<path class="st48" d="M249,65c-0.1,0.6-0.4,0.9-1,1l0,0C248.1,65.4,248.4,65.1,249,65L249,65z"/>
		<path class="st48" d="M95,65c0.6,0.1,0.9,0.4,1,1L96,66C95.5,65.9,95.1,65.6,95,65L95,65z"/>
		<path class="st150" d="M115,32c0.3,0,0.6,0,0.9,0c0,0.3,0,0.7,0,1l0,0C115.5,32.9,115.1,32.5,115,32z"/>
		<path class="st59" d="M216,35c0.2-0.2,0.3-0.4,0.5-0.6C216.6,34.8,216.4,35,216,35L216,35z"/>
		<path class="st148" d="M118.2,37c0.2,0,0.4,0,0.6,0c0.1,0.3,0.1,0.7,0.2,1L119,38C118.4,37.9,118.1,37.6,118.2,37z"/>
		<path class="st48" d="M225.1,37c0.3,0,0.6,0,0.9,0c-0.1,0.6-0.4,0.9-1,1l0,0C225,37.7,225,37.4,225.1,37z"/>
		<path class="st92" d="M110,41c-0.2-0.2-0.3-0.3-0.1-0.1C109.7,40.7,109.8,40.8,110,41L110,41z"/>
		<path class="st76" d="M148.8,41l-0.3,0l-0.3,0c0-0.4-0.1-0.7-0.1-1.1C148.6,40,148.8,40.4,148.8,41z"/>
		<path class="st55" d="M179.1,40c0.4,0,0.7,0,1.1,0c0,0.3,0,0.6,0.1,0.9c-0.4,0-0.9,0-1.3,0C178.9,40.6,179,40.3,179.1,40z"/>
		<path class="st106" d="M121.2,42c0.2,0,0.4,0,0.6,0.1c0.1,0.3,0.2,0.6,0.4,1c-0.3,0-0.6,0-0.9-0.1C121,42.6,121,42.3,121.2,42z"/>
		<path class="st111" d="M222.2,42c0.2,0,0.4,0,0.7,0c0,0.6-0.2,1-0.9,1c0,0,0,0,0,0C222.1,42.7,222.1,42.3,222.2,42z"/>
		<path class="st151" d="M231,45c0.1-0.5,0.4-0.9,1-1l0,0C231.9,44.5,231.6,44.9,231,45L231,45z"/>
		<path class="st63" d="M89,47c-0.2-0.2-0.3-0.3-0.1-0.1C88.7,46.7,88.8,46.8,89,47L89,47z"/>
		<path class="st92" d="M241,47C241.2,46.8,241.3,46.7,241,47C241.3,46.7,241.2,46.8,241,47L241,47z"/>
		<path class="st132" d="M90,48c-0.5-0.1-0.9-0.5-1-1l0,0C89.5,47.1,89.9,47.5,90,48L90,48z"/>
		<path class="st148" d="M230,47c-0.1,0.2-0.2,0.5-0.4,0.7C229,47.1,229.7,47.2,230,47L230,47z"/>
		<path class="st152" d="M91,49c-0.5-0.1-0.9-0.5-1-1l0,0C90.5,48.1,90.9,48.5,91,49L91,49z"/>
		<path class="st44" d="M91,49c0.6,0.1,0.9,0.4,1,1l0,0C91.5,49.9,91.1,49.5,91,49L91,49z"/>
		<path class="st106" d="M111,57c-0.7,0-0.9-0.4-1-1L110,56C110.6,56,111,56.4,111,57C111,57,111,57,111,57z"/>
		<path class="st111" d="M109,55c0.3,0,0.6,0,0.9,0c0,0.3,0,0.7,0,1c0,0,0.1-0.1,0.1-0.1C109.4,55.9,109.1,55.6,109,55z"/>
		<path class="st148" d="M236.9,52.9c-0.3,0-0.6,0-0.8,0.1c0.1-0.6,0.4-0.9,1-1L237,52C237,52.3,237,52.6,236.9,52.9z"/>
		<path class="st116" d="M238,51c-0.1,0.6-0.4,0.9-1,1L237,52C237.1,51.5,237.4,51.1,238,51L238,51z"/>
		<path class="st153" d="M106,51c0.6,0.1,0.9,0.4,1,1l0,0C106.4,51.9,106.1,51.6,106,51L106,51z"/>
		<path class="st135" d="M93,51c0.6,0.1,0.9,0.4,1,1l0,0C93.5,51.9,93.1,51.5,93,51L93,51z"/>
		<path class="st151" d="M238.1,50c0.3,0,0.6,0,1,0c-0.1,0.5-0.5,0.9-1,1l0.1,0C238,50.7,238,50.4,238.1,50z"/>
		<path class="st111" d="M227,51c0.1-0.3,0.3-0.5,0.4-0.8C228.1,50.9,227.4,50.9,227,51L227,51z"/>
		<path class="st111" d="M116,50c0.3,0,0.6,0.1,0.9,0.1c0.1,0.3,0.2,0.6,0.1,1c0,0,0.1-0.1,0.1-0.1C116.4,51,116.1,50.6,116,50z"/>
		<path class="st44" d="M106,51c-0.6-0.1-0.9-0.5-1-1l0,0C105.6,50.1,105.9,50.5,106,51L106,51z"/>
		<path class="st44" d="M93,51c-0.6-0.1-0.9-0.5-1-1l0,0C92.6,50.1,92.9,50.5,93,51L93,51z"/>
		<path class="st154" d="M124.9,49c0.3,0,0.6,0,0.9,0.1c0,0.5-0.2,0.8-0.7,0.9C125,49.6,124.9,49.3,124.9,49z"/>
		<path class="st44" d="M105,50c-0.5-0.1-0.9-0.4-1-1l0,0C104.6,49.1,104.9,49.5,105,50L105,50z"/>
		<path class="st145" d="M13.1,102c-0.3,0.1-0.7,0.2-1,0.2c0-0.6,0.3-1,0.9-1.2c0.3,0.2,0.4,0.4,0.3,0.7
			C13.3,101.9,13.2,102,13.1,102z"/>
		<path d="M13.1,102c0-0.3,0-0.7,0-1c0.3,0,0.7,0,1,0c0.1,0.2,0.1,0.4,0.2,0.6c-0.1,0.1-0.3,0.3-0.4,0.4C13.5,102,13.3,102,13.1,102
			z"/>
		<path class="st155" d="M102.9,110.9c-0.9-0.6-0.3-0.7,0.2-0.9C103.2,110.4,103.1,110.7,102.9,110.9z"/>
		<path class="st156" d="M238.1,109.1c0.3,0,0.7,0,1-0.1c-0.1,0.7-0.3,1.1-1.1,1l0.1,0.1c-0.3-0.2-0.4-0.5-0.3-0.7
			C237.9,109.2,238,109.1,238.1,109.1z"/>
		<path class="st155" d="M103,110.1c0.1-0.6,0.5-0.9,1.1-1.1C104,109.7,103.7,110,103,110.1z"/>
		<path d="M31.1,109.1c0.3,0.1,0.6,0.1,1-0.1c-0.1,0.6-0.3,1.2-1.1,1c0,0,0.1,0.1,0.1,0.1c-0.3-0.2-0.3-0.4-0.2-0.7
			C30.9,109.2,31,109.1,31.1,109.1z"/>
		<path class="st157" d="M104,109.1c0-0.4,0-0.7,0-1.1l0,0c0.4-0.3,0.7-0.3,1,0.1c0,0.2,0,0.5,0,0.7
			C104.7,108.9,104.3,109,104,109.1z"/>
		<path class="st106" d="M259,79.1c0,0.2,0,0.4,0,0.6c-0.3,0.1-0.7,0.2-1,0.3c0-0.3,0-0.6,0.1-0.9C258.4,79,258.7,79,259,79.1z"/>
		<path class="st106" d="M85,79.8c0-0.2,0-0.4,0-0.7c0.3-0.1,0.6-0.1,0.9,0.1c0,0.3,0,0.6,0.1,0.9C85.7,80,85.3,79.9,85,79.8z"/>
		<path class="st48" d="M266,75.1c0,0.3,0,0.5-0.1,0.8c-0.3,0.1-0.6,0.1-1,0.1L265,76C265,75.4,265.4,75.1,266,75.1z"/>
		<path class="st48" d="M78.9,75.2c0,0.3,0,0.5,0.1,0.8l-0.5,0l-0.5-0.1c0-0.3-0.1-0.6-0.1-0.8C78.3,75,78.6,75,78.9,75.2z"/>
		<path class="st111" d="M251,74c0,0.3,0,0.6-0.1,0.9c-0.3,0.1-0.6,0.2-0.9,0.2c0-0.3,0-0.6,0.1-0.9C250.4,74,250.7,74,251,74z"/>
		<path class="st111" d="M93.9,74.2c-0.3,0.3-0.5,0.5-0.8,0.8C93,74.3,93.3,74.1,93.9,74.2z"/>
		<path d="M39,100.9c0-0.2,0-0.4,0-0.6c0.3-0.4,0.6-0.5,1-0.2L40,100C40.1,100.7,39.7,101,39,100.9z"/>
		<path d="M14,101c-0.1-0.8,0.2-1.1,1-1c0,0.2,0,0.5,0,0.7C14.8,101.1,14.4,101.2,14,101L14,101z"/>
		<path d="M41,99c0.1,0.8-0.3,1.1-1,1c0,0,0.1,0.1,0.1,0.1c-0.3-1,0.2-1.1,1-1L41,99z"/>
		<path d="M16,99c0,0.3,0,0.6,0,0.8c-0.3,0.4-0.6,0.5-1,0.2c0,0,0.1,0.1,0.1,0.1C14.9,99.3,15.3,99,16,99z"/>
		<path d="M41.1,99.1c-0.3-0.8,0.2-1,0.8-1.2l-0.1-0.1c0.6,1,0.1,1.2-0.8,1.3L41.1,99.1z"/>
		<path class="st12" d="M114,98c-0.7,0.1-0.8-0.5-1-0.9C113.7,97,114,97.3,114,98z"/>
		<path d="M43,97c0,0.3,0,0.7,0,1c-0.4,0.2-0.8,0.1-1.2-0.2l0.1,0.1C42,97.3,42.4,97,43,97z"/>
		<path class="st111" d="M263,96.1c0,0.3,0,0.6-0.1,0.8l-0.5,0.1l-0.5-0.1c0-0.2,0-0.4,0-0.6C262.3,96.2,262.7,96.1,263,96.1z"/>
		<path class="st93" d="M270,84C270.2,83.8,270.3,83.7,270,84C270.3,83.7,270.2,83.8,270,84C270,84,270,84,270,84z"/>
		<path class="st111" d="M255.1,81.1c0.4,0,0.8,0,1.2,0c-0.1,0.3-0.2,0.6-0.4,0.9C255.5,81.8,255.1,81.6,255.1,81.1z"/>
		<path class="st158" d="M131.7,72.3c-1.9,0.7-3.9,1.5-5.7-0.2c1-2-1.4-2.2-1.9-3.5c-1-2.3-1.4-4.6-0.6-7c0.3-1.2,1.4-1.8,2.1-2.7
			c0.3-0.3,0.7-0.6,1-0.9c0.4-0.3,0.8-0.4,1.3-0.4c1.9,0,3.9-0.2,5.6,0.9c2,1.3,3,3.2,3.4,5.4c0.1,1.8-0.2,3.4-1.3,4.9
			c-0.2,0.5-0.4,0.9-0.7,1.3l0.1-0.1c-0.4,0.4-0.8,0.8-1.1,1.3c-0.3,0.2-0.6,0.5-0.9,0.7C132.5,71.5,132.1,71.7,131.7,72.3z"/>
		<path class="st159" d="M182.7,63.2c-0.8-4.9,0.7-9.5,2.1-14.2c1,4.7,0,9.3-0.5,13.9C183.8,63.4,183.2,63.5,182.7,63.2z"/>
		<path class="st160" d="M124.2,61c-0.9,4.5,0.4,8.1,4.5,10.5c-0.8,1.1-1.8,0.4-2.7,0.5c-4.6-4.3-5.1-6.2-2.9-11.1
			C123.4,60.6,123.8,60.6,124.2,61z"/>
		<path class="st161" d="M224.9,79c-1.8-1.9-0.6-3.6,0.5-5.1c1.3-1.8,3-3.3,4.5-4.9c1-0.2,1.4,0.1,1.1,1.1c-1.5,3.1-5.3,4.9-5.2,8.9
			C225.5,79.5,225.2,79.5,224.9,79z"/>
		<path class="st162" d="M164.9,62.1c-4-3.3-4.4-5-2.7-10c1.3-0.2,1.6,0.9,1.9,1.8c0.1,2.9,2.3,5.3,2.1,8.3
			C165.7,62.4,165.3,62.4,164.9,62.1z"/>
		<path class="st163" d="M174.9,50c3.1,3.9,3.2,5.7,0.6,10.1c-0.5,0.2-1,0.3-1.5,0.1c-1.1-2.7-0.1-5.5-0.1-8.2
			c0.1-0.5,0.2-1,0.5-1.4C174.6,50.4,174.7,50.2,174.9,50z"/>
		<path class="st164" d="M105.9,77.1c0.7,0.4,1.4,0.8,2.1,1.2c0.2,0.1,0.5,0.2,0.7,0.3c0,0,0.1,0.4,0.1,0.4c0,2.9,3.3,3.6,3.9,6.1
			c-0.6,0.7-1.2,0.6-1.8,0c-2.1-2.3-4.5-4.3-6.1-7c0,0,0.1-0.5,0.1-0.5c0,0,0.3-0.3,0.3-0.3C105.5,77.2,105.9,77.1,105.9,77.1z"/>
		<path class="st165" d="M218.1,62.2c-1.1,2.8-2.7,5.3-4.3,7.8c-0.2,0.1-0.4,0.2-0.5,0.3c-0.2-0.1-0.3-0.2-0.5-0.3
			c-0.1-0.4,0-0.8,0.2-1.2c1-2.8,2.6-5.3,4.2-7.7C218,60.9,218.6,61,218.1,62.2z"/>
		<path class="st166" d="M136.1,64c-0.4-2.1-1.6-3.7-3.1-5.2c-0.1-0.8,0-1.4,1-0.9c2.9,1.4,3.8,3.9,3.8,7
			C136.8,65.5,136.5,64.6,136.1,64z"/>
		<path class="st167" d="M154.2,57.8c-0.1-0.3,0-0.6,0.1-0.9c0.3-0.4,0.6-0.4,0.9,0c1.7,1.7,0.7,4.1,2.9,6.5c-2.9-0.3-4-1.5-5.1-2.5
			c0-0.2,0.1-0.4,0.1-0.6c0.2-0.4,0.5-0.7,0.8-0.9C154.3,59,154.5,58.5,154.2,57.8z"/>
		<path class="st168" d="M116,73.9c-0.4-0.1-0.7-0.1-1.1-0.2c-0.4-0.1-0.6-0.3-0.8-0.7c0-2.4-3.3-3-3.3-6.7c2.7,2.4,4.6,4.2,6,6.7
			C116.7,73.5,116.4,73.8,116,73.9z"/>
		<path class="st169" d="M197.2,59.2c-0.1,2-0.5,4,0.9,5.8c-0.1,0.1-0.2,0.3-0.3,0.4c-0.3-0.1-0.7-0.2-1-0.3c-2.7-2.1-1.2-4.6-0.6-7
			C197.1,57.9,197.6,58.1,197.2,59.2z"/>
		<path class="st170" d="M144.1,59c1.4,1.8,1.2,4,1.7,6.1c-0.3,0.3-0.6,0.3-0.9,0c-1.5-1.8-1.2-4-1.8-6.1
			C143.5,58.5,143.8,58.5,144.1,59z"/>
		<path class="st171" d="M197.2,59.2c-0.3-0.4-0.7-0.8-1-1.2c0.3-1.8,0.7-3.7,1.7-5.3c1,0.5,0.4,1.6,1,2.2
			C198.5,56.5,198.3,58,197.2,59.2z"/>
		<path class="st172" d="M117.9,74c1.6,0.9,2.5,2.3,3.8,4.6c-2.9-0.6-3.8-2.1-4.7-3.7c0,0,0.1-0.5,0.1-0.5c0,0,0.3-0.4,0.3-0.4
			S117.9,74,117.9,74z"/>
		<path class="st173" d="M198,65c1.6,0.9,3.3,1.1,5,1.2c0.3,0.2,0.4,0.4,0.3,0.5c-0.1,0.1-0.2,0.2-0.3,0.2c-1.9,1.1-3.5,0.5-5-1
			c-0.2-0.3-0.4-0.6-0.4-0.9L198,65z"/>
		<path class="st174" d="M134.1,58c-0.3,0.3-0.7,0.6-1,0.9c-2-0.8-4-1-6.1-0.8c-0.1-0.5,0-0.8,0.6-0.9C129.7,57.2,132.1,56,134.1,58
			z"/>
		<path class="st175" d="M136.1,64c0.6,0.3,1.1,0.6,1.7,1c0.1,1.7-0.1,3.2-1.9,4.1c-0.2,0-0.5,0-0.7,0.1
			C136.1,67.5,135.9,65.7,136.1,64z"/>
		<path class="st176" d="M233,83c-1.4,1.3-2.8,1.7-4-0.2c0-0.2-0.1-0.4-0.1-0.6c1.4,0.8,2.8-0.2,4.1-0.2c0.3,0.2,0.4,0.4,0.3,0.6
			C233.2,82.9,233.1,83,233,83z"/>
		<path class="st177" d="M163.1,54.2c-0.1-0.8-0.1-1.7-1-2.2c0.3-0.7,0.6-1.4,0.9-2c0.4-0.4,0.7-0.7,1.1-1c0.3,0,0.6,0,0.9,0.1
			c0.3,0.4,0.5,0.8,0.6,1.3C165.3,52,165.3,53.8,163.1,54.2z"/>
		<path class="st178" d="M207.3,60c0.7-1.3,0.1-3.1,1.7-4.1c0.2-0.4,0.5-0.5,0.8-0.1c-0.6,1.3-0.1,3.1-1.6,4.1
			C207.9,60.5,207.6,60.5,207.3,60z"/>
		<path class="st179" d="M231.1,70.1c-0.2-0.6-0.5-0.9-1.1-1.1c0.6-1,1-2.5,3-1.8C232.9,68.5,232.1,69.4,231.1,70.1z"/>
		<path class="st4" d="M144.1,59l-0.5-0.1l-0.5,0c-0.3-1.6-0.7-3.3-1-4.9c1.1-0.4,1.5,0.3,2,1.1C144.2,56.4,144.2,57.7,144.1,59z"/>
		<path class="st177" d="M198.9,55c-1-0.4-0.9-1.4-1-2.2c0.1-0.7,0-1.7,1.2-1.4c0.7,0.2,0.9,0.8,0.7,1.5
			C199.5,53.5,199.2,54.3,198.9,55z"/>
		<path class="st180" d="M182.7,63.2c0.5-0.1,1-0.2,1.5-0.2c1.2,0.1,2.5,0.2,3.7,0.2c0.4,0.2,0.5,0.3,0.4,0.5
			c-0.1,0.2-0.2,0.3-0.3,0.3C186.2,64.1,184.3,64.3,182.7,63.2z"/>
		<path class="st181" d="M147,56.9c-0.9-0.1-1.6-0.6-2.1-1.4c-0.5-0.5-0.5-1,0.1-1.4c1.2,0.3,2.2,1,3,2c0,0-0.1,0.4-0.1,0.4
			C147.6,56.6,147.3,56.7,147,56.9z"/>
		<path class="st7" d="M145,54c0,0.5,0,1-0.1,1.4c-0.2-0.2-0.5-0.3-0.8-0.4c-0.7-0.4-1.3-0.7-2-1.1c-0.2-0.6-0.5-1.2,0.3-1.9
			C143.3,52.7,144.1,53.4,145,54z"/>
		<path class="st11" d="M154,54c-1.3-1.1-1.3-2.4-0.7-4c1.2,1.2,0.9,2.8,1.5,4.1C154.5,54.5,154.2,54.5,154,54z"/>
		<path class="st182" d="M124.2,61c-0.4,0-0.8,0-1.1,0c0.4-1.6,2-2.2,3-3.2c0.1,0.2,0.2,0.4,0.3,0.6c-0.1,0.2-0.3,0.3-0.4,0.5
			C125.7,59.8,125.1,60.6,124.2,61z"/>
		<path class="st181" d="M153,61c-1.2-0.4-2.2-1.1-3-2c0,0,0.1-0.4,0.1-0.4c0.3-0.1,0.6-0.2,0.8-0.4c0.7,0.3,1.4,0.6,2,0.9
			c0.3,0.1,0.5,0.4,0.5,0.7c0,0.3-0.1,0.7-0.2,1L153,61z"/>
		<path class="st183" d="M226.1,80c1,0.4,1.6,1.1,1.9,2.1c0.3,0.1,0.4,0.3,0.3,0.4c-0.1,0.2-0.1,0.3-0.2,0.3c-1.4-0.5-2.5-1.3-3-2.9
			C225.4,79.6,225.8,79.6,226.1,80z"/>
		<path class="st184" d="M218.1,62.2c-0.3-0.4-0.7-0.8-1-1.1c0.3-1,0.5-2.2,2.4-2.1C219.6,60.3,219.1,61.3,218.1,62.2z"/>
		<path d="M104,76.9c-0.8-0.5-1.7-0.9-1-2.2c1.2-0.4,1.4,0.6,1.8,1.3C104.7,76.4,104.5,76.7,104,76.9z"/>
		<path class="st185" d="M207,63.6c0.3,0.6,0.2,1.1-0.5,1.5c-0.5,0.2-0.9,0.2-1.4,0c0.5-1.1,0.8-2.3,1.8-3.2
			C207.4,62.4,207.4,63,207,63.6z"/>
		<path class="st186" d="M148,56c0.9,0.3,1.6,0.7,2.1,1.5c0.2,0.3,0.2,0.7,0.1,1.1L150,59c-0.9-0.3-1.6-0.8-2.1-1.5
			c-0.2-0.3-0.2-0.7-0.1-1.1L148,56z"/>
		<path class="st187" d="M168,48.1c1,0,2.1,0,3.1,0c0.2,0.5,0.1,0.9-0.2,1.3c-0.9,0.5-1.8,0.5-2.7,0c-0.3-0.3-0.4-0.5-0.3-0.8
			C167.8,48.2,167.9,48.1,168,48.1z"/>
		<path class="st188" d="M153,59.8c0-0.2,0-0.5-0.1-0.7c0.4-0.4,0.8-0.8,1.2-1.2c0.8,0.9,1.4,1.8-0.3,2.4
			C153.5,60.3,153.2,60.2,153,59.8z"/>
		<path d="M154,54c0.2,0,0.5,0,0.7,0c0.1,1,0.3,2,0.4,3c0,0-0.5,0-0.5,0s-0.5,0-0.5,0C153.9,56,153.7,55,154,54z"/>
		<path class="st189" d="M171.1,62.9c-1,0-2.1,0-3.1,0c-0.3-0.5-0.2-0.9,0.1-1.3c0.9-0.5,1.8-0.5,2.7,0c0.3,0.2,0.4,0.5,0.4,0.8
			C171.2,62.7,171.1,62.9,171.1,62.9z"/>
		<path class="st190" d="M113,75c0,0.7-0.4,1-1.1,1c-0.2,0.4-0.5,0.4-0.8,0.1c0.3-1,1.1-1.4,1.9-1.8c0.2,0.2,0.3,0.4,0.2,0.5
			C113.2,74.9,113.1,75,113,75z"/>
		<path class="st191" d="M168,62.2c0,0.3,0,0.5,0,0.8c-1.2,0.4-2.2,0.1-3.1-0.9c0.5-0.1,1-0.1,1.4-0.2
			C166.9,61.5,167.5,61.5,168,62.2z"/>
		<path d="M116,73.9c0.3-0.3,0.6-0.6,0.9-0.9c0.3,0.3,0.7,0.7,1,1l-0.4,0.1c-0.1,0.1-0.3,0.3-0.4,0.4L117,75
			C116.7,74.7,116.3,74.3,116,73.9z"/>
		<path d="M104,76.9c0.3-0.3,0.6-0.6,0.9-0.8c0.5,0.2,0.9,0.5,1,1l-0.2,0.1c-0.1,0.2-0.3,0.4-0.5,0.5L105,78
			C104.4,77.8,104.1,77.5,104,76.9z"/>
		<path class="st190" d="M111.1,76c0.3,0,0.5,0,0.8-0.1c-0.3,1-1.1,1.5-2,1.9c-0.2-0.2-0.3-0.4-0.2-0.6c0.1-0.2,0.2-0.3,0.3-0.3
			C110,76.3,110.4,76,111.1,76z"/>
		<path class="st192" d="M131.7,72.3c-0.4-0.4-0.6-0.8,0.1-1c0.6-0.2,1.3-0.3,1.2,0.7C132.6,72.1,132.2,72.2,131.7,72.3z"/>
		<path class="st193" d="M207,63.6c0-0.6-0.1-1.1-0.1-1.7c0.1-0.6,0.2-1.2,0.3-1.9c0.3,0.1,0.6,0.1,0.9,0
			C208.1,61.3,208.2,62.6,207,63.6z"/>
		<path class="st190" d="M213,70.1c0.3,0,0.5-0.1,0.8-0.1c0.1,0.7,0.1,1.4,0.2,2.1L214,72c-0.9,0.1-1.7,0.1-1.9-1
			C212.3,70.6,212.6,70.3,213,70.1z"/>
		<path class="st194" d="M188,64c0-0.3,0-0.5,0-0.8c0.8-0.1,1.6-0.5,2,0.7C189.3,65.1,188.6,64.2,188,64z"/>
		<path class="st195" d="M174,62c-0.4,0.9-1.1,1-2,1c-0.3-0.4-0.3-0.8,0.1-1.2C172.8,61.4,173.4,61.4,174,62z"/>
		<path d="M216,73c0.7-0.1,1.5-0.2,2,0.6C216.9,74.4,216.3,74.3,216,73L216,73z"/>
		<path d="M203,67c0.1-0.2,0.1-0.5,0.1-0.7c0.6-0.2,1.2-0.5,1.9-0.2l0,0C204.8,67.4,203.9,67.1,203,67z"/>
		<path class="st196" d="M214,72.1c0.9-0.1,1.9-0.4,2,1c0,0,0.1-0.1,0.1-0.1C215.1,73.2,214.2,73.2,214,72.1
			C214,72,214,72.1,214,72.1z"/>
		<path d="M239.3,76c0.2-0.7,0.7-1,1.3-1.2c0.5,0.7,0.2,1.1-0.5,1.2C239.8,76.4,239.5,76.4,239.3,76z"/>
		<path d="M173,49c0.9-0.1,1.6,0.1,1.9,1l-0.2,0.1c-0.3,0.2-0.7,0.3-1.1,0.3c-0.4-0.2-0.6-0.4-0.8-0.8C172.9,49.4,172.9,49.2,173,49
			z"/>
		<path d="M209.8,55.9l-0.4,0L209,56c-0.2-0.6,0-1.2,0.5-1.7C210,54.8,210,55.3,209.8,55.9z"/>
		<path d="M110,77c-0.1,0.3-0.1,0.6,0,0.9c-0.3,0.3-0.7,0.7-1,1l-0.1-0.2l-0.2-0.4L109,78C109,77.3,109.4,77,110,77z"/>
		<path class="st197" d="M111.1,85c0.6,0,1.2,0,1.8,0C112.2,86.2,112.1,86.2,111.1,85z"/>
		<path class="st190" d="M171.1,48.9c-0.1-0.3-0.1-0.5,0-0.8c0.8,0,1.6-0.1,1.9,0.9c0,0,0.1-0.1,0.1-0.1
			C172.4,49.6,171.7,49.5,171.1,48.9z"/>
		<path d="M174,62c-0.7,0-1.4,0-2.1,0c0-0.2,0-0.5-0.1-0.7c0.4-0.7,1-0.9,1.8-0.7c0.2,0.2,0.3,0.3,0.5,0.5
			C174.2,61.4,174.2,61.7,174,62z"/>
		<path class="st170" d="M168,48.1c0,0.3,0,0.5,0,0.8c-0.3,0.6-0.9,0.7-1.5,0.6c-0.2-0.1-0.3-0.2-0.5-0.4
			C166.2,47.7,167.1,48.1,168,48.1z"/>
		<path class="st158" d="M127.5,57.2c-0.2,0.3-0.4,0.6-0.6,0.9c0,0,0.1-0.1,0.1-0.1c-0.3,0.3-0.7,0.4-1.1,0.4
			c0.1-0.1,0.1-0.3,0.1-0.5C126.4,57.3,126.9,57.1,127.5,57.2z"/>
		<path d="M150.2,58.6c0-0.4-0.1-0.7-0.1-1.1c0.3,0.2,0.6,0.4,0.9,0.6C150.8,58.5,150.7,58.8,150.2,58.6z"/>
		<path d="M174.2,60c0.4,0,0.9,0.1,1.3,0.1c-0.3,0.6-0.7,1-1.4,1l-0.3-0.3C173.7,60.5,173.8,60.2,174.2,60z"/>
		<path class="st110" d="M171.9,62c0.1,0.2,0.2,0.4,0.3,0.6c0,0.1-0.1,0.2-0.1,0.4c-0.3,0-0.7-0.1-1-0.1c-0.1-0.3-0.1-0.5,0-0.8
			c0.3-0.4,0.6-0.4,1-0.1L171.9,62z"/>
		<path d="M114.2,73c0.3,0.2,0.5,0.5,0.8,0.7c-0.3,0.1-0.6,0.1-1,0.2c0,0,0,0.1,0,0.1C113.7,73.7,113.8,73.3,114.2,73z"/>
		<path d="M213,70.1c-0.3,0.3-0.6,0.6-0.8,0.9c0-0.3,0-0.6,0-0.9C212.4,69.7,212.7,69.7,213,70.1L213,70.1z"/>
		<path class="st192" d="M133.9,71.3c-0.2-0.9,0.3-1.3,1.1-1.3C135,70.7,134.5,71,133.9,71.3z"/>
		<path class="st190" d="M213,70c-0.3,0-0.6,0-0.8,0c-0.1-0.6,0.3-1,0.8-1.3C212.9,69.2,212.9,69.6,213,70z"/>
		<path d="M135.3,69.1c0.2,0.1,0.5,0,0.7-0.1c0,0.7-0.4,1-1,1.1C135.1,69.7,135.2,69.4,135.3,69.1z"/>
		<path d="M205.1,65.1c0.5,0,0.9,0,1.4,0c-0.4,0.5-0.8,1.1-1.5,1l0,0C205,65.7,205.1,65.4,205.1,65.1z"/>
		<path d="M197.6,65.1c0.1,0.3,0.3,0.6,0.4,0.9c-0.7,0.1-1.1-0.3-1.3-0.9C197,65.1,197.3,65.1,197.6,65.1z"/>
		<path d="M145,65c0.3,0,0.6,0,0.9,0c-0.1,0.3-0.1,0.8-0.3,0.8C145,65.9,145,65.4,145,65z"/>
		<path d="M147.8,56.4c0,0.4,0.1,0.7,0.1,1.1c-0.3-0.2-0.6-0.4-0.9-0.6C147.2,56.5,147.3,56.2,147.8,56.4z"/>
		<path d="M165,50.1c0-0.3,0-0.6,0-1c0.3,0,0.7-0.1,1-0.1c0,0-0.1-0.1-0.1-0.1C166.3,49.9,165.9,50.1,165,50.1z"/>
		<path class="st195" d="M164.2,49.1c-0.2,0.6-0.6,0.8-1.1,1C163.2,49.5,163.6,49.1,164.2,49.1z"/>
		<path class="st147" d="M88.1,81.9c0-0.3-0.1-0.6-0.1-0.9C88.6,81.3,89,81.5,88.1,81.9z"/>
		<path d="M236,80c0.2,0.8-0.1,1.2-1,1l0,0C234.9,80.3,235.3,79.9,236,80L236,80z"/>
		<path d="M237,79c0.1,0.8-0.2,1.2-1,1c0,0,0.1,0.1,0.1,0.1C235.9,79.3,236.2,78.9,237,79L237,79z"/>
		<path d="M226.1,80c-0.3,0-0.7,0-1,0c-0.2-0.3-0.3-0.6-0.2-0.9c0.3,0,0.6,0,0.9,0C225.9,79.3,226,79.7,226.1,80z"/>
		<path d="M237,79c-0.1-0.8,0.2-1.2,1-1L238,78C238.1,78.7,237.8,79.1,237,79C237,79,237,79,237,79z"/>
		<path d="M109,78c0,0.3,0,0.5-0.1,0.7c-0.4,0.2-0.7-0.1-0.8-0.5C108.4,78.2,108.7,78.1,109,78z"/>
		<path d="M238,78c-0.1-0.8,0-1.3,1-1L239,77C239,77.7,238.7,78.1,238,78C238,78,238,78,238,78z"/>
		<path d="M239.3,76c0.2,0,0.5,0,0.7,0c0,0.7-0.3,1-1.1,1c0,0,0.1,0.1,0.1,0.1C238.8,76.6,238.9,76.3,239.3,76z"/>
		<path d="M113,75c0.1-0.2,0.1-0.5,0-0.7c0.3-0.4,0.6-0.4,1-0.2l0-0.1C114,74.7,113.7,75,113,75z"/>
		<path d="M233,83c-0.1-0.3,0-0.6,0-1c0.3,0,0.7,0,1,0L234,82C234.1,82.8,233.6,83,233,83z"/>
		<path d="M228.1,82.8c0-0.2,0-0.5-0.1-0.7c0.3-0.1,0.6-0.1,0.9,0.1c0,0.2,0,0.4,0.1,0.6c0,0-0.5,0.2-0.5,0.2L228.1,82.8z"/>
		<path d="M234,82c-0.2-0.8,0.2-1.1,1-1c0,0,0,0,0,0C235.2,81.9,234.7,82.1,234,82C234,82,234,82,234,82z"/>
		<path class="st198" d="M184.1,110.2c2.9-0.5,4,1.4,5.8,2.2c0,7.5,0,14.8,0,22.4c-3.2,0.1-5.5-1.8-5.6-4.3
			C183.8,123.7,184.1,116.9,184.1,110.2z"/>
		<path class="st86" d="M148,119.2c-0.3-0.1-0.6-0.2-0.9-0.3c-0.1-0.6-0.5-0.8-1.1-0.9c-0.2-0.6-0.5-0.9-1.1-1c-0.1-0.5-0.5-0.9-1-1
			c-0.3-0.3-0.6-0.7-0.8-1c-0.4-0.7-0.8-1.3-1.2-2c-1.2-3.3-1.3-6.5,1.6-9.1c3.8-3.5,8.4-3.9,13-2.4c2.8,0.9,6.2,1.7,6.7,5.6
			c0,0-0.2,0.3-0.2,0.3c-0.2,0.2-0.4,0.4-0.6,0.6c-0.1,0.2-0.3,0.5-0.3,0.8c-0.1,0.3-0.1,0.6-0.2,0.8c0,0-0.2,0.4-0.2,0.4
			c0,0-0.3,0.3-0.3,0.4c-0.2,0.2-0.4,0.4-0.7,0.6c-0.2,0.3-0.3,0.5-0.5,0.8c-0.1,0.3-0.2,0.6-0.3,0.9c-0.1,0.3-0.3,0.6-0.5,0.9
			c-0.2,0.3-0.4,0.6-0.7,0.8c-0.1,0.1-0.2,0.3-0.3,0.4c-0.5,0.6-0.9,1.2-1.2,1.8c-0.1,0.2-0.2,0.3-0.3,0.5c-0.1,0.2-0.2,0.3-0.3,0.5
			c-0.2,0.3-0.5,0.6-0.8,0.9c-0.6,0.8-1.7,0.9-2.4,1.6C151.1,121.7,149.7,119.2,148,119.2z"/>
		<path class="st145" d="M149.7,126c0.1-0.2,0.3-0.4,0.3-0.7c0-0.1-0.1-0.3-0.1-0.4c0.9,0.3,1-0.3,1.1-0.9c0.7,0.1,0.9-0.3,1-1
			c0.6-0.6,1.3-0.6,2-0.3c3.2,0.7,6.5,0.4,9.8,0.3c0.6,3.3,0.3,6.6,0.2,10.2c-6.2-0.2-12.2-1.1-18.2,0.2c-0.8,0.2-0.7-1-0.9-1.5
			c1.3,0,1.3-1.2,1.8-2c0.1-0.2,0.2-0.4,0.3-0.6c0-0.1-0.1-0.2-0.1-0.4c0.9,0.2,1-0.3,1-1C149.2,127.9,149.3,126.8,149.7,126z"/>
		<path class="st199" d="M156.2,121.9c-0.4-0.9-2.2-0.3-2-1.8c0.1-0.9,0.8-1.4,1.3-2.1c0.1-0.4,0.3-0.7,0.6-1.1l-0.1,0.2
			c0.4-0.4,0.6-0.9,0.9-1.4c0.5-0.5,0.8-1.2,1.2-1.8l-0.1,0.2c0.4-0.4,0.8-0.7,1.2-1.1l-0.1,0.2c0.6-0.6,0.5-1.4,0.9-2.1
			c0.3-0.5,0.9-0.7,1.3-1.1l-0.2,0.2c0.4-0.4,0.6-0.9,0.8-1.4c0.3-0.7,0.8-1.2,1.3-1.7l-0.1,0.2c0.7-0.4,1.3-0.9,2-1.3
			c0.5,0.4,0.5,0.8,0.1,1.3c-0.3,4.6-0.6,9.2-0.9,13.8C161.5,122.4,158.8,121.7,156.2,121.9z"/>
		<path class="st92" d="M165,107.1c0-0.4-0.1-0.9-0.1-1.3c0-0.4,0.3-0.8,0.5-0.6C166.4,106,165.5,106.5,165,107.1z"/>
		<path class="st139" d="M154.1,122.7c-0.7,0.1-1.4,0.2-2,0.3c0.4-1.1,1.3-1.1,2.2-0.9C154.2,122.3,154.1,122.5,154.1,122.7z"/>
		<path class="st140" d="M290.4,127.1c1.6-0.8,2.2-3,4.2-3.2c3.6,3,4.1,5.4,2.2,11.1c-2.8-1-5.3-2.4-7.4-3.9
			c-0.8-1.5,0.4-2.2,0.4-3.1C289.7,127.5,289.8,127.2,290.4,127.1z"/>
		<path class="st93" d="M291.6,109.7c3.1,2.3,4.3,4.9,5.8,6.8c-0.5,2.9-2.6,3.8-4,5.7C290,118.4,291.6,114.5,291.6,109.7z"/>
		<path d="M290.4,127.1c-0.2,0.3-0.4,0.6-0.5,0.9c-0.3,0-0.5,0-0.8,0c0.1-0.4,0.3-0.7,0.4-1.1C289.7,127,290.1,127.1,290.4,127.1z"
			/>
		<path class="st119" d="M82,129c-0.3,0-0.6-0.1-0.9-0.1c-0.4-2.3-0.3-4.6-0.1-6.9c1.4,0,2.9-0.2,4.4,0.4c1.2,1.7,0.5,3.7,0.6,5.6
			c-0.9,0.8-2.2,0.1-3.1,0.9l-0.5,0L82,129z"/>
		<path class="st8" d="M75.1,134.2c-3.7,0.7-4.5,0.1-5.1-4.2c2.2-0.8,2.2-0.8,4.6-0.4C75.9,131,75.6,132.6,75.1,134.2z"/>
		<path class="st200" d="M72,124.8c1,0,2.1,0.1,3.1,0.1l-0.1,0.2c0.8,1.2,0.6,2.4,0.2,3.8c-1.7,0.9-3.4,0.9-5.1,0.1
			C69.8,127.2,69,125.1,72,124.8z"/>
		<path class="st201" d="M70,129c1.4,0,2.8,0,3.8,0c1.6-1.3,1.1-2.7,1.1-3.9c1.7,3,1.5,6,0.2,9.1c-0.1-1.2-0.2-2.3-0.2-3.4
			c-1.6-1.3-3.3-0.7-4.9-0.8C70,129.7,70,129.3,70,129z"/>
		<path class="st202" d="M85.9,119.1c-0.4,3.6-3.2,1.2-4.8,1.9c-0.2-0.3-0.2-0.6,0-0.9C82.8,120.1,84.4,120,85.9,119.1z"/>
		<path class="st86" d="M40.3,132c-0.1,0.3-0.2,0.7-0.4,1c-0.8,0-1,0.5-0.9,1.1c-0.6-0.2-1.1-0.1-1.2,0.7
			c-6.2-0.9-11.6-4.1-17.5-6.1c-0.8-0.3-0.7-1-0.7-1.7c0.1-0.3,0.2-0.7,0.3-1c1.2-0.2,1.2-1.1,1-2.1c1.4-0.1,1.1-1.2,1.1-2l-0.1,0.1
			c0.3-0.3,0.7-0.7,1-1.1c3.7-1.7,7.4-1,11.1-0.3c0.3-0.2,0.6-0.2,1-0.1c0.5,0.2,0.9,0.4,1.4,0.5c0.3,0.1,0.6,0.1,0.9,0.2
			c0.3,0.1,0.6,0.2,0.9,0.4c0.3,0.2,0.5,0.4,0.7,0.6c0,0,0.3,0.3,0.3,0.3c0.2,0.2,0.4,0.5,0.6,0.7c0,0,0.1,0.5,0.1,0.5
			C40.6,126.5,41.6,129.2,40.3,132z"/>
		<path class="st145" d="M15,99.9c0.3-0.1,0.7-0.1,1-0.2c6.6,0,12,2.8,16.8,7.2c-1.1,0.3-1.3,1.2-1.6,2.1c0,0.3,0,0.6-0.1,1
			c-3.9,2.5-11.6,2.4-15.2-0.3c-2.7-2-3.4-4.7-2.1-7.8c0.1-0.2,0.2-0.4,0.3-0.7c0-0.1-0.1-0.2-0.1-0.4
			C14.8,101.1,15.1,100.8,15,99.9z"/>
		<path class="st22" d="M13.9,118c0-0.3,0-0.7,0-1c0.2-0.4,0.6-0.7,1-0.9c4.1,0.9,8.1,0.5,12.3,0.4c4.7-0.1,9.7-0.3,12.7,4.5
			c-0.1,0.6-0.4,1-1,1.3c-0.4,0-0.7-0.1-1-0.4l0.2,0.1c-0.6-0.6-1.4-0.5-2.1-0.9c-0.6-0.5-1.3-0.7-2-1c-0.7-1.7-2.2-1.2-3.4-1.2
			c-4.5,0-9.1,0.1-13.6,0.1C16.3,117.9,15.2,117.8,13.9,118z"/>
		<path class="st0" d="M39,122c0.3-0.3,0.6-0.7,1-1c0.8,0.4,1.1,1.1,1.1,2c-0.3,0.3-0.6,0.5-1.1,0.5c-0.4-0.1-0.8-0.3-1.1-0.5
			l0.2,0.2c-0.3-0.2-0.4-0.4-0.3-0.7C38.8,122.1,38.9,122,39,122z"/>
		<path class="st203" d="M15,116.1c-0.3,0.3-0.7,0.6-1,0.9c-0.3,0.1-0.7,0.1-1,0.2c0.1-0.7-0.2-1.2-1-1.1c0-0.3-0.1-0.7-0.1-1
			c0.4-0.5,0.8-0.5,1.2-0.1C13.7,115.3,14.4,115.7,15,116.1z"/>
		<path class="st204" d="M13.1,114.9c-0.4,0-0.8,0.1-1.2,0.1l-0.5,0l-0.5,0c0-0.6,0-1.2,0.5-1.6C12.2,113.8,12.9,114.1,13.1,114.9z"
			/>
		<path class="st86" d="M40,123c0.4,0,0.7,0,1.1,0c0.7,0.5,1,1.1,0.6,1.9c-0.9,0.2-1.2-0.5-1.7-1.1l0.1,0.2
			c-0.2-0.2-0.3-0.4-0.3-0.7C39.8,123.1,39.9,123,40,123z"/>
		<path class="st205" d="M255.2,109c0.2,0,0.5,0,0.7,0c0.7,0.7,1.4,1.4,2.1,2.1c0,2.6,0,5.3,0,7.9c-0.8,1-2.2,1.2-3,2.1
			c-0.4,0.5-0.7,1-1,1.5c-0.2,0.4-0.4,0.7-0.6,1.1c-1.2,1.5-2,3.2-3.4,4.5c-0.3,0.3-0.6,0.6-0.9,0.9c-1.7-1.6-0.8-3.7-0.9-5.6
			c-0.2-4.1-0.1-8.2-0.1-12.3c3.9-0.8,3.6,3.3,5.7,4.8C255.2,113.8,255.2,111.4,255.2,109z"/>
		<path class="st86" d="M274.9,129c-3.7,0.4-7.2-1.2-10.9-0.9c-0.3-2-0.4-4,0.1-6c3.5-1.8,7.1-2,10.9-1
			C274.9,123.7,274.9,126.3,274.9,129z"/>
		<path class="st206" d="M274.9,121c-3.7-0.7-7.2,1-10.9,1c-0.4-3.3-0.5-6.7,0-10c0.3-0.3,0.6-0.6,0.9-0.8c0.3,0,0.7,0,1,0
			c0.3,0.2,0.5,0.6,0.5,0.9c-0.1,0.4-0.2,0.7-0.6,0.9c0,2.1,0,4.2,0,6.4c3.1,1,6,0.4,8.9,0.5C274.9,120.3,274.9,120.7,274.9,121z"/>
		<path class="st198" d="M266,112c0-0.3,0-0.6,0-0.8c0.7,0,1.3,0,2,0c0,0.2,0,0.5,0,0.7C267.4,112.6,266.7,112.6,266,112z"/>
		<path class="st207" d="M265,111.2c-0.3,0.3-0.6,0.6-0.9,0.8C264,111.3,264.3,111,265,111.2z"/>
		<path class="st208" d="M233,118.1c-0.9-0.2-0.9,0.3-1,0.9c-1.2,0.3-1.2,1.1-1,2.1c-0.9-0.2-1,0.4-1,1c-0.8,0.1-1.2-0.3-1.2-1.1
			c0-3.5,0-7.1,0-11.4c2.9,2,4.1,4.2,5.3,6.4C232.6,116.1,233,117.2,233,118.1z"/>
		<path class="st209" d="M238.1,109.1c0,0.3,0,0.7,0,1c-1.1-0.5-2.4-0.8-3.1-2c-0.4-0.5-0.4-0.9,0.1-1.3
			C236.5,107,237.7,107.5,238.1,109.1z"/>
		<path class="st210" d="M235.1,106.7c0,0.4-0.1,0.9-0.1,1.3c-0.6-0.4-1.3-0.8-1.9-1.3C233.7,105.8,234.4,105.9,235.1,106.7z"/>
		<path class="st199" d="M12.1,141.1c-0.9-0.3-1,0.3-1,1c-1.2,0.2-1.5,1.3-2,2.1c-0.3,0-0.7,0.1-1,0.1c-0.6-0.2-1.2-0.3-1.8-0.5
			c-0.3-2.8-0.6-5.5,1.1-8c1.9-2.8,4.3-3.1,7-0.8c-0.1,0.7-0.2,1.4-0.3,2.1c-1.6,0-0.8,1.3-1,2C11.5,139.1,12.1,140.3,12.1,141.1z"
			/>
		<path class="st211" d="M87,102c0.7-0.1,1.3,1.4,2,0c0.2-0.1,0.3-0.3,0.5-0.4c0.2,0.1,0.3,0.3,0.5,0.4c0,0.7,0,1.3,0,2l0,0
			c0.3,0,0.7,0,1,0c0,0,0.4,0.1,0.4,0.1c0.2,0.2,0.5,0.3,0.6,0.5c0,0,0.2,0.3,0.2,0.3c0,0,0,0.4,0,0.4s0.3-0.3,0.3-0.3
			S93,105,93,105c1,0.4,1,1.2,1.1,2.1c-0.1,0.5-0.5,0.8-1,0.9c-0.3,0.3-0.7,0.6-1,0.8c-0.3,0-0.7-0.1-1-0.1c-0.4-0.2-0.7-0.4-1-0.7
			c-1.3-0.5-2.4-1.7-3.9-0.9c0.5-0.6,1-1.2,1.4-1.8c-0.5-1.7-2.8-0.7-3.5-2.3c0.7-0.3,1.3-0.7,2-1c0,0,0.4,0.1,0.4,0.1
			c0,0,0.1,0.4,0.1,0.4s0.1-0.4,0.1-0.4C86.6,102.1,87,102,87,102z"/>
		<path class="st37" d="M99.9,110.9c0.1,0.8,0.1,1.6-0.8,2.1C99,112.2,99.2,111.4,99.9,110.9z"/>
		<path class="st212" d="M92,108.8c0.3-0.3,0.7-0.5,1-0.8C92.9,108.5,92.6,108.9,92,108.8z"/>
		<path class="st212" d="M90,108c0.3,0.2,0.7,0.5,1,0.7C90.4,108.8,90.2,108.4,90,108z"/>
		<path class="st213" d="M95,106.2c0.1-0.3,0.3-0.5,0.4-0.8c0.2,0.2,0.4,0.5,0.5,0.7C95.7,106.1,95.4,106.2,95,106.2z"/>
		<path class="st214" d="M244.8,107.1c2-1.1,3.1-0.6,3.2,1.7C246.4,109.2,245.6,108.2,244.8,107.1z"/>
		<path class="st215" d="M255,100c-1.7,1-3.4,2-5,3c0,0-0.4-0.1-0.4-0.1c0,0-0.1-0.4-0.1-0.4s-0.1,0.4-0.1,0.4c0,0-0.4,0.1-0.4,0.1
			c-1.5-0.1-2,3.4-4,1c2-3.1,4.7-5.2,8.5-5.8c0.8-0.1,1.2,0.1,1.5,0.8c0.3,0.2,0.4,0.4,0.3,0.6C255.2,99.9,255.1,100,255,100z"/>
		<path class="st216" d="M255,100c0-0.3,0-0.6,0-0.9c0.3,0,0.7,0,1,0l0,0c0.2,0.2,0.3,0.4,0.2,0.7c-0.1,0.2-0.1,0.3-0.2,0.3l0,0
			C255.7,100.3,255.3,100.3,255,100L255,100z"/>
		<path class="st217" d="M94.9,128.2c-0.8,0.1-1.6,0.1-2.5,0.2c-0.9-1.4-0.4-2.9-0.3-4.3C93.3,125.3,94.2,126.6,94.9,128.2z"/>
		<path class="st218" d="M82.2,99.1c0.3,0,0.5-0.1,0.8-0.1c-0.1,0.2-0.3,0.4-0.4,0.7C82.5,99.5,82.4,99.3,82.2,99.1z"/>
		<path class="st207" d="M266,112c0.7,0,1.3,0,2-0.1c0.4,0.1,0.8,0.3,1.2,0.4c0,0.2,0,0.3,0,0.5c-1.1,0.1-2.1,0.1-3.2,0.2
			C266,112.7,266,112.3,266,112z"/>
		<path class="st211" d="M89,100c0.5,0.1,0.8,0.5,1,1c-0.2,0.1-0.3,0.3-0.5,0.4c-0.2-0.1-0.3-0.3-0.5-0.4l0,0
			c-0.2-0.2-0.3-0.5-0.2-0.7C88.9,100.1,88.9,100,89,100L89,100z"/>
		<path class="st211" d="M90,101c0.8,0.3,0.9,0.7,0,1l0,0c-0.3-0.2-0.3-0.4-0.3-0.7C89.8,101.1,89.9,101,90,101L90,101z"/>
		<path class="st211" d="M91,104c0.4-0.9,0.7-0.8,1,0c-0.2,0.1-0.3,0.2-0.5,0.4C91.3,104.3,91.2,104.1,91,104L91,104z"/>
		<path class="st213" d="M92,104c0.5,0.1,0.9,0.4,1,1l0,0c-0.3,0.3-0.7,0.3-1,0l0,0c-0.2-0.2-0.3-0.5-0.2-0.7
			C91.9,104.1,91.9,104,92,104L92,104z"/>
		<path class="st211" d="M105,108.1c-0.3,0-0.7,0-1-0.1C104.4,107.1,104.7,107.3,105,108.1z"/>
		<path class="st157" d="M101,106c-0.1,0.5-0.5,0.9-1,1C100.3,106.6,100.7,106.3,101,106z"/>
		<path class="st157" d="M255,100c0.3,0,0.7,0,1,0C255.7,100.8,255.3,100.8,255,100z"/>
		<path class="st157" d="M250,103c-0.3,0.8-0.6,0.8-1,0l0,0C249.3,102.7,249.7,102.7,250,103L250,103z"/>
		<path class="st213" d="M252,104c0.3-0.8,0.7-0.8,1,0l0,0C252.7,104.3,252.3,104.3,252,104L252,104z"/>
		<path class="st157" d="M256,100c0-0.3,0-0.7,0-1C256.8,99.3,256.8,99.7,256,100z"/>
		<path class="st203" d="M249,128c1.3-1.8,1.9-4,4-5.1c0.5-0.4,1-0.7,1.7-0.9c1-0.1,2.1-0.5,3,0.3c0.4,1.9,0.3,3.7,0.2,5.6
			C255,128.8,252,128.7,249,128z"/>
		<path class="st219" d="M249,128c3,0,6,0,8.9-0.1c-2.8,2.2-6,0.6-9,1.1C249,128.6,249,128.3,249,128z"/>
		<path class="st220" d="M254,121c0.2-2.9,2.4-1.9,4-2c0,0.6,0,1.2,0,1.9C256.6,121.9,255.3,122.2,254,121z"/>
		<path class="st219" d="M254,121c1.3,0,2.6-0.1,4-0.1c-0.1,0.5-0.1,0.9-0.2,1.4c-1,0.2-1.8,0.8-2.9,0.5c-0.5-0.5-1.4-0.2-1.9-0.8
			C253.1,121.5,253.4,121.2,254,121z"/>
		<path class="st155" d="M252,104c0.3,0,0.7,0,1,0C252.7,104.8,252.3,104.8,252,104z"/>
		<path class="st221" d="M117,124c-0.1,0.3-0.1,0.5-0.1,0.8c-0.9,0.1-1.9,0.2-2.8,0.3c-1.4-0.7-1.1-2-1.1-3.2c1.1,0.2,2.3-0.2,3,1
			C116.4,123.3,116.9,123.4,117,124z"/>
		<path class="st222" d="M119.3,122.9c-0.4,0-0.9,0.1-1.3,0.1c-0.2-0.1-0.3-0.2-0.5-0.4c-0.2-0.4-0.3-0.8-0.4-1.1
			c-0.4-0.9-0.7-1.7-1.1-2.6c0.6-1.3,1.8-1,2.8-1C119,119.7,119.1,121.3,119.3,122.9z"/>
		<path class="st0" d="M121,123c-0.3,0-0.7,0-1,0c0.4-1.2,1.2-2.1,2.1-2.9c1,0.4,0.9,1.3,1.1,2.1C122.4,122.4,121.7,122.7,121,123z"
			/>
		<path class="st223" d="M126.1,125.9c-0.8,0.2-1.6,0.1-2.1-0.7C124.8,125.1,125.5,125.2,126.1,125.9z"/>
		<path class="st224" d="M117,124c-0.6-0.2-0.9-0.5-1-1.1c0.3,0,0.7-0.1,1-0.1c0.4-0.2,0.7-0.1,1,0.2l-0.1,0.1c0,0.3,0,0.6,0.1,0.9
			C117.7,123.9,117.4,124,117,124z"/>
		<path class="st225" d="M118,123c-0.3-0.1-0.7-0.1-1-0.2c0-0.4,0-0.8,0.1-1.2C117.6,121.9,118,122.4,118,123z"/>
		<path class="st223" d="M121,126c0.6,0.2,0.9,0.6,0.9,1.2C121.6,126.8,121.3,126.4,121,126z"/>
		<path class="st129" d="M82.9,129c0.8-1.1,2-0.7,3.1-0.9C85.3,129.4,84,128.9,82.9,129z"/>
		<path class="st213" d="M86,102c0.3-0.8,0.6-0.8,1,0l0,0C86.7,102.3,86.3,102.3,86,102L86,102z"/>
		<path class="st157" d="M90,101c0,0.3,0,0.7,0,1c-0.3,0-0.7,0-1,0c0-0.3,0-0.7,0-1C89.3,101,89.7,101,90,101z"/>
		<path class="st157" d="M89,100c0,0.3,0,0.7,0,1C88.2,100.7,88.2,100.3,89,100z"/>
		<path d="M34,120.2c0.9-0.2,1.9-0.7,2,0.8c-0.1,0.1-0.3,0.3-0.4,0.4c-0.2-0.1-0.4-0.1-0.5-0.2c-0.3-0.2-0.7-0.4-1-0.6L34,120.2z"/>
		<path d="M22.9,121c0.1,0.7-0.1,1.2-1,1.1c0.1-0.3,0.2-0.7,0.3-1C22.5,121,22.7,121,22.9,121z"/>
		<path class="st155" d="M102,108C101.8,108.2,101.7,108.3,102,108C101.7,108.3,101.8,108.2,102,108L102,108z"/>
		<path class="st128" d="M155.8,117.9c-0.3,0.9-0.6,1.8-1.6,2.1c-0.4,0-0.8,0-1.2,0c0.4-0.8,0.6-1.8,1.7-2
			C155.1,117.7,155.5,117.7,155.8,117.9z"/>
		<path class="st192" d="M125.9,58.3c0.4-0.1,0.7-0.2,1.1-0.4c0,0.8-0.4,1-1.1,0.9C126,58.7,126,58.5,125.9,58.3z"/>
		<path class="st195" d="M165,50.1c0.6-0.1,1.1-0.4,0.9-1.1c0.7,0,1.3-0.1,2-0.1c1.1,0,2.1,0,3.2,0c0.7,0,1.3,0.1,2,0.1
			c-0.2,0.8,0.2,1,0.9,1.1c0.6,0.3,0.9,0.8,1,1.5c0.2,2.9,0.6,5.8-0.7,8.5c-0.3,0.2-0.4,0.5-0.3,0.8c-0.9,0-1.3,0.6-1.8,1.2l-0.5,0
			l-0.5,0.1c-1,0-2.1,0-3.1,0.1c-0.5-0.1-1.1-0.2-1.6-0.3c-2.2-2.1-3.2-4.7-3.2-7.7C163.7,52.8,164.4,51.5,165,50.1z"/>
		<path d="M174.9,51.5c-0.6-0.3-0.9-0.8-1-1.5c0.3,0,0.5,0,0.8,0.1C174.8,50.6,174.8,51,174.9,51.5z"/>
		<path d="M105.2,77.7c0-0.3,0.2-0.5,0.5-0.5l-0.1,0.4L105.2,77.7z"/>
		<path d="M153,59.8c0.3,0.2,0.6,0.3,0.9,0.5c-0.1,0.3-0.3,0.5-0.6,0.5C153.2,60.4,153.1,60.1,153,59.8z"/>
		<path d="M117.1,74.6c0-0.2,0.2-0.4,0.4-0.4C117.7,74.7,117.6,74.8,117.1,74.6z"/>
		<path d="M163.1,106.9c0.1,1.1-0.5,1.6-1.4,2l-0.4,0.1c-0.1-0.2-0.1-0.4-0.1-0.6c0.1-0.6,0.5-1,0.9-1.4
			C162.4,107,162.7,107,163.1,106.9z"/>
		<path d="M158.1,113.9c0.2,1.1-0.1,1.8-1.3,2l-0.5,0.1C156.8,115.2,156.8,114.1,158.1,113.9z"/>
		<path d="M159.9,110.9c0.3,1,0.3,1.9-1,2.2c0.1-0.6,0.1-1.2,0.2-1.8c0.1-0.2,0.2-0.3,0.3-0.5C159.6,110.8,159.7,110.9,159.9,110.9z
			"/>
		<path d="M155.8,117.9c-0.3,0-0.7,0-1,0c0.2-0.6,0.4-1.2,1.3-1.1C156,117.3,155.9,117.6,155.8,117.9z"/>
		<path d="M156.3,116c0,0,0.5-0.1,0.5-0.1c0.3,0.8-0.1,1.1-0.9,1.1C156,116.7,156.2,116.4,156.3,116z"/>
		<path d="M159.1,112.9c-0.1,0.7-0.2,1.3-1.2,1.1C158,113.4,158.1,112.7,159.1,112.9z"/>
		<path d="M161.1,109.9c-0.2,0.6,0,1.6-1.2,1l0.1,0.2c-0.3-0.2-0.4-0.4-0.3-0.7c0.1-0.2,0.2-0.3,0.3-0.3
			C160.4,110,160.7,110,161.1,109.9z"/>
		<path class="st199" d="M160,110c0,0.3,0,0.7,0,1c-0.3,0.1-0.6,0.2-0.9,0.2C159.1,110.6,159.5,110.2,160,110z"/>
		<path d="M161.3,109c0,0,0.4-0.1,0.4-0.1c0.4,0.8,0,1.1-0.8,1.1C161,109.7,161.2,109.4,161.3,109z"/>
		<path class="st199" d="M162,107c0,0.6-0.1,1.2-0.9,1.4C161.1,107.7,161.4,107.3,162,107z"/>
		<path d="M36,121.1c1-0.2,1.9-0.2,2.1,1c-0.6,0-1.3-0.1-1.9-0.1c-0.3-0.2-0.5-0.4-0.4-0.6c0.1-0.2,0.2-0.4,0.3-0.4L36,121.1z"/>
		<path class="st22" d="M36,120.9c0,0.3,0.1,0.7,0.1,1c-0.6,0.1-0.9-0.2-1.2-0.7C35.4,121.1,35.7,121,36,120.9z"/>
		<path d="M39,122c0,0.4,0.1,0.7,0.1,1.1c-0.8,0-1.3-0.2-1.2-1.1C38.3,122,38.6,122,39,122z"/>
		<path d="M40,123c0,0.3,0.1,0.7,0.1,1c-1,0.2-1.1-0.4-1.1-1.1C39.3,123,39.6,123,40,123z"/>
		<path class="st18" d="M253,122c0.7,0,1.5,0,1.9,0.8c-0.6,0-1.2,0-1.8,0C253,122.6,253,122.3,253,122z"/>
		<path class="st218" d="M86,102c0.3,0,0.7,0,1,0C86.7,102.8,86.3,102.8,86,102z"/>
		<path class="st218" d="M90,104c-0.1,0.2-0.3,0.3-0.1,0.1C89.7,104.3,89.8,104.2,90,104C90,104,90,104,90,104z"/>
		<path class="st155" d="M92,104c0,0.3,0,0.7,0,1c-0.5-0.1-0.9-0.5-1-1C91.3,104,91.7,104,92,104z"/>
		<path class="st218" d="M92,105c0.3,0,0.7,0,1,0C92.7,105.8,92.3,105.8,92,105z"/>
		<path class="st216" d="M250,103c-0.3,0-0.7,0-1,0C249.3,102.2,249.7,102.2,250,103z"/>
	</g>
</g>
</svg>
