<?xml version="1.0" encoding="UTF-8"?>
<svg width="630px" height="135px" viewBox="0 0 630 135" version="1.1" xmlns="http://www.w3.org/2000/svg" xmlns:xlink="http://www.w3.org/1999/xlink">
    <!-- Generator: Sketch 44.1 (41455) - http://www.bohemiancoding.com/sketch -->
    <title>logo_pagina_12_n</title>
    <desc>Created with Sketch.</desc>
    <defs></defs>
    <g id="Page-1" stroke="none" stroke-width="1" fill="none" fill-rule="evenodd">
        <g id="logo_pagina_12_n">
            <g>
                <path d="M45.9541,45.3559 C45.9541,50.8949 45.9541,51.6429 52.2411,51.6429 C68.2581,51.6429 71.5511,45.0569 71.5511,37.1239 C71.5511,26.6449 63.9171,24.2509 52.6901,24.2509 C46.4031,24.2509 45.9541,26.7939 45.9541,31.2859 L45.9541,45.3559 Z M52.5411,71.4019 C46.4031,71.1029 45.8051,71.2519 45.8051,73.7969 C45.8051,82.9279 46.5531,85.9219 50.1451,85.9219 C52.9901,85.9219 55.5341,84.8749 58.2291,84.8749 C64.2161,84.8749 67.3601,90.4129 67.3601,94.9029 C67.3601,101.3399 62.8691,106.2799 55.0851,106.2799 C47.4511,106.2799 41.1641,104.7829 34.5781,104.7829 C26.9441,104.7829 19.4591,106.2799 11.8251,106.2799 C3.7421,106.2799 0.0001,101.3399 0.0001,94.9029 C0.0001,90.4129 2.6941,84.8749 7.7841,84.8749 C10.0291,84.8749 12.1241,85.9219 14.5201,85.9219 C17.3641,85.9219 18.2621,83.0779 18.2621,73.7969 L18.2621,34.5789 C18.2621,25.1479 17.5141,22.4539 14.5201,22.4539 C12.1241,22.4539 10.0291,23.5009 7.7841,23.5009 C2.6941,23.5009 0.0001,17.9629 0.0001,13.4719 C0.0001,7.0359 3.7421,2.0959 14.3701,2.0959 C21.2561,2.0959 27.8421,3.5929 34.7271,3.5929 C50.8941,3.5929 56.8811,2.0959 62.5701,2.0959 C71.2511,2.0959 82.1791,5.3889 89.0641,11.0779 C96.6991,17.3649 100.1421,27.0939 100.1421,36.8239 C100.1421,46.8529 96.5491,55.6849 89.0641,62.1219 C80.5321,69.4569 71.1021,71.4019 60.1751,71.4019 L52.5411,71.4019 Z" id="Fill-1" fill="#000000"></path>
                <path d="M137.4849,74.643 C133.4949,78.909 117.5349,76.844 117.5349,84.136 C117.5349,88.953 121.3869,90.603 125.3779,90.603 C133.4949,90.603 137.4849,85.788 137.4849,77.67 L137.4849,74.643 Z M136.5219,4.198 C139.2739,2.684 142.5759,1.033 145.7399,1.033 C150.8309,1.033 154.2709,6.261 154.2709,10.94 C154.2709,16.443 147.5289,18.507 143.4009,20.158 L133.7699,24.01 C131.0189,25.111 126.4779,26.762 123.5879,26.762 C119.5989,26.762 117.1219,22.084 117.1219,18.644 C117.1219,13.829 122.8999,11.627 126.2029,9.702 L136.5219,4.198 Z M123.5879,51.39 C123.5879,57.719 117.5349,60.609 111.7559,60.609 C105.0139,60.609 99.0979,55.793 99.0979,48.777 C99.0979,40.108 107.9029,32.266 129.0919,32.266 C135.9719,32.266 145.3279,32.954 151.3809,36.393 C158.6739,40.521 160.1869,47.125 160.1869,57.582 L160.1869,83.449 C160.1869,88.815 161.0129,89.916 162.5259,89.916 C163.6269,89.916 164.7279,89.64 165.8279,89.64 C170.2309,89.64 172.7079,93.355 172.7079,97.345 C172.7079,105.05 165.0029,107.939 158.5359,107.939 C152.2069,107.939 145.1899,105.6 142.8509,99.133 C136.3839,105.326 127.9909,107.939 119.3229,107.939 C106.8029,107.939 94.8329,101.335 94.8329,87.301 C94.8329,54.693 137.4849,71.616 137.4849,53.455 C137.4849,48.226 132.6699,45.75 128.1289,45.75 C125.7899,45.75 123.5879,46.163 123.5879,48.914 L123.5879,51.39 Z" id="Fill-3" fill="#000000"></path>
                <path d="M198.5738,56.894 C198.5738,62.123 202.7008,65.975 207.7918,65.975 C213.0208,65.975 217.1478,61.985 217.1478,56.894 C217.1478,51.528 213.1578,47.675 207.7918,47.675 C202.5638,47.675 198.5738,51.528 198.5738,56.894 L198.5738,56.894 Z M207.5168,117.295 C220.0378,117.295 223.8898,114.406 223.8898,109.453 C223.8898,106.013 220.7258,103.812 212.6078,103.812 C207.2418,103.812 201.8758,103.399 196.3718,103.399 C193.4828,104.362 190.0428,106.426 190.0428,109.866 C190.0428,113.856 193.0708,117.295 207.5168,117.295 L207.5168,117.295 Z M219.2118,87.301 C241.2258,87.301 246.3168,98.996 246.3168,108.352 C246.3168,118.121 240.1258,125.276 231.7328,129.54 C224.1648,133.393 213.4328,134.769 204.9028,134.769 C197.7478,134.769 188.2548,133.531 181.7878,130.504 C174.0828,126.926 167.7538,120.597 167.7538,111.655 C167.7538,102.711 174.0828,98.17 181.9258,96.107 L181.9258,95.832 C174.9078,95.006 170.7808,90.465 170.7808,83.173 C170.7808,75.056 174.9078,71.478 182.0628,68.452 C178.6238,64.737 176.9718,61.022 176.9718,55.931 C176.9718,40.521 193.2078,32.816 206.6918,32.816 C208.4798,32.816 210.2688,32.954 212.0568,33.091 C211.5068,22.91 220.5878,17.819 229.8058,17.819 C237.0988,17.819 245.3538,21.671 245.3538,29.927 C245.3538,34.743 241.6388,38.044 236.9608,38.044 C234.0708,38.044 232.2828,36.806 230.7698,34.33 C230.0818,33.229 229.6688,31.991 228.1548,31.991 C225.4038,31.991 224.8528,35.43 225.2658,37.494 C233.9338,39.971 238.7498,48.364 238.7498,57.169 C238.7498,64.186 234.6218,70.928 228.9808,75.194 C223.3398,79.458 215.0848,80.697 208.0678,80.697 C202.2888,80.697 197.6108,79.596 192.3828,77.257 C191.2818,78.22 190.3188,79.321 190.3188,80.972 C190.3188,84.962 193.7578,87.301 202.5638,87.301 L219.2118,87.301 Z" id="Fill-5" fill="#000000"></path>
                <path d="M281.3306,15.893 C281.3306,23.047 275.5526,28.826 268.3976,28.826 C261.2426,28.826 255.4646,23.047 255.4646,15.893 C255.4646,8.738 261.2426,2.959 268.3976,2.959 C275.5526,2.959 281.3306,8.738 281.3306,15.893 L281.3306,15.893 Z M257.9406,60.333 C257.9406,53.179 257.5276,50.703 255.4646,50.703 C254.0886,50.703 252.7126,51.665 250.9236,51.665 C246.3836,51.665 244.8696,47.951 244.8696,43.823 C244.8696,38.595 247.2086,34.329 253.1246,34.329 C256.9776,34.329 260.6926,35.705 264.4076,35.705 C268.5356,35.705 272.5256,34.329 276.5156,34.329 C279.6796,34.329 280.6436,36.393 280.6436,41.346 L280.6436,80.147 C280.6436,88.677 281.8816,89.778 282.9816,89.778 C283.6696,89.778 284.3576,89.502 285.0456,89.227 C285.8706,88.953 286.6966,88.815 287.5226,88.815 C292.0626,88.815 293.5766,92.53 293.5766,96.657 C293.5766,101.885 291.2376,106.151 285.4586,106.151 C279.5416,106.151 274.0386,104.775 268.3976,104.775 C263.1686,104.775 257.9406,106.151 252.9876,106.151 C247.2086,106.151 244.8696,101.885 244.8696,96.657 C244.8696,92.53 246.3836,88.815 250.9236,88.815 C251.8866,88.815 252.5746,89.089 253.4006,89.227 C254.0886,89.365 254.7766,89.778 255.4646,89.778 C257.3906,89.778 257.9406,87.026 257.9406,80.147 L257.9406,60.333 Z" id="Fill-7" fill="#000000"></path>
                <path d="M348.8858,62.9477 C348.8858,55.2427 345.7218,51.8027 340.3548,51.6657 C335.8138,51.5277 327.2838,54.5547 327.2838,66.9377 L327.2838,80.1467 C327.2838,88.1267 327.8348,89.7777 328.9348,89.7777 C329.4858,89.7777 329.8978,89.5027 330.4488,89.2267 C330.9988,88.9527 331.5498,88.8147 332.5128,88.8147 C334.5748,88.8147 336.5028,90.8787 336.5028,96.6567 C336.5028,101.8857 334.8508,106.1507 330.9988,106.1507 C324.6688,106.1507 319.1668,104.7747 313.5248,104.7747 C308.2968,104.7747 303.0688,106.1507 298.3898,106.1507 C294.9508,106.1507 292.6118,101.8857 292.6118,96.6567 C292.6118,92.5297 294.1248,88.8147 298.6658,88.8147 C299.6288,88.8147 300.3168,89.0897 301.1418,89.2267 C301.8298,89.3647 302.5178,89.7777 303.2058,89.7777 C305.1328,89.7777 305.6828,88.2637 305.6828,80.1467 L305.6828,60.3337 C305.6828,52.4917 304.9948,50.7027 303.2058,50.7027 C301.8298,50.7027 300.4538,51.6657 298.6658,51.6657 C294.1248,51.6657 292.6118,47.9507 292.6118,43.8227 C292.6118,38.5957 294.9508,34.3297 297.9778,34.3297 C301.1418,34.3297 304.5818,35.7057 309.2598,35.7057 C313.1128,35.7057 315.5888,34.3297 319.0288,34.3297 C322.8818,34.3297 322.8818,35.9807 322.8818,41.4837 L322.8818,44.9247 L323.1558,44.9247 C329.0738,37.4937 337.1908,32.2657 347.0968,32.2657 C359.2038,32.2657 370.4878,40.9337 370.4878,56.8937 L370.4878,80.1467 C370.4878,88.4017 371.3118,89.7777 372.9638,89.7777 C373.6518,89.7777 374.3388,89.5027 375.0268,89.2267 C375.8528,88.9527 376.6788,88.8147 377.5028,88.8147 C382.0438,88.8147 383.5578,92.5297 383.5578,96.6567 C383.5578,101.8857 381.2178,106.1507 375.4408,106.1507 C369.5248,106.1507 364.0208,104.7747 358.3778,104.7747 C353.1518,104.7747 350.1238,106.1507 345.1708,106.1507 C342.1438,106.1507 339.6668,103.8117 339.6668,96.6567 C339.6668,90.4657 342.0048,88.8147 343.9328,88.8147 C344.6198,88.8147 345.1708,89.0897 345.5828,89.2267 C346.1338,89.5027 346.6848,89.7777 347.0968,89.7777 C348.7468,89.7777 348.8858,87.8507 348.8858,80.1467 L348.8858,62.9477 Z" id="Fill-9" fill="#000000"></path>
                <path d="M424.2666,74.643 C420.2766,78.909 404.3156,76.844 404.3156,84.136 C404.3156,88.953 408.1686,90.603 412.1596,90.603 C420.2766,90.603 424.2666,85.788 424.2666,77.67 L424.2666,74.643 Z M410.3706,51.39 C410.3706,57.719 404.3156,60.609 398.5376,60.609 C391.7956,60.609 385.8796,55.793 385.8796,48.777 C385.8796,40.108 394.6846,32.266 415.8736,32.266 C422.7526,32.266 432.1086,32.954 438.1626,36.393 C445.4536,40.521 446.9676,47.125 446.9676,57.582 L446.9676,83.449 C446.9676,88.815 447.7936,89.916 449.3076,89.916 C450.4076,89.916 451.5086,89.64 452.6106,89.64 C457.0126,89.64 459.4896,93.355 459.4896,97.345 C459.4896,105.05 451.7846,107.939 445.3176,107.939 C438.9876,107.939 431.9716,105.6 429.6316,99.133 C423.1646,105.326 414.7726,107.939 406.1046,107.939 C393.5846,107.939 381.6146,101.335 381.6146,87.301 C381.6146,54.693 424.2666,71.616 424.2666,53.455 C424.2666,48.226 419.4506,45.75 414.9116,45.75 C412.5716,45.75 410.3706,46.163 410.3706,48.914 L410.3706,51.39 Z" id="Fill-11" fill="#000000"></path>
                <polygon id="Fill-13" fill="#ED1C24" points="461.401 107.752 478.294 107.752 478.294 1.953 461.401 1.953"></polygon>
                <path d="M498.6514,34.5786 C498.6514,24.2506 497.6024,22.4536 494.9094,22.4536 C492.5124,22.4536 490.4174,23.5016 488.1734,23.5016 C483.0834,23.5016 480.3894,17.9636 480.3894,13.4726 C480.3894,7.0356 484.1314,2.0966 490.8664,2.0966 C495.5064,2.0966 500.1474,3.5936 504.9384,3.5936 C508.5304,3.5936 513.1714,2.0966 517.8114,2.0966 C523.4994,2.0966 524.5484,4.3416 524.5484,12.8736 L524.5484,73.7976 C524.5484,82.9286 525.2964,85.9226 528.2904,85.9226 C530.6844,85.9226 532.7804,84.8746 535.0244,84.8746 C540.1144,84.8746 542.8094,90.4126 542.8094,94.9026 C542.8094,101.3406 539.0674,106.2796 532.3314,106.2796 C524.6964,106.2796 519.0084,104.7826 511.8234,104.7826 C504.1884,104.7826 496.7044,106.2796 489.0714,106.2796 C484.1314,106.2796 480.3894,101.3406 480.3894,94.9026 C480.3894,90.4126 483.0834,84.8746 488.1734,84.8746 C490.4174,84.8746 492.5124,85.9226 494.9094,85.9226 C497.9034,85.9226 498.6514,82.9286 498.6514,73.7976 L498.6514,34.5786 Z" id="Fill-15" fill="#000000"></path>
                <path d="M596.544,30.0883 C596.544,23.3523 589.358,20.2083 583.671,20.2083 C579.63,20.2083 575.888,20.8073 572.593,23.2023 C574.54,25.5973 575.587,27.8423 575.587,30.9863 C575.587,39.6683 568.401,45.0573 560.319,45.0573 C551.188,45.0573 545.052,37.4223 545.052,28.7403 C545.052,7.4853 567.653,0.0003 585.317,0.0003 C605.075,0.0003 624.386,8.8323 624.386,31.2853 C624.386,52.6913 604.179,60.3243 586.964,65.7143 C578.732,68.4083 565.259,71.5523 564.511,81.7313 L564.81,82.0293 C567.954,76.7903 573.491,73.6483 579.778,73.6483 C586.065,73.6483 590.857,76.7903 595.196,79.9343 C599.388,83.0773 602.979,86.2213 606.872,86.2213 C608.669,86.2213 610.165,85.0243 611.513,83.8263 C606.124,83.2283 602.231,79.1863 602.231,73.6483 C602.231,67.2103 607.771,62.2713 614.058,62.2713 C624.235,62.2713 629.476,72.0003 629.476,81.2813 C629.476,94.4543 619.446,108.2253 605.524,108.2253 C597.741,108.2253 591.454,104.3333 586.665,100.4423 C581.874,96.5503 578.132,92.8083 575.288,92.8083 C573.94,92.8083 573.491,93.2563 573.642,97.2983 C573.642,104.1843 567.354,108.2253 560.769,108.2253 C548.345,108.2253 541.907,96.4003 541.907,85.1733 C541.907,64.9653 558.972,54.1883 575.888,47.1523 C583.521,44.0093 596.544,39.9673 596.544,30.0883" id="Fill-16" fill="#000000"></path>
            </g>
        </g>
    </g>
</svg>