<?xml version="1.0" encoding="utf-8"?>
<!-- Generator: Adobe Illustrator 22.0.1, SVG Export Plug-In . SVG Version: 6.00 Build 0)  -->
<svg version="1.1" id="Layer_1" xmlns="http://www.w3.org/2000/svg" xmlns:xlink="http://www.w3.org/1999/xlink" x="0px" y="0px"
	 width="108.4px" height="117.2px" viewBox="0 0 108.4 117.2" style="enable-background:new 0 0 108.4 117.2;" xml:space="preserve"
	>
<style type="text/css">
	.st0{fill:#FEFEFE;}
	.st1{fill:#FDCB98;}
	.st2{fill:#424D3D;}
	.st3{fill:#FDFDFD;}
	.st4{fill:#434E3E;}
	.st5{fill:#F2F3F2;}
	.st6{fill:#FCFDFC;}
	.st7{fill:#394533;}
	.st8{fill:#3C4837;}
	.st9{fill:#5D6559;}
	.st10{fill:#33402D;}
	.st11{fill:#303E2A;}
	.st12{fill:#EAEBEA;}
	.st13{fill:#364330;}
	.st14{fill:#5E665A;}
	.st15{fill:#34412E;}
	.st16{fill:#686F64;}
	.st17{fill:#F58026;}
	.st18{fill:#0178AD;}
	.st19{fill:#2C3924;}
	.st20{fill:#3B4736;}
	.st21{fill:#4F594B;}
	.st22{fill:#FCC892;}
	.st23{fill:#384532;}
	.st24{fill:#2B3924;}
	.st25{fill:#25351F;}
	.st26{fill:#3A4634;}
	.st27{fill:#FCCB98;}
	.st28{fill:#394534;}
	.st29{fill:#3A4734;}
	.st30{fill:#2E3C28;}
	.st31{fill:#35422F;}
	.st32{fill:#F47600;}
	.st33{fill:#303D2A;}
	.st34{fill:#2F3D29;}
	.st35{fill:#2D3A25;}
	.st36{fill:#2B3823;}
	.st37{fill:#364230;}
	.st38{fill:#323F2C;}
	.st39{fill:#374431;}
	.st40{fill:#2D3A26;}
	.st41{fill:#33412D;}
	.st42{fill:#E5E6E4;}
	.st43{fill:#F9F9F9;}
	.st44{fill:#3E4A39;}
	.st45{fill:#3F4B3A;}
	.st46{fill:#F7F8F7;}
	.st47{fill:#F4F5F4;}
</style>
<g>
	<g>
		<path class="st0" d="M11.4,47.1c0-12.9,0-25.8,0-38.7c0-1.4,0.4-1.6,1.6-1.5c24.4,0,48.8,0,73.1,0c0.1,1.4-1.2,1.5-2,2
			c-3.5,2.1-3.6,2.1-2.1,5.8c1.2,2.9,1.6,5.9,2,9c0.2,1.1,0.2,2.2,0,3.3c-0.4,3.8-1.2,7.5-2.9,10.9c-0.4,0.9-0.2,1.6,0.7,2.1
			c0.4,0.2,0.7,0.4,1.1,0.6c3.9,2.2,3.9,2.2,5.6-2C90,35,90.8,31.4,91,27.6c0-1.7,0-3.4,0-5.1c0-0.7,0-1.3-0.2-2
			c-0.1-0.4-0.2-0.9-0.2-1.3c-0.5-3.4-1.6-6.7-3-9.8c-0.4-0.8-1.2-1.6-0.5-2.7c3.7,0,7.5,0,11.2,0c1,0,1.3,0.2,1.3,1.3
			c0,13,0,26,0,39c-0.7,0.7-1.7,0.6-2.5,0.6c-2.9,0-5.8,0-8.6,0c-0.7,0-1.5-0.1-2.2,0.4c-0.7,0.6-0.6,1.4-0.6,2.1
			c0,9.6,0,19.2,0,28.8c0,0.8-0.1,1.5,0.6,2.1c1.8,0.7,3.7,0.2,5.5,0.3c1.9,0.1,3.8,0,5.7,0c0.8,0,1.5,0,2.1,0.6c0,3.3,0,6.6,0,10
			c-0.2,0.1-0.4,0.1-0.5,0c-0.2-0.2-0.3-0.4-0.4-0.7c-0.7-1.5-1.9-2.4-3.6-2c-1.7,0.4-2.7,1.5-2.8,3.3c0,2.9,0,5.8,0,8.7
			c-0.3,1.8,1.6,2.5,1.9,3.9c-2.4,0-4.7,0-7.1,0c0.4-1.4,2-2,2.1-3.5c0.3-1.3,0.5-2.6,0-3.9c-1.1-0.6-2.1-0.5-3.2-0.1
			c-0.4,0.6,0.1,0.7,0.5,0.8c0.7,0.2,1.5,0.3,1.8,1.2c0.2,0.6,0.1,1.1,0,1.7c-0.5,1.3-1.2,2.5-2.8,2.1c-1.6-0.3-1.8-1.7-1.8-3.1
			c0-2.5,0-4.9,0-7.4c0-1.4,0.6-2.4,2-2.7c1.4-0.2,2.2,0.6,2.4,1.9c0.2,0.4,0.2,0.8,0.4,1.2c0.5,0.5,0.8,0.4,0.9-0.3
			c0.1-0.5-0.2-1-0.3-1.5c-1.1-2.1-2-2.8-3.7-2.4c-1.8,0.4-2.5,1.6-2.7,3.4c0,2.9,0,5.8,0,8.7c-0.3,1.8,1.6,2.5,1.9,4
			c-1.4,0-2.8,0-4.2,0c-0.4-0.3-0.5-0.8-0.8-1.2c-1.2-0.8-2.6,0-3.8-0.7c-0.3-0.2-0.5-0.4-0.7-0.8c-0.4-1.4-0.3-2.8,0-4.2
			c0.1-0.3,0.3-0.6,0.6-0.8c1.2-0.6,2.6-0.2,3.8-0.5c0.3-0.3,0.2-0.5-0.1-0.7c-1.4-0.4-3,0.4-4.2-0.8c-0.5-1.5-0.4-3.1-0.1-4.6
			c0.6-0.9,1.5-0.7,2.4-0.8c0.6-0.1,1.5,0.3,1.8-0.7c-1.7-0.5-3.3-0.4-5,0c-0.6,0.7-0.4,1.5-0.4,2.2c0,3.7,0,7.3,0,11
			c0,0.9,0.1,1.8-0.6,2.6c-0.8,0-1.7,0-2.5,0c-0.7-0.7-0.6-1.7-0.6-2.5c0-4.3,0-8.5,0-12.8c0-0.8-0.3-0.5-0.7-0.2
			c-0.5,4.3-0.1,8.5-0.2,12.8c0,0.9,0.2,1.9-0.6,2.8c-1.7,0-3.3,0-5,0c0.2-1.4,2.1-2,1.9-3.6c0-3.1,0-6.2,0-9.4
			c-0.4-1.7-1.3-2.8-3.1-3c-1,0.1-2.1-0.4-3,0.4c-0.5,4.2-0.1,8.4-0.2,12.6c0,1,0.2,2.1-0.6,3c-1.9,0-3.9,0-5.8,0
			c-0.7-0.7-0.6-1.7-0.6-2.6c0-4.2,0-8.4,0-12.6c0-0.2-0.1-0.3-0.2-0.5c-0.4-0.1-0.6,0.2-0.7,0.5c-0.2,2.6,0.3,5.2-0.3,7.8
			c-1.3,0.9-1.5-0.3-1.8-1c-0.7-1.9-1.6-3.7-2.3-5.5c-0.2-0.5-0.2-1.6-1.3-1c-0.4,3.3-0.1,6.7-0.2,10c0,1.4,0.2,2.9-0.2,4.3
			c-0.1,0.2-0.2,0.4-0.4,0.6c-0.4,0-0.8,0-1.2,0c-0.9-0.5-1-1.4-1.3-2.3c-0.8-3.3-1.6-6.6-2.3-9.9c-0.1-0.5-0.2-1.1-0.4-1.6
			C39.7,90.9,39.7,90,39,90c-0.8,0-0.8,0.8-0.9,1.4c-0.4,1.7-0.9,3.3-1.2,5c-0.4,2.2-1.1,4.3-1.4,6.5c-0.1,0.9-0.5,1.7-1.2,2.3
			c-1.1,0-2.2,0-3.3,0c0.2-1.4,2.1-2,1.9-3.6c0-0.7,0-1.4-0.1-2.1c-0.6-1.9-2.5-2.4-3.9-3.5c-1.6-1.3-2.1-2.7-1.2-4.3
			c0.5-0.8,1.1-1.4,2.1-1.4c1,0.1,1.6,0.7,1.9,1.6c0.2,0.5-0.2,1.5,0.9,1.5c0.3-0.4,0.2-1,0.2-1.4c-0.4-1.5-1.2-2.5-2.9-2.7
			c-1.8-0.1-3,0.7-3.5,2.4c-0.5,1.4-0.3,2.6,0.5,3.8c0.8,1,1.9,1.6,3,2.1c0.9,0.5,1.6,1.1,1.8,2.1c0.4,1.6-0.1,3.1-1.3,3.6
			c-1.5,0.5-2.3-0.3-3-1.5c-0.3-0.5-0.3-1.2-0.5-1.7c-0.1-0.2-0.3-0.2-0.5-0.2c-0.1,0.1-0.2,0.1-0.3,0.3c-0.2,0.5,0,1.1,0.1,1.6
			c0.1,0.3,0.2,0.5,0.3,0.8c0.2,1.2,1.8,1.4,1.9,2.6c-5,0-10-0.1-14.9,0.1c-1.8,0.1-2.4-0.4-2.1-2.1c2.1-0.9,4.2-0.1,5.9-0.4
			c-1.7-0.3-3.9,0.5-5.9-0.4c0-1,0-1.9,0-2.9c0.1-0.1,0.3-0.2,0.5-0.1c0.9,0.3,1.6,1.2,2.7,0.4c0.8-1.5,0.5-3.1,0.2-4.7
			c-1-0.7-1.9-0.3-2.8,0c-0.2,0-0.4,0-0.5-0.1c0-15.8,0-31.5,0-47.3c0.6-0.1,0.7,0.4,0.9,0.8C14.8,58.5,17.5,68.8,20,79
			c0.2,0.7,0.3,1.5,0.9,2.1c0.7,0.4,1.4,0.4,2.1,0c0.5-0.6,0.6-1.2,0.7-1.9c2.4-9.7,4.8-19.4,7.3-29.1c0.2-0.7,0.4-1.3,0.2-2
			c-0.9-0.8-1.8-0.6-2.8-0.1c-1.5,3.9-2.2,8-3.3,12c-0.8,2.7-1.3,5.4-2.1,8c-0.2,0.7-0.2,1.9-1.2,1.9c-0.9,0-1-1.2-1.2-2
			c-1.3-5.5-2.8-11-4.1-16.5c-0.3-1.2-0.3-2.5-1.3-3.4C14,47.2,12.5,48,11.4,47.1z"/>
		<path class="st1" d="M91.5,27.9c-0.3,5.2-1.8,10-4.3,14.5c-0.3,0.5-0.5,0.9-1.3,0.5c-1.8-1.1-3.6-2.1-5.3-3.2
			c-0.4-0.3-0.8-0.5-0.5-1.1c1.9-3.6,2.8-7.6,3.5-11.6c0.6-1.2,0.1-2.4,0.2-3.6c0-0.3,0.1,0,0-0.2c-0.1-0.2-0.1,0.2-0.2,0.2
			c-0.6-2.9-1-5.9-2.1-8.7c-0.5-1.3-2.2-2.7-1.3-4C81,9.5,82.7,9.1,84,8.3c0.7-0.5,1.7-0.6,2.1-1.5c0.3,0,0.6,0,0.8,0
			c1.6,3.7,3.3,7.4,4,11.4c0.1,0.3,0.1,0.7,0.1,1c-0.3,0.3-0.2,0.8-0.2,1.1c0,0.3,0.2,0.4,0.1,0.2c0,0,0.1-0.1,0.1-0.1
			c0.5,0.5,0.4,1.1,0.3,1.7C91.2,24.1,91.2,26,91.5,27.9z"/>
		<path class="st2" d="M99.4,51.2c0,0.1,0,0.3,0,0.4c-1.7,1.1-3.6,0.6-5.4,0.6c-4.3,0.1-3.9-0.1-3.9,3.9c0,1.8-0.3,3.7,0.3,5.5
			c0.8,0.9,1.8,0.5,2.7,0.6c2.1,0.2,4.3-0.6,6.3,0.6c0,1.1,0,2.2,0,3.3c-2,1.1-4.1,0.3-6.2,0.6c-1,0.1-2.1-0.4-2.9,0.6
			c-0.5,3.3-0.5,6.5,0,9.7c0.8,0.9,2,0.4,2.9,0.5c2,0.2,4.1-0.5,6.1,0.6c0,1.1,0,2.2,0,3.3c-4.7,0.4-9.4,0.3-14.2,0
			c-0.3-0.7-0.1-1.5-0.1-2.2c0-9.8,0-19.7,0-29.5c0-0.8-0.1-1.5,0.1-2.3c4.7-0.4,9.5-0.3,14.2,0c0,1.1,0,2.2,0,3.3
			c-3.3,0.5-6.6,0-9.2,0.2C92.9,51.2,96.1,50.7,99.4,51.2z"/>
		<path class="st3" d="M89.5,77.7c-0.2-3.7-0.2-7.4,0-11c3.3-0.6,6.6-0.4,9.9-0.1c0,3.7,0,7.5,0,11.2C96.1,78.1,92.8,78.2,89.5,77.7
			z"/>
		<path class="st3" d="M89.5,62.4c0-3.2-0.1-6.5-0.1-9.7c0-0.9,0.3-1.2,1.2-1.2c3,0.1,5.9,0.1,8.9,0.2c0,3.6,0,7.2,0,10.8
			C96.1,62.7,92.8,62.8,89.5,62.4z"/>
		<path class="st4" d="M34.2,105.2c1.1-4.8,2.2-9.6,3.3-14.4c0.2-0.8,0-1.8,1.4-1.9c1.5,0,1.1,1.2,1.3,1.9c1.2,4.8,2.4,9.6,3.5,14.4
			c-0.8,0-1.7,0-2.5,0c-0.7-0.7-0.7-1.7-1-2.6c-0.2-0.7-0.5-1.3-1.3-1.3c-0.8,0-1.1,0.6-1.3,1.3c-0.3,1-0.3,2.1-1.3,2.6
			C35.6,105.2,34.9,105.2,34.2,105.2z"/>
		<path class="st2" d="M51.3,89c0.3-0.1,0.6-0.3,0.8-0.4c0.5,5.2,0,10.4,0.2,15.4c0.3-0.2,0-0.7,0-1.1c0-4.1,0-8.1,0-12.2
			c0-0.7-0.2-1.4,0.2-2c0.7,0.7,0.3,1.5,0.3,2.3c0.1,4.7,0.1,9.5,0.1,14.2c-0.7,0-1.4,0-2.1,0c-1.9-2.4-2.5-5.4-3.6-8.2
			c-0.1-0.3-0.2,0.2,0,0c0.1-0.1,0.1,0,0.2,0.1c0.3,2.7,0.8,5.4-0.3,8.1c-0.7,0-1.4,0-2.1,0c0-0.1-0.1-0.2-0.1-0.3c0,0,0-0.1,0-0.1
			c0.6-1.6,0.2-3.3,0.2-4.9c0.2-3.6-0.2-7.3,0.2-10.9c1.1-0.3,1.5,0.3,1.9,1.3c1.1,2.6,1.8,5.4,3.4,7.8c0.7-1.8,0.1-3.8,0.3-5.6
			C51.2,91.3,50.9,90.1,51.3,89z"/>
		<path class="st4" d="M26,91.5c0.8-2.3,2-3.2,4.6-2.8c1.5,0.2,2.7,1.4,2.7,3.2c-0.2,0.7-0.3,1.4,0.1,2.1c-0.9,0.5-1.9,1.1-2-0.7
			c-0.1-1.1,0-2.3-1.5-2.6c-1-0.2-1.6,0.3-1.9,1.2c-0.5,1.4-0.4,2.6,0.9,3.5c0.8,0.5,1.6,1,2.4,1.5c1,0.6,2,1.2,2.1,2.5
			c-0.2,0.8-0.3,1.6,0,2.5c0,1.7-1.3,2.4-2.4,3.3c-0.8,0-1.7,0-2.5,0c-0.9-0.7-2.2-1.1-2.4-2.5c0.3-1.1-0.6-2.2,0.3-3.2
			c0.3,0,0.6,0,0.8,0c0.5,0.6-0.2,1.5,0.5,2c0.5,1,0.9,1.9,2.2,1.6c0.9-0.2,1.4-0.9,1.4-1.8c0-1.1,0.1-2.3-1.3-2.9
			c-1.4-0.6-3-1.1-3.7-2.7C25.9,94.3,26.1,92.9,26,91.5z"/>
		<path class="st2" d="M91.6,91.9c0.6-2.5,1.8-3.5,4-3.3c1.9,0.2,3.3,1.1,3.4,3.2c0.3,3,0.1,6.1,0.2,9.2c0,3.1-0.3,3.5-3.1,4.2
			c-0.7,0-1.4,0-2.1,0c-1.1-0.9-2.4-1.6-2.4-3.3C91.8,98.5,91.8,95.2,91.6,91.9z"/>
		<path class="st2" d="M87.8,92.8c-0.4-1.1-0.6-2.4-2.2-2.1c-1.7,0.3-1.5,1.6-1.5,2.7c0,2.3,0,4.6,0,6.8c0,1.2-0.1,2.5,1.5,2.8
			c1.6,0.3,1.9-1,2.3-2.1c0.4-1.4,0.4-1.4-0.6-2.2c-0.5-0.2-1.4,0.3-1.5-0.7c0-0.9,0.8-0.8,1.4-0.8c2-0.1,2.4,0.2,2.4,2.3
			c0,0.8-0.1,1.5,0,2.3c0,1.7-1.3,2.5-2.5,3.3c-0.8,0-1.7,0-2.5,0c-1.2-0.8-2.4-1.6-2.4-3.3c0.3-3.3,0.3-6.6,0-9.9
			c0.2-2,1.4-3.2,3.4-3.3c2.2-0.2,3.4,0.9,4,2.9c-0.5,0.7,0.7,2-0.9,2.3c-0.5-0.1-0.4-0.5-0.5-0.9c-0.1-0.3-0.2-0.4-0.1-0.1
			C87.9,92.7,87.8,92.8,87.8,92.8z"/>
		<path class="st2" d="M62.9,88.6c1.8,0.1,2.7,1.3,3.2,2.9c-0.2,3.6-0.2,7.2,0,10.7c-0.2,1.5-1.4,2.1-2.4,2.9c-1.4,0-2.8,0-4.2,0
			c-0.3-0.3-0.4-0.7-0.4-1.1c0-4.9-0.2-9.8,0.1-14.8C60.3,88.2,61.7,89.2,62.9,88.6z"/>
		<path class="st2" d="M75.8,97.8c-0.1,0.1-0.2,0.2-0.4,0.4c-0.5,1.5-0.5,3,0,4.5c0.1,0.2,0.2,0.3,0.4,0.5c1.5,0.6,3-0.1,4.5,0.4
			c0,0.6,0,1.1,0.1,1.7c-2.1,0-4.2,0-6.2,0c-0.1-0.2-0.3-0.3-0.3-0.5c-0.1-5.2-0.4-10.4,0.1-15.6c2.1-0.4,4.2-0.4,6.3-0.1
			c0.3,1.3-0.1,1.9-1.5,1.7c-1.1-0.1-2.2,0-3.2,0c-0.7,1.6-0.6,3.3-0.1,4.9c1.6,0.4,3.2-0.3,4.8,0.4c-1.2,0.4-2.4,0.1-3.7,0.2
			c0.9,0,1.8,0,2.7,0c0.7,0,1,0.3,0.7,1.1C78.6,97.9,77.1,97,75.8,97.8z"/>
		<path class="st5" d="M47.1,105.2c0-3,0-5.9,0-8.9c1.4,2.9,2.8,5.8,3.7,8.9C49.6,105.2,48.4,105.2,47.1,105.2z"/>
		<path class="st6" d="M36.3,105.2c0.3-0.9,0.6-1.8,0.7-2.7c0.2-1.1,0.3-1.9,1.8-1.9c1.5-0.1,1.8,0.8,2,1.9c0.2,0.9,0.3,1.9,0.5,2.8
			C39.6,105.2,38,105.2,36.3,105.2z"/>
		<path class="st7" d="M74.1,89c0,5.4,0,10.8,0,16.2c-0.3,0-0.6,0-0.8,0c0.4-5,0-10,0.2-15c0-0.5-0.6-1.5,0.6-1.6
			c0.1,0.1,0.2,0.2,0.1,0.2C74.2,88.9,74.1,89,74.1,89z"/>
		<path class="st8" d="M68.7,105.2c0-5,0-10,0.1-15c0-0.3-0.8-1.6,0.7-1.2c0.6,0.6,0.6,1.4,0.6,2.1c0,4,0,7.9,0,11.9
			c0,0.8,0,1.5-0.6,2.1C69.3,105.2,69,105.2,68.7,105.2z"/>
		<path class="st2" d="M69.5,105.2c0-5.4,0-10.8,0-16.1c0.3,0.1,0.5-0.8,0.8-0.1c0.3,5.4,0.3,10.8,0,16.2
			C70.1,105.2,69.8,105.2,69.5,105.2z"/>
		<path class="st8" d="M59.6,89c0,5.4,0,10.8,0,16.2c-0.3,0-0.6,0-0.8,0c0-4.9,0-9.8,0.1-14.7c0-0.6-0.4-1.4,0.3-1.9
			C59.4,88.7,59.5,88.8,59.6,89z"/>
		<path class="st9" d="M11.4,102.3c3,0,6,0,8.9,0c0,0.2,0,0.4,0,0.6c-3,0.5-6,0-9,0.2C11.4,102.8,11.4,102.5,11.4,102.3z"/>
		<path class="st10" d="M70.4,105.2c0-5.4,0-10.8,0-16.2c0.5,0.1,0.5,0.6,0.5,1c0,5.1-0.1,10.2-0.1,15.3
			C70.6,105.2,70.5,105.2,70.4,105.2z"/>
		<path class="st10" d="M85.3,81.5c4.7,0,9.4,0,14.1,0c0,0.1,0,0.3,0,0.4c-4.7,0.2-9.4,0.2-14.1,0c-0.1-0.1-0.1-0.2-0.1-0.3
			C85.2,81.5,85.3,81.5,85.3,81.5z"/>
		<path class="st11" d="M99.4,47.5c-4.7,0-9.4,0-14.1,0c-0.1-0.1-0.2-0.2-0.1-0.2c0-0.1,0.1-0.1,0.1-0.1c4.7,0,9.4,0,14.1,0
			C99.4,47.2,99.4,47.3,99.4,47.5z"/>
		<path class="st12" d="M96.1,105.2c1.6-0.7,2.9-1.6,3-3.6c0-0.3,0.1-0.3,0.3-0.1c0,0.1,0,0.3,0,0.4
			C99.4,105.2,99.4,105.2,96.1,105.2z"/>
		<path class="st10" d="M89.5,77.7c3.3,0,6.6,0,9.9,0.1c0,0.1,0,0.3,0,0.4c-2.7,0-5.4,0-8.1,0C90.7,78.2,90,78.4,89.5,77.7z"/>
		<path class="st13" d="M99.4,66.6c-3.3,0.3-6.6,0.1-9.9,0.1c0.5-0.8,1.2-0.5,1.9-0.5c2.7,0,5.4,0,8.1,0
			C99.4,66.3,99.4,66.4,99.4,66.6z"/>
		<path class="st11" d="M89.5,62.4c3.3,0,6.6,0,10,0c0,0.1,0,0.3,0,0.4c-2.7,0-5.4,0-8,0C90.7,62.8,90,63.1,89.5,62.4z"/>
		<path class="st7" d="M99.4,51.2c-3.2,0-6.3,0-9.5,0c0-0.1,0-0.3,0-0.4c3.2,0,6.3,0,9.5,0C99.4,50.9,99.4,51.1,99.4,51.2z"/>
		<path class="st14" d="M99.4,101.4l-0.1,0.1c0,0-0.2,0-0.2,0c0-3.3,0-6.5,0-9.8c0.1,0,0.2,0,0.4,0.1
			C99.4,95.1,99.4,98.3,99.4,101.4z"/>
		<path class="st15" d="M11.4,47.1c1.4,0.1,2.9-0.6,4.3,0.4c-1.1,0.9-2.5,0.7-3.8,0.9c-0.1-0.3-0.3-0.5-0.4-0.8
			C11.4,47.3,11.4,47.2,11.4,47.1z"/>
		<path class="st16" d="M11.9,99.3c-0.2,0-0.3,0-0.5,0c0-1.5,0-3,0-4.6c0.1,0,0.3,0,0.4,0c0.1,0.1,0.2,0.1,0.2,0.2
			c0.6,1.2,0.2,2.4,0.4,3.6c0,0.2,0,0.4-0.1,0.6C12.3,99.4,12.1,99.5,11.9,99.3z"/>
		<path class="st2" d="M40.5,81.9c-4.1-0.7-6.2-3.3-6.6-8.3c0.2-6.1,0.2-12.2,0-18.2c0.4-4.9,2.3-7.3,6.6-8.2c1.1,0.2,2.2,0.2,3.3,0
			c4.1,0.7,6.8,4.7,6.6,9.1c-0.2,5.5-0.2,11,0,16.6c0,4.6-2.2,8.7-7,9.1C42.4,81.6,41.4,81.6,40.5,81.9z"/>
		<path class="st2" d="M11.9,48.3c1-1.4,2.5-0.6,3.8-0.9c0.9,0.2,0.7,0.9,0.8,1.5c1.7,6.6,3.3,13.2,4.9,19.8
			c0.1,0.3,0.2,0.6,0.5,1.5c1.6-6.2,2.9-11.8,4.4-17.5c0.5-1.9,0.6-3.9,1.7-5.6c1.3,0.4,2.6-0.1,3.8,0.3c0.6,1.2-0.2,2.3-0.5,3.5
			c-2.5,10.1-5,20.2-7.5,30.3c-0.1,0.3-0.1,0.5-0.4,0.6c-1-0.1-1.9-0.3-2.9,0.1c-0.7-0.1-0.7-0.8-0.8-1.3
			c-2.6-10.6-5.3-21.3-7.9-31.9C11.8,48.6,11.9,48.4,11.9,48.3z"/>
		<path class="st2" d="M71.2,81.9c-4.2-0.7-6.4-3.6-6.6-8.7c0.2-5.7,0.3-11.3,0-17c0-5.2,2.6-8.5,7-9.1c0.8,0.3,1.6,0.2,2.5,0
			c4.1,0.5,6.5,3.3,7,8.1c0.1,1.3,0.5,2.7-0.3,3.9c-1.2-0.3-2.5-0.3-3.7,0c-0.9-1.1-0.3-2.3-0.4-3.5c-0.3-2.8-1.4-4-3.7-4.1
			c-2.5,0-3.7,1.2-3.8,4.1c-0.1,5.9-0.1,11.9,0,17.8c0,2.1,0.8,3.7,3,4.3c0.5,0.4,1,0.4,1.5,0c2.1-0.7,2.8-2.3,3-4.4
			c0.1-1.1-0.5-2.4,0.4-3.4c1.2,0.2,2.5,0.3,3.7,0c1.4,4.2-0.6,11.3-6.2,12C73.4,81.6,72.3,81.6,71.2,81.9z"/>
		<path class="st1" d="M27.2,27.9c0.8,3.6,1.5,7.2,3.3,10.5c0.4,0.7-0.1,0.9-0.6,1.2c-1.6,0.9-3.1,1.8-4.6,2.7
			c-1,0.7-1.6,0.6-2.2-0.6c-1.9-4-3.3-8.2-3.7-12.6c0.2-2.6,0.3-5.2,0-7.8c0.4-4.7,1.8-9,4-13.2c0.5-0.9,0.9-1.1,1.8-0.6
			c0.2,0.1,0.4,0.2,0.5,0.3c1.6,0.9,3.7,1.5,4.7,2.9c1.1,1.7-1.2,3.2-1.5,5c-0.4,2.1-1,4.3-1.6,6.4C26.8,24.1,26.8,26,27.2,27.9z"/>
		<path class="st17" d="M75.3,26.3c0,2.7-0.8,5.3-1.9,7.7c-0.4,0.9-0.9,1.1-1.7,0.5c-0.2-0.2-0.5-0.3-0.7-0.4
			c-1.5-0.9-3.8-1.5-4.4-2.9c-0.5-1.3,0.8-3.3,1.3-5c0.4-0.7,0.4-1.4,0-2.1c-0.5-1.5-0.6-3.1-1.4-4.5c-0.5-0.8,0.1-1.2,0.6-1.5
			c0.8-0.6,1.8-1,2.7-1.6c3.2-1.9,3.2-1.9,4.5,1.8c0.6,1.8,1.1,3.5,1.1,5.4C75,24.6,75,25.5,75.3,26.3z"/>
		<path class="st2" d="M55.5,81.5c0-11.4,0-22.7,0-34.1c1.3-0.3,2.6-0.4,3.9,0.1c0.3,0.5,0.2,1.1,0.2,1.6c0,10.2,0,20.4,0,30.6
			c0,0.5,0,1.1-0.2,1.6C58.1,82,56.8,81.8,55.5,81.5z"/>
		<path class="st17" d="M43,26.7c0.4,1.2,0.8,2.5,1.3,3.7c0.3,0.7,0,1-0.5,1.3c-1.6,0.9-3.2,1.8-4.8,2.8c-0.8,0.5-1.2,0.4-1.5-0.5
			c-1-2.1-1.7-4.2-1.8-6.5c0.2-1.5,0.3-3,0-4.5c0.1-2.5,0.9-4.7,1.9-6.9c0.4-0.9,0.8-0.9,1.6-0.4c0.5,0.3,0.9,0.6,1.4,0.9
			c4.1,2.3,4.1,2.3,2.5,6.9C42.6,24.5,42.6,25.6,43,26.7z"/>
		<path class="st18" d="M55.3,29.7c-2.6,0-4.5-2-4.5-4.6c0-2.6,2.1-4.6,4.6-4.5c2.4,0.1,4.5,2.2,4.5,4.6
			C59.9,27.6,57.9,29.7,55.3,29.7z"/>
		<path class="st8" d="M59.1,81.5c0-11.3,0-22.7,0-34C59,47.4,59,47.3,59,47.2c0-0.1,0.1-0.1,0.1-0.1c0.7-0.1,0.8,0.3,0.8,0.8
			c0,11.2,0,22.3,0,33.5c0,0.1-0.2,0.3-0.3,0.4C59.4,81.8,59.2,81.7,59.1,81.5z"/>
		<path class="st19" d="M85.3,47.1c0,0.1,0,0.3,0,0.4c0,11.3,0,22.7,0,34c0,0.1,0,0.3,0,0.4c-0.8-0.3-0.4-0.9-0.4-1.4
			c0-10.7,0-21.4,0-32C84.9,48,84.5,47.4,85.3,47.1z"/>
		<path class="st13" d="M33.9,55.4c0.4,0.4,0.3,0.9,0.3,1.4c0,5.2,0,10.3,0,15.5c0,0.5,0.1,1-0.3,1.4C33.9,67.5,33.9,61.4,33.9,55.4
			z"/>
		<path class="st20" d="M89.5,101.9c-0.6-0.5-0.4-1.2-0.4-1.9c-0.1-2.5-0.4-2.7-3.1-1.9c0.4,0.9,1.5,0.1,1.8,0.9
			c0.2,0.2,0.2,0.4-0.1,0.6c-0.5-0.3-1-0.4-1.5-0.4c-1.7,0.1-1.6-0.8-1.1-1.9c1.4-0.2,2.9-0.3,4.3,0
			C89.9,98.8,89.9,100.3,89.5,101.9z"/>
		<path class="st10" d="M64.6,56.2c0.5,0.5,0.3,1.2,0.3,1.8c0,4.5,0,9,0,13.5c0,0.6,0.2,1.3-0.3,1.8C64.6,67.5,64.6,61.9,64.6,56.2z
			"/>
		<path class="st7" d="M50.4,72.8c-0.6-0.6-0.3-1.3-0.3-2c0-4.2,0-8.4,0-12.6c0-0.7-0.2-1.4,0.3-2C50.4,61.7,50.4,67.3,50.4,72.8z"
			/>
		<path class="st8" d="M52.5,88.7c0,5.2,0,10.4,0,15.6c-0.1,0-0.3,0-0.4,0c0-5.2,0-10.5,0-15.7C52.2,88.6,52.4,88.7,52.5,88.7z"/>
		<path class="st13" d="M45.5,89c0,4.5,0,9.1,0,13.6c0,0.7,0.3,1.5-0.4,2.1c0-5-0.1-9.9-0.1-14.9C44.9,89.5,44.8,89,45.5,89z"/>
		<path class="st21" d="M18.9,92.3c-0.3,0.8-1,1.6,0.5,1.9c0.1,0,0.2,0.2,0.3,0.3c-2,1.4-0.5,3.4-1,5.1c-0.1,0.2-0.2,0.3-0.3,0.5
			c-0.4-1.3-0.1-2.6-0.2-3.9c0-0.7,0.2-1.4-0.6-1.9c0.4-0.8-0.1-1.9,0.8-2.5C18.7,91.9,18.9,92.1,18.9,92.3z"/>
		<path class="st10" d="M66.1,102.2c-0.5-3.6-0.5-7.2,0-10.7C66.4,95.1,66.4,98.7,66.1,102.2z"/>
		<path class="st11" d="M91.6,91.9c0.6,3.3,0.6,6.6,0,9.9C91.4,98.5,91.4,95.2,91.6,91.9z"/>
		<path class="st10" d="M82,91.9c0.6,3.3,0.6,6.6,0,9.9C81.8,98.5,81.8,95.2,82,91.9z"/>
		<path class="st13" d="M51.3,89c0,2.4,0,4.8,0,7.2c0,0.6,0.3,1.4-0.5,1.9c0-2.5,0-5.1,0-7.6C50.8,90,50.3,89.2,51.3,89z"/>
		<path class="st22" d="M19.4,21.3c0.6,2.6,0.6,5.2,0,7.8C19.4,26.6,19.4,24,19.4,21.3z"/>
		<path class="st23" d="M15.1,94.5c1.1,1.8,0.9,4.4-0.4,5.6c-0.3-0.1-0.5-0.3-0.6-0.6c0.6-1.5,0.5-3,0.4-4.5
			C14.6,94.7,14.8,94.5,15.1,94.5z"/>
		<path class="st20" d="M88.2,93.5c1.4-0.1,0.4-1.6,1.2-2.1c0.3,0.9,0.7,1.9,0.1,2.7c-0.3,0.4-1.2,0.5-1.7-0.2
			C88,93.8,88,93.6,88.2,93.5z"/>
		<path class="st22" d="M27.2,27.9c0,0.1,0,0.1,0,0.2c-0.1,0.2-0.4,0.3-0.4,0.1c0-2,0-4,0.1-6.1c0,0,0.1-0.1,0.2-0.1
			c0.1,0,0.1,0.1,0.2,0.1C27.2,24.1,27.2,26,27.2,27.9z"/>
		<path class="st24" d="M74.1,89c0-0.1,0-0.2,0-0.4c2.1,0.1,4.2-0.6,6.2,0.3C78.2,89,76.1,89,74.1,89z"/>
		<path class="st25" d="M17.7,94.4c1.1,0.3,0.7,1.2,0.7,1.9c0.1,1.3,0,2.6,0.1,3.9c-0.9-0.8-0.3-1.8-0.4-2.8
			C17.9,96.4,18.2,95.3,17.7,94.4z"/>
		<path class="st26" d="M26,91.5c0.7,1.4,0.2,2.8,0.3,4.2C25.5,94.3,25.5,92.9,26,91.5z"/>
		<path class="st22" d="M91.5,27.9c-0.6-1.9-0.6-3.8,0-5.8C91.5,24.1,91.5,26,91.5,27.9z"/>
		<path class="st27" d="M83.6,23.5c0-0.3,0.1-0.5,0.1-0.8c0.1,0,0.2,0,0.3,0c0,1.6,0,3.2,0,4.8c0,0-0.1,0.1-0.1,0.1
			c-0.1-0.1-0.2-0.3-0.3-0.4C83.6,25.9,83.6,24.7,83.6,23.5z"/>
		<path class="st28" d="M79.9,97.3c-0.1-1-0.9-0.8-1.6-0.8c-0.7-0.1-1.5,0.2-2.6-0.4c1.8,0,3.1,0,4.4,0c0,0.4,0,0.8,0.1,1.2
			C80.1,97.4,80,97.4,79.9,97.3z"/>
		<path class="st13" d="M75.4,95.6c-0.8-1.7-1-3.3,0.1-4.9C75.5,92.3,75.5,94,75.4,95.6z"/>
		<path class="st13" d="M75.4,102.6c-0.8-1.5-0.8-3,0-4.5C75.4,99.6,75.4,101.1,75.4,102.6z"/>
		<path class="st29" d="M15.1,94.5c0,0.1-0.1,0.2-0.2,0.3c-0.7,0.5-1.6,0.2-2.4,0.3c-0.2,0-0.3-0.1-0.5-0.3l-0.2,0
			C12.8,93.5,13.9,93.3,15.1,94.5z"/>
		<path class="st30" d="M14.3,99.8c0.1,0.1,0.3,0.2,0.4,0.4c-1.1,0.5-2.2,0.6-2.8-0.8c0.1,0,0.3,0,0.4,0
			C13.1,99.1,13.7,99.2,14.3,99.8z"/>
		<path class="st31" d="M79.9,97.3c0.1,0,0.2,0,0.4,0c-1.4,1.2-3,0.3-4.5,0.5C77,96.8,78.5,97.5,79.9,97.3z"/>
		<path class="st10" d="M80.3,103.5c-1.5-0.2-3.1,0.5-4.5-0.4C77.3,103.3,78.8,102.6,80.3,103.5z"/>
		<path class="st32" d="M35.5,23c0.6,1.5,0.6,3,0,4.5C35.4,26,35.3,24.5,35.5,23z"/>
		<path class="st2" d="M89.5,97.3c-1.4,0-2.9,0-4.3,0C86.6,96.9,88,96.8,89.5,97.3z"/>
		<path class="st10" d="M59.1,81.5c0.1,0.1,0.3,0.2,0.4,0.4c-1.4,0-2.8,0.6-4.1-0.4C56.7,81.5,57.9,81.5,59.1,81.5z"/>
		<path class="st33" d="M31.9,47.4c-1.3-0.1-2.6,0.4-3.8-0.3C29.3,47.1,30.7,46.6,31.9,47.4z"/>
		<path class="st34" d="M59.1,47.1c0,0.1,0,0.2,0,0.4c-1.2,0-2.5,0-3.7,0C56.6,46.5,57.9,47.2,59.1,47.1z"/>
		<path class="st10" d="M77,59.1c1.2-0.6,2.5-0.6,3.7,0C79.5,59.1,78.2,59.1,77,59.1z"/>
		<path class="st35" d="M80.7,69.9c-1.2,0.6-2.5,0.6-3.7,0C78.3,69.9,79.5,69.9,80.7,69.9z"/>
		<path class="st36" d="M59.6,89c-0.1-0.1-0.3-0.2-0.4-0.3c1.2,0,2.5,0,3.7,0C61.8,89.3,60.7,88.8,59.6,89z"/>
		<path class="st37" d="M26.4,99.4c-0.1,1.1,0.3,2.2-0.3,3.2c0-0.3-0.1-0.5-0.1-0.8c-0.3-0.8-0.3-1.6,0-2.4
			C26.1,99.5,26.2,99.4,26.4,99.4z"/>
		<path class="st10" d="M71.2,81.9c1.1-0.6,2.2-0.6,3.3,0C73.4,82.1,72.3,82.1,71.2,81.9z"/>
		<path class="st32" d="M43,26.7c-0.6-1.1-0.6-2.2,0-3.3C43,24.5,43,25.6,43,26.7z"/>
		<path class="st30" d="M43.8,47.1c-1.1,0.6-2.2,0.6-3.3,0C41.6,46.9,42.7,46.9,43.8,47.1z"/>
		<path class="st10" d="M20.6,81.9c0.9-0.6,1.9-0.5,2.9-0.1C22.5,82.1,21.5,82,20.6,81.9z"/>
		<path class="st10" d="M40.5,81.9c1-0.5,1.9-0.6,2.9,0C42.4,82.1,41.4,82,40.5,81.9z"/>
		<path class="st38" d="M33.4,101.8c-0.6-0.8-0.6-1.6,0-2.5C33.6,100.2,33.6,101,33.4,101.8z"/>
		<path class="st4" d="M26,99.5c0,0.8,0,1.6,0,2.4C25.6,101.1,25.3,100.3,26,99.5z"/>
		<path class="st32" d="M75.3,26.3c-0.6-0.8-0.6-1.6,0-2.4C75.3,24.6,75.3,25.5,75.3,26.3z"/>
		<path class="st39" d="M87.7,99.5c0-0.2,0-0.4,0.1-0.6c0.4,0.7,0.9,1.4-0.1,2C87.7,100.5,87.7,100,87.7,99.5z"/>
		<path class="st40" d="M74.1,47.1c-0.8,0.5-1.6,0.6-2.5,0C72.4,47.1,73.3,47.1,74.1,47.1z"/>
		<path class="st31" d="M73.6,77.7c-0.5,0.8-1,0.7-1.5,0C72.6,77.7,73.1,77.7,73.6,77.7z"/>
		<path class="st22" d="M91.1,20.4c0,0.1,0,0.3-0.1,0.4c-0.2,0.2-0.3,0.1-0.3-0.1c0-0.5-0.1-1,0.4-1.4
			C91.1,19.7,91.1,20.1,91.1,20.4z"/>
		<path class="st32" d="M67.9,24.2c0.6,0.7,0.6,1.4,0,2.1C67.9,25.6,67.9,24.9,67.9,24.2z"/>
		<path class="st41" d="M27.7,101.4c-0.8-0.5-0.4-1.3-0.5-2C28.2,99.9,27.5,100.7,27.7,101.4z"/>
		<path class="st19" d="M18.9,92.3c-0.1-0.1-0.3-0.3-0.4-0.4c0.3-0.3,0.8-0.7,1.2-0.3C19.9,91.9,19.2,92.1,18.9,92.3z"/>
		<path class="st38" d="M33.4,94c-0.6-0.7-0.6-1.4-0.1-2.1C33.4,92.6,33.4,93.3,33.4,94z"/>
		<path class="st13" d="M88.2,93.5c-0.1,0.1-0.3,0.3-0.4,0.4c0-0.4,0-0.8,0-1.2c0.1-0.2,0.2-0.3,0.3-0.5
			C88.4,92.7,88.1,93.1,88.2,93.5z"/>
		<path class="st8" d="M88.7,77.2c0-3.4,0-6.8,0-10.2c0.1,0,0.1,0,0.2,0c0,3.4,0,6.8,0,10.3C88.9,77.2,88.8,77.2,88.7,77.2z"/>
		<path class="st8" d="M88.7,61.9c0-3.4,0-6.8,0-10.3c0.1,0,0.1,0,0.2,0c0,3.4,0,6.8,0,10.2C88.8,61.9,88.8,61.9,88.7,61.9z"/>
		<path class="st42" d="M39.1,95c0.2,0.9,0.4,1.8,0.6,2.8c0.1,0.7-0.4,1.1-1.1,1.1c-0.7,0-0.6-0.7-0.5-1.1c0.2-0.9,0.5-1.8,0.7-2.7
			C38.9,95,39,95,39.1,95z"/>
		<ellipse class="st7" cx="46.5" cy="100" rx="0.1" ry="6.1"/>
		<path class="st43" d="M97.3,101.3c-0.3,0.5-0.5,1-0.8,1.5c-0.6,0.6-1.3,0.7-2,0.2c-0.7-0.7-0.9-1.5-0.9-2.4c0-2.5,0-4.9,0-7.4
			c0-1.1,0-2.1,1.3-2.5c1.4-0.4,1.9,0.6,2.4,1.7C97.7,95.4,97.7,98.4,97.3,101.3z"/>
		<path class="st10" d="M97.3,101.3c0-3,0-6,0-9c0.2-0.1,0.4-0.1,0.4,0.1c0,2.9,0,5.8,0,8.8c0,0-0.1,0.1-0.1,0.1
			C97.5,101.4,97.4,101.4,97.3,101.3z"/>
		<path class="st44" d="M92.9,100.1c0-2.3,0-4.6,0-6.9c0.1,0,0.1,0,0.2,0c0,2.3,0,4.6,0,6.9C93,100.1,93,100.1,92.9,100.1z"/>
		<path class="st10" d="M94.5,103c0.7,0.1,1.4,0.1,2-0.2C95.9,103.9,95.2,103.8,94.5,103z"/>
		<path class="st45" d="M83.3,100.9c0-2.7,0-5.4,0-8.2c0.1,0,0.1,0,0.2,0c0,2.7,0,5.5,0,8.2C83.5,100.9,83.4,100.9,83.3,100.9z"/>
		<path class="st46" d="M61,90.7c2.9,0,3.2,0.2,3.2,3.1c0,2.2,0,4.4,0,6.6c0,1-0.1,1.9-0.9,2.6c-0.8,0.5-1.6,0.5-2.4,0l0,0.1l0.1,0
			c-0.7-0.5-0.3-1.3-0.3-1.9c0-2.9,0-5.9,0-8.8C60.6,91.8,60.3,91.1,61,90.7z"/>
		<path class="st10" d="M61,90.7c0,4.1,0,8.3,0,12.4c-0.1-0.1-0.4-0.3-0.4-0.4c-0.2-3.9-0.2-7.7,0-11.6C60.5,90.9,60.8,90.8,61,90.7
			z"/>
		<path class="st44" d="M64.7,100.9c0-2.7,0-5.4,0-8.2c0.1,0,0.1,0,0.2,0c0,2.7,0,5.5,0,8.2C64.8,100.9,64.7,100.9,64.7,100.9z"/>
		<path class="st15" d="M60.8,103c0.8,0,1.6,0,2.4,0C62.5,103.8,61.6,103.8,60.8,103z"/>
		<path class="st47" d="M14.3,99.8c-0.7,0-1.4,0-2-0.5c0-0.1-0.1-0.3-0.1-0.4c0-1.4-0.6-2.7,0.3-4c0.8-0.6,1.6-0.5,2.4-0.1
			C15,96.5,15.7,98.2,14.3,99.8z"/>
		<path class="st20" d="M12.4,94.9c-0.1,1.3-0.2,2.7-0.3,4c-0.7-1.3-0.3-2.7-0.2-4.1C12.1,94.8,12.3,94.8,12.4,94.9z"/>
		<path class="st3" d="M41.8,77.7c-2.8-0.8-3.4-1.5-3.5-4.5c-0.1-5.9-0.1-11.7,0-17.6c0.1-2.9,1.3-4.2,3.8-4.1
			c2.5,0,3.7,1.4,3.7,4.4c0,5.7,0,11.5,0,17.2c0,2.9-0.8,3.8-3.4,4.6C42.2,78,42,78,41.8,77.7z"/>
		<path class="st7" d="M37.7,72.7c0-5.5,0-11,0-16.5c0.1,0,0.1,0,0.2,0c0,5.5,0,11,0,16.4C37.8,72.7,37.7,72.7,37.7,72.7z"/>
		<path class="st44" d="M46.6,56.7c0,5.2,0,10.3,0,15.5c-0.1,0-0.1,0-0.2,0c0-5.2,0-10.4,0-15.6C46.5,56.7,46.6,56.7,46.6,56.7z"/>
		<path class="st39" d="M41.8,77.7c0.2,0,0.4,0,0.6,0c0.2,0.1,0.3,0.2,0.5,0.2c-0.5,0.4-1.1,0.4-1.6,0
			C41.5,77.9,41.7,77.8,41.8,77.7z"/>
		<path class="st8" d="M68.6,55.9c0,5.7,0,11.4,0,17.2c-0.1,0-0.1,0-0.2,0c0-5.7,0-11.5,0-17.2C68.5,55.9,68.6,55.9,68.6,55.9z"/>
	</g>
</g>
</svg>
