<?xml version="1.0" encoding="utf-8"?>
<!-- Generator: Adobe Illustrator 22.0.1, SVG Export Plug-In . SVG Version: 6.00 Build 0)  -->
<svg version="1.1" id="Layer_1" xmlns="http://www.w3.org/2000/svg" xmlns:xlink="http://www.w3.org/1999/xlink" x="0px" y="0px"
	 viewBox="0 0 392.1 130.1" style="enable-background:new 0 0 392.1 130.1;" xml:space="preserve">
<style type="text/css">
	.st0{fill:#FEFEFE;}
	.st1{fill:#010101;}
	.st2{fill:#FDFDFD;}
	.st3{fill:#FCFCFC;}
	.st4{fill:#E7E7E7;}
	.st5{fill:#D0D0D0;}
	.st6{fill:#E8E8E8;}
	.st7{fill:#D1D1D1;}
	.st8{fill:#383838;}
	.st9{fill:#848484;}
	.st10{fill:#181818;}
	.st11{fill:#FBFBFB;}
	.st12{fill:#F3F3F3;}
	.st13{fill:#F2F2F2;}
</style>
<g>
	<g>
		<path class="st0" d="M282,130c-7,0-14,0-21,0c-0.4-0.4-0.7-0.9-0.9-1.4c-1.1-2.5,0.7-5.9-1.5-7.5c-1.9-1.4-4.7,0.7-7.2,0.4
			c-0.7-0.1,0.2,0-0.5,0c-10.5,0.3-13.8-4-11-14.2c0.7-2.6,2.4-3.4,4.7-3.6c3.6-0.3,7.2-0.2,10.8,0.4c0.5-1.6,0.1-3.1,0.1-4.6
			c-0.1-1.9-1.1-2.7-3-2.4c-0.3,0.1-0.7,0.1-1,0.1c-12,0.9-12.5,0.2-11.8-12.9c0.1-3,1.8-4.5,4.8-4.6c3.5-0.1,7-0.3,10.5,0.3
			c1.3,0.2,3.2,1.4,3.4-1.2c0.2-1.9,0.4-4.1-2.1-5c-0.8-0.3-1.6-0.3-2.5-0.3c-6.7-0.1-13.3,0-20,0c-2.4,0-3.4,0.3-3.1,3.4
			c1.5,14.9,0.6,29.9,0.5,44.9c0,2.7-0.9,5.3-3,7.2c-0.4,0.4-0.9,0.7-1.3,1.1c-2.7,0-5.3,0-8,0c-0.4-0.4-0.8-0.8-1.3-1.2
			c-2.6-2.5-3.1-5.8-3.1-9.2c0-14.1-0.4-28.3,0.2-42.4c0.1-1.3,0.7-2.9-1.1-3.4c-2.4-0.7-5-0.8-7.4,0c-1.7,0.6-0.7,2.3-0.6,3.5
			c1.2,14.6,0.8,29.2,0.2,43.9c-0.1,2.9-0.5,6.1-3.6,7.8c-0.5,0.3-1,0.6-1.4,1c-9.7,0-19.3,0-29,0c-1.5-2.1,0.1-3.8,0.8-5.6
			c7.2-17,14.5-33.9,22.9-50.8c-3.1-0.7-5.9-0.2-8.7-0.4c-1.7-0.1-2.1,1-2.4,2.5c-2.3,10-7.2,19-10.8,28.4c-0.5,1.2-0.9,2.8-2.5,2.8
			c-1.5,0-2.2-1.4-2.7-2.6c-3.4-8.7-8-17-10.4-25.9c-1.2-4.5-3.3-5.5-7.3-5.2c-1.6,0.2-3.3-0.1-5.4,0.3
			c6.2,11.4,10.6,23.4,16.1,34.9c2.4,5,4.5,10,6.9,15c1,2,2.4,4.1,1.5,6.6c-10,0-20,0-30,0c-0.4-0.4-0.7-0.9-0.9-1.4
			c-1.1-2.5,0.7-6-1.4-7.6c-2.1-1.5-5.1,0.7-7.7,0.4c-0.7-0.1,0.2,0-0.5,0c-10.1,0.2-13.7-4.9-10.5-14.6c0.7-2.1,2.1-2.9,4-3.1
			c2.5-0.3,5-0.4,7.5,0c3.5,0.6,4.4-1,4.2-4.2c-0.1-2.2-0.7-3.1-3-2.6c-2.8,0.6-5.6,0.5-8.5,0.3c-2.7-0.2-4.2-1.7-4.5-4.4
			c-0.1-0.7,0,0.2,0-0.5c-0.3-12.9-1.1-13.4,14.1-12.6c1.6,0.1,4.1,2.7,4.6-1.1c0.4-3.1-0.6-5.2-4.2-5.2c-7,0-14,0.1-21,0
			c-3.5-0.1-3,1.9-2.7,4.3c1.8,13.9,0.9,27.9,0.6,41.9c-0.1,3.2-0.5,6.7-3,9.3c-0.4,0.4-0.7,0.8-1.1,1.2c-0.7,0-1.3,0-2,0
			c-0.4-0.4-0.8-0.7-1.2-1c-7.8-5.8-12.3-14.3-17.7-22.1c-1.7-2.4,0.4-4,2.1-5.3c3.2-2.4,5.4-5.4,6.1-9.4
			c1.8-9.8-3.9-17.6-13.9-18.6c-5.1-0.6-10.3-0.1-15.5-0.2c-2.1-0.1-2.2,0.8-2.1,2.7c1,15.5,0.4,31,0.4,46.5c0,2.6-0.6,5-3,6.5
			c-0.5,0.3-0.9,0.6-1.3,1c-18,0-36-0.1-54,0.1c-2.5,0-3.1-0.6-3.1-3.1C1,104.3,1,81.7,1,59c4.7-2.6,9.7-1.1,14.7-1.1
			c-2-1.9-2.1-4.6-2.1-7.3c-0.1-6.8,0-13.6,0-20.5c0-1.9-1.1-4.5,1.2-5.4c2.1-0.8,3.4,1.5,4.8,2.9c8.8,9.3,17.8,18.5,27.2,27.1
			c0.8,0.8,1.5,1.8,2.9,1.9c1.5-1.5,0.9-3.4,0.9-5.2c0.1-13.5,0-26.9,0-40.4c0-3.4,0.1-6.7,3.1-9C54.2,1.7,54.6,1.4,55,1
			c9.3,0,18.7,0,28,0c0.8,1.5,0.2,3-0.4,4.3c-7,15.8-13.1,32-20.7,47.6c-0.8,1.6-1.6,3.3-3,4.7c1.9,0.2,3.5-0.1,5.2,0.1
			c3.9,0.5,6.5-0.2,7-5c0.4-4,3.4-6.3,7.8-6c2.6,0.2,5.3,0,8,0c6.2,0.1,8,1.2,8.6,7.2c0.3,3.6,1.8,4.1,4.6,3.8
			c2.3-0.2,4.6,0.3,7.5-0.4c-4.7-9.1-8.4-18.4-12.4-27.7c-3.5-8.1-6.5-16.4-10.1-24.4C84.6,3.9,83.8,2.5,85,1c6.7,0,13.3,0,20,0
			c0.4,0.4,0.7,0.9,0.9,1.4c1.1,2.6-0.8,6.4,1.4,8c1.8,1.3,4.9-0.9,7.6-0.9c7.3,0,8.6,0.9,8.5,8.2c-0.1,12.5,0.7,24.9-0.5,37.4
			c-0.2,1.8,0.3,2.5,2,2.5c2.8,0,5.6,0,8.5,0.1c-1.7-10.2-0.6-20.1-0.9-30.1c-0.1-4-0.2-8,0.1-12c0.2-4.7,1.3-5.7,6.1-6
			c2.2-0.1,4.4-0.4,6.4,0.5c3.7,1.6,4.8,0.3,4.4-3.3c-0.1-1.1,0-2.3,0.2-3.5c0.2-0.9,0.7-1.6,1.2-2.3c1.7,0,3.3,0,5,0
			c0.8,1.1,2,1.9,2.8,2.9c1.9,2.5,2.2,5.6,2.3,8.5c0.6,12.1,0.6,24.2,0,36.4c-0.1,2.8-0.8,5.6-1.6,8c0.3,0.6,0.6,0.8,0.9,0.8
			c3-0.2,6.6,1.1,8.7-0.6c2.3-1.9,0.2-5.6,0.2-8.4c0.2-12.5,0.1-24.9,0.1-37.4c0-3.4,0.1-6.7,3.2-9c0.5-0.3,0.9-0.7,1.3-1.1
			c10.3,0,20.7,0,31,0c0.3,0.5,0.3,0.9-0.1,1.4c-1.3,1.1-3,1.4-4.6,1.9c-12.8,4-20.1,15.7-19,30.4c0.9,11.5,11.3,22.2,23.4,23.8
			c12.6,1.6,23-2.2,30-13.3c5.9-9.3,5.1-22.5-1.7-32c-3.2-4.5-7.5-7.4-12.8-9c-1.7-0.5-4.1-0.4-4.4-3.1c9.7,0,19.3,0,29,0
			c0.4,0.4,0.8,0.7,1.3,1c2.5,1.2,2.8,3.5,3.1,5.9c1.7,16.6,1.6,33.1-0.6,49.7c3.1,0.1,6.3,0,9.6,0c-1.5-9.4-0.6-18.7-0.8-27.9
			c0-1.6-0.2-3.7,1.5-4.5c2-0.9,3.4,1,4.5,2.3c8.1,9.6,18.1,17.2,26.2,26.7c0.9,1.1,2,2.8,3.6,2.3c1.8-0.6,1.1-2.6,1.1-4
			c0.1-13.8,0-27.6,0-41.5c0-3.4,0.1-6.7,3.2-9c0.4-0.3,0.9-0.7,1.2-1.1c9.3,0,18.7,0,28,0c1.3,1.7,0.2,3.2-0.4,4.7
			c-7.3,17.1-14.3,34.4-22.4,51.4c2,1.1,4,0.4,5.9,0.6c3.1,0.4,4.7-0.3,5.2-4c0.7-5.7,2.5-6.9,8.4-7c1.8,0,3.7,0,5.5,0
			c8.9,0,10.6,1.7,10.8,10.9c3.1,0.3,6.3,0,9.4,0.1c0.7,0,1.3,0,2.1-0.7c-6.9-14.8-13-30.1-19.4-45.2c-1.4-3.4-4-6.6-3-10.8
			c9.7,0,19.3,0,29,0c0.4,0.4,0.9,0.8,1.3,1.2c2.2,1.9,3.1,4.4,3,7.1c-0.1,15.3,1.1,30.6-0.7,45.8c-0.4,3.1,1.4,2.4,2.9,2.4
			c6.5,0,13,0,19.4,0c2.2,0,4.3-0.2,6.4,0.5c0.5,0.3,1,0.6,1.5,1c0,22.7,0,45.3,0.1,68c0,2.5-0.6,3.1-3.1,3.1c-23-0.1-46-0.1-69-0.1
			c-1.6-1.8-0.9-3.8-0.3-5.7c4.7-15.8,9.1-31.7,14.6-47.2c1.1-3.2,0.2-3.9-2.7-3.8c-1.3,0.1-2.7,0-4,0c-1.8-0.1-2.6,0.3-2.6,2.5
			c-0.1,9-4.2,17.1-6.2,25.6c-0.3,1.1-0.9,2.5-2.1,2.5c-1.9,0.1-2.3-1.7-2.9-3c-3-7.6-6.5-15-10.2-22.2c-0.5-1.1-0.7-2.9-2.5-2.7
			c-1.3,0.2-1.4,1.7-1.9,2.7c-3.2,6.9-6.7,13.8-9.7,20.8c-0.7,1.6-1.5,3.8-3.6,3.6c-2.3-0.2-2.4-2.5-2.8-4.2
			c-1.9-7.9-5.3-15.5-5.5-23.8c0-1.7-0.8-2-2.1-2c-3,0-5.9-0.2-9.4,0.2c5.3,13.9,8.7,28,13.1,41.7c1.1,3.3,2,6.7,3,10.1
			C282.7,126.9,283.3,128.5,282,130z"/>
		<path d="M282,130c-5.5-19.3-10.5-38.9-18-57.7c5,0,10.8,0,17.4,0c-2.6,1.6-3.5,3.4-2.7,5.9c2.4,8.2,4.5,16.5,7,25.4
			c2.6-2.7,3.1-5.7,4.4-8.2c3.2-6.7,6.4-13.5,9.6-20.2c0.4-0.9,0.7-2,1.9-2c1.3,0,1.4,1.3,1.8,2.1c4.7,9.3,9.2,18.7,13.1,28.7
			c6.3-15.3,8.5-27.7,5.4-32c4.4,0,8.5,0.1,12.6,0c3-0.1,2.9,0.6,1.9,3.4c-6.3,18-12,36.2-16.4,54.7c-1,0-2,0-3,0
			c-3.8-5.7-6.3-12-9.2-18.1c-2.2-4.7-4-9.7-6.7-14.6c-4.9,9.3-8.6,18.7-13.2,27.7c-1,1.9-1.8,3.9-3.9,5
			C283.3,130,282.7,130,282,130z"/>
		<path d="M216,1c3.6,1.5,7.4,2.7,10.7,4.6c10.4,6.1,15.4,18.4,12.9,30.6c-2.6,12.9-12,21.8-25,23.7c-16.7,2.5-32.3-8.4-34.5-24.2
			c-2.4-16.9,8.2-31.3,24.9-33.7c3.3-1.2,6.8,0.4,10.1-0.9C215.3,1,215.7,1,216,1z"/>
		<path class="st1" d="M54.8,2.3c-3.2,2.2-3.1,5.6-3.1,8.9c0,14.8,0,29.6,0,44.4c0,1.4,0.9,3.4-0.8,4.1c-1.6,0.7-2.5-1.2-3.5-2.2
			C36.6,46.8,25.8,36.1,14.5,25c0.9,11.6-1.6,22.9,2.3,34C11.8,59,6.4,59,1,59c0-0.3,0-0.7,0-1c1.5-1.8,1.5-4,1.5-6.1
			c0-14.4,0-28.9,0-43.3c0-2,0.2-4-1.5-5.6c0-0.3,0-0.7,0-1c2.4-1,4.8-0.3,7.2-0.5c2.6,0,4.2,1.7,5.7,3.5
			c7.6,9.7,16.1,18.6,24.7,27.4c0.4,0.4,0.8,1.1,2,0.9c0.2-9.7,0.1-19.4-2.3-28.9c-0.3-1.1-1.6-2.6,0.9-2.9
			C44.4,2,49.7,0.5,54.8,2.3z"/>
		<path d="M58.1,128.8c1.8-1.5,2.9-3.4,2.9-5.9c0-14.8,0-29.6,0-44.4c0-2.3-0.5-4.5-4-6.5c8.4,0,15.1-0.3,21.9,0.1
			c8.2,0.5,13.9,5,15.8,11.6c2.2,7.7-0.3,14.4-7.3,19.5c-1.4,1-2.9,1.4-1.1,3.6c5.9,7.3,10.5,15.7,17.7,22
			c-4.5,1.8-9.4-0.4-13.9,1.2c-0.3,0-0.7,0-1,0c-4.6-3.8-6.7-9.5-10.2-14c-1.5-2-2.5-4.3-5.4-6.9c0.1,6.4-0.9,11.7,0.9,17.2
			c0.3,1.1,2.6,2.7-0.5,3.3C68.5,129.1,63.3,130.2,58.1,128.8z"/>
		<path d="M329,1c8.4,19.2,15.4,39.2,25.2,57.9c-5,0-10.6,0-16.2,0c2.5-6.4-0.6-11.1-7.3-11.1c-2.3,0-4.7,0-7,0
			c-6.3,0-9.4,5-6.7,11.3c-5.3,0-10.6,0-15.6,0C311.3,40.3,318.7,20.4,327,1C327.7,1,328.3,1,329,1z"/>
		<path d="M85,1c8.3,19.4,15.2,39.4,25.3,58.1c-5.2,0-10.8,0-16.4,0c2.2-6.5-0.9-11.2-7.3-11.3c-2.7,0-5.3,0-8,0
			c-5.4,0-8.6,6-5.6,11.1c-5.5,0-10.8,0-15.7,0C67.2,40.3,74.4,20.3,83,1C83.7,1,84.3,1,85,1z"/>
		<path d="M170,130c-9.3-19.1-16.4-39.4-27.4-58.1c4.7,0,9.6,0,14.5,0c1.4,0,2.4,0.3,1.8,2c-0.8,2.1,0,4,0.8,5.7
			c3.7,9,7.5,18,11.9,28.4c2.9-13,11.3-22.9,11.8-35.9c4.4,0,9.8,0,14.9,0c-10,18.6-17.7,38.4-26.2,57.9
			C171.3,130,170.7,130,170,130z"/>
		<path class="st2" d="M376,1c4.5,0,9,0.1,13.5-0.1c2.2-0.1,2.6,0.4,2.6,2.6C391.9,18,392,32.5,392,47c-3.2,4.4-15.3,6.4-19.3,3.2
			c-1.7-1.4-2.1-3.4-2.1-5.4c-0.1-10.9-0.2-21.9,0.1-32.8c0.1-2.8,0.7-5.6,2.4-8C373.9,3,375.1,2.1,376,1z"/>
		<path class="st1" d="M374.7,3.9c-2.9,1.9-2.3,5-2.3,7.7c-0.2,11.7,0,23.3-0.1,35c0,2.6,0.7,3.6,3.4,3.5c5.6-0.3,11.5,1.2,16.4-3
			c0,1.3,0,2.7,0,4c-1.4,2.6,0.3,5.5-1,8.1c-10.9,0-21.7,0-33.2,0c4.5-3.8,3.2-8.6,3.3-12.8c0.2-12.4-0.2-24.9-0.1-37.3
			c0-3-1.9-4.7-3-6.9c5.1-1.1,10.2-0.3,15.3-0.5C374.7,1.5,376.1,2,374.7,3.9z"/>
		<path class="st2" d="M253,1c9.7,0,19.3,0,29,0c0.4,0.4,0.7,0.7,1.2,1c3.2,2.5,3.9,6.2,4,9.9c0.3,7,0.1,14,0.1,21
			c0,1.5,0.2,3.3-1.4,4c-1.8,0.8-3.1-0.9-4.2-2c-10.4-10.1-20.1-20.8-28.8-32.4C252.6,2,252.6,1.5,253,1z"/>
		<path class="st2" d="M38.1,2.2C39,3.8,40.9,4.5,41,6.6c0.7,10,0.8,20,0.7,30.9C29.7,25.8,19.5,13.7,9.1,1.9
			C8.7,1.7,8.6,1.5,8.7,1.3C8.8,1.1,8.9,1,9,1c9.7,0,19.3,0,29,0C38.5,1.4,38.6,1.8,38.1,2.2z"/>
		<path class="st0" d="M284,130c5.6-11.8,11.3-23.6,17.3-36.1c5.4,12.3,10.5,24.2,15.7,36.1C306,130,295,130,284,130z"/>
		<path class="st3" d="M74.8,128.7c-1.8-1.4-2.8-3.2-2.8-5.5c0-4.5-0.1-8.9-0.1-13.4c0-0.9-0.4-2.1,0.9-2.5c1.1-0.4,1.9,0.3,2.4,1.2
			c4.4,7.3,10,13.8,13.8,21.6c-4.7,0-9.3,0-14,0C74.5,129.6,74.4,129.2,74.8,128.7z"/>
		<path class="st2" d="M1,3c2.9,0.1,3,2.3,3.1,4.3c0.5,15.4,0.5,30.9,0,46.3c-0.1,2-0.4,4.1-3,4.4C1,39.7,1,21.3,1,3z"/>
		<path class="st4" d="M151,1c0,0.7-0.1,1.5-0.1,2.2c-11.5,0.9-23.1,0.2-34.6,0.3c-3.7,0-7.6,0.9-11.1-1.2c-0.1-0.4-0.1-0.9-0.2-1.3
			C120.3,1,135.7,1,151,1z"/>
		<path class="st5" d="M227,130c0-0.3,0-0.7,0-1c1.5-0.8,3-1.5,4.7-1.5c8.5-0.1,16.9-0.2,25.4,0c1.3,0,2.6,0.3,3.7,1.2
			c0.1,0.4,0.1,0.9,0.2,1.3C249.7,130,238.3,130,227,130z"/>
		<path class="st5" d="M139.8,128.7c0.1,0.4,0.2,0.9,0.2,1.3c-11.3,0-22.7,0-34,0c-0.1-0.3-0.1-0.5,0-0.8c0.4-0.3,0.7-0.8,1.2-0.8
			C118.1,127,128.9,126.5,139.8,128.7z"/>
		<path class="st4" d="M157.2,3.9C155.5,3.5,156,2.1,156,1c6,0,12,0,18,0c0,0.4-0.1,0.8-0.1,1.2C168.5,4.7,162.7,2.6,157.2,3.9z"/>
		<path class="st4" d="M374.7,3.9c0.9-2.4-0.9-1.8-2.1-1.8c-4.9,0-9.7,0-14.6,0c0-0.3,0-0.7,0-1c6,0,12,0,18,0
			C376,2.1,376.4,3.5,374.7,3.9z"/>
		<path class="st5" d="M219,129c0,0.3,0,0.7,0,1c-6,0-12,0-18,0c0.1-0.4,0.1-0.9,0.2-1.3C207.2,127.3,213.1,126.3,219,129z"/>
		<path class="st6" d="M282.1,2.2c0-0.4-0.1-0.8-0.1-1.2c5.7,0,11.3,0,17,0c-0.1,0.4-0.1,0.9-0.2,1.3C293.2,4.1,287.7,4.2,282.1,2.2
			z"/>
		<path class="st6" d="M38.1,2.2C38.1,1.8,38,1.4,38,1c5.7,0,11.3,0,17,0c-0.1,0.4-0.1,0.9-0.2,1.3C49.3,1.8,43.7,1.9,38.1,2.2z"/>
		<path class="st7" d="M74.8,128.7c0.1,0.4,0.1,0.9,0.2,1.3c-5.7,0-11.3,0-17,0c0-0.4,0.1-0.8,0.1-1.2
			C63.7,128.8,69.2,128.7,74.8,128.7z"/>
		<path class="st7" d="M90,130c4.5-2.3,9.3-0.2,13.9-1.2c0,0.4,0.1,0.8,0.1,1.2C99.3,130,94.7,130,90,130z"/>
		<path class="st8" d="M215,1c-3.2,2.1-6.7,0.6-10.1,0.9c0.2-0.3,0.3-0.6,0.1-0.9C208.3,1,211.7,1,215,1z"/>
		<path class="st9" d="M253,1c0.2,0.2,0.3,0.5,0.1,0.8c-2.5,2.7-5.2,1-7.9,0.4c-0.1-0.4-0.2-0.8-0.3-1.2C247.7,1,250.3,1,253,1z"/>
		<path class="st9" d="M9,1c0.1,0.3,0.2,0.6,0.1,0.9C6.4,1.9,3.7,2,1,2C3.4-0.1,6.4,1.5,9,1z"/>
		<path class="st10" d="M391,59.1c0.5-2.7-1-5.6,1-8.1c0,2.7,0,5.3,0,8C391.7,59,391.3,59,391,59.1z"/>
		<path d="M245.3,2.2c2.6-0.1,5.3-0.3,7.9-0.4c10.5,11.9,20.7,23.9,32.2,35.3c0-9.8,0-19.2,0-28.5c0-2.8-1.3-4.6-3.2-6.3
			c5.6-0.3,11.1-0.5,16.7,0.1c-3.2,2.5-2.9,6.1-2.9,9.6c0,14.7,0,29.3,0,44c0,1.2,0.8,3-0.6,3.7c-1.7,0.9-2.6-1-3.6-1.9
			c-10.9-10.5-21.8-21-32.8-31.8c0.9,10.7-1.9,22.1,2,33.2c-4.6,0-9.8,0-15.9,0c4.8-3.6,3.4-8.6,3.5-12.8
			c0.3-12.8,0.6-25.6-0.2-38.5C248.1,5.4,247.5,3.5,245.3,2.2z"/>
		<path d="M139.8,128.7c-11.3,0.2-22.5,0.4-33.8,0.5c3.9-6.1,2.8-13,2.8-19.6c0-10.3-0.2-20.6-0.3-30.9c0-2.3-0.3-4.6-3.4-6.7
			c11.4,0,21.5,0,31.5,0c2,0,2.5,0.9,2.5,2.7c-0.1,3.1,0,6.2,0,10.3c-5.7-5.9-11.9-3.2-17.5-3.8c-1-0.1-1.5,0.6-1.5,1.6
			c0,3.8,0,7.7,0,11.5c0,1.7,1.3,1.7,2.5,1.6c4.5-0.2,9.2,0.9,13.7-1.9c0,4.3,0,8.2,0,12.3c-4.7-2.3-9.5-1.2-14.2-1.5
			c-1.4-0.1-2.1,0.5-2.1,2c0.1,3.5,0.1,7,0,10.5c-0.1,2.4,1.4,2.8,3.2,2.6c5-0.6,10.3,1.6,15-1.9c1.5-1.1,1.8,0.5,1.8,1.7
			C139.9,122.7,139.8,125.7,139.8,128.7z"/>
		<path d="M260.8,128.7c-11.3,0.1-22.5,0.2-33.8,0.3c2-2.3,2.7-5,2.7-8.1c-0.1-13.6,0-27.3,0-40.9c0-2.8,0.1-5.6-3.7-8.1
			c11.5,0,21.6,0,31.7,0c2.1,0,2.5,0.9,2.5,2.7c-0.1,3.1,0,6.2,0,10.1c-5.7-5.5-11.9-3.1-17.6-3.6c-1-0.1-1.4,0.7-1.4,1.6
			c0,3.8,0,7.7,0,11.5c0,1.3,0.9,1.6,2,1.6c4.6-0.3,9.3,1.1,13.9-1.9c0,4.2,0,8.1,0,12.1c-4.5-1.9-9.3-1-13.9-1.2
			c-1.4-0.1-2.2,0.4-2.1,2c0,0.5-0.1,1,0,1.5c0.5,3.8-1.9,10.1,1.3,11c5.6,1.5,12.4,2.5,18.5-2.3C260.8,121,260.8,124.9,260.8,128.7
			z"/>
		<path class="st1" d="M105.2,2.3c14.6-0.1,29.1-0.2,43.7-0.3c0.9,0,1.6,0.4,2,1.2c0,3.8,0,7.6,0,11.4c-4.3-5.5-9.9-2.9-14.8-3.5
			c-2.3-0.3-2.3,1.2-2.3,2.8c0.1,13,0.1,26,0.2,39c0,2.4,0.6,4.5,2.7,6.2c-5.7,0-11.4,0-17.8,0c3.5-2.7,3.3-6.2,3.3-9.7
			c0.1-11.7,0-23.3,0.2-35c0-2.6-0.8-3.6-3.4-3.3c-4.5,0.6-9.9-1.9-13.8,3.7C105.2,10.6,105.2,6.5,105.2,2.3z"/>
		<path class="st1" d="M157.2,3.9c-0.9-2.3,0.9-1.9,2.1-1.9c4.9,0,9.8,0.1,14.7,0.2c-2.2,2.4-2.9,5.3-3,8.6
			c-0.3,13.5-0.4,26.9,0.1,40.4c0.1,2.7-0.3,5.8,2.8,7.8c-5.8,0-11.5,0-18.7,0c4.5-2,4-5.3,4.1-8.1c0.6-14.4,0.8-28.9-0.2-43.3
			C159,6.1,159.2,4.4,157.2,3.9z"/>
		<path d="M219,129c-5.9-0.1-11.9-0.2-17.8-0.3c2.7-1.7,3.4-4.3,3.4-7.3c0-14.1,0-28.3,0-42.4c0-2.6-1-4.7-2.9-7c5.8,0,10.8,0,16,0
			c-3.1,9.2-1.3,18.6-1.7,27.9c-0.2,6.5,0,13-0.1,19.5C215.9,123,216.7,126.2,219,129z"/>
		<path class="st0" d="M191.8,30.9c0-11.3,7.5-19.6,18.1-19.8c10.1-0.2,18.3,8.5,18.3,19.6c0,11.3-7.6,19.6-18.1,19.6
			C199.5,50.4,191.9,42.3,191.8,30.9z"/>
		<path class="st11" d="M71.9,90c0-1.3,0-2.7,0-4c0-5.1,1.2-6,6.1-4.7c4.4,1.2,6.8,5.5,5.7,10.2c-1,4.3-6,7.9-10.1,7.4
			c-1.6-0.2-1.8-1.1-1.8-2.4C71.9,94.3,71.9,92.1,71.9,90z"/>
		<path class="st12" d="M327.6,23.7c1.9,5.3,3.6,10.1,5.3,14.9c-11.5,1.2-11.5,1.2-7.8-8.9C325.8,27.9,326.6,26.1,327.6,23.7z"/>
		<path class="st13" d="M88.9,38.7c-11.5,0.7-11.5,0.7-7.8-9.3c0.6-1.7,1.4-3.3,2.3-5.8C85.4,29.1,87.1,33.7,88.9,38.7z"/>
	</g>
</g>
</svg>
