<svg id="Layer_1" data-name="Layer 1" xmlns="http://www.w3.org/2000/svg" viewBox="0 0 1201 628"><defs><style>.cls-1{fill:#fff;}</style></defs><title>intercept</title><path d="M107.88,699V71h1201V699ZM295.71,251.18V340c0,12.52.07,12.71-11.51,16.87-4.23,1.52-5.43,3.73-4,8H347.8c1.53-4.31.41-6.95-3.93-8.1-1.76-.47-3.34-1.56-5.08-2.06-3.76-1.08-4.88-3.25-4.85-7.26.2-30.16.11-60.33.11-90.49v-5.41h30.66v5.83c0,29.66.07,59.32,0,89,0,10.08,1.79,7.35-7.57,11.19-3.71,1.52-5.48,3.25-3.86,7.28H407.5c1.3-4.11-.19-6.29-4-7.16-.8-.18-1.52-.74-2.32-.91-4.21-.94-5.56-3.28-5.46-7.76.35-15.16.13-30.33.13-45.49V291.31c20.2-5.41,30,2,30.15,22.34.07,10.83,0,21.67,0,32.5,0,8.46.06,8.64-7.77,11.59-3.59,1.35-5.28,3.08-3.69,7.11h56.19l1.14-1.17c-1.34-1.77-2.3-4.4-4.08-5.18-10.39-4.56-10.46-4.42-10.46-15.63,0-3.16,0-6.33,0-9.49-.15-12.49.19-25-.6-37.47-1-16.08-10.53-24.61-26.56-23.9-5.66.25-11.36,2.2-16.81,4.05-5.76,2-11.24,4.74-17.56,7.46V226.8a58.89,58.89,0,0,0-7.22,1.52c-7.52,2.66-14.9,5.78-22.5,8.18a47,47,0,0,1-13.55,2.39c-30.83.21-61.66.11-92.49.11h-5.64v31.83c4,0,7.7-.14,11.33.05,2.61.15,3.9-.76,4.58-3.33,1.2-4.49,2.6-8.95,4.23-13.3.47-1.24,2-2.87,3.12-2.93C283.49,251,289.28,251.18,295.71,251.18ZM941,412.81a16.21,16.21,0,0,0-3.59-.25c-13.07,2.5-26.13,5-39.15,7.73-.92.19-2.15,2.12-2.06,3.14a6.05,6.05,0,0,0,2.15,4.22,17.44,17.44,0,0,0,6.61,2.1c4,.55,4.86,2.62,4.83,6.43-.16,28.33-.09,56.65-.09,85,0,10.19.07,10.39-9.57,13.62-3.92,1.31-4.86,3.27-3.59,7h60.84c1.46-4,.22-6-3.78-6.82a53.66,53.66,0,0,1-9.54-2.84c-1.23-.49-2.83-2-2.88-3.15-.27-6.61-.13-13.23-.13-20.13,5.61-.29,10.75-.32,15.84-.85,41.05-4.26,55.28-37.51,48.91-67.5-3.82-18-22.34-35.07-46.23-24.84-4.58,2-9.09,4.09-13.65,6.1-1.4.61-2.87,1.08-4.92,1.84Zm-543.33,0a17.17,17.17,0,0,0-3.74-.28c-13.07,2.49-26.13,5-39.15,7.71-.88.19-1.94,2.15-1.93,3.28a5.43,5.43,0,0,0,1.74,4,14.71,14.71,0,0,0,5.67,1.76c4.47.73,6,2.84,5.93,7.69-.4,16.31-.15,32.64-.15,49,0,9.38.06,9.58-8.92,12.58-3.93,1.32-5.44,3.15-3.94,7.08h56.09c1.51-4.36-.66-5.92-4.06-7.25-7.56-2.94-7.5-3.09-7.5-11.27V440.65c0-10.11,0-10.11,10.43-10.15,10.12,0,16.08,3.95,18.35,12.72a41.89,41.89,0,0,1,1.16,9.87c.14,11.16,0,22.32,0,33.48,0,8.77.09,9-8,12-3.88,1.42-4.72,3.52-3.57,7.16h56.16c1.34-4.17-.2-6.26-4-7-1.29-.26-2.47-1.11-3.76-1.32-4.45-.72-5.63-3.2-5.57-7.62.21-16.82.38-33.65-.18-50.45-.65-19.75-13.35-29.68-32.73-26.14a57.86,57.86,0,0,0-10.86,3.6c-5.67,2.26-11.25,4.77-17.49,7.44Zm-48.51,93c2.25-5.11-.06-7.21-4.26-8.35-2.23-.6-4.3-1.87-6.55-2.39-3.65-.83-4.4-3-4.39-6.47.14-28,.08-56,.08-84,0-12.27-.08-12.5,11.32-16.47,4.6-1.6,5.4-4,4-7.94H280.1c-1.27,4.5,0,7,4.41,8,2.25.48,4.3,1.87,6.54,2.4,3.71.88,4.79,2.88,4.76,6.71-.18,28-.1,56-.1,84,0,12.05.07,12.25-11.09,16.18-4.52,1.59-6.1,3.81-4.27,8.36Zm282.38-50.95a40.1,40.1,0,0,0-9.19-28.94c-14-16.39-43.82-18.22-62.33-3.69-14.91,11.7-19,27.84-18.32,45.84.65,17.84,11.27,32.33,28.27,37.81,21.62,7,40.8-.68,59.79-10.26-.8-2-1.52-3.81-2.21-5.55-32.19,7-57.73-9.38-54.53-35.21Zm264,0c2.44-16.87-8.64-34.45-25-39.88-25.64-8.52-62.74,3.22-64.54,45.84-1,24.13,10.71,41,31.33,46.05s38.83-2.06,56.85-11.35L891.76,490c-31.22,7.76-59-10.25-54.28-35.14ZM560.82,314c2.38-15.76-7.94-33.27-23.23-39.05-14.29-5.41-28.61-4.59-42,2.77-19.85,10.93-25.76,29.35-24.25,50.41,1.59,22.15,15.44,35.92,37.19,39.11C527,370,543,362.81,559.29,355c-.76-2.13-1.4-3.92-2-5.65-38.81,9.24-55.86-14.59-55-35.34Zm490.94,113.74,27.68,1.24V414.9h-28V397.67c-3.21.24-6.27-.37-8.38.77q-16.89,9.17-33.29,19.22c-1.32.81-1.54,4.06-1.46,6.15,0,.75,2.39,1.72,3.81,2,2.52.53,5.12.62,7.92.92,0,21.28,0,41.93,0,62.58,0,11.41,5.48,17.59,17,18.77,15.16,1.55,29.14-3.29,43.37-8-.35-2.15-.63-3.9-.95-6-4.51,0-8.83.35-13.07-.07-9.11-.91-14.38-6.33-14.52-15.41C1051.58,462,1051.76,445.34,1051.76,427.74Zm-358.33,78c1.39-4,.19-6.17-3.85-6.91-2.27-.41-4.4-1.55-6.67-2-3.34-.71-4.33-2.44-4.29-5.91.21-16.83.09-33.66.11-50.49,0-2.72-.86-5.93,3.44-6.37,3.94-.41,8.34-3.72,11.12,2.34.86,1.88,2.86,4.4,4.52,4.55,6.21.54,12.5.21,19.07.21,0-8-.2-15.3.09-22.6.14-3.45-1.38-4.7-4.33-5.42-8.52-2.05-15.73,1-22.51,5.66-3.62,2.51-7.12,5.2-11.54,8.44V412.87c-1.7-.15-2.89-.51-4-.3-12.91,2.47-25.82,5-38.68,7.67-.92.2-2.13,2.13-2,3.16.11,1.51.91,3.75,2,4.25,3.45,1.53,7.21,2.37,11.12,3.57v54.66c0,9.48.05,9.65-8.84,12.66-3.82,1.29-5.57,3.06-4,7.21ZM540.61,494.1c-3,.15-5.63.39-8.27.37-13.69-.09-19.44-5.88-19.46-19.51q0-16,0-32V427.73L540.47,429V414.79H512.79V397.37c-3.61.58-7,.32-9.58,1.69-10.55,5.67-20.85,11.79-31.16,17.87a5.82,5.82,0,0,0-2.54,3.26c-1,4.32,1,6.14,5.33,5.83s6.83.61,6.7,6.25c-.42,19.3-.21,38.63-.13,57.94,0,9.86,4.69,15.92,14.29,17.5,16.15,2.67,31.05-2.68,46.1-7.69C541.36,497.83,541,496.21,540.61,494.1Zm261-3.2c-7.53.41-14.15,1.3-20.72,1-14.64-.62-26-9.24-29.38-23.45a71.91,71.91,0,0,1-1.34-23.64c.94-9.12,5.69-16.7,14.93-20.24,5.12-2,7.55-.93,10.07,3.81,1.79,3.38,3.48,6.82,5.45,10.09.68,1.12,2.05,2.49,3.16,2.54,5.59.26,11.2.12,17.24.12v-8c0-16.7,0-16.88-16.45-19.68-34.74-5.89-69.7,14.2-65.8,57.52,1.73,19.13,14.54,33.9,32.94,36.88,18.83,3.05,35.14-4.39,51.65-12.2C802.63,493.61,802,491.93,801.64,490.9ZM1155.7,513h-75v13.5h75Z" transform="translate(-107.88 -71)"/><path class="cls-1" d="M295.71,251.18c-6.43,0-12.22-.15-18,.14-1.12.06-2.65,1.69-3.12,2.93-1.63,4.35-3,8.81-4.23,13.3-.68,2.57-2,3.48-4.58,3.33-3.63-.19-7.29-.05-11.33-.05V239h5.64c30.83,0,61.66.1,92.49-.11a47,47,0,0,0,13.55-2.39c7.6-2.4,15-5.52,22.5-8.18a58.89,58.89,0,0,1,7.22-1.52v56.72c6.32-2.72,11.8-5.5,17.56-7.46,5.45-1.85,11.15-3.8,16.81-4.05,16-.71,25.54,7.82,26.56,23.9.79,12.45.45,25,.6,37.47,0,3.16,0,6.33,0,9.49,0,11.21.07,11.07,10.46,15.63,1.78.78,2.74,3.41,4.08,5.18l-1.14,1.17H414.59c-1.59-4,.1-5.76,3.69-7.11,7.83-2.95,7.77-3.13,7.77-11.59,0-10.83.05-21.67,0-32.5-.13-20.32-9.95-27.75-30.15-22.34v12.23c0,15.16.22,30.33-.13,45.49-.1,4.48,1.25,6.82,5.46,7.76.8.17,1.52.73,2.32.91,3.78.87,5.27,3.05,4,7.16H353.25c-1.62-4,.15-5.76,3.86-7.28,9.36-3.84,7.53-1.11,7.57-11.19.1-29.67,0-59.33,0-89v-5.83H334.05V257c0,30.16.09,60.33-.11,90.49,0,4,1.09,6.18,4.85,7.26,1.74.5,3.32,1.59,5.08,2.06,4.34,1.15,5.46,3.79,3.93,8.1H280.23c-1.46-4.29-.26-6.5,4-8,11.58-4.16,11.51-4.35,11.51-16.87V251.18Z" transform="translate(-107.88 -71)"/><path class="cls-1" d="M941,412.81v10.77c2-.76,3.52-1.23,4.92-1.84,4.56-2,9.07-4.14,13.65-6.1,23.89-10.23,42.41,6.89,46.23,24.84,6.37,30-7.86,63.24-48.91,67.5-5.09.53-10.23.56-15.84.85,0,6.9-.14,13.52.13,20.13,0,1.12,1.65,2.66,2.88,3.15a53.66,53.66,0,0,0,9.54,2.84c4,.8,5.24,2.83,3.78,6.82H896.55c-1.27-3.73-.33-5.69,3.59-7,9.64-3.23,9.57-3.43,9.57-13.62,0-28.32-.07-56.64.09-85,0-3.81-.86-5.88-4.83-6.43a17.44,17.44,0,0,1-6.61-2.1,6.05,6.05,0,0,1-2.15-4.22c-.09-1,1.14-2.95,2.06-3.14,13-2.72,26.08-5.23,39.15-7.73A16.21,16.21,0,0,1,941,412.81Zm7.36,17.69c-1.92,1.45-7.34-2.31-7.33,4.31,0,19.66,0,39.32.14,59,0,1.39,1.7,3.72,3,4,8.26,1.79,16.1.55,22.19-5.73,12.25-12.63,12.17-27.85,7.75-43.39C970.59,436.4,961.89,430.54,948.37,430.5Z" transform="translate(-107.88 -71)"/><path class="cls-1" d="M397.68,412.84v11.33c6.24-2.67,11.82-5.18,17.49-7.44a57.86,57.86,0,0,1,10.86-3.6c19.38-3.54,32.08,6.39,32.73,26.14.56,16.8.39,33.63.18,50.45-.06,4.42,1.12,6.9,5.57,7.62,1.29.21,2.47,1.06,3.76,1.32,3.84.77,5.38,2.86,4,7H416.15c-1.15-3.64-.31-5.74,3.57-7.16,8.08-3,8-3.19,8-12,0-11.16.09-22.32,0-33.48a41.89,41.89,0,0,0-1.16-9.87c-2.27-8.77-8.23-12.75-18.35-12.72-10.43,0-10.43,0-10.43,10.15v46.47c0,8.18-.06,8.33,7.5,11.27,3.4,1.33,5.57,2.89,4.06,7.25H353.19c-1.5-3.93,0-5.76,3.94-7.08,9-3,8.92-3.2,8.92-12.58,0-16.32-.25-32.65.15-49,.11-4.85-1.46-7-5.93-7.69a14.71,14.71,0,0,1-5.67-1.76,5.43,5.43,0,0,1-1.74-4c0-1.13,1.05-3.09,1.93-3.28,13-2.72,26.08-5.22,39.15-7.71A17.17,17.17,0,0,1,397.68,412.84Z" transform="translate(-107.88 -71)"/><path class="cls-1" d="M349.17,505.82H280.35c-1.83-4.55-.25-6.77,4.27-8.36,11.16-3.93,11.09-4.13,11.09-16.18,0-28-.08-56,.1-84,0-3.83-1.05-5.83-4.76-6.71-2.24-.53-4.29-1.92-6.54-2.4-4.38-1-5.68-3.48-4.41-8h69.3c1.37,3.94.57,6.34-4,7.94-11.4,4-11.32,4.2-11.32,16.47,0,28,.06,56-.08,84,0,3.49.74,5.64,4.39,6.47,2.25.52,4.32,1.79,6.55,2.39C349.11,498.61,351.42,500.71,349.17,505.82Z" transform="translate(-107.88 -71)"/><path class="cls-1" d="M631.55,454.87H573c-3.2,25.83,22.34,42.24,54.53,35.21.69,1.74,1.41,3.53,2.21,5.55-19,9.58-38.17,17.23-59.79,10.26-17-5.48-27.62-20-28.27-37.81-.65-18,3.41-34.14,18.32-45.84,18.51-14.53,48.31-12.7,62.33,3.69A40.1,40.1,0,0,1,631.55,454.87Zm-58.48-7.32L601.74,444c-.61-12.73-6.86-20.61-15.47-20.13C578,424.32,572.24,434.21,573.07,447.55Z" transform="translate(-107.88 -71)"/><path class="cls-1" d="M895.5,454.86h-58c-4.71,24.89,23.06,42.9,54.28,35.14l2.37,5.52c-18,9.29-36.22,16.41-56.85,11.35S804.94,485,806,460.82c1.8-42.62,38.9-54.36,64.54-45.84C886.86,420.41,897.94,438,895.5,454.86Zm-59.93-7.1L866,444c0-6.44-1.61-11.57-5.39-15.85-5.8-6.58-15.17-6.06-19.21,1.67C838.69,434.92,837.7,440.9,835.57,447.76Z" transform="translate(-107.88 -71)"/><path class="cls-1" d="M560.82,314H502.23c-.83,20.75,16.22,44.58,55,35.34.63,1.73,1.27,3.52,2,5.65C543,362.81,527,370,508.54,367.24c-21.75-3.19-35.6-17-37.19-39.11-1.51-21.06,4.4-39.48,24.25-50.41,13.38-7.36,27.7-8.18,42-2.77C552.88,280.73,563.2,298.24,560.82,314Zm-29.61-10.68c0-7-1.83-12.51-6.36-16.91-5.17-5-12.75-4.63-17.14.92s-5.27,12.23-5.56,19.5Z" transform="translate(-107.88 -71)"/><path class="cls-1" d="M1051.76,427.74c0,17.6-.18,34.26.07,50.92.14,9.08,5.41,14.5,14.52,15.41,4.24.42,8.56.07,13.07.07.32,2.06.6,3.81.95,6-14.23,4.71-28.21,9.55-43.37,8-11.47-1.18-16.94-7.36-17-18.77,0-20.65,0-41.3,0-62.58-2.8-.3-5.4-.39-7.92-.92-1.42-.3-3.78-1.27-3.81-2-.08-2.09.14-5.34,1.46-6.15q16.38-10.05,33.29-19.22c2.11-1.14,5.17-.53,8.38-.77V414.9h28V429Z" transform="translate(-107.88 -71)"/><path class="cls-1" d="M693.43,505.75h-59.2c-1.59-4.15.16-5.92,4-7.21,8.89-3,8.84-3.18,8.84-12.66V431.22c-3.91-1.2-7.67-2-11.12-3.57-1.14-.5-1.94-2.74-2-4.25-.08-1,1.13-3,2-3.16,12.86-2.7,25.77-5.2,38.68-7.67,1.09-.21,2.28.15,4,.3v14.35c4.42-3.24,7.92-5.93,11.54-8.44,6.78-4.68,14-7.71,22.51-5.66,3,.72,4.47,2,4.33,5.42-.29,7.3-.09,14.61-.09,22.6-6.57,0-12.86.33-19.07-.21-1.66-.15-3.66-2.67-4.52-4.55-2.78-6.06-7.18-2.75-11.12-2.34-4.3.44-3.44,3.65-3.44,6.37,0,16.83.1,33.66-.11,50.49,0,3.47,1,5.2,4.29,5.91,2.27.48,4.4,1.62,6.67,2C693.62,499.58,694.82,501.74,693.43,505.75Z" transform="translate(-107.88 -71)"/><path class="cls-1" d="M540.61,494.1c.42,2.11.75,3.73,1.19,5.92-15,5-29.95,10.36-46.1,7.69-9.6-1.58-14.25-7.64-14.29-17.5-.08-19.31-.29-38.64.13-57.94.13-5.64-2.33-6.56-6.7-6.25s-6.37-1.51-5.33-5.83a5.82,5.82,0,0,1,2.54-3.26c10.31-6.08,20.61-12.2,31.16-17.87,2.54-1.37,6-1.11,9.58-1.69v17.42h27.68V429l-27.59-1.24V443q0,16,0,32c0,13.63,5.77,19.42,19.46,19.51C535,494.49,537.61,494.25,540.61,494.1Z" transform="translate(-107.88 -71)"/><path class="cls-1" d="M801.64,490.9c.38,1,1,2.71,1.75,4.77-16.51,7.81-32.82,15.25-51.65,12.2-18.4-3-31.21-17.75-32.94-36.88-3.9-43.32,31.06-63.41,65.8-57.52,16.48,2.8,16.45,3,16.45,19.68v8c-6,0-11.65.14-17.24-.12-1.11,0-2.48-1.42-3.16-2.54-2-3.27-3.66-6.71-5.45-10.09-2.52-4.74-5-5.78-10.07-3.81-9.24,3.54-14,11.12-14.93,20.24a71.91,71.91,0,0,0,1.34,23.64c3.41,14.21,14.74,22.83,29.38,23.45C787.49,492.2,794.11,491.31,801.64,490.9Z" transform="translate(-107.88 -71)"/><path class="cls-1" d="M1155.7,513v13.5h-75V513Z" transform="translate(-107.88 -71)"/><path d="M948.37,430.5c13.52,0,22.22,5.9,25.71,18.17,4.42,15.54,4.5,30.76-7.75,43.39-6.09,6.28-13.93,7.52-22.19,5.73-1.26-.28-2.94-2.61-3-4-.19-19.66-.11-39.32-.14-59C941,428.19,946.45,432,948.37,430.5Z" transform="translate(-107.88 -71)"/><path d="M573.07,447.55c-.83-13.34,4.89-23.23,13.2-23.69,8.61-.48,14.86,7.4,15.47,20.13Z" transform="translate(-107.88 -71)"/><path d="M835.57,447.76c2.13-6.86,3.12-12.84,5.78-17.94,4-7.73,13.41-8.25,19.21-1.67,3.78,4.28,5.43,9.41,5.39,15.85Z" transform="translate(-107.88 -71)"/><path d="M531.21,303.32l-29.06,3.51c.29-7.27,1.15-13.92,5.56-19.5s12-5.94,17.14-.92C529.38,290.81,531.19,296.36,531.21,303.32Z" transform="translate(-107.88 -71)"/></svg>