<?xml version="1.0" encoding="utf-8"?>
<!-- Generator: Adobe Illustrator 22.0.0, SVG Export Plug-In . SVG Version: 6.00 Build 0)  -->
<svg version="1.1" id="Layer_1" xmlns="http://www.w3.org/2000/svg" xmlns:xlink="http://www.w3.org/1999/xlink" x="0px" y="0px"
	 viewBox="0 0 1366 768" style="enable-background:new 0 0 1366 768;" xml:space="preserve">
<style type="text/css">
	.st0{fill:#FFFFFF;}
	.st1{clip-path:url(#SVGID_2_);fill:none;stroke:#00A88E;stroke-width:1.661;}
	.st2{clip-path:url(#SVGID_2_);}
	.st3{fill:none;stroke:#000000;stroke-width:0.208;}
</style>
<g>
	<rect x="650" y="357" class="st0" width="64.8" height="56.3"/>
	<g>
		<defs>
			<rect id="SVGID_1_" x="650" y="358" width="64.8" height="54.3"/>
		</defs>
		<clipPath id="SVGID_2_">
			<use xlink:href="#SVGID_1_"  style="overflow:visible;"/>
		</clipPath>
		<path class="st1" d="M668.1,366.5c0.9,1.5,2.1,3,3.5,4.4c2.7,2.6,6.3,5,10.4,6.8c6.4,2.7,12.9,3.4,17.7,2.3 M692.8,364.9
			c-1.3,0.3-3.1,0.1-5-0.7c-3-1.3-4.9-3.4-4.3-4.8c0.1-0.2,0.2-0.3,0.3-0.4 M694.3,363.4c0,0.2,0,0.4-0.1,0.5
			c-0.2,0.5-0.7,0.8-1.4,1 M689.2,364.7c0.2,6.2-1.7,17.5-11.7,28.5 M686.4,363.5c-4.6,4.2-11.4,13.5-12.4,28.2 M692.8,364.9
			c2,3.9,3,11.2,1.2,15.7c0,0-2.3,8.9-12.9,13.3 M683.7,361.1c-4.2,1.3-10.1,5.7-12.1,10c0,0-4.7,7.8-0.6,18.6 M665.2,374.3
			c2.4,4.5,7.2,8.7,13.5,11.4c6.3,2.7,12.7,3.2,17.5,1.8 M675.3,360.5c1.3,3.6,5,7.1,10.1,9.3c5.1,2.2,10.2,2.3,13.7,0.8
			 M675.7,392.6c8.9,3.8,19.2-0.4,23-9.3c3.8-8.9-0.4-19.2-9.3-23c-8.9-3.8-19.2,0.4-23,9.3C662.6,378.5,666.8,388.8,675.7,392.6
			L675.7,392.6z"/>
		<path class="st2" d="M715.3,364.9v-6h-6v6h4.3c0,2.4-1.9,4.3-4.3,4.3v1.7C712.6,370.9,715.3,368.2,715.3,364.9"/>
		<path class="st2" d="M707.6,364.9v-6h-6v6h4.3c0,2.4-1.9,4.3-4.3,4.3v1.7C704.9,370.9,707.6,368.2,707.6,364.9"/>
		<path class="st2" d="M649.8,364v6h6v-6h-4.3c0-2.4,1.9-4.3,4.3-4.3V358C652.5,358,649.8,360.7,649.8,364"/>
		<path class="st2" d="M657.5,364v6h6v-6h-4.3c0-2.4,1.9-4.3,4.3-4.3V358C660.2,358,657.5,360.7,657.5,364"/>
	</g>
	<path d="M673.3,412.3h-3.4v-11h4.5c1.1,0,2.3,0,3.2,0.6c1,0.6,1.6,1.7,1.6,2.9c0,1-0.4,2-1.2,2.7c-0.9,0.7-1.9,0.9-3,0.9h-1.7
		V412.3 M674.2,405.9c0.8,0,1.7,0,1.7-1.1c0-1-0.8-1.1-1.6-1.1h-1v2.1H674.2"/>
	<path d="M686.3,412.3l-1.6-4.2h-1.1v4.2h-3.4v-11h5.6c1,0,2,0.1,2.8,0.7c0.9,0.6,1.4,1.6,1.4,2.6c0,1.4-0.6,2.3-1.9,2.9l2,4.8
		H686.3 M684.8,405.7c0.7,0,1.6-0.1,1.6-1.1c0-0.4-0.2-0.7-0.5-0.9c-0.3-0.1-0.6-0.1-1-0.1h-1.4v2.1H684.8"/>
	<rect x="691.2" y="401.2" width="3.4" height="11"/>
	<path d="M698.7,403.3l-0.4-0.9h-0.6v0.9h-0.3v-2.2h0.8c0.2,0,0.3,0,0.5,0.1c0.1,0.1,0.2,0.3,0.2,0.5c0,0.3-0.2,0.5-0.4,0.6l0.4,1
		H698.7 M698.2,402.1c0.1,0,0.3,0,0.4-0.1c0.1-0.1,0.1-0.2,0.1-0.3c0-0.1,0-0.2-0.2-0.3c-0.1-0.1-0.2-0.1-0.3-0.1h-0.5v0.8H698.2"/>
	<path class="st3" d="M698.1,400.6c0.9,0,1.6,0.7,1.6,1.5c0,0.9-0.7,1.5-1.6,1.5c-0.9,0-1.5-0.7-1.5-1.5
		C696.5,401.3,697.2,400.6,698.1,400.6L698.1,400.6z"/>
</g>
</svg>
