<svg id="Layer_1" data-name="Layer 1" xmlns="http://www.w3.org/2000/svg" viewBox="0 0 1238.24 182.87"><defs><style>.cls-1{fill:#fff;}</style></defs><title>Register-Guard1</title><path class="cls-1" d="M36.24,424.22V241.36H1274.48V424.22ZM916,261.84,916,261a6.19,6.19,0,0,0-2.32,0c-5.78,2.53-11.71,4.8-17.22,7.83-12.4,6.84-22.64,16.11-29,28.93-9.6,19.25-9.26,39-1.4,58.62,6.3,15.71,18.1,25.83,34.45,30.32a66.75,66.75,0,0,0,39.87-1.41c12-4.09,22.37-10.76,30-21.13,7.44-10.1,9.79-21.31,6.39-33.45-4.6-16.41-22.6-25.81-39.91-21-2.73.77-5.36,1.94-8.08,3V277.43c3,1.7,5.88,3.71,9,5,10.12,4.11,19.13.68,24.12-9a47.81,47.81,0,0,0,2.58-6.38,7.79,7.79,0,0,0,0-2.46,7.69,7.69,0,0,0-2.25.61,15,15,0,0,1-13,1.8,15.46,15.46,0,0,1-9.31-7.1c-13.63,11.48-29.17,19.78-43.39,28.85,1.18,2.6,2.3,4.67,3.07,6.87a12.73,12.73,0,0,1,.4,4.06c0,13.8,0,27.6,0,41.4,0,7-2.19,12.79-8.88,16.33-8.62-15.26-9.59-31.66-6.87-48.47C887.59,288.44,898.56,272.91,916,261.84ZM382.21,325.08a13.09,13.09,0,0,1,1.39.11c5.18,1.08,8.32,4.65,9.92,9.29,2,5.8,3.53,11.8,5,17.78,1.74,7.16,2.9,14.48,4.83,21.59s7.07,11.12,14.2,12.57a2.84,2.84,0,0,0,2.28-.83c4.13-5,8.16-10,12.21-15.07.32-.41.56-.89.89-1.42-6.23-.38-8.32-2-10.31-7.83-.32-.94-.62-1.91-.85-2.88-1.41-5.86-2.53-11.79-4.25-17.55-2.59-8.7-7.69-15.36-16.71-18.3l-1.73-.57c3.58-1.45,7.1-2.68,10.46-4.27,17.5-8.27,20.11-33.07,7.08-45.05-6.93-6.38-15.16-10.28-23.88-13.33a2.68,2.68,0,0,0-2.13.42c-8.77,6.5-17.57,13-26.2,19.64-7.52,5.82-11.14,13.35-10.85,23.17.45,15.07.16,30.18.1,45.27a21.3,21.3,0,0,1-4.1,13.13,8.57,8.57,0,0,1-5.44,3.47c-11.15,2.19-20.76,7.09-27.42,16.68a26.57,26.57,0,0,0-4.82,13.81c1-.55,1.82-.71,2.11-1.19,3.63-6,9.22-9.41,15.67-11.4,13.54-4.17,26.93-3.23,40.13,1.64,2.4.88,4.75,1.9,7.22,2.89l10.41-16.76-5.18-2.51ZM101.49,359.79c-5.13-4.81-9.5-15-10-23.22-1.11-19,4.24-35.32,19.62-47.78-1-.37-2-.75-2.66-.46C97.8,293,88.19,299.17,81.07,308.62s-9.87,20.26-9.58,32c.44,18.47,8.73,32.27,24.81,41.25,10.22,5.72,21.28,7.37,32.9,6.21,17.17-1.73,29.47-10.3,37.25-26l-1.74-1.71c-6,5.78-13.19,8.61-21.11,10.41,0-.94-.11-1.64-.11-2.35q0-37.85,0-75.68c0-1.1-.3-2.25,1.42-2.61,13-2.73,18.76-16,19.83-26.39,0-.5-.46-1.05-.71-1.58-.45.26-1,.42-1.32.8-4.47,6.13-10.7,8.31-18,8.3-6,0-11.61-1.81-17.26-3.38-9.52-2.66-19.13-4.61-29.08-4.14a25.77,25.77,0,0,0-16.29,6.47c-6.86,6-10.12,14.1-12.55,22.62,1.14.84,2,1,2.94-.26,6.36-8.83,15.48-11.73,25.63-10.28s20,4.19,29.94,6.37l.07.65c-.81.54-1.6,1.09-2.42,1.62-4.52,2.92-9,5.85-13.59,8.73-1.19.76-1.5,1.25-.53,2.66a9.86,9.86,0,0,1,1.81,5.13q.21,18,0,36c0,3.39-.63,6.87-3.28,9.32S104.33,357.5,101.49,359.79Zm67-83.29c3.41,1.87,3.6,4.92,3.6,8q0,40,0,80c0,3-.27,5.89-2.77,8.19l19.36,14.45,13.82-14.49c-3.15-1.95-6-3.79-9-5.52a3.21,3.21,0,0,1-1.62-3.18c.05-15.75,0-31.49,0-47.23,0-1.87.08-3.74,0-5.61-.12-2.38,2-2.73,3.35-3.75.41-.31,1.68.18,2.37.6,3.13,1.9,6.15,4,9.29,5.86a3.51,3.51,0,0,1,1.84,3.49q-.09,33.54,0,67.07c0,9.74-3.77,17.39-12.17,22.58-.61.38-1.17.84-2.26,1.63a9.88,9.88,0,0,0,1.72.07c7.45-1.84,14.56-4.48,20.66-9.3,8.12-6.42,11.8-15,11.84-25.2.08-18.69,0-37.38,0-56.07,0-3.56-.37-7.19,2.46-10l-24.4-14.25L192,306.34a8.94,8.94,0,0,1-.22-1.22q0-15.19,0-30.4a31.06,31.06,0,0,1,.31-3.86,17.94,17.94,0,0,1,5.87-11.6,2.91,2.91,0,0,0-2.16-.28c-3.34,1.77-6.89,3.29-9.85,5.57C180.44,268.81,175.68,274.17,168.51,276.5ZM546.15,397.83c-1.19-.77-1.78-1.18-2.4-1.54-12.68-7.54-25.93-8.92-39.58-3.1-7.49,3.19-12.82,8.62-14.87,16.77a21,21,0,0,0-.34,2.91c15.82-8.53,31.27-9.45,46.86.34,5.51-5.82,11-11.46,16.29-17.35a29,29,0,0,0,4.85-7.58c2.23-5.19,2-10.21-2.43-14.43-2.51-2.35-3.38-5.38-3.37-8.77q0-22.75,0-45.5c0-3.58.36-7.05,3.14-9.77a6.13,6.13,0,0,0-.76-.62c-8.85-4.93-17.71-9.82-26.53-14.8-1.27-.72-2-.13-2.85.52-9.12,6.76-18.22,13.53-27.39,20.23A3.87,3.87,0,0,0,495,318.7c.06,13.65,0,27.31,0,41,0,4.19.18,8.37-3.59,11.57l27.49,15.87c4.38-4.85,8.64-9.56,13.18-14.6,1,6.82,5.06,10.61,10.61,13.13a32.22,32.22,0,0,1,3.19,1.8,4.35,4.35,0,0,1,2.31,5.09A45,45,0,0,1,546.15,397.83Zm700.57-25.37c-4.5-.66-7.28-3.51-10.29-5.88a3.84,3.84,0,0,1-1.29-2.64c-.07-16.24-.11-32.49,0-48.73a16.94,16.94,0,0,1,1.69-6.31c.54-1.25.5-1.85-.48-2.72-6.17-5.49-12.39-10.93-18.41-16.59-10.6-10-22.44-18.68-31.48-30.29-.06-.08-.25-.05-.37-.07-1.25,3.44-1.13,5.6.63,11.35-3.25-.14-6.52-.45-9.79-.39a15,15,0,0,0-9.12,3.46c13,6.23,21.55,17.52,32.7,26l-24.81,19.56c3.45,2.53,3.51,5.95,3.49,9.48,0,12.43.19,24.88-.13,37.3-.11,4.23,1.1,6.76,4.72,9,6.11,3.74,11.88,8,17.62,12,4.77-4.59,9.4-9.06,14.14-13.61l17,13.95Zm-233.37-64.67c2.84,1.6,5.28,3.06,7.81,4.37a3.12,3.12,0,0,1,1.79,3.27c-.05,17.75,0,35.5,0,53.26,0,.36,0,.72,0,1.08a3.38,3.38,0,0,1-4.89,2.7c-3.54-2-7-4.23-10.58-6.22a3,3,0,0,1-1.72-3.07q.07-22.21,0-44.43c0-3.89-.19-7.79,3-10.92l-18-13.95-14,14.22c2.34,1.41,4.86,3,7.44,4.44a3.31,3.31,0,0,1,1.75,3.33q-.09,22.11,0,44.21c0,3.89-.38,7.6-3.45,10.54l25.82,16.4L1023.09,374l14.15,13.16,14.43-14.94a17.88,17.88,0,0,1-2.76-1.08c-3.5-2.12-6.37-4.37-6.28-9.29.27-13.79,0-27.6.12-41.4,0-4.48-.4-9.14,3.3-12.82l-17.76-13.4C1023.16,298.87,1018.24,303.34,1013.35,307.79Zm90.59,79.32L1118.41,372c-.85-.31-1.44-.52-2-.75a10.34,10.34,0,0,1-6.65-9.65c0-13.08,0-26.16,0-39.23,0-4,.35-7.92,3.56-11.13l-25-17.46c-.84,1-1.46,1.93-2.2,2.69-2.26,2.3-4.34,4.86-6.91,6.74-3.26,2.38-7.11,3-10.71.67-1.61-1-2.71-2.86-3.72-4l-9.35,8.95c4.33,6.74,12.8,7.91,19.3,2.65,1.22-1,2.36-2.07,3.74-3.29,3.63,2.9,7.23,5.74,10.78,8.63a1.89,1.89,0,0,1,.61,1.27c0,3.15,0,6.29,0,9.14-4.74,1.21-9.27,2.09-13.61,3.52-8,2.64-15.15,6.69-19.68,14.17-8.16,13.45-3,31.53,11.3,39.87,4.53,2.64,4.53,2.64,8.67-.62l13.19-10.37ZM622.82,310.16l.5-.31c4.75,6.16,10.92,8.45,18.33,6.5s10.79-8,13.28-15.23c-9.85,2.67-17.9.28-24.25-7.38L600.36,313.8c2.17,3.13,2.54,4.24,2.57,8.07,0,5,.06,10.07,0,15.09a2.92,2.92,0,0,0,1.63,2.92c4.17,2.51,8.27,5.14,12.6,7.86-.92,1.09-1.66,2-2.47,2.93A72.89,72.89,0,0,0,597.27,385a7,7,0,0,0,.18,1.91,8,8,0,0,0,2.06-.47c2.71-1.45,5.22-3.45,8.08-4.44,9-3.1,17.41-1.18,25.2,3.93a2,2,0,0,0,2.93-.18c6.49-5.56,13-11.06,19.57-16.58,1-.87,2-1.76,3-2.61C656.22,363,656,362.27,656,358c0-5.53,0-11.07,0-16.6a3.08,3.08,0,0,0-1.14-2.2c-5.45-3.48-11-6.81-16.47-10.24a1.67,1.67,0,0,0-2.43.22c-1.68,1.64-3.45,3.19-5.25,4.83-2.4-1.54-4.7-3-7-4.52a2,2,0,0,1-.86-1.34C622.8,322.18,622.82,316.17,622.82,310.16ZM687.9,275c-.87.5-1.47.83-2.07,1.19-5.37,3.2-10.7,6.45-16.11,9.57a2.84,2.84,0,0,0-1.65,2.89c.11,4.07,0,8.15,0,12.42-1.54,0-2.82-.08-4.09,0a2.18,2.18,0,0,0-1.56.77c-1.77,3.59-3.43,7.22-5.28,11.17h10.93v2.79c0,13.94.06,27.89,0,41.83,0,5.43,1.16,11.15-3.28,15.79,7,4.43,13.72,8.71,20.49,12.9a2.15,2.15,0,0,0,1.92-.42c3.82-3.48,7.55-7.06,11.33-10.59.81-.75,1.71-1.41,2.35-1.93-4-2-7.52-3.86-11.12-5.56a3,3,0,0,1-1.87-3.17c.06-16.46,0-32.92,0-49.38V312.8c3.41,0,6.49,0,9.58,0,.58,0,1.5-.15,1.69-.53,1.85-3.6,3.59-7.26,5.56-11.34H687.9ZM238,369.36a5.73,5.73,0,0,0,.58.65c7.88,5.4,15.78,10.77,23.63,16.2,1,.7,1.63.39,2.44-.24,3.22-2.53,6.49-5,9.73-7.49,4.59-3.54,9.16-7.1,13.87-10.75l-1.87-2.16c-2.92,2.17-5.56,4-8.09,6.05a2.3,2.3,0,0,1-3.2.18c-3.94-2.63-8-5.15-12-7.61a3,3,0,0,1-1.64-2.94c.08-5.46,0-10.92.1-16.38a4.12,4.12,0,0,1,1.4-2.79c5.64-4.33,11.38-8.53,17.08-12.77,4.26-3.17,8.5-6.35,12.79-9.55l-16.77-26c-10.95,6.79-21.6,13.45-32.32,20a3.81,3.81,0,0,0-2.09,3.77c.07,14.22,0,28.45,0,42.68C241.69,363.69,241,366.91,238,369.36Zm505.46-75.57c-.76.43-1.32.73-1.87,1.07-10.26,6.33-20.5,12.7-30.8,19a3.26,3.26,0,0,0-1.8,3.23q.09,19.6,0,39.21c0,4.69.59,9.59-3.51,13.1.23.33.29.48.4.55,7.94,5.44,15.89,10.85,23.8,16.33,1.07.74,1.65.22,2.41-.37q8.67-6.76,17.36-13.48l6-4.66-2-2.08c-2.86,2.12-5.59,4.09-8.24,6.16a2,2,0,0,1-2.67.13c-4.14-2.71-8.37-5.29-12.49-8a3.06,3.06,0,0,1-1.16-2.19c-.1-5.68,0-11.35-.09-17a3.1,3.1,0,0,1,1.48-2.81c6.42-4.72,12.8-9.5,19.19-14.27L760,319.75C754.45,311,749,302.43,743.47,293.79Zm-270.4,0c-.92.56-1.65,1-2.37,1.44-10.08,6.22-20.14,12.48-30.27,18.64a3.46,3.46,0,0,0-1.85,3.44c.07,13.44,0,26.88,0,40.32,0,4.32.22,8.69-3.53,11.79a3.19,3.19,0,0,0,.42.54c7.94,5.44,15.86,10.9,23.86,16.26a2.64,2.64,0,0,0,2.33-.32c7.43-5.67,14.79-11.41,22.18-17.13a13.84,13.84,0,0,1,1.37-.8l-2-2.28c-2.89,2.12-5.64,4.08-8.31,6.14a2.11,2.11,0,0,1-2.86.1c-4.08-2.69-8.26-5.22-12.32-7.93a3.36,3.36,0,0,1-1.27-2.35c-.11-5.61,0-11.22-.09-16.82a3.11,3.11,0,0,1,1.44-2.85c5-3.68,10-7.44,15.06-11.18l14.75-11C484.09,311,478.63,302.46,473.07,293.75Zm347.05,10.64c-8.67-.17-15-4.12-20.12-10.58-3.73,4.37-7.34,8.58-11,12.89l-13.52-12.38-15,14.05c1,.25,1.59.38,2.2.57a10,10,0,0,1,6.69,9.08c0,13.58,0,27.17,0,40.75,0,4.81.83,9.86-3.64,13.7L786.06,387l13.7-14.52c-3.08-1.89-5.89-3.69-8.79-5.35a3.47,3.47,0,0,1-1.88-3.47c.06-17.46,0-34.92,0-52.39,0-.66.09-1.32.17-2.45,5.09,6.51,10.82,10.47,19,7.93C814.34,314.84,817.91,310.5,820.12,304.39Zm326.66,4.81.51-.32c5,6.84,11.09,10.58,19.67,7.18,5.35-2.13,8.49-6.2,10.45-11.79-8.56-.27-14.93-4-20-10.47l-10.89,12.74c-4.86-4.34-9.55-8.53-13.91-12.44L1118.73,308c2,1.36,4.27,2.92,6.55,4.43A3.84,3.84,0,0,1,1127,316c-.07,15,0,29.91,0,44.86,0,4.21.28,8.54-3.58,11.7l20.1,14.37,13.86-14.51c-3.08-1.9-6-3.72-8.9-5.45a3.14,3.14,0,0,1-1.68-3.11c0-17.54,0-35.08,0-52.62ZM332.86,330.86c0,5.85,0,11.59,0,17.32,0,6.43-1.13,12.46-6.12,17.11-.32.3-.31.95-.45,1.43.49,0,1.1.3,1.47.1A140,140,0,0,0,340.61,360a16.7,16.7,0,0,0,7.25-11.55,38.87,38.87,0,0,0,.47-6.65q.06-22.32,0-44.63A22.88,22.88,0,0,1,354.43,281a69.91,69.91,0,0,1,7.82-7.06c5.28-4.2,10.68-8.23,16-12.34l0-.64c-.84-.19-1.9-.8-2.49-.5-6.48,3.24-13.09,3.27-19.86,1.2-1.72-.52-3.41-1.12-5.15-1.56-12.66-3.16-22.95,2.52-26.43,14.57a10.83,10.83,0,0,0-.2,2,16.11,16.11,0,0,1,12.7-4.55,34.23,34.23,0,0,1,6,.77c3.76.85,7.48,1.89,11.39,2.9a6.5,6.5,0,0,1-.41.57l-1.48.87c-12.47,7.6-20.88,17.52-19.34,33.28.21,2.1,0,4.23,0,6.39-5.71.36-10.59,1.73-12.05,7.79-1,4,0,7.77,2.44,11.45C325.75,331.35,327.78,330.24,332.86,330.86ZM559,308c2.19,1.27,4.19,2.46,6.21,3.61s2.63,3,2.61,5.35c-.11,15.31-.07,30.61,0,45.91,0,3.84,0,7.66-3.75,10.26L583.05,387l13.84-14.51c-2.8-1.7-5.45-3.2-7.95-4.89a3.15,3.15,0,0,1-1.17-2.26q-.09-23.39,0-46.77c0-3.75.21-7.5,3.5-10.42l-18.47-14.37Zm290.11,20.54c-.69.6-1.32,1.18-2,1.7a9.93,9.93,0,0,1-10.31,1.55c-1.81-.7-3.55-1.56-5.38-2.17-7.6-2.55-14.33-1.09-18.16,4.62-2.1,3.13-3.16,7-4.64,10.52-.14.35,0,.84.1,1.69,5-5.11,10.2-4.67,15.71-2a18,18,0,0,0,4,1.42c4,.87,8.17,1.51,11.85-1.06,5.46-3.81,7.68-9.6,9.22-15.76C849.54,329,849.35,328.89,849.08,328.58ZM577.82,284,590,270.48l-14.83-11.71L563.5,272.43Z" transform="translate(-36.24 -241.36)"/><path d="M916,261.84c-17.47,11.07-28.44,26.6-31.76,47.09-2.72,16.81-1.75,33.21,6.87,48.47,6.69-3.54,8.91-9.29,8.88-16.33,0-13.8,0-27.6,0-41.4a12.73,12.73,0,0,0-.4-4.06c-.77-2.2-1.89-4.27-3.07-6.87,14.22-9.07,29.76-17.37,43.39-28.85a15.46,15.46,0,0,0,9.31,7.1,15,15,0,0,0,13-1.8,7.69,7.69,0,0,1,2.25-.61,7.79,7.79,0,0,1,0,2.46,47.81,47.81,0,0,1-2.58,6.38c-5,9.67-14,13.1-24.12,9-3.14-1.27-6-3.28-9-5v35.29c2.72-1,5.35-2.18,8.08-3,17.31-4.85,35.31,4.55,39.91,21,3.4,12.14,1,23.35-6.39,33.45-7.64,10.37-18,17-30,21.13a66.75,66.75,0,0,1-39.87,1.41C884.1,382.23,872.3,372.11,866,356.4c-7.86-19.6-8.2-39.37,1.4-58.62,6.39-12.82,16.63-22.09,29-28.93,5.51-3,11.44-5.3,17.22-7.83a6.19,6.19,0,0,1,2.32,0Zm12.52,118.72c1.9,0,3.48.11,5,0,11.82-1,18.31-6.35,21.31-17.83a52.55,52.55,0,0,0,1.54-9.32c.56-7.41.48-14.76-2.71-21.75-3.64-8-11.5-15.63-23.1-12.76-1.67.41-2.12,1.05-2.12,2.7.06,18.89,0,37.77,0,56.66Zm-3.14-.27v-59.5c-4.69,1.25-5.6,2.38-5.6,6.84,0,.79,0,1.58,0,2.37.08,5.49-1.48,10.46-5.45,14.28a103.5,103.5,0,0,1-10.14,8.29c-3.67,2.74-7.53,5.21-11.44,7.89C900.83,371.89,911.6,378.33,925.41,380.29Zm-5.6-61.3a36.71,36.71,0,0,1,3.51-2.56c1.8-1,2.29-2.32,2.28-4.35-.11-11.71-.05-23.41-.06-35.12,0-.75-.06-1.5-.12-2.67a32.65,32.65,0,0,1-3.2,2.32c-1.9,1.06-2.5,2.53-2.47,4.73.14,9,.06,18,.06,26.93Z" transform="translate(-36.24 -241.36)"/><path d="M382.21,325.08v42.5l5.18,2.51L377,386.85c-2.47-1-4.82-2-7.22-2.89-13.2-4.87-26.59-5.81-40.13-1.64-6.45,2-12,5.38-15.67,11.4-.29.48-1.11.64-2.11,1.19a26.57,26.57,0,0,1,4.82-13.81c6.66-9.59,16.27-14.49,27.42-16.68a8.57,8.57,0,0,0,5.44-3.47,21.3,21.3,0,0,0,4.1-13.13c.06-15.09.35-30.2-.1-45.27-.29-9.82,3.33-17.35,10.85-23.17,8.63-6.68,17.43-13.14,26.2-19.64a2.68,2.68,0,0,1,2.13-.42c8.72,3.05,17,6.95,23.88,13.33,13,12,10.42,36.78-7.08,45.05-3.36,1.59-6.88,2.82-10.46,4.27l1.73.57c9,2.94,14.12,9.6,16.71,18.3,1.72,5.76,2.84,11.69,4.25,17.55.23,1,.53,1.94.85,2.88,2,5.84,4.08,7.45,10.31,7.83-.33.53-.57,1-.89,1.42-4.05,5-8.08,10.1-12.21,15.07a2.84,2.84,0,0,1-2.28.83c-7.13-1.45-12.27-5.47-14.2-12.57s-3.09-14.43-4.83-21.59c-1.44-6-3-12-5-17.78-1.6-4.64-4.74-8.21-9.92-9.29A13.09,13.09,0,0,0,382.21,325.08Zm0-51.63v46.76a3.19,3.19,0,0,0,.77.05c.77-.12,1.55-.25,2.32-.43,6.14-1.44,11.78-3.82,15.79-9,5.48-7,5.54-18,.14-25.37C396.54,279,389.77,275.82,382.23,273.45ZM356,363.68c3.77.21,7.64.21,11.45.7s7.65,1.47,11.51,2.25V324.84H373.2c0,.83-.1,1.53-.1,2.23q0,7.21,0,14.44c0,6.68-2.42,12.24-7.84,16.23C362.31,359.9,359.11,361.7,356,363.68Zm23-43V274.82a3,3,0,0,0-.69.27,12.72,12.72,0,0,0-1.25,1.18,15.4,15.4,0,0,0-3.91,10.87c-.05,10.7,0,21.39,0,32.08a10.78,10.78,0,0,0,.21,1.45Z" transform="translate(-36.24 -241.36)"/><path d="M101.49,359.79c2.84-2.29,5.87-4.48,8.59-7s3.24-5.93,3.28-9.32q.19-18,0-36a9.86,9.86,0,0,0-1.81-5.13c-1-1.41-.66-1.9.53-2.66,4.55-2.88,9.07-5.81,13.59-8.73.82-.53,1.61-1.08,2.42-1.62l-.07-.65c-10-2.18-19.86-4.94-29.94-6.37s-19.27,1.45-25.63,10.28c-.94,1.31-1.8,1.1-2.94.26,2.43-8.52,5.69-16.57,12.55-22.62a25.77,25.77,0,0,1,16.29-6.47c10-.47,19.56,1.48,29.08,4.14,5.65,1.57,11.26,3.38,17.26,3.38,7.32,0,13.55-2.17,18-8.3.28-.38.87-.54,1.32-.8.25.53.76,1.08.71,1.58-1.07,10.36-6.86,23.66-19.83,26.39-1.72.36-1.42,1.51-1.42,2.61q0,37.85,0,75.68c0,.71.06,1.41.11,2.35,7.92-1.8,15.08-4.63,21.11-10.41l1.74,1.71c-7.78,15.66-20.08,24.23-37.25,26-11.62,1.16-22.68-.49-32.9-6.21-16.08-9-24.37-22.78-24.81-41.25-.29-11.71,2.45-22.51,9.58-32S97.8,293,108.46,288.33c.67-.29,1.63.09,2.66.46-15.38,12.46-20.73,28.82-19.62,47.78C92,344.83,96.36,355,101.49,359.79Zm1.89,2.29a35.34,35.34,0,0,0,10.51,7.37c7.62,3.51,15.55,3.42,23.66,2.33,2.27-.3,2.71-1.08,2.71-3.18q-.1-37.62,0-75.25v-2.94l-6.91-.47v40.6a18.71,18.71,0,0,1-4.69,13.08,44.31,44.31,0,0,1-7.06,6.28C115.69,354,109.64,357.91,103.38,362.08Z" transform="translate(-36.24 -241.36)"/><path d="M168.51,276.5c7.17-2.33,11.93-7.69,17.48-11.95,3-2.28,6.51-3.8,9.85-5.57a2.91,2.91,0,0,1,2.16.28,17.94,17.94,0,0,0-5.87,11.6,31.06,31.06,0,0,0-.31,3.86q0,15.19,0,30.4a8.94,8.94,0,0,0,.22,1.22l14.59-12.49L231,308.1c-2.83,2.79-2.46,6.42-2.46,10,0,18.69.06,37.38,0,56.07,0,10.18-3.72,18.78-11.84,25.2-6.1,4.82-13.21,7.46-20.66,9.3a9.88,9.88,0,0,1-1.72-.07c1.09-.79,1.65-1.25,2.26-1.63,8.4-5.19,12.18-12.84,12.17-22.58q0-33.54,0-67.07a3.51,3.51,0,0,0-1.84-3.49c-3.14-1.88-6.16-4-9.29-5.86-.69-.42-2-.91-2.37-.6-1.31,1-3.47,1.37-3.35,3.75.1,1.87,0,3.74,0,5.61,0,15.74,0,31.48,0,47.23a3.21,3.21,0,0,0,1.62,3.18c3,1.73,5.83,3.57,9,5.52L188.7,387.13l-19.36-14.45c2.5-2.3,2.77-5.18,2.77-8.19q0-40,0-80C172.11,281.42,171.92,278.37,168.51,276.5Z" transform="translate(-36.24 -241.36)"/><path d="M546.15,397.83a45,45,0,0,0,2.07-5.3,4.35,4.35,0,0,0-2.31-5.09,32.22,32.22,0,0,0-3.19-1.8c-5.55-2.52-9.57-6.31-10.61-13.13-4.54,5-8.8,9.75-13.18,14.6l-27.49-15.87c3.77-3.2,3.6-7.38,3.59-11.57,0-13.66,0-27.32,0-41a3.87,3.87,0,0,1,1.79-3.56c9.17-6.7,18.27-13.47,27.39-20.23.88-.65,1.58-1.24,2.85-.52,8.82,5,17.68,9.87,26.53,14.8a6.13,6.13,0,0,1,.76.62c-2.78,2.72-3.14,6.19-3.14,9.77q0,22.76,0,45.5c0,3.39.86,6.42,3.37,8.77,4.48,4.22,4.66,9.24,2.43,14.43a29,29,0,0,1-4.85,7.58c-5.25,5.89-10.78,11.53-16.29,17.35-15.59-9.79-31-8.87-46.86-.34a21,21,0,0,1,.34-2.91c2.05-8.15,7.38-13.58,14.87-16.77,13.65-5.82,26.9-4.44,39.58,3.1C544.37,396.65,545,397.06,546.15,397.83Zm-31-89.91c-.07.79-.12,1.07-.12,1.35,0,17.76,0,35.51,0,53.26a2.5,2.5,0,0,0,1.58,2.48c3.61,1.93,7.19,3.9,10.79,5.86,2.11,1.14,3.73.19,3.74-2.29q0-24.58,0-49.16a3.62,3.62,0,0,0-1.44-2.5c-3.39-2.28-6.9-4.39-10.38-6.55C517.94,309.59,516.67,308.85,515.12,307.92Z" transform="translate(-36.24 -241.36)"/><path d="M1246.72,372.46l-14.12,14.79-17-13.95c-4.74,4.55-9.37,9-14.14,13.61-5.74-3.94-11.51-8.24-17.62-12-3.62-2.2-4.83-4.73-4.72-9,.32-12.42.08-24.87.13-37.3,0-3.53,0-6.95-3.49-9.48l24.81-19.56c-11.15-8.46-19.73-19.75-32.7-26a15,15,0,0,1,9.12-3.46c3.27-.06,6.54.25,9.79.39-1.76-5.75-1.88-7.91-.63-11.35.12,0,.31,0,.37.07,9,11.61,20.88,20.31,31.48,30.29,6,5.66,12.24,11.1,18.41,16.59,1,.87,1,1.47.48,2.72a16.94,16.94,0,0,0-1.69,6.31c-.13,16.24-.09,32.49,0,48.73a3.84,3.84,0,0,0,1.29,2.64C1239.44,369,1242.22,371.8,1246.72,372.46Zm-44.5-71c-1.15,1.79-3,3.39-3.07,5-.21,18.54-.14,37.08-.11,55.62a2.28,2.28,0,0,0,.61,1.67c4.42,2.92,8.89,5.75,13.81,8.9.68-1.56,1.74-2.87,1.74-4.18.11-18,.09-35.92,0-53.89a3.11,3.11,0,0,0-.77-2.09C1210.59,308.92,1206.61,305.41,1202.22,301.48Z" transform="translate(-36.24 -241.36)"/><path d="M1013.35,307.79c4.89-4.45,9.81-8.92,14.94-13.6l17.76,13.4c-3.7,3.68-3.27,8.34-3.3,12.82-.07,13.8.15,27.61-.12,41.4-.09,4.92,2.78,7.17,6.28,9.29a17.88,17.88,0,0,0,2.76,1.08l-14.43,14.94L1023.09,374,1008.21,387l-25.82-16.4c3.07-2.94,3.46-6.65,3.45-10.54q0-22.09,0-44.21a3.31,3.31,0,0,0-1.75-3.33c-2.58-1.45-5.1-3-7.44-4.44l14-14.22,18,13.95c-3.14,3.13-3,7-3,10.92q0,22.22,0,44.43a3,3,0,0,0,1.72,3.07c3.57,2,7,4.18,10.58,6.22a3.38,3.38,0,0,0,4.89-2.7c0-.36,0-.72,0-1.08,0-17.76,0-35.51,0-53.26a3.12,3.12,0,0,0-1.79-3.27C1018.63,310.85,1016.19,309.39,1013.35,307.79Z" transform="translate(-36.24 -241.36)"/><path d="M1103.94,387.11l-14.16-13.3-13.19,10.37c-4.14,3.26-4.14,3.26-8.67.62-14.29-8.34-19.46-26.42-11.3-39.87,4.53-7.48,11.68-11.53,19.68-14.17,4.34-1.43,8.87-2.31,13.61-3.52,0-2.85,0-6,0-9.14a1.89,1.89,0,0,0-.61-1.27c-3.55-2.89-7.15-5.73-10.78-8.63-1.38,1.22-2.52,2.3-3.74,3.29-6.5,5.26-15,4.09-19.3-2.65l9.35-8.95c1,1.11,2.11,2.94,3.72,4,3.6,2.31,7.45,1.71,10.71-.67,2.57-1.88,4.65-4.44,6.91-6.74.74-.76,1.36-1.65,2.2-2.69l25,17.46c-3.21,3.21-3.55,7.16-3.56,11.13-.07,13.07,0,26.15,0,39.23a10.34,10.34,0,0,0,6.65,9.65c.58.23,1.17.44,2,.75Zm-14-56.26a20.32,20.32,0,0,0-13.09,9.13c-3.61,5.67-4.28,11.94-3.56,18.45a18.64,18.64,0,0,0,6.76,13c3.82,3.1,3.75,3,7.73.25a4.71,4.71,0,0,0,2.22-4.42c-.11-11.28-.06-22.57-.06-33.85Z" transform="translate(-36.24 -241.36)"/><path d="M622.82,310.16c0,6,0,12,0,18a2,2,0,0,0,.86,1.34c2.26,1.53,4.56,3,7,4.52,1.8-1.64,3.57-3.19,5.25-4.83a1.67,1.67,0,0,1,2.43-.22c5.48,3.43,11,6.76,16.47,10.24a3.08,3.08,0,0,1,1.14,2.2c.09,5.53,0,11.07,0,16.6,0,4.24.2,5,2.27,8.56-1,.85-2,1.74-3,2.61-6.53,5.52-13.08,11-19.57,16.58a2,2,0,0,1-2.93.18c-7.79-5.11-16.2-7-25.2-3.93-2.86,1-5.37,3-8.08,4.44a8,8,0,0,1-2.06.47,7,7,0,0,1-.18-1.91,72.89,72.89,0,0,1,17.39-34.36c.81-.89,1.55-1.84,2.47-2.93-4.33-2.72-8.43-5.35-12.6-7.86A2.92,2.92,0,0,1,602.9,337c.09-5,.06-10.06,0-15.09,0-3.83-.4-4.94-2.57-8.07l30.32-20.06c6.35,7.66,14.4,10.05,24.25,7.38-2.49,7.28-5.75,13.25-13.28,15.23s-13.58-.34-18.33-6.5ZM625.28,343c-8.37,8.79-16.19,17.71-20.85,28.9,9.79-8,20.18-10.18,31.76-3.51,0-6,0-11.78,0-17.52a2.38,2.38,0,0,0-1-1.66C632,347.15,628.73,345.18,625.28,343Z" transform="translate(-36.24 -241.36)"/><path d="M687.9,275v26h16.87c-2,4.08-3.71,7.74-5.56,11.34-.19.38-1.11.52-1.69.53-3.09.05-6.17,0-9.58,0v2.46c0,16.46,0,32.92,0,49.38a3,3,0,0,0,1.87,3.17c3.6,1.7,7.13,3.55,11.12,5.56-.64.52-1.54,1.18-2.35,1.93-3.78,3.53-7.51,7.11-11.33,10.59a2.15,2.15,0,0,1-1.92.42c-6.77-4.19-13.49-8.47-20.49-12.9,4.44-4.64,3.25-10.36,3.28-15.79.09-13.94,0-27.89,0-41.83V313H657.18c1.85-3.95,3.51-7.58,5.28-11.17a2.18,2.18,0,0,1,1.56-.77c1.27-.11,2.55,0,4.09,0,0-4.27.07-8.35,0-12.42a2.84,2.84,0,0,1,1.65-2.89c5.41-3.12,10.74-6.37,16.11-9.57C686.43,275.79,687,275.46,687.9,275Z" transform="translate(-36.24 -241.36)"/><path d="M238,369.36c3-2.45,3.68-5.67,3.67-9.17,0-14.23,0-28.46,0-42.68a3.81,3.81,0,0,1,2.09-3.77c10.72-6.55,21.37-13.21,32.32-20l16.77,26c-4.29,3.2-8.53,6.38-12.79,9.55-5.7,4.24-11.44,8.44-17.08,12.77a4.12,4.12,0,0,0-1.4,2.79c-.13,5.46,0,10.92-.1,16.38a3,3,0,0,0,1.64,2.94c4.05,2.46,8.07,5,12,7.61a2.3,2.3,0,0,0,3.2-.18c2.53-2,5.17-3.88,8.09-6.05l1.87,2.16c-4.71,3.65-9.28,7.21-13.87,10.75-3.24,2.5-6.51,5-9.73,7.49-.81.63-1.43.94-2.44.24-7.85-5.43-15.75-10.8-23.63-16.2A5.73,5.73,0,0,1,238,369.36Zm23.6-30.73a5.74,5.74,0,0,0,.94-.44c3.78-2.85,7.52-5.77,11.35-8.56,1.18-.86.82-1.56.25-2.5q-5.79-9.58-11.53-19.2a10.74,10.74,0,0,0-1-1.16Z" transform="translate(-36.24 -241.36)"/><path d="M743.47,293.79c5.51,8.64,11,17.22,16.57,26l-10.54,7.87c-6.39,4.77-12.77,9.55-19.19,14.27a3.1,3.1,0,0,0-1.48,2.81c.08,5.68,0,11.35.09,17a3.06,3.06,0,0,0,1.16,2.19c4.12,2.75,8.35,5.33,12.49,8a2,2,0,0,0,2.67-.13c2.65-2.07,5.38-4,8.24-6.16l2,2.08-6,4.66q-8.68,6.73-17.36,13.48c-.76.59-1.34,1.11-2.41.37-7.91-5.48-15.86-10.89-23.8-16.33-.11-.07-.17-.22-.4-.55,4.1-3.51,3.49-8.41,3.51-13.1q.08-19.61,0-39.21a3.26,3.26,0,0,1,1.8-3.23c10.3-6.28,20.54-12.65,30.8-19C742.15,294.52,742.71,294.22,743.47,293.79Zm-1.19,34.92c-4.36-7.38-8.65-14.62-12.94-21.87L729,307v31.8Z" transform="translate(-36.24 -241.36)"/><path d="M473.07,293.75c5.56,8.71,11,17.29,16.59,26l-14.75,11c-5,3.74-10,7.5-15.06,11.18a3.11,3.11,0,0,0-1.44,2.85c.07,5.6,0,11.21.09,16.82a3.36,3.36,0,0,0,1.27,2.35c4.06,2.71,8.24,5.24,12.32,7.93a2.11,2.11,0,0,0,2.86-.1c2.67-2.06,5.42-4,8.31-6.14l2,2.28a13.84,13.84,0,0,0-1.37.8c-7.39,5.72-14.75,11.46-22.18,17.13a2.64,2.64,0,0,1-2.33.32c-8-5.36-15.92-10.82-23.86-16.26a3.19,3.19,0,0,1-.42-.54c3.75-3.1,3.54-7.47,3.53-11.79,0-13.44,0-26.88,0-40.32a3.46,3.46,0,0,1,1.85-3.44c10.13-6.16,20.19-12.42,30.27-18.64C471.42,294.74,472.15,294.31,473.07,293.75ZM471.9,328.7l-13.26-22.4v32.47Z" transform="translate(-36.24 -241.36)"/><path d="M820.12,304.39c-2.21,6.11-5.78,10.45-11.79,12.31-8.21,2.54-13.94-1.42-19-7.93-.08,1.13-.17,1.79-.17,2.45,0,17.47,0,34.93,0,52.39a3.47,3.47,0,0,0,1.88,3.47c2.9,1.66,5.71,3.46,8.79,5.35L786.06,387l-20.4-14.48c4.47-3.84,3.63-8.89,3.64-13.7,0-13.58,0-27.17,0-40.75a10,10,0,0,0-6.69-9.08c-.61-.19-1.24-.32-2.2-.57l15-14.05L789,306.7c3.69-4.31,7.3-8.52,11-12.89C805.14,300.27,811.45,304.22,820.12,304.39Z" transform="translate(-36.24 -241.36)"/><path d="M1146.78,309.2v2.06c0,17.54,0,35.08,0,52.62a3.14,3.14,0,0,0,1.68,3.11c2.94,1.73,5.82,3.55,8.9,5.45L1143.47,387l-20.1-14.37c3.86-3.16,3.57-7.49,3.58-11.7,0-14.95,0-29.9,0-44.86a3.84,3.84,0,0,0-1.72-3.63c-2.28-1.51-4.54-3.07-6.55-4.43l13.9-13.86c4.36,3.91,9,8.1,13.91,12.44l10.89-12.74c5,6.48,11.42,10.2,20,10.47-2,5.59-5.1,9.66-10.45,11.79-8.58,3.4-14.68-.34-19.67-7.18Z" transform="translate(-36.24 -241.36)"/><path d="M332.86,330.86c-5.08-.62-7.11.49-9.47,5.27-2.46-3.68-3.4-7.46-2.44-11.45,1.46-6.06,6.34-7.43,12.05-7.79,0-2.16.18-4.29,0-6.39-1.54-15.76,6.87-25.68,19.34-33.28l1.48-.87a6.5,6.5,0,0,0,.41-.57c-3.91-1-7.63-2-11.39-2.9a34.23,34.23,0,0,0-6-.77,16.11,16.11,0,0,0-12.7,4.55,10.83,10.83,0,0,1,.2-2c3.48-12.05,13.77-17.73,26.43-14.57,1.74.44,3.43,1,5.15,1.56,6.77,2.07,13.38,2,19.86-1.2.59-.3,1.65.31,2.49.5l0,.64c-5.36,4.11-10.76,8.14-16,12.34a69.91,69.91,0,0,0-7.82,7.06,22.88,22.88,0,0,0-6.09,16.12q.06,22.31,0,44.63a38.87,38.87,0,0,1-.47,6.65A16.7,16.7,0,0,1,340.61,360a140,140,0,0,1-12.86,6.87c-.37.2-1-.05-1.47-.1.14-.48.13-1.13.45-1.43,5-4.65,6.11-10.68,6.12-17.11C332.86,342.45,332.86,336.71,332.86,330.86Z" transform="translate(-36.24 -241.36)"/><path d="M559,308l13.8-14.31,18.47,14.37c-3.29,2.92-3.49,6.67-3.5,10.42q-.06,23.39,0,46.77a3.15,3.15,0,0,0,1.17,2.26c2.5,1.69,5.15,3.19,7.95,4.89L583.05,387,564,373.17c3.78-2.6,3.75-6.42,3.75-10.26,0-15.3-.06-30.6,0-45.91,0-2.39-.52-4.15-2.61-5.35S561.16,309.31,559,308Z" transform="translate(-36.24 -241.36)"/><path d="M849.08,328.58c.27.31.46.44.44.51-1.54,6.16-3.76,12-9.22,15.76-3.68,2.57-7.81,1.93-11.85,1.06a18,18,0,0,1-4-1.42c-5.51-2.67-10.74-3.11-15.71,2-.06-.85-.24-1.34-.1-1.69,1.48-3.55,2.54-7.39,4.64-10.52,3.83-5.71,10.56-7.17,18.16-4.62,1.83.61,3.57,1.47,5.38,2.17a9.93,9.93,0,0,0,10.31-1.55C847.76,329.76,848.39,329.18,849.08,328.58Z" transform="translate(-36.24 -241.36)"/><path d="M577.82,284,563.5,272.43l11.71-13.66L590,270.48Z" transform="translate(-36.24 -241.36)"/><path class="cls-1" d="M928.55,380.56v-2.32c0-18.89,0-37.77,0-56.66,0-1.65.45-2.29,2.12-2.7,11.6-2.87,19.46,4.8,23.1,12.76,3.19,7,3.27,14.34,2.71,21.75a52.55,52.55,0,0,1-1.54,9.32c-3,11.48-9.49,16.85-21.31,17.83C932,380.67,930.45,380.56,928.55,380.56Z" transform="translate(-36.24 -241.36)"/><path class="cls-1" d="M925.41,380.29c-13.81-2-24.58-8.4-32.63-19.83,3.91-2.68,7.77-5.15,11.44-7.89a103.5,103.5,0,0,0,10.14-8.29c4-3.82,5.53-8.79,5.45-14.28,0-.79,0-1.58,0-2.37,0-4.46.91-5.59,5.6-6.84Z" transform="translate(-36.24 -241.36)"/><path class="cls-1" d="M919.81,319V308.27c0-9,.08-18-.06-26.93,0-2.2.57-3.67,2.47-4.73a32.65,32.65,0,0,0,3.2-2.32c.06,1.17.12,1.92.12,2.67,0,11.71,0,23.41.06,35.12,0,2-.48,3.38-2.28,4.35A36.71,36.71,0,0,0,919.81,319Z" transform="translate(-36.24 -241.36)"/><path class="cls-1" d="M382.23,273.45c7.54,2.37,14.31,5.59,19,12.05,5.4,7.38,5.34,18.35-.14,25.37-4,5.14-9.65,7.52-15.79,9-.77.18-1.55.31-2.32.43a3.19,3.19,0,0,1-.77-.05Z" transform="translate(-36.24 -241.36)"/><path class="cls-1" d="M356,363.68c3.1-2,6.3-3.78,9.24-5.94,5.42-4,7.85-9.55,7.84-16.23q0-7.22,0-14.44c0-.7.06-1.4.1-2.23H379v41.79c-3.86-.78-7.65-1.76-11.51-2.25S359.78,363.89,356,363.68Z" transform="translate(-36.24 -241.36)"/><path class="cls-1" d="M379,320.67h-5.66a10.78,10.78,0,0,1-.21-1.45c0-10.69,0-21.38,0-32.08A15.4,15.4,0,0,1,377,276.27a12.72,12.72,0,0,1,1.25-1.18,3,3,0,0,1,.69-.27Z" transform="translate(-36.24 -241.36)"/><path class="cls-1" d="M103.38,362.08c6.26-4.17,12.31-8.05,18.17-12.18a44.31,44.31,0,0,0,7.06-6.28,18.71,18.71,0,0,0,4.69-13.08v-40.6l6.91.47v2.94q0,37.63,0,75.25c0,2.1-.44,2.88-2.71,3.18-8.11,1.09-16,1.18-23.66-2.33A35.34,35.34,0,0,1,103.38,362.08Z" transform="translate(-36.24 -241.36)"/><path class="cls-1" d="M515.12,307.92c1.55.93,2.82,1.67,4.07,2.45,3.48,2.16,7,4.27,10.38,6.55a3.62,3.62,0,0,1,1.44,2.5q.12,24.58,0,49.16c0,2.48-1.63,3.43-3.74,2.29-3.6-2-7.18-3.93-10.79-5.86a2.5,2.5,0,0,1-1.58-2.48c.06-17.75,0-35.5,0-53.26C515,309,515.05,308.71,515.12,307.92Z" transform="translate(-36.24 -241.36)"/><path class="cls-1" d="M1202.22,301.48c4.39,3.93,8.37,7.44,12.26,11a3.11,3.11,0,0,1,.77,2.09c0,18,.06,35.93,0,53.89,0,1.31-1.06,2.62-1.74,4.18-4.92-3.15-9.39-6-13.81-8.9a2.28,2.28,0,0,1-.61-1.67c0-18.54-.1-37.08.11-55.62C1199.17,304.87,1201.07,303.27,1202.22,301.48Z" transform="translate(-36.24 -241.36)"/><path class="cls-1" d="M1089.91,330.85v2.59c0,11.28-.05,22.57.06,33.85a4.71,4.71,0,0,1-2.22,4.42c-4,2.78-3.91,2.85-7.73-.25a18.64,18.64,0,0,1-6.76-13c-.72-6.51,0-12.78,3.56-18.45A20.32,20.32,0,0,1,1089.91,330.85Z" transform="translate(-36.24 -241.36)"/><path class="cls-1" d="M625.28,343c3.45,2.16,6.7,4.13,9.87,6.21a2.38,2.38,0,0,1,1,1.66c.07,5.74,0,11.48,0,17.52-11.58-6.67-22-4.52-31.76,3.51C609.09,360.73,616.91,351.81,625.28,343Z" transform="translate(-36.24 -241.36)"/><path class="cls-1" d="M261.61,338.63V306.77a10.74,10.74,0,0,1,1,1.16q5.76,9.6,11.53,19.2c.57.94.93,1.64-.25,2.5-3.83,2.79-7.57,5.71-11.35,8.56A5.74,5.74,0,0,1,261.61,338.63Z" transform="translate(-36.24 -241.36)"/><path class="cls-1" d="M742.28,328.71,729,338.78V307l.35-.14C733.63,314.09,737.92,321.33,742.28,328.71Z" transform="translate(-36.24 -241.36)"/><path class="cls-1" d="M471.9,328.7l-13.26,10.07V306.3Z" transform="translate(-36.24 -241.36)"/></svg>