<?xml version="1.0" encoding="utf-8"?>
<!-- Generator: Adobe Illustrator 22.0.0, SVG Export Plug-In . SVG Version: 6.00 Build 0)  -->
<svg version="1.1" id="Layer_1" xmlns="http://www.w3.org/2000/svg" xmlns:xlink="http://www.w3.org/1999/xlink" x="0px" y="0px"
	 viewBox="0 0 294.1 270" style="enable-background:new 0 0 294.1 270;" xml:space="preserve">
<style type="text/css">
	.st0{fill:#FFFFFF;}
	.st1{clip-path:url(#SVGID_2_);fill:none;stroke:#00A88E;stroke-width:1.661;}
	.st2{clip-path:url(#SVGID_2_);}
	.st3{fill:none;stroke:#000000;stroke-width:0.208;}
</style>
<g>
	<rect x="17.2" y="24.5" class="st0" width="259.3" height="225.1"/>
	<g>
		<defs>
			<rect id="SVGID_1_" x="17.2" y="28.5" width="259.3" height="217.1"/>
		</defs>
		<clipPath id="SVGID_2_">
			<use xlink:href="#SVGID_1_"  style="overflow:visible;"/>
		</clipPath>
		<path class="st1" d="M89.6,62.4c3.6,6,8.4,11.9,14.1,17.5c10.8,10.5,25,20,41.7,27.1c25.6,10.9,51.4,13.6,70.9,9.2 M188.4,56.1
			c-5,1.2-12.5,0.3-20.2-3c-11.9-5.1-19.5-13.7-17.2-19.3c0.3-0.6,0.7-1.2,1.1-1.7 M194.5,50c0,0.7-0.2,1.4-0.4,2.1
			c-0.9,2-2.9,3.4-5.6,4 M174.2,55.4c0.9,25-7,70.2-46.8,114 M162.7,50.4c-18.5,16.7-45.6,53.8-49.5,112.8 M188.3,56.2
			c8.2,15.7,11.9,44.9,4.8,62.6c0,0-9.4,35.4-51.7,53.3 M152.1,40.9c-16.9,5.1-40.4,22.7-48.2,40c0,0-19,31.3-2.4,74.2 M77.8,93.6
			c9.4,17.9,28.7,35,53.9,45.7c25.1,10.7,50.7,12.7,70.1,7.1 M118.5,38.4c5.2,14.2,20,28.6,40.3,37.1c20.3,8.6,40.9,9.3,54.7,3.2
			 M120.1,166.8c35.7,15.1,76.9-1.5,92-37.2c15.1-35.7-1.5-76.9-37.2-92c-35.7-15.1-76.9,1.5-92,37.2
			C67.8,110.4,84.4,151.6,120.1,166.8L120.1,166.8z"/>
		<path class="st2" d="M278.6,56.1V32h-24.1v24.1h17.1c0,9.4-7.7,17.1-17.1,17.1v7C267.8,80.1,278.6,69.4,278.6,56.1"/>
		<path class="st2" d="M247.8,56.1V32h-24.1v24.1h17.1c0,9.4-7.7,17.1-17.1,17.1v7C237,80.1,247.8,69.4,247.8,56.1"/>
		<path class="st2" d="M16.5,52.5v24.1h24.1V52.5H23.4c0-9.4,7.7-17.1,17.1-17.1v-7C27.3,28.5,16.5,39.2,16.5,52.5"/>
		<path class="st2" d="M47.3,52.5v24.1h24.1V52.5H54.3c0-9.4,7.7-17.1,17.1-17.1v-7C58.1,28.5,47.3,39.2,47.3,52.5"/>
	</g>
	<path d="M110.6,245.5H96.8v-44.1h18c4.3,0,9.1,0.1,13,2.3c4.1,2.4,6.5,6.8,6.5,11.6c0,4.2-1.6,8.2-4.9,10.8
		c-3.4,2.8-7.8,3.4-12,3.4h-6.9V245.5 M114.1,220.1c3.1,0,6.8-0.2,6.8-4.3c0-3.9-3.3-4.2-6.4-4.2h-3.9v8.6H114.1"/>
	<path d="M162.3,245.5l-6.4-16.8h-4.2v16.8H138v-44.1h22.4c3.9,0,8.1,0.5,11.4,2.7c3.7,2.3,5.4,6.2,5.4,10.5c0,5.8-2.6,9.3-7.8,11.7
		l8,19.2H162.3 M156.6,219.2c3,0,6.5-0.5,6.5-4.3c0-1.5-0.8-2.9-2.1-3.6c-1.2-0.6-2.6-0.6-3.9-0.6h-5.5v8.4H156.6"/>
	<rect x="182.1" y="201.4" width="13.6" height="44.1"/>
	<path d="M211.9,209.6l-1.6-3.8h-2.4v3.8h-1.1V201h3.2c0.7,0,1.4,0.1,2,0.5c0.6,0.4,0.9,1.2,0.9,1.9c0,1-0.6,1.9-1.6,2.2l1.7,4
		H211.9 M209.9,205c0.6,0,1.1,0,1.5-0.5c0.3-0.3,0.5-0.7,0.5-1.1c0-0.5-0.2-0.9-0.6-1.2c-0.4-0.3-0.7-0.3-1.2-0.3h-2.2v3.1H209.9"/>
	<path class="st3" d="M209.5,199c3.4,0,6.2,2.8,6.2,6.2c0,3.4-2.8,6.2-6.2,6.2c-3.4,0-6.2-2.8-6.2-6.2
		C203.3,201.8,206.1,199,209.5,199L209.5,199z"/>
</g>
</svg>
