<svg xmlns="http://www.w3.org/2000/svg" viewBox="0 0 544.67 82.25"><defs><style>.cls-1{fill:#fefefe;}.cls-2{fill:#08345b;}.cls-3{fill:#ec1834;}.cls-4{fill:#f48493;}.cls-5{fill:#fbd4d9;}.cls-6{fill:#f15469;}</style></defs><title>newsday</title><g id="Layer_2" data-name="Layer 2"><g id="Layer_1-2" data-name="Layer 1"><path class="cls-1" d="M.19,62.24q0-30.41,0-60.83C.16.39.4.16,1.42.16Q193,.2,384.49.18a2.13,2.13,0,0,1,.39,1.54q0,11,0,21.91c0,.14,0,.27,0,.41-.12,1.29-.48,1.52-1.49.76-4.44-3.31-9.6-4.1-14.91-4.34A35.58,35.58,0,0,0,353,23c-5.44,2.26-9.9,5.7-12.22,11.21-3.29,7.81-3.11,15.61,1.51,22.91,3,4.69,7.5,7.43,12.8,8.85a39.73,39.73,0,0,0,23.05-.61,16.34,16.34,0,0,0,6-3.57c1-.89,1.35-.79,1.8.46a28,28,0,0,1,.93,3.27,1.45,1.45,0,0,0,1.63,1.27c5.76,0,11.52,0,17.28,0,1.24,0,1.45-.24,1.26-1.48a59,59,0,0,1-.44-8.68q0-27,0-54a3.38,3.38,0,0,1,.39-2.36q68.23,0,136.47,0c1,0,1.28.15,1.28,1.22q-.06,39.87,0,79.73c0,1.17-.32,1.29-1.36,1.29q-271,0-542.07,0c-1,0-1.26-.24-1.25-1.25.06-5.58,0-11.16,0-16.74a.64.64,0,0,1,.67.36c2,3.27,5.32,4.68,8.67,6,6.85,2.68,14.06,3.84,21.28,4.92,5.87.88,11.78,1.44,17.69,1.84,4.06.28,8.13.48,12.2.65,9,.39,17.94.36,26.9.19,6.69-.12,13.39-.09,20.07-.62a24.51,24.51,0,0,0,3.33-.11,8.38,8.38,0,0,1,1.3,0,6.56,6.56,0,0,0-1.76.12,42.87,42.87,0,0,0-4.42.09,77.79,77.79,0,0,1-8.41.28c-4,.11-8.07.1-12.1,0-6.43-.14-12.85-.38-19.27-.75-7.92-.47-15.81-1.13-23.66-2.25a106.19,106.19,0,0,1-20.93-4.69,29.46,29.46,0,0,1-6.82-3.34,9,9,0,0,1-2.08-1.94,4.62,4.62,0,0,1-.28-5.57,13.92,13.92,0,0,1,4.82-4.31,49.49,49.49,0,0,1,9.26-4.33c-.3-.11-.54-.09-.73-.18-2.61-1.31-5.09-.58-7.6.38A68,68,0,0,0,6.21,56.58,14.62,14.62,0,0,0,.89,61.71C.74,62,.6,62.3.19,62.24Z" transform="translate(-0.16 -0.16)"/><path class="cls-2" d="M407.08.18q0,29.73,0,59.46a44.34,44.34,0,0,0,.56,6.36c.11.75-.06,1-.89,1q-9.46,0-18.91,0c-.78,0-1-.35-1.17-1-.43-1.61-.9-3.21-1.38-4.89-3.72,4-8.52,5.34-13.56,6.06a39.08,39.08,0,0,1-18.26-1.39c-9.91-3.35-15.83-11.68-15.14-23.37.68-11.48,8.25-19,19.8-21.54a39,39,0,0,1,19,.42,16.66,16.66,0,0,1,7.21,3.8c.1-.09.21-.15.21-.2q0-12.38,0-24.76Z" transform="translate(-0.16 -0.16)"/><path class="cls-3" d="M.19,62.24c1.54-3.5,4.57-5.38,7.73-7.08a80.57,80.57,0,0,1,14-5.58,1.8,1.8,0,0,1,1.06-.1l4.82,1.4A71.24,71.24,0,0,0,19,54.8a20,20,0,0,0-5.23,3.85c-2.27,2.5-2.17,5,.34,7.24s5.61,3.46,8.75,4.51A117.48,117.48,0,0,0,45.11,75C65.34,77.65,85.68,78,106,77.71c.64,0,1.36-.5,1.89.27a469.91,469.91,0,0,1-56.65.11,202.48,202.48,0,0,1-33.49-4.4A53.71,53.71,0,0,1,6.24,69.8c-2.51-1.23-4.76-2.77-6-5.38Z" transform="translate(-0.16 -0.16)"/><path class="cls-2" d="M81.26,35.26V33.88c0-10.57,0-21.14,0-31.71C81.23,1.1,81.4.7,82.6.72c6.85.07,13.7.05,20.55,0,.94,0,1.22.23,1.22,1.2q0,32,0,64c0,1.06-.32,1.26-1.3,1.25q-11.09-.06-22.18,0a2.2,2.2,0,0,1-2-1Q66.52,49.45,54.12,32.83c-.21-.29-.44-.57-.74-.95a2.74,2.74,0,0,0-.17,1.47c0,10.8,0,21.59,0,32.39,0,1.16-.33,1.4-1.43,1.4q-10.14-.08-20.28,0c-1.07,0-1.45-.17-1.45-1.36q.06-31.84,0-63.69c0-1,.17-1.38,1.3-1.37Q43,.8,54.53.73a2.27,2.27,0,0,1,2.11,1.06Q68.36,18,80.15,34.11C80.43,34.49,80.61,35,81.26,35.26Z" transform="translate(-0.16 -0.16)"/><path class="cls-2" d="M172,20.9c7.43,0,14.81,0,22.2,0,.88,0,.9.61,1.07,1.13q3.86,11.66,7.7,23.32c.5,1.52,1,3,1.66,4.93l4.86-16.2c1.2-4,2.4-8,3.56-12,.24-.84.54-1.24,1.54-1.23,7.48.06,15,0,22.45,0,.84,0,1.15.26,1.39,1.06q4.1,13.5,8.29,27c.1.34.23.67.44,1.26L251.93,35Q254,28.45,256,21.91c.18-.58.29-1,1.12-1,7,0,14.06,0,21.08,0,.14.54-.17.91-.34,1.32q-9,21.89-18,43.79a1.5,1.5,0,0,1-1.66,1.13q-11.57-.06-23.13,0a1.4,1.4,0,0,1-1.58-1.06c-2.32-6.18-4.77-12.31-7-18.54a46.14,46.14,0,0,1-1.37-7,7.18,7.18,0,0,0-.53,2.52,39.42,39.42,0,0,1-2.54,8.85c-1.75,4.75-3.55,9.49-5.3,14.24-.24.65-.51,1-1.33,1-8,0-16,0-23.95,0a1.09,1.09,0,0,1-1.2-.79q-9.14-22.5-18.33-45A1.9,1.9,0,0,1,172,20.9Z" transform="translate(-0.16 -0.16)"/><path class="cls-2" d="M476.56,67.12c-6.94,0-13.83,0-20.72,0a1,1,0,0,1-1.12-.92c-.21-.92-.38-1.85-.6-2.9A28.7,28.7,0,0,1,442.59,67c-7.45.94-14.91,1.29-22.27-.69a15.74,15.74,0,0,1-7.22-3.87,9.25,9.25,0,0,1-2.81-6.15c-.44-6.73,1.82-10.66,7.89-13.63,4.75-2.32,9.86-3.25,15.05-3.81a99.35,99.35,0,0,1,18.74,0c1.74.14,1.76.1,1.36-1.62a4.84,4.84,0,0,0-3.27-3.7,18.9,18.9,0,0,0-11.89,0,5.21,5.21,0,0,0-3.29,3.05,1.08,1.08,0,0,1-1.23.74c-6.48,0-13,0-19.45,0-1,0-1.09-.26-.95-1.17,1-6.47,5-10.44,10.73-13a37.78,37.78,0,0,1,12.36-2.94,76.17,76.17,0,0,1,23.14,1,31,31,0,0,1,7.16,2.49c5.47,2.71,8.34,7.09,8.81,13.2.32,4.13.14,8.25.16,12.37,0,5-.22,10,.3,14.95A29.18,29.18,0,0,0,476.56,67.12Z" transform="translate(-0.16 -0.16)"/><path class="cls-2" d="M153.17,48.63c-7.21,0-14.42,0-21.63,0-1.19,0-1.34.33-1,1.36a6.66,6.66,0,0,0,3.81,4.35c3.74,1.62,7.67,1.62,11.62,1.26a13.33,13.33,0,0,0,5.19-1.46,4.16,4.16,0,0,0,1.92-1.46c.66-1.33,1.74-1.28,2.93-1.27,6.12,0,12.24,0,18.36,0,1.49,0,1.52,0,1,1.46a19.66,19.66,0,0,1-9.85,10.77,37.58,37.58,0,0,1-13.4,3.72A73.7,73.7,0,0,1,129,66.58c-6.24-1.3-11.94-3.68-16.16-8.75-8.48-10.21-5.54-25.63,6.19-32.62a39.5,39.5,0,0,1,16.33-5.07,57.74,57.74,0,0,1,21.05,1.25,29,29,0,0,1,13.13,7.06c5.48,5.32,7.11,12,6.74,19.37,0,1-.62.81-1.19.81Z" transform="translate(-0.16 -0.16)"/><path class="cls-2" d="M285.45,51.85c3.31,0,6.62,0,9.93,0,.68,0,1.15,0,1.27.92a3.21,3.21,0,0,0,2.74,2.66,34.15,34.15,0,0,0,8.65.65,19.73,19.73,0,0,0,5.79-.6,2.94,2.94,0,0,0,1.78-1.16c.67-1.06.24-2.12-1.15-2.65a34.87,34.87,0,0,0-7-1.39c-6.53-1-13.15-1.49-19.6-3a19.42,19.42,0,0,1-9.3-4.49,11.4,11.4,0,0,1,.4-16.79A21.8,21.8,0,0,1,289,21.26a74.88,74.88,0,0,1,33.28.44A21.67,21.67,0,0,1,331,25.91,12.61,12.61,0,0,1,335.59,35c.06.65-.11.87-.78.87q-9.93,0-19.86,0c-.57,0-.9-.11-1-.75a2.84,2.84,0,0,0-2.32-2.22,31.17,31.17,0,0,0-12.81-.17c-.92.16-1.76.59-1.78,1.73s.83,1.52,1.74,1.77a80.79,80.79,0,0,0,9.38,1.52c6.13.91,12.35,1.3,18.35,3a20.39,20.39,0,0,1,7,3.26A11.67,11.67,0,0,1,333.85,62a22.63,22.63,0,0,1-11.37,4.8,91.24,91.24,0,0,1-35-.75A20.08,20.08,0,0,1,279,62a13,13,0,0,1-4.67-9.19c-.08-.8.18-1,.94-1C278.65,51.87,282.05,51.85,285.45,51.85Z" transform="translate(-0.16 -0.16)"/><path class="cls-2" d="M544.53,20.9l-6.15,11.77Q525.94,56.5,513.52,80.34a2.07,2.07,0,0,1-2.17,1.3c-7.34-.05-14.69,0-22,0-.25-.52.14-.82.31-1.14,2.09-4,4.17-7.93,6.32-11.86a2.17,2.17,0,0,0,0-2.35q-11.61-22-23.16-44c-.21-.39-.39-.8-.58-1.19.29-.34.63-.19.91-.19,7.21,0,14.42,0,21.63,0A1.53,1.53,0,0,1,496.43,22c4,8.93,8,17.84,12,26.75a1.74,1.74,0,0,0,.3.34q4.85-10.87,9.66-21.66,1.27-2.85,2.47-5.73c.21-.5.39-.82,1-.82C529.33,20.91,536.81,20.9,544.53,20.9Z" transform="translate(-0.16 -0.16)"/><path class="cls-4" d="M107.93,78c-.58-.45-1.28,0-1.89-.27a21,21,0,0,1,4.68-.18.5.5,0,0,1,.28.25C110,78.37,108.94,77.76,107.93,78Z" transform="translate(-0.16 -0.16)"/><path class="cls-5" d="M114.54,77.66c.81-.79,1.64-.28,2.39-.39A4.62,4.62,0,0,1,114.54,77.66Z" transform="translate(-0.16 -0.16)"/><path class="cls-6" d="M111,77.78l-.28-.25a7.5,7.5,0,0,1,2.37.08A6.88,6.88,0,0,1,111,77.78Z" transform="translate(-0.16 -0.16)"/><path class="cls-1" d="M373,33.75a22.52,22.52,0,0,1,4.72.53c6.42,1.64,9.33,8.3,6.38,14.56a8.45,8.45,0,0,1-5.37,4.66,19.45,19.45,0,0,1-11.12.14c-5.53-1.55-7.34-6-6.66-11.34.64-5,3.8-7.75,9.21-8.34C371.1,33.85,372.05,33.82,373,33.75Z" transform="translate(-0.16 -0.16)"/><path class="cls-1" d="M444.87,47.58a31.73,31.73,0,0,1,8.07.8c.78.18.89.48.58,1.18-1.65,3.74-4.81,5.38-8.57,6.08a23.7,23.7,0,0,1-8.37.06c-2-.34-3.12-1.18-3.33-2.5a4.06,4.06,0,0,1,2.24-4,15.63,15.63,0,0,1,6.8-1.59C443.15,47.52,444,47.58,444.87,47.58Z" transform="translate(-0.16 -0.16)"/><path class="cls-1" d="M142.19,39.22c-3.57,0-7.15-.05-10.72,0-1.26,0-1.21-.42-.82-1.32a8.41,8.41,0,0,1,5.51-4.85,19.82,19.82,0,0,1,13.41.28A6.88,6.88,0,0,1,154,38c.27.91.13,1.27-.94,1.26C149.43,39.18,145.81,39.22,142.19,39.22Z" transform="translate(-0.16 -0.16)"/></g></g></svg>