<?xml version="1.0" encoding="utf-8"?>
<!-- Generator: Adobe Illustrator 22.0.0, SVG Export Plug-In . SVG Version: 6.00 Build 0)  -->
<svg version="1.1" id="Layer_1" xmlns="http://www.w3.org/2000/svg" xmlns:xlink="http://www.w3.org/1999/xlink" x="0px" y="0px"
	 viewBox="0 0 356.1 355" style="enable-background:new 0 0 356.1 355;" xml:space="preserve">
<style type="text/css">
	.st0{fill:#FFFFFF;}
	.st1{clip-path:url(#SVGID_2_);fill:none;stroke:#00A88E;stroke-width:1.661;}
	.st2{clip-path:url(#SVGID_4_);}
	.st3{clip-path:url(#SVGID_6_);}
	.st4{clip-path:url(#SVGID_8_);}
	.st5{clip-path:url(#SVGID_10_);}
	.st6{fill:none;stroke:#000000;stroke-width:0.208;}
</style>
<g>
	<rect x="48.2" y="70.2" class="st0" width="259.3" height="225.1"/>
	<g>
		<g>
			<defs>
				<rect id="SVGID_1_" x="48.2" y="74.2" width="259.3" height="217.1"/>
			</defs>
			<clipPath id="SVGID_2_">
				<use xlink:href="#SVGID_1_"  style="overflow:visible;"/>
			</clipPath>
			<path class="st1" d="M120.6,108.1c3.6,6,8.4,11.9,14.1,17.5c10.8,10.5,25,20,41.7,27.1c25.6,10.9,51.4,13.6,70.9,9.2
				 M219.4,101.8c-5,1.2-12.5,0.3-20.2-3c-11.9-5.1-19.5-13.7-17.2-19.3c0.3-0.6,0.7-1.2,1.1-1.7 M225.5,95.7c0,0.7-0.2,1.4-0.4,2.1
				c-0.9,2-2.9,3.4-5.6,4 M205.2,101.1c0.9,25-7,70.2-46.8,114 M193.7,96.1c-18.5,16.7-45.6,53.8-49.5,112.8 M219.3,101.9
				c8.2,15.7,11.9,44.9,4.8,62.6c0,0-9.4,35.4-51.7,53.3 M183.1,86.6c-16.9,5.1-40.4,22.7-48.2,40c0,0-19,31.3-2.4,74.2
				 M108.8,139.3c9.4,17.9,28.7,35,53.9,45.7c25.1,10.7,50.7,12.7,70.1,7.1 M149.5,84.1c5.2,14.2,20,28.6,40.3,37.1
				c20.3,8.6,40.9,9.3,54.7,3.2 M151.1,212.5c35.7,15.1,76.9-1.5,92-37.2s-1.5-76.9-37.2-92s-76.9,1.5-92,37.2
				C98.8,156.1,115.4,197.3,151.1,212.5L151.1,212.5z"/>
		</g>
		<g>
			<defs>
				<rect id="SVGID_3_" x="48.2" y="74.2" width="259.3" height="217.1"/>
			</defs>
			<clipPath id="SVGID_4_">
				<use xlink:href="#SVGID_3_"  style="overflow:visible;"/>
			</clipPath>
			<path class="st2" d="M309.6,101.8V77.7h-24.1v24.1h17.1c0,9.4-7.7,17.1-17.1,17.1v7C298.8,125.8,309.6,115.1,309.6,101.8"/>
		</g>
		<g>
			<defs>
				<rect id="SVGID_5_" x="48.2" y="74.2" width="259.3" height="217.1"/>
			</defs>
			<clipPath id="SVGID_6_">
				<use xlink:href="#SVGID_5_"  style="overflow:visible;"/>
			</clipPath>
			<path class="st3" d="M278.8,101.8V77.7h-24.1v24.1h17.1c0,9.4-7.7,17.1-17.1,17.1v7C268,125.8,278.8,115.1,278.8,101.8"/>
		</g>
		<g>
			<defs>
				<rect id="SVGID_7_" x="48.2" y="74.2" width="259.3" height="217.1"/>
			</defs>
			<clipPath id="SVGID_8_">
				<use xlink:href="#SVGID_7_"  style="overflow:visible;"/>
			</clipPath>
			<path class="st4" d="M47.5,98.2v24.1h24.1V98.2H54.4c0-9.4,7.7-17.1,17.1-17.1v-7C58.3,74.2,47.5,84.9,47.5,98.2"/>
		</g>
		<g>
			<defs>
				<rect id="SVGID_9_" x="48.2" y="74.2" width="259.3" height="217.1"/>
			</defs>
			<clipPath id="SVGID_10_">
				<use xlink:href="#SVGID_9_"  style="overflow:visible;"/>
			</clipPath>
			<path class="st5" d="M78.3,98.2v24.1h24.1V98.2H85.3c0-9.4,7.7-17.1,17.1-17.1v-7C89.1,74.2,78.3,84.9,78.3,98.2"/>
		</g>
	</g>
	<path d="M141.6,291.2h-13.8v-44.1h18c4.3,0,9.1,0.1,13,2.3c4.1,2.4,6.5,6.8,6.5,11.6c0,4.2-1.6,8.2-4.9,10.8
		c-3.4,2.8-7.8,3.4-12,3.4h-6.9v16 M145.1,265.8c3.1,0,6.8-0.2,6.8-4.3c0-3.9-3.3-4.2-6.4-4.2h-3.9v8.6h3.5"/>
	<path d="M193.3,291.2l-6.4-16.8h-4.2v16.8H169v-44.1h22.4c3.9,0,8.1,0.5,11.4,2.7c3.7,2.3,5.4,6.2,5.4,10.5c0,5.8-2.6,9.3-7.8,11.7
		l8,19.2L193.3,291.2 M187.6,264.9c3,0,6.5-0.5,6.5-4.3c0-1.5-0.8-2.9-2.1-3.6c-1.2-0.6-2.6-0.6-3.9-0.6h-5.5v8.4h5"/>
	<rect x="213.1" y="247.1" width="13.6" height="44.1"/>
	<path d="M242.9,255.3l-1.6-3.8h-2.4v3.8h-1.1v-8.6h3.2c0.7,0,1.4,0.1,2,0.5s0.9,1.2,0.9,1.9c0,1-0.6,1.9-1.6,2.2l1.7,4L242.9,255.3
		 M240.9,250.7c0.6,0,1.1,0,1.5-0.5c0.3-0.3,0.5-0.7,0.5-1.1c0-0.5-0.2-0.9-0.6-1.2c-0.4-0.3-0.7-0.3-1.2-0.3h-2.2v3.1H240.9"/>
	<path class="st6" d="M240.5,244.7c3.4,0,6.2,2.8,6.2,6.2s-2.8,6.2-6.2,6.2s-6.2-2.8-6.2-6.2S237.1,244.7,240.5,244.7L240.5,244.7z"
		/>
</g>
</svg>
