<?xml version="1.0" encoding="utf-8"?>
<!-- Generator: Adobe Illustrator 21.1.0, SVG Export Plug-In . SVG Version: 6.00 Build 0)  -->
<svg version="1.1" id="Layer_1" xmlns="http://www.w3.org/2000/svg" xmlns:xlink="http://www.w3.org/1999/xlink" x="0px" y="0px"
	 viewBox="0 0 116.8 86.3" style="enable-background:new 0 0 116.8 86.3;" xml:space="preserve">
<style type="text/css">
	.st0{fill:#FEFEFE;}
	.st1{fill:#FD0000;}
	.st2{fill:#E46262;}
	.st3{fill:#E45557;}
	.st4{fill:#010101;}
	.st5{fill:#020202;}
	.st6{fill:#030303;}
	.st7{fill:#FEFDFD;}
	.st8{fill:#FDFDFD;}
	.st9{fill:#FCFCFC;}
	.st10{fill:#F7F7F7;}
	.st11{fill:#F1F1F1;}
	.st12{fill:#F9F9F9;}
	.st13{fill:#EEEEEE;}
</style>
<title>rue89</title>
<g id="Layer_2">
	<g id="Layer_1-2">
		<path class="st0" d="M76.3,13.7h14.5c0.1,0.1,0.1,0.3,0,0.4c-5.1,1.9-6.3,6.2-6.8,10.9c-0.3,2.7,0.2,5.5,1.3,8
			c0.9,2.2,3.1,3.4,5.4,3c1.1-0.2,2-0.7,2.7-1.5c0.6-0.6,1.1-0.4,1.1,0.4c0.2,3.2-0.1,6.4-1,9.4c-0.2,1.1-1.2,1.8-2.3,1.7
			c-1.1-0.1-1.5-1-1.8-2s0.1-2-0.7-2.5s-1.7,0.1-2.5,0.1c-1.7,0-1.9,0.3-1.6,2c0.6,2.9,1.7,5.5,4.9,6.4c2.6,0.8,5.4-0.1,7-2.2
			c1.2-1.4,2-3.1,2.5-4.9c1.3-5.2,1.8-10.6,1.2-15.9c-0.2-1.6-0.3-3.2-0.6-4.7c-0.7-3.7-2.2-6.8-6-8.2c-0.1-0.1-0.1-0.3,0-0.4
			c2.2,0,4.3,0.1,6.5,0c0.9,0,1,0.2,1,1c0,19.8,0,39.6,0,59.4c-28.7,0-57.4,0-86.2,0c-1,0-1.2-0.2-1.2-1.2c0-19.3,0-38.7-0.1-58.1
			c0-1,0.2-1.2,1.2-1.2c19.3,0,38.5,0,57.8,0c0,0.7-0.6,0.8-1,1c-3.4,1.9-5.4,5.6-4.9,9.5c0.3,2.5,1.3,4.9,2.9,6.8
			c1.4,1.8,1.4,1.8-0.3,3.2c-3.1,2.6-4.3,6.8-3,10.6c1,3.5,4.3,5.8,7.9,5.5c3.8,0,7.1-2.6,8.1-6.2c1-3.8,0-7.9-2.7-10.9
			c-2.2-2.6-2.2-2.6,0-5.2c3.2-3.5,2.8-11.4-2.7-13.5c-0.3-0.1-0.5-0.2-0.8-0.4C76.2,14,76.2,13.8,76.3,13.7
			C76.3,13.7,76.3,13.7,76.3,13.7z"/>
		<path class="st1" d="M76.3,14c2.3,0.5,4.2,2.1,5.1,4.3c1.8,3.9,0.7,8.5-2.6,11.2c-0.9,0.8-0.9,1.1-0.1,2c2.8,2.8,4.8,6,4.6,10.2
			c-0.3,6.2-5,9.9-11.1,8.8c-5.6-1-8.4-8.3-5.2-13.7c0.8-1.3,1.8-2.4,3-3.3c0.8-0.6,0.8-0.9,0.1-1.7c-3.3-3.7-4.4-7.9-2.7-12.7
			c0.7-2.3,2.5-4.1,4.7-4.9c0.3-0.1,0.7-0.1,0.8-0.5h0.6C74.4,14.1,75.4,13.6,76.3,14z"/>
		<path class="st2" d="M93.7,13.7c0,0.1,0,0.2,0,0.3c-0.9,0.7-2.1,0.7-3,0c0-0.1,0.1-0.2,0.1-0.3H93.7z"/>
		<path class="st3" d="M76.3,14c-1-0.1-2,0.3-2.9-0.3h2.9C76.3,13.8,76.3,13.9,76.3,14z"/>
		<path class="st4" d="M14.4,32.2c0-5.6,0-11.2,0-16.8c0-0.9,0.2-1.2,1.2-1.2c3.1,0.1,6.2-0.2,9.2,0.3c4.4,0.7,6.7,3.3,7.3,7.7
			c0.5,2.8,0.1,5.6-1.1,8.2c-0.3,0.7-0.7,1.3-1.2,1.7c-1.4,0.9-1.3,2-0.9,3.3C30,39.9,31,44.5,32,49c0.2,1,0.1,1.3-1,1.3
			c-1.4-0.1-2.8-0.1-4.2,0c-1,0.1-1.3-0.3-1.4-1.3c-0.8-4.4-1.7-8.8-2.6-13.2c-0.1-0.7-0.3-1.1-1.2-1.1c-1,0.1-0.6,0.8-0.6,1.3
			c0,4.3-0.1,8.6,0,12.8c0,1.2-0.3,1.5-1.5,1.4c-1.3-0.1-2.7-0.1-4,0c-1,0.1-1.2-0.3-1.2-1.2C14.4,43.4,14.4,37.8,14.4,32.2z"/>
		<path class="st1" d="M90.7,14h3c2.2,0.4,4,1.8,4.9,3.8c1.6,3,1.9,6.3,2.1,9.7c0.5,5.5-0.1,11.1-1.6,16.4c-0.5,1.6-1.3,3.1-2.4,4.4
			c-2.4,2.9-6.7,3.3-9.6,0.8c-0.8-0.6-1.4-1.4-1.8-2.3c-0.7-1.4-1.1-2.9-1.2-4.4c-0.1-0.8,0.1-1.2,1-1.1c0.2,0,0.5,0,0.7,0
			c1.2-0.1,2.7-0.6,3.5-0.1c0.7,0.4,0.5,2.1,0.7,3.2c0.2,0.7,0.5,1.4,1.3,1.5c0.8,0.1,1.5-0.4,1.8-1.2c0.4-0.8,0.6-1.7,0.7-2.6
			c0.4-2.5,0.4-5,0.6-7.8c-0.6,0.9-1.4,1.6-2.4,2.1c-2.6,1.1-5.5,0.1-6.9-2.7c-1.6-3-1.7-6.3-1.3-9.6c0.1-2.6,1-5,2.5-7.1
			C87.3,15.3,88.9,14.3,90.7,14z"/>
		<path class="st4" d="M42.5,47.9c-1,0.7-1.7,1.4-2.5,1.9c-3.3,2-6.7,0.4-7-3.5c-0.1-1.6-0.1-3.2-0.1-4.8c0-5.1,0-10.3,0-15.5
			c0-1.1,0.3-1.4,1.4-1.3c1.1,0.1,2.2,0.1,3.3,0c1-0.1,1.2,0.3,1.2,1.2c0,5.4,0,10.9,0,16.3c0,0.6,0,1.2,0.1,1.7
			c0.1,1.1,0.6,1.9,1.8,1.7s1.8-0.6,1.8-2c-0.1-5.9,0-11.8,0-17.6c0-1.1,0.3-1.5,1.4-1.4c1.1,0.1,2.1,0.1,3.2,0
			c1-0.1,1.3,0.3,1.3,1.3c0,5,0,9.9,0,14.9c0,2.6-0.1,5.3,0,7.9c0,1.2-0.4,1.5-1.5,1.4c-1-0.1-2-0.1-3,0c-1.2,0.1-1.6-0.3-1.4-1.4
			C42.6,48.5,42.6,48.2,42.5,47.9z"/>
		<path class="st4" d="M60.1,39.4c-1.2,0-2.4,0-3.6,0c-0.7,0-1.1,0.2-1,1c0.1,1.1,0.1,2.3,0.3,3.4c0.2,1,0.6,1.9,1.8,2
			c1.1,0.1,2.1-0.5,2.6-1.5c0.4-0.6,0.2-1.7,1-1.8c0.7,0,1.4,0.2,2.1,0.6c1.9,0.6,1.9,0.6,1.2,2.4c-1.2,3.4-3.4,5.1-6.8,5.2
			c-3.2,0.3-6.2-1.7-7.1-4.8c-2-5.4-2-11.3,0-16.6c1.1-3.6,4.9-5.6,8.5-4.5c2.3,0.7,3.6,2.5,4.5,4.6c1.2,3,1.3,6.2,1.3,9.4
			c0,0.7-0.4,0.8-0.9,0.8C62.7,39.4,61.4,39.4,60.1,39.4z"/>
		<path class="st4" d="M92.2,68.5c-2-1.5-1.9-2.8,0.3-4.8c-1.6-1.4-2-3.7-1-5.5c0.7-1.6,2.5-2.5,4.2-2c0.8,0.3,1.4,0.3,2-0.4
			c0.3-0.5,1-0.7,1.5-0.5c0.6,0.3,0.2,1,0.3,1.6c0,0.2,0,0.5-0.3,0.5c-1.5-0.1-1,0.8-0.8,1.5c0.4,1.3,0.2,2.8-0.5,4
			c-0.8,1.2-2.2,1.7-3.5,1.4c-0.4,0-0.8,0-0.9,0.5s0.4,0.7,0.7,0.8c0.9,0.3,1.9,0.4,2.8,0.8c1.6,0.4,2.6,2,2.3,3.7
			c0,1.6-1.2,3-2.7,3.3c-1.2,0.3-2.5,0.3-3.7,0c-1.3-0.3-2.4-0.9-2.6-2.4C90.1,69.5,91.1,69.1,92.2,68.5z"/>
		<path class="st4" d="M21.5,56.5c-1.2,0.2-1.7,0-1.6-1.2c0.1-0.6-0.3-1.2-0.9-1.4c-0.1,0-0.3,0-0.4,0c-1,0.1-1.2,0.8-1.2,1.7
			c0.1,0.8,0.5,1.5,1.1,2c0.8,0.8,1.7,1.5,2.5,2.2c1.3,1.2,2.1,2.9,2.1,4.7c0,3-1.9,4.9-4.7,4.8c-2.6-0.1-4.2-2-4.2-4.8
			c0-0.6,0.2-0.8,0.7-0.7c0.4,0,0.9,0,1.3,0c0.8-0.1,1.1,0.1,1.1,1c-0.1,0.7,0.2,1.5,0.9,1.7c0.5,0.2,1.1,0,1.4-0.5
			c0.4-0.7,0.4-1.5,0-2.2c-0.6-1-1.4-1.8-2.4-2.5c-1.3-1-2.2-2.4-2.8-4c-0.9-3.4,1.5-6.6,4.7-6.2c2.3,0.3,3.9,2.5,3.6,4.8
			C22.8,57.1,21.8,56.2,21.5,56.5z"/>
		<path class="st5" d="M57.8,67.7c-0.2,0.4-0.4,0.7-0.6,1.1c-0.3,0.3-0.7,0.2-1.1,0.2c-0.4,0-0.2-0.3-0.2-0.5
			c0.4-5.1,0.1-10.2,0.2-15.3c0-1.5,1-2.1,2.5-1.6c0.5,0.2,0.4,0.6,0.4,1c0,1.4,0,2.9,0,4.3c3-0.9,4.2-0.3,4.8,2.6
			c0.5,2.4,0.4,4.9-0.4,7.3C62.2,69.7,60.1,70.1,57.8,67.7z"/>
		<path class="st5" d="M82.5,62.9c0,1.8,0,3.6,0,5.3c0,0.6-0.2,0.9-0.7,0.7c-0.8-0.2-1.9,0.7-2.4-0.7c-0.1-0.2-0.5,0.2-0.7,0.4
			c-0.7,0.6-1.7,0.8-2.6,0.4c-0.9-0.4-1-1.3-1-2.2c0-3.1,0.1-6.2,0-9.4c0-1.2,0.7-1,1.4-1s1.6-0.3,1.5,1c-0.1,2.6,0,5.3,0,7.9
			c0,0.5-0.1,1.3,0.7,1.3c0.9,0,0.8-0.7,0.8-1.3c0-2.6,0.1-5.3,0-7.9c0-1.3,0.8-1,1.5-1s1.5-0.2,1.4,1.1
			C82.4,59.3,82.5,61.1,82.5,62.9L82.5,62.9z"/>
		<path class="st4" d="M73.5,62.7c0.1,1.4-0.1,2.8-0.7,4.1c-0.5,1.5-2,2.5-3.6,2.4c-1.5,0-2.9-1-3.4-2.4c-1-2.7-1-5.6,0-8.3
			c0.5-1.4,1.9-2.3,3.3-2.3c1.6-0.1,3,0.8,3.6,2.3C73.3,59.8,73.6,61.3,73.5,62.7z"/>
		<path class="st5" d="M45.8,63.9c0,1.5,0,3,0,4.5c0,0.4-0.1,0.7-0.5,0.6c-0.8-0.2-1.8,0.6-2.4-0.6c-0.2-0.4-0.5,0.2-0.8,0.3
			c-1.5,1.1-2.8,0.8-3.7-0.9c-1.2-2.1-0.5-4.7,1.6-5.9c0.4-0.2,0.9-0.4,1.3-0.5c0.9-0.2,1.5-0.5,1.3-1.6c-0.1-0.5,0-1-0.7-1.1
			c-0.6-0.1-0.7,0.3-0.9,0.7c-0.6,1.2-1.6,0.5-2.3,0.4s-0.2-0.9,0-1.3c0.5-1.6,2.1-2.4,4.1-2.2c1.6,0,2.8,1.3,2.8,2.9
			c0,0,0,0.1,0,0.1c0.1,1.5,0,3.1,0,4.6L45.8,63.9z"/>
		<path class="st5" d="M50.7,69.3c-1.8,0.2-3.5-1.2-3.6-3c0,0,0-0.1,0-0.1c0-0.8,0.3-1,1-1s1.2-0.7,1.4,0.5c0.1,0.6,0.3,1.2,1.2,1.2
			c0.4,0,0.8-0.2,1-0.7c0.2-0.7-0.2-1.2-0.7-1.6c-1.4-0.9-2.5-2.1-3.4-3.5c-0.6-1.2-0.4-2.6,0.4-3.7c0.9-1.2,2.4-1.7,3.8-1.3
			c1.2,0.2,2.2,1.2,2.4,2.4c0.1,0.4,0.4,1-0.3,1.1s-1.5,0.7-1.9-0.3c-0.2-0.5-0.4-1-1.1-1c-0.3,0-0.7,0.2-0.8,0.6
			c-0.2,0.5,0,1.1,0.5,1.4c1,0.8,2,1.5,2.9,2.4c1.2,1.1,1.5,2.9,0.8,4.4C53.7,68.6,52.2,69.4,50.7,69.3z"/>
		<path class="st5" d="M26.7,52.4c1.2-0.3,1.4,0.3,1.3,1.3c0,0.4,0,0.9,0,1.3c-0.1,0.9-0.1,1.7,1.3,1.5c1-0.1,0.6,0.7,0.6,1.2
			s0.3,1.4-0.7,1.2c-1.4-0.2-1.3,0.6-1.3,1.5c0,1.6,0,3.3,0,4.9c0,0.8,0.3,1.3,1.1,1.3c0.6,0,1-0.1,0.9,0.8
			c-0.1,0.6,0.2,1.3-0.8,1.6c-2.7,0.8-4.1-0.2-4.1-3c0-2,0-4,0-6.1c0-0.5,0.1-1.1-0.7-1.1S24,58.3,24,57.9s-0.3-1.3,0.4-1.3
			c1,0,0.9-0.7,1-1.2c0.1-0.6,0.1-1.2,0.1-1.7C25.4,52.6,25.7,52.1,26.7,52.4z"/>
		<path class="st6" d="M34.3,58c0.8-0.6,1.4-1.3,2.2-1.5c0.6-0.1,1-0.1,0.9,0.6c0,0.5,0,1,0,1.4c0.1,0.8-0.2,0.9-1,0.9
			c-1.7-0.1-2.2,0.5-2.2,2.2c0,2-0.1,4,0,6.1c0.1,1.2-0.5,1.3-1.4,1.3c-1,0-1.5,0.1-1.5-1.2c0.1-3.2,0-6.4,0.1-9.7
			c0-0.5-0.6-1.6,0.7-1.6C33.1,56.5,34.6,55.9,34.3,58z"/>
		<path class="st4" d="M87.2,58c0.6-0.6,1.2-1.1,2-1.5c0.7-0.2,1.2-0.2,1,0.7c0,0.4,0,0.9,0,1.3c0.1,0.7-0.2,0.9-1,0.9
			C87.5,59.4,87,60,87,61.7c0,2.1-0.1,4.2,0,6.3c0.1,1.4-0.9,0.8-1.6,0.9c-0.6,0.1-1.3,0.1-1.3-1.1c0.1-3.4,0-6.8,0-10.2
			c0-0.6-0.1-1.4,0.9-1.1c0.7,0.2,2-0.8,1.9,1C87,57.7,87.1,57.9,87.2,58z"/>
		<path class="st7" d="M71.2,41.8c0-2.1,0.6-4.2,1.6-6c0.2-0.3,0.3-0.9,0.9-0.4c1.6,1.5,3.2,3.1,3.7,5.4c0.3,1.2,0.1,2.4-0.4,3.5
			c-0.5,1.2-1.7,1.9-3,1.8c-1.2-0.1-2.3-1-2.5-2.2C71.3,43.2,71.2,42.5,71.2,41.8z"/>
		<path class="st7" d="M72.1,21.7c-0.1-1.4,0.9-2.7,2.3-3c1.4-0.2,2.5,0.7,2.8,2.4c0.5,2.4-0.4,4.4-1.6,6.3c-0.4,0.7-0.7,0.4-1.1,0
			C73.1,25.9,72.2,23.8,72.1,21.7z"/>
		<path class="st8" d="M21,24.5c0-1.4,0-2.8,0-4.2c0-0.6,0.2-0.8,0.8-0.8c1.8-0.2,3.4,1,3.7,2.8c0,0,0,0,0,0.1
			c0.3,1.5,0.3,3-0.1,4.4c-0.2,1-0.7,1.8-1.5,2.3c-0.7,0.5-1.7,0.6-2.5,0.4c-0.8-0.3-0.3-1.2-0.3-1.8C21,26.6,21,25.5,21,24.5z"/>
		<path class="st7" d="M94.2,26.8c0,1-0.1,2,0,3c0.2,0.8-0.4,1.7-1.2,1.8c0,0-0.1,0-0.1,0c-0.9,0.3-1.9-0.1-2.3-1
			c-0.3-0.6-0.5-1.3-0.6-1.9c-0.3-2.5-0.3-5,0-7.5c0.1-0.4,0.2-0.8,0.3-1.2c0.1-0.8,0.8-1.4,1.6-1.4c0.7,0,1.4,0.6,1.5,1.3
			c0.5,1.6,0.7,3.3,0.7,5C94.1,25.6,94.1,26.2,94.2,26.8L94.2,26.8z"/>
		<path class="st9" d="M57.5,34.8c-2,0-2.1,0-2-1.9c0-0.9,0.2-1.8,0.4-2.7c0.1-0.7,0.7-1.2,1.4-1.2c0.7,0,1.3,0.4,1.5,1.1
			c0.5,1.3,0.6,2.7,0.4,4.1C59.1,35.5,58,34.5,57.5,34.8z"/>
		<path class="st10" d="M94.7,71.4c-0.4,0-0.8-0.1-1.2-0.1c-0.5,0-0.8-0.5-0.8-0.9c0,0,0-0.1,0-0.1c0.2-0.9,1-1,1.7-1
			s1.7-0.2,2.1,0.9c0.2,0.4-0.1,0.9-0.5,1.1c0,0-0.1,0-0.1,0C95.5,71.3,95.1,71.3,94.7,71.4z"/>
		<path class="st11" d="M95.8,60.4c-0.3,0.7,0.4,2-0.9,2S94,61.1,94,60.3s-0.3-2.2,1-2.1S95.5,59.6,95.8,60.4z"/>
		<path class="st9" d="M58.9,62.8c0-1.2,0-2.3,0-3.5c0-0.5,0.2-0.9,0.7-1c0.4-0.1,0.9,0.2,1,0.6c0,0.1,0,0.1,0,0.2
			c0.4,2.4,0.4,4.8,0,7.2c-0.1,0.5-0.4,1-1,0.9c-0.6-0.1-0.7-0.6-0.7-1.1C58.9,65,58.9,63.9,58.9,62.8z"/>
		<path class="st12" d="M68.2,62.6c0-1.1,0.1-2.1,0.3-3.1c0.1-0.4,0.3-0.9,0.8-0.9c0.5,0,0.8,0.5,0.9,1c0.3,2.1,0.3,4.2,0,6.3
			c-0.1,0.5-0.3,1-0.9,1s-0.8-0.5-0.9-1C68.2,64.8,68.2,63.7,68.2,62.6z"/>
		<path class="st13" d="M42.7,64.9c-0.1,0.6,0.3,1.3-0.5,1.8c-0.2,0.2-0.6,0.2-0.8-0.1c-0.6-0.9-0.6-2.1,0-3c0.2-0.4,0.6-0.6,1-0.5
			c0.5,0.1,0.3,0.6,0.3,1C42.7,64.4,42.7,64.6,42.7,64.9z"/>
	</g>
</g>
</svg>
