<?xml version="1.0" encoding="utf-8"?>
<!-- Generator: Adobe Illustrator 22.0.1, SVG Export Plug-In . SVG Version: 6.00 Build 0)  -->
<svg version="1.1" id="Layer_2_1_" xmlns="http://www.w3.org/2000/svg" xmlns:xlink="http://www.w3.org/1999/xlink" x="0px" y="0px"
	 viewBox="0 0 694.1 47.6" style="enable-background:new 0 0 694.1 47.6;" xml:space="preserve">
<path d="M379.6,0c-2.2,0-6.1,0.1-8.8,0.2c-0.7,0-1.3,0-2,0c-2.9,0-5.8-0.1-7.5-0.2v1.2c3.3,0.2,3.9,0.8,3.9,5.2v33.7
	c0,4.4-0.6,5-3.9,5.2v1.2c2.1-0.1,5.8-0.2,9.5-0.2c2.5,0,6.4,0.2,8.2,0.2c14.6,0,23-8.7,23-22C402.1,11,394.9,0,379.6,0L379.6,0z
	 M380.4,44.7c-3.4,0-4.1-0.2-4.1-4.5V6.3c0-4.2,0.7-4.5,4.1-4.5c7.1,0,10.3,9.4,10.3,23C390.7,38,387.9,44.7,380.4,44.7L380.4,44.7z
	"/>
<path d="M438.9,9.6v1.2c3.3,0.2,3.9,0.8,3.9,5.2v24c0,4.4-0.6,5-3.9,5.2v1.2c2-0.1,5.7-0.2,9.5-0.2c3.2,0,6.8,0,8.8,0.2v-1.1
	c-3.3-0.2-3.9-0.8-3.9-5.2v-24c0-4.4,0.6-5,3.9-5.2V9.7c-2,0.1-5.7,0.2-8.8,0.2C444.7,9.8,440.9,9.7,438.9,9.6L438.9,9.6z"/>
<path d="M511.1,9.6v1.2c2.6,0.1,4.1,1.4,4.1,4.5c0,2.1-1.5,5-3.5,9l-1.4,2.9l-5.8-13.6c-0.2-0.5-0.4-0.9-0.4-1.3
	c0-1.3,1.6-1.5,3.2-1.5V9.5c-3.3,0.2-7.5,0.4-10.9,0.4c-3,0-5.3-0.1-7.6-0.4v1.3c1.2,0.2,2,1.2,3.2,3.4l9.3,18.4v6.8
	c0,4.9-0.9,5.7-5.5,5.8v1.2c1.8-0.1,7.3-0.2,10.5-0.2c3.1,0,9,0,11.1,0.2v-1.1c-4.6-0.2-5.5-0.9-5.5-5.8V28.7l4.7-9.8
	c2.4-4.8,4.1-7.2,5.8-8.1V9.6c-1.1,0.1-2.8,0.2-4.2,0.2C515.7,9.8,513.8,9.7,511.1,9.6L511.1,9.6z"/>
<path d="M490.2,32h-1.3c-1.6,9.7-5.8,12-10,12h-1.3c-1.9,0-2.8-0.2-2.8-3.6V16.1c0-4.4,0.6-5,3.9-5.2V9.7c-2,0.1-5.4,0.2-8.6,0.2
	c-4,0-7.6,0-9.7-0.2v1.2c3.3,0.2,3.9,0.8,3.9,5.2v24c0,4.4-0.6,5-3.9,5.2v1.2c6-0.2,14.3-0.2,18-0.2c3.5,0,8.4,0,12,0.2
	c-0.3-3.8-0.4-7.7-0.4-9.6C490,35,490,33.3,490.2,32L490.2,32z"/>
<path d="M433.6,41.4L420.5,9.6c-0.6,0.1-1.2,0.1-1.8,0.1s-1.2,0-1.8-0.1l-11.2,28.6c-2,5-3.3,6.8-5,7.1v1.2c1.1-0.1,2.8-0.2,4.2-0.2
	c2.5,0,4.4,0,7.1,0.2v-1.2c-2.9-0.1-3.9-0.9-3.9-4.5c0-1.7,0.5-4.2,1.8-7.5h1.9c2.9,0.2,7,1.1,8.7,3.9l1.2,3c0.5,1.1,0.7,2,0.7,2.7
	c0,1.6-1.2,2.2-3.3,2.4v1.2c2.1-0.1,5.8-0.2,9.7-0.2c2.9,0,6.2,0,8,0.2v-1.2C435.8,45.3,434.8,44.2,433.6,41.4L433.6,41.4z
	 M415,20.1l3.5,11.9h-8.1L415,20.1L415,20.1z"/>
<path d="M233.4,44.1c-1.2,0-1.9-0.6-2.3-2.7l-1.2-5.3c-1-4.5-5.1-5.9-10.6-6.5c-0.5-0.1-0.9-0.1-1.4-0.2
	c10.7-1.1,13.7-5.8,13.7-10.3c0-5.8-4.6-9.3-15.9-9.3c-1.5,0-5.5,0.1-9.3,0.1c-2.8,0-6,0-7.8-0.2v1.2c3.3,0.2,3.9,0.7,3.9,5.2v24
	c0,4.4-0.6,5-3.9,5.2v1.2c1.8-0.1,4.8-0.2,8.1-0.2c3.8,0,7.9,0,10.2,0.2v-1.2c-3.3-0.2-3.9-0.8-3.9-5.2V29.8h0.9
	c2.5,0,3.9,0.8,4.6,5.6l1.5,6.9c0.7,3,3,5.2,7.9,5.2c4,0,6.2-1.3,8-3.4l-0.7-0.8C234.7,43.7,234,44.1,233.4,44.1L233.4,44.1z
	 M214.5,28.6H213V16.1c0-4.2,0.4-5.2,2.4-5.2c4,0,5.3,3.2,5.3,8.9C220.7,24.6,219.6,28.6,214.5,28.6L214.5,28.6z"/>
<path d="M65.3,9.6v1.2c5,0.8,4.9,2,4.9,7.6v13.2l-16.3-22c-2.2,0.1-4.9,0.2-7.8,0.2c-1.6,0-3.5,0-4.5-0.2v1.2
	c3.3,0.2,3.9,0.8,3.9,5.2v21.6c0,5.6-0.6,6.9-3.9,7.6v1.2c1.1-0.1,2.9-0.2,4.5-0.2c2.5,0,4.9,0,6.7,0.2v-1.1c-5-0.8-4.9-2-4.9-7.6
	v-19l20.7,27.8c0.7,0,1.3-0.1,2-0.1s1.4,0,2,0.1v-28c0-5.7,0.5-6.9,3.9-7.6V9.7c-1.1,0.1-2.9,0.2-4.5,0.2
	C69.4,9.8,67.1,9.7,65.3,9.6L65.3,9.6z"/>
<path d="M340.6,33.8h-1.3c-1.6,8.4-5.2,10.6-10,10.6H328c-1.9,0-2.8-0.4-2.8-3.2V28.8h1.3c3.8,0,5.8,2.9,6.3,6.5h1.3
	c-0.3-3.7-0.3-5.8-0.3-7.4c0-0.8,0-1.7,0-2.8c0-1.2,0-2.7,0.2-4.7h-1.3c-0.5,2.8-2.3,6.3-6.2,6.3h-1.3V14.9c0-2.8,0.9-3.2,2.8-3.2
	h0.7c4.6,0,8,1.9,9.5,9.4h1.3c-0.1-0.9-0.2-2.3-0.2-3.8s0.1-4.7,0.4-7.8c-3.2,0.2-7.7,0.2-10.9,0.2c-3.7,0-12,0-18-0.2v1.2
	c3.3,0.2,3.9,0.8,3.9,5.2v24c0,4.4-0.6,5-3.9,5.2v1.2c6-0.2,14.3-0.2,18-0.2c3.5,0,8.4,0,12,0.2c-0.3-3.4-0.4-6.7-0.4-8.4
	C340.5,36.5,340.5,34.9,340.6,33.8L340.6,33.8z"/>
<path d="M109.1,33.2c-0.6,4.3-1,5.3-2.5,7.4c-1.8,2.5-4.6,4-7.3,4c-5.5,0-9.9-5.1-9.9-16.4c0-11,3.7-17.1,9.5-17.1
	c2.7,0,5.1,1.6,7,4c1.5,1.9,2,2.8,2.7,7.3h1.3c0-6.4,0-10,0.2-12.7h-1.3c0,0.4-0.1,0.7-0.1,1c-0.8,1.6-3.5,0.6-5.3-0.2
	c-0.4-0.2-0.8-0.4-1.2-0.6c-0.1-0.1-0.2-0.1-0.2-0.1l0,0c-1.4-0.6-3.1-0.9-5.3-0.9c-10.3,0-18.4,7.9-18.4,19.7
	c0,12.1,7.8,18.9,18.5,18.9c2.1,0,3.9-0.4,5.5-1.1l0,0l0,0c0.6-0.3,1.2-0.6,1.7-0.9c1.8-0.8,4.3-1.6,5,0.1c0,0.3,0.1,0.6,0.1,1h1.3
	c-0.2-2.8-0.2-6.6-0.2-13.4H109.1L109.1,33.2z"/>
<path d="M36.1,41.4L22.9,0c-0.8,0.1-1.9,0.1-2.8,0.1c-1,0-2,0-2.9-0.1L5,38.2c-1.7,5-3.3,6.8-5,7.1v1.2c1.1-0.1,2.8-0.2,4.2-0.2
	c2.5,0,4.4,0,7.1,0.2v-1.2c-2.9-0.1-3.7-0.9-3.7-4.4c0-1.8,0.5-4.4,1.8-7.9l0.9-2.7h2.1c3.3,0.3,8.1,1.4,9.4,5.1l0,0l1.6,4.8
	c0.4,1.2,0.7,2.2,0.7,2.9c0,1.7-1.3,2.1-3.8,2.2v1.2c2-0.1,5.5-0.2,9.2-0.2c3.6,0,7.3,0,9.9,0.2v-1.2C38.3,45.3,37.1,44.2,36.1,41.4
	L36.1,41.4z M10.7,29.1L16,11.6l3.8,17.5H9.6H10.7z"/>
<path d="M136.9,9.6v1.2c3.3,0.2,3.9,0.8,3.9,5.2v10.8h-12.3V16c0-4.4,0.6-5,3.9-5.2V9.6c-2.2,0.1-6.1,0.2-9.7,0.2
	c-3.5,0-6.8,0-8.6-0.2v1.2c3.3,0.2,3.9,0.8,3.9,5.2v24c0,4.4-0.6,5-3.9,5.2v1.2c1.9-0.1,5.1-0.2,8.6-0.2c3.6,0,7.4,0,9.7,0.2v-1.1
	c-3.3-0.2-3.9-0.8-3.9-5.2V29h12.3v11.1c0,4.4-0.6,5-3.9,5.2v1.2c2.2-0.1,6.1-0.2,9.7-0.2c3.5,0,6.8,0,8.6,0.2v-1.2
	c-3.3-0.2-3.9-0.8-3.9-5.2v-24c0-4.4,0.6-5,3.9-5.2V9.7c-1.9,0.1-5.1,0.2-8.6,0.2C143,9.8,139.2,9.7,136.9,9.6L136.9,9.6z"/>
<path d="M269.6,41.4L256.5,9.6c-0.6,0.1-1.2,0.1-1.8,0.1s-1.2,0-1.8-0.1l-11.2,28.6c-2,5-3.3,6.8-5,7.1v1.2c1.1-0.1,2.8-0.2,4.2-0.2
	c2.5,0,4.4,0,7.1,0.2v-1.2c-2.9-0.1-3.9-0.9-3.9-4.5c0-1.7,0.5-4.2,1.8-7.5h1.9c2.9,0.2,7,1.1,8.7,4l1.1,2.9c0.5,1.1,0.7,2,0.7,2.7
	c0,1.6-1.2,2.2-3.3,2.4v1.2c2.1-0.1,5.8-0.2,9.7-0.2c2.9,0,6.2,0,8,0.2v-1.2C271.8,45.3,270.8,44.2,269.6,41.4L269.6,41.4z
	 M251.1,20.1l3.5,11.9h-8.1L251.1,20.1L251.1,20.1z"/>
<path d="M177,8.8c-11.5,0-19.5,7.9-19.5,19.7c0,12.1,7.8,18.9,19.5,18.9c11.5,0,19.5-7.9,19.5-19.7C196.5,15.7,188.7,8.8,177,8.8
	L177,8.8z M177.1,45.6c-4.9,0-8.8-6.3-8.8-17.4c0-10.8,3.3-17.4,8.4-17.4c4.9,0,8.8,6,8.8,17.1C185.5,38.7,182.3,45.6,177.1,45.6
	L177.1,45.6z"/>
<path d="M291,29.3v1.2c4.2,0.2,5,0.9,5,5.8v6c0,1.2-0.3,0.9-0.8,1.6c-0.5,0.7-1.4,1.1-2.4,1.1c-6.5,0-10-4.2-10-16.8
	c0-10.5,4.8-16.4,12.4-16.4c3.2,0,5.2,1.9,6.9,3.9c1.5,1.9,1.8,3.5,2.3,6.2h1.7c0-6.1,0-9.5,0.2-12.1h-1.7c-0.2,2.6-0.2,3.2-0.9,3.2
	c-0.3,0-0.7-0.2-1.1-0.6c-2.6-2.1-5-3.5-10.1-3.5c-12.1,0-20.7,7.7-20.7,20.1c0,11.7,7.5,18.6,20,18.6c4.3,0,7.9-1.7,9.2-2.5
	c1.2-0.7,2.1-1.2,2.9-1.2c0.9,0,1.3,1.6,1.4,2.8h1.1v-11c0-4.5,0.3-5,2.2-5.2v-1.2c-1.7,0.1-4.6,0.2-7.9,0.2
	C297.8,29.5,293.7,29.4,291,29.3L291,29.3z"/>
<path d="M653.3,9.6v1.2c2.8,0.1,3.7,1.6,3.7,5.3c0,2.2-0.8,5.2-2.1,9.1l-3.3,9.8l-5.4-19.1c-0.3-1.1-0.5-1.9-0.5-2.6
	c0-1.6,1-2.3,3.2-2.5V9.6c-2,0.1-5.5,0.2-9.2,0.2c-2.9,0-6.2,0-8-0.2v1.2c1,0,2.3,1.3,3.2,3.9l2.1,8.2l-4.3,11.9L626.5,16
	c-0.3-0.9-0.5-1.7-0.5-2.5c0-1.6,0.8-2.5,2-2.6V9.7c-1.9,0.1-5.1,0.2-8.6,0.2c-2.9,0-6.2,0-8-0.2v1.2c1,0,2,1.1,3.2,3.9l12.8,31.8
	c0.6-0.1,1.2-0.1,1.8-0.1s1.2,0.1,1.8,0.1l7.5-21.8l8.1,21.8c0.6-0.1,1.2-0.1,1.8-0.1s1.2,0.1,1.8,0.1l9-27.2
	c1.7-5.1,3.8-7.6,5.5-8.5V9.7c-1.1,0.1-2.8,0.2-4.2,0.2C658,9.8,656.1,9.7,653.3,9.6L653.3,9.6z"/>
<path d="M683.8,23.6c-5.3-3.8-8.9-6.1-8.9-9.5c0-2.3,2.2-3.5,5.7-3.5c5.3,0,9.5,3.6,10.5,12.1h1.3c0-8.3,0.1-11.2,0.3-13.6h-1.3
	c-0.2,1.7-0.5,2.7-1.2,2.7c-0.5,0-1-0.3-1.9-0.9c-1.8-1.1-4.5-2.2-8.3-2.2c-8.1,0-14.1,3.4-14.1,10.1c0,5.9,5.5,10.1,11.7,14.3
	c4.7,3.2,6.7,5,6.7,8.1c0,3.4-2.9,3.9-5.6,3.9c-6.9,0-11.1-4.6-11.6-13.9h-1.3c0,9.3,0,13-0.2,15.8h1.3c0.2-1.7,0.5-2.7,1.2-2.7
	c0.5,0,1,0.2,1.9,0.7c2,0.9,5,2.4,9.1,2.4c8.9,0,15-3.5,15-10.3C694.1,30.6,688.8,26.9,683.8,23.6L683.8,23.6z"/>
<path d="M609.4,33.8h-1.3c-1.6,8.4-5.2,10.6-10,10.6h-1.3c-1.9,0-2.8-0.4-2.8-3.2V29h1.3c3.8,0,5.8,2.7,6.3,6.3h1.3
	c-0.3-3.7-0.3-5.8-0.3-7.4c0-0.8,0-1.7,0-2.8c0-1.2,0-2.7,0.2-4.7h-1.3c-0.5,2.8-2.3,6.3-6.2,6.3H594V14.9c0-2.8,0.9-3.2,2.8-3.2
	h0.7c4.6,0,8,1.9,9.5,9.4h1.3c-0.1-0.9-0.2-2.3-0.2-3.8s0.1-4.7,0.4-7.8c-3.2,0.2-7.7,0.2-10.9,0.2c-3.7,0-12,0-18-0.2v1.2
	c3.3,0.2,3.9,0.8,3.9,5.2v24c0,4.4-0.6,5-3.9,5.2v1.2c6-0.2,14.3-0.2,18-0.2c3.5,0,8.4,0,12,0.2c-0.3-3.4-0.4-6.7-0.4-8.4
	C609.2,36.5,609.3,34.9,609.4,33.8L609.4,33.8z"/>
<path d="M567.5,0v1.2c5.2,0.8,4.5,2.6,4.5,10.7v17.9L550.7,0c-1.4,0.1-3.2,0.2-5,0.2c-1.6,0-3.5,0-4.5-0.2v1.2
	c3.3,0.2,3.9,0.8,3.9,5.2v29.4c0,6.9-0.6,8.7-3.9,9.5v1.2c1.1-0.1,2.9-0.2,4.5-0.2c2,0,4.7,0,6.1,0.2v-1.2
	c-5.2-0.8-4.6-2.6-4.6-10.7v-21l23.2,32.9c0.7,0,1.4-0.1,2.1-0.1c0.7,0,1.3,0,1.8,0.1V10.7c0-6.9,0.5-8.7,3.9-9.5V0
	c-1.1,0.1-2.9,0.2-4.5,0.2C571.6,0.2,569,0.1,567.5,0L567.5,0z"/>
</svg>
