<?xml version="1.0" encoding="utf-8"?>
<!-- Generator: Adobe Illustrator 22.0.1, SVG Export Plug-In . SVG Version: 6.00 Build 0)  -->
<svg version="1.1" id="Layer_1" xmlns="http://www.w3.org/2000/svg" xmlns:xlink="http://www.w3.org/1999/xlink" x="0px" y="0px"
	 viewBox="0 0 88.4 98.8" style="enable-background:new 0 0 88.4 98.8;" xml:space="preserve">
<style type="text/css">
	.st0{fill:#FEFEFE;}
	.st1{fill:#FDCB98;}
	.st2{fill:#424D3D;}
	.st3{fill:#FDFDFD;}
	.st4{fill:#434E3E;}
	.st5{fill:#F2F3F2;}
	.st6{fill:#FCFDFC;}
	.st7{fill:#394533;}
	.st8{fill:#3C4837;}
	.st9{fill:#5D6559;}
	.st10{fill:#33402D;}
	.st11{fill:#303E2A;}
	.st12{fill:#EAEBEA;}
	.st13{fill:#364330;}
	.st14{fill:#5E665A;}
	.st15{fill:#34412E;}
	.st16{fill:#686F64;}
	.st17{fill:#F58026;}
	.st18{fill:#0178AD;}
	.st19{fill:#2C3924;}
	.st20{fill:#3B4736;}
	.st21{fill:#4F594B;}
	.st22{fill:#FCC892;}
	.st23{fill:#384532;}
	.st24{fill:#2B3924;}
	.st25{fill:#25351F;}
	.st26{fill:#3A4634;}
	.st27{fill:#FCCB98;}
	.st28{fill:#394534;}
	.st29{fill:#3A4734;}
	.st30{fill:#2E3C28;}
	.st31{fill:#35422F;}
	.st32{fill:#F47600;}
	.st33{fill:#303D2A;}
	.st34{fill:#2F3D29;}
	.st35{fill:#2D3A25;}
	.st36{fill:#2B3823;}
	.st37{fill:#364230;}
	.st38{fill:#323F2C;}
	.st39{fill:#374431;}
	.st40{fill:#2D3A26;}
	.st41{fill:#33412D;}
	.st42{fill:#E5E6E4;}
	.st43{fill:#F9F9F9;}
	.st44{fill:#3E4A39;}
	.st45{fill:#3F4B3A;}
	.st46{fill:#F7F8F7;}
	.st47{fill:#F4F5F4;}
</style>
<g>
	<g>
		<path class="st0" d="M0.4,40.7c0-12.9,0-25.8,0-38.7c0-1.4,0.4-1.6,1.6-1.5c24.4,0,48.8,0,73.1,0c0.1,1.4-1.2,1.5-2,2
			c-3.5,2.1-3.6,2.1-2.1,5.8c1.2,2.9,1.6,5.9,2,9c0.2,1.1,0.2,2.2,0,3.3c-0.4,3.8-1.2,7.5-2.9,10.9c-0.4,0.9-0.2,1.6,0.7,2.1
			c0.4,0.2,0.7,0.4,1.1,0.6c3.9,2.2,3.9,2.2,5.6-2C79,28.6,79.8,25,80,21.2c0-1.7,0-3.4,0-5.1c0-0.7,0-1.3-0.2-2
			c-0.1-0.4-0.2-0.9-0.2-1.3c-0.5-3.4-1.6-6.7-3-9.8c-0.4-0.8-1.2-1.6-0.5-2.7c3.7,0,7.5,0,11.2,0c1,0,1.3,0.2,1.3,1.3
			c0,13,0,26,0,39c-0.7,0.7-1.7,0.6-2.5,0.6c-2.9,0-5.8,0-8.6,0c-0.7,0-1.5-0.1-2.2,0.4c-0.7,0.6-0.6,1.4-0.6,2.1
			c0,9.6,0,19.2,0,28.8c0,0.8-0.1,1.5,0.6,2.1c1.8,0.7,3.7,0.2,5.5,0.3c1.9,0.1,3.8,0,5.7,0c0.8,0,1.5,0,2.1,0.6c0,3.3,0,6.6,0,10
			c-0.2,0.1-0.4,0.1-0.5,0c-0.2-0.2-0.3-0.4-0.4-0.7c-0.7-1.5-1.9-2.4-3.6-2c-1.7,0.4-2.7,1.5-2.8,3.3c0,2.9,0,5.8,0,8.7
			c-0.3,1.8,1.6,2.5,1.9,3.9c-2.4,0-4.7,0-7.1,0c0.4-1.4,2-2,2.1-3.5c0.3-1.3,0.5-2.6,0-3.9c-1.1-0.6-2.1-0.5-3.2-0.1
			c-0.4,0.6,0.1,0.7,0.5,0.8c0.7,0.2,1.5,0.3,1.8,1.2c0.2,0.6,0.1,1.1,0,1.7c-0.5,1.3-1.2,2.5-2.8,2.1c-1.6-0.3-1.8-1.7-1.8-3.1
			c0-2.5,0-4.9,0-7.4c0-1.4,0.6-2.4,2-2.7c1.4-0.2,2.2,0.6,2.4,1.9c0.2,0.4,0.2,0.8,0.4,1.2c0.5,0.5,0.8,0.4,0.9-0.3
			c0.1-0.5-0.2-1-0.3-1.5c-1.1-2.1-2-2.8-3.7-2.4c-1.8,0.4-2.5,1.6-2.7,3.4c0,2.9,0,5.8,0,8.7c-0.3,1.8,1.6,2.5,1.9,4
			c-1.4,0-2.8,0-4.2,0c-0.4-0.3-0.5-0.8-0.8-1.2c-1.2-0.8-2.6,0-3.8-0.7c-0.3-0.2-0.5-0.4-0.7-0.8c-0.4-1.4-0.3-2.8,0-4.2
			c0.1-0.3,0.3-0.6,0.6-0.8c1.2-0.6,2.6-0.2,3.8-0.5c0.3-0.3,0.2-0.5-0.1-0.7c-1.4-0.4-3,0.4-4.2-0.8c-0.5-1.5-0.4-3.1-0.1-4.6
			c0.6-0.9,1.5-0.7,2.4-0.8c0.6-0.1,1.5,0.3,1.8-0.7c-1.7-0.5-3.3-0.4-5,0c-0.6,0.7-0.4,1.5-0.4,2.2c0,3.7,0,7.3,0,11
			c0,0.9,0.1,1.8-0.6,2.6c-0.8,0-1.7,0-2.5,0c-0.7-0.7-0.6-1.7-0.6-2.5c0-4.3,0-8.5,0-12.8c0-0.8-0.3-0.5-0.7-0.2
			c-0.5,4.3-0.1,8.5-0.2,12.8c0,0.9,0.2,1.9-0.6,2.8c-1.7,0-3.3,0-5,0c0.2-1.4,2.1-2,1.9-3.6c0-3.1,0-6.2,0-9.4
			c-0.4-1.7-1.3-2.8-3.1-3c-1,0.1-2.1-0.4-3,0.4c-0.5,4.2-0.1,8.4-0.2,12.6c0,1,0.2,2.1-0.6,3c-1.9,0-3.9,0-5.8,0
			c-0.7-0.7-0.6-1.7-0.6-2.6c0-4.2,0-8.4,0-12.6c0-0.2-0.1-0.3-0.2-0.5c-0.4-0.1-0.6,0.2-0.7,0.5c-0.2,2.6,0.3,5.2-0.3,7.8
			c-1.3,0.9-1.5-0.3-1.8-1c-0.7-1.9-1.6-3.7-2.3-5.5c-0.2-0.5-0.2-1.6-1.3-1c-0.4,3.3-0.1,6.7-0.2,10c0,1.4,0.2,2.9-0.2,4.3
			c-0.1,0.2-0.2,0.4-0.4,0.6c-0.4,0-0.8,0-1.2,0c-0.9-0.5-1-1.4-1.3-2.3c-0.8-3.3-1.6-6.6-2.3-9.9c-0.1-0.5-0.2-1.1-0.4-1.6
			c-0.2-0.6-0.2-1.4-0.9-1.5c-0.8,0-0.8,0.8-0.9,1.4c-0.4,1.7-0.9,3.3-1.2,5c-0.4,2.2-1.1,4.3-1.4,6.5c-0.1,0.9-0.5,1.7-1.2,2.3
			c-1.1,0-2.2,0-3.3,0c0.2-1.4,2.1-2,1.9-3.6c0-0.7,0-1.4-0.1-2.1c-0.6-1.9-2.5-2.4-3.9-3.5c-1.6-1.3-2.1-2.7-1.2-4.3
			c0.5-0.8,1.1-1.4,2.1-1.4c1,0.1,1.6,0.7,1.9,1.6c0.2,0.5-0.2,1.5,0.9,1.5c0.3-0.4,0.2-1,0.2-1.4c-0.4-1.5-1.2-2.5-2.9-2.7
			c-1.8-0.1-3,0.7-3.5,2.4c-0.5,1.4-0.3,2.6,0.5,3.8c0.8,1,1.9,1.6,3,2.1c0.9,0.5,1.6,1.1,1.8,2.1c0.4,1.6-0.1,3.1-1.3,3.6
			c-1.5,0.5-2.3-0.3-3-1.5c-0.3-0.5-0.3-1.2-0.5-1.7c-0.1-0.2-0.3-0.2-0.5-0.2c-0.1,0.1-0.2,0.1-0.3,0.3c-0.2,0.5,0,1.1,0.1,1.6
			c0.1,0.3,0.2,0.5,0.3,0.8c0.2,1.2,1.8,1.4,1.9,2.6c-5,0-10-0.1-14.9,0.1c-1.8,0.1-2.4-0.4-2.1-2.1c2.1-0.9,4.2-0.1,5.9-0.4
			c-1.7-0.3-3.9,0.5-5.9-0.4c0-1,0-1.9,0-2.9c0.1-0.1,0.3-0.2,0.5-0.1c0.9,0.3,1.6,1.2,2.7,0.4c0.8-1.5,0.5-3.1,0.2-4.7
			c-1-0.7-1.9-0.3-2.8,0c-0.2,0-0.4,0-0.5-0.1c0-15.8,0-31.5,0-47.3c0.6-0.1,0.7,0.4,0.9,0.8C3.8,52.2,6.5,62.4,9,72.7
			c0.2,0.7,0.3,1.5,0.9,2.1c0.7,0.4,1.4,0.4,2.1,0c0.5-0.6,0.6-1.2,0.7-1.9c2.4-9.7,4.8-19.4,7.3-29.1c0.2-0.7,0.4-1.3,0.2-2
			c-0.9-0.8-1.8-0.6-2.8-0.1c-1.5,3.9-2.2,8-3.3,12c-0.8,2.7-1.3,5.4-2.1,8c-0.2,0.7-0.2,1.9-1.2,1.9c-0.9,0-1-1.2-1.2-2
			C8.3,56,6.8,50.5,5.5,45c-0.3-1.2-0.3-2.5-1.3-3.4C3,40.9,1.5,41.6,0.4,40.7z"/>
		<path class="st1" d="M80.5,21.6c-0.3,5.2-1.8,10-4.3,14.5c-0.3,0.5-0.5,0.9-1.3,0.5c-1.8-1.1-3.6-2.1-5.3-3.2
			c-0.4-0.3-0.8-0.5-0.5-1.1c1.9-3.6,2.8-7.6,3.5-11.6c0.6-1.2,0.1-2.4,0.2-3.6c0-0.3,0.1,0,0-0.2c-0.1-0.2-0.1,0.2-0.2,0.2
			c-0.6-2.9-1-5.9-2.1-8.7c-0.5-1.3-2.2-2.7-1.3-4C70,3.2,71.7,2.7,73,1.9c0.7-0.5,1.7-0.6,2.1-1.5c0.3,0,0.6,0,0.8,0
			c1.6,3.7,3.3,7.4,4,11.4c0.1,0.3,0.1,0.7,0.1,1c-0.3,0.3-0.2,0.8-0.2,1.1c0,0.3,0.2,0.4,0.1,0.2c0,0,0.1-0.1,0.1-0.1
			c0.5,0.5,0.4,1.1,0.3,1.7C80.2,17.7,80.2,19.6,80.5,21.6z"/>
		<path class="st2" d="M88.4,44.8c0,0.1,0,0.3,0,0.4c-1.7,1.1-3.6,0.6-5.4,0.6c-4.3,0.1-3.9-0.1-3.9,3.9c0,1.8-0.3,3.7,0.3,5.5
			c0.8,0.9,1.8,0.5,2.7,0.6c2.1,0.2,4.3-0.6,6.3,0.6c0,1.1,0,2.2,0,3.3c-2,1.1-4.1,0.3-6.2,0.6c-1,0.1-2.1-0.4-2.9,0.6
			c-0.5,3.3-0.5,6.5,0,9.7c0.8,0.9,2,0.4,2.9,0.5c2,0.2,4.1-0.5,6.1,0.6c0,1.1,0,2.2,0,3.3c-4.7,0.4-9.4,0.3-14.2,0
			c-0.3-0.7-0.1-1.5-0.1-2.2c0-9.8,0-19.7,0-29.5c0-0.8-0.1-1.5,0.1-2.3c4.7-0.4,9.5-0.3,14.2,0c0,1.1,0,2.2,0,3.3
			c-3.3,0.5-6.6,0-9.2,0.2C81.9,44.8,85.1,44.4,88.4,44.8z"/>
		<path class="st3" d="M78.5,71.3c-0.2-3.7-0.2-7.4,0-11c3.3-0.6,6.6-0.4,9.9-0.1c0,3.7,0,7.5,0,11.2C85.1,71.7,81.8,71.8,78.5,71.3
			z"/>
		<path class="st3" d="M78.5,56c0-3.2-0.1-6.5-0.1-9.7c0-0.9,0.3-1.2,1.2-1.2c3,0.1,5.9,0.1,8.9,0.2c0,3.6,0,7.2,0,10.8
			C85.1,56.4,81.8,56.4,78.5,56z"/>
		<path class="st4" d="M23.2,98.8c1.1-4.8,2.2-9.6,3.3-14.4c0.2-0.8,0-1.8,1.4-1.9c1.5,0,1.1,1.2,1.3,1.9c1.2,4.8,2.4,9.6,3.5,14.4
			c-0.8,0-1.7,0-2.5,0c-0.7-0.7-0.7-1.7-1-2.6c-0.2-0.7-0.5-1.3-1.3-1.3c-0.8,0-1.1,0.6-1.3,1.3c-0.3,1-0.3,2.1-1.3,2.6
			C24.6,98.8,23.9,98.8,23.2,98.8z"/>
		<path class="st2" d="M40.3,82.6c0.3-0.1,0.6-0.3,0.8-0.4c0.5,5.2,0,10.4,0.2,15.4c0.3-0.2,0-0.7,0-1.1c0-4.1,0-8.1,0-12.2
			c0-0.7-0.2-1.4,0.2-2c0.7,0.7,0.3,1.5,0.3,2.3c0.1,4.7,0.1,9.5,0.1,14.2c-0.7,0-1.4,0-2.1,0c-1.9-2.4-2.5-5.4-3.6-8.2
			c-0.1-0.3-0.2,0.2,0,0c0.1-0.1,0.1,0,0.2,0.1c0.3,2.7,0.8,5.4-0.3,8.1c-0.7,0-1.4,0-2.1,0c0-0.1-0.1-0.2-0.1-0.3c0,0,0-0.1,0-0.1
			c0.6-1.6,0.2-3.3,0.2-4.9c0.2-3.6-0.2-7.3,0.2-10.9c1.1-0.3,1.5,0.3,1.9,1.3c1.1,2.6,1.8,5.4,3.4,7.8c0.7-1.8,0.1-3.8,0.3-5.6
			C40.2,84.9,39.9,83.8,40.3,82.6z"/>
		<path class="st4" d="M15,85.1c0.8-2.3,2-3.2,4.6-2.8c1.5,0.2,2.7,1.4,2.7,3.2c-0.2,0.7-0.3,1.4,0.1,2.1c-0.9,0.5-1.9,1.1-2-0.7
			c-0.1-1.1,0-2.3-1.5-2.6c-1-0.2-1.6,0.3-1.9,1.2c-0.5,1.4-0.4,2.6,0.9,3.5c0.8,0.5,1.6,1,2.4,1.5c1,0.6,2,1.2,2.1,2.5
			c-0.2,0.8-0.3,1.6,0,2.5c0,1.7-1.3,2.4-2.4,3.3c-0.8,0-1.7,0-2.5,0c-0.9-0.7-2.2-1.1-2.4-2.5c0.3-1.1-0.6-2.2,0.3-3.2
			c0.3,0,0.6,0,0.8,0c0.5,0.6-0.2,1.5,0.5,2c0.5,1,0.9,1.9,2.2,1.6c0.9-0.2,1.4-0.9,1.4-1.8c0-1.1,0.1-2.3-1.3-2.9
			c-1.4-0.6-3-1.1-3.7-2.7C14.9,87.9,15.1,86.5,15,85.1z"/>
		<path class="st2" d="M80.6,85.5c0.6-2.5,1.8-3.5,4-3.3c1.9,0.2,3.3,1.1,3.4,3.2c0.3,3,0.1,6.1,0.2,9.2c0,3.1-0.3,3.5-3.1,4.2
			c-0.7,0-1.4,0-2.1,0c-1.1-0.9-2.4-1.6-2.4-3.3C80.8,92.1,80.8,88.8,80.6,85.5z"/>
		<path class="st2" d="M76.8,86.4c-0.4-1.1-0.6-2.4-2.2-2.1C72.9,84.6,73,85.9,73,87c0,2.3,0,4.6,0,6.8c0,1.2-0.1,2.5,1.5,2.8
			c1.6,0.3,1.9-1,2.3-2.1c0.4-1.4,0.4-1.4-0.6-2.2c-0.5-0.2-1.4,0.3-1.5-0.7c0-0.9,0.8-0.8,1.4-0.8c2-0.1,2.4,0.2,2.4,2.3
			c0,0.8-0.1,1.5,0,2.3c0,1.7-1.3,2.5-2.5,3.3c-0.8,0-1.7,0-2.5,0C72.3,98,71,97.2,71,95.5c0.3-3.3,0.3-6.6,0-9.9
			c0.2-2,1.4-3.2,3.4-3.3c2.2-0.2,3.4,0.9,4,2.9c-0.5,0.7,0.7,2-0.9,2.3c-0.5-0.1-0.4-0.5-0.5-0.9c-0.1-0.3-0.2-0.4-0.1-0.1
			C76.9,86.3,76.8,86.4,76.8,86.4z"/>
		<path class="st2" d="M51.9,82.3c1.8,0.1,2.7,1.3,3.2,2.9c-0.2,3.6-0.2,7.2,0,10.7c-0.2,1.5-1.4,2.1-2.4,2.9c-1.4,0-2.8,0-4.2,0
			c-0.3-0.3-0.4-0.7-0.4-1.1c0-4.9-0.2-9.8,0.1-14.8C49.3,81.8,50.7,82.8,51.9,82.3z"/>
		<path class="st2" d="M64.8,91.4c-0.1,0.1-0.2,0.2-0.4,0.4c-0.5,1.5-0.5,3,0,4.5c0.1,0.2,0.2,0.3,0.4,0.5c1.5,0.6,3-0.1,4.5,0.4
			c0,0.6,0,1.1,0.1,1.7c-2.1,0-4.2,0-6.2,0c-0.1-0.2-0.3-0.3-0.3-0.5c-0.1-5.2-0.4-10.4,0.1-15.6c2.1-0.4,4.2-0.4,6.3-0.1
			c0.3,1.3-0.1,1.9-1.5,1.7c-1.1-0.1-2.2,0-3.2,0c-0.7,1.6-0.6,3.3-0.1,4.9c1.6,0.4,3.2-0.3,4.8,0.4c-1.2,0.4-2.4,0.1-3.7,0.2
			c0.9,0,1.8,0,2.7,0c0.7,0,1,0.3,0.7,1.1C67.6,91.5,66.1,90.6,64.8,91.4z"/>
		<path class="st5" d="M36.1,98.8c0-3,0-5.9,0-8.9c1.4,2.9,2.8,5.8,3.7,8.9C38.6,98.8,37.4,98.8,36.1,98.8z"/>
		<path class="st6" d="M25.3,98.8c0.3-0.9,0.6-1.8,0.7-2.7c0.2-1.1,0.3-1.9,1.8-1.9c1.5-0.1,1.8,0.8,2,1.9c0.2,0.9,0.3,1.9,0.5,2.8
			C28.6,98.8,27,98.8,25.3,98.8z"/>
		<path class="st7" d="M63.1,82.6c0,5.4,0,10.8,0,16.2c-0.3,0-0.6,0-0.8,0c0.4-5,0-10,0.2-15c0-0.5-0.6-1.5,0.6-1.6
			c0.1,0.1,0.2,0.2,0.1,0.2C63.2,82.6,63.1,82.6,63.1,82.6z"/>
		<path class="st8" d="M57.7,98.8c0-5,0-10,0.1-15c0-0.3-0.8-1.6,0.7-1.2c0.6,0.6,0.6,1.4,0.6,2.1c0,4,0,7.9,0,11.9
			c0,0.8,0,1.5-0.6,2.1C58.3,98.8,58,98.8,57.7,98.8z"/>
		<path class="st2" d="M58.5,98.8c0-5.4,0-10.8,0-16.1c0.3,0.1,0.5-0.8,0.8-0.1c0.3,5.4,0.3,10.8,0,16.2
			C59.1,98.8,58.8,98.8,58.5,98.8z"/>
		<path class="st8" d="M48.6,82.6c0,5.4,0,10.8,0,16.2c-0.3,0-0.6,0-0.8,0c0-4.9,0-9.8,0.1-14.7c0-0.6-0.4-1.4,0.3-1.9
			C48.4,82.3,48.5,82.4,48.6,82.6z"/>
		<path class="st9" d="M0.4,95.9c3,0,6,0,8.9,0c0,0.2,0,0.4,0,0.6c-3,0.5-6,0-9,0.2C0.4,96.4,0.4,96.2,0.4,95.9z"/>
		<path class="st10" d="M59.4,98.8c0-5.4,0-10.8,0-16.2c0.5,0.1,0.5,0.6,0.5,1c0,5.1-0.1,10.2-0.1,15.3
			C59.6,98.8,59.5,98.8,59.4,98.8z"/>
		<path class="st10" d="M74.3,75.1c4.7,0,9.4,0,14.1,0c0,0.1,0,0.3,0,0.4c-4.7,0.2-9.4,0.2-14.1,0c-0.1-0.1-0.1-0.2-0.1-0.3
			C74.2,75.2,74.3,75.1,74.3,75.1z"/>
		<path class="st11" d="M88.4,41.1c-4.7,0-9.4,0-14.1,0c-0.1-0.1-0.2-0.2-0.1-0.2c0-0.1,0.1-0.1,0.1-0.1c4.7,0,9.4,0,14.1,0
			C88.4,40.8,88.4,41,88.4,41.1z"/>
		<path class="st12" d="M85.1,98.8c1.6-0.7,2.9-1.6,3-3.6c0-0.3,0.1-0.3,0.3-0.1c0,0.1,0,0.3,0,0.4C88.4,98.8,88.4,98.8,85.1,98.8z"
			/>
		<path class="st10" d="M78.5,71.3c3.3,0,6.6,0,9.9,0.1c0,0.1,0,0.3,0,0.4c-2.7,0-5.4,0-8.1,0C79.7,71.8,79,72.1,78.5,71.3z"/>
		<path class="st13" d="M88.4,60.2c-3.3,0.3-6.6,0.1-9.9,0.1c0.5-0.8,1.2-0.5,1.9-0.5c2.7,0,5.4,0,8.1,0
			C88.4,59.9,88.4,60.1,88.4,60.2z"/>
		<path class="st11" d="M78.5,56c3.3,0,6.6,0,10,0c0,0.1,0,0.3,0,0.4c-2.7,0-5.4,0-8,0C79.7,56.4,79,56.7,78.5,56z"/>
		<path class="st7" d="M88.4,44.8c-3.2,0-6.3,0-9.5,0c0-0.1,0-0.3,0-0.4c3.2,0,6.3,0,9.5,0C88.4,44.6,88.4,44.7,88.4,44.8z"/>
		<path class="st14" d="M88.4,95.1l-0.1,0.1c0,0-0.2,0-0.2,0c0-3.3,0-6.5,0-9.8c0.1,0,0.2,0,0.4,0.1C88.4,88.7,88.4,91.9,88.4,95.1z
			"/>
		<path class="st15" d="M0.4,40.7c1.4,0.1,2.9-0.6,4.3,0.4c-1.1,0.9-2.5,0.7-3.8,0.9c-0.1-0.3-0.3-0.5-0.4-0.8
			C0.4,41,0.4,40.8,0.4,40.7z"/>
		<path class="st16" d="M0.9,93c-0.2,0-0.3,0-0.5,0c0-1.5,0-3,0-4.6c0.1,0,0.3,0,0.4,0C0.9,88.5,1,88.6,1,88.6
			c0.6,1.2,0.2,2.4,0.4,3.6c0,0.2,0,0.4-0.1,0.6C1.3,93.1,1.1,93.1,0.9,93z"/>
		<path class="st2" d="M29.5,75.5c-4.1-0.7-6.2-3.3-6.6-8.3c0.2-6.1,0.2-12.2,0-18.2c0.4-4.9,2.3-7.3,6.6-8.2c1.1,0.2,2.2,0.2,3.3,0
			c4.1,0.7,6.8,4.7,6.6,9.1c-0.2,5.5-0.2,11,0,16.6c0,4.6-2.2,8.7-7,9.1C31.4,75.2,30.4,75.3,29.5,75.5z"/>
		<path class="st2" d="M0.9,41.9c1-1.4,2.5-0.6,3.8-0.9c0.9,0.2,0.7,0.9,0.8,1.5c1.7,6.6,3.3,13.2,4.9,19.8c0.1,0.3,0.2,0.6,0.5,1.5
			c1.6-6.2,2.9-11.8,4.4-17.5c0.5-1.9,0.6-3.9,1.7-5.6c1.3,0.4,2.6-0.1,3.8,0.3c0.6,1.2-0.2,2.3-0.5,3.5c-2.5,10.1-5,20.2-7.5,30.3
			c-0.1,0.3-0.1,0.5-0.4,0.6c-1-0.1-1.9-0.3-2.9,0.1c-0.7-0.1-0.7-0.8-0.8-1.3C6.1,63.6,3.5,53,0.9,42.3C0.8,42.2,0.9,42.1,0.9,41.9
			z"/>
		<path class="st2" d="M60.2,75.5c-4.2-0.7-6.4-3.6-6.6-8.7c0.2-5.7,0.3-11.3,0-17c0-5.2,2.6-8.5,7-9.1c0.8,0.3,1.6,0.2,2.5,0
			c4.1,0.5,6.5,3.3,7,8.1c0.1,1.3,0.5,2.7-0.3,3.9c-1.2-0.3-2.5-0.3-3.7,0c-0.9-1.1-0.3-2.3-0.4-3.5c-0.3-2.8-1.4-4-3.7-4.1
			c-2.5,0-3.7,1.2-3.8,4.1c-0.1,5.9-0.1,11.9,0,17.8c0,2.1,0.8,3.7,3,4.3c0.5,0.4,1,0.4,1.5,0c2.1-0.7,2.8-2.3,3-4.4
			c0.1-1.1-0.5-2.4,0.4-3.4c1.2,0.2,2.5,0.3,3.7,0c1.4,4.2-0.6,11.3-6.2,12C62.4,75.2,61.3,75.2,60.2,75.5z"/>
		<path class="st1" d="M16.2,21.5c0.8,3.6,1.5,7.2,3.3,10.5c0.4,0.7-0.1,0.9-0.6,1.2c-1.6,0.9-3.1,1.8-4.6,2.7
			c-1,0.7-1.6,0.6-2.2-0.6c-1.9-4-3.3-8.2-3.7-12.6c0.2-2.6,0.3-5.2,0-7.8c0.4-4.7,1.8-9,4-13.2c0.5-0.9,0.9-1.1,1.8-0.6
			c0.2,0.1,0.4,0.2,0.5,0.3c1.6,0.9,3.7,1.5,4.7,2.9c1.1,1.7-1.2,3.2-1.5,5c-0.4,2.1-1,4.3-1.6,6.4C15.8,17.7,15.8,19.6,16.2,21.5z"
			/>
		<path class="st17" d="M64.3,19.9c0,2.7-0.8,5.3-1.9,7.7c-0.4,0.9-0.9,1.1-1.7,0.5c-0.2-0.2-0.5-0.3-0.7-0.4
			c-1.5-0.9-3.8-1.5-4.4-2.9c-0.5-1.3,0.8-3.3,1.3-5c0.4-0.7,0.4-1.4,0-2.1c-0.5-1.5-0.6-3.1-1.4-4.5c-0.5-0.8,0.1-1.2,0.6-1.5
			c0.8-0.6,1.8-1,2.7-1.6c3.2-1.9,3.2-1.9,4.5,1.8c0.6,1.8,1.1,3.5,1.1,5.4C64,18.3,64,19.1,64.3,19.9z"/>
		<path class="st2" d="M44.5,75.1c0-11.4,0-22.7,0-34.1c1.3-0.3,2.6-0.4,3.9,0.1c0.3,0.5,0.2,1.1,0.2,1.6c0,10.2,0,20.4,0,30.6
			c0,0.5,0,1.1-0.2,1.6C47.1,75.6,45.8,75.4,44.5,75.1z"/>
		<path class="st17" d="M32,20.3c0.4,1.2,0.8,2.5,1.3,3.7c0.3,0.7,0,1-0.5,1.3c-1.6,0.9-3.2,1.8-4.8,2.8c-0.8,0.5-1.2,0.4-1.5-0.5
			c-1-2.1-1.7-4.2-1.8-6.5c0.2-1.5,0.3-3,0-4.5c0.1-2.5,0.9-4.7,1.9-6.9c0.4-0.9,0.8-0.9,1.6-0.4c0.5,0.3,0.9,0.6,1.4,0.9
			c4.1,2.3,4.1,2.3,2.5,6.9C31.6,18.1,31.6,19.2,32,20.3z"/>
		<path class="st18" d="M44.3,23.3c-2.6,0-4.5-2-4.5-4.6c0-2.6,2.1-4.6,4.6-4.5c2.4,0.1,4.5,2.2,4.5,4.6
			C48.9,21.2,46.9,23.3,44.3,23.3z"/>
		<path class="st8" d="M48.1,75.1c0-11.3,0-22.7,0-34C48,41,48,40.9,48,40.8c0-0.1,0.1-0.1,0.1-0.1c0.7-0.1,0.8,0.3,0.8,0.8
			c0,11.2,0,22.3,0,33.5c0,0.1-0.2,0.3-0.3,0.4C48.4,75.4,48.2,75.3,48.1,75.1z"/>
		<path class="st19" d="M74.3,40.7c0,0.1,0,0.3,0,0.4c0,11.3,0,22.7,0,34c0,0.1,0,0.3,0,0.4c-0.8-0.3-0.4-0.9-0.4-1.4
			c0-10.7,0-21.4,0-32C73.9,41.7,73.5,41,74.3,40.7z"/>
		<path class="st13" d="M22.9,49c0.4,0.4,0.3,0.9,0.3,1.4c0,5.2,0,10.3,0,15.5c0,0.5,0.1,1-0.3,1.4C22.9,61.1,22.9,55.1,22.9,49z"/>
		<path class="st20" d="M78.5,95.5c-0.6-0.5-0.4-1.2-0.4-1.9c-0.1-2.5-0.4-2.7-3.1-1.9c0.4,0.9,1.5,0.1,1.8,0.9
			c0.2,0.2,0.2,0.4-0.1,0.6c-0.5-0.3-1-0.4-1.5-0.4c-1.7,0.1-1.6-0.8-1.1-1.9c1.4-0.2,2.9-0.3,4.3,0C78.9,92.4,78.9,93.9,78.5,95.5z
			"/>
		<path class="st10" d="M53.6,49.8c0.5,0.5,0.3,1.2,0.3,1.8c0,4.5,0,9,0,13.5c0,0.6,0.2,1.3-0.3,1.8C53.6,61.1,53.6,55.5,53.6,49.8z
			"/>
		<path class="st7" d="M39.4,66.4c-0.6-0.6-0.3-1.3-0.3-2c0-4.2,0-8.4,0-12.6c0-0.7-0.2-1.4,0.3-2C39.4,55.4,39.4,60.9,39.4,66.4z"
			/>
		<path class="st8" d="M41.5,82.3c0,5.2,0,10.4,0,15.6c-0.1,0-0.3,0-0.4,0c0-5.2,0-10.5,0-15.7C41.2,82.3,41.4,82.3,41.5,82.3z"/>
		<path class="st13" d="M34.5,82.6c0,4.5,0,9.1,0,13.6c0,0.7,0.3,1.5-0.4,2.1c0-5-0.1-9.9-0.1-14.9C33.9,83.1,33.8,82.6,34.5,82.6z"
			/>
		<path class="st21" d="M7.9,85.9c-0.3,0.8-1,1.6,0.5,1.9c0.1,0,0.2,0.2,0.3,0.3c-2,1.4-0.5,3.4-1,5.1c-0.1,0.2-0.2,0.3-0.3,0.5
			c-0.4-1.3-0.1-2.6-0.2-3.9c0-0.7,0.2-1.4-0.6-1.9c0.4-0.8-0.1-1.9,0.8-2.5C7.7,85.5,7.9,85.7,7.9,85.9z"/>
		<path class="st10" d="M55.1,95.9c-0.5-3.6-0.5-7.2,0-10.7C55.4,88.7,55.4,92.3,55.1,95.9z"/>
		<path class="st11" d="M80.6,85.5c0.6,3.3,0.6,6.6,0,9.9C80.4,92.1,80.4,88.8,80.6,85.5z"/>
		<path class="st10" d="M71,85.5c0.6,3.3,0.6,6.6,0,9.9C70.8,92.1,70.8,88.8,71,85.5z"/>
		<path class="st13" d="M40.3,82.6c0,2.4,0,4.8,0,7.2c0,0.6,0.3,1.4-0.5,1.9c0-2.5,0-5.1,0-7.6C39.8,83.6,39.3,82.8,40.3,82.6z"/>
		<path class="st22" d="M8.4,15c0.6,2.6,0.6,5.2,0,7.8C8.4,20.2,8.4,17.6,8.4,15z"/>
		<path class="st23" d="M4.1,88.1c1.1,1.8,0.9,4.4-0.4,5.6c-0.3-0.1-0.5-0.3-0.6-0.6c0.6-1.5,0.5-3,0.4-4.5
			C3.6,88.4,3.8,88.2,4.1,88.1z"/>
		<path class="st20" d="M77.2,87.2c1.4-0.1,0.4-1.6,1.2-2.1c0.3,0.9,0.7,1.9,0.1,2.7c-0.3,0.4-1.2,0.5-1.7-0.2
			C77,87.5,77,87.2,77.2,87.2z"/>
		<path class="st22" d="M16.2,21.5c0,0.1,0,0.1,0,0.2c-0.1,0.2-0.4,0.3-0.4,0.1c0-2,0-4,0.1-6.1c0,0,0.1-0.1,0.2-0.1
			c0.1,0,0.1,0.1,0.2,0.1C16.2,17.7,16.2,19.6,16.2,21.5z"/>
		<path class="st24" d="M63.1,82.6c0-0.1,0-0.2,0-0.4c2.1,0.1,4.2-0.6,6.2,0.3C67.2,82.6,65.1,82.6,63.1,82.6z"/>
		<path class="st25" d="M6.7,88c1.1,0.3,0.7,1.2,0.7,1.9c0.1,1.3,0,2.6,0.1,3.9C6.6,92.9,7.2,91.9,7,91C6.9,90,7.2,89,6.7,88z"/>
		<path class="st26" d="M15,85.1c0.7,1.4,0.2,2.8,0.3,4.2C14.5,88,14.5,86.6,15,85.1z"/>
		<path class="st22" d="M80.5,21.6c-0.6-1.9-0.6-3.8,0-5.8C80.5,17.7,80.5,19.6,80.5,21.6z"/>
		<path class="st27" d="M72.6,17.1c0-0.3,0.1-0.5,0.1-0.8c0.1,0,0.2,0,0.3,0c0,1.6,0,3.2,0,4.8c0,0-0.1,0.1-0.1,0.1
			c-0.1-0.1-0.2-0.3-0.3-0.4C72.6,19.5,72.6,18.3,72.6,17.1z"/>
		<path class="st28" d="M68.9,90.9c-0.1-1-0.9-0.8-1.6-0.8c-0.7-0.1-1.5,0.2-2.6-0.4c1.8,0,3.1,0,4.4,0c0,0.4,0,0.8,0.1,1.2
			C69.1,91.1,69,91.1,68.9,90.9z"/>
		<path class="st13" d="M64.4,89.2c-0.8-1.7-1-3.3,0.1-4.9C64.5,85.9,64.5,87.6,64.4,89.2z"/>
		<path class="st13" d="M64.4,96.2c-0.8-1.5-0.8-3,0-4.5C64.4,93.2,64.4,94.7,64.4,96.2z"/>
		<path class="st29" d="M4.1,88.1c0,0.1-0.1,0.2-0.2,0.3c-0.7,0.5-1.6,0.2-2.4,0.3c-0.2,0-0.3-0.1-0.5-0.3l-0.2,0
			C1.8,87.1,2.9,86.9,4.1,88.1z"/>
		<path class="st30" d="M3.3,93.4c0.1,0.1,0.3,0.2,0.4,0.4c-1.1,0.5-2.2,0.6-2.8-0.8c0.1,0,0.3,0,0.4,0C2.1,92.7,2.7,92.9,3.3,93.4z
			"/>
		<path class="st31" d="M68.9,90.9c0.1,0,0.2,0,0.4,0c-1.4,1.2-3,0.3-4.5,0.5C66,90.4,67.5,91.1,68.9,90.9z"/>
		<path class="st10" d="M69.3,97.1c-1.5-0.2-3.1,0.5-4.5-0.4C66.3,96.9,67.8,96.2,69.3,97.1z"/>
		<path class="st32" d="M24.5,16.6c0.6,1.5,0.6,3,0,4.5C24.4,19.6,24.3,18.1,24.5,16.6z"/>
		<path class="st2" d="M78.5,90.9c-1.4,0-2.9,0-4.3,0C75.6,90.5,77,90.4,78.5,90.9z"/>
		<path class="st10" d="M48.1,75.1c0.1,0.1,0.3,0.2,0.4,0.4c-1.4,0-2.8,0.6-4.1-0.4C45.7,75.1,46.9,75.1,48.1,75.1z"/>
		<path class="st33" d="M20.9,41.1c-1.3-0.1-2.6,0.4-3.8-0.3C18.3,40.7,19.7,40.2,20.9,41.1z"/>
		<path class="st34" d="M48.1,40.7c0,0.1,0,0.2,0,0.4c-1.2,0-2.5,0-3.7,0C45.6,40.2,46.9,40.8,48.1,40.7z"/>
		<path class="st10" d="M66,52.7c1.2-0.6,2.5-0.6,3.7,0C68.5,52.7,67.2,52.7,66,52.7z"/>
		<path class="st35" d="M69.7,63.5c-1.2,0.6-2.5,0.6-3.7,0C67.3,63.6,68.5,63.6,69.7,63.5z"/>
		<path class="st36" d="M48.6,82.6c-0.1-0.1-0.3-0.2-0.4-0.3c1.2,0,2.5,0,3.7,0C50.8,83,49.7,82.4,48.6,82.6z"/>
		<path class="st37" d="M15.4,93c-0.1,1.1,0.3,2.2-0.3,3.2c0-0.3-0.1-0.5-0.1-0.8c-0.3-0.8-0.3-1.6,0-2.4
			C15.1,93.1,15.2,93.1,15.4,93z"/>
		<path class="st10" d="M60.2,75.5c1.1-0.6,2.2-0.6,3.3,0C62.4,75.7,61.3,75.7,60.2,75.5z"/>
		<path class="st32" d="M32,20.3c-0.6-1.1-0.6-2.2,0-3.3C32,18.1,32,19.2,32,20.3z"/>
		<path class="st30" d="M32.8,40.7c-1.1,0.6-2.2,0.6-3.3,0C30.6,40.6,31.7,40.6,32.8,40.7z"/>
		<path class="st10" d="M9.6,75.5c0.9-0.6,1.9-0.5,2.9-0.1C11.5,75.7,10.5,75.6,9.6,75.5z"/>
		<path class="st10" d="M29.5,75.5c1-0.5,1.9-0.6,2.9,0C31.4,75.7,30.4,75.7,29.5,75.5z"/>
		<path class="st38" d="M22.4,95.5c-0.6-0.8-0.6-1.6,0-2.5C22.6,93.8,22.6,94.6,22.4,95.5z"/>
		<path class="st4" d="M15,93.1c0,0.8,0,1.6,0,2.4C14.6,94.7,14.3,93.9,15,93.1z"/>
		<path class="st32" d="M64.3,19.9c-0.6-0.8-0.6-1.6,0-2.4C64.3,18.3,64.3,19.1,64.3,19.9z"/>
		<path class="st39" d="M76.7,93.1c0-0.2,0-0.4,0.1-0.6c0.4,0.7,0.9,1.4-0.1,2C76.7,94.1,76.7,93.6,76.7,93.1z"/>
		<path class="st40" d="M63.1,40.7c-0.8,0.5-1.6,0.6-2.5,0C61.4,40.7,62.3,40.7,63.1,40.7z"/>
		<path class="st31" d="M62.6,71.3c-0.5,0.8-1,0.7-1.5,0C61.6,71.4,62.1,71.4,62.6,71.3z"/>
		<path class="st22" d="M80.1,14.1c0,0.1,0,0.3-0.1,0.4c-0.2,0.2-0.3,0.1-0.3-0.1c0-0.5-0.1-1,0.4-1.4
			C80.1,13.3,80.1,13.7,80.1,14.1z"/>
		<path class="st32" d="M56.9,17.8c0.6,0.7,0.6,1.4,0,2.1C56.9,19.2,56.9,18.5,56.9,17.8z"/>
		<path class="st41" d="M16.7,95c-0.8-0.5-0.4-1.3-0.5-2C17.2,93.5,16.5,94.4,16.7,95z"/>
		<path class="st19" d="M7.9,85.9c-0.1-0.1-0.3-0.3-0.4-0.4c0.3-0.3,0.8-0.7,1.2-0.3C8.9,85.6,8.2,85.7,7.9,85.9z"/>
		<path class="st38" d="M22.4,87.6c-0.6-0.7-0.6-1.4-0.1-2.1C22.4,86.2,22.4,86.9,22.4,87.6z"/>
		<path class="st13" d="M77.2,87.2c-0.1,0.1-0.3,0.3-0.4,0.4c0-0.4,0-0.8,0-1.2c0.1-0.2,0.2-0.3,0.3-0.5
			C77.4,86.3,77.1,86.8,77.2,87.2z"/>
		<path class="st8" d="M77.7,70.9c0-3.4,0-6.8,0-10.2c0.1,0,0.1,0,0.2,0c0,3.4,0,6.8,0,10.3C77.9,70.9,77.8,70.9,77.7,70.9z"/>
		<path class="st8" d="M77.7,55.6c0-3.4,0-6.8,0-10.3c0.1,0,0.1,0,0.2,0c0,3.4,0,6.8,0,10.2C77.8,55.5,77.8,55.5,77.7,55.6z"/>
		<path class="st42" d="M28.1,88.6c0.2,0.9,0.4,1.8,0.6,2.8c0.1,0.7-0.4,1.1-1.1,1.1c-0.7,0-0.6-0.7-0.5-1.1
			c0.2-0.9,0.5-1.8,0.7-2.7C27.9,88.6,28,88.6,28.1,88.6z"/>
		<ellipse class="st7" cx="35.5" cy="93.6" rx="0.1" ry="6.1"/>
		<path class="st43" d="M86.3,95c-0.3,0.5-0.5,1-0.8,1.5c-0.6,0.6-1.3,0.7-2,0.2c-0.7-0.7-0.9-1.5-0.9-2.4c0-2.5,0-4.9,0-7.4
			c0-1.1,0-2.1,1.3-2.5c1.4-0.4,1.9,0.6,2.4,1.7C86.7,89,86.7,92,86.3,95z"/>
		<path class="st10" d="M86.3,95c0-3,0-6,0-9c0.2-0.1,0.4-0.1,0.4,0.1c0,2.9,0,5.8,0,8.8c0,0-0.1,0.1-0.1,0.1
			C86.5,95,86.4,95,86.3,95z"/>
		<path class="st44" d="M81.9,93.7c0-2.3,0-4.6,0-6.9c0.1,0,0.1,0,0.2,0c0,2.3,0,4.6,0,6.9C82,93.7,82,93.7,81.9,93.7z"/>
		<path class="st10" d="M83.5,96.6c0.7,0.1,1.4,0.1,2-0.2C84.9,97.5,84.2,97.4,83.5,96.6z"/>
		<path class="st45" d="M72.3,94.5c0-2.7,0-5.4,0-8.2c0.1,0,0.1,0,0.2,0c0,2.7,0,5.5,0,8.2C72.5,94.5,72.4,94.5,72.3,94.5z"/>
		<path class="st46" d="M50,84.3c2.9,0,3.2,0.2,3.2,3.1c0,2.2,0,4.4,0,6.6c0,1-0.1,1.9-0.9,2.6c-0.8,0.5-1.6,0.5-2.4,0l0,0.1l0.1,0
			c-0.7-0.5-0.3-1.3-0.3-1.9c0-2.9,0-5.9,0-8.8C49.6,85.4,49.3,84.7,50,84.3z"/>
		<path class="st10" d="M50,84.3c0,4.1,0,8.3,0,12.4c-0.1-0.1-0.4-0.3-0.4-0.4c-0.2-3.9-0.2-7.7,0-11.6C49.5,84.6,49.8,84.4,50,84.3
			z"/>
		<path class="st44" d="M53.7,94.5c0-2.7,0-5.4,0-8.2c0.1,0,0.1,0,0.2,0c0,2.7,0,5.5,0,8.2C53.8,94.5,53.7,94.5,53.7,94.5z"/>
		<path class="st15" d="M49.8,96.6c0.8,0,1.6,0,2.4,0C51.5,97.4,50.6,97.4,49.8,96.6z"/>
		<path class="st47" d="M3.3,93.4c-0.7,0-1.4,0-2-0.5c0-0.1-0.1-0.3-0.1-0.4c0-1.4-0.6-2.7,0.3-4c0.8-0.6,1.6-0.5,2.4-0.1
			C4,90.1,4.7,91.9,3.3,93.4z"/>
		<path class="st20" d="M1.4,88.5c-0.1,1.3-0.2,2.7-0.3,4c-0.7-1.3-0.3-2.7-0.2-4.1C1.1,88.4,1.3,88.5,1.4,88.5z"/>
		<path class="st3" d="M30.8,71.3c-2.8-0.8-3.4-1.5-3.5-4.5c-0.1-5.9-0.1-11.7,0-17.6c0.1-2.9,1.3-4.2,3.8-4.1
			c2.5,0,3.7,1.4,3.7,4.4c0,5.7,0,11.5,0,17.2c0,2.9-0.8,3.8-3.4,4.6C31.2,71.7,31,71.6,30.8,71.3z"/>
		<path class="st7" d="M26.7,66.3c0-5.5,0-11,0-16.5c0.1,0,0.1,0,0.2,0c0,5.5,0,11,0,16.4C26.8,66.3,26.7,66.3,26.7,66.3z"/>
		<path class="st44" d="M35.6,50.4c0,5.2,0,10.3,0,15.5c-0.1,0-0.1,0-0.2,0c0-5.2,0-10.4,0-15.6C35.5,50.3,35.6,50.3,35.6,50.4z"/>
		<path class="st39" d="M30.8,71.3c0.2,0,0.4,0,0.6,0c0.2,0.1,0.3,0.2,0.5,0.2c-0.5,0.4-1.1,0.4-1.6,0
			C30.5,71.5,30.7,71.4,30.8,71.3z"/>
		<path class="st8" d="M57.6,49.5c0,5.7,0,11.4,0,17.2c-0.1,0-0.1,0-0.2,0c0-5.7,0-11.5,0-17.2C57.5,49.5,57.6,49.5,57.6,49.5z"/>
	</g>
</g>
</svg>
