<?xml version="1.0" encoding="utf-8"?>
<!-- Generator: Adobe Illustrator 21.1.0, SVG Export Plug-In . SVG Version: 6.00 Build 0)  -->
<svg version="1.1" id="Layer_1" xmlns="http://www.w3.org/2000/svg" xmlns:xlink="http://www.w3.org/1999/xlink" x="0px" y="0px"
	 viewBox="0 0 612 792" style="enable-background:new 0 0 612 792;" xml:space="preserve">
<style type="text/css">
	.st0{fill:#FFFFFF;}
</style>
<g>
	<g>
		<path class="st0" d="M34.5,549.5c0-140.3,0-280.6,0-420.9c190.5,0,381,0,571.5,0c0,140.3,0,280.6,0,420.9
			C415.5,549.5,225,549.5,34.5,549.5z M88.3,362.8c4.9-5.5,9.5-10.7,14.2-16.1c6.3,5.4,12.4,10.7,18.7,16c9.1-8.4,18-16.5,26.8-24.8
			c0.6-0.5,0.8-1.7,0.8-2.6c0-15.3,0-30.6,0-45.9c0-0.8-0.1-1.9-0.6-2.4c-4.7-4.7-9.4-9.4-14.3-14.2c-5.3,5.5-10.4,10.8-16.2,16.9
			c-5.3-5.8-10.4-11.4-15.7-17.1c-5.4,5.7-10.4,10.9-15.9,16.7c0-2.4,0-4,0-5.6c0.1-5-1.3-9.5-5-13c-6-5.7-3.5-12.7,1.3-16.6
			c0.7-0.6,1.4-1.1,2.6-2.1c-7,1.2-16.2,7.4-19.2,12.8c-2.5,4.5-2.7,9,0.5,13.3c1.9,2.6,2.8,5.4,2.7,8.7c-0.2,5.7,0,11.4-0.1,17.1
			c0,0.9-0.1,1.9-0.1,2.8c-8.7,1.8-12.9,9.5-9.5,17.8c1.8-4.5,5.3-4.9,9.5-4.3c0,1,0.1,2,0.1,2.9c0,6.9,0,13.7,0.1,20.6
			c0,1.1,0.3,2.7,1.1,3.3C75.9,352.2,82,357.4,88.3,362.8z M235.5,491.7c0,12.2,0,23.9,0,36.3c5.6-5.1,10.7-9.7,15.8-14.4
			c1.9,1.6,3.5,3,5.7,4.9c0-9.3,0-17.8,0-26.3c0.2-0.2,0.5-0.4,0.7-0.6c3,2.1,5.9,4.2,9.2,6.4c-0.2,0.1,0.1,0,0.3-0.1
			c7.3-5.4,14.6-10.8,21.7-16.4c0.7-0.5,1-1.8,1-2.8c0.1-18.2,0.1-36.5,0-54.7c0-0.7-0.1-1.7-0.6-2.2c-4.7-4.4-9.5-8.8-14.5-13.3
			c-6,6.3-11.8,12.4-17.5,18.6c-0.3-0.1-0.5-0.2-0.8-0.3c0-4.3,0-8.6,0-12.9c-0.3,0-0.6,0-0.9,0c0,4.2-0.1,8.4,0.1,12.6
			c0.1,2.4-1,3.7-3.2,5.1c0-3.4,0-6.5,0-9.6c0-0.8,0-2-0.5-2.5c-3.9-3.7-7.9-7.3-12-11.1c-4.6,4.9-9.1,9.6-13.5,14.3
			c0.2,0.2,0.4,0.4,0.6,0.6c0.9-0.8,1.8-1.6,3-2.6c1.8,1.9,4.7,3.5,5.1,5.6c0.8,4.5,0.2,9.3,0.2,13.9c-9.5,1.5-14.9,10.6-10.6,17.6
			c3.4-4.7,5.7-5.8,10.7-4.7c0,8.1,0,16.3-0.1,24.4c0,0.6-1.1,1.3-1.7,1.9c-2.8,2.4-6.1,4.4-8.4,7.2c-2.9,3.5-4.1,8-4.4,13.3
			C225.3,496,229.5,492.9,235.5,491.7z M288.6,226.9c0-1.4,0-2.2,0-3.1c0-14.2,0-28.5,0-42.7c0-2.4,0.2-3.9,3-4.5
			c1.9-0.4,3.7-1.7,5.3-2.9c4.6-3.4,7.7-11.6,6.3-16.1c-3.9,5.9-9.7,7.9-16.3,6.3c-4.9-1.2-9.7-3.4-14.3-5.6
			c-7.2-3.4-14.4-4.3-21.4,0.2c-6.5,4.2-9.3,10.8-10.4,18.2c-0.4,2.5-0.3,5.1-0.4,7.7c0.3,0.1,0.6,0.2,0.9,0.3
			c0.5-5,2.8-8.8,7.2-11.1c4.4-2.4,9-2.3,14.1-1.3c-3.3,2.6-6.3,4.9-9.3,7.3c-14.6,12.1-19,26.6-13,44.9c6.1,18.5,27.3,27.1,44,18.1
			c8.6-4.7,13.7-12.3,16.6-21.4c1.1-3.3,1.6-6.7,2.4-10.1c-0.3-0.1-0.6-0.2-0.8-0.3C299.8,217.3,295.8,223.1,288.6,226.9z
			 M268.8,377.5c0.9,0,1.3,0.1,1.6,0c1.9-0.6,3.8-1,5.6-1.8c9.6-3.9,18.1-11.3,17.5-25.2c-0.5-10.2-0.3-20.5,0-30.7
			c0.2-5.3-1.9-11,1.6-16.2c-0.8,0.6-1.6,1.2-2.5,2c-4-3.6-7.9-7.2-11.7-10.6c-4.1,3.8-8,7.4-12.2,11.2c0-11.5,0-23,0-35.2
			c-4.5,4.8-8.5,9.1-12.6,13.3c-1.4,1.4-2,2.9-2,4.9c0.1,16.6-0.1,33.3,0.1,49.9c0.1,4.4-0.4,8.2-4.3,10.9c-0.3,0.2-0.4,0.5-0.8,1
			c4.3,3.9,8.5,7.7,12.8,11.7c3.8-4.1,7.4-7.8,11-11.7c-0.6-0.7-0.9-1.2-1.4-1.6c-2.3-1.5-2.9-3.7-2.9-6.4c0.1-10.6,0.1-21.2,0-31.8
			c0-2.3,0.7-3.9,2.6-5.2c1.8,1.6,3.4,3.3,5.2,4.7c1.8,1.4,2.3,3,2.3,5.3c-0.1,15,0,30.1,0,45.1c0,6.3-2.7,11.3-7.9,14.9
			C270.2,376.5,269.7,376.9,268.8,377.5z M323.2,188.6c2.2,2,4.4,4,6.5,6c0.6,0.6,1,1.7,1,2.6c0.1,15.2,0.1,30.4,0,45.7
			c0,7.1-2.8,12.8-9.2,16.4c-0.2,0.1-0.2,0.4-0.4,1.1c2.4-0.7,4.4-1.2,6.4-2c9.7-3.8,18.5-11.3,17.9-25.2
			c-0.5-12.1-0.2-24.2-0.1-36.3c0-3.5-1.3-7.4,2.3-10.4c-0.2-0.1-0.4-0.2-0.6-0.3c-0.8,0.6-1.5,1.2-2.5,2c-4-3.6-8-7.2-12.1-10.9
			c-3.9,4.1-7.5,7.9-11.1,11.7c-0.2-0.1-0.4-0.2-0.6-0.3c0-11.4,0-22.8,0-34.4c-0.6,0.2-0.9,0.3-1,0.4c-4.1,4.4-8.3,8.8-12.4,13.3
			c-0.7,0.8-1,2.1-1,3.1c-0.1,16.7-0.1,33.5,0,50.2c0.1,4.5-0.2,8.6-4.2,11.6c-0.3,0.2-0.4,0.6-0.7,1.1c4.2,3.8,8.3,7.6,12.6,11.5
			c3.8-4.1,7.4-7.9,11-11.7c-0.6-0.7-1-1.2-1.5-1.6c-2.3-1.5-2.8-3.5-2.7-6.2c0.1-10.7,0.1-21.4,0-32
			C320.6,191.6,321.2,190,323.2,188.6z M429.4,305.6c-4.2-3.3-8.4-6.6-12.5-9.9c-1.2-0.9-1.9-1-3.2-0.1
			c-7.4,5.4-14.9,10.6-22.3,16.1c-0.9,0.7-1.6,2.1-1.7,3.2c-0.1,6.9,0.2,13.9-0.2,20.8c-0.4,6.2,2.1,12.7-1.7,18.7
			c0.9-0.7,1.7-1.4,2.6-2.2c4.4,3.5,8.6,6.9,13,10.4c-6.3,7.3-12.3,14.3-18.3,21.3c1.7-0.1,2.9-0.7,4.1-1.2
			c7.9-3.5,15.4-4.5,21.8,3.1c0.3,0.4,1.8,0.3,2.4-0.1c4.7-3.5,9.4-7,14-10.7c2-1.7,3.8-3.7,5.4-5.9c1.9-2.6,1.9-5.7,0-8.2
			c-2.2-3-2.6-6.3-2.6-9.8c0-9.5-0.3-19.1,0.1-28.6c0.2-6.2-2-12.8,1.7-18.9C431.2,304.3,430.4,304.9,429.4,305.6z M534.5,362.8
			c3.8-4.1,7.4-7.9,11.1-11.8c-0.7-0.8-1.1-1.4-1.7-1.8c-2.2-1.4-2.7-3.4-2.6-5.9c0.1-10,0.2-19.9,0-29.9c-0.1-3.3,1.4-5.2,3.8-7
			c1.6,1.5,3.1,3.1,4.8,4.4c1.9,1.4,2.3,3.1,2.3,5.3c-0.1,11.3,0,22.6,0,33.9c0,0.9,0.1,2.1,0.7,2.7c3.6,3.4,7.3,6.7,11.1,10.2
			c4.3-4.8,8.8-9.1,12.7-13.9c-0.2-0.2-0.4-0.4-0.6-0.6c-1,0.9-2,1.8-3.1,2.8c-1.2-1.1-2.1-2.2-3.3-3c-2.4-1.7-3.1-3.9-3-6.9
			c0.2-9.6,0.1-19.2,0-28.8c0-3.2-0.1-6.2,2.9-8.3c0.1-0.1,0-0.4-0.1-1c-1.1,0.9-2,1.7-3.1,2.5c-4.1-3.7-8.1-7.2-12.2-10.9
			c-4.2,4.5-8.3,8.8-11.9,12.6c-3.5-5.2-8.8-8.3-13.1-12.7c-4.2,4.6-8.1,8.9-12.1,13.3c0.2,0.2,0.4,0.4,0.6,0.6
			c0.9-0.7,1.8-1.4,2.8-2.3c1.3,1.2,2.5,2.5,3.8,3.5c2.1,1.5,2.7,3.4,2.6,5.9c-0.2,7.6-0.3,15.1,0,22.7c0.2,4.9-0.1,9.4-4.5,12.5
			c-0.1,0-0.1,0.2-0.2,0.4C526.3,355,530.3,358.8,534.5,362.8z M374,362.8c4.4-4.7,8.6-9.3,12.8-13.9c-0.2-0.2-0.5-0.5-0.7-0.7
			c-1,0.9-2,1.8-3.1,2.8c-1.3-1.2-2.3-2.3-3.6-3.3c-2-1.5-2.7-3.4-2.6-5.9c0.2-9.6,0.1-19.2,0-28.8c0-3.4-0.3-6.7,2.8-9.1
			c0,0-0.1-0.3-0.3-0.7c-0.9,0.8-1.9,1.5-2.9,2.4c-4.1-3.7-8.1-7.2-12.2-10.9c-4.2,4.5-8.2,8.7-12.5,13.3
			c-0.5-2.8-8.2-10.5-12.7-13.1c-3.9,4.3-7.9,8.7-11.9,13c0.2,0.2,0.4,0.4,0.6,0.6c0.9-0.8,1.8-1.5,2.8-2.3c1.4,1.2,2.5,2.5,3.9,3.5
			c2,1.4,2.6,3.2,2.5,5.7c-0.2,7.8-0.3,15.7,0,23.5c0.2,4.6-0.2,8.8-4.3,11.8c-0.1,0.1-0.1,0.3-0.1,0.7c3.9,3.7,7.9,7.4,12.1,11.4
			c3.8-4,7.4-7.9,11.2-11.8c-0.7-0.7-1.1-1.3-1.6-1.7c-2.3-1.6-2.9-3.7-2.8-6.4c0.2-9.8,0.2-19.6,0-29.4c-0.1-3.3,1.4-5.3,3.8-7.2
			c1.5,1.4,2.8,2.8,4.4,4c2.1,1.6,2.8,3.5,2.8,6.1c-0.1,11.1-0.1,22.2,0,33.4c0,1.1,0.3,2.4,1,3.1
			C366.6,356.3,370.2,359.4,374,362.8z M195.2,305.7c-4.3-3.3-8.5-6.5-12.7-9.9c-1.3-1.1-2.2-0.9-3.4,0
			c-7.3,5.3-14.5,10.5-21.9,15.7c-1.4,1-2,2-1.9,3.7c0.1,8.8,0.1,17.6,0,26.4c-0.1,3.5,1.1,7.2-1.2,10.6c0.7-0.5,1.3-0.9,2.1-1.5
			c4.6,4,9.1,8,13.9,12.2c3.9-3.9,7.5-7.7,11.3-11.5c4.2,3.9,8.3,7.6,12.5,11.5c4.2-4.5,8.1-8.8,12.1-13.1c-0.2-0.2-0.4-0.4-0.6-0.6
			c-0.8,0.6-1.6,1.2-2.4,1.9c-1.7-1.6-3.2-3.2-4.9-4.6c-1.7-1.4-2.2-2.9-2.2-5.1c0.1-6.5-0.3-13,0.1-19.5c0.4-6-2.1-12.4,1.7-18.3
			C197,304.2,196.2,304.8,195.2,305.7z M512,307.2c-4.8-3.7-9.5-7.3-14.1-11.1c-1.3-1-2.2-1.3-3.7-0.2c-6.8,5-13.7,9.8-20.5,14.9
			c-0.8,0.6-1.5,2-1.5,3c-0.1,9.3,0,18.7-0.1,28c0,3.4,1,7-1.3,10.2c0.7-0.6,1.5-1.1,2.3-1.8c5.1,3.8,10.2,7.6,15.1,11.4
			c1.3,1,2.1,1,3.4,0c6.3-4.8,12.7-9.5,19.1-14.1c1.5-1.1,1.9-2.3,1.9-4c-0.1-9.8,0-19.6-0.1-29.3c0-3.2-0.3-6.4,2.4-8.8
			c0,0-0.2-0.3-0.4-0.6C513.8,305.5,513.1,306.2,512,307.2z M336.4,442.8c-4.8-3.7-9.6-7.4-14.3-11.2c-1.2-1-2-1.1-3.4-0.1
			c-6.5,4.8-13.1,9.5-19.7,14.1c-1.7,1.2-2.4,2.5-2.4,4.6c0.1,9.6,0.1,19.2,0,28.8c0,2.9,0.8,6-1.4,8.7c0.8-0.6,1.6-1.1,2.4-1.7
			c5.1,3.8,10.1,7.5,15,11.3c1.4,1.1,2.3,1.1,3.7,0c6.2-4.7,12.5-9.4,18.9-13.9c1.6-1.1,2-2.4,2-4.2c-0.1-7.6-0.3-15.1,0.1-22.7
			c0.2-5.3-1.9-10.9,1.9-15.9C338.2,441.2,337.4,441.9,336.4,442.8z M337,497.3c0.1,0.1,0.3,0.2,0.4,0.4c0.3-0.2,0.7-0.4,1-0.6
			c7.3-5.7,13.7-5.6,21,0.2c0.6,0.4,2,0.4,2.6,0c6.2-4.2,12.3-8.5,18.3-12.9c0.8-0.6,1.3-2,1.4-3.1c0.2-4.1,0.1-8.2,0.1-12.3
			c0-4.7,0-9.4,0-14.5c-4.6,0-9,0-13.8,0c5.5-8,10.6-15.5,15.7-23c-6,2.7-11.6,3.6-17.2-0.5c-0.5-0.3-1.7-0.1-2.3,0.3
			c-6.5,4.5-13,9.1-19.4,13.7c-0.8,0.6-1.4,2-1.5,3c-0.2,3.9-0.1,7.8-0.1,11.7c0,3.6,0,7.2,0,11.2c3.9,0,7.5,0,11.7,0
			C348.7,480.2,342.8,488.7,337,497.3z M220.2,335.4c-6.3,9.1-12.1,17.7-18.3,26.7c0.9-0.2,1.1-0.2,1.2-0.3c8.2-6.2,13.4-6.1,21.6,0
			c0.5,0.4,2,0.2,2.6-0.2c5.9-4.1,11.8-8.3,17.7-12.4c1.4-0.9,2-1.9,2-3.7c-0.1-8.1,0-16.2-0.1-24.3c0-0.7-0.1-1.3-0.2-2.3
			c-4.5,0-8.8,0-13.6,0c5.4-8,10.6-15.5,15.7-23c-6.4,3-12.3,3.7-18-1.2c-7.2,5-14.3,10-21.4,15.1c-0.6,0.4-0.9,1.7-0.9,2.5
			c-0.1,4,0,8-0.1,12c0,3.6,0,7.2,0,11C212.4,335.4,215.9,335.4,220.2,335.4z M416.7,433.1c-3.2,0-5.9-0.1-8.5,0
			c-1.9,0.1-2.5-0.5-2.5-2.4c0.1-5.6,0-11.2,0-16.8c0-1.5,0-2.9,0-4.4c-3.8,3.2-6.9,6.7-10.3,9.9c-3.3,3.1-5.1,6.4-4.3,11
			c0.1,0.7-0.1,1.6-0.1,2.5c-5.1-0.2-5.5,4.3-8.1,7.7c3.2,0,5.7,0,8.3,0c0,1.4,0,2.5,0,3.5c0,9.8,0.2,19.6-0.1,29.4
			c-0.2,5.7,1.9,11.8-1.7,17.3c0.8-0.6,1.6-1.3,2.5-2c4.1,3.3,8.2,6.5,12.4,9.8c4.4-4.8,8.6-9.3,12.7-13.8c-0.2-0.2-0.5-0.4-0.7-0.7
			c-0.9,0.9-1.9,1.8-3,2.8c-2-1.5-3.8-3.1-5.7-4.4c-1.5-1-2-2.2-2-4c0.1-11.7,0-23.3,0.1-35c0-0.9,0.1-1.9,0.1-3.3
			C412.4,442.1,414.3,437.8,416.7,433.1z M468.8,349c-0.2-0.2-0.4-0.4-0.6-0.6c-1,0.9-2,1.8-3.1,2.7c-1.9-1.4-3.6-2.9-5.4-4.1
			c-1.6-1.1-2.3-2.4-2.3-4.4c0.1-11.6,0.1-23.1,0.1-34.7c0-0.9,0-1.9,0-3.4c6.6,2.1,8.4-2.6,11-7.1c-3.2,0-6.1-0.1-8.9,0
			c-1.7,0.1-2.2-0.5-2.1-2.1c0.1-5,0-10,0-15c0-2.2,0-4.3,0-7c-0.9,0.7-1.3,1-1.6,1.3c-4,4.2-8,8.4-11.8,12.7c-0.7,0.8-1,2-1.1,3.1
			c-0.2,2.3,0,4.5,0,6.7c-3.6,0.4-6.9,3.9-7.6,7.7c2.4,0,4.8,0,7.6,0c0,1.2,0,2.3,0,3.3c0,9.9,0.3,19.8-0.1,29.6
			c-0.2,5.7,2,11.8-1.7,17.3c0.8-0.7,1.5-1.3,2.5-2.1c4.1,3.2,8.2,6.4,12.4,9.8C460.4,358.1,464.6,353.5,468.8,349z M380,234
			c-4.3-3.4-8.1-6.4-12-9.4c-2.2-1.8-2-7.7,0.3-9.4c6.7-5,13.5-9.9,20.2-14.9c0.8-0.6,1.6-1.3,2.4-2c-4.4-7.1-8.7-14-13-20.9
			c-0.5,0.3-0.8,0.4-1.1,0.6c-7.8,5.6-15.6,11.2-23.3,17c-0.7,0.5-1.1,2-1.1,3c-0.1,8.8-0.1,17.6,0,26.4c0,3,0.3,6-2.1,8.4
			c0,0,0.2,0.2,0.4,0.5c0.8-0.7,1.6-1.3,2.4-2c5.9,4.7,11.7,9.4,17.7,14.2c5.9-6.3,11.6-12.5,17.4-18.6c-0.2-0.1-0.3-0.3-0.5-0.4
			C385.2,228.9,382.7,231.4,380,234z M322.7,302.6c-0.2-0.2-0.5-0.3-0.7-0.5c-0.8,0.7-1.7,1.3-2.6,2c-3.5-3.2-7-6.2-10.5-9.4
			c-4.2,4.4-8.2,8.7-12.1,12.9c0.2,0.2,0.4,0.4,0.5,0.5c0.7-0.6,1.5-1.1,2.3-1.8c0.8,0.7,1.6,1.4,2.4,2.1c2.7,1.9,3.6,4.3,3.6,7.7
			c-0.3,9.9-0.1,19.7-0.1,29.6c0,2.9,0.2,5.7-2.2,7.8c0,0,0.1,0.3,0.3,0.6c0.8-0.7,1.6-1.3,2.5-2c3.9,3.5,7.8,7,11.7,10.6
			c4.4-4.7,8.5-9.1,12.6-13.6c-0.2-0.2-0.4-0.4-0.6-0.6c-1,0.9-1.9,1.7-3,2.7c-1.5-1.4-2.9-2.9-4.4-4c-1.8-1.4-2.4-3-2.4-5.2
			c0.1-10.1,0-20.1,0.1-30.2C320.1,308.6,319.2,305,322.7,302.6z M302.8,283.5c3.7,3.4,7.3,6.7,11,10.1c3.5-3.7,6.8-7.1,10.2-10.8
			c-3.7-3.4-7.3-6.7-11-10.1C309.5,276.3,306.2,279.8,302.8,283.5z"/>
		<path d="M88.3,362.8c-6.3-5.4-12.4-10.6-18.3-15.9c-0.8-0.7-1.1-2.2-1.1-3.3c-0.1-6.9,0-13.7-0.1-20.6c0-1-0.1-1.9-0.1-2.9
			c-4.2-0.7-7.6-0.2-9.5,4.3c-3.4-8.3,0.7-16,9.5-17.8c0-0.9,0.1-1.8,0.1-2.8c0-5.7-0.1-11.4,0.1-17.1c0.1-3.3-0.7-6.1-2.7-8.7
			c-3.2-4.3-3-8.7-0.5-13.3c3-5.3,12.1-11.6,19.2-12.8c-1.2,1-1.9,1.5-2.6,2.1c-4.8,3.9-7.4,10.9-1.3,16.6c3.7,3.5,5.2,8,5,13
			c0,1.6,0,3.1,0,5.6c5.5-5.8,10.5-11,15.9-16.7c5.2,5.7,10.4,11.3,15.7,17.1c5.9-6.1,11-11.4,16.2-16.9c4.9,4.9,9.7,9.5,14.3,14.2
			c0.5,0.5,0.6,1.6,0.6,2.4c0,15.3,0,30.6,0,45.9c0,0.9-0.2,2.1-0.8,2.6c-8.8,8.3-17.7,16.4-26.8,24.8c-6.2-5.4-12.4-10.6-18.7-16
			C97.8,352.1,93.2,357.3,88.3,362.8z M98.9,349.9c1-2.1,2.5-3.8,2.5-5.5c0.2-15.5,0.1-31.1,0.1-46.7c0-0.9-0.3-2-0.8-2.6
			c-3-3.3-6.1-6.4-9.8-10.2c-1.8,2.8-4.6,5.2-4.7,7.5C85.8,307.3,86,322.1,86,337c0,0.9,0.4,2,1,2.6
			C90.7,342.9,94.5,346.1,98.9,349.9z M123.3,285.8c-3.1,2.4-4.9,5-4.8,9.3c0.3,12.1,0.4,24.2,0,36.3c-0.2,5.4,1,9.3,5.7,12.3
			c2.6,1.7,4.8,4,7.6,6.5c0-1.7,0-2.5,0-3.4c0-14.1,0-28.1,0-42.2c0-10.9,0-10.9-7.9-18.4C123.8,286.1,123.6,286,123.3,285.8z
			 M123.4,359.4c-5.7-4.9-10.8-9.4-16-13.8c-1.4-1.2-2-2.5-2-4.3c0.1-14.9,0-29.9,0-44.8c0-1,0-2.3-0.6-3
			c-3.3-3.8-6.8-7.4-10.5-11.3c-1.2,1.3-1.7,1.9-2.4,2.7c3.2,3.1,6.2,5.9,9.1,9c0.9,1,1.6,2.5,1.7,3.9c0.1,12.7,0.5,25.4-0.1,38.1
			c-0.3,6.9,1.1,12.3,7.3,15.8c0.3,0.2,0.5,0.5,0.8,0.7c3.5,3,6.9,6,10.1,8.7C121.8,360.4,122.5,359.9,123.4,359.4z M133.1,349.7
			c0.3,0.1,0.6,0.2,1,0.3c0.6-1.4,1.6-2.8,1.6-4.2c0.1-17.2,0.1-34.5,0-51.7c0-0.8,0-1.8-0.5-2.2c-2.9-3.2-6-6.2-9.1-9.4
			c-0.9,0.9-1.4,1.5-2.4,2.6c2.4,2.2,4.7,4.5,7.2,6.5c1.7,1.4,2.1,3.1,2.1,5.1c-0.1,16.8,0,33.6,0,50.4
			C133,348,133.1,348.9,133.1,349.7z M69.7,318.5c0.2,0.8,0.3,1,0.3,1.2c0,5.6,0.4,11.2-0.1,16.8c-0.6,6.4,0.8,11.4,6.6,14.8
			c2,1.2,3.7,3.1,5.5,4.6c2,1.7,4,3.4,6.2,5.3c0.7-0.9,1.2-1.5,1.8-2.3c-5.3-4.6-10.5-9.1-15.6-13.7c-0.8-0.8-1.5-2.2-1.5-3.4
			c-0.1-6.3,0.1-12.6-0.1-18.9c-0.1-2.2,1.5-5.3-1-6.5c-2-0.9-4.7-0.2-7.1-0.1c-0.9,0.1-1.9,0.6-2.6,1.2c-0.6,0.5-1,1.5-1.2,1.9
			C63.8,319.2,66.7,318.8,69.7,318.5z M71.5,260c-6.3,3.7-8.2,11.3-4,17.5c1.8,2.6,2.6,5.3,2.5,8.5c-0.1,6.2,0,12.4,0,18.7
			c0,1-0.2,2.4,1.5,2.1c0.6-0.1,1.2-1.3,1.2-2c0.1-6-0.1-11.9,0.1-17.9c0.2-4.5-0.7-8.4-3.4-12c-1.6-2.1-2.2-4.6-1.3-7.1
			C69.2,265,70.5,262.3,71.5,260z"/>
		<path d="M235.5,491.7c-6,1.2-10.3,4.3-14.7,8.3c0.3-5.3,1.4-9.7,4.4-13.3c2.3-2.8,5.6-4.8,8.4-7.2c0.7-0.6,1.7-1.3,1.7-1.9
			c0.1-8.2,0.1-16.3,0.1-24.4c-5-1-7.2,0-10.7,4.7c-4.2-7,1.1-16.1,10.6-17.6c0-4.6,0.5-9.4-0.2-13.9c-0.4-2.1-3.3-3.7-5.1-5.6
			c-1.2,1-2.1,1.8-3,2.6c-0.2-0.2-0.4-0.4-0.6-0.6c4.4-4.7,8.9-9.4,13.5-14.3c4.1,3.8,8.1,7.4,12,11.1c0.5,0.5,0.5,1.6,0.5,2.5
			c0.1,3.1,0,6.1,0,9.6c2.2-1.4,3.3-2.7,3.2-5.1c-0.2-4.2-0.1-8.4-0.1-12.6c0.3,0,0.6,0,0.9,0c0,4.3,0,8.6,0,12.9
			c0.3,0.1,0.5,0.2,0.8,0.3c5.8-6.1,11.6-12.3,17.5-18.6c5,4.5,9.8,8.9,14.5,13.3c0.5,0.4,0.6,1.4,0.6,2.2c0,18.2,0,36.5,0,54.7
			c0,0.9-0.3,2.3-1,2.8c-7.2,5.5-14.5,11-21.7,16.4c-0.2,0.1-0.5,0.2-0.3,0.1c-3.2-2.3-6.2-4.4-9.2-6.4c-0.2,0.2-0.5,0.4-0.7,0.6
			c0,8.5,0,17,0,26.3c-2.2-1.9-3.8-3.3-5.7-4.9c-5.1,4.7-10.2,9.3-15.8,14.4C235.5,515.6,235.5,503.9,235.5,491.7z M264.6,421.1
			c-2,2.1-3.7,4.2-5.6,5.9c-1.6,1.5-2.2,3.1-2.2,5.4c0.1,14,0.1,27.9,0.1,41.9c0,0.9,0,1.9,0,2.9c6.2,0.7,11.5,2.5,16.1,7.2
			c0-18.8,0-36.9,0-54.9c0-0.7-0.5-1.5-1-2C269.6,425.4,267.2,423.4,264.6,421.1z M255.5,431.2c-2.1,1.5-3.1,3-3.1,5.5
			c0.1,24.6,0.1,49.3,0,73.9c0,2.3,0.8,3.8,3.1,4.9C255.5,487.3,255.5,459.4,255.5,431.2z M236.6,451.9c0,24.4,0,48.6,0,73.2
			c2.3-1.1,2.7-2.6,2.7-4.7c-0.1-21.7,0-43.4,0-65.1c0-7.4-0.3-7.7-7.7-6.7c-3.2,0.4-5.4,2.5-5.5,5.5
			C229,451.4,232.5,451.5,236.6,451.9z M265.5,420.2c2.4,2.1,4.4,4.1,6.6,5.9c1.5,1.2,2.1,2.6,2.1,4.6c-0.1,19.1,0,38.2,0,57.3
			c0,0.9,0,1.7,0,2.6c0.3,0.1,0.7,0.2,1,0.3c0.6-1.3,1.7-2.6,1.7-3.8c0.1-19.6,0.1-39.1,0-58.7c0-0.8-0.1-1.9-0.7-2.5
			c-2.7-2.7-5.6-5.3-8.6-8.1C266.9,418.7,266.3,419.4,265.5,420.2z M230.7,420.2c1.3,1.2,2.3,2.4,3.6,3.3c1.9,1.3,2.4,3,2.3,5.2
			c-0.2,3.4-0.1,6.7,0.1,10.1c0,0.6,0.9,1.1,1.4,1.7c0.4-0.5,1.2-1,1.2-1.6c0.1-2.6-0.2-5.2,0.1-7.7c0.7-5.1-1-8.8-5-11.8
			C232.5,418.1,231.7,418,230.7,420.2z M256.9,489.9c3.6,2.4,6.8,4.5,10.2,6.7c0.6-0.5,1.3-1.1,2.2-1.8c-3.2-4.3-7-7.1-12.4-7.5
			C256.9,488.5,256.9,489.4,256.9,489.9z M224.9,494.6c2.8-1.2,5.6-2.6,8.5-3.6c2.2-0.7,2.3-1.7,1.6-3.4
			C230.7,488.2,226.6,491.1,224.9,494.6z"/>
		<path d="M288.6,226.9c7.2-3.8,11.2-9.6,14-16.4c0.3,0.1,0.6,0.2,0.8,0.3c-0.8,3.4-1.4,6.8-2.4,10.1c-2.9,9.1-8,16.7-16.6,21.4
			c-16.7,9.1-37.9,0.4-44-18.1c-6-18.3-1.6-32.8,13-44.9c2.9-2.4,5.9-4.7,9.3-7.3c-5.2-1-9.8-1.1-14.1,1.3
			c-4.3,2.4-6.7,6.1-7.2,11.1c-0.3-0.1-0.6-0.2-0.9-0.3c0.1-2.6,0-5.2,0.4-7.7c1.1-7.4,3.9-14,10.4-18.2c7-4.5,14.1-3.6,21.4-0.2
			c4.6,2.2,9.4,4.4,14.3,5.6c6.6,1.6,12.3-0.3,16.3-6.3c1.4,4.6-1.7,12.7-6.3,16.1c-1.6,1.2-3.4,2.5-5.3,2.9c-2.8,0.6-3.1,2.1-3,4.5
			c0.1,14.2,0,28.5,0,42.7C288.6,224.7,288.6,225.6,288.6,226.9z M260.4,188c-0.1-0.2-0.3-0.5-0.4-0.7c5.9-3.2,11.8-6.5,18.1-9.9
			c-4.5-1.6-8.6-3.1-12.7-4.4c-0.6-0.2-1.7,0.3-2.2,0.8c-5.4,5.5-9.6,11.7-11.1,19.4c-2.1,10.9-1,21.1,6.4,29.9
			c0.7,0.9,2.2,1.8,3.1,1.6c1.7-0.3,2.6-1.5,2.6-3.6c-0.1-10.6-0.1-21.2-0.1-31.7c0-0.8-0.1-1.7-0.1-2.8
			C262.6,187.1,261.5,187.6,260.4,188z M261.9,226c5.7,4.5,15.2,5.5,23.1,2.8c2-0.7,2.7-1.7,2.6-3.8c-0.1-14.8,0-29.5-0.1-44.3
			c0-0.9-0.1-1.7-0.2-2.8c-2.8,0-5.4,0-8.2,0c0,1,0,1.9,0,2.8c0,11.1-0.1,22.2,0.1,33.3c0,2-0.6,3-2.4,3.9
			C271.9,220.4,267,223.2,261.9,226z M295.7,230.2c-0.2-0.2-0.4-0.5-0.6-0.7c-0.8,0.9-1.5,1.9-2.3,2.7
			c-10.7,10.7-23.6,12.6-35.6,5.5c-15.4-9.1-18.3-29.1-13.5-41.8c1.5-4,4-7.7,6.1-11.7c-0.6,0.6-1,1.1-1.5,1.6
			c-7.5,8.3-10.2,18-8.9,29.1c2.2,19.9,18.2,32.7,37.3,29.2C285.1,242.5,291.1,237.2,295.7,230.2z M244.6,174.7
			c6.9-5.6,14.2-5,21.7-2.6c3.5,1.2,7,2.7,10.6,3.7c7.5,2.1,14.6,1.8,20.7-3.9c2.4-2.2,3.7-4.9,3.8-7.1c-4.9,6.2-8.4,8.2-14.5,8.6
			c-4.8,0.3-9.3-0.8-13.8-2.4c-3.8-1.3-7.5-2.8-11.4-3.8C254.7,165.6,247.4,168.8,244.6,174.7z M267.8,184.9
			c-0.4-0.1-0.8-0.3-1.2-0.4c-0.5,1.1-1.4,2.1-1.4,3.2c-0.1,10.9-0.1,21.9-0.1,32.8c0,0.7,0.1,1.3,0.2,2c0.3,0.1,0.6,0.2,0.9,0.3
			c0.5-1.1,1.5-2.1,1.5-3.2c0.2-4,0.1-8,0.1-12C267.8,200,267.8,192.5,267.8,184.9z"/>
		<path d="M268.8,377.5c1-0.7,1.5-1.1,2-1.4c5.2-3.6,7.9-8.6,7.9-14.9c0.1-15,0-30.1,0-45.1c0-2.2-0.5-3.9-2.3-5.3
			c-1.8-1.4-3.4-3.1-5.2-4.7c-2,1.3-2.7,2.9-2.6,5.2c0.1,10.6,0.1,21.2,0,31.8c0,2.7,0.5,4.9,2.9,6.4c0.5,0.3,0.8,0.9,1.4,1.6
			c-3.6,3.9-7.2,7.7-11,11.7c-4.3-3.9-8.5-7.8-12.8-11.7c0.4-0.5,0.5-0.9,0.8-1c3.9-2.6,4.4-6.4,4.3-10.9
			c-0.2-16.6-0.1-33.3-0.1-49.9c0-2,0.6-3.5,2-4.9c4.1-4.2,8-8.5,12.6-13.3c0,12.2,0,23.7,0,35.2c4.2-3.8,8.1-7.4,12.2-11.2
			c3.8,3.4,7.7,7,11.7,10.6c0.9-0.7,1.7-1.3,2.5-2c-3.6,5.1-1.4,10.8-1.6,16.2c-0.3,10.2-0.5,20.5,0,30.7
			c0.7,13.9-7.9,21.4-17.5,25.2c-1.8,0.7-3.7,1.2-5.6,1.8C270,377.6,269.7,377.5,268.8,377.5z M250.9,351.3c3.6,3.3,7.2,6.6,10.8,10
			c0.8-0.9,1.3-1.5,2-2.3c-3-2.7-5.8-5.3-9-8.2c3.6-2,3.2-5,3.2-8.1c0-18.2,0-36.3,0-54.5c0-1.2-0.1-2.4-0.2-3.8
			c-2,1.5-2.8,2.9-2.8,5.2c0.1,16.6,0,33.1,0.1,49.7c0,4.5,0,8.7-4.1,11.5C251.1,350.8,251.1,350.9,250.9,351.3z M279.1,368.2
			c2.5-2.1,3.4-5.1,3.4-8.2c0.1-15.7,0.1-31.5,0-47.2c0-0.8-0.1-1.9-0.7-2.5c-2.5-2.5-5.1-4.9-7.7-7.4c-0.8,0.9-1.4,1.5-2.2,2.3
			c2,1.8,3.8,3.7,5.7,5.3c1.6,1.3,2.1,2.8,2.1,4.8c-0.1,13.7,0,27.4-0.1,41.1C279.7,360.3,279.4,364.2,279.1,368.2z"/>
		<path d="M323.2,188.6c-2,1.4-2.6,3-2.6,5.2c0.1,10.7,0.1,21.4,0,32c0,2.6,0.5,4.7,2.7,6.2c0.5,0.3,0.8,0.9,1.5,1.6
			c-3.6,3.9-7.2,7.7-11,11.7c-4.3-3.9-8.4-7.7-12.6-11.5c0.4-0.6,0.5-1,0.7-1.1c4-2.9,4.3-7,4.2-11.6c-0.2-16.7-0.1-33.5,0-50.2
			c0-1.1,0.3-2.4,1-3.1c4-4.5,8.2-8.9,12.4-13.3c0.2-0.2,0.4-0.2,1-0.4c0,11.6,0,23,0,34.4c0.2,0.1,0.4,0.2,0.6,0.3
			c3.6-3.8,7.3-7.6,11.1-11.7c4.1,3.7,8.1,7.3,12.1,10.9c1-0.7,1.7-1.4,2.5-2c0.2,0.1,0.4,0.2,0.6,0.3c-3.6,3-2.3,6.8-2.3,10.4
			c-0.1,12.1-0.4,24.2,0.1,36.3c0.6,14-8.2,21.4-17.9,25.2c-1.9,0.8-4,1.3-6.4,2c0.3-0.7,0.3-1,0.4-1.1c6.3-3.6,9.2-9.3,9.2-16.4
			c0.1-15.2,0-30.4,0-45.7c0-0.9-0.4-2-1-2.6C327.7,192.6,325.4,190.7,323.2,188.6z M302.5,233.4c4,3.7,7.5,6.9,11.2,10.3
			c0.8-0.8,1.4-1.5,2.2-2.3c-3-2.8-5.9-5.4-9.1-8.3c3.4-1.9,3.4-4.6,3.4-7.6c-0.1-18.3-0.1-36.6-0.1-55c0-1.2,0-2.4,0-3.9
			c-2.2,1.5-3.1,3-3.1,5.4c0.1,16.7,0,33.4,0.1,50.2C307.1,226.5,307.3,230.7,302.5,233.4z M323.9,187.7c2,1.8,3.6,3.6,5.5,5.1
			c1.8,1.4,2.3,3,2.3,5.3c-0.4,17.6,0.7,35.2-0.7,52.8c2.9-2.7,3.6-6.3,3.6-10.1c0-15.1,0-30.2,0-45.4c0-0.8-0.1-1.7-0.6-2.2
			c-2.6-2.6-5.3-5.1-8.1-7.7C325.1,186.4,324.6,186.9,323.9,187.7z"/>
		<path d="M429.4,305.6c1-0.8,1.8-1.4,2.6-2c-3.7,6.1-1.5,12.6-1.7,18.9c-0.4,9.5-0.1,19-0.1,28.6c0,3.5,0.4,6.8,2.6,9.8
			c1.9,2.6,1.9,5.6,0,8.2c-1.6,2.1-3.3,4.2-5.4,5.9c-4.5,3.7-9.2,7.2-14,10.7c-0.6,0.4-2.1,0.5-2.4,0.1c-6.4-7.6-13.9-6.6-21.8-3.1
			c-1.2,0.5-2.4,1.1-4.1,1.2c6-7,12-14,18.3-21.3c-4.3-3.5-8.6-6.9-13-10.4c-0.9,0.8-1.8,1.5-2.6,2.2c3.8-6,1.4-12.5,1.7-18.7
			c0.4-6.9,0-13.9,0.2-20.8c0-1.1,0.8-2.5,1.7-3.2c7.4-5.4,14.9-10.7,22.3-16.1c1.3-0.9,2-0.9,3.2,0.1
			C421,299.1,425.2,302.3,429.4,305.6z M413.2,352.3c0.9-2,2.2-3.6,2.2-5.2c0.2-10.8,0.1-21.7,0.1-32.5c0-0.7,0.1-1.7-0.3-2
			c-3.4-2.9-6.9-5.6-10.5-8.6c-0.3,0.8-0.4,1-0.4,1.3c0,12.9,0,25.8,0,38.6c0,0.7,0.5,1.7,1.1,2.2
			C407.6,348,410.1,349.8,413.2,352.3z M415.4,350.7c-7.6,8.8-14.7,17-21.9,25.3c0.4,0.2,0.5,0.2,0.5,0.2c0.3-0.1,0.5-0.2,0.7-0.3
			c8.6-4.3,17.1-5.4,25.2,1.2c0.5,0.4,1.9,0.2,2.4-0.3c4.2-3.8,4.1-8.6-0.9-11.7c-4.8-3-6.2-7-6-12.1
			C415.5,352.5,415.4,352,415.4,350.7z M405.5,303.2c2.9,2.3,5.7,4.7,8.8,6.9c1.7,1.2,2.3,2.5,2.3,4.6c-0.1,13,0,26,0,39
			c0,4.4,1.2,7.9,5.2,10.3c2.7,1.6,5,3.8,4.7,7.6c0.7-0.9,1.1-1.7,1.2-2.5c0.2-2.4-0.9-4.5-2.8-5.7c-4.5-2.9-5.5-7-5.4-11.9
			c0.2-12.9,0.1-25.8,0-38.7c0-1.1-0.5-2.5-1.3-3.2c-2.9-2.5-6-4.7-9-7.2C407.7,301.3,406.7,301.6,405.5,303.2z M406.1,359.5
			c-3.8-2.9-7.4-5.5-10.8-8.3c-0.9-0.8-1.7-2.3-1.7-3.5c-0.1-10.9-0.1-21.8-0.1-32.8c0-0.9,0-1.9,0-3c-2.3,0.6-2.9,1.8-2.9,3.8
			c0.1,11.2,0,22.4,0,33.6c0,0.8,0.1,2,0.7,2.4c4.1,3.4,8.4,6.8,12.7,10.2C404.8,361,405.3,360.4,406.1,359.5z M393,380.2
			c7.6-2.6,14.2-1.3,19.1,5.4c1-0.9,1.6-1.4,2.2-1.9C409.2,377.2,402.6,374.8,393,380.2z"/>
		<path d="M534.5,362.8c-4.3-4-8.3-7.8-12.2-11.5c0.1-0.3,0.1-0.4,0.2-0.4c4.3-3.2,4.6-7.6,4.5-12.5c-0.3-7.6-0.2-15.1,0-22.7
			c0.1-2.5-0.6-4.4-2.6-5.9c-1.3-1-2.5-2.2-3.8-3.5c-1,0.8-1.9,1.5-2.8,2.3c-0.2-0.2-0.4-0.4-0.6-0.6c4-4.4,8-8.7,12.1-13.3
			c4.3,4.5,9.6,7.6,13.1,12.7c3.6-3.8,7.6-8.1,11.9-12.6c4.1,3.7,8.1,7.3,12.2,10.9c1-0.8,2-1.6,3.1-2.5c0.1,0.5,0.2,0.9,0.1,1
			c-3,2.1-2.9,5.1-2.9,8.3c0.1,9.6,0.1,19.2,0,28.8c-0.1,2.9,0.6,5.1,3,6.9c1.1,0.8,2.1,1.9,3.3,3c1.1-1,2.1-1.9,3.1-2.8
			c0.2,0.2,0.4,0.4,0.6,0.6c-3.9,4.8-8.4,9.1-12.7,13.9c-3.8-3.5-7.5-6.7-11.1-10.2c-0.6-0.5-0.7-1.8-0.7-2.7
			c0-11.3-0.1-22.6,0-33.9c0-2.2-0.4-3.9-2.3-5.3c-1.7-1.3-3.1-2.9-4.8-4.4c-2.4,1.8-3.9,3.7-3.8,7c0.3,10,0.2,19.9,0,29.9
			c0,2.5,0.5,4.5,2.6,5.9c0.6,0.4,1,1,1.7,1.8C542,354.9,538.4,358.7,534.5,362.8z M520.9,305.2c1.8,1.7,3.7,3.1,5.2,4.8
			c0.9,1,1.7,2.5,1.7,3.8c0.1,8.3,0,16.5,0.1,24.8c0.1,4.6,0.7,9.4-4.5,12.2c3.9,3.6,7.4,6.9,11.1,10.4c0.8-0.8,1.3-1.5,2-2.3
			c-2.9-2.8-5.7-5.4-8.2-7.7c0.9-2,2.2-3.5,2.2-5.1c0.2-11.5,0.1-22.9,0.1-34.4c0-0.7-0.1-1.7-0.6-2.2c-2.3-2.2-4.6-4.3-7.1-6.6
			C522.3,303.8,521.7,304.4,520.9,305.2z M545.4,305.1c2.2,2.1,3.8,3.8,5.7,5.3c1.6,1.3,2.1,2.7,2.1,4.8c-0.1,11.4-0.1,22.7,0,34.1
			c0,0.9,0,2.2,0.6,2.7c3.2,3.1,6.6,6,10.1,9.1c0.8-0.9,1.3-1.6,2-2.4c-2.5-2.2-4.8-4.4-7.3-6.4c-1.9-1.5-2.6-3.2-2.6-5.7
			c0.1-11.1,0.1-22.2,0-33.3c0-1,0-2.4-0.6-3c-2.4-2.5-5.1-4.8-7.7-7.1C546.9,304,546.3,304.4,545.4,305.1z"/>
		<path d="M374,362.8c-3.8-3.4-7.4-6.5-10.8-9.9c-0.7-0.7-1-2.1-1-3.1c-0.1-11.1-0.1-22.2,0-33.4c0-2.7-0.6-4.6-2.8-6.1
			c-1.6-1.1-2.9-2.6-4.4-4c-2.4,1.9-3.9,3.8-3.8,7.2c0.2,9.8,0.2,19.6,0,29.4c0,2.7,0.5,4.8,2.8,6.4c0.6,0.4,1,1,1.6,1.7
			c-3.7,3.9-7.4,7.8-11.2,11.8c-4.2-3.9-8.2-7.7-12.1-11.4c0.1-0.4,0-0.7,0.1-0.7c4.1-3,4.4-7.1,4.3-11.8c-0.3-7.8-0.2-15.7,0-23.5
			c0-2.4-0.5-4.2-2.5-5.7c-1.4-1-2.5-2.2-3.9-3.5c-1,0.8-1.9,1.6-2.8,2.3c-0.2-0.2-0.4-0.4-0.6-0.6c4-4.4,7.9-8.7,11.9-13
			c4.5,2.6,12.2,10.3,12.7,13.1c4.3-4.5,8.3-8.8,12.5-13.3c4.1,3.7,8.1,7.3,12.2,10.9c1-0.8,2-1.6,2.9-2.4c0.2,0.4,0.3,0.6,0.3,0.7
			c-3.1,2.4-2.9,5.7-2.8,9.1c0.1,9.6,0.1,19.2,0,28.8c0,2.6,0.6,4.4,2.6,5.9c1.3,0.9,2.4,2.1,3.6,3.3c1.1-1,2.1-1.9,3.1-2.8
			c0.2,0.2,0.5,0.5,0.7,0.7C382.6,353.5,378.4,358.1,374,362.8z M376,358.9c-2.8-2.5-5.3-4.9-8.1-7.1c-1.4-1.1-1.8-2.4-1.8-4.1
			c0.1-11.3,0.1-22.6,0-33.9c0-1.2-0.2-2.7-0.9-3.4c-2.3-2.4-4.9-4.6-7.5-7c-0.7,0.8-1.3,1.4-2,2.1c1.8,1.7,3.3,3.3,5.1,4.7
			c1.9,1.4,2.5,3.2,2.4,5.5c-0.1,11.3,0,22.6,0,33.9c0,1,0.2,2.3,0.9,2.9c3.1,3,6.4,5.8,9.8,8.8C374.6,360.4,375.2,359.7,376,358.9z
			 M333.4,350.9c4,3.7,7.5,7,11.1,10.4c0.8-0.9,1.3-1.6,2-2.4c-2.9-2.7-5.6-5.2-8.1-7.5c0.9-2,2.2-3.6,2.2-5.3
			c0.2-11.4,0.1-22.8,0-34.2c0-0.8-0.2-1.9-0.7-2.4c-2.2-2.2-4.5-4.2-7-6.5c-0.8,0.7-1.4,1.3-2.2,1.9c2,1.8,3.5,3.4,5.2,4.8
			c1.5,1.2,1.9,2.5,1.9,4.4c-0.1,8.6-0.2,17.3,0,25.9C338,344.3,338,348.3,333.4,350.9z"/>
		<path d="M195.2,305.7c1-0.8,1.7-1.4,2.5-2c-3.8,5.9-1.4,12.3-1.7,18.3c-0.4,6.5,0,13-0.1,19.5c0,2.1,0.5,3.7,2.2,5.1
			c1.7,1.4,3.3,3,4.9,4.6c0.9-0.7,1.7-1.3,2.4-1.9c0.2,0.2,0.4,0.4,0.6,0.6c-4,4.3-7.9,8.6-12.1,13.1c-4.2-3.9-8.3-7.6-12.5-11.5
			c-3.8,3.9-7.4,7.6-11.3,11.5c-4.8-4.2-9.3-8.2-13.9-12.2c-0.8,0.5-1.5,1-2.1,1.5c2.4-3.4,1.2-7.1,1.2-10.6
			c0.1-8.8,0.1-17.6,0-26.4c0-1.7,0.5-2.7,1.9-3.7c7.4-5.1,14.6-10.4,21.9-15.7c1.3-0.9,2.1-1.1,3.4,0
			C186.7,299.1,190.9,302.3,195.2,305.7z M170.4,304.1c-0.3,0.6-0.4,0.7-0.4,0.9c0,12.3,0,24.6,0,36.8c0,0.6,0.1,1.4,0.5,1.7
			c2.9,2.7,6,5.3,9.4,8.3c0.6-1.6,1.3-2.7,1.3-3.7c0.1-11.3,0.1-22.6,0-33.9c0-0.7-0.2-1.7-0.7-2.1
			C177.3,309.4,173.9,306.8,170.4,304.1z M171.2,303.3c3,2.4,5.9,4.8,9,7c1.6,1.1,2.1,2.4,2.1,4.2c-0.1,11.2-0.1,22.4,0,33.6
			c0,1,0.1,2.3,0.7,3c3.4,3.4,7,6.7,10.7,10.2c0.8-1,1.3-1.7,1.9-2.5c-3-2.8-5.9-5.3-8.6-8c-1-1-1.8-2.7-1.8-4.1
			c-0.2-9.2-0.5-18.4,0.1-27.5c0.4-6.4-1-11.2-6.9-14.3c-1.1-0.6-2-1.5-2.9-2.4C173.9,301,172.5,301.2,171.2,303.3z M171.8,359.2
			c-3.5-3.2-6.8-6.3-10.3-9.2c-1.6-1.4-2.3-2.9-2.3-5c0.1-10.1,0-20.3,0-30.4c0-0.8,0-1.7,0-2.8c-2.1,0.7-2.9,1.6-2.9,3.5
			c0.1,10.8,0,21.5,0.1,32.3c0,0.8,0.2,1.9,0.7,2.4c4.1,3.8,8.3,7.5,12.7,11.3C170.5,360.5,171.1,359.9,171.8,359.2z"/>
		<path d="M512,307.2c1.1-1,1.9-1.6,2.7-2.3c0.2,0.3,0.4,0.6,0.4,0.6c-2.7,2.4-2.4,5.6-2.4,8.8c0.1,9.8,0,19.6,0.1,29.3
			c0,1.8-0.4,2.9-1.9,4c-6.4,4.6-12.8,9.3-19.1,14.1c-1.3,1-2.1,1-3.4,0c-5-3.9-10-7.6-15.1-11.4c-0.8,0.6-1.5,1.2-2.3,1.8
			c2.3-3.2,1.2-6.9,1.3-10.2c0.1-9.3,0-18.7,0.1-28c0-1,0.7-2.4,1.5-3c6.8-5,13.7-9.8,20.5-14.9c1.5-1.1,2.4-0.9,3.7,0.2
			C502.5,299.8,507.2,303.4,512,307.2z M497.6,352.3c0.3-0.5,0.4-0.7,0.4-0.8c0-12.3,0-24.7,0-37c0-0.6-0.1-1.4-0.5-1.7
			c-3.4-2.8-6.8-5.5-10.3-8.3c-0.3,0.5-0.5,0.6-0.5,0.8c0,12.5,0,25,0,37.6c0,0.7,0.4,1.6,0.9,2
			C490.9,347.4,494.2,349.8,497.6,352.3z M475.9,310.8c-1.9,0.7-2.8,1.5-2.8,3.5c0.1,10.8,0,21.7,0.1,32.5c0,1.1,0.8,2.6,1.7,3.3
			c4.4,3.6,9.1,6.9,13.5,10.4c1.4,1.1,2.3,1.1,3.4-0.6c-4.5-3.6-9-7.2-13.6-10.7c-1.6-1.2-2.2-2.4-2.2-4.4
			c0.1-10.4,0.1-20.8,0.1-31.2C476.1,312.7,476,311.8,475.9,310.8z M487,302.8c3.3,2.6,6.4,5.3,9.7,7.7c1.8,1.3,2.5,2.9,2.5,5.1
			c-0.1,11.9-0.1,23.8-0.1,35.7c0,0.9,0,1.9,0,3.1c1.9-0.8,2.9-1.7,2.9-3.6c-0.1-12.8,0-25.6-0.1-38.4c0-1-0.7-2.2-1.5-2.8
			c-3-2.6-6.3-5-9.3-7.6C489.5,300.7,488.3,300.9,487,302.8z"/>
		<path d="M336.4,442.8c1-0.8,1.9-1.5,2.7-2.2c-3.8,5-1.7,10.6-1.9,15.9c-0.3,7.5-0.1,15.1-0.1,22.7c0,1.8-0.4,3.1-2,4.2
			c-6.4,4.6-12.6,9.2-18.9,13.9c-1.4,1-2.3,1-3.7,0c-4.9-3.8-9.9-7.5-15-11.3c-0.8,0.6-1.6,1.2-2.4,1.7c2.2-2.7,1.3-5.8,1.4-8.7
			c0-9.6,0.1-19.2,0-28.8c0-2.1,0.7-3.4,2.4-4.6c6.7-4.6,13.2-9.3,19.7-14.1c1.4-1,2.2-0.9,3.4,0.1
			C326.8,435.4,331.6,439,336.4,442.8z M322.5,488.3c0-11.6-0.3-22.5,0.1-33.3c0.2-4.9-1.2-8.1-5.2-10.5c-2.1-1.2-3.9-2.8-6.2-4.6
			c0,13.3,0,25.9,0,38.5c0,0.6,0.3,1.5,0.8,1.9C315.3,482.9,318.6,485.4,322.5,488.3z M323.5,490c2.5-0.7,2.9-2.1,2.9-4.1
			c-0.1-12.5,0-24.9-0.1-37.4c0-1.1-0.6-2.4-1.4-3.1c-3.1-2.7-6.4-5.1-9.5-7.8c-1.8-1.6-2.9-0.8-4.1,0.8c3,2.4,5.7,4.8,8.7,6.8
			c2.6,1.8,3.8,3.8,3.6,7c-0.3,3.9-0.1,7.8-0.1,11.7C323.5,472.7,323.5,481.2,323.5,490z M315.9,496.6c0.1-0.4,0.2-0.7,0.2-1.1
			c-4.6-3.6-9.1-7.3-13.8-10.8c-1.3-1-1.9-2.1-1.9-3.8c0.1-10.5,0-21,0-31.5c0-0.9-0.1-1.9-0.1-2.8c-0.3-0.1-0.6-0.2-0.9-0.3
			c-0.6,1.2-1.7,2.3-1.8,3.5c-0.1,11-0.1,22,0,33c0,0.9,0.6,2.1,1.3,2.6c4.7,3.7,9.4,7.3,14.2,10.8
			C313.8,496.7,315,496.5,315.9,496.6z"/>
		<path d="M337,497.3c5.9-8.6,11.8-17.1,18-26.2c-4.2,0-7.8,0-11.7,0c0-4,0-7.6,0-11.2c0-3.9-0.1-7.8,0.1-11.7c0-1,0.7-2.4,1.5-3
			c6.4-4.7,12.9-9.2,19.4-13.7c0.6-0.4,1.8-0.6,2.3-0.3c5.6,4.1,11.2,3.2,17.2,0.5c-5.1,7.5-10.2,14.9-15.7,23c4.8,0,9.1,0,13.8,0
			c0,5.1,0,9.8,0,14.5c0,4.1,0.1,8.2-0.1,12.3c0,1.1-0.6,2.5-1.4,3.1c-6,4.4-12.2,8.7-18.3,12.9c-0.6,0.4-2.1,0.4-2.6,0
			c-7.3-5.8-13.7-5.9-21-0.2c-0.3,0.2-0.7,0.4-1,0.6C337.2,497.6,337.1,497.4,337,497.3z M344.8,488.2c7.7-4.5,15-5.5,22.3,1.1
			c0-7.8,0-15.1,0-22.7c-1.7,0-3.2,0.1-4.7,0c-2.2-0.3-3.4,0.6-4.5,2.4c-1.4,2.4-3.1,4.5-4.7,6.8C350.4,480,347.6,484.1,344.8,488.2
			z M375.6,441.4c-6.3,3-12,2.8-17.7-1.9c0,6,0,11.3,0,16.6c0,1,0.5,2.9,0.9,2.9c1.8,0.1,3.9,1.1,5.4-1
			C368,452.4,371.8,446.9,375.6,441.4z M344.3,469.9c3.4,0,6.3-0.1,9.2,0c2.1,0.1,3.3-0.7,3.8-3.1c-3.5,0-6.7,0-10.3,0
			c0-7.5,0-14.7,0-21.9c-0.2-0.1-0.5-0.1-0.7-0.2c-0.7,0.9-2,1.9-2,2.8C344.3,454.9,344.3,462.2,344.3,469.9z M360.6,465.4
			c2.8,0,5.1,0,7.7,0c0,8.8,0,17.2,0,25.8c2-0.8,2.8-1.8,2.8-3.7c-0.1-5.2,0-10.5,0-15.7c0-3,0-6,0-9.5
			C367.6,463.4,363.5,460.5,360.6,465.4z M357.8,437.3c5.2,6,13,6.5,19,0.9c-6.2,1.8-11.7,2.1-16.3-3
			C359.4,436.1,358.6,436.7,357.8,437.3z M344.6,492.3c6-1,10.7-0.1,14.1,3.1c1.7,1.6,2.7,1.4,4-0.2
			C359,489.4,349.8,488.6,344.6,492.3z"/>
		<path d="M220.2,335.4c-4.2,0-7.8,0-11.7,0c0-3.8,0-7.4,0-11c0-4,0-8,0.1-12c0-0.9,0.3-2.1,0.9-2.5c7.1-5.1,14.2-10.1,21.4-15.1
			c5.7,4.9,11.6,4.2,18,1.2c-5.1,7.5-10.3,15.1-15.7,23c4.8,0,9.1,0,13.6,0c0.1,0.9,0.2,1.6,0.2,2.3c0,8.1,0,16.2,0.1,24.3
			c0,1.7-0.6,2.7-2,3.7c-5.9,4.1-11.8,8.3-17.7,12.4c-0.7,0.4-2.1,0.6-2.6,0.2c-8.2-6.1-13.4-6.1-21.6,0c-0.1,0.1-0.3,0.1-1.2,0.3
			C208.1,353.1,213.9,344.5,220.2,335.4z M232.2,353.6c0-7.7,0-15.1,0-22.6c-1.7,0-3.1,0.2-4.5,0c-2.3-0.3-3.5,0.7-4.7,2.6
			c-3.9,5.9-8,11.8-12,17.6c-0.4,0.5-0.6,1.1-1.1,2C219.8,347.6,224.9,347.7,232.2,353.6z M223.2,323.1c3.4,0.8,5.7,0.4,7.6-2.8
			c2.3-4,5.2-7.6,7.8-11.4c0.7-1,1.4-2.1,2.1-3.1c-6.3,2.9-12,2.6-17.5-2C223.2,310.6,223.2,316.8,223.2,323.1z M233.4,355.5
			c2.2-0.7,3-1.8,3-3.8c-0.1-7.1,0-14.2,0-21.3c0-1.1,0-2.2,0-3.8c-3.6,1.3-7.7-1.7-10.5,3.1c1.5,0,2.4,0,3.4,0
			c4.4,0.2,4.2-0.7,4.2,4.1c0,6,0,11.9,0,17.9C233.4,352.9,233.4,354.1,233.4,355.5z M212.3,331.3c0-7.7,0-14.8,0-22.2
			c-1.9,1-3,1.9-2.8,4c0.2,2.6,0,5.3,0,8c0,4.3,0,8.6,0,13.2c3.3,0,6.3-0.1,9.3,0c2.1,0.1,3.1-0.8,3.7-3
			C219.2,331.3,216,331.3,212.3,331.3z M223.1,301.7c4.7,6,13.4,6.5,18.4,1.1c-1.2,0.2-2.2,0.5-3.2,0.7c-3.9,0.8-7.7,0.6-10.8-2.2
			C225.6,299.5,224.4,300.1,223.1,301.7z M225.7,361.3c0.9-0.7,1.6-1.3,2.3-1.8c-5-5.6-13.5-6.9-18-2.8
			C216.1,355.4,221.2,356.7,225.7,361.3z"/>
		<path d="M416.7,433.1c-2.5,4.7-4.4,9.1-10.8,7.1c-0.1,1.4-0.1,2.3-0.1,3.3c0,11.7,0,23.3-0.1,35c0,1.8,0.5,3,2,4
			c2,1.3,3.8,2.9,5.7,4.4c1.1-1,2-1.9,3-2.8c0.2,0.2,0.5,0.4,0.7,0.7c-4.2,4.5-8.3,9-12.7,13.8c-4.2-3.3-8.3-6.5-12.4-9.8
			c-0.9,0.7-1.7,1.4-2.5,2c3.6-5.5,1.5-11.6,1.7-17.3c0.3-9.8,0.1-19.6,0.1-29.4c0-1.1,0-2.1,0-3.5c-2.6,0-5.1,0-8.3,0
			c2.6-3.4,3-7.8,8.1-7.7c0.1-0.9,0.3-1.7,0.1-2.5c-0.8-4.5,1-7.9,4.3-11c3.4-3.2,6.5-6.7,10.3-9.9c0,1.5,0,2.9,0,4.4
			c0,5.6,0.1,11.2,0,16.8c0,1.9,0.6,2.5,2.5,2.4C410.9,433,413.5,433.1,416.7,433.1z M392.3,440.6c0,15.4,0,30.5,0,45.6
			c0,0.7,0.5,1.7,1.1,2.2c3.4,2.8,6.8,5.4,10.2,8.1c0.2,0.1,0.5,0.1,0.9,0.2c0.4-0.6,0.9-1.2,1.4-1.9c-2.8-2.2-5.3-4.5-8-6.4
			c-2.1-1.5-2.8-3.2-2.8-5.8c0.1-13.2,0.1-26.5,0.1-39.7c0-0.8-0.1-1.5-0.2-2.4C394,440.5,393.3,440.5,392.3,440.6z M395,433.7
			c0-4.4,0-7.9,0-11.5c-2.4,1.7-3.7,6.4-2.6,9.9C392.6,432.6,393.7,432.9,395,433.7z"/>
		<path d="M468.8,349c-4.2,4.5-8.4,9.1-12.8,13.8c-4.2-3.3-8.3-6.5-12.4-9.8c-0.9,0.8-1.7,1.4-2.5,2.1c3.7-5.5,1.5-11.6,1.7-17.3
			c0.4-9.9,0.1-19.8,0.1-29.6c0-1,0-2.1,0-3.3c-2.7,0-5.1,0-7.6,0c0.6-3.8,3.9-7.3,7.6-7.7c0-2.2-0.1-4.5,0-6.7
			c0.1-1.1,0.4-2.3,1.1-3.1c3.9-4.3,7.9-8.5,11.8-12.7c0.3-0.4,0.8-0.6,1.6-1.3c0,2.7,0,4.9,0,7c0,5,0.1,10,0,15
			c0,1.6,0.5,2.2,2.1,2.1c2.8-0.1,5.6,0,8.9,0c-2.6,4.5-4.4,9.2-11,7.1c0,1.5,0,2.4,0,3.4c0,11.6,0.1,23.1-0.1,34.7
			c0,2,0.6,3.3,2.3,4.4c1.8,1.2,3.5,2.7,5.4,4.1c1.1-1,2.1-1.8,3.1-2.7C468.4,348.6,468.6,348.8,468.8,349z M457.6,359.1
			c-2.9-2.3-5.6-4.6-8.4-6.7c-1.6-1.3-2.5-2.6-2.4-4.8c0.1-13.1,0.1-26.3,0.1-39.4c0-1,0-2.1,0-3.2c-1.1,0-1.8,0-2.6,0
			c-0.1,0.3-0.2,0.6-0.2,0.8c0,15,0,30,0,45c0,0.5,0.1,1.2,0.4,1.4c3.8,3.1,7.6,6,11.5,9.1C456.5,360.5,457,359.9,457.6,359.1z
			 M446.7,286.1c-4.5,3.2-2.2,7.4-2.8,11.2c1.2-0.1,2-0.1,2.8-0.2C446.7,293.5,446.7,290.1,446.7,286.1z"/>
		<path d="M380,234c2.7-2.6,5.2-5.1,7.7-7.6c0.2,0.1,0.3,0.3,0.5,0.4c-5.7,6.1-11.5,12.3-17.4,18.6c-6-4.8-11.8-9.4-17.7-14.2
			c-0.8,0.7-1.6,1.3-2.4,2c-0.2-0.3-0.4-0.5-0.4-0.5c2.4-2.4,2.1-5.4,2.1-8.4c0-8.8,0-17.6,0-26.4c0-1,0.4-2.4,1.1-3
			c7.7-5.7,15.5-11.3,23.3-17c0.3-0.2,0.6-0.3,1.1-0.6c4.3,6.9,8.6,13.8,13,20.9c-0.8,0.7-1.6,1.4-2.4,2c-6.7,5-13.4,9.9-20.2,14.9
			c-2.3,1.7-2.5,7.6-0.3,9.4C371.8,227.6,375.7,230.6,380,234z M366.8,214.8c4.1-3,7.9-5.8,11.8-8.7c-3.9-6.3-7.7-12.4-11.8-19
			C366.8,196.7,366.8,205.5,366.8,214.8z M356.2,194.4c-2,0.9-3,1.7-3,3.7c0.1,10,0,20.1,0.1,30.1c0,0.9,0.5,2.1,1.2,2.7
			c4.8,4,9.6,7.8,14.4,11.8c1.6,1.3,2.4,0.9,3.2-0.9c-2.9-2.4-5.6-5.1-8.7-7.1c-5.9-3.7-8-8.4-7.4-15.4
			C356.8,211.2,356.2,203,356.2,194.4z M369.7,184.6c-2,0.8-2.5,1.7-1.3,3.5c1.6,2.2,2.9,4.7,4.4,7c2.1,3.4,4.3,6.9,6.5,10.6
			c0.9-0.7,1.5-1.2,2.3-1.8C377.6,197.2,373.7,190.9,369.7,184.6z"/>
		<path d="M322.7,302.6c-3.5,2.5-2.6,6-2.6,9.3c0,10.1,0.1,20.1-0.1,30.2c0,2.3,0.6,3.9,2.4,5.2c1.5,1.2,2.9,2.6,4.4,4
			c1.1-1,2-1.8,3-2.7c0.2,0.2,0.4,0.4,0.6,0.6c-4.1,4.4-8.2,8.9-12.6,13.6c-3.9-3.6-7.8-7-11.7-10.6c-0.9,0.7-1.7,1.4-2.5,2
			c-0.2-0.4-0.3-0.6-0.3-0.6c2.5-2.1,2.3-4.9,2.2-7.8c-0.1-9.9-0.2-19.8,0.1-29.6c0.1-3.4-0.9-5.8-3.6-7.7c-0.9-0.6-1.6-1.4-2.4-2.1
			c-0.8,0.6-1.6,1.2-2.3,1.8c-0.2-0.2-0.4-0.4-0.5-0.5c4-4.2,8-8.5,12.1-12.9c3.6,3.2,7,6.3,10.5,9.4c0.9-0.7,1.8-1.4,2.6-2
			C322.2,302.2,322.4,302.4,322.7,302.6z M319.6,359.1c-2.8-2.6-5.5-5.3-8.3-7.7c-1.4-1.2-1.9-2.5-1.9-4.3c0.1-11.6,0.1-23.3,0-34.9
			c0-1-0.1-2.3-0.7-2.9c-1.9-2.1-4.1-3.9-6.3-5.9c-0.8,0.8-1.4,1.5-2,2.2c1.2,1.2,2.1,2.2,3.2,2.9c2.5,1.8,3.1,4.1,3.1,7.1
			c-0.2,11-0.1,22,0,33.1c0,0.9,0,2.2,0.6,2.7c3.4,3.3,7,6.5,10.6,9.8C318.4,360.4,318.9,359.8,319.6,359.1z"/>
		<path d="M302.8,283.5c3.5-3.7,6.7-7.1,10.1-10.8c3.7,3.4,7.3,6.7,11,10.1c-3.4,3.6-6.7,7.1-10.2,10.8
			C310,290.1,306.5,286.9,302.8,283.5z M315.7,290.1c-3.3-3-6.3-5.8-9.5-8.7c-0.7,0.7-1.2,1.3-1.8,2c3.2,3,6.2,5.8,9.5,8.9
			C314.4,291.6,314.9,291,315.7,290.1z"/>
		<path class="st0" d="M98.9,349.9c-4.4-3.8-8.2-7-11.9-10.3c-0.6-0.6-1-1.7-1-2.6c-0.1-14.8-0.2-29.7,0.2-44.5
			c0.1-2.4,2.8-4.7,4.7-7.5c3.7,3.8,6.8,6.9,9.8,10.2c0.6,0.6,0.8,1.8,0.8,2.6c0,15.6,0.1,31.1-0.1,46.7
			C101.5,346.1,100,347.7,98.9,349.9z"/>
		<path class="st0" d="M123.3,285.8c0.3,0.2,0.4,0.3,0.6,0.4c7.9,7.5,7.9,7.5,7.9,18.4c0,14.1,0,28.1,0,42.2c0,0.9,0,1.8,0,3.4
			c-2.9-2.5-5-4.8-7.6-6.5c-4.7-3-5.8-7-5.7-12.3c0.4-12.1,0.3-24.2,0-36.3C118.5,290.8,120.2,288.2,123.3,285.8z"/>
		<path class="st0" d="M123.4,359.4c-0.9,0.6-1.6,1-2.6,1.6c-3.2-2.7-6.6-5.7-10.1-8.7c-0.3-0.2-0.5-0.6-0.8-0.7
			c-6.2-3.5-7.6-8.8-7.3-15.8c0.6-12.7,0.2-25.4,0.1-38.1c0-1.3-0.8-2.9-1.7-3.9c-2.8-3.1-5.9-5.9-9.1-9c0.7-0.8,1.3-1.4,2.4-2.7
			c3.6,3.9,7.1,7.5,10.5,11.3c0.6,0.7,0.6,2,0.6,3c0,14.9,0.1,29.9,0,44.8c0,1.9,0.5,3.1,2,4.3C112.6,349.9,117.7,354.5,123.4,359.4
			z"/>
		<path class="st0" d="M133.1,349.7c0-0.9-0.1-1.7-0.1-2.6c0-16.8,0-33.6,0-50.4c0-2.1-0.4-3.7-2.1-5.1c-2.5-2-4.7-4.3-7.2-6.5
			c1-1.1,1.5-1.7,2.4-2.6c3.1,3.2,6.2,6.2,9.1,9.4c0.5,0.5,0.5,1.5,0.5,2.2c0,17.2,0.1,34.5,0,51.7c0,1.4-1.1,2.8-1.6,4.2
			C133.8,349.9,133.5,349.8,133.1,349.7z"/>
		<path class="st0" d="M69.7,318.5c-3,0.3-5.9,0.7-8.9,1c0.3-0.4,0.6-1.4,1.2-1.9c0.7-0.6,1.7-1.1,2.6-1.2c2.4-0.2,5.1-0.8,7.1,0.1
			c2.5,1.2,0.9,4.3,1,6.5c0.2,6.3,0,12.6,0.1,18.9c0,1.1,0.7,2.6,1.5,3.4c5.1,4.6,10.3,9,15.6,13.7c-0.6,0.8-1.1,1.4-1.8,2.3
			c-2.2-1.9-4.2-3.6-6.2-5.3c-1.8-1.6-3.5-3.4-5.5-4.6c-5.9-3.4-7.2-8.4-6.6-14.8c0.5-5.6,0.1-11.2,0.1-16.8
			C70,319.5,69.9,319.3,69.7,318.5z"/>
		<path class="st0" d="M71.5,260c-1,2.3-2.3,5-3.3,7.8c-0.9,2.5-0.3,5,1.3,7.1c2.7,3.6,3.6,7.6,3.4,12c-0.2,5.9,0,11.9-0.1,17.9
			c0,0.7-0.7,1.9-1.2,2c-1.6,0.4-1.5-1-1.5-2.1c0-6.2-0.1-12.5,0-18.7c0.1-3.2-0.7-5.9-2.5-8.5C63.3,271.3,65.2,263.7,71.5,260z"/>
		<path class="st0" d="M264.6,421.1c2.6,2.3,5,4.3,7.3,6.4c0.5,0.5,1,1.3,1,2c0.1,18,0,36.1,0,54.9c-4.6-4.7-10-6.5-16.1-7.2
			c0-1,0-2,0-2.9c0-14,0-27.9-0.1-41.9c0-2.2,0.6-3.9,2.2-5.4C260.9,425.3,262.6,423.2,264.6,421.1z"/>
		<path class="st0" d="M255.5,431.2c0,28.3,0,56.1,0,84.3c-2.2-1.1-3.1-2.6-3.1-4.9c0.1-24.6,0.1-49.3,0-73.9
			C252.4,434.2,253.4,432.7,255.5,431.2z"/>
		<path class="st0" d="M236.6,451.9c-4.1-0.4-7.6-0.5-10.5,2.3c0.1-3,2.2-5.1,5.5-5.5c7.4-1,7.7-0.7,7.7,6.7c0,21.7,0,43.4,0,65.1
			c0,2-0.5,3.5-2.7,4.7C236.6,500.5,236.6,476.3,236.6,451.9z"/>
		<path class="st0" d="M265.5,420.2c0.8-0.9,1.4-1.5,2.1-2.3c2.9,2.7,5.8,5.3,8.6,8.1c0.5,0.5,0.6,1.6,0.7,2.5
			c0,19.6,0.1,39.1,0,58.7c0,1.3-1.1,2.6-1.7,3.8c-0.3-0.1-0.7-0.2-1-0.3c0-0.9,0-1.7,0-2.6c0-19.1,0-38.2,0-57.3
			c0-2-0.6-3.4-2.1-4.6C269.9,424.3,267.9,422.4,265.5,420.2z"/>
		<path class="st0" d="M230.7,420.2c1-2.3,1.8-2.2,3.6-0.8c4.1,3.1,5.7,6.8,5,11.8c-0.4,2.5,0,5.1-0.1,7.7c0,0.6-0.8,1.1-1.2,1.6
			c-0.5-0.6-1.3-1.1-1.4-1.7c-0.2-3.4-0.3-6.7-0.1-10.1c0.1-2.2-0.4-3.9-2.3-5.2C233,422.6,231.9,421.4,230.7,420.2z"/>
		<path class="st0" d="M256.9,489.9c0-0.5,0-1.4,0-2.6c5.4,0.4,9.2,3.1,12.4,7.5c-0.9,0.7-1.6,1.3-2.2,1.8
			C263.8,494.4,260.5,492.3,256.9,489.9z"/>
		<path class="st0" d="M224.9,494.6c1.7-3.6,5.8-6.4,10.1-7c0.6,1.7,0.5,2.7-1.6,3.4C230.5,492,227.7,493.4,224.9,494.6z"/>
		<path class="st0" d="M260.4,188c1.1-0.4,2.2-0.9,3.5-1.4c0.1,1.1,0.1,1.9,0.1,2.8c0,10.6-0.1,21.2,0.1,31.7c0,2.1-0.8,3.4-2.6,3.6
			c-1,0.1-2.4-0.8-3.1-1.6c-7.4-8.8-8.5-19.1-6.4-29.9c1.5-7.7,5.7-13.9,11.1-19.4c0.5-0.5,1.6-1,2.2-0.8c4.1,1.3,8.2,2.8,12.7,4.4
			c-6.3,3.4-12.2,6.7-18.1,9.9C260.2,187.5,260.3,187.8,260.4,188z"/>
		<path class="st0" d="M261.9,226c5.1-2.8,10-5.5,15-8.1c1.7-0.9,2.4-1.9,2.4-3.9c-0.1-11.1-0.1-22.2-0.1-33.3c0-0.9,0-1.7,0-2.8
			c2.8,0,5.4,0,8.2,0c0.1,1.1,0.2,1.9,0.2,2.8c0,14.8,0,29.5,0.1,44.3c0,2.1-0.6,3.2-2.6,3.8C277.1,231.5,267.6,230.5,261.9,226z"/>
		<path class="st0" d="M295.7,230.2c-4.6,7-10.6,12.3-19.1,13.9c-19,3.5-35.1-9.3-37.3-29.2c-1.2-11.1,1.4-20.8,8.9-29.1
			c0.5-0.5,1-1,1.5-1.6c-2.1,4-4.5,7.7-6.1,11.7c-4.8,12.7-2,32.7,13.5,41.8c12,7.1,24.9,5.2,35.6-5.5c0.8-0.8,1.5-1.8,2.3-2.7
			C295.2,229.7,295.4,230,295.7,230.2z"/>
		<path class="st0" d="M244.6,174.7c2.8-5.9,10.1-9.1,17-7.4c3.9,0.9,7.6,2.4,11.4,3.8c4.5,1.6,9,2.7,13.8,2.4
			c6.2-0.4,9.7-2.4,14.5-8.6c0,2.2-1.4,4.8-3.8,7.1c-6.1,5.7-13.2,6-20.7,3.9c-3.6-1-7-2.5-10.6-3.7
			C258.8,169.6,251.5,169.1,244.6,174.7z"/>
		<path class="st0" d="M267.8,184.9c0,7.5,0,15.1,0,22.6c0,4,0.1,8-0.1,12c-0.1,1.1-1,2.2-1.5,3.2c-0.3-0.1-0.6-0.2-0.9-0.3
			c-0.1-0.7-0.2-1.3-0.2-2c0-10.9,0-21.9,0.1-32.8c0-1.1,0.9-2.1,1.4-3.2C267,184.6,267.4,184.8,267.8,184.9z"/>
		<path class="st0" d="M250.9,351.3c0.1-0.4,0.1-0.5,0.2-0.6c4.1-2.9,4.2-7,4.1-11.5c-0.2-16.6,0-33.1-0.1-49.7
			c0-2.2,0.7-3.7,2.8-5.2c0.1,1.5,0.2,2.6,0.2,3.8c0,18.2-0.1,36.3,0,54.5c0,3.1,0.4,6.1-3.2,8.1c3.1,2.9,6,5.5,9,8.2
			c-0.7,0.8-1.3,1.5-2,2.3C258.1,357.9,254.5,354.6,250.9,351.3z"/>
		<path class="st0" d="M279.1,368.2c0.2-4,0.6-7.9,0.6-11.8c0.1-13.7,0-27.4,0.1-41.1c0-2-0.5-3.5-2.1-4.8c-2-1.6-3.8-3.5-5.7-5.3
			c0.8-0.8,1.4-1.5,2.2-2.3c2.7,2.5,5.3,4.9,7.7,7.4c0.5,0.5,0.7,1.6,0.7,2.5c0,15.7,0.1,31.5,0,47.2
			C282.5,363.1,281.6,366.1,279.1,368.2z"/>
		<path class="st0" d="M302.5,233.4c4.8-2.8,4.7-6.9,4.7-11.2c-0.1-16.7,0-33.4-0.1-50.2c0-2.3,0.9-3.8,3.1-5.4c0,1.5,0,2.7,0,3.9
			c0,18.3,0,36.6,0.1,55c0,3,0,5.7-3.4,7.6c3.2,2.9,6.1,5.5,9.1,8.3c-0.8,0.8-1.4,1.5-2.2,2.3C310,240.4,306.4,237.1,302.5,233.4z"
			/>
		<path class="st0" d="M323.9,187.7c0.7-0.8,1.2-1.4,2-2.2c2.8,2.6,5.5,5.1,8.1,7.7c0.5,0.5,0.6,1.5,0.6,2.2c0,15.1,0,30.2,0,45.4
			c0,3.8-0.8,7.4-3.6,10.1c1.4-17.6,0.3-35.2,0.7-52.8c0.1-2.3-0.5-3.9-2.3-5.3C327.5,191.3,325.9,189.6,323.9,187.7z"/>
		<path class="st0" d="M413.2,352.3c-3.1-2.4-5.5-4.3-7.8-6.2c-0.6-0.5-1.1-1.5-1.1-2.2c-0.1-12.9,0-25.8,0-38.6
			c0-0.2,0.1-0.5,0.4-1.3c3.7,3,7.1,5.7,10.5,8.6c0.4,0.3,0.3,1.3,0.3,2c0,10.8,0.1,21.7-0.1,32.5
			C415.4,348.7,414.1,350.3,413.2,352.3z"/>
		<path class="st0" d="M415.4,350.7c0.1,1.3,0.1,1.8,0.1,2.3c-0.2,5.1,1.2,9.2,6,12.1c5,3.1,5.2,7.9,0.9,11.7
			c-0.5,0.5-1.9,0.7-2.4,0.3c-8.2-6.6-16.6-5.5-25.2-1.2c-0.2,0.1-0.5,0.2-0.7,0.3c-0.1,0-0.2-0.1-0.5-0.2
			C400.7,367.7,407.8,359.5,415.4,350.7z"/>
		<path class="st0" d="M405.5,303.2c1.2-1.6,2.2-1.9,3.7-0.7c3,2.4,6.1,4.6,9,7.2c0.8,0.7,1.3,2.1,1.3,3.2c0.1,12.9,0.2,25.8,0,38.7
			c-0.1,5,1,9.1,5.4,11.9c1.9,1.2,3.1,3.3,2.8,5.7c-0.1,0.8-0.5,1.7-1.2,2.5c0.3-3.9-2-6-4.7-7.6c-4-2.4-5.3-5.9-5.2-10.3
			c0.1-13,0-26,0-39c0-2.1-0.6-3.4-2.3-4.6C411.3,308,408.4,305.6,405.5,303.2z"/>
		<path class="st0" d="M406.1,359.5c-0.8,0.9-1.3,1.6-2.1,2.4c-4.3-3.4-8.6-6.8-12.7-10.2c-0.5-0.4-0.7-1.6-0.7-2.4
			c0-11.2,0-22.4,0-33.6c0-2,0.6-3.2,2.9-3.8c0,1.1,0,2,0,3c0,10.9,0,21.8,0.1,32.8c0,1.2,0.8,2.7,1.7,3.5
			C398.7,354,402.3,356.6,406.1,359.5z"/>
		<path class="st0" d="M393,380.2c9.6-5.5,16.2-3,21.3,3.5c-0.6,0.5-1.2,1-2.2,1.9C407.2,378.9,400.6,377.6,393,380.2z"/>
		<path class="st0" d="M520.9,305.2c0.7-0.8,1.3-1.4,2-2.2c2.5,2.3,4.9,4.4,7.1,6.6c0.5,0.5,0.6,1.4,0.6,2.2
			c0,11.5,0.1,22.9-0.1,34.4c0,1.5-1.3,3.1-2.2,5.1c2.4,2.3,5.2,4.9,8.2,7.7c-0.7,0.8-1.3,1.4-2,2.3c-3.7-3.5-7.2-6.8-11.1-10.4
			c5.1-2.9,4.5-7.6,4.5-12.2c-0.1-8.3,0.1-16.5-0.1-24.8c0-1.3-0.8-2.8-1.7-3.8C524.6,308.3,522.8,306.9,520.9,305.2z"/>
		<path class="st0" d="M545.4,305.1c0.8-0.6,1.5-1.1,2.4-1.8c2.5,2.3,5.2,4.6,7.7,7.1c0.6,0.6,0.5,2,0.6,3c0,11.1,0.1,22.2,0,33.3
			c0,2.5,0.7,4.1,2.6,5.7c2.5,1.9,4.8,4.2,7.3,6.4c-0.7,0.8-1.2,1.5-2,2.4c-3.4-3.1-6.8-6-10.1-9.1c-0.6-0.5-0.6-1.8-0.6-2.7
			c0-11.4-0.1-22.7,0-34.1c0-2.1-0.6-3.5-2.1-4.8C549.3,308.9,547.6,307.1,545.4,305.1z"/>
		<path class="st0" d="M376,358.9c-0.8,0.8-1.4,1.5-2.1,2.3c-3.3-3-6.7-5.8-9.8-8.8c-0.6-0.6-0.8-1.9-0.9-2.9
			c-0.1-11.3-0.1-22.6,0-33.9c0-2.3-0.6-4-2.4-5.5c-1.7-1.3-3.3-3-5.1-4.7c0.7-0.7,1.2-1.3,2-2.1c2.6,2.4,5.2,4.6,7.5,7
			c0.7,0.8,0.9,2.3,0.9,3.4c0.1,11.3,0.1,22.6,0,33.9c0,1.8,0.5,3,1.8,4.1C370.7,354,373.2,356.4,376,358.9z"/>
		<path class="st0" d="M333.4,350.9c4.6-2.6,4.6-6.6,4.5-10.8c-0.2-8.6-0.1-17.3,0-25.9c0-1.8-0.4-3.2-1.9-4.4
			c-1.7-1.4-3.3-3-5.2-4.8c0.8-0.7,1.4-1.2,2.2-1.9c2.4,2.2,4.8,4.3,7,6.5c0.5,0.5,0.7,1.6,0.7,2.4c0,11.4,0.1,22.8,0,34.2
			c0,1.6-1.3,3.3-2.2,5.3c2.5,2.3,5.2,4.9,8.1,7.5c-0.7,0.8-1.2,1.5-2,2.4C340.9,357.9,337.4,354.6,333.4,350.9z"/>
		<path class="st0" d="M170.4,304.1c3.5,2.7,6.9,5.3,10.2,8c0.5,0.4,0.7,1.4,0.7,2.1c0,11.3,0.1,22.6,0,33.9c0,1.1-0.7,2.2-1.3,3.7
			c-3.5-3-6.5-5.6-9.4-8.3c-0.4-0.3-0.5-1.1-0.5-1.7c0-12.3,0-24.6,0-36.8C170,304.9,170.1,304.7,170.4,304.1z"/>
		<path class="st0" d="M171.2,303.3c1.3-2,2.7-2.3,4.3-0.6c0.9,0.9,1.8,1.8,2.9,2.4c5.9,3.1,7.3,7.9,6.9,14.3
			c-0.6,9.1-0.2,18.3-0.1,27.5c0,1.4,0.8,3,1.8,4.1c2.6,2.8,5.5,5.2,8.6,8c-0.6,0.8-1.2,1.5-1.9,2.5c-3.7-3.5-7.3-6.8-10.7-10.2
			c-0.6-0.6-0.7-1.9-0.7-3c0-11.2-0.1-22.4,0-33.6c0-1.9-0.5-3.1-2.1-4.2C177.2,308.1,174.2,305.6,171.2,303.3z"/>
		<path class="st0" d="M171.8,359.2c-0.7,0.7-1.3,1.3-2,2.1c-4.3-3.9-8.5-7.5-12.7-11.3c-0.5-0.5-0.7-1.6-0.7-2.4
			c0-10.8,0-21.5-0.1-32.3c0-2,0.8-2.9,2.9-3.5c0,1.1,0,1.9,0,2.8c0,10.1,0.1,20.3,0,30.4c0,2.2,0.6,3.6,2.3,5
			C164.9,352.9,168.2,356,171.8,359.2z"/>
		<path class="st0" d="M497.6,352.3c-3.4-2.6-6.7-4.9-9.9-7.5c-0.5-0.4-0.9-1.3-0.9-2c0-12.5,0-25,0-37.6c0-0.1,0.2-0.3,0.5-0.8
			c3.5,2.8,6.9,5.5,10.3,8.3c0.4,0.3,0.5,1.1,0.5,1.7c0,12.3,0,24.7,0,37C498,351.6,497.9,351.8,497.6,352.3z"/>
		<path class="st0" d="M475.9,310.8c0.1,1.1,0.1,1.9,0.1,2.8c0,10.4,0,20.8-0.1,31.2c0,2,0.6,3.3,2.2,4.4c4.6,3.5,9,7.1,13.6,10.7
			c-1.1,1.7-2,1.6-3.4,0.6c-4.5-3.5-9.1-6.8-13.5-10.4c-0.9-0.7-1.6-2.1-1.7-3.3c-0.1-10.8,0-21.7-0.1-32.5
			C473.1,312.3,474.1,311.5,475.9,310.8z"/>
		<path class="st0" d="M487,302.8c1.4-2,2.5-2.1,4.2-0.7c3,2.6,6.3,5,9.3,7.6c0.8,0.7,1.5,1.9,1.5,2.8c0.1,12.8,0.1,25.6,0.1,38.4
			c0,2-1,2.8-2.9,3.6c0-1.2,0-2.2,0-3.1c0-11.9,0-23.8,0.1-35.7c0-2.3-0.6-3.8-2.5-5.1C493.4,308.1,490.3,305.5,487,302.8z"/>
		<path class="st0" d="M322.5,488.3c-3.9-2.9-7.2-5.4-10.5-8c-0.5-0.4-0.8-1.2-0.8-1.9c0-12.6,0-25.3,0-38.5
			c2.3,1.7,4.1,3.3,6.2,4.6c4.1,2.4,5.4,5.7,5.2,10.5C322.2,465.8,322.5,476.7,322.5,488.3z"/>
		<path class="st0" d="M323.5,490c0-8.8,0-17.4,0-25.9c0-3.9-0.3-7.9,0.1-11.7c0.3-3.3-1-5.3-3.6-7c-3-2.1-5.7-4.5-8.7-6.8
			c1.2-1.7,2.3-2.4,4.1-0.8c3.1,2.7,6.4,5.1,9.5,7.8c0.8,0.7,1.4,2.1,1.4,3.1c0.1,12.5,0,24.9,0.1,37.4
			C326.5,487.9,326,489.3,323.5,490z"/>
		<path class="st0" d="M315.9,496.6c-0.9-0.1-2.1,0.1-2.7-0.4c-4.8-3.5-9.6-7.1-14.2-10.8c-0.7-0.5-1.2-1.7-1.3-2.6
			c-0.1-11-0.1-22,0-33c0-1.2,1.1-2.3,1.8-3.5c0.3,0.1,0.6,0.2,0.9,0.3c0,0.9,0.1,1.9,0.1,2.8c0,10.5,0.1,21,0,31.5
			c0,1.7,0.5,2.8,1.9,3.8c4.6,3.6,9.2,7.2,13.8,10.8C316,495.8,316,496.2,315.9,496.6z"/>
		<path class="st0" d="M344.8,488.2c2.8-4.1,5.6-8.3,8.5-12.4c1.6-2.3,3.3-4.4,4.7-6.8c1.1-1.8,2.3-2.7,4.5-2.4c1.5,0.2,3,0,4.7,0
			c0,7.6,0,14.9,0,22.7C359.8,482.7,352.5,483.7,344.8,488.2z"/>
		<path class="st0" d="M375.6,441.4c-3.8,5.5-7.7,11-11.5,16.6c-1.4,2.1-3.6,1.1-5.4,1c-0.4,0-0.9-1.9-0.9-2.9
			c-0.1-5.3,0-10.6,0-16.6C363.6,444.2,369.4,444.4,375.6,441.4z"/>
		<path class="st0" d="M344.3,469.9c0-7.7-0.1-15.1,0.1-22.4c0-1,1.3-1.9,2-2.8c0.2,0.1,0.5,0.1,0.7,0.2c0,7.2,0,14.4,0,21.9
			c3.6,0,6.8,0,10.3,0c-0.6,2.4-1.7,3.2-3.8,3.1C350.7,469.8,347.7,469.9,344.3,469.9z"/>
		<path class="st0" d="M360.6,465.4c2.9-4.9,6.9-2,10.4-3.1c0,3.5,0,6.5,0,9.5c0,5.2-0.1,10.5,0,15.7c0,1.9-0.7,3-2.8,3.7
			c0-8.6,0-17.1,0-25.8C365.7,465.4,363.5,465.4,360.6,465.4z"/>
		<path class="st0" d="M357.8,437.3c0.8-0.6,1.7-1.2,2.7-2c4.5,5,10.1,4.8,16.3,3C370.7,443.8,363,443.4,357.8,437.3z"/>
		<path class="st0" d="M344.6,492.3c5.2-3.7,14.3-2.9,18,2.9c-1.3,1.6-2.3,1.8-4,0.2C355.3,492.2,350.6,491.3,344.6,492.3z"/>
		<path class="st0" d="M232.2,353.6c-7.3-5.9-12.4-6-22.3-0.5c0.5-0.9,0.7-1.5,1.1-2c4-5.9,8.1-11.7,12-17.6
			c1.2-1.8,2.4-2.9,4.7-2.6c1.4,0.2,2.8,0,4.5,0C232.2,338.5,232.2,345.9,232.2,353.6z"/>
		<path class="st0" d="M223.2,323.1c0-6.3,0-12.5,0-19.3c5.5,4.6,11.2,4.8,17.5,2c-0.7,1-1.4,2.1-2.1,3.1c-2.6,3.8-5.5,7.4-7.8,11.4
			C228.9,323.5,226.6,324,223.2,323.1z"/>
		<path class="st0" d="M233.4,355.5c0-1.4,0-2.6,0-3.8c0-6,0-11.9,0-17.9c0-4.9,0.2-3.9-4.2-4.1c-0.9,0-1.9,0-3.4,0
			c2.8-4.9,6.9-1.8,10.5-3.1c0,1.6,0,2.7,0,3.8c0,7.1-0.1,14.2,0,21.3C236.4,353.7,235.7,354.8,233.4,355.5z"/>
		<path class="st0" d="M212.3,331.3c3.7,0,6.9,0,10.2,0c-0.6,2.2-1.6,3.1-3.7,3c-3-0.2-6,0-9.3,0c0-4.5,0-8.9,0-13.2
			c0-2.7,0.2-5.3,0-8c-0.2-2.1,0.9-3,2.8-4C212.3,316.5,212.3,323.6,212.3,331.3z"/>
		<path class="st0" d="M223.1,301.7c1.3-1.7,2.5-2.2,4.5-0.4c3,2.8,6.9,3,10.8,2.2c1-0.2,2-0.4,3.2-0.7
			C236.5,308.2,227.9,307.7,223.1,301.7z"/>
		<path class="st0" d="M225.7,361.3c-4.5-4.5-9.6-5.9-15.6-4.7c4.5-4,13-2.7,18,2.8C227.3,360,226.6,360.6,225.7,361.3z"/>
		<path class="st0" d="M392.3,440.6c1.1-0.1,1.7-0.1,2.7-0.1c0.1,0.9,0.2,1.6,0.2,2.4c0,13.2,0.1,26.5-0.1,39.7
			c0,2.6,0.7,4.3,2.8,5.8c2.8,1.9,5.3,4.2,8,6.4c-0.5,0.7-0.9,1.3-1.4,1.9c-0.4-0.1-0.7-0.1-0.9-0.2c-3.4-2.7-6.9-5.3-10.2-8.1
			c-0.6-0.5-1.1-1.5-1.1-2.2C392.2,471.1,392.3,456,392.3,440.6z"/>
		<path class="st0" d="M395,433.7c-1.2-0.8-2.4-1-2.6-1.6c-1.1-3.4,0.1-8.2,2.6-9.9C395,425.8,395,429.2,395,433.7z"/>
		<path class="st0" d="M457.6,359.1c-0.6,0.7-1.1,1.3-1.8,2.2c-3.9-3.1-7.7-6.1-11.5-9.1c-0.3-0.3-0.4-1-0.4-1.4c0-15,0-30,0-45
			c0-0.2,0.1-0.5,0.2-0.8c0.8,0,1.5,0,2.6,0c0,1.2,0,2.2,0,3.2c0,13.1,0.1,26.3-0.1,39.4c0,2.2,0.8,3.6,2.4,4.8
			C452,354.6,454.8,356.8,457.6,359.1z"/>
		<path class="st0" d="M446.7,286.1c0,3.9,0,7.4,0,11.1c-0.9,0.1-1.7,0.1-2.8,0.2C444.6,293.5,442.2,289.4,446.7,286.1z"/>
		<path class="st0" d="M366.8,214.8c0-9.3,0-18.1,0-27.7c4.1,6.7,7.9,12.7,11.8,19C374.7,209,370.9,211.8,366.8,214.8z"/>
		<path class="st0" d="M356.2,194.4c0,8.6,0.5,16.8-0.2,24.9c-0.6,7,1.5,11.8,7.4,15.4c3.1,2,5.8,4.7,8.7,7.1
			c-0.8,1.8-1.6,2.2-3.2,0.9c-4.8-4-9.7-7.8-14.4-11.8c-0.7-0.6-1.2-1.8-1.2-2.7c-0.1-10,0-20.1-0.1-30.1
			C353.2,196.1,354.2,195.3,356.2,194.4z"/>
		<path class="st0" d="M369.7,184.6c3.9,6.3,7.8,12.7,11.9,19.2c-0.7,0.6-1.3,1.1-2.3,1.8c-2.3-3.7-4.4-7.1-6.5-10.6
			c-1.4-2.3-2.8-4.8-4.4-7C367.2,186.3,367.7,185.4,369.7,184.6z"/>
		<path class="st0" d="M319.6,359.1c-0.7,0.7-1.2,1.3-1.9,2.1c-3.6-3.3-7.2-6.5-10.6-9.8c-0.6-0.5-0.6-1.8-0.6-2.7
			c0-11-0.1-22,0-33.1c0-3-0.6-5.3-3.1-7.1c-1.1-0.8-2-1.8-3.2-2.9c0.6-0.7,1.2-1.4,2-2.2c2.2,2.1,4.4,3.9,6.3,5.9
			c0.6,0.7,0.7,1.9,0.7,2.9c0,11.6,0.1,23.3,0,34.9c0,1.8,0.5,3.1,1.9,4.3C314.1,353.8,316.8,356.5,319.6,359.1z"/>
		<path class="st0" d="M315.7,290.1c-0.7,0.9-1.2,1.4-1.8,2.2c-3.3-3.1-6.3-5.9-9.5-8.9c0.7-0.7,1.2-1.3,1.8-2
			C309.3,284.3,312.4,287.1,315.7,290.1z"/>
	</g>
</g>
</svg>
