<?xml version="1.0" encoding="UTF-8" standalone="no"?>
<!-- Created with Inkscape (http://www.inkscape.org/) -->

<svg
   xmlns:dc="http://purl.org/dc/elements/1.1/"
   xmlns:cc="http://creativecommons.org/ns#"
   xmlns:rdf="http://www.w3.org/1999/02/22-rdf-syntax-ns#"
   xmlns:svg="http://www.w3.org/2000/svg"
   xmlns="http://www.w3.org/2000/svg"
   xmlns:sodipodi="http://sodipodi.sourceforge.net/DTD/sodipodi-0.dtd"
   xmlns:inkscape="http://www.inkscape.org/namespaces/inkscape"
   width="922.53998"
   height="134.55"
   id="svg6518"
   version="1.1"
   inkscape:version="0.48.1 "
   sodipodi:docname="Neues Dokument 3">
  <defs
     id="defs6520">
    <clipPath
       clipPathUnits="userSpaceOnUse"
       id="clipPath2148">
      <path
         inkscape:connector-curvature="0"
         d="m 339.785,1470.34 270.276,0 0,1.075 -270.276,0 0,-1.075 z"
         id="path2150" />
    </clipPath>
    <clipPath
       clipPathUnits="userSpaceOnUse"
       id="clipPath2156">
      <path
         inkscape:connector-curvature="0"
         d="m 340.002,1471.13 0,-0.5 269.631,0 0,0.5 -269.631,0"
         clip-rule="evenodd"
         id="path2158" />
    </clipPath>
    <clipPath
       clipPathUnits="userSpaceOnUse"
       id="clipPath2164">
      <path
         inkscape:connector-curvature="0"
         d="m 340.002,1576.13 0,-158.25 269.631,0 0,158.25 -269.631,0"
         id="path2166" />
    </clipPath>
    <clipPath
       clipPathUnits="userSpaceOnUse"
       id="clipPath2172">
      <path
         inkscape:connector-curvature="0"
         d="m 45,20.88 846,0 0,1584 -846,0 0,-1584"
         id="path2174" />
    </clipPath>
    <clipPath
       clipPathUnits="userSpaceOnUse"
       id="clipPath2180">
      <path
         inkscape:connector-curvature="0"
         d="m 45,20.88 846,0 0,1584 -846,0 0,-1584 z"
         id="path2182" />
    </clipPath>
    <clipPath
       clipPathUnits="userSpaceOnUse"
       id="clipPath2188">
      <path
         inkscape:connector-curvature="0"
         d="m 45,20.88 846,0 0,1584 -846,0 0,-1584 z"
         id="path2190" />
    </clipPath>
    <clipPath
       clipPathUnits="userSpaceOnUse"
       id="clipPath2196">
      <path
         inkscape:connector-curvature="0"
         d="m 45,1604.88 846,0 0,-1584 -846,0"
         id="path2198" />
    </clipPath>
    <clipPath
       clipPathUnits="userSpaceOnUse"
       id="clipPath2204">
      <path
         inkscape:connector-curvature="0"
         d="m 45,1604.88 0,-1584 846,0 0,1584 -846,0"
         id="path2206" />
    </clipPath>
    <clipPath
       clipPathUnits="userSpaceOnUse"
       id="clipPath2212">
      <path
         inkscape:connector-curvature="0"
         d="m 45,1604.88 0,-1584 846,0 0,1584"
         id="path2214" />
    </clipPath>
    <clipPath
       clipPathUnits="userSpaceOnUse"
       id="clipPath2220">
      <path
         inkscape:connector-curvature="0"
         d="m 0,1625.775 936,0 0,-1625.76 -936,0 0,1625.76 z"
         id="path2222" />
    </clipPath>
  </defs>
  <sodipodi:namedview
     id="base"
     pagecolor="#ffffff"
     bordercolor="#666666"
     borderopacity="1.0"
     inkscape:pageopacity="0.0"
     inkscape:pageshadow="2"
     inkscape:zoom="0.65761719"
     inkscape:cx="626.83555"
     inkscape:cy="-19.937263"
     inkscape:document-units="px"
     inkscape:current-layer="layer1"
     showgrid="false"
     fit-margin-top="0"
     fit-margin-left="0"
     fit-margin-right="0"
     fit-margin-bottom="0"
     inkscape:window-width="1024"
     inkscape:window-height="678"
     inkscape:window-x="-4"
     inkscape:window-y="-4"
     inkscape:window-maximized="1" />
  <metadata
     id="metadata6523">
    <rdf:RDF>
      <cc:Work
         rdf:about="">
        <dc:format>image/svg+xml</dc:format>
        <dc:type
           rdf:resource="http://purl.org/dc/dcmitype/StillImage" />
        <dc:title></dc:title>
      </cc:Work>
    </rdf:RDF>
  </metadata>
  <g
     inkscape:label="Ebene 1"
     inkscape:groupmode="layer"
     id="layer1"
     transform="translate(276.83555,-377.87492)">
    <g
       id="g2298"
       transform="matrix(1.25,0,0,-1.25,-202.14806,482.71742)">
      <path
         inkscape:connector-curvature="0"
         d="m 0,0 -26.887,0 -0.297,2.472 2.867,0.299 c 2.273,0.197 4.745,0.987 4.745,4.746 0,1.581 -0.494,3.259 -0.889,4.742 l -3.065,13.148 -16.014,0 -1.878,-7.712 C -42.01,14.929 -43,11.767 -43,8.898 c 0,-4.25 1.879,-5.93 5.141,-6.227 L -35.982,2.472 -36.179,0 -55.554,0 -55.751,2.571 c 5.239,0.397 8.698,5.833 11.071,15.223 l 11.664,46.955 -1.581,5.535 6.03,9.589 2.669,0 16.804,-67.417 C -7.315,5.24 -4.646,2.87 0.198,2.472 L 0,0 z m -31.434,59.016 -7.612,-31.138 14.927,0 -7.315,31.138"
         style="fill:#000000;fill-opacity:1;fill-rule:nonzero;stroke:none"
         id="path2300" />
    </g>
    <g
       id="g2302"
       transform="matrix(1.25,0,0,-1.25,-147.80681,482.71742)">
      <path
         inkscape:connector-curvature="0"
         d="m 0,0 -20.461,0 -0.198,2.571 0.79,0.1 c 2.769,0.297 4.548,1.185 4.548,6.722 l 0,23.825 c 0,6.817 -1.977,8.301 -5.635,8.301 -2.372,0 -3.954,-1.385 -5.436,-3.657 -1.779,-2.866 -1.977,-5.24 -1.977,-8.996 l 0,-19.473 c 0,-5.537 1.779,-6.425 4.646,-6.722 l 0.79,-0.1 -0.296,-2.571 -20.363,0 -0.297,2.571 1.384,0.1 c 2.769,0.199 5.042,1.185 5.042,6.722 l 0,25.899 c 0,4.546 -4.152,6.424 -7.217,6.424 l 0,2.472 c 0,0 3.164,0.296 7.118,1.878 2.472,0.989 5.931,3.362 5.931,3.362 l 3.262,0 0,-9.096 c 2.373,3.758 4.745,8.7 10.577,8.7 9.192,0 11.565,-7.414 11.565,-15.717 l 0,-23.922 c 0,-5.537 2.274,-6.523 5.14,-6.722 L 0.199,2.571 0,0"
         style="fill:#000000;fill-opacity:1;fill-rule:nonzero;stroke:none"
         id="path2304" />
    </g>
    <g
       id="g2306"
       transform="matrix(1.25,0,0,-1.25,-125.10181,484.56992)">
      <path
         inkscape:connector-curvature="0"
         d="m 0,0 c -11.369,0 -18.288,9.787 -18.288,25.307 0,14.827 8.501,25.206 18.979,25.206 6.919,0 14.234,-5.833 14.234,-12.95 0,-3.26 -1.581,-5.535 -4.448,-5.535 -3.657,0 -4.942,3.165 -4.942,7.71 0,5.535 -2.076,8.303 -4.844,8.303 -5.93,0 -9.094,-8.303 -9.094,-19.571 0,-14.434 4.251,-21.451 10.676,-21.451 5.438,0 8.303,4.152 10.378,11.269 l 2.67,-0.79 C 13.443,7.514 10.181,0 0,0"
         style="fill:#000000;fill-opacity:1;fill-rule:nonzero;stroke:none"
         id="path2308" />
    </g>
    <g
       id="g2310"
       transform="matrix(1.25,0,0,-1.25,-50.661812,482.71742)">
      <path
         inkscape:connector-curvature="0"
         d="m 0,0 -20.462,0 -0.197,2.571 0.791,0.1 c 2.767,0.297 4.547,1.185 4.547,6.722 l 0,23.825 c 0,6.817 -1.977,8.301 -5.634,8.301 -2.373,0 -3.954,-1.385 -5.437,-3.657 -1.779,-2.866 -1.977,-5.24 -1.977,-8.996 l 0,-19.473 c 0,-5.537 1.779,-6.425 4.646,-6.722 l 0.79,-0.1 -0.296,-2.571 -20.362,0 -0.298,2.571 1.384,0.1 c 2.768,0.199 5.042,1.185 5.042,6.722 l 0,55.059 c 0,4.449 -4.152,6.426 -7.216,6.426 l 0,2.47 c 0,0 3.163,0.297 7.116,1.878 2.472,0.989 5.932,3.36 5.932,3.36 l 3.262,0 0,-38.254 c 2.372,3.758 4.744,8.7 10.577,8.7 9.192,0 11.565,-7.414 11.565,-15.717 l 0,-23.922 c 0,-5.537 2.274,-6.523 5.139,-6.722 L 0.199,2.571 0,0"
         style="fill:#000000;fill-opacity:1;fill-rule:nonzero;stroke:none"
         id="path2312" />
    </g>
    <g
       id="g2314"
       transform="matrix(1.25,0,0,-1.25,-28.205562,484.56992)">
      <path
         inkscape:connector-curvature="0"
         d="m 0,0 c -9.687,0 -18.286,8.799 -18.286,25.504 0,16.509 8.698,25.009 18.286,25.009 9.588,0 18.287,-8.5 18.287,-25.009 C 18.287,8.898 9.787,0 0,0 z m 0,48.041 c -5.04,0 -8.699,-4.744 -8.699,-23.129 C -8.699,6.92 -4.942,2.473 0,2.473 5.041,2.473 8.699,6.92 8.699,24.912 8.699,43.297 5.141,48.041 0,48.041"
         style="fill:#000000;fill-opacity:1;fill-rule:nonzero;stroke:none"
         id="path2316" />
    </g>
    <g
       id="g2318"
       transform="matrix(1.25,0,0,-1.25,26.881938,437.24492)">
      <path
         inkscape:connector-curvature="0"
         d="m 0,0 c -1.482,0 -2.569,0.891 -3.459,1.584 l -0.593,0.592 c -0.296,0.296 -0.89,0.791 -1.384,0.791 -0.791,0 -1.978,-2.373 -2.669,-4.252 -0.692,-2.074 -1.285,-5.14 -1.285,-8.599 l 0,-17.101 c 0,-5.536 2.274,-6.523 5.14,-6.722 l 1.285,-0.1 -0.198,-2.571 -21.549,0 -0.197,2.571 1.285,0.1 c 2.866,0.199 5.14,1.186 5.14,6.722 l 0,25.899 c 0,4.546 -4.25,6.424 -7.217,6.424 l 0,2.473 c 0,0 3.164,0.295 7.019,1.877 2.571,0.989 6.03,3.362 6.03,3.362 l 3.262,0 0,-9.489 c 0.495,1.183 0.89,1.877 0.89,1.877 1.384,3.164 4.152,7.216 7.907,7.216 3.164,0 5.733,-2.175 5.733,-6.129 C 5.14,1.979 2.965,0 0,0"
         style="fill:#000000;fill-opacity:1;fill-rule:nonzero;stroke:none"
         id="path2320" />
    </g>
    <g
       id="g2322"
       transform="matrix(1.25,0,0,-1.25,75.034438,474.43742)">
      <path
         inkscape:connector-curvature="0"
         d="m 0,0 c -2.074,-4.25 -4.447,-8.006 -8.698,-8.006 -3.954,0 -5.832,3.561 -6.326,6.622 -1.878,-3.061 -5.042,-7.016 -9.687,-7.016 -5.436,0 -9.688,3.066 -9.688,10.874 0,7.116 4.646,11.661 13.642,16.903 l 5.139,2.965 0,8.797 c 0,5.83 -1.185,7.908 -3.656,7.908 -2.273,0 -4.449,-1.78 -4.449,-4.744 0,-1.484 0.297,-3.858 0.297,-5.44 0,-3.558 -1.781,-7.609 -5.24,-7.609 -2.569,0 -4.348,2.274 -4.348,5.437 0,6.523 8.303,15.717 17.396,15.717 5.833,0 9.491,-2.966 9.491,-12.457 l 0,-27.477 c 0,-2.374 0.691,-3.263 1.581,-3.263 1.087,0 2.274,2.668 2.669,3.361 L 0.693,1.286 0,0 z m -17.693,18.385 c -4.251,-2.667 -7.414,-6.62 -7.414,-13.836 0,-4.549 1.582,-7.019 3.954,-7.019 2.669,0 4.646,3.756 5.535,5.636 l 0,16.505 -2.075,-1.286"
         style="fill:#000000;fill-opacity:1;fill-rule:nonzero;stroke:none"
         id="path2324" />
    </g>
    <g
       id="g2326"
       transform="matrix(1.25,0,0,-1.25,98.824438,507.42367)">
      <path
         inkscape:connector-curvature="0"
         d="m 0,0 c -9.588,0 -19.77,2.469 -19.77,11.661 0,5.142 4.745,8.104 7.612,9.394 -2.669,1.678 -4.646,4.642 -4.646,8.5 0,4.644 3.163,7.411 6.721,10.08 -3.756,2.472 -6.424,7.017 -6.424,13.148 0,9.489 7.412,16.014 14.531,16.014 4.843,0 7.512,-1.978 10.279,-4.449 0,0 0,0 0,-0.099 1.582,2.472 3.461,5.041 6.722,5.041 2.669,0 4.449,-2.273 4.449,-5.041 0,-3.46 -1.582,-5.339 -3.955,-5.339 -1.976,0 -2.767,1.187 -3.064,1.879 -0.691,0.891 -0.89,1.385 -1.285,1.385 -0.198,0 -0.494,-0.199 -0.593,-0.397 -0.198,-0.197 -0.099,-0.394 -0.099,-0.494 0.89,-1.68 2.075,-4.943 2.075,-8.5 0,-10.576 -7.907,-15.52 -14.529,-15.52 -2.373,0 -4.35,0.593 -5.042,0.989 -0.198,0.1 -0.297,0.1 -0.395,0 -1.879,-1.681 -2.867,-3.162 -2.867,-5.834 0,-2.172 2.175,-3.555 4.448,-3.755 L 7.018,27.478 C 12.06,26.983 19.672,25.303 19.672,15.813 19.672,5.731 12.949,0 0,0 z m -1.976,66.325 c -3.954,0 -5.932,-5.239 -5.932,-13.542 0,-8.205 2.175,-13.047 5.932,-13.047 3.755,0 5.733,4.842 5.733,13.047 0,8.303 -1.879,13.542 -5.733,13.542 z m 7.413,-48.042 -13.246,1.285 -0.494,0.098 c -0.396,0 -0.792,0 -1.087,-0.295 -1.978,-1.482 -3.756,-3.855 -3.756,-6.525 0,-7.512 6.523,-10.377 13.146,-10.377 6.129,0 13.345,2.767 13.345,9.783 0,4.056 -3.756,5.637 -7.908,6.031"
         style="fill:#000000;fill-opacity:1;fill-rule:nonzero;stroke:none"
         id="path2328" />
    </g>
    <g
       id="g2330"
       transform="matrix(1.25,0,0,-1.25,143.76069,484.93867)">
      <path
         inkscape:connector-curvature="0"
         d="m 0,0 c -11.565,0 -18.485,11.269 -18.485,25.998 0,11.86 6.227,24.81 17.793,24.81 11.664,0 14.926,-11.962 14.926,-16.706 l 0,-1.581 -23.328,0 c -0.198,-2.175 -0.198,-4.645 -0.198,-6.82 0,-11.37 4.746,-18.387 11.96,-18.387 5.932,0 9.292,5.733 10.578,11.664 l 2.768,-0.691 C 13.541,4.646 8.699,0 0,0 z m -0.692,48.336 c -5.436,0 -7.513,-9.092 -7.909,-13.244 l 14.333,0 c 0,0 0.1,1.58 0.1,2.371 0,5.041 -1.483,10.873 -6.524,10.873"
         style="fill:#000000;fill-opacity:1;fill-rule:nonzero;stroke:none"
         id="path2332" />
    </g>
    <g
       id="g2334"
       transform="matrix(1.25,0,0,-1.25,220.14944,482.84117)">
      <path
         inkscape:connector-curvature="0"
         d="m 0,0 -26.987,0 -0.197,2.473 1.779,0.197 c 3.165,0.199 6.327,0.594 6.327,7.416 l 0,56.343 c 0,6.622 -3.758,8.105 -6.823,8.304 l -1.876,0.197 0.295,2.471 24.81,0 c 19.474,0 28.965,-14.333 28.965,-38.749 C 26.293,13.545 19.176,0 0,0 z m -2.672,74.337 -2.469,0 c -1.681,0 -3.162,-0.989 -3.162,-3.855 l 0,-59.902 c 0,-5.241 1.875,-7.414 5.534,-7.414 l 1.683,0 c 12.849,0 15.713,12.848 15.713,35.189 0,22.242 -4.447,35.982 -17.299,35.982"
         style="fill:#000000;fill-opacity:1;fill-rule:nonzero;stroke:none"
         id="path2336" />
    </g>
    <g
       id="g2338"
       transform="matrix(1.25,0,0,-1.25,298.00569,474.43742)">
      <path
         inkscape:connector-curvature="0"
         d="m 0,0 c -2.075,-4.25 -4.447,-8.006 -8.697,-8.006 -3.953,0 -5.832,3.561 -6.327,6.622 -1.88,-3.061 -5.041,-7.016 -9.685,-7.016 -5.438,0 -9.69,3.066 -9.69,10.874 0,7.116 4.649,11.661 13.641,16.903 l 5.141,2.965 0,8.797 c 0,5.83 -1.188,7.908 -3.658,7.908 -2.275,0 -4.448,-1.78 -4.448,-4.744 0,-1.484 0.297,-3.858 0.297,-5.44 0,-3.558 -1.778,-7.609 -5.238,-7.609 -2.573,0 -4.35,2.274 -4.35,5.437 0,6.523 8.305,15.717 17.397,15.717 5.834,0 9.49,-2.966 9.49,-12.457 l 0,-27.477 c 0,-2.374 0.691,-3.263 1.581,-3.263 1.087,0 2.275,2.668 2.669,3.361 L 0.692,1.286 0,0 z m -17.693,18.385 c -4.25,-2.667 -7.413,-6.62 -7.413,-13.836 0,-4.549 1.582,-7.019 3.952,-7.019 2.671,0 4.646,3.756 5.537,5.636 l 0,16.505 -2.076,-1.286"
         style="fill:#000000;fill-opacity:1;fill-rule:nonzero;stroke:none"
         id="path2340" />
    </g>
    <g
       id="g2342"
       transform="matrix(1.25,0,0,-1.25,312.28069,404.62492)">
      <path
         inkscape:connector-curvature="0"
         d="m 0,0 c -3.361,0 -5.533,2.669 -5.533,6.426 0,3.756 2.172,6.525 5.533,6.525 3.363,0 5.438,-2.67 5.438,-6.525 C 5.438,2.768 3.363,0 0,0 z m 11.071,-62.475 -21.449,0 -0.296,2.572 1.384,0.099 c 2.768,0.2 5.139,1.186 5.139,6.722 l 0,25.899 c 0,4.546 -4.25,6.424 -7.216,6.424 l 0,2.473 c 0,0 3.066,0.296 7.018,1.877 2.471,0.989 6.03,3.362 6.03,3.362 l 3.264,0 0,-40.035 c 0,-5.536 2.272,-6.522 5.039,-6.722 l 1.383,-0.099 -0.296,-2.572"
         style="fill:#000000;fill-opacity:1;fill-rule:nonzero;stroke:none"
         id="path2344" />
    </g>
    <g
       id="g2346"
       transform="matrix(1.25,0,0,-1.25,355.94444,482.71742)">
      <path
         inkscape:connector-curvature="0"
         d="m 0,0 -21.451,0 -0.297,2.571 1.384,0.1 c 2.768,0.199 5.14,1.185 5.14,6.722 l 0,55.059 c 0,4.449 -4.25,6.426 -7.215,6.426 l 0,2.47 c 0,0 3.066,0.198 7.02,1.878 2.468,0.989 6.029,3.36 6.029,3.36 l 3.26,0 0,-69.193 c 0,-5.537 2.275,-6.523 5.042,-6.722 L 0.294,2.571 0,0"
         style="fill:#000000;fill-opacity:1;fill-rule:nonzero;stroke:none"
         id="path2348" />
    </g>
    <g
       id="g2350"
       transform="matrix(1.25,0,0,-1.25,402.24944,426.98867)">
      <path
         inkscape:connector-curvature="0"
         d="m 0,0 c -3.458,-0.197 -5.633,-4.052 -7.213,-9.192 l -15.52,-48.734 c -1.088,-3.262 -3.066,-6.422 -7.02,-6.422 -3.758,0 -6.129,2.767 -6.129,6.52 0,2.869 1.679,5.732 4.746,5.732 2.866,0 4.249,-2.369 4.249,-5.634 0,-0.392 -0.295,-0.791 0,-0.791 0.89,0 1.586,1.783 2.078,3.363 l 3.655,11.071 -11.464,34.895 c -2.176,6.524 -3.856,8.995 -6.523,9.192 l -1.088,0.099 0.196,2.472 21.351,0 0.199,-2.472 L -19.772,0 c -2.566,-0.099 -5.037,-0.592 -5.037,-3.162 0,-1.483 0.297,-2.67 0.791,-4.152 l 7.017,-22.54 6.722,20.958 c 0.79,2.669 0.888,4.447 0.888,5.041 0,2.175 -2.072,3.658 -4.744,3.855 l -1.483,0.099 0.198,2.472 16.31,0 L 1.187,0.099 0,0"
         style="fill:#000000;fill-opacity:1;fill-rule:nonzero;stroke:none"
         id="path2352" />
    </g>
    <g
       id="g2354"
       transform="matrix(1.25,0,0,-1.25,487.32194,389.42492)">
      <path
         inkscape:connector-curvature="0"
         d="m 0,0 c -3.16,-0.297 -5.928,-1.978 -5.928,-8.798 l 0,-66.822 -3.067,0 -32.026,66.228 0,-52.885 c 0,-6.722 2.966,-9.39 6.029,-9.686 l 1.879,-0.1 -0.198,-2.571 -18.681,0 -0.199,2.571 1.879,0.1 c 3.062,0.296 5.832,2.867 5.832,9.686 l 0,57.531 c 0,1.286 -3.659,4.35 -6.428,4.646 l -1.877,0.1 0.198,2.471 17.694,0 25.405,-54.663 0,43.394 c 0,6.722 -2.768,8.402 -5.932,8.698 L -17.297,0 -17,2.471 1.682,2.471 1.879,0.098 0,0"
         style="fill:#000000;fill-opacity:1;fill-rule:nonzero;stroke:none"
         id="path2356" />
    </g>
    <g
       id="g2358"
       transform="matrix(1.25,0,0,-1.25,510.40569,484.93867)">
      <path
         inkscape:connector-curvature="0"
         d="m 0,0 c -11.565,0 -18.483,11.269 -18.483,25.998 0,11.86 6.229,24.81 17.795,24.81 11.662,0 14.924,-11.962 14.924,-16.706 l 0,-1.581 -23.331,0 c -0.196,-2.175 -0.196,-4.645 -0.196,-6.82 0,-11.37 4.744,-18.387 11.963,-18.387 5.928,0 9.289,5.733 10.578,11.664 l 2.765,-0.691 C 13.543,4.646 8.701,0 0,0 z m -0.688,48.336 c -5.441,0 -7.515,-9.092 -7.91,-13.244 l 14.334,0 c 0,0 0.098,1.58 0.098,2.371 0,5.041 -1.484,10.873 -6.522,10.873"
         style="fill:#000000;fill-opacity:1;fill-rule:nonzero;stroke:none"
         id="path2360" />
    </g>
    <g
       id="g2362"
       transform="matrix(1.25,0,0,-1.25,604.78564,426.86617)">
      <path
         inkscape:connector-curvature="0"
         d="m 0,0 c -3.562,0 -5.338,-4.15 -7.02,-9.291 l -11.467,-36.675 -2.369,0 -9.789,31.04 -9.785,-31.04 -2.273,0 -11.565,36.675 c -2.078,6.524 -3.857,8.995 -6.527,9.192 L -61.879,0 l 0.195,2.472 20.762,0 0.294,-2.472 -0.691,0 c -2.57,-0.197 -5.142,-0.69 -5.142,-3.261 0,-1.482 0.299,-2.67 0.793,-4.152 l 7.014,-22.539 6.429,20.166 c -1.187,3.066 -3.164,9.49 -6.624,9.786 l -0.592,0 0.196,2.472 20.659,0 0.199,-2.472 -1.087,-0.099 c -2.571,-0.197 -5.14,-0.591 -5.14,-3.162 0,-1.482 0.393,-2.67 0.791,-4.152 l 7.018,-22.539 6.622,20.957 c 0.89,2.67 0.89,4.447 0.89,5.041 0,2.176 -1.979,3.658 -4.645,3.855 L -15.42,0 l 0.292,2.472 16.311,0 L 1.183,0 0,0"
         style="fill:#000000;fill-opacity:1;fill-rule:nonzero;stroke:none"
         id="path2364" />
    </g>
    <g
       id="g2366"
       transform="matrix(1.25,0,0,-1.25,622.54444,484.93867)">
      <path
         inkscape:connector-curvature="0"
         d="m 0,0 c -5.533,0 -10.577,1.678 -14.035,3.26 l 0,14.431 2.865,0 C -9.094,8.105 -5.831,2.471 0,2.471 c 3.064,0 6.33,2.867 6.33,8.6 0,4.152 -2.08,6.818 -4.945,8.601 -7.415,4.644 -15.026,7.709 -15.026,17.1 0,7.908 6.131,14.036 14.431,14.036 0,0 5.835,0 11.37,-2.472 l 0.592,-13.443 -2.866,0 C 8.798,42.108 5.931,48.336 0.79,48.336 c -3.654,0 -6.523,-2.768 -6.523,-7.414 0,-6.621 6.426,-8.796 11.565,-12.06 4.349,-2.667 8.697,-6.128 8.697,-12.948 C 14.529,5.733 8.303,0 0,0"
         style="fill:#000000;fill-opacity:1;fill-rule:nonzero;stroke:none"
         id="path2368" />
    </g>
  </g>
</svg>
