<?xml version="1.0" encoding="utf-8"?>
<!-- Generator: Adobe Illustrator 21.1.0, SVG Export Plug-In . SVG Version: 6.00 Build 0)  -->
<svg version="1.1" id="Layer_1" xmlns="http://www.w3.org/2000/svg" xmlns:xlink="http://www.w3.org/1999/xlink" x="0px" y="0px"
	 viewBox="0 0 667 463" style="enable-background:new 0 0 667 463;" xml:space="preserve">
<style type="text/css">
	.st0{fill:#FEFDFD;}
	.st1{fill:#A0A0A0;}
	.st2{fill:#EC2B30;}
	.st3{fill:#EC232B;}
	.st4{fill:#EB0000;}
	.st5{fill:#EC181F;}
	.st6{fill:#E80000;}
	.st7{fill:#0D0D0D;}
	.st8{fill:#EC1C25;}
	.st9{fill:#EC2128;}
	.st10{fill:#F2F2F2;}
	.st11{fill:#F3F3F3;}
	.st12{fill:#FCFBFC;}
	.st13{fill:#EB0A0A;}
	.st14{fill:#EC272D;}
	.st15{fill:#EC1414;}
	.st16{fill:#EC0000;}
	.st17{fill:#EB0E19;}
	.st18{fill:#EC2229;}
	.st19{fill:#EC282E;}
	.st20{fill:#EC2D32;}
	.st21{fill:#EC2329;}
	.st22{fill:#EB000C;}
	.st23{fill:#EC0513;}
	.st24{fill:#EC0D0E;}
	.st25{fill:#EC262C;}
	.st26{fill:#EB0202;}
	.st27{fill:#EC292F;}
	.st28{fill:#ED3031;}
	.st29{fill:#EC2A2F;}
	.st30{fill:#EC0818;}
	.st31{fill:#EB0303;}
	.st32{fill:#EC252B;}
	.st33{fill:#EC0112;}
	.st34{fill:#EC0F10;}
	.st35{fill:#EB0001;}
	.st36{fill:#ED2224;}
	.st37{fill:#ED151A;}
	.st38{fill:#EC0C0F;}
	.st39{fill:#EC0C12;}
	.st40{fill:#ED1C20;}
	.st41{fill:#EC0B0F;}
	.st42{fill:#EC030F;}
	.st43{fill:#EB0002;}
	.st44{fill:#EB0006;}
	.st45{fill:#EB0003;}
	.st46{fill:#EB0105;}
	.st47{fill:#ED1A1C;}
	.st48{fill:#121212;}
	.st49{fill:#141414;}
	.st50{fill:#EC1014;}
	.st51{fill:#EC232A;}
	.st52{fill:#ED2C2D;}
	.st53{fill:#EC0108;}
	.st54{fill:#DEDEDE;}
	.st55{fill:#EC2A30;}
	.st56{fill:#EC0B1A;}
</style>
<title>frontline</title>
<g id="Layer_2">
	<g id="Layer_1-2">
		<path class="st0" d="M608.1,399.9c0,1.8,0.7,4.3-0.2,5.2s-3.4,0.2-5.2,0.2c-178.3,0-356.7,0-535,0.1c-2.3,0-2.6-0.6-2.6-2.7
			c0-113,0-226,0-339.1c0-2.2,0.4-2.6,2.6-2.6c179.3,0.1,358.5,0.1,537.8,0c2.4,0,2.7,0.7,2.7,2.8c-0.1,110.9-0.1,221.9,0,332.8
			c-0.2,0.2-0.5,0.2-0.7,0c-1.6-2.5-3.4-4.4-6.8-3.8c-2.2,0.3-4,2-4.3,4.2c-0.5,2.3,0.6,4.6,2.6,5.8c1.9,1.1,4.3,0.8,6-0.6
			c0.9-0.8,1.4-1.9,2.4-2.5C607.6,399.7,607.9,399.7,608.1,399.9z"/>
		<path class="st1" d="M608.1,399.9h-0.2h-0.2c-0.9-0.8-1-2.2-0.2-3.2c0.1-0.1,0.1-0.1,0.2-0.2c0.1-0.1,0.3,0,0.5,0L608.1,399.9z"/>
		<path class="st2" d="M71,63.8c0.8-1,1.8-0.4,2.8-0.4c172.5,0,345.1,0,517.6,0c1,0,2.1-0.5,3,0.5c-0.7,0.6-1.6,0.8-2.5,0.7
			c-1.3,0-2.5,0-3.8,0c-170,0-340,0-510,0c-1.5,0-3.1-0.3-4.5,0.4c-0.2,0.3-0.3,0.6-0.4,0.9C73,67.2,73,68.4,73,69.7
			c0,109.5,0,218.9,0,328.4c0,1.2,0,2.4,0.1,3.5c0.1,0.3,0.2,0.6,0.4,0.9c1.5,0.8,3,0.4,4.5,0.4c170.1,0,340.2,0,510.3,0
			c1.7-0.1,3.4,0,5.1,0.2c0.3,0.1,0.7,0.3,0.9,0.6c-0.8,1-2,0.5-3,0.5c-172.6,0-345.1,0-517.7,0c-0.9,0-2,0.6-2.7-0.4
			c0.7-0.8,0.3-1.7,0.3-2.6c0-111.6,0-223.2,0-334.7C71.3,65.5,71.6,64.6,71,63.8z"/>
		<path class="st3" d="M72.1,64.9v-0.5c0.9-0.3,1.9-0.4,2.9-0.2c172.1,0,344.3,0,516.4,0c1-0.2,2-0.1,2.9,0.2c0,1,0.1,2,0.1,3
			c0,109,0,217.9,0,326.9c0,0.8,0,1.6-0.1,2.4c-1.2-0.3-1.1-1.3-1.2-2.1c-0.1-1.3,0-2.5,0-3.8c0-106.7,0-213.5,0-320.2
			c0-1.4,0.3-2.9-0.4-4.2c-0.3-0.2-0.6-0.3-0.9-0.4c-1.5-0.2-2.9-0.2-4.4-0.1c-169.8,0-339.5,0-509.3,0C76.1,65.7,74,66.3,72.1,64.9
			z"/>
		<path class="st4" d="M594.4,64.3h-44.8H72.1c1.1-1,2.4-0.5,3.6-0.5c172.5,0,345,0,517.5,0h1.1C594.5,64,594.5,64.2,594.4,64.3z"/>
		<path class="st5" d="M593.4,64.9c1,1.1,0.5,2.4,0.5,3.6c0,108.2,0,216.5,0,324.7c0,1.1-0.4,2.4,0.4,3.4v3.3
			c-0.5,1.1,0.3,2.4-0.6,3.4c-0.3,0-0.6-0.2-0.8-0.5c-0.2-0.3-0.3-0.7-0.3-1c-0.1-1.4-0.1-2.7-0.1-4.1c0-109.2,0-218.4,0-327.7
			C592.7,68.4,592.2,66.5,593.4,64.9z"/>
		<path class="st6" d="M71,63.8c0.9,0.8,0.5,1.8,0.5,2.8c0,111.5,0,222.9,0,334.4c0,0.9,0.4,2-0.6,2.8c0-1-0.1-2-0.1-3
			c0-111.3,0-222.7,0-334C70.8,65.7,70.9,64.8,71,63.8z"/>
		<path class="st7" d="M607.6,396.6v3.3c-1.6,3.3-4,4.8-7,4.3c-2.8-0.4-4.9-2.7-5.1-5.5c-0.3-3,1.6-5.7,4.5-6.5
			C603.4,391.4,605.9,392.9,607.6,396.6z"/>
		<path class="st3" d="M593.9,403.2c0.2-1.1-0.4-2.3,0.5-3.3c0,1.3,0,2.5,0,3.8h-0.5c-0.2-0.1-0.2-0.2-0.1-0.3
			C593.8,403.2,593.9,403.2,593.9,403.2z"/>
		<path class="st8" d="M72.1,64.9h520.7c0.3,0.9,0.4,1.9,0.2,2.9c0,110.6,0,221.3,0,331.9c0.1,1,0.1,2-0.2,3c-1,0.8-2.3,0.5-3.4,0.5
			c-171.3,0-342.7,0-514,0c-1.1,0-2.4,0.3-3.4-0.5C72.1,290.1,72.1,177.5,72.1,64.9z"/>
		<path class="st4" d="M593.9,403.2c0,0.2,0,0.3,0,0.5H400.6c-108.4,0-216.8,0-325.1,0c-1.1,0-2.4,0.5-3.4-0.5
			c0.9-0.3,1.9-0.4,2.9-0.2c171.8,0,343.6,0,515.4,0c1-0.2,2-0.1,2.9,0.2L593.9,403.2z"/>
		<path class="st3" d="M593.4,403.2H72.1v-0.5h520.7c0.1-0.1,0.4-0.2,0.5,0c0,0,0,0,0,0C593.4,402.8,593.4,403,593.4,403.2z"/>
		<path class="st9" d="M593.4,402.6h-0.5c0-112.6,0-225.2,0-337.7h0.5V402.6z"/>
		<path class="st10" d="M605.2,401.5c-2.6,2.3-5.5,2.2-7.5,0s-1.5-5.2,1.1-7.4c1.5,0.1,3.2-1,4.4,0.7c-0.2,0.9-1,0.8-1.7,1
			c-1.9,0.4-2.5,1.4-1.9,3.3c0,0.1,0.1,0.1,0.2,0.1c0.2-0.1,0.3-0.2,0.4-0.3c2-1.3,2.4,1.5,4,1.4
			C604.9,400.3,605.3,400.9,605.2,401.5z"/>
		<path class="st11" d="M603.2,395c-1.2-1.2-3,0.1-4.3-1c2.7-1.5,4.9-1.1,6.7,1s1.6,3.9-0.3,6.5l-0.8-1.1c-1.3-0.3-1.5-1.4-1.6-2.5
			C603.1,397,602.7,396,603.2,395z"/>
		<path class="st12" d="M301.4,285.2c-2.3-3.6-2.5-8-3.9-12c-1.3-3.7-2.2-7.6-3.3-11.3c-0.3-0.7-0.8-1.3-0.6-2.1
			c-0.9-4.8-2.2-9.6-3.7-14.2c-0.4-0.6-0.6-1.3-0.6-2.1c-0.7-4.1-1.8-8.1-3.3-12c-1.3-1-1.2-2.6-1.6-3.9c0.5,2.7-0.1,5.3-0.1,8
			c0,15.3,0,30.7,0,46.1c0,1.2,0.4,2.6-0.7,3.5l0.1-0.1c-0.4,0.5-1,0.8-1.6,0.7c-4.5,0-9,0-13.5,0c-0.5,0-1.1-0.2-1.4-0.6
			c-1-0.6-0.7-1.6-0.7-2.4c0-32.7,0-65.4,0-98.1c0-0.6,0.1-1.3,0.1-1.9c0.5-0.6,1.3-0.8,2-0.7c5.6,0,11.2,0,16.8,0
			c0.6-0.1,1.3,0.1,1.7,0.6c2.2,4.4,2.9,9.4,4.3,14c0.6,1.9,1.1,3.8,1.6,5.6c0.8,0.5,0,1.5,0.6,2.1c0.5,3.7,1.4,7.4,2.7,10.9
			c0.6,0.5,0.2,1.2,0.6,1.8c0.3,3,1,5.9,2.1,8.6c0.3,0.1,0.5,0.3,0.6,0.6c0.5,1.1,0.8,2.3,0.9,3.4c0.1,0.3,0.1,0.5,0.2,0.8
			c0.1,0.3,0.1,0.2,0-0.1c-0.7-3.1,0-6.3,0-9.4c-0.1-11.6,0-23.3,0-35c0-1.4-0.1-2.8,1.2-3.6c5.5-0.6,11-0.2,16.5-0.2
			c0.5,0,0.9,0.3,1.1,0.7l-0.1-0.1c1,0.8,0.7,2,0.7,3c0,32,0,64.1,0,96.1c0.1,0.9,0,1.8-0.3,2.7c-0.4,0.7-1.2,1.2-2,1.2
			c-5.1,0-10.3,0.1-15.4,0C302.2,285.8,301.7,285.6,301.4,285.2z"/>
		<path class="st12" d="M499.6,285.2c-2.3-3.6-2.3-7.9-3.8-11.7c-0.8-2.2-1.3-4.4-2-6.7c-0.6-0.5-0.8-1.4-0.5-2.1l-2.1-7.7
			c-0.5-0.6-0.7-1.4-0.8-2.1c-0.1-0.7-0.8-1.4-0.3-2.2c-0.1-1.2-0.4-2.3-1-3.4c-0.6-0.4-0.1-1.2-0.6-1.7c-1-5.5-2.4-11-4.3-16.3
			c-1.1-1.2-1.3-2.7-1.7-4.2c0-0.2,0-0.3,0-0.5c0,0-0.1-0.1-0.1-0.1c0.8,3.1,0.1,6.3,0.1,9.4c0,15.2,0,30.3,0,45.5
			c0,1.4,0.2,2.9-1.1,4c-5.1,0.6-10.2,0.2-15.2,0.2c-0.4,0-0.7-0.2-0.9-0.5c-0.8-0.4-0.7-1.2-0.7-1.9c0-33.4,0-66.8,0.1-100.2
			c0-0.1,0-0.2,0-0.3c0.6-0.8,1.4-0.7,2.2-0.7c5.6,0,11.1,0,16.7,0c0.8,0,1.6-0.1,2.2,0.8l9.4,35.6c1,1.2,1.4,2.8,1.2,4.3
			c0.3,0.9,0.2,2,0.9,2.8c1.5,1,1.2,2.7,1.6,4.2c-0.4-0.1,0.2-0.1,0,0.2s0-0.1,0,0.3l0.1,0.1c-0.8-3.2-0.1-6.5-0.1-9.7
			c-0.1-11.4,0-22.7,0-34.1c0-1.2-0.2-2.4,0.4-3.4c0.6-0.7,1.5-1,2.4-1c4.7,0,9.4,0,14.1,0c0.7,0,1.5,0,1.9,0.7l-0.1-0.1
			c1,0.8,0.7,2,0.7,3c0,32.1,0,64.1,0,96.1c0.1,0.9,0,1.8-0.3,2.7c-0.4,0.7-1.2,1.2-2,1.2c-5.1,0-10.3,0.1-15.4,0
			C500.3,285.8,499.9,285.6,499.6,285.2z"/>
		<path class="st12" d="M182.9,285.1c-2.7-4.7-3.1-9.8-2.9-15.1c0.2-6.8,0.1-13.7,0-20.5c0-1,0.3-2-0.4-2.9c-0.3-0.2-0.4-0.7-0.2-1
			c-0.5-1.5-1.7-2.7-3.1-3.2c-1.1,0.4-2.2,0.6-3.4,0.3c-0.3-0.1-0.5-0.2-0.8-0.3c-1.7-0.4-3.5,0.4-5.1-0.6c-2,0-1.1,1.6-1.1,2.4
			c-0.1,12.6,0,25.3-0.1,37.9c0,1,0.4,2.2-0.6,3c-0.4,0.4-0.9,0.6-1.4,0.6c-5.1,0-10.2,0-15.3,0c-0.9,0-1.8-0.4-2.3-1.2
			c-0.4-1-0.5-2.1-0.3-3.2c0-31.6,0-63.3,0-94.9c-0.1-1.1,0-2.2,0.3-3.2c0.8-1.1,1.9-1.2,3.1-1.2c9.5,0,19,0,28.6,0
			c1.4,0,2.7,0.4,3.8,1.1c4.4,1,8.5,2.9,12.2,5.6c2.2,1.6,3.4,4.1,4.4,6.6c0.3,0.8,0.6,1.7,0.9,2.5c0.4,1.1,0.7,2.2,0.8,3.3
			c0.4,1.1,0.4,2.4,0.6,3.5c-0.1,4,0.5,7.9-0.8,11.8c-0.1,0.6,0.2,1.3-0.4,1.8c-0.9,4.1-2,8.1-4.9,11.4c-0.4,1-1.2,1.8-2.3,2.3
			c-1.5,1-2.5,1.3-0.1,3.1c3.1,2.2,6,5.2,6.3,9.5c0.5,1.7-0.2,3.5,0.4,5.2c-0.2,0.3-0.2,0.7,0,1c-0.6,3.4-0.1,6.8-0.2,10.1
			s0.9,6.5-0.2,9.7c0,1.6,0.3,3.1,0.9,4.6c0.6,0.4,0.4,0.9,0.2,1.4c0.5,2.5,1.9,4.8,3.9,6.5c0.6,0.5,1.5,1,1.4,2.1
			c-0.6,0.8-1.4,0.7-2.2,0.7c-5.9,0-11.9,0-17.8,0C184.3,285.9,183.5,286,182.9,285.1z"/>
		<path class="st12" d="M206.7,199c1.6-3.1,2.9-6.2,5.4-8.8c3.7-3.7,8.3-6.3,13.4-7.4c0.5-0.1,1-0.3,1.5-0.5c0.6-0.6,1.3-0.4,2-0.2
			h7.6c0.7-0.2,1.4-0.5,2,0.2c5.1,1.4,9.9,3.3,13.9,6.9c3.4,3,5.2,6.9,6.9,10.9c0.7,1.2,0.6,2.6,1,3.8c0.2,1.2,0.3,2.3,0.2,3.5
			c0,17.7,0,35.4,0,53.1c0,1.4,0.3,2.9-0.7,4.2c-0.6,4.3-2.4,8.4-5.3,11.8c-3.9,4.7-9.2,6.9-14.9,8.5c-1,1-2.1,0.7-3.2,0.5
			c-5,0.4-10.2,0.2-14.8-1.4c-4.3-1.6-8.4-4-11.4-8.1c-2.3-3.4-3.9-7.3-4.7-11.4c-0.9-0.8-0.6-1.8-0.6-2.8c0-18.5,0-37,0-55.5
			c0-1-0.3-2,0.6-2.8l0.4-1.8C205.8,200.7,206.4,199.9,206.7,199z"/>
		<path class="st12" d="M525.1,285.2c-0.8-0.5-0.6-1.4-0.6-2.2c0-33.4,0-66.8,0-100.1c0.7-1,1.8-0.7,2.7-0.7c13.3,0,26.7,0,40,0
			c1,0,2-0.2,2.8,0.7c0,5.3,0,10.7,0,16.1c-0.8,0.6-1.8,0.9-2.8,0.8c-6.6,0-13.2,0.1-19.8,0c-3.8,0-3.8-0.1-3.8,3.7
			c0.1,6.1-0.3,12.3,0.2,18.4l0,0c3.6,0.6,7.2,0.1,10.8,0.2c5,0.1,9.9-0.2,14.8,0.2c0.9,1.7,0.5,3.5,0.5,5.3
			c-0.1,3.5,0.4,7-0.3,10.4c-0.9,1.2-2.1,1.1-3.4,1.1c-6.4,0-12.8,0.1-19.3,0c-2.2,0-2.8,0.8-2.8,2.9c0.1,7.6,0.1,15.2,0,22.8
			c0,2.2,0.6,3,3,3c7.7-0.1,15.4-0.1,23.1,0c0.6,0,1.5-0.4,2,0.5l-0.1-0.1c0.9,0.6,0.7,1.6,0.7,2.5c0,4,0,7.9,0,11.9
			c0,1.2-0.1,2.4-1.2,3.1c-1,0.4-2.1,0.5-3.2,0.3c-13.3,0-26.7,0-40,0C527.3,285.9,526.1,286.2,525.1,285.2z"/>
		<path class="st12" d="M115,284.8l-0.6,0.5c-0.1,0.1-0.2,0.4-0.4,0.4c-6,0.3-12,0.6-18-0.2c-1-0.9-1-2-1-3.2c0-32.2,0-64.5,0-96.7
			c0-1-0.2-2,0.7-2.7l-0.1,0.1c0.7-1,1.8-0.7,2.7-0.7c13.7,0,27.5,0,41.2,0c1.2-0.2,2.4,0.2,3.3,1c0.6,5.4,0.6,10.9,0,16.3
			c-0.9,1.2-2.1,1.1-3.4,1.1c-7.2,0-14.4,0.1-21.6,0c-2,0-2.6,0.5-2.6,2.6c0,5.8,0.3,11.7-0.2,17.5c0.7,1,1.6,0.4,2.4,0.5
			c7.6,0.1,15.3,0.1,22.9,0.1c0.3,0.2,0.5,0.5,0.6,0.9c0.2,4.9,0.2,9.9,0,14.8c0,0.5-0.3,0.9-0.7,1.1l-0.2-0.1l-0.1,0.1
			c-3.5,0.6-7,0.2-10.4,0.2c-4.6,0.1-9.2,0-13.7,0.1c-1,0.7-0.5,1.8-0.5,2.7c0,13.6,0,27.2,0,40.8
			C115.3,282.9,115.5,283.9,115,284.8z"/>
		<path class="st12" d="M381.5,198.9c-5.5,0-11,0-16.4,0.1c-0.8,0-1.8-0.5-2.5,0.4c0.5,0.9,0.7,2.1,0.6,3.1c0,26.4,0,52.9,0,79.3
			c0.1,0.9,0,1.8-0.3,2.7c-0.7,1.2-1.9,1.2-3.1,1.2h-14.1c-1.1,0-2.2-0.1-2.8-1.2c-0.3-0.9-0.5-1.9-0.3-2.9c0-26.3,0-52.5,0-78.8
			c-0.1-1.2,0-2.4,0.5-3.4c-0.6-1.1-1.6-0.5-2.4-0.5c-5.5-0.1-11-0.1-16.4-0.1c-0.4-0.4-0.7-0.9-0.7-1.4c0-4.4-0.1-8.7,0-13.1
			c-0.1-0.6,0.2-1.3,0.7-1.6l-0.1,0.1c0.6-0.9,1.6-0.7,2.5-0.7c17.4,0,34.8,0,52.2,0c0.7-0.1,1.4,0,2.1,0.3c0.8,0.5,1.2,1.4,1.2,2.3
			c0,4.2,0,8.5,0,12.7C382.1,198.1,381.9,198.6,381.5,198.9z"/>
		<path class="st12" d="M386.6,285.2c-0.9-0.5-0.6-1.4-0.6-2.2c0-33.4,0-66.8,0-100.1c0.4-0.5,1-0.8,1.6-0.7c5.4,0,10.8-0.1,16.3,0
			c0.4,0,0.7,0.1,1,0.3c1.1,0.8,1.1,2,1.1,3.2c0,26.7,0,53.5,0,80.2c0.1,0.9,0,1.8-0.5,2.6c0.8,0.8,1.7,0.4,2.5,0.4c8,0,16,0.1,24,0
			c1.9,0,2.5,0.5,2.4,2.4c-0.3,4.7,0.4,9.3-0.4,14c-0.8,0.9-1.8,0.6-2.8,0.6c-14,0-28,0-41.9,0C388.5,285.9,387.4,286.1,386.6,285.2
			z"/>
		<path class="st12" d="M439.8,285.2c-1.1-0.5-0.8-1.5-0.8-2.4c0-32.7,0-65.4,0-98.2c0-0.6,0.1-1.3,0.2-1.9c0.5-0.5,1.3-0.8,2-0.7
			c5,0,10,0,15,0c0.7-0.1,1.5,0.1,2,0.7c0.1,1,0.2,2,0.2,3c0,32.1,0,64.2,0,96.3c0,1.1,0.6,2.4-0.8,3.2c-0.2,0.3-0.5,0.5-0.9,0.5
			c-5.3,0.1-10.6,0.1-15.9,0C440.4,285.8,440.1,285.6,439.8,285.2z"/>
		<path class="st13" d="M405.5,268.5c-0.5-0.8-0.2-1.8-0.2-2.6c0-26.6,0-53.3,0-79.9c0.1-1.1,0-2.2-0.3-3.2
			c-0.1-0.1-0.2-0.3-0.1-0.4c0.1-0.1,0.1-0.2,0.1-0.2c0.5,0.2,0.9,0.6,1.1,1.1c0.3,0.9,0.4,2,0.2,2.9c0,26.1,0,52.3,0,78.4
			c0,3.1,0,3.1,3,3.1c7.4,0,14.8,0,22.2,0c0.9-0.1,1.8-0.1,2.7,0.2c-0.5,1-1.5,0.5-2.2,0.5C423.2,268.5,414.4,268.5,405.5,268.5z"/>
		<path class="st14" d="M434.3,267.9c-8.5,0-17-0.1-25.5,0.1c-2.1,0-2.8-0.6-2.7-2.8c0.1-27.3,0.1-54.7,0.1-82
			c0.9,0.9,0.5,2.1,0.5,3.1c0,25.9,0,51.8,0,77.8c0,2.5,0.6,3.4,3.2,3.4c7.2-0.2,14.5-0.1,21.7,0
			C432.4,267.4,433.5,267.1,434.3,267.9z"/>
		<path class="st15" d="M572.2,268.2c-8.7,0-17.3-0.2-26-0.1c-2.1,0-2.5-0.6-2.5-2.6c0.1-8,0.1-16.1,0-24.1c0-2.3,0.4-3.1,2.9-3
			c6.7,0.2,13.4,0.1,20.1,0.1c1,0,2,0.3,2.9-0.4c0.2,0.1,0.2,0.2,0.2,0.3c0,0.1-0.1,0.2-0.1,0.2l-0.6,0.7
			c-6.6,0.5-13.2,0.1-19.7,0.2c-4.4,0.1-4.4,0-4.4,4.4c0,7,0,13.9,0,20.9c-0.2,0.9-0.1,1.8,0.2,2.7c8.2,0,16.3,0,24.5,0
			C570.4,267.4,571.5,267,572.2,268.2z"/>
		<path class="st4" d="M95.7,182.8c0,1.1-0.1,2.2-0.1,3.2c0,32,0,64.1,0.1,96.1c0,1-0.4,2.2,0.5,3.1c-0.1,0.2-0.3,0.3-0.5,0.1
			l-0.7-0.6c-0.3-0.8-0.4-1.6-0.2-2.4c0-32.2,0-64.5,0-96.7c-0.1-0.8-0.1-1.6,0.2-2.4L95.7,182.8z"/>
		<path class="st4" d="M438.1,183.3c1,0,0.5,0.8,0.5,1.1c0,33.1,0,66.2,0,99.3c0,0.4,0,0.7-0.1,1.1c0,0.1-0.1,0.1-0.2,0.2
			c-0.1,0-0.2,0-0.3-0.1c-0.3-0.8-0.4-1.6-0.2-2.4c0-32.2,0-64.5,0-96.7C437.7,184.8,437.8,184,438.1,183.3z"/>
		<path class="st4" d="M319.7,284.8c0-32.8,0-65.7-0.1-98.5c0-1.2-0.1-2.3-0.1-3.5l0.8,0.5c0.3,0.8,0.4,1.6,0.2,2.4
			c0,32.2,0,64.5,0,96.7c0.1,0.8,0.1,1.6-0.2,2.4l-0.5,0.4L319.7,284.8z"/>
		<path class="st16" d="M517.9,284.8c0-31.6,0-63.3-0.1-94.9c0-2.3-0.1-4.7-0.1-7l0.8,0.4c0.3,0.8,0.4,1.6,0.2,2.4
			c0,32.2,0,64.5,0,96.7c0.1,0.8,0,1.6-0.2,2.4h-0.1C518.3,285,518.1,285,517.9,284.8z"/>
		<path class="st4" d="M459.1,183.4v100.8h-0.2V183.3L459.1,183.4z"/>
		<path class="st14" d="M342.5,284.8c-0.9-0.9-0.5-2.1-0.5-3.1c0-25.7,0-51.3,0-77c0-4.7,0.5-4.1-4.2-4.1c-3.5,0-7,0-10.6,0
			c-0.9,0-1.8,0.3-2.5-0.5c5.8-0.4,11.6-0.4,17.4,0h0.5c0.5,0.6,0.3,1.4,0.3,2.1c0,26.8,0,53.7,0,80.5
			C342.9,283.4,342.8,284.1,342.5,284.8z"/>
		<path class="st14" d="M381.1,200.1c-0.7,0.8-1.7,0.5-2.5,0.5c-3.9,0-7.8,0.2-11.6,0c-2.7-0.2-3.3,0.8-3.2,3.4
			c0.2,6.5,0.1,13,0.1,19.5c0,19.4,0,38.8,0,58.3c0,1,0.4,2.2-0.5,3.1c-0.3-0.7-0.4-1.6-0.3-2.4c0-26.7,0-53.3,0-80
			c-0.2-0.8-0.1-1.6,0.3-2.4h0.5C369.5,199.6,375.3,199.6,381.1,200.1z"/>
		<path class="st4" d="M265.4,183.3c1.2,0.4,0.5,1.3,0.5,1.9c0.1,32.3,0.1,64.7,0,97c0,0.9,0.3,1.8-0.5,2.6
			c-0.3-0.8-0.4-1.6-0.2-2.4c0-32.2,0-64.5,0-96.8C265,184.8,265.1,184,265.4,183.3z"/>
		<path class="st4" d="M146.6,183.4c0,0.6,0.1,1.3,0.1,1.9c0,32.6,0,65.2,0,97.8c0,0.5-0.1,1.1-0.1,1.6c-0.1,0.2-0.3,0.2-0.5,0.1
			c0,0-0.1-0.1-0.1-0.1H146c-0.3-0.8-0.4-1.6-0.2-2.4c0-32.2,0-64.5,0-96.7c-0.1-0.8,0-1.6,0.2-2.4l0.6-0.4c0.1,0.1,0.2,0.2,0.2,0.4
			C146.7,183.3,146.6,183.4,146.6,183.4z"/>
		<path class="st17" d="M384.9,183.2c0.9,0.8,0.5,1.9,0.5,2.8c0,32,0,64,0,95.9c0,0.9,0.4,2-0.5,2.8c-0.3-0.8-0.4-1.8-0.2-2.7
			c0-32.1,0-64.1,0-96.2C384.5,185,384.6,184.1,384.9,183.2z"/>
		<path class="st18" d="M384.9,183.2c0,33.8,0,67.7,0,101.5c-0.9-0.8-0.5-1.9-0.5-2.8c0-32,0-64,0-95.9
			C384.4,185.1,384,184.1,384.9,183.2z"/>
		<path class="st19" d="M438.1,183.3c0,33.8,0,67.7,0,101.5c-0.9-0.8-0.5-1.9-0.5-2.8c0-32,0-63.9,0-95.9
			C437.6,185.1,437.2,184.1,438.1,183.3z"/>
		<path class="st20" d="M320.3,284.8c0-33.8,0-67.7,0-101.5c0.9,0.8,0.5,1.9,0.5,2.8c0,32,0,63.9,0,95.9
			C320.8,282.9,321.2,284,320.3,284.8z"/>
		<path class="st21" d="M463.6,284.8c-0.9-0.8-0.5-1.9-0.5-2.8c0-32,0-64,0-95.9c0-0.9-0.4-2,0.5-2.8c0.3,0.8,0.4,1.8,0.2,2.7
			c0,32.1,0,64.2,0,96.2C464,283,463.9,283.9,463.6,284.8z"/>
		<path class="st14" d="M265.4,183.3c0,33.8,0,67.7,0,101.5c-0.9-0.8-0.5-1.9-0.5-2.8c0-32,0-64,0-95.9
			C264.9,185.1,264.5,184.1,265.4,183.3z"/>
		<path class="st2" d="M145.9,183.3c0,33.8,0,67.7,0,101.5c-0.9-0.8-0.5-1.9-0.5-2.8c0-32,0-63.9,0-95.9
			C145.4,185.1,145.1,184.1,145.9,183.3z"/>
		<path class="st21" d="M94.9,183.3c0,33.8,0,67.7,0,101.5c-0.9-0.8-0.5-1.9-0.5-2.8c0-32,0-63.9,0-95.9
			C94.4,185.1,94,184.1,94.9,183.3z"/>
		<path class="st22" d="M463.6,284.8c0-33.8,0-67.7,0-101.5c0.9,0.8,0.5,1.9,0.5,2.8c0,32,0,63.9,0,95.9
			C464.1,282.9,464.5,284,463.6,284.8z"/>
		<path class="st19" d="M518.5,284.8c0-33.8,0-67.7,0-101.5c0.9,0.8,0.5,1.9,0.5,2.8c0,32,0,63.9,0,95.9
			C519,282.9,519.3,284,518.5,284.8z"/>
		<path class="st18" d="M523.3,284.8c-0.9-0.8-0.5-1.9-0.5-2.8c0-32,0-64,0-95.9c0-0.9-0.4-2,0.5-2.8c0.3,0.8,0.4,1.8,0.2,2.7
			c0,32.1,0,64.2,0,96.2C523.8,283,523.7,283.9,523.3,284.8z"/>
		<path class="st23" d="M523.3,284.8c0-33.8,0-67.7,0-101.5c0.9,0.8,0.5,1.9,0.5,2.8c0,32,0,64,0,95.9
			C523.9,282.9,524.2,284,523.3,284.8z"/>
		<path class="st16" d="M342.5,284.8c0-28.2,0-56.5,0-84.7l0.5-0.5c0.1,0.2,0.1,0.4,0.1,0.5c0,28.2,0,56.5,0,84.7
			c-0.2,0.2-0.3,0.2-0.5,0H342.5z"/>
		<path class="st4" d="M363.2,200.1c0,28.2,0,56.5,0,84.7h-0.1c-0.1,0.2-0.4,0.2-0.5,0.1c0,0-0.1-0.1-0.1-0.1
			c0-6.2-0.1-12.5-0.1-18.7c0-21.1,0-42.2,0-63.3c0-1.1,0.1-2.1,0.2-3.2L363.2,200.1z"/>
		<path class="st24" d="M115.1,220.7c-0.1-6.5-0.1-13-0.2-19.4c0-1.8,1.2-1.4,2.2-1.4c7.6,0,15.1,0,22.7,0c1,0,2,0.3,2.8-0.5
			c0.2,0.1,0.3,0.2,0.2,0.4c0,0.1-0.1,0.2-0.1,0.2l-0.6,0.7c-5.6,0.5-11.3,0.1-16.9,0.2c-3.2,0.1-6.4-0.3-9.6,0.3
			c0,6.2,0,12.3,0,18.5c3.2,0.6,6.4,0.1,9.6,0.3c4.9,0.2,9.9-0.3,14.8,0.3c-0.5,1.1-1.5,0.5-2.2,0.5
			C130.2,220.7,122.7,220.7,115.1,220.7z"/>
		<path class="st21" d="M205.2,266.3c-0.8-0.6-0.6-1.5-0.6-2.2c0-20.1,0-40.3,0-60.4c0-0.4,0-0.9,0.1-1.3c0-0.1,0.1-0.1,0.2-0.1
			c0.1,0,0.2,0,0.2,0.1c0.3,0.7,0.4,1.4,0.2,2.1c0,19.9,0,39.9,0,59.8C205.5,264.9,205.5,265.6,205.2,266.3z"/>
		<path class="st25" d="M483.2,227.7c0.7,1.2,1,2.5,1.1,3.8c-0.9,1.1-1.3,2.6-1.2,4c0,15.4,0,30.8,0,46.2c0,1,0.4,2.2-0.5,3.1
			c-0.3-0.8-0.4-1.8-0.3-2.6c0-17.1,0-34.2,0-51.3C482.4,229.7,481.9,228.4,483.2,227.7z"/>
		<path class="st16" d="M483.2,227.7c-0.5,1-0.7,2-0.6,3.1c0,18,0,36,0,54l-0.7,0.6c-0.1,0.1-0.3,0.1-0.4,0c0,0,0,0,0-0.1
			c1-0.9,0.6-2,0.6-3c0-18.2,0-36.4,0-54.6v-3l0.5-0.1L483.2,227.7z"/>
		<path class="st4" d="M205.2,266.3c0-21.3,0-42.7,0-64l0.6,1.2c0,20.4,0,40.7,0,61.1C205.5,265.1,205.8,265.9,205.2,266.3z"/>
		<path class="st4" d="M283.7,285.2c0.1-1.1,0.2-2.2,0.2-3.2c0-18.1,0-36.2,0-54.3c0-1,0-1.9,0-2.9l0.4-0.1l0.8,2.9
			c-0.7,18.8-0.2,37.6-0.3,56.3c0,0.3-0.1,0.5-0.2,0.8L283.7,285.2z"/>
		<path class="st19" d="M284.4,284.8c0-17.9,0-35.8,0-53.7c0-1.2,0.2-2.3,0.6-3.4c0.7,1.2,1,2.5,1.1,3.8c-0.9,1.1-1.3,2.6-1.1,4
			c0,15.4,0,30.8,0,46.1C285,282.7,285.4,283.9,284.4,284.8z"/>
		<path class="st14" d="M261.1,203.3c0.9,0.8,0.5,1.9,0.5,2.8c0,18.6,0,37.2,0,55.8c0,0.9,0.4,2-0.5,2.8c-0.8-1-0.5-2.1-0.5-3.1
			c0-18.4,0-36.7,0-55.1C260.5,205.4,260.3,204.3,261.1,203.3z"/>
		<path class="st26" d="M261.1,203.3c0,20.5,0,40.9,0,61.4h-0.5c-0.4-0.6-0.3-1.2-0.3-1.8c0-19.2,0-38.5,0-57.7
			c-0.1-0.6,0-1.3,0.3-1.8L261.1,203.3z"/>
		<path class="st14" d="M260.5,203.3c0,20.4,0,40.9,0,61.3H260c0-20.5,0-40.9,0-61.4C260.2,203.1,260.4,203.1,260.5,203.3
			L260.5,203.3z"/>
		<path class="st4" d="M381,182.7l-46,0.1c-3.6,0-7.2,0-10.8,0.1l-0.1-0.7c0.7-0.3,1.4-0.4,2.1-0.3h52.8c0.7-0.1,1.4,0,2.1,0.2
			l0.4,0.6C381.3,182.9,381.2,182.9,381,182.7z"/>
		<path class="st27" d="M381.1,182.1h-57c0.7-0.8,1.7-0.5,2.5-0.5c17.3,0,34.6,0,51.9,0C379.4,181.6,380.4,181.3,381.1,182.1z"/>
		<path class="st4" d="M301.9,182.7c-0.8,0.9-0.5,2.1-0.5,3.1c0,14.7,0,29.3,0,44v3L301,233l-1.3-3.5c0.2-0.5,0.4-0.9,0.4-1.4
			c0.7-14.7,0.1-29.5,0.4-44.2c0-0.2,0.1-0.3,0.2-0.5l0.7-0.6C301.6,182.5,301.8,182.5,301.9,182.7z"/>
		<path class="st4" d="M499.5,183.4v49.9c-0.7-1.2-1.1-2.4-1.2-3.8c0.7-14.4,0.2-28.9,0.4-43.3c-0.2-1-0.1-2,0.2-2.9l0.6-0.4
			c0.1,0.1,0.2,0.2,0.2,0.4C499.6,183.3,499.6,183.4,499.5,183.4z"/>
		<path class="st19" d="M498.9,183.3c0,14.4,0,28.7,0,43.1c0.1,1.1-0.1,2.2-0.6,3.1c-0.6-1.2-0.9-2.5-1-3.8c0.8-1.1,1.2-2.4,1.1-3.8
			c0-11.9,0-23.9,0-35.8C498.4,185.1,498,184.1,498.9,183.3z"/>
		<path class="st2" d="M545.1,267.4c-0.8-0.6-0.5-1.5-0.5-2.3c0-7.8,0.1-15.5-0.1-23.3c0-2.2,0.7-2.7,2.8-2.7
			c7.2,0.1,14.4,0.1,21.6,0.1c-0.8,0.9-1.9,0.5-2.8,0.5c-5.8,0-11.5,0-17.3,0c-3.7,0-3.7,0-3.7,3.6
			C545.1,251.3,545.1,259.4,545.1,267.4z"/>
		<path class="st4" d="M386.6,285.2h47.5l0.7,0.1l0,0l-0.5,0.6c-0.6,0.3-1.2,0.4-1.8,0.2h-44.6c-0.6,0.1-1.3,0-1.8-0.3L386.6,285.2z
			"/>
		<path class="st28" d="M544,221.8c-0.8-3.8-0.2-7.7-0.3-11.5c-0.1-3,0.1-6-0.1-8.9c-0.1-1.9,0.4-2.4,2.4-2.4c8,0.1,16.1,0,24.1,0
			v0.6c-0.6,0.4-1.3,0.6-2.1,0.5c-6.9,0-13.9,0-20.8,0c-0.7,0.1-1.5-0.1-2.1-0.5c-1.8,0.2-1.1,1.6-1.1,2.5
			C544,208.7,544,215.3,544,221.8z"/>
		<path class="st2" d="M386,285.9h48.3c-0.7,0.8-1.7,0.5-2.5,0.5c-14.4,0-28.8,0-43.2,0C387.6,286.4,386.7,286.7,386,285.9z"/>
		<path class="st29" d="M300.7,183.3c0,14.4,0,28.7,0,43.1c0,0.9,0.3,1.8-0.5,2.5c-0.4-0.9-0.3-2-1-2.7c-0.1-0.1-0.2-0.2-0.1-0.4
			c0,0,0,0,0-0.1c0.9-0.9,1.3-2.1,1.2-3.4c0-12.1,0-24.2,0-36.3C300.2,185.1,299.8,184.1,300.7,183.3z"/>
		<path class="st4" d="M525.1,285.2h46.4c0.1-0.1,0.3-0.1,0.5,0c0,0,0.1,0.1,0.1,0.1l-0.4,0.5c-0.6,0.3-1.2,0.3-1.8,0.2h-43.5
			c-0.6,0.1-1.3,0-1.8-0.3L525.1,285.2z"/>
		<path class="st4" d="M142.6,183.4c-0.5-0.4-1.1-0.6-1.7-0.6l-45.3,0.1l-0.1-0.7c0.6-0.3,1.2-0.4,1.8-0.3h43c0.6-0.1,1.3,0,1.8,0.2
			l0.6,0.7C142.9,183,142.8,183.2,142.6,183.4C142.7,183.4,142.7,183.4,142.6,183.4z"/>
		<path class="st18" d="M172.6,243c-4.9,0-4.9,0-4.9,4.9c0,11.4,0,22.8,0,34.2c0,1,0.4,2-0.5,2.8c-0.3-0.6-0.4-1.2-0.3-1.8
			c0-12.9,0-25.8,0-38.7c-0.1-0.6,0-1.3,0.3-1.8l0,0c1.8-0.4,3.7-0.4,5.5,0v-0.1C172.8,242.6,172.8,242.8,172.6,243z"/>
		<path class="st2" d="M524.4,285.9h47.2c-0.7,0.8-1.7,0.5-2.5,0.5c-14.1,0-28.1,0-42.2,0C526.1,286.4,525.1,286.7,524.4,285.9z"/>
		<path class="st27" d="M142.1,182.2H95.5c0.7-0.8,1.7-0.5,2.5-0.5c13.9,0,27.7,0,41.6,0C140.5,181.6,141.4,181.3,142.1,182.2z"/>
		<path class="st16" d="M115,284.8c0-15,0-29.9,0-44.9c0-0.6-0.5-1.5,0.6-1.8c0.2,0.1,0.3,0.2,0.2,0.3c-0.1,0.1-0.1,0.2-0.2,0.2
			c0,14.4,0,28.7,0,43.1C115.5,282.8,116,283.9,115,284.8z"/>
		<path class="st4" d="M570,182.9h-45.5l0-0.7c0.6-0.3,1.2-0.4,1.8-0.3h41.9c0.6-0.1,1.3,0,1.8,0.3L570,182.9z"/>
		<path class="st27" d="M570,182.2h-45.6c0.7-0.8,1.7-0.5,2.5-0.5c13.5,0,27,0,40.5,0C568.4,181.6,569.3,181.3,570,182.2z"/>
		<path class="st28" d="M545.1,200.6c0,5.6,0.1,11.2-0.1,16.8c-0.1,2.5,0.5,3.4,3.2,3.4c6.7-0.2,13.3-0.1,20,0.5h-21.5
			c-1.1,0-2.2,0.1-2.2-1.6c0-6.2,0-12.5,0.1-18.7c0-0.3,0.3-0.6,0.5-0.9l0.2,0.3L545.1,200.6z"/>
		<path class="st30" d="M167.1,242.4c0,14.1,0,28.2,0,42.4c-0.8-0.6-0.5-1.5-0.5-2.3c0-12.6,0-25.2,0-37.8
			C166.6,243.9,166.4,243.1,167.1,242.4z"/>
		<path class="st31" d="M146.6,183.4l-0.1-0.6l0.6-0.7c1-0.3,2.1-0.4,3.2-0.2c9.3,0,18.7,0,28.1,0c1,0,2-0.3,2.9,0.3l0.5,1
			c-11.2-0.8-22.3-0.2-33.5-0.4C147.7,182.7,147,183,146.6,183.4z"/>
		<path class="st27" d="M181.3,182.2h-34.2c0.6-0.8,1.5-0.5,2.3-0.5c9.9,0,19.8,0,29.7,0C179.8,181.6,180.7,181.4,181.3,182.2z"/>
		<path class="st32" d="M179.1,276.6c-0.8-0.6-0.5-1.5-0.5-2.3c0-8.8,0-17.6,0-26.5c0-0.8-0.2-1.6,0.6-2.2
			C179.4,256,179.6,266.3,179.1,276.6z"/>
		<path class="st4" d="M179.1,276.6c0-10.3,0-20.6,0.1-30.9c0.1,0,0.2,0,0.3,0l0.2,1c0,9-0.1,18.1-0.1,27.1
			C179.5,274.8,179.9,275.8,179.1,276.6z"/>
		<path class="st14" d="M115.6,201.1c0.7-0.8,1.7-0.5,2.5-0.5c8,0,16,0,24,0c-0.7,0.8-1.7,0.5-2.5,0.5
			C131.6,201.2,123.6,201.2,115.6,201.1z"/>
		<path class="st28" d="M569.4,222.5c-5.5-0.7-10.9-0.1-16.4-0.3c-3-0.1-6.1,0.4-9.1-0.3h25.6c0.2,0.1,0.2,0.4,0,0.5
			C569.5,222.4,569.5,222.4,569.4,222.5z"/>
		<path class="st22" d="M545.1,199.6H570c0,0.2,0,0.3,0,0.5c-2.7,0.6-5.4,0.3-8,0.2c-5.6-0.1-11.3,0.4-16.9-0.2l0,0
			C545.1,199.9,545.1,199.8,545.1,199.6z"/>
		<path class="st3" d="M545.1,200.1h25c-0.8,0.9-1.9,0.5-2.8,0.5c-7.4,0-14.8,0-22.2,0L545.1,200.1z"/>
		<path class="st33" d="M115.5,238.6c0-0.2,0-0.3,0-0.5l24.4-0.1c-0.8,0.9-1.9,0.5-2.8,0.5C130,238.6,122.8,238.6,115.5,238.6z"/>
		<path class="st25" d="M140,220.2c-7.2,0-14.4,0-21.6,0c-0.9,0-2,0.4-2.8-0.5c7.3,0,14.6,0,21.9,0
			C138.3,219.6,139.3,219.3,140,220.2z"/>
		<path class="st4" d="M182.9,285.1h22.2l-0.5,0.8c-7.2,0.4-14.5,0.4-21.7,0L182.9,285.1z"/>
		<path class="st4" d="M362.5,284.8h0.6c-0.2,0.5-0.6,0.9-1.1,1.1c-6.3,0.4-12.7,0.4-19,0l-0.5-1.1h0.5c5.4,0.8,10.9,0.2,16.3,0.3
			C360.4,285.2,361.5,285.4,362.5,284.8z"/>
		<path class="st2" d="M182.9,285.9h21.7c-0.4,0.2-0.8,0.4-1.2,0.5c-6.5,0-12.9,0-19.4,0C183.7,286.4,183.3,286,182.9,285.9z"/>
		<path class="st27" d="M464.7,182.2c0.4-0.2,0.8-0.5,1.2-0.5c6.3,0,12.6,0,18.8,0c0.4,0,0.8,0.3,1.2,0.5
			C478.8,182.6,471.8,182.6,464.7,182.2z"/>
		<path class="st4" d="M464.7,182.2h21.2l0,0.8l-21.1-0.1L464.7,182.2z"/>
		<path class="st27" d="M266.5,182.2c0.3-0.2,0.6-0.5,0.9-0.5c6.5,0,12.9,0,19.4,0c0.3,0,0.6,0.3,0.9,0.5
			C280.6,182.6,273.6,182.6,266.5,182.2z"/>
		<path class="st4" d="M266.5,182.2h21.2l-0.6,0.6l-20.5,0.1L266.5,182.2z"/>
		<path class="st4" d="M146,284.8h0.6c2.9,0.9,5.9,0.2,8.8,0.4c3.3,0.1,6.6,0.1,10,0.1l0.7,0.6c-6.3,0.4-12.7,0.4-19,0
			C146.6,285.7,146.2,285.3,146,284.8z"/>
		<path class="st4" d="M517.9,284.8h0.5l-0.5,1.1c-6.1,0.4-12.3,0.4-18.5,0c-0.5-0.3-0.1-0.5,0.1-0.7c5.1,0,10.3,0,15.4-0.1
			C516,285.1,517,285.4,517.9,284.8z"/>
		<path class="st4" d="M319.7,284.8c0,0.1,0,0.2,0,0.4v0.7c-6.1,0.4-12.3,0.4-18.5,0c-0.5-0.3-0.1-0.5,0.1-0.6
			c5.2,0,10.5,0,15.7-0.1C318,285.1,318.9,285.4,319.7,284.8z"/>
		<path class="st4" d="M95.6,285.3l0.5-0.1h18.2l0.7,0.6c-6.3,0.4-12.7,0.4-19,0L95.6,285.3z"/>
		<path class="st4" d="M439.8,285.2h17.7l0.6,0.6c-6.3,0.4-12.7,0.4-19,0L439.8,285.2z"/>
		<path class="st2" d="M343.1,285.9h19c-0.6,0.8-1.5,0.5-2.2,0.5c-4.8,0-9.7,0-14.5,0C344.5,286.4,343.7,286.6,343.1,285.9z"/>
		<path class="st4" d="M405,182.2v0.6l-18.9,0.1l0-0.7C392.3,181.7,398.7,181.7,405,182.2L405,182.2z"/>
		<path class="st4" d="M458.2,182.8h-18.9v-0.7c6.3-0.4,12.7-0.4,19,0L458.2,182.8z"/>
		<path class="st2" d="M96,285.9h19c-0.5,0.7-1.3,0.5-2,0.5H98C97.3,286.4,96.5,286.5,96,285.9z"/>
		<path class="st2" d="M439.2,285.9h19c-0.6,0.7-1.5,0.5-2.2,0.5c-4.8,0-9.7,0-14.5,0C440.7,286.4,439.8,286.6,439.2,285.9z"/>
		<path class="st27" d="M405,182.2h-19c0.5-0.7,1.3-0.6,2-0.6h15C403.7,181.6,404.4,181.5,405,182.2z"/>
		<path class="st2" d="M147.1,285.9h19c-0.5,0.7-1.3,0.5-2,0.5h-15C148.4,286.4,147.6,286.5,147.1,285.9z"/>
		<path class="st4" d="M499.5,183.4l-0.1-0.5l0.6-0.7c6-0.4,11.9-0.4,17.9,0l-0.1,0.7l-16.3-0.1
			C500.8,182.7,500.1,182.9,499.5,183.4z"/>
		<path class="st27" d="M458.2,182.2h-19c0.6-0.7,1.5-0.5,2.2-0.5c4.8,0,9.7,0,14.5,0C456.7,181.6,457.6,181.4,458.2,182.2z"/>
		<path class="st4" d="M301.9,182.7l-0.5-0.1l0.4-0.6c6-0.4,11.9-0.4,17.9,0l-0.1,0.7L301.9,182.7z"/>
		<path class="st2" d="M301.3,285.9h18.4c-0.5,0.7-1.3,0.6-2,0.6h-14.5C302.5,286.4,301.8,286.5,301.3,285.9z"/>
		<path class="st2" d="M499.5,285.9H518c-0.5,0.7-1.3,0.5-2,0.5h-14.5C500.8,286.4,500,286.5,499.5,285.9z"/>
		<path class="st34" d="M199.8,216.9l0.4-12.3c-0.2-1-0.3-2.1-0.2-3.1l0.2-0.4l0.6,0.6c0.4,4.7,0.4,9.4,0,14.1l-0.6,1.1
			C200.1,217.2,199.9,217.2,199.8,216.9z"/>
		<path class="st22" d="M342,200.1h-17.4c0-0.1,0-0.3,0.1-0.4c5.5,0,11.1,0,16.6,0C341.5,199.7,341.8,199.9,342,200.1z"/>
		<path class="st27" d="M319.7,182.2h-17.9c0.7-0.8,1.7-0.5,2.5-0.5c4.3,0,8.6,0,12.9,0C318.1,181.6,319,181.3,319.7,182.2z"/>
		<path class="st4" d="M572.1,285.3l-0.5,0c0.5-0.4,0.7-1.1,0.6-1.7c0-5.2-0.1-10.3-0.1-15.5l0.7-0.1c0.4,5.6,0.4,11.2,0,16.8
			L572.1,285.3z"/>
		<path class="st27" d="M517.9,182.2H500c0.7-0.8,1.7-0.5,2.5-0.5c4.3,0,8.6,0,12.9,0C516.3,181.6,517.2,181.3,517.9,182.2z"/>
		<path class="st2" d="M283.9,285.9c-0.6,0.8-1.5,0.5-2.2,0.5c-4.3,0-8.6,0-12.9,0c-0.8,0-1.6,0.2-2.2-0.5
			C272.3,285.4,278.1,285.4,283.9,285.9z"/>
		<path class="st22" d="M381.1,200.1h-17.4c2.9-1.1,6-0.4,9-0.4C375.5,199.6,378.3,198.9,381.1,200.1z"/>
		<path class="st4" d="M481.4,285.3l0.5,0.1l0.2,0.5c-5.8,0.4-11.6,0.4-17.4,0l0.7-0.6L481.4,285.3z"/>
		<path class="st4" d="M283.9,285.9h-17.4l0.7-0.6l16.6-0.1L283.9,285.9z"/>
		<path class="st2" d="M464.7,285.9h17.4c-0.6,0.8-1.5,0.5-2.2,0.6c-4.3,0-8.6,0-12.9,0C466.2,286.4,465.3,286.6,464.7,285.9z"/>
		<path class="st4" d="M142.6,183.4l0.1-0.5l0.5-0.1c0.4,5.6,0.4,11.2,0,16.8l-0.5,0.5l-0.1-0.6L142.6,183.4z"/>
		<path class="st20" d="M143.3,199.5c0-5.6,0-11.2,0-16.8c0.9,0.8,0.6,1.9,0.5,2.8C143.5,190.2,144.4,194.9,143.3,199.5z"/>
		<path class="st4" d="M381,182.7h0.5l0.7,0.6c0.4,5.2,0.4,10.5,0,15.7h-0.7c0-4.6,0-9.3,0-13.9C381.5,184.2,381.7,183.4,381,182.7z
			"/>
		<path class="st35" d="M569.4,222.5l0.1-0.6l0.5,0.5c0.4,5.2,0.4,10.5,0,15.7l-0.5,0.5c0-0.2,0-0.4-0.1-0.5L569.4,222.5z"/>
		<path class="st2" d="M141.1,221.3c0.9,0.9,0.5,2,0.5,3.1c0.1,3.8,0,7.5,0,11.3c0,0.9,0.3,1.8-0.5,2.5
			C140.6,232.5,140.6,226.9,141.1,221.3z"/>
		<path class="st4" d="M141.1,221.3c0,5.6,0,11.2,0,16.8l-0.8-0.1l0.1-16.7L141.1,221.3z"/>
		<path class="st2" d="M572.8,284.8c0-5.6,0-11.2,0-16.8c0.9,0.8,0.6,1.9,0.5,2.8C573,275.4,574,280.1,572.8,284.8z"/>
		<path class="st4" d="M434.8,285.3c0-4.6,0-9.2,0.1-13.7c0-0.9-0.3-1.8,0.5-2.5c0.4,5.2,0.4,10.5,0,15.7L434.8,285.3L434.8,285.3z"
			/>
		<path class="st4" d="M324.3,182.8l-0.1,16.1h-0.6c-0.4-5.2-0.4-10.5,0-15.7L324.3,182.8z"/>
		<path class="st14" d="M382.2,199c0-5.2,0-10.5,0-15.7c1.1,3.3,0.4,6.7,0.5,10C382.7,195.2,383.3,197.2,382.2,199z"/>
		<path class="st32" d="M323.5,183.3c0,5.2,0,10.5,0,15.7c-1-1.2-0.6-2.6-0.5-3.8C323.2,191.2,322.3,187.2,323.5,183.3z"/>
		<path class="st2" d="M435.4,284.8c0-5.2,0-10.5,0-15.7c1.1,1.4,0.5,2.9,0.5,4.4C435.7,277.2,436.5,281,435.4,284.8z"/>
		<path class="st4" d="M571.1,199c-1.1-3.6-0.3-7.4-0.5-11.1c-0.1-1.5-0.6-3.2,0.5-4.7C571.6,188.5,571.6,193.8,571.1,199z"/>
		<path class="st25" d="M571.1,199c0-5.2,0-10.5,0-15.8c1.2,3.3,0.4,6.7,0.5,10C571.7,195.2,572.3,197.2,571.1,199z"/>
		<path class="st14" d="M200.1,245.7v14.4h-0.2v-14.4L200.1,245.7z"/>
		<path class="st19" d="M570.1,238.1c0-5.2,0-10.5,0-15.7c1.1,1.4,0.5,2.9,0.5,4.4C570.4,230.5,571.2,234.3,570.1,238.1z"/>
		<path class="st19" d="M200.8,215.8c0-4.7,0-9.4,0-14.1c1.1,2.1,0.5,4.3,0.5,6.5C201.3,210.8,201.9,213.3,200.8,215.8z"/>
		<path class="st16" d="M198.7,270.6c-0.3-3.2-0.3-6.5,0-9.7c0.2-0.2,0.3-0.3,0.5,0v2.7c0.4,2,0.4,4,0,5.9L198.7,270.6z"/>
		<path class="st36" d="M199.2,260.9h-0.5c0.1-3.4-0.2-6.8,0.4-10.1C199.2,254.2,199.2,257.6,199.2,260.9z"/>
		<path class="st37" d="M496.3,222.9l-1.2-4.3C496.7,219.4,497.2,221.3,496.3,222.9C496.4,222.8,496.4,222.8,496.3,222.9z"/>
		<path class="st29" d="M199.2,269.5c0-2,0-4,0-5.9C200,265.5,200,267.6,199.2,269.5z"/>
		<path class="st16" d="M172.6,242.4h-5.5c0-0.2,0-0.3,0-0.5C169,242,170.9,241.2,172.6,242.4z"/>
		<path class="st36" d="M199.2,249.8c-0.7-1.7-0.2-3.4-0.4-5.2C199.7,246.3,199,248.1,199.2,249.8z"/>
		<path class="st38" d="M199.8,201.2l-0.5-3.2c1.3,0.8,0.9,2.1,1,3.2l0,0C200.1,201.4,199.9,201.4,199.8,201.2z"/>
		<path class="st39" d="M260.5,203.3H260l-0.5-3.2C260.9,200.9,260.5,202.2,260.5,203.3z"/>
		<path class="st40" d="M172.6,243l0.1-0.6c1.2,0.2,2.5-0.5,3.7,0.2l-0.5,0.4C174.8,243.4,173.6,243.4,172.6,243L172.6,243z"/>
		<path class="st41" d="M206.7,199l-0.6,2.7C205.3,200.5,205.7,199.7,206.7,199z"/>
		<path class="st4" d="M289.4,243.5c0.4,0.6,0.6,1.3,0.6,2.1C289.1,245.1,288.5,244.5,289.4,243.5z"/>
		<path class="st42" d="M192.5,232.1l2.3-2.3c0.1,1.2-0.8,2.2-2,2.3C192.7,232.1,192.6,232.1,192.5,232.1z"/>
		<path class="st43" d="M236.7,285.4l3.2-0.5C239,286.5,237.8,285.9,236.7,285.4z"/>
		<path class="st4" d="M293.7,259.8c0.4,0.6,0.6,1.4,0.6,2.1c-0.2,0.2-0.4,0.7-0.4,0.5C293.9,261.5,292.7,260.7,293.7,259.8z"/>
		<path class="st44" d="M293.7,204.5c-0.5-0.6-0.7-1.3-0.6-2.1c0-0.2,0.1-0.3,0.2-0.5c0.2-0.2,0.4-0.2,0.4,0.1
			C293.7,202.9,293.7,203.7,293.7,204.5z"/>
		<path class="st43" d="M490.2,252.8l0.5,2.1h-0.3C489.4,254.3,489.5,253.5,490.2,252.8z"/>
		<path class="st18" d="M172.6,243h3.2C174.9,243.8,173.5,243.8,172.6,243z"/>
		<path class="st45" d="M296.9,217.1c-0.5-0.5-0.7-1.1-0.6-1.8c0.1-0.2,0.1-0.4,0.2-0.5s0.4-0.1,0.4,0.2
			C296.9,215.8,296.9,216.5,296.9,217.1z"/>
		<path class="st46" d="M199.8,216.9h0.5c0,0.6,0,1.2,0,1.8c0,0.3-0.2,0.4-0.4,0.2c-0.1-0.1-0.2-0.3-0.2-0.5L199.8,216.9z"/>
		<path class="st43" d="M493.4,264.7l0.5,2.1C492.5,266.4,492.8,265.6,493.4,264.7z"/>
		<path class="st47" d="M199.8,276.6l-0.2-1.4c0.1-0.2,0.1-0.6,0.3-0.7c0.4-0.2,0.4,0.2,0.4,0.4
			C200.3,275.5,200.4,276.2,199.8,276.6z"/>
		<path class="st4" d="M490.3,254.9h0.3l0.6,2.2C490.4,256.7,490,255.8,490.3,254.9z"/>
		<path class="st4" d="M238.7,182.3l-2-0.2C237.4,181.5,238.1,181.1,238.7,182.3z"/>
		<path class="st43" d="M229,182.1l-2,0.2C227.6,181.1,228.3,181.5,229,182.1z"/>
		<path class="st4" d="M488.6,247.7c0.5,0.4,0.7,1.1,0.6,1.7c-0.2,0.2-0.2,0.9-0.5,0.4S488.6,248.4,488.6,247.7z"/>
		<path class="st48" d="M603.2,395c0.6,0.9,1.2,1.8,0,2.7c-0.4,0.2-0.7,0-1-0.2c-0.5-0.4-0.9-0.6-1.3,0.1c-0.2,0.4-0.3,0.8-0.4,1.2
			c0.1,0.6,0,1.2-0.2,1.9c-0.3,0.7-1.2,0.7-1.3,0c-0.2-1.8-0.2-3.5-0.2-5.3c0-0.5,0.6-0.5,1.1-0.5L603.2,395z"/>
		<path class="st49" d="M600.5,398.9c-0.6-0.4-0.6-0.8,0-1.2c0.5-0.5,1.2-0.8,1.9-0.7l0.7,0.7c-0.2,1.2,0.8,1.8,1.2,2.7
			c-0.6,1.3-1.3,0.9-1.8-0.1S601.8,398.6,600.5,398.9z"/>
		<path class="st50" d="M299.1,226.2c1.2,0.6,1,1.7,1,2.7l-0.4,0.5L299.1,226.2z"/>
		<path class="st8" d="M181.3,218.8c-0.5,3.4-2.2,4.9-6.6,5.6c-0.4-0.2-0.9-0.4-1.4-0.4c-1.1-0.1-2.2,0-3.2,0
			c-2.7-0.1-3.1-0.4-3.1-3.2c-0.1-5.5-0.1-11,0-16.5c0-2.7,0.6-3.2,3.4-3.4c1.5-0.1,3.1,0.1,4.6,0.1c0.3-0.1,0.6-0.2,0.9-0.4
			c2.7,0.8,5.1,1.9,5.5,5.2C181.7,210.2,181.6,214.5,181.3,218.8z"/>
		<path class="st51" d="M175.8,201.1c-1.7,1.1-3.7,0.5-5.5,0.5c-1.8,0-2.8,0.4-2.7,2.5c0.1,5.6,0.1,11.2,0,16.8
			c-0.1,2.1,0.7,2.6,2.7,2.6c1.3-0.1,2.7-0.5,3.9,0.5c-2.7,0.4-5.4,0.4-8.1,0c0-7.4-0.1-14.8-0.1-22.1c0-1,0-1.9,1.3-1.7
			c2.3,0.3,4.7-0.3,7,0.4c-2,0.7-4,0.2-6,0.3c-1.8-0.1-1.4,1.2-1.4,2.2c0,5.5,0,11,0,16.5c0,0.8,0.2,1.6,0,2c0-5.8,0-12.1,0-18.3
			c0-0.9-0.6-2.4,1.3-2.4C170.7,201.1,173.3,200.6,175.8,201.1z"/>
		<path class="st52" d="M181.3,218.8c0-4.3,0-8.6,0-12.9C182.1,210.2,181.6,214.5,181.3,218.8z"/>
		<path class="st4" d="M166.1,224h8.1l0.5,0.5C171.9,224.4,168.9,225.2,166.1,224z"/>
		<path class="st4" d="M175.8,201.1h-7.6c-0.2-0.1-0.2-0.2-0.2-0.3c0-0.1,0.1-0.1,0.2-0.1l6-0.2l1.5,0.1
			C175.8,200.8,175.8,201,175.8,201.1z"/>
		<path class="st8" d="M199.8,201.2h0.5l-0.1,3.5L199.8,201.2z"/>
		<path class="st8" d="M240.4,263.1c-0.4,2.2-2,3.3-3.8,4.3c-0.8-0.3-1.5,0.4-2.3,0.2c-0.9-0.2-1.8-0.2-2.7-0.1
			c-0.3,0.1-0.6,0.2-0.9,0.4c-2.6-0.4-4.6-1.6-5.4-4.3c0.2-0.3,0.3-0.6,0.4-0.9c-0.2-13-0.1-26-0.1-38.9c0-6.5-0.1-13,0.1-19.5
			c0-0.3-0.2-0.6-0.4-0.9c0.9-2.6,2.9-3.8,5.4-4.2c1.4,0.3,2.9,0.3,4.3,0c2.4,0.3,4.5,2,5.3,4.3c-0.2,0.5-0.3,0.9-0.4,1.4
			c0,18.9,0,37.9,0,56.8C240,262.2,240.2,262.6,240.4,263.1z"/>
		<path class="st53" d="M225.8,263.6h-0.4c-0.4-1.4-0.6-2.8-0.5-4.3c0-17.3,0-34.7,0-52c-0.1-1.4,0.1-2.7,0.5-4h0.5
			c0.3,0.7,0.4,1.4,0.3,2.1c0,18.7,0,37.4,0,56.1C226.2,262.2,226.1,263,225.8,263.6z"/>
		<path class="st4" d="M240.4,263.1l-0.5-0.5c-0.3-0.7-0.4-1.4-0.2-2.1c0-18.1,0-36.2,0-54.4c-0.1-0.7,0-1.4,0.2-2.1l0.4-0.5
			c0.2,0.9,0.3,1.8,0.3,2.7c0,18.2,0,36.4,0,54.6C240.6,261.5,240.5,262.2,240.4,263.1z"/>
		<path class="st4" d="M235,199.1c-1.3,0.7-2.9,0.7-4.3,0C232.1,198.8,233.6,198.8,235,199.1z"/>
		<path class="st4" d="M234.4,267.4c0.7-0.2,1.4-0.9,2.2,0c-0.8,0.5-1.8,0.7-2.7,0.6c-0.1-0.1-0.2-0.2-0.2-0.4c0-0.1,0-0.2,0.1-0.2
			C234,267.2,234.3,267.2,234.4,267.4z"/>
		<path class="st4" d="M233.9,267.5v0.5c-1.1,0.2-2.2,0.2-3.2-0.1l0.5-0.5C232.1,267,233.1,267,233.9,267.5z"/>
		<path class="st54" d="M602.5,397c-0.4,0.6-1.2,0.9-1.9,0.7c0-0.6-0.5-1.3,0.3-1.7S602.2,396.3,602.5,397z"/>
		<path class="st55" d="M180.3,218.4v-12.3h0.3v12.3L180.3,218.4z"/>
		<path class="st56" d="M168.3,200.7c0,0.1,0,0.3,0,0.4c-1.5,0.3-1.1,1.4-1.1,2.4c0,5.6,0,11.2,0,16.8c0.2,1.1,0,2.2-0.5,3.1
			c0-7.4,0-14.3,0-21.2C166.6,200.9,167.2,200.5,168.3,200.7z"/>
		<path class="st3" d="M225.8,263.6c0-20.1,0-40.2,0-60.3c0.9,0.8,0.5,1.9,0.5,2.8c0,18.2,0,36.5,0,54.7
			C226.3,261.8,226.7,262.8,225.8,263.6z"/>
		<path class="st2" d="M239.9,203.9c0,19.5,0,39.1,0,58.6c-0.8-0.7-0.5-1.7-0.5-2.5c0-17.8,0-35.7,0-53.5
			C239.4,205.5,239.1,204.6,239.9,203.9z"/>
		<path class="st20" d="M233.9,267.5l-2.7-0.1c0.9-0.8,2.3-0.8,3.2,0L233.9,267.5z"/>
	</g>
</g>
</svg>
