<?xml version="1.0" encoding="utf-8"?>
<!-- Generator: Adobe Illustrator 18.1.0, SVG Export Plug-In . SVG Version: 6.00 Build 0)  -->
<svg version="1.1" id="Layer_1" xmlns="http://www.w3.org/2000/svg" xmlns:xlink="http://www.w3.org/1999/xlink" x="0px" y="0px"
   viewBox="1.7 677.6 1220.6 226.6" enable-background="new 1.7 677.6 1220.6 226.6" xml:space="preserve" preserveAspectRatio="xMinYMin none">
<path fill="#CCCCCC" d="M719.1,878.3c0,11.8-26.8,21.4-60,21.4c-33.1,0-59.9-9.6-59.9-21.4c0-11.8,26.8-21.4,59.9-21.4
  C692.2,856.9,719.1,866.5,719.1,878.3"/>
<path fill="#CC0000" d="M718.5,738.6c0,33.7-27.3,61-61,61s-61-27.3-61-61c0-33.7,27.3-61,61-61S718.5,704.9,718.5,738.6"/>
<path d="M304.9,706c-3.7,0-7.2-1.4-9.9-4c-2.8-2.6-4.4-6.2-4.3-10.2c0-3.5,1.3-6.9,3.9-9.8c2.5-2.9,6.2-4.5,10.3-4.5h0.3
  c4,0,7.6,1.6,10.1,4.5c2.5,2.9,3.8,6.3,3.8,9.7c0,3.9-1.5,7.5-4.2,10.1c-2.7,2.6-6.1,4.1-9.7,4.1H304.9z"/>
<path d="M1.7,902.9V723.9h20.2v18.5l2.6-2.5c13.1-12.6,27.2-18.7,43.2-18.7c17,0,31.4,6.3,41.7,18.3c11.1,12.9,17,32,17,55.3
  c0,23.3-6,42.5-17.3,55.3c-10.6,11.9-25.4,18.3-42.9,18.3c-15,0-28.7-5.8-41.8-17.8l-2.6-2.4v54.7H1.7z M65.8,739.2
  c-15,0-27.3,6.4-42.3,22.2l-0.4,0.4v67.4l0.4,0.4c14.5,15.1,27.6,21.9,42.3,21.9c18.8-0.2,41.3-10,41.7-56
  C107.3,760.4,91.7,739.3,65.8,739.2L65.8,739.2z"/>
<path d="M243.9,866.4v-98.8c-0.4-20-8-28-27-28.4c-15.9,0-30.6,7.2-47.6,23.5l-0.5,0.5v103.2h-20.2V679h20.2v66.2l2.6-2.3
  c15.7-14,32.6-21.2,50-21.2c13.9,0,24.6,3.8,31.9,11.3c7.1,7.3,10.8,17.8,10.8,31.2v102.3H243.9z"/>
<rect x="294.8" y="724.4" width="20.2" height="142"/>
<path d="M472.1,904.2c-0.6,0-1.3,0-1.9,0c-10.3,0-14.7-1.3-19.9-2.8l-1.5-0.4l4.7-16.9l2,0.5c3.6,1,6.6,1.8,15.2,1.8
  c15.5-0.4,17.4-1.8,22.1-10.6l3.6-9.5l-54.6-141.9h21.6l43.3,117.4l43-117.4h21.1l-58.7,151.9C504.5,896,497.3,904.2,472.1,904.2"/>
<path d="M371.4,866.1c-8.4,0-14-1.7-17.9-5.7c-4.8-4.8-7-12.5-7-24.2v-157h20.2v153.3c0,4.8,0.3,11,2.1,13.8c1.4,2.2,3,2.5,6,2.6
  c4.5,0,5.4-0.3,8.3-1.3c0.5-0.2,2.9-1,2.9-1v17.7l-2.5,0.5c-3.3,0.7-6.5,1.3-11.9,1.3H371.4z"/>
<path d="M428.6,866.1c-8.4,0-14-1.7-17.9-5.7c-4.8-4.7-7-12.4-7-24.2v-1.5h0V679.3h20.2v153.3c0,4.8,0.3,11,2.1,13.8
  c1.5,2.2,3,2.5,6,2.6c4.6,0,5.4-0.3,8.3-1.3l2.8-1v17.7l-2.5,0.5c-3.3,0.7-6.5,1.3-11.9,1.3H428.6z"/>
<path d="M801.8,869.3c-16.6,0-31.9-6.9-43.1-19.3c-12.1-13.5-18.5-32.3-18.5-54.5c0-23.4,6.8-42.8,19.7-55.9
  c11.3-11.5,26.8-17.9,43.7-17.9h0.2c25.5,0,43.3,12.7,54.4,38.9l0.4,0.8l-17.4,7.7l-0.3-0.9c-8.6-20.5-19.5-28.8-37.7-29
  c-10,0.1-42.5,4.4-42.8,56c0.2,34.3,16.7,56.5,42.2,56.6c18.7-0.2,29-7.8,39.3-29.3l0.4-0.8l16.6,7.1l-0.4,0.8
  c-12.4,26.7-30.9,39.6-56.4,39.6H801.8z"/>
<path d="M935.2,869.3c-17.6,0-33.7-6.8-45.3-19.3c-12.6-13.4-19.2-32.3-19.2-54.5c0-22.4,6.6-41.3,19.1-54.6
  c11.6-12.4,27.7-19.2,45.4-19.2c17.7,0,33.7,6.8,45.3,19.2c12.5,13.4,19,32.3,19,54.6c0,22.3-6.6,41.1-19,54.5
  C968.9,862.5,952.9,869.3,935.2,869.3L935.2,869.3z M935.3,739.2c-26.7,0.1-44.1,22-44.3,56c0.2,34.4,17.6,56.6,44.3,56.6
  c27,0,43.9-21.7,44.1-56.6C979.2,761.2,961.9,739.2,935.3,739.2L935.3,739.2z"/>
<path d="M1202.1,866.4v-98.8c0-10-1.8-17-5.6-21.4c-4-4.7-10.3-6.9-19.8-6.9c-14.8,0-28,6.8-45.5,23.5l-0.5,0.5v103.2h-20.2v-98.8
  c0-10-1.8-17.1-5.6-21.4c-4-4.7-10.4-6.9-20.1-6.9c-14.6,0-28.2,7-45.4,23.5l-0.5,0.5v103.2h-20.2v-142h20.2v20.8l2.6-2.3
  c15.8-14.4,31.1-21.1,47.9-21.1l0.6,0c19.5,0,32.1,7.5,37.7,22.3l0.8,2.1l1.7-1.5c17.1-15.4,33.7-22.9,50.8-22.9
  c14.1,0,24.7,3.9,31.7,11.6c6.4,7.1,9.7,17.5,9.7,30.8v102.3H1202.1z"/>
</svg>
