<?xml version="1.0" encoding="utf-8"?>
<!-- Generator: Adobe Illustrator 22.0.1, SVG Export Plug-In . SVG Version: 6.00 Build 0)  -->
<svg version="1.1" id="Layer_1" xmlns="http://www.w3.org/2000/svg" xmlns:xlink="http://www.w3.org/1999/xlink" x="0px" y="0px"
	 viewBox="0 0 213.1 238.1" style="enable-background:new 0 0 213.1 238.1;" xml:space="preserve">
<style type="text/css">
	.st0{fill:#FEFEFE;}
	.st1{fill:#FDCB98;}
	.st2{fill:#424D3D;}
	.st3{fill:#FDFDFD;}
	.st4{fill:#434E3E;}
	.st5{fill:#F2F3F2;}
	.st6{fill:#FCFDFC;}
	.st7{fill:#394533;}
	.st8{fill:#3C4837;}
	.st9{fill:#5D6559;}
	.st10{fill:#33402D;}
	.st11{fill:#303E2A;}
	.st12{fill:#EAEBEA;}
	.st13{fill:#364330;}
	.st14{fill:#5E665A;}
	.st15{fill:#34412E;}
	.st16{fill:#686F64;}
	.st17{fill:#F58026;}
	.st18{fill:#0178AD;}
	.st19{fill:#2C3924;}
	.st20{fill:#3B4736;}
	.st21{fill:#4F594B;}
	.st22{fill:#FCC892;}
	.st23{fill:#384532;}
	.st24{fill:#2B3924;}
	.st25{fill:#25351F;}
	.st26{fill:#3A4634;}
	.st27{fill:#FCCB98;}
	.st28{fill:#394534;}
	.st29{fill:#3A4734;}
	.st30{fill:#2E3C28;}
	.st31{fill:#35422F;}
	.st32{fill:#F47600;}
	.st33{fill:#303D2A;}
	.st34{fill:#2F3D29;}
	.st35{fill:#2D3A25;}
	.st36{fill:#2B3823;}
	.st37{fill:#364230;}
	.st38{fill:#323F2C;}
	.st39{fill:#374431;}
	.st40{fill:#2D3A26;}
	.st41{fill:#33412D;}
	.st42{fill:#E5E6E4;}
	.st43{fill:#F9F9F9;}
	.st44{fill:#3E4A39;}
	.st45{fill:#3F4B3A;}
	.st46{fill:#F7F8F7;}
	.st47{fill:#F4F5F4;}
</style>
<g>
	<g>
		<path class="st0" d="M1,98C1,66.9,1.1,35.8,0.9,4.7c0-3.3,1-3.7,3.9-3.7C63.5,1,122.3,1,181,1c0.2,3.4-2.9,3.7-4.8,4.8
			c-8.5,5-8.6,5-5,14c2.8,7,3.9,14.3,4.9,21.7c0.4,2.6,0.5,5.3,0,7.9c-1.1,9.1-3,18-7.1,26.3c-1,2.1-0.5,3.9,1.6,5
			c0.9,0.5,1.7,1,2.6,1.4c9.4,5.2,9.5,5.2,13.6-4.9c3.4-8.4,5.5-17.1,5.8-26.1c0-4.1,0-8.2,0-12.3c-0.1-1.6,0.1-3.2-0.5-4.7
			c-0.3-1-0.4-2.1-0.5-3.1c-1.2-8.3-3.9-16.1-7.3-23.6c-0.9-2-2.8-3.9-1.3-6.4c9,0,18,0.1,27-0.1c2.5,0,3.1,0.6,3.1,3.1
			C213,35.3,213,66.7,213,98c-1.8,1.6-4,1.4-6.1,1.4c-6.9,0-13.9,0-20.8,0c-1.8,0-3.7-0.3-5.3,0.9c-1.6,1.4-1.4,3.3-1.4,5.1
			c0,23.1,0,46.2,0,69.4c0,1.8-0.2,3.7,1.4,5c4.3,1.7,8.8,0.6,13.2,0.7c4.6,0.2,9.2,0,13.8,0.1c1.8,0,3.6,0,5.1,1.4c0,8,0,16,0,24
			c-0.4,0.3-0.8,0.3-1.3,0c-0.4-0.5-0.8-1-1.1-1.6c-1.7-3.6-4.6-5.8-8.6-4.8c-4,0.9-6.6,3.5-6.6,8c0,7,0,14,0,20.9
			c-0.7,4.3,3.9,6,4.6,9.5c-5.7,0-11.3,0-17,0c1-3.3,4.9-4.8,5-8.5c0.8-3.1,1.2-6.2,0-9.4c-2.5-1.4-5.1-1.1-7.7-0.2
			c-0.8,1.5,0.3,1.6,1.2,1.9c1.8,0.4,3.5,0.8,4.3,2.8c0.4,1.4,0.3,2.7-0.1,4c-1.2,3.1-2.8,6-6.8,5.1c-3.9-0.8-4.3-4.1-4.3-7.4
			c0-6-0.1-11.9,0-17.9c0.1-3.3,1.4-5.9,4.9-6.4c3.5-0.5,5.2,1.5,5.9,4.6c0.4,0.9,0.6,1.9,0.9,2.9c1.1,1.3,1.9,1,2.1-0.6
			c0.1-1.3-0.5-2.5-0.8-3.7c-2.6-5.1-4.9-6.7-8.9-5.9c-4.3,0.9-6.1,3.9-6.4,8.1c0,7,0,14,0,20.9c-0.7,4.3,3.9,6,4.6,9.5
			c-3.3,0-6.7,0-10,0c-0.9-0.8-1.2-1.9-1.9-2.8c-2.8-1.9-6.3,0-9.2-1.6c-0.7-0.5-1.3-1.1-1.6-1.8c-0.9-3.4-0.8-6.8-0.1-10.2
			c0.3-0.8,0.8-1.4,1.5-1.9c2.9-1.5,6.2-0.4,9.1-1.2c0.7-0.7,0.5-1.3-0.3-1.8c-3.3-0.9-7.2,1-10.1-1.9c-1.2-3.7-1-7.4-0.2-11
			c1.4-2.2,3.7-1.7,5.7-2c1.6-0.2,3.7,0.8,4.4-1.6c-4-1.2-8-1-12,0c-1.3,1.6-0.9,3.5-0.9,5.3c-0.1,8.8,0,17.6,0,26.5
			c0,2.1,0.2,4.4-1.4,6.2c-2,0-4,0-6,0c-1.6-1.8-1.4-4-1.4-6.1c0-10.3,0-20.5,0-30.8c0-1.9-0.8-1.2-1.6-0.5
			c-1.2,10.3-0.2,20.5-0.5,30.8c-0.1,2.3,0.4,4.7-1.4,6.6c-4,0-8,0-12,0c0.5-3.5,5-4.8,4.6-8.7c0.1-7.5,0-15,0-22.5
			c-0.9-4.1-3.2-6.7-7.4-7.3c-2.4,0.2-5-0.9-7.2,1c-1.2,10.1-0.2,20.3-0.5,30.4c-0.1,2.5,0.5,5-1.4,7.2c-4.7,0-9.3,0-14,0
			c-1.6-1.8-1.4-4-1.4-6.2c-0.1-10.2,0.1-20.3-0.1-30.4c-0.1-0.4-0.2-0.8-0.4-1.1c-1-0.3-1.3,0.4-1.6,1.2
			c-0.6,6.3,0.6,12.6-0.7,18.8c-3.1,2.3-3.6-0.7-4.3-2.4c-1.8-4.5-3.8-8.9-5.6-13.3c-0.5-1.2-0.5-3.8-3.1-2.5
			c-1,8.1-0.2,16.1-0.4,24.1c-0.1,3.4,0.4,6.9-0.4,10.3c-0.3,0.5-0.6,1-1,1.5c-1,0-2,0-3,0c-2.2-1.1-2.5-3.4-3-5.5
			c-2-7.9-3.7-15.8-5.5-23.7c-0.3-1.3-0.5-2.6-0.9-3.9c-0.4-1.4-0.4-3.5-2.1-3.6c-1.9-0.1-1.9,2-2.2,3.4c-0.9,4-2.1,8-2.9,12.1
			c-1,5.2-2.6,10.3-3.4,15.6c-0.3,2.2-1.2,4.2-2.9,5.6c-2.7,0-5.3,0-8,0c0.5-3.5,5.1-4.7,4.7-8.7c0.1-1.7,0.1-3.3-0.1-4.9
			c-1.4-4.7-6.1-5.9-9.4-8.5c-3.9-3.2-5-6.5-2.9-10.4c1.1-2,2.7-3.5,5.1-3.3c2.4,0.2,3.7,1.8,4.6,4c0.5,1.3-0.6,3.7,2.2,3.5
			c0.8-1.1,0.5-2.3,0.4-3.5c-0.9-3.7-2.9-6.1-6.9-6.4c-4.4-0.3-7.2,1.7-8.5,5.8c-1.3,3.3-0.7,6.3,1.2,9.2c1.9,2.5,4.6,3.8,7.2,5.2
			c2.1,1.1,3.8,2.6,4.4,5.1c0.9,3.8-0.3,7.5-3.1,8.6c-3.6,1.3-5.6-0.8-7.2-3.6c-0.7-1.3-0.6-2.8-1.2-4.1c-0.3-0.4-0.8-0.5-1.3-0.5
			c-0.3,0.2-0.6,0.4-0.8,0.7c-0.4,1.3-0.1,2.6,0.3,3.8c0.2,0.6,0.4,1.3,0.7,1.9c0.5,2.9,4.2,3.3,4.6,6.3c-12,0-24-0.2-36,0.1
			c-4.3,0.1-5.9-0.9-5-5.1c5-2.2,10.2-0.2,14.3-1c-4.1-0.7-9.3,1.2-14.3-1c0-2.3,0-4.7,0-7c0.3-0.3,0.7-0.4,1.2-0.3
			c2.1,0.8,4,3,6.4,0.9c1.9-3.7,1.3-7.5,0.5-11.4c-2.3-1.8-4.6-0.7-6.8,0.1c-0.5,0.1-0.9,0-1.3-0.2c0-38,0-76,0-114
			c1.5-0.3,1.8,0.9,2.2,1.9c6,24.7,12.4,49.4,18.5,74.1c0.4,1.8,0.7,3.6,2.1,5c1.7,1,3.4,1,5.1-0.1c1.1-1.3,1.4-3,1.8-4.6
			c5.9-23.3,11.6-46.7,17.5-70c0.4-1.6,1-3.2,0.4-4.9c-2.1-1.9-4.4-1.4-6.6-0.3c-3.7,9.3-5.3,19.3-8,28.8c-1.8,6.4-3.2,12.9-5,19.4
			c-0.5,1.8-0.4,4.7-2.9,4.5c-2.3-0.1-2.5-2.8-3-4.7c-3.2-13.3-6.8-26.4-9.8-39.8c-0.6-2.9-0.7-6-3.2-8.2C7.3,98.5,3.6,100.3,1,98z"
			/>
		<path class="st1" d="M193.9,51.9c-0.7,12.5-4.2,24.1-10.2,35c-0.7,1.3-1.3,2.2-3,1.1c-4.2-2.6-8.6-5.1-12.9-7.6
			c-1.1-0.6-2-1.2-1.2-2.7c4.7-8.7,6.8-18.2,8.4-27.9c1.3-2.8,0.2-5.8,0.6-8.7c0.1-0.7,0.3,0.1,0-0.4c-0.2-0.5-0.2,0.4-0.6,0.4
			c-1.5-7-2.3-14.2-5-21c-1.2-3.3-5.4-6.4-3.2-9.7c1.8-2.7,6-3.8,9.1-5.8c1.8-1.1,4.1-1.4,5.2-3.6c0.7,0,1.3,0,2,0
			c3.8,9,8,17.8,9.7,27.6c0.1,0.8,0.1,1.6,0.2,2.5c-0.7,0.8-0.4,1.8-0.4,2.7c0,0.6,0.5,1,0.3,0.4c0-0.1,0.2-0.2,0.3-0.3
			c1.2,1.2,0.9,2.7,0.8,4.2C193.2,42.7,193.2,47.3,193.9,51.9z"/>
		<path class="st2" d="M213,108c0,0.3,0,0.7,0,1c-4.1,2.7-8.7,1.4-13,1.5c-10.3,0.2-9.5-0.3-9.4,9.5c0,4.4-0.8,8.9,0.7,13.3
			c1.8,2.2,4.3,1.1,6.6,1.4c5,0.6,10.3-1.3,15.1,1.4c0,2.7,0,5.3,0,8c-4.7,2.7-9.9,0.8-14.9,1.4c-2.3,0.3-5-0.9-6.9,1.4
			c-1.2,7.8-1.2,15.7,0.1,23.5c2,2.2,4.7,1,7.1,1.3c4.9,0.6,9.9-1.3,14.6,1.4c0,2.7,0,5.3,0,8c-11.4,0.8-22.7,0.7-34.1,0.1
			c-0.7-1.8-0.3-3.6-0.3-5.4c0-23.7,0-47.4,0-71.2c0-1.8-0.3-3.6,0.3-5.4c11.4-0.9,22.8-0.8,34.2,0c0,2.7,0,5.3,0,8
			c-7.9,1.2-15.8,0-22.2,0.5C197.2,107.9,205.1,106.9,213,108z"/>
		<path class="st3" d="M189,171.9c-0.5-8.9-0.5-17.7,0-26.6c8-1.4,16-0.9,23.9-0.3c0,9,0,18,0,27C205,172.7,197,173,189,171.9z"/>
		<path class="st3" d="M189,134.9c-0.1-7.8-0.1-15.6-0.3-23.4c0-2.2,0.7-2.9,2.9-2.8c7.1,0.2,14.3,0.3,21.4,0.4c0,8.7,0,17.3,0,26
			C205,135.8,197,135.9,189,134.9z"/>
		<path class="st4" d="M56,238c2.7-11.6,5.3-23.1,8-34.6c0.4-1.9,0-4.4,3.4-4.5c3.7-0.1,2.7,2.9,3.1,4.5c3,11.5,5.7,23.1,8.5,34.6
			c-2,0-4,0-6,0c-1.7-1.8-1.7-4.2-2.4-6.3c-0.5-1.6-1.2-3.1-3.2-3.1c-2,0-2.7,1.4-3.2,3.1c-0.7,2.3-0.6,5-3.1,6.4
			C59.3,238,57.7,238,56,238z"/>
		<path class="st2" d="M97,199c0.7-0.3,1.3-0.6,2-0.9c1.1,12.5,0.1,24.9,0.5,37.1c0.6-0.4-0.1-1.7-0.1-2.6c0.1-9.8,0-19.6,0.1-29.4
			c0-1.6-0.4-3.3,0.5-4.9c1.6,1.7,0.7,3.7,0.7,5.6c0.2,11.4,0.2,22.8,0.3,34.2c-1.7,0-3.3,0-5,0c-4.5-5.9-5.9-13.1-8.7-19.7
			c-0.2-0.6-0.6,0.4-0.1,0c0.2-0.1,0.3,0,0.4,0.3c0.8,6.5,1.9,13-0.6,19.4c-1.7,0-3.3,0-5,0c-0.1-0.2-0.2-0.4-0.2-0.6
			c0-0.1,0.1-0.2,0.1-0.3c1.4-3.9,0.4-7.8,0.6-11.8c0.4-8.7-0.5-17.5,0.5-26.2c2.7-0.7,3.6,0.8,4.6,3.1c2.7,6.3,4.3,13.1,8.2,18.8
			c1.7-4.5,0.3-9.1,0.7-13.6C96.8,204.6,96,201.8,97,199z"/>
		<path class="st4" d="M36.1,205c2-5.6,4.9-7.8,11.2-6.8c3.7,0.6,6.4,3.5,6.6,7.8c-0.5,1.7-0.8,3.3,0.1,5c-2.3,1.2-4.6,2.6-4.9-1.7
			c-0.2-2.7,0.1-5.6-3.5-6.2c-2.3-0.4-3.8,0.7-4.6,2.9c-1.2,3.3-0.9,6.3,2.1,8.4c1.8,1.3,3.8,2.3,5.7,3.5c2.4,1.5,4.8,2.9,5,6.1
			c-0.6,2-0.6,4,0,5.9c-0.1,4-3.2,5.9-5.9,8c-2,0-4,0-6,0c-2.2-1.8-5.2-2.7-5.8-6.1c0.8-2.5-1.4-5.4,0.8-7.8c0.7,0,1.3,0,2,0
			c1.2,1.4-0.5,3.5,1.2,4.8c1.1,2.3,2.3,4.6,5.4,3.8c2.1-0.5,3.3-2.1,3.4-4.3c0.1-2.8,0.3-5.4-3-6.9c-3.4-1.5-7.2-2.7-9-6.4
			C35.9,211.8,36.4,208.4,36.1,205z"/>
		<path class="st2" d="M194.1,206c1.5-6,4.2-8.5,9.7-8c4.6,0.4,7.9,2.6,8.3,7.8c0.8,7.3,0.1,14.7,0.4,22c0,7.4-0.8,8.4-7.5,10.2
			c-1.7,0-3.3,0-5,0c-2.7-2.1-5.8-4-5.8-8.1C194.7,222,194.8,214,194.1,206z"/>
		<path class="st2" d="M184.9,208.2c-1-2.5-1.3-5.8-5.4-5.1c-4,0.6-3.6,3.8-3.7,6.6c-0.1,5.5-0.1,11,0,16.5c0,2.8-0.3,6,3.5,6.7
			c4,0.8,4.5-2.4,5.5-5c1-3.3,1-3.3-1.5-5.2c-1.3-0.4-3.5,0.7-3.6-1.6c-0.1-2.1,1.9-1.8,3.4-1.9c4.8-0.4,5.7,0.5,5.8,5.5
			c0,1.8-0.3,3.6,0,5.4c-0.1,4.1-3.2,5.9-6,8c-2,0-4,0-6,0c-2.8-2-5.9-3.9-5.9-8c0.6-8,0.6-16,0-23.9c0.6-4.9,3.3-7.7,8.3-8.1
			c5.2-0.4,8.2,2.2,9.5,7c-1.2,1.6,1.6,4.9-2.2,5.5c-1.3-0.2-1.1-1.3-1.2-2.1c-0.1-0.7-0.4-1-0.2-0.3
			C185.3,208,185,208.1,184.9,208.2z"/>
		<path class="st2" d="M125,198.2c4.4,0.2,6.5,3.2,7.8,6.9c-0.5,8.6-0.5,17.3,0,25.9c-0.4,3.6-3.3,5.1-5.8,7.1c-3.3,0-6.7,0-10,0
			c-0.7-0.8-1-1.7-1-2.7c0.1-11.9-0.4-23.7,0.3-35.6C118.8,197.1,122.2,199.5,125,198.2z"/>
		<path class="st2" d="M156,220.2c-0.3,0.3-0.6,0.6-0.9,0.8c-1.1,3.6-1.1,7.2-0.1,10.7c0.3,0.4,0.6,0.8,0.9,1.2
			c3.5,1.4,7.3-0.3,10.8,1c0.1,1.3,0.1,2.7,0.2,4c-5,0-10,0-15,0c-0.3-0.4-0.7-0.8-0.7-1.3c-0.3-12.5-0.9-25.1,0.3-37.6
			c5.1-1.1,10.1-0.9,15.2-0.2c0.8,3.1-0.2,4.5-3.6,4.1c-2.6-0.3-5.2,0-7.8,0c-1.7,3.9-1.4,7.9-0.2,11.9c3.8,1.1,7.8-0.6,11.5,1.1
			c-2.9,1-5.9,0.3-8.8,0.5c2.1,0,4.3,0,6.4,0c1.7,0.1,2.5,0.8,1.8,2.6C162.9,220.4,159.2,218.4,156,220.2z"/>
		<path class="st5" d="M87,238c0-7.1,0-14.3,0-21.4c3.5,6.9,6.8,13.9,9,21.4C93,238,90,238,87,238z"/>
		<path class="st6" d="M61,238c0.6-2.2,1.4-4.4,1.8-6.6c0.4-2.6,0.7-4.5,4.3-4.6c3.7-0.2,4.3,1.8,4.8,4.5c0.4,2.2,0.8,4.5,1.1,6.7
			C69,238,65,238,61,238z"/>
		<path class="st7" d="M152,199c0,13,0,26,0,39c-0.7,0-1.3,0-2,0c0.9-12,0.1-24.1,0.5-36.1c0-1.3-1.4-3.5,1.5-3.7
			c0.3,0.2,0.5,0.4,0.3,0.6C152.2,198.9,152.1,199,152,199z"/>
		<path class="st8" d="M139,238c0.1-12,0.1-24.1,0.3-36.1c0-0.7-2-3.9,1.7-2.8c1.5,1.4,1.4,3.3,1.4,5.1c0.1,9.6,0,19.1,0,28.7
			c0,1.8,0,3.6-1.4,5.1C140.3,238,139.7,238,139,238z"/>
		<path class="st2" d="M141,238c0-13,0-25.9,0-38.9c0.7,0.2,1.1-1.9,2-0.3c0.7,13,0.8,26.1,0,39.1C142.3,238,141.7,238,141,238z"/>
		<path class="st8" d="M117,199c0,13,0,26,0,39c-0.7,0-1.3,0-2,0c0.1-11.8,0.1-23.5,0.3-35.3c0-1.5-1-3.3,0.8-4.5
			C116.5,198.3,116.8,198.6,117,199z"/>
		<path class="st9" d="M1,231c7.2,0,14.4,0,21.6,0c0,0.5,0,0.9,0,1.4c-7.1,1.1-14.4,0-21.6,0.6C1,232.3,1,231.7,1,231z"/>
		<path class="st10" d="M143,238c0-13,0-26.1,0-39.1c1.3,0.4,1.2,1.4,1.2,2.4c-0.1,12.2-0.1,24.5-0.2,36.7
			C143.7,238,143.3,238,143,238z"/>
		<path class="st10" d="M179,181c11.3,0,22.7,0,34,0c0,0.3,0,0.7,0,1c-11.3,0.4-22.7,0.4-34,0c-0.3-0.2-0.3-0.5-0.3-0.7
			C178.8,181.1,178.9,181,179,181z"/>
		<path class="st11" d="M213,99c-11.3,0-22.7,0-34,0c-0.3-0.2-0.4-0.4-0.3-0.6c0.1-0.2,0.2-0.3,0.3-0.3c11.3,0,22.7-0.1,34-0.1
			C213,98.3,213,98.7,213,99z"/>
		<path class="st12" d="M205,238c3.8-1.7,7-4,7.2-8.7c0-0.7,0.3-0.8,0.8-0.3c0,0.3,0,0.7,0,1C213,238,213,238,205,238z"/>
		<path class="st10" d="M189,171.9c8,0,16,0.1,24,0.1c0,0.3,0,0.7,0,1c-6.5,0-12.9,0-19.4,0C192,173,190.2,173.6,189,171.9z"/>
		<path class="st13" d="M213,145c-8,0.7-16,0.3-23.9,0.3c1.1-1.9,2.9-1.2,4.5-1.2c6.5-0.1,13,0,19.4,0C213,144.3,213,144.7,213,145z
			"/>
		<path class="st11" d="M189,134.9c8,0,16,0.1,24,0.1c0,0.3,0,0.7,0,1c-6.5,0-12.9,0-19.4,0C192,136,190.2,136.6,189,134.9z"/>
		<path class="st7" d="M213,108c-7.6,0-15.2,0-22.8,0c0-0.3,0-0.7,0-1c7.6,0,15.2,0,22.8,0C213,107.3,213,107.7,213,108z"/>
		<path class="st14" d="M213,229l-0.3,0.3c0,0-0.5,0-0.5,0c0-7.9,0-15.7-0.1-23.6c0.3,0,0.6,0.1,0.9,0.2
			C213,213.7,213,221.3,213,229z"/>
		<path class="st15" d="M1,98c3.4,0.3,7-1.4,10.3,0.9c-2.8,2.1-6.1,1.7-9.2,2.1c-0.4-0.7-0.7-1.3-1.1-2C1,98.7,1,98.3,1,98z"/>
		<path class="st16" d="M2.2,224c-0.4,0-0.8,0-1.2,0c0-3.7,0-7.3,0-11c0.3,0,0.6,0,1,0c0.2,0.2,0.4,0.3,0.6,0.5
			c1.3,2.8,0.4,5.9,1,8.8c0.1,0.5,0,1-0.2,1.5C3,224.2,2.6,224.3,2.2,224z"/>
		<path class="st2" d="M71,181.8c-9.8-1.6-14.9-8-15.9-19.9c0.6-14.6,0.6-29.3,0-43.9c1-11.9,5.6-17.7,15.9-19.9
			c2.6,0.6,5.3,0.6,7.9,0c9.8,1.7,16.4,11.2,15.9,21.9c-0.6,13.3-0.6,26.6,0,39.9c0.1,11.1-5.4,21-16.9,21.9
			C75.7,181.2,73.4,181.3,71,181.8z"/>
		<path class="st2" d="M2.1,101c2.5-3.4,6.1-1.4,9.2-2.1c2.1,0.4,1.6,2.3,1.9,3.6c4,15.9,7.9,31.9,11.9,47.8
			c0.2,0.8,0.5,1.5,1.2,3.5c3.7-14.9,7.1-28.5,10.7-42.1c1.2-4.5,1.5-9.4,4-13.5c3,1,6.2-0.3,9.2,0.8c1.3,3-0.5,5.6-1.2,8.3
			c-6,24.4-12.1,48.7-18.1,73c-0.2,0.7-0.3,1.3-1,1.5c-2.3-0.3-4.6-0.7-6.9,0.2c-1.8-0.3-1.6-1.9-1.9-3c-6.4-25.6-12.7-51.3-19-77
			C2,101.7,2.1,101.3,2.1,101z"/>
		<path class="st2" d="M145,181.9c-10.1-1.7-15.5-8.7-15.9-20.9c0.5-13.6,0.6-27.3,0-40.9c0-12.6,6.1-20.6,16.9-21.9
			c2,0.6,3.9,0.6,5.9,0c9.8,1.2,15.7,7.8,16.8,19.5c0.3,3.1,1.3,6.4-0.8,9.3c-3-0.8-6-0.7-9,0c-2.1-2.6-0.7-5.6-1-8.4
			c-0.7-6.7-3.3-9.7-8.9-9.8c-6-0.1-9,2.8-9.1,9.9c-0.2,14.3-0.1,28.6,0,43c0,5,1.9,8.9,7.2,10.4c1.2,0.9,2.5,1,3.7,0
			c5.1-1.6,6.7-5.6,7.2-10.5c0.3-2.7-1.2-5.7,1-8.3c3,0.6,6,0.7,8.9,0c3.3,10.1-1.3,27.2-15,28.8C150.3,181.2,147.7,181.2,145,181.9
			z"/>
		<path class="st1" d="M39.1,51.9c1.8,8.7,3.7,17.4,8.1,25.4c1,1.8-0.4,2.3-1.5,2.9c-3.7,2.1-7.5,4.2-11.2,6.5
			c-2.5,1.6-4,1.4-5.3-1.5c-4.6-9.6-7.9-19.7-8.9-30.3c0.6-6.3,0.6-12.6,0-18.9c1.1-11.2,4.3-21.8,9.6-31.7C30.9,2.3,32,1.7,34,3
			c0.4,0.3,0.9,0.5,1.3,0.7c3.9,2.3,9,3.7,11.3,7.1c2.7,4-2.9,7.7-3.7,11.9c-1,5.2-2.5,10.2-3.8,15.4C38.1,42.7,38.1,47.3,39.1,51.9
			z"/>
		<path class="st17" d="M154.9,48c0.1,6.6-1.9,12.7-4.7,18.6c-1,2.2-2.2,2.8-4.2,1.3c-0.5-0.4-1.2-0.6-1.7-1
			c-3.7-2.2-9.2-3.7-10.5-6.9c-1.2-3.1,1.9-7.9,3.2-12c0.9-1.7,0.9-3.3,0-5c-1.1-3.6-1.4-7.5-3.4-10.9c-1.1-1.9,0.3-2.9,1.4-3.7
			c2-1.4,4.3-2.5,6.4-3.8c7.8-4.5,7.8-4.5,10.9,4.3c1.5,4.2,2.8,8.5,2.6,13.1C154.3,44,154.3,46,154.9,48z"/>
		<path class="st2" d="M107.1,181c0-27.3,0-54.7,0-82c3.1-0.6,6.2-1,9.3,0.3c0.7,1.2,0.5,2.6,0.6,3.9c0,24.5,0,49.1,0,73.6
			c0,1.3,0.1,2.7-0.5,3.9C113.4,182.1,110.3,181.6,107.1,181z"/>
		<path class="st17" d="M77,49c1,3,1.8,6,3,8.9c0.7,1.7,0.1,2.4-1.2,3.1c-3.9,2.2-7.8,4.3-11.6,6.7c-1.9,1.2-2.8,0.9-3.7-1.1
			c-2.3-5-4.1-10.1-4.4-15.6c0.5-3.6,0.6-7.3,0-10.9c0.2-5.9,2.2-11.3,4.7-16.6c1-2.1,2-2.3,3.8-1.1c1.1,0.8,2.3,1.4,3.4,2.1
			c9.8,5.6,9.8,5.6,6.1,16.6C76.1,43.6,76.2,46.3,77,49z"/>
		<path class="st18" d="M106.7,56.1c-6.2,0-10.9-4.8-10.9-11.1c0-6.2,5-11.1,11.1-10.9c5.8,0.1,10.8,5.2,10.8,11
			C117.8,51.2,112.9,56.1,106.7,56.1z"/>
		<path class="st8" d="M116,181c0-27.3,0-54.7,0-82c-0.3-0.2-0.5-0.4-0.4-0.6c0.1-0.2,0.2-0.3,0.3-0.3c1.8-0.3,1.8,0.8,1.8,2
			c0,26.9,0,53.8-0.1,80.7c0,0.4-0.5,0.7-0.8,1.1C116.6,181.7,116.2,181.4,116,181z"/>
		<path class="st19" d="M179,98.1c0,0.3,0,0.6,0,0.9c0,27.3,0,54.6,0,82c0,0.3,0,0.7,0,1c-1.9-0.7-1-2.3-1-3.4
			c-0.1-25.7-0.1-51.4,0-77.2C178,100.4,177.1,98.7,179,98.1z"/>
		<path class="st13" d="M55.2,118c1,0.9,0.8,2.1,0.8,3.3c0,12.5,0,24.9,0,37.4c0,1.2,0.1,2.4-0.8,3.3
			C55.2,147.3,55.2,132.7,55.2,118z"/>
		<path class="st20" d="M189,230c-1.5-1.3-1-3-1-4.6c-0.1-5.9-1-6.5-7.5-4.5c0.9,2.1,3.6,0.2,4.4,2.1c0.5,0.5,0.4,0.9-0.2,1.3
			c-1.1-0.8-2.3-1.1-3.6-1c-4,0.3-3.8-1.8-2.5-4.5c3.5-0.5,7-0.7,10.4,0.1C190.2,222.7,190.1,226.3,189,230z"/>
		<path class="st10" d="M129.1,120c1.3,1.2,0.8,2.8,0.8,4.2c0,10.8,0,21.6,0,32.4c0,1.5,0.4,3-0.8,4.3
			C129.2,147.3,129.2,133.7,129.1,120z"/>
		<path class="st7" d="M94.8,160c-1.3-1.4-0.8-3.2-0.8-4.8c0-10.1,0-20.3,0-30.4c0-1.6-0.5-3.4,0.8-4.8
			C94.8,133.4,94.8,146.7,94.8,160z"/>
		<path class="st8" d="M100,198.2c0,12.6,0,25.1,0,37.7c-0.3,0-0.7,0-1,0c0-12.6,0-25.2,0-37.8C99.3,198.2,99.7,198.2,100,198.2z"/>
		<path class="st13" d="M83,199c0,11,0,21.9,0,32.9c0,1.7,0.7,3.7-1.1,5.1c-0.1-12-0.2-23.9-0.2-35.9C81.7,200.2,81.4,199,83,199z"
			/>
		<path class="st21" d="M19.1,207c-0.8,1.8-2.5,3.9,1.2,4.6c0.3,0.1,0.6,0.5,0.8,0.8c-4.9,3.3-1.2,8.3-2.4,12.3
			c-0.1,0.4-0.5,0.8-0.7,1.1c-0.9-3.1-0.2-6.2-0.4-9.3c-0.1-1.6,0.4-3.4-1.4-4.5c1.1-1.9-0.3-4.5,1.8-6.1
			C18.6,206.1,18.9,206.4,19.1,207z"/>
		<path class="st10" d="M132.8,230.9c-1.2-8.6-1.3-17.3,0-25.9C133.5,213.7,133.6,222.3,132.8,230.9z"/>
		<path class="st11" d="M194.1,206c1.4,8,1.4,15.9,0,23.9C193.7,222,193.7,214,194.1,206z"/>
		<path class="st10" d="M171.1,206c1.5,8,1.4,16,0,23.9C170.6,222,170.6,214,171.1,206z"/>
		<path class="st13" d="M97,199c0,5.8,0,11.6,0,17.4c0,1.6,0.6,3.4-1.2,4.5c0-6.1-0.1-12.2,0-18.3C95.8,201.4,94.7,199.6,97,199z"/>
		<path class="st22" d="M20.1,36.1c1.5,6.3,1.4,12.6,0,18.9C20.1,48.6,20.1,42.4,20.1,36.1z"/>
		<path class="st23" d="M9.9,212.3c2.6,4.3,2.2,10.6-0.9,13.6c-0.7-0.2-1.3-0.6-1.3-1.4c1.4-3.5,1.2-7.1,0.9-10.8
			C8.7,212.9,9.1,212.4,9.9,212.3z"/>
		<path class="st20" d="M186,210c3.3-0.3,1-3.9,2.9-5c0.7,2.1,1.7,4.5,0.2,6.4c-0.7,0.9-2.9,1.3-4.1-0.4
			C185.4,210.7,185.4,210,186,210z"/>
		<path class="st22" d="M39.1,51.9c0,0.2,0,0.3-0.1,0.5c-0.2,0.5-0.9,0.8-0.9,0.3c0-4.9,0.1-9.7,0.2-14.6c0-0.1,0.2-0.2,0.4-0.2
			c0.2,0,0.3,0.1,0.4,0.2C39.1,42.7,39.1,47.3,39.1,51.9z"/>
		<path class="st24" d="M152,199c0-0.3,0-0.6,0-0.8c5,0.2,10-1.4,14.8,0.8C161.9,199,157,199,152,199z"/>
		<path class="st25" d="M16.2,212c2.7,0.7,1.6,2.9,1.7,4.5c0.2,3.1,0.1,6.2,0.1,9.3c-2.1-1.9-0.7-4.4-1-6.7
			C16.6,216.8,17.4,214.3,16.2,212z"/>
		<path class="st26" d="M36.1,205c1.8,3.3,0.5,6.8,0.8,10.1C34.8,211.9,34.8,208.5,36.1,205z"/>
		<path class="st22" d="M193.9,51.9c-1.4-4.6-1.4-9.2,0-13.9C193.9,42.7,193.9,47.3,193.9,51.9z"/>
		<path class="st27" d="M174.9,41.1c0.1-0.6,0.1-1.3,0.2-1.9c0.3,0,0.6,0,0.8,0c0,3.8,0,7.7,0,11.5c0,0.1-0.2,0.2-0.4,0.2
			c-0.2-0.4-0.4-0.7-0.7-1.1C174.9,47,174.9,44,174.9,41.1z"/>
		<path class="st28" d="M166,219c-0.3-2.4-2.2-1.9-3.8-2c-1.7-0.2-3.5,0.5-6.2-1c4.3,0,7.5,0,10.7,0c0,1,0.1,2,0.1,3
			C166.6,219.4,166.3,219.4,166,219z"/>
		<path class="st13" d="M155.3,214.9c-1.9-4-2.3-8,0.2-11.9C155.4,207,155.3,211,155.3,214.9z"/>
		<path class="st13" d="M155.1,231.8c-1.8-3.6-1.9-7.2,0.1-10.7C155.2,224.6,155.2,228.2,155.1,231.8z"/>
		<path class="st29" d="M9.9,212.3c-0.1,0.3-0.3,0.5-0.6,0.7c-1.8,1.3-3.9,0.5-5.8,0.8c-0.5-0.1-0.8-0.4-1.2-0.7L2,213
			C4.4,209.9,7,209.4,9.9,212.3z"/>
		<path class="st30" d="M8,225c0.3,0.3,0.7,0.6,1,0.9c-2.8,1.1-5.3,1.6-6.8-1.9c0.3,0,0.7-0.1,1-0.1C5,223.4,6.6,223.7,8,225z"/>
		<path class="st31" d="M166,219c0.3,0,0.6,0,0.8,0c-3.3,2.8-7.2,0.7-10.8,1.2C159.1,217.7,162.7,219.6,166,219z"/>
		<path class="st10" d="M166.8,234c-3.6-0.5-7.4,1.1-10.8-1C159.6,233.4,163.4,231.8,166.8,234z"/>
		<path class="st32" d="M59.1,40c1.4,3.6,1.4,7.3,0,10.9C58.7,47.3,58.6,43.7,59.1,40z"/>
		<path class="st2" d="M189.1,219c-3.5,0-7-0.1-10.4-0.1C182.1,218,185.6,217.7,189.1,219z"/>
		<path class="st10" d="M116,181c0.3,0.3,0.7,0.6,1,0.9c-3.3,0.1-6.7,1.5-9.8-0.9C110.1,181,113,181,116,181z"/>
		<path class="st33" d="M50.3,98.9c-3.1-0.3-6.3,1-9.2-0.8C44.2,98,47.4,96.8,50.3,98.9z"/>
		<path class="st34" d="M116,98.1c0,0.3,0,0.6,0,0.9c-3,0-5.9,0-8.9,0C109.9,96.8,113,98.3,116,98.1z"/>
		<path class="st10" d="M159,126.9c3-1.5,6-1.5,9,0C165,127,162,126.9,159,126.9z"/>
		<path class="st35" d="M168,153.1c-3,1.4-5.9,1.4-8.9,0C162,153.1,165,153.1,168,153.1z"/>
		<path class="st36" d="M117,199c-0.3-0.3-0.6-0.5-1-0.8c3,0,5.9,0,8.9-0.1C122.5,199.9,119.6,198.6,117,199z"/>
		<path class="st37" d="M37,224.1c-0.4,2.6,0.8,5.3-0.8,7.8c-0.1-0.6-0.2-1.2-0.3-1.8c-0.7-2-0.8-3.9,0.1-5.8
			C36.3,224.2,36.7,224.2,37,224.1z"/>
		<path class="st10" d="M145,181.9c2.6-1.4,5.3-1.4,7.9,0C150.3,182.4,147.7,182.4,145,181.9z"/>
		<path class="st32" d="M77,49c-1.5-2.7-1.6-5.3,0.1-8C77,43.7,77,46.3,77,49z"/>
		<path class="st30" d="M79,98.2c-2.6,1.3-5.3,1.3-7.9,0C73.7,97.7,76.3,97.7,79,98.2z"/>
		<path class="st10" d="M23,182c2.3-1.5,4.6-1.3,6.9-0.2C27.6,182.5,25.3,182.2,23,182z"/>
		<path class="st10" d="M71,181.8c2.3-1.3,4.6-1.3,6.9,0C75.7,182.3,73.3,182.3,71,181.8z"/>
		<path class="st38" d="M53.9,230c-1.4-2-1.3-3.9,0-5.9C54.4,226,54.3,228,53.9,230z"/>
		<path class="st4" d="M36,224.3c0,1.9,0,3.9-0.1,5.8C35.2,228.1,34.4,226.2,36,224.3z"/>
		<path class="st32" d="M154.9,48c-1.4-2-1.4-3.9,0-5.9C154.9,44,154.9,46,154.9,48z"/>
		<path class="st39" d="M184.8,224.3c0.1-0.4,0.1-0.9,0.2-1.3c1,1.6,2.2,3.3-0.1,4.8C184.9,226.6,184.8,225.5,184.8,224.3z"/>
		<path class="st40" d="M152,98.1c-2,1.3-3.9,1.3-5.9,0C148,98.1,150,98.1,152,98.1z"/>
		<path class="st31" d="M150.8,171.9c-1.2,1.8-2.4,1.6-3.7,0C148.4,171.9,149.6,171.9,150.8,171.9z"/>
		<path class="st22" d="M193.1,33.9c-0.1,0.3-0.1,0.7-0.2,0.9c-0.4,0.5-0.8,0.2-0.8-0.3c0-1.2-0.3-2.5,0.9-3.4
			C193,32,193,32.9,193.1,33.9z"/>
		<path class="st32" d="M137,43c1.5,1.7,1.5,3.4,0,5C137,46.3,137,44.7,137,43z"/>
		<path class="st41" d="M40.2,228.9c-2-1.2-0.9-3.2-1.2-4.8C41.4,225.2,39.8,227.4,40.2,228.9z"/>
		<path class="st19" d="M19.1,207c-0.4-0.4-0.7-0.7-1.1-1.1c0.8-0.8,2-1.8,2.8-0.7C21.3,206.1,19.8,206.6,19.1,207z"/>
		<path class="st38" d="M54,211c-1.5-1.6-1.4-3.3-0.1-5C53.9,207.7,54,209.3,54,211z"/>
		<path class="st13" d="M186,210c-0.3,0.3-0.7,0.7-1,1c0-0.9-0.1-1.9-0.1-2.8c0.2-0.4,0.4-0.8,0.6-1.2
			C186.5,207.9,185.8,209,186,210z"/>
		<path class="st8" d="M187.2,170.7c0-8.2,0-16.5,0-24.7c0.2,0,0.3,0,0.5,0c0,8.2,0,16.5,0,24.7
			C187.6,170.7,187.4,170.7,187.2,170.7z"/>
		<path class="st8" d="M187.2,133.8c0-8.2,0-16.5,0-24.7c0.2,0,0.3,0,0.5,0c0,8.2,0,16.4,0,24.6
			C187.5,133.7,187.4,133.8,187.2,133.8z"/>
		<path class="st42" d="M67.8,213.4c0.5,2.2,1.1,4.4,1.3,6.7c0.2,1.8-1.1,2.8-2.7,2.6c-1.7-0.1-1.4-1.6-1.1-2.7
			c0.5-2.2,1.1-4.4,1.7-6.6C67.2,213.5,67.5,213.5,67.8,213.4z"/>
		<ellipse class="st7" cx="85.5" cy="225.5" rx="0.3" ry="14.7"/>
		<path class="st43" d="M207.9,228.8c-0.6,1.2-1.3,2.4-1.9,3.5c-1.5,1.5-3.2,1.7-4.9,0.4c-1.7-1.6-2.2-3.5-2.1-5.8
			c0.1-6,0-11.9,0-17.9c0-2.5,0.1-5.1,3.2-5.9c3.4-0.8,4.7,1.5,5.7,4C208.8,214.4,208.9,221.6,207.9,228.8z"/>
		<path class="st10" d="M207.9,228.8c0-7.2,0-14.4,0-21.6c0.5-0.4,1-0.2,1,0.3c0,7,0,14.1,0,21.1c0,0.1-0.2,0.3-0.2,0.3
			C208.4,228.9,208.1,228.8,207.9,228.8z"/>
		<path class="st44" d="M197.3,225.7c0-5.5,0-11.1,0-16.6c0.2,0,0.3,0,0.5,0c0,5.6,0,11.2,0,16.7
			C197.6,225.8,197.4,225.7,197.3,225.7z"/>
		<path class="st10" d="M201.1,232.7c1.7,0.3,3.3,0.3,4.9-0.4C204.5,235,202.9,234.6,201.1,232.7z"/>
		<path class="st45" d="M174.2,227.7c0-6.6,0-13.1,0-19.7c0.2,0,0.3,0,0.5,0c0,6.6,0,13.1,0,19.7
			C174.6,227.7,174.4,227.7,174.2,227.7z"/>
		<path class="st46" d="M120.4,203.1c7.1-0.1,7.7,0.5,7.8,7.4c0,5.3,0,10.6,0,15.9c0,2.4-0.4,4.6-2.2,6.3c-2,1.3-3.9,1.3-5.9,0
			l0,0.3l0.3,0c-1.6-1.3-0.8-3.1-0.8-4.6c-0.1-7.1-0.1-14.1,0-21.2C119.6,205.8,118.8,204.2,120.4,203.1z"/>
		<path class="st10" d="M120.4,203.1c0,9.9,0,19.9,0,29.8c-0.4-0.3-1-0.6-1-1c-0.5-9.3-0.5-18.6,0-27.9
			C119.3,203.7,120,203.4,120.4,203.1z"/>
		<path class="st44" d="M129.3,227.7c0-6.6,0-13.1,0-19.7c0.2,0,0.3,0,0.5,0c0,6.6,0,13.2,0,19.7
			C129.6,227.8,129.4,227.8,129.3,227.7z"/>
		<path class="st15" d="M120.1,232.7c2,0,3.9,0,5.9,0C124,234.7,122,234.7,120.1,232.7z"/>
		<path class="st47" d="M8,225c-1.7,0.1-3.3-0.1-4.8-1.1c-0.1-0.3-0.2-0.6-0.4-1c-0.1-3.3-1.3-6.6,0.6-9.7c1.9-1.5,3.9-1.1,5.9-0.2
			C9.6,217,11.3,221.3,8,225z"/>
		<path class="st20" d="M3.5,213.2c-0.2,3.2-0.4,6.5-0.6,9.7c-1.6-3.2-0.8-6.6-0.4-9.9C2.7,213.1,3.1,213.1,3.5,213.2z"/>
		<path class="st3" d="M74.2,171.9c-6.7-2-8.2-3.6-8.3-10.8c-0.2-14.1-0.2-28.3,0-42.4c0.1-7.1,3.2-10,9.1-10c6,0,9,3.3,9,10.6
			c0.1,13.8,0.1,27.6,0,41.4c-0.1,6.9-1.9,9.2-8.3,11.1C75.2,172.6,74.7,172.6,74.2,171.9z"/>
		<path class="st7" d="M64.2,159.8c0-13.2,0-26.5,0-39.7c0.2,0,0.3,0,0.5,0c0,13.2,0,26.4,0,39.6C64.5,159.7,64.4,159.8,64.2,159.8z
			"/>
		<path class="st44" d="M85.9,121.3c0,12.4,0,24.9,0,37.3c-0.2,0-0.3,0-0.5,0c0-12.5,0-25,0-37.5C85.5,121.2,85.7,121.3,85.9,121.3z
			"/>
		<path class="st39" d="M74.2,171.9c0.5,0,1,0,1.5,0c0.4,0.2,0.8,0.4,1.2,0.6c-1.3,0.9-2.6,0.9-3.9,0
			C73.4,172.3,73.8,172.1,74.2,171.9z"/>
		<path class="st8" d="M138.8,119.3c0,13.8,0,27.6,0,41.3c-0.2,0-0.3,0-0.5,0c0-13.8,0-27.7,0-41.5
			C138.5,119.2,138.7,119.3,138.8,119.3z"/>
	</g>
</g>
</svg>
