<?xml version="1.0" encoding="utf-8"?>
<!-- Generator: Adobe Illustrator 22.0.1, SVG Export Plug-In . SVG Version: 6.00 Build 0)  -->
<svg version="1.1" id="Layer_1" xmlns="http://www.w3.org/2000/svg" xmlns:xlink="http://www.w3.org/1999/xlink" x="0px" y="0px"
	 viewBox="0 0 149 142" style="enable-background:new 0 0 149 142;" xml:space="preserve">
<style type="text/css">
	.st0{fill:#FEFEFE;}
	.st1{fill:#FDCB98;}
	.st2{fill:#424D3D;}
	.st3{fill:#FDFDFD;}
	.st4{fill:#434E3E;}
	.st5{fill:#F2F3F2;}
	.st6{fill:#FCFDFC;}
	.st7{fill:#394533;}
	.st8{fill:#3C4837;}
	.st9{fill:#5D6559;}
	.st10{fill:#33402D;}
	.st11{fill:#303E2A;}
	.st12{fill:#EAEBEA;}
	.st13{fill:#364330;}
	.st14{fill:#5E665A;}
	.st15{fill:#34412E;}
	.st16{fill:#686F64;}
	.st17{fill:#F58026;}
	.st18{fill:#0178AD;}
	.st19{fill:#2C3924;}
	.st20{fill:#3B4736;}
	.st21{fill:#4F594B;}
	.st22{fill:#FCC892;}
	.st23{fill:#384532;}
	.st24{fill:#2B3924;}
	.st25{fill:#25351F;}
	.st26{fill:#3A4634;}
	.st27{fill:#FCCB98;}
	.st28{fill:#394534;}
	.st29{fill:#3A4734;}
	.st30{fill:#2E3C28;}
	.st31{fill:#35422F;}
	.st32{fill:#F47600;}
	.st33{fill:#303D2A;}
	.st34{fill:#2F3D29;}
	.st35{fill:#2D3A25;}
	.st36{fill:#2B3823;}
	.st37{fill:#364230;}
	.st38{fill:#323F2C;}
	.st39{fill:#374431;}
	.st40{fill:#2D3A26;}
	.st41{fill:#33412D;}
	.st42{fill:#E5E6E4;}
	.st43{fill:#F9F9F9;}
	.st44{fill:#3E4A39;}
	.st45{fill:#3F4B3A;}
	.st46{fill:#F7F8F7;}
	.st47{fill:#F4F5F4;}
	.st48{fill:none;}
</style>
<g>
	<g>
		<path class="st0" d="M18.5,57.5c0-16.7,0-33.3-0.1-50c0-1.8,0.5-2,2.1-2c31.5,0,62.9,0,94.4,0c0.1,1.8-1.5,2-2.6,2.6
			c-4.5,2.7-4.6,2.7-2.7,7.5c1.5,3.7,2.1,7.7,2.6,11.6c0.2,1.4,0.2,2.8,0,4.2c-0.6,4.9-1.6,9.6-3.8,14.1c-0.6,1.1-0.3,2.1,0.9,2.7
			c0.5,0.3,0.9,0.5,1.4,0.8c5,2.8,5.1,2.8,7.3-2.6c1.8-4.5,2.9-9.1,3.1-14c0-2.2,0-4.4,0-6.6c0-0.8,0-1.7-0.3-2.5
			c-0.1-0.5-0.2-1.1-0.3-1.7c-0.6-4.4-2.1-8.6-3.9-12.7c-0.5-1.1-1.5-2.1-0.7-3.4c4.8,0,9.6,0.1,14.5,0c1.3,0,1.6,0.3,1.6,1.6
			c-0.1,16.8,0,33.6,0,50.4c-1,0.9-2.1,0.7-3.3,0.7c-3.7,0-7.4,0-11.2,0c-1,0-2-0.2-2.8,0.5c-0.9,0.8-0.7,1.8-0.7,2.7
			c0,12.4,0,24.8,0,37.2c0,1-0.1,2,0.8,2.7c2.3,0.9,4.7,0.3,7.1,0.4c2.5,0.1,4.9,0,7.4,0c1,0,2,0,2.7,0.7c0,4.3,0,8.6,0,12.9
			c-0.2,0.2-0.5,0.2-0.7,0c-0.2-0.3-0.4-0.6-0.6-0.9c-0.9-2-2.4-3.1-4.6-2.6c-2.2,0.5-3.5,1.9-3.6,4.3c0,3.7,0,7.5,0,11.2
			c-0.4,2.3,2.1,3.2,2.5,5.1c-3,0-6.1,0-9.1,0c0.5-1.7,2.6-2.5,2.7-4.6c0.4-1.7,0.7-3.3,0-5c-1.4-0.7-2.7-0.6-4.1-0.1
			c-0.5,0.8,0.2,0.9,0.7,1c1,0.2,1.9,0.5,2.3,1.5c0.2,0.7,0.2,1.4,0,2.2c-0.6,1.7-1.5,3.2-3.6,2.8c-2.1-0.4-2.3-2.2-2.3-4
			c0-3.2-0.1-6.4,0-9.6c0-1.8,0.7-3.2,2.6-3.4c1.9-0.3,2.8,0.8,3.2,2.5c0.2,0.5,0.3,1,0.5,1.5c0.6,0.7,1,0.6,1.1-0.3
			c0.1-0.7-0.3-1.3-0.4-2c-1.4-2.7-2.6-3.6-4.8-3.1c-2.3,0.5-3.3,2.1-3.4,4.4c0,3.7,0,7.5,0,11.2c-0.4,2.3,2.1,3.2,2.5,5.1
			c-1.8,0-3.6,0-5.4,0c-0.5-0.4-0.7-1-1-1.5c-1.5-1-3.4,0-4.9-0.9c-0.4-0.2-0.7-0.6-0.9-1c-0.5-1.8-0.4-3.7,0-5.5
			c0.2-0.4,0.5-0.7,0.8-1c1.5-0.8,3.3-0.2,4.9-0.7c0.4-0.4,0.3-0.7-0.2-1c-1.8-0.5-3.8,0.6-5.4-1c-0.6-2-0.5-3.9-0.1-5.9
			c0.7-1.2,2-0.9,3.1-1.1c0.8-0.1,2,0.5,2.4-0.9c-2.2-0.6-4.3-0.5-6.4,0c-0.7,0.9-0.5,1.9-0.5,2.8c0,4.7,0,9.5,0,14.2
			c0,1.1,0.1,2.3-0.7,3.3c-1.1,0-2.1,0-3.2,0c-0.9-1-0.7-2.1-0.7-3.3c0-5.5,0-11,0-16.5c0-1-0.4-0.7-0.9-0.3
			c-0.6,5.5-0.1,11-0.3,16.5c0,1.2,0.2,2.5-0.7,3.6c-2.1,0-4.3,0-6.4,0c0.3-1.9,2.7-2.6,2.5-4.7c0-4,0-8.1,0-12.1
			c-0.5-2.2-1.7-3.6-4-3.9c-1.3,0.1-2.7-0.5-3.9,0.6c-0.6,5.4-0.1,10.9-0.3,16.3c0,1.3,0.3,2.7-0.7,3.8c-2.5,0-5,0-7.5,0
			c-0.9-1-0.7-2.2-0.7-3.3c0-5.4,0-10.9,0-16.3c0-0.2-0.1-0.4-0.2-0.6c-0.5-0.2-0.7,0.2-0.9,0.6c-0.3,3.4,0.3,6.7-0.4,10.1
			c-1.7,1.2-1.9-0.4-2.3-1.3c-1-2.4-2-4.8-3-7.1c-0.3-0.7-0.2-2-1.7-1.3c-0.5,4.3-0.1,8.6-0.2,12.9c-0.1,1.8,0.2,3.7-0.2,5.5
			c-0.1,0.3-0.3,0.6-0.5,0.8c-0.5,0-1.1,0-1.6,0c-1.2-0.6-1.3-1.8-1.6-2.9c-1.1-4.2-2-8.5-3-12.7c-0.2-0.7-0.3-1.4-0.5-2.1
			c-0.2-0.7-0.2-1.9-1.1-1.9c-1-0.1-1,1.1-1.2,1.8c-0.5,2.2-1.1,4.3-1.5,6.5c-0.5,2.8-1.4,5.5-1.8,8.3c-0.2,1.2-0.6,2.2-1.6,3
			c-1.4,0-2.9,0-4.3,0c0.3-1.9,2.7-2.5,2.5-4.7c0-0.9,0.1-1.8-0.1-2.7c-0.8-2.5-3.3-3.1-5-4.6c-2.1-1.7-2.7-3.5-1.6-5.6
			c0.6-1.1,1.4-1.9,2.7-1.8c1.3,0.1,2,1,2.5,2.1c0.3,0.7-0.3,2,1.2,1.9c0.4-0.6,0.3-1.2,0.2-1.9c-0.5-2-1.5-3.3-3.7-3.4
			c-2.4-0.2-3.8,0.9-4.6,3.1c-0.7,1.8-0.4,3.4,0.6,4.9c1,1.3,2.5,2,3.9,2.8c1.1,0.6,2,1.4,2.3,2.7c0.5,2-0.2,4-1.7,4.6
			c-1.9,0.7-3-0.4-3.8-1.9c-0.4-0.7-0.3-1.5-0.6-2.2c-0.2-0.2-0.4-0.3-0.7-0.2c-0.2,0.1-0.3,0.2-0.4,0.4c-0.2,0.7,0,1.4,0.2,2
			c0.1,0.3,0.2,0.7,0.4,1c0.3,1.5,2.3,1.8,2.5,3.4c-6.4,0-12.9-0.1-19.3,0.1c-2.3,0.1-3.2-0.5-2.7-2.7c2.7-1.2,5.5-0.1,7.7-0.5
			c-2.2-0.4-5,0.7-7.7-0.5c0-1.3,0-2.5,0-3.8c0.2-0.2,0.4-0.2,0.6-0.2c1.1,0.4,2.1,1.6,3.4,0.5c1-2,0.7-4,0.3-6.1
			c-1.2-1-2.4-0.4-3.6,0c-0.3,0-0.5,0-0.7-0.1c0-20.4,0-40.7,0-61.1c0.8-0.2,0.9,0.5,1.2,1c3.2,13.3,6.6,26.5,9.9,39.7
			c0.2,0.9,0.4,1.9,1.1,2.7c0.9,0.5,1.8,0.5,2.8,0c0.6-0.7,0.7-1.6,1-2.5c3.2-12.5,6.2-25,9.4-37.5c0.2-0.9,0.5-1.7,0.2-2.6
			c-1.1-1-2.3-0.8-3.6-0.2c-2,5-2.8,10.3-4.3,15.4c-1,3.4-1.7,6.9-2.7,10.4c-0.3,1-0.2,2.5-1.6,2.4c-1.2-0.1-1.3-1.5-1.6-2.5
			c-1.7-7.1-3.7-14.2-5.3-21.3c-0.3-1.5-0.4-3.2-1.7-4.4C21.9,57.8,20,58.7,18.5,57.5z"/>
		<path class="st1" d="M121.9,32.8c-0.4,6.7-2.3,12.9-5.5,18.8c-0.4,0.7-0.7,1.2-1.6,0.6c-2.3-1.4-4.6-2.7-6.9-4.1
			c-0.6-0.3-1.1-0.7-0.6-1.5c2.5-4.7,3.6-9.8,4.5-14.9c0.7-1.5,0.1-3.1,0.3-4.6c0-0.4,0.2,0.1,0-0.2c-0.1-0.2-0.1,0.2-0.3,0.2
			c-0.8-3.8-1.3-7.6-2.7-11.3c-0.7-1.7-2.9-3.5-1.7-5.2c1-1.5,3.2-2.1,4.9-3.1c1-0.6,2.2-0.8,2.8-1.9c0.4,0,0.7,0,1.1,0
			c2,4.8,4.3,9.6,5.2,14.8c0.1,0.4,0.1,0.9,0.1,1.3c-0.4,0.4-0.2,1-0.2,1.5c0,0.3,0.3,0.5,0.1,0.2c0,0,0.1-0.1,0.2-0.1
			c0.6,0.6,0.5,1.5,0.4,2.2C121.5,27.9,121.5,30.4,121.9,32.8z"/>
		<path class="st2" d="M132.1,62.9c0,0.2,0,0.4,0,0.5c-2.2,1.5-4.7,0.7-7,0.8c-5.5,0.1-5.1-0.2-5,5.1c0,2.4-0.4,4.8,0.4,7.1
			c1,1.2,2.3,0.6,3.5,0.8c2.7,0.3,5.5-0.7,8.1,0.7c0,1.4,0,2.9,0,4.3c-2.5,1.5-5.3,0.4-8,0.7c-1.3,0.2-2.7-0.5-3.7,0.7
			c-0.6,4.2-0.7,8.4,0,12.6c1.1,1.2,2.5,0.6,3.8,0.7c2.6,0.3,5.3-0.7,7.8,0.8c0,1.4,0,2.9,0,4.3c-6.1,0.5-12.2,0.4-18.3,0
			c-0.4-0.9-0.2-1.9-0.2-2.9c0-12.7,0-25.4,0-38.1c0-1-0.1-2,0.1-2.9c6.1-0.5,12.2-0.4,18.3,0c0,1.4,0,2.9,0,4.3
			c-4.2,0.6-8.5,0-11.9,0.3C123.7,62.8,127.9,62.3,132.1,62.9z"/>
		<path class="st3" d="M119.3,97.1c-0.3-4.8-0.3-9.5,0-14.3c4.3-0.8,8.5-0.5,12.8-0.1c0,4.8,0,9.6,0,14.5
			C127.8,97.6,123.6,97.7,119.3,97.1z"/>
		<path class="st3" d="M119.3,77.3c-0.1-4.2-0.1-8.4-0.2-12.6c0-1.2,0.4-1.6,1.5-1.5c3.8,0.1,7.6,0.1,11.5,0.2c0,4.6,0,9.3,0,13.9
			C127.8,77.8,123.6,77.8,119.3,77.3z"/>
		<path class="st4" d="M48,132.5c1.4-6.2,2.8-12.4,4.3-18.6c0.2-1,0-2.3,1.8-2.4c2-0.1,1.4,1.5,1.7,2.4c1.6,6.2,3.1,12.4,4.6,18.5
			c-1.1,0-2.1,0-3.2,0c-0.9-0.9-0.9-2.2-1.3-3.4c-0.3-0.9-0.6-1.7-1.7-1.7c-1.1,0-1.5,0.8-1.7,1.7c-0.4,1.2-0.3,2.7-1.7,3.4
			C49.8,132.5,48.9,132.5,48,132.5z"/>
		<path class="st2" d="M70,111.7c0.4-0.2,0.7-0.3,1.1-0.5c0.6,6.7,0.1,13.4,0.3,19.9c0.3-0.2,0-0.9,0-1.4c0-5.3,0-10.5,0-15.8
			c0-0.9-0.2-1.8,0.2-2.6c0.9,0.9,0.4,2,0.4,3c0.1,6.1,0.1,12.2,0.2,18.3c-0.9,0-1.8,0-2.7,0c-2.4-3.1-3.2-7-4.7-10.6
			c-0.1-0.3-0.3,0.2,0,0c0.1-0.1,0.2,0,0.2,0.2c0.4,3.5,1,7-0.3,10.4c-0.9,0-1.8,0-2.7,0c0-0.1-0.1-0.2-0.1-0.3c0-0.1,0-0.1,0.1-0.2
			c0.7-2.1,0.2-4.2,0.3-6.3c0.2-4.7-0.3-9.4,0.3-14.1c1.4-0.4,1.9,0.4,2.5,1.6c1.5,3.4,2.3,7,4.4,10.1c0.9-2.4,0.2-4.9,0.4-7.3
			C69.8,114.6,69.4,113.1,70,111.7z"/>
		<path class="st4" d="M37.4,114.9c1.1-3,2.6-4.2,6-3.6c2,0.3,3.4,1.9,3.5,4.2c-0.3,0.9-0.4,1.8,0.1,2.7c-1.2,0.7-2.5,1.4-2.6-0.9
			c-0.1-1.4,0-3-1.9-3.3c-1.2-0.2-2.1,0.4-2.5,1.5c-0.6,1.8-0.5,3.4,1.1,4.5c1,0.7,2,1.3,3,1.9c1.3,0.8,2.6,1.5,2.7,3.3
			c-0.3,1.1-0.3,2.1,0,3.2c-0.1,2.2-1.7,3.1-3.1,4.3c-1.1,0-2.1,0-3.2,0c-1.2-1-2.8-1.5-3.1-3.2c0.4-1.4-0.8-2.9,0.4-4.2
			c0.4,0,0.7,0,1.1,0c0.7,0.7-0.2,1.9,0.6,2.6c0.6,1.2,1.2,2.5,2.9,2.1c1.1-0.3,1.8-1.1,1.8-2.3c0-1.5,0.2-2.9-1.6-3.7
			c-1.8-0.8-3.8-1.4-4.8-3.4C37.3,118.5,37.5,116.7,37.4,114.9z"/>
		<path class="st2" d="M122,115.4c0.8-3.2,2.3-4.5,5.2-4.3c2.5,0.2,4.2,1.4,4.4,4.2c0.4,3.9,0.1,7.9,0.2,11.8c0,3.9-0.4,4.5-4,5.5
			c-0.9,0-1.8,0-2.7,0c-1.4-1.1-3.1-2.1-3.1-4.3C122.3,124,122.3,119.7,122,115.4z"/>
		<path class="st2" d="M117.1,116.6c-0.5-1.4-0.7-3.1-2.9-2.8c-2.1,0.3-1.9,2-2,3.5c-0.1,2.9,0,5.9,0,8.8c0,1.5-0.2,3.2,1.9,3.6
			c2.1,0.4,2.4-1.3,3-2.7c0.6-1.8,0.6-1.8-0.8-2.8c-0.7-0.2-1.9,0.4-1.9-0.8c0-1.1,1-1,1.8-1c2.6-0.2,3,0.3,3.1,3c0,1-0.2,1.9,0,2.9
			c0,2.2-1.7,3.2-3.2,4.3c-1.1,0-2.1,0-3.2,0c-1.5-1.1-3.1-2.1-3.1-4.3c0.3-4.3,0.3-8.5,0-12.8c0.3-2.6,1.8-4.1,4.4-4.3
			c2.8-0.2,4.4,1.2,5.1,3.8c-0.7,0.9,0.8,2.6-1.2,2.9c-0.7-0.1-0.6-0.7-0.7-1.1c-0.1-0.3-0.2-0.5-0.1-0.2
			C117.3,116.5,117.1,116.5,117.1,116.6z"/>
		<path class="st2" d="M85,111.2c2.4,0.1,3.5,1.7,4.2,3.7c-0.3,4.6-0.2,9.2,0,13.9c-0.2,1.9-1.8,2.7-3.1,3.8c-1.8,0-3.6,0-5.4,0
			c-0.4-0.4-0.5-0.9-0.5-1.5c0.1-6.4-0.2-12.7,0.1-19.1C81.7,110.6,83.5,111.9,85,111.2z"/>
		<path class="st2" d="M101.6,123c-0.2,0.2-0.3,0.3-0.5,0.5c-0.6,1.9-0.6,3.8,0,5.8c0.2,0.2,0.3,0.4,0.5,0.7
			c1.9,0.7,3.9-0.2,5.8,0.5c0,0.7,0.1,1.4,0.1,2.2c-2.7,0-5.4,0-8,0c-0.1-0.2-0.4-0.4-0.4-0.7c-0.1-6.7-0.5-13.4,0.2-20.1
			c2.7-0.6,5.4-0.5,8.1-0.1c0.4,1.7-0.1,2.4-1.9,2.2c-1.4-0.1-2.8,0-4.2,0c-0.9,2.1-0.7,4.2-0.1,6.4c2,0.6,4.2-0.3,6.1,0.6
			c-1.6,0.5-3.1,0.2-4.7,0.3c1.1,0,2.3,0,3.5,0c0.9,0,1.3,0.4,0.9,1.4C105.3,123.1,103.3,122,101.6,123z"/>
		<path class="st5" d="M64.6,132.5c0-3.8,0-7.6,0-11.5c1.9,3.7,3.7,7.4,4.8,11.5C67.8,132.5,66.2,132.5,64.6,132.5z"/>
		<path class="st6" d="M50.7,132.5c0.3-1.2,0.7-2.3,0.9-3.5c0.2-1.4,0.4-2.4,2.3-2.5c2-0.1,2.3,1,2.6,2.4c0.2,1.2,0.4,2.4,0.6,3.6
			C55,132.5,52.8,132.5,50.7,132.5z"/>
		<path class="st7" d="M99.4,111.6c0,7,0,13.9,0,20.9c-0.4,0-0.7,0-1.1,0c0.5-6.4,0.1-12.9,0.3-19.3c0-0.7-0.7-1.9,0.8-2
			c0.2,0.1,0.2,0.2,0.2,0.3C99.6,111.6,99.5,111.6,99.4,111.6z"/>
		<path class="st8" d="M92.5,132.5c0-6.4,0-12.9,0.2-19.3c0-0.4-1.1-2.1,0.9-1.5c0.8,0.8,0.7,1.8,0.7,2.7c0,5.1,0,10.2,0,15.4
			c0,1,0,2-0.7,2.7C93.2,132.5,92.8,132.5,92.5,132.5z"/>
		<path class="st2" d="M93.5,132.5c0-6.9,0-13.9,0-20.8c0.4,0.1,0.6-1,1.1-0.1c0.4,7,0.4,14,0,21C94.3,132.5,93.9,132.5,93.5,132.5z
			"/>
		<path class="st8" d="M80.7,111.7c0,7,0,13.9,0,20.9c-0.4,0-0.7,0-1.1,0c0-6.3,0.1-12.6,0.1-18.9c0-0.8-0.5-1.7,0.4-2.4
			C80.4,111.3,80.6,111.4,80.7,111.7z"/>
		<path class="st9" d="M18.5,128.8c3.8,0,7.7,0,11.5,0c0,0.3,0,0.5,0,0.8c-3.8,0.6-7.7,0-11.6,0.3C18.5,129.5,18.5,129.1,18.5,128.8
			z"/>
		<path class="st10" d="M94.6,132.5c0-7,0-14,0-21c0.7,0.2,0.6,0.8,0.6,1.3c0,6.6-0.1,13.1-0.1,19.7C95,132.5,94.8,132.5,94.6,132.5
			z"/>
		<path class="st10" d="M113.9,102c6.1,0,12.1,0,18.2,0c0,0.2,0,0.4,0,0.5c-6.1,0.2-12.1,0.2-18.2,0c-0.1-0.1-0.2-0.2-0.1-0.4
			C113.8,102,113.9,102,113.9,102z"/>
		<path class="st11" d="M132.1,58.1c-6.1,0-12.1,0-18.2,0c-0.1-0.1-0.2-0.2-0.1-0.3c0-0.1,0.1-0.2,0.1-0.2c6.1,0,12.1,0,18.2-0.1
			C132.1,57.7,132.1,57.9,132.1,58.1z"/>
		<path class="st12" d="M127.8,132.5c2.1-0.9,3.7-2.1,3.8-4.6c0-0.4,0.2-0.4,0.4-0.2c0,0.2,0,0.4,0,0.5
			C132.1,132.5,132.1,132.5,127.8,132.5z"/>
		<path class="st10" d="M119.3,97.1c4.3,0,8.6,0,12.8,0.1c0,0.2,0,0.4,0,0.5c-3.5,0-6.9,0-10.4,0C120.9,97.7,119.9,98,119.3,97.1z"
			/>
		<path class="st13" d="M132.1,82.7c-4.3,0.4-8.5,0.1-12.8,0.1c0.6-1,1.6-0.7,2.4-0.7c3.5,0,6.9,0,10.4,0
			C132.1,82.3,132.1,82.5,132.1,82.7z"/>
		<path class="st11" d="M119.3,77.3c4.3,0,8.6,0,12.8,0.1c0,0.2,0,0.4,0,0.5c-3.5,0-6.9,0-10.4,0C120.9,77.9,119.9,78.2,119.3,77.3z
			"/>
		<path class="st7" d="M132.1,62.9c-4.1,0-8.1,0-12.2,0c0-0.2,0-0.4,0-0.5c4.1,0,8.1,0,12.2,0C132.1,62.5,132.1,62.7,132.1,62.9z"/>
		<path class="st14" d="M132.1,127.7l-0.2,0.2c0,0-0.3,0-0.3,0c0-4.2,0-8.4,0-12.6c0.2,0,0.3,0.1,0.5,0.1
			C132.1,119.5,132.1,123.6,132.1,127.7z"/>
		<path class="st15" d="M18.5,57.5c1.8,0.1,3.8-0.8,5.5,0.5c-1.5,1.1-3.2,0.9-4.9,1.1c-0.2-0.4-0.4-0.7-0.6-1.1
			C18.5,57.9,18.5,57.7,18.5,57.5z"/>
		<path class="st16" d="M19.2,125c-0.2,0-0.4,0-0.6,0c0-2,0-3.9,0-5.9c0.2,0,0.3,0,0.5,0c0.1,0.1,0.2,0.2,0.3,0.3
			c0.7,1.5,0.2,3.1,0.5,4.7c0,0.3,0,0.5-0.1,0.8C19.6,125.1,19.4,125.2,19.2,125z"/>
		<path class="st2" d="M56.1,102.4c-5.3-0.9-8-4.3-8.5-10.7c0.3-7.8,0.3-15.7,0-23.5c0.5-6.4,3-9.5,8.5-10.6c1.4,0.3,2.8,0.3,4.2,0
			c5.3,0.9,8.8,6,8.5,11.7c-0.3,7.1-0.3,14.3,0,21.4c0.1,6-2.9,11.2-9,11.7C58.5,102.1,57.3,102.2,56.1,102.4z"/>
		<path class="st2" d="M19.1,59.1c1.3-1.8,3.3-0.8,4.9-1.1c1.1,0.2,0.9,1.2,1,1.9c2.1,8.5,4.2,17.1,6.4,25.6
			c0.1,0.4,0.3,0.8,0.7,1.9c2-8,3.8-15.3,5.7-22.6c0.6-2.4,0.8-5,2.2-7.3c1.6,0.5,3.3-0.2,4.9,0.4c0.7,1.6-0.3,3-0.6,4.5
			c-3.2,13-6.5,26.1-9.7,39.1c-0.1,0.4-0.2,0.7-0.5,0.8c-1.2-0.2-2.5-0.4-3.7,0.1c-1-0.2-0.9-1-1-1.6c-3.4-13.7-6.8-27.5-10.2-41.2
			C19.1,59.5,19.1,59.3,19.1,59.1z"/>
		<path class="st2" d="M95.7,102.5c-5.4-0.9-8.3-4.7-8.5-11.2c0.3-7.3,0.3-14.6,0-21.9c0-6.8,3.3-11,9.1-11.7c1.1,0.3,2.1,0.3,3.2,0
			c5.3,0.6,8.4,4.2,9,10.4c0.2,1.6,0.7,3.4-0.4,5c-1.6-0.4-3.2-0.4-4.8,0c-1.1-1.4-0.4-3-0.5-4.5c-0.4-3.6-1.8-5.2-4.8-5.2
			c-3.2,0-4.8,1.5-4.9,5.3c-0.1,7.7-0.1,15.3,0,23c0,2.7,1,4.8,3.8,5.6c0.7,0.5,1.3,0.6,2,0c2.7-0.9,3.6-3,3.9-5.6
			c0.2-1.5-0.6-3.1,0.5-4.4c1.6,0.3,3.2,0.4,4.8,0c1.8,5.4-0.7,14.6-8,15.4C98.5,102.1,97.1,102.1,95.7,102.5z"/>
		<path class="st1" d="M38.9,32.8c1,4.7,2,9.3,4.3,13.6c0.5,0.9-0.2,1.2-0.8,1.6c-2,1.2-4,2.3-6,3.5c-1.4,0.9-2.1,0.7-2.9-0.8
			c-2.5-5.2-4.2-10.5-4.8-16.2c0.3-3.4,0.3-6.7,0-10.1c0.6-6,2.3-11.7,5.1-17c0.6-1.1,1.2-1.4,2.3-0.7c0.2,0.1,0.5,0.2,0.7,0.4
			c2.1,1.2,4.8,2,6,3.8c1.5,2.1-1.5,4.1-2,6.4c-0.5,2.8-1.4,5.5-2,8.2C38.4,27.9,38.4,30.4,38.9,32.8z"/>
		<path class="st17" d="M101,30.7c0,3.5-1,6.8-2.5,10c-0.5,1.2-1.2,1.5-2.2,0.7c-0.3-0.2-0.6-0.3-0.9-0.5c-2-1.2-4.9-2-5.6-3.7
			c-0.7-1.7,1-4.2,1.7-6.4c0.5-0.9,0.5-1.8,0-2.7c-0.6-1.9-0.8-4-1.8-5.8c-0.6-1,0.1-1.5,0.7-2c1.1-0.8,2.3-1.3,3.4-2
			c4.2-2.4,4.2-2.4,5.8,2.3c0.8,2.3,1.5,4.6,1.4,7C100.6,28.6,100.6,29.7,101,30.7z"/>
		<path class="st2" d="M75.4,102c0-14.7,0-29.3,0-44c1.7-0.3,3.3-0.5,5,0.1c0.4,0.7,0.3,1.4,0.3,2.1c0,13.2,0,26.3,0,39.5
			c0,0.7,0.1,1.4-0.3,2.1C78.8,102.6,77.1,102.3,75.4,102z"/>
		<path class="st17" d="M59.2,31.3c0.5,1.6,1,3.2,1.6,4.7c0.4,0.9,0.1,1.3-0.6,1.7c-2.1,1.2-4.2,2.3-6.2,3.6c-1,0.6-1.5,0.5-2-0.6
			c-1.2-2.7-2.2-5.4-2.4-8.3c0.3-1.9,0.3-3.9,0-5.8c0.1-3.2,1.2-6.1,2.5-8.9c0.5-1.1,1.1-1.2,2-0.6c0.6,0.4,1.2,0.8,1.8,1.1
			c5.3,3,5.3,3,3.3,8.9C58.8,28.4,58.8,29.8,59.2,31.3z"/>
		<path class="st18" d="M75.2,35.1c-3.3,0-5.8-2.6-5.8-5.9c0-3.3,2.7-5.9,6-5.9c3.1,0.1,5.8,2.8,5.8,5.9
			C81.1,32.4,78.5,35.1,75.2,35.1z"/>
		<path class="st8" d="M80.1,102c0-14.6,0-29.3,0-43.9C80,58,79.9,57.8,80,57.7c0.1-0.1,0.1-0.2,0.2-0.2c0.9-0.2,1,0.4,1,1.1
			c0,14.4,0,28.8,0,43.2c0,0.2-0.3,0.4-0.4,0.6C80.4,102.4,80.3,102.2,80.1,102z"/>
		<path class="st19" d="M113.9,57.6c0,0.2,0,0.3,0,0.5c0,14.6,0,29.3,0,43.9c0,0.2,0,0.4,0,0.6c-1-0.4-0.5-1.2-0.5-1.8
			c0-13.8,0-27.6,0-41.3C113.4,58.8,112.9,57.9,113.9,57.6z"/>
		<path class="st13" d="M47.6,68.3c0.5,0.5,0.4,1.1,0.4,1.7c0,6.7,0,13.4,0,20c0,0.6,0.1,1.3-0.4,1.7C47.6,83.9,47.6,76.1,47.6,68.3
			z"/>
		<path class="st20" d="M119.3,128.3c-0.8-0.7-0.5-1.6-0.5-2.4c-0.1-3.2-0.6-3.5-4-2.4c0.5,1.1,1.9,0.1,2.4,1.1
			c0.3,0.3,0.2,0.5-0.1,0.7c-0.6-0.4-1.2-0.6-2-0.5c-2.1,0.2-2-1-1.4-2.4c1.9-0.3,3.7-0.4,5.6,0
			C119.9,124.3,119.9,126.3,119.3,128.3z"/>
		<path class="st10" d="M87.2,69.3c0.7,0.7,0.4,1.5,0.5,2.3c0,5.8,0,11.6,0,17.4c0,0.8,0.2,1.6-0.4,2.3
			C87.2,83.9,87.2,76.6,87.2,69.3z"/>
		<path class="st7" d="M68.8,90.7c-0.7-0.8-0.4-1.7-0.4-2.5c0-5.4,0-10.9,0-16.3c0-0.9-0.3-1.8,0.4-2.5
			C68.8,76.5,68.8,83.6,68.8,90.7z"/>
		<path class="st8" d="M71.6,111.2c0,6.7,0,13.5,0,20.2c-0.2,0-0.4,0-0.5,0c0-6.8,0-13.5,0-20.3C71.2,111.2,71.4,111.2,71.6,111.2z"
			/>
		<path class="st13" d="M62.5,111.7c0,5.9,0,11.7,0,17.6c0,0.9,0.4,2-0.6,2.7c0-6.4-0.1-12.8-0.1-19.2
			C61.8,112.3,61.6,111.6,62.5,111.7z"/>
		<path class="st21" d="M28.2,115.9c-0.4,1-1.3,2.1,0.7,2.4c0.2,0,0.3,0.3,0.4,0.4c-2.6,1.8-0.6,4.4-1.3,6.6
			c-0.1,0.2-0.3,0.4-0.4,0.6c-0.5-1.6-0.1-3.3-0.2-5c-0.1-0.9,0.2-1.8-0.7-2.4c0.6-1-0.2-2.4,1-3.3C28,115.4,28.1,115.6,28.2,115.9z
			"/>
		<path class="st10" d="M89.1,128.8c-0.7-4.6-0.7-9.2,0-13.9C89.5,119.5,89.6,124.1,89.1,128.8z"/>
		<path class="st11" d="M122,115.4c0.8,4.3,0.7,8.5,0,12.8C121.8,124,121.8,119.7,122,115.4z"/>
		<path class="st10" d="M109.7,115.4c0.8,4.3,0.8,8.5,0,12.8C109.4,124,109.4,119.7,109.7,115.4z"/>
		<path class="st13" d="M70,111.7c0,3.1,0,6.2,0,9.3c0,0.8,0.3,1.8-0.6,2.4c0-3.3-0.1-6.5,0-9.8C69.3,112.9,68.8,111.9,70,111.7z"/>
		<path class="st22" d="M28.8,24.3c0.8,3.4,0.8,6.7,0,10.1C28.8,31.1,28.8,27.7,28.8,24.3z"/>
		<path class="st23" d="M23.3,118.8c1.4,2.3,1.2,5.7-0.5,7.3c-0.4-0.1-0.7-0.3-0.7-0.8c0.7-1.9,0.7-3.8,0.5-5.8
			C22.6,119.1,22.9,118.8,23.3,118.8z"/>
		<path class="st20" d="M117.7,117.5c1.8-0.1,0.5-2.1,1.6-2.7c0.4,1.1,0.9,2.4,0.1,3.4c-0.4,0.5-1.5,0.7-2.2-0.2
			C117.3,117.9,117.3,117.6,117.7,117.5z"/>
		<path class="st22" d="M38.9,32.8c0,0.1,0,0.2-0.1,0.3c-0.1,0.3-0.5,0.4-0.5,0.2c0-2.6,0-5.2,0.1-7.8c0,0,0.1-0.1,0.2-0.1
			c0.1,0,0.2,0.1,0.2,0.1C38.9,27.9,38.9,30.4,38.9,32.8z"/>
		<path class="st24" d="M99.4,111.6c0-0.2,0-0.3,0-0.5c2.7,0.1,5.4-0.7,8,0.4C104.7,111.6,102.1,111.6,99.4,111.6z"/>
		<path class="st25" d="M26.7,118.6c1.5,0.4,0.8,1.5,0.9,2.4c0.1,1.7,0.1,3.3,0.1,5c-1.1-1-0.4-2.4-0.6-3.6
			C26.9,121.2,27.3,119.9,26.7,118.6z"/>
		<path class="st26" d="M37.4,114.9c1,1.7,0.3,3.6,0.4,5.4C36.7,118.6,36.7,116.7,37.4,114.9z"/>
		<path class="st22" d="M121.9,32.8c-0.7-2.5-0.7-5,0-7.4C121.9,27.9,121.9,30.4,121.9,32.8z"/>
		<path class="st27" d="M111.7,27.1c0-0.3,0.1-0.7,0.1-1c0.1,0,0.3,0,0.4,0c0,2.1,0,4.1,0,6.2c0,0-0.1,0.1-0.2,0.1
			c-0.1-0.2-0.2-0.4-0.4-0.6C111.7,30.2,111.7,28.6,111.7,27.1z"/>
		<path class="st28" d="M106.9,122.4c-0.2-1.3-1.2-1-2-1.1c-0.9-0.1-1.9,0.2-3.3-0.5c2.3,0,4,0,5.7,0c0,0.5,0,1.1,0.1,1.6
			C107.2,122.6,107.1,122.6,106.9,122.4z"/>
		<path class="st13" d="M101.2,120.2c-1-2.1-1.2-4.3,0.1-6.4C101.3,115.9,101.2,118.1,101.2,120.2z"/>
		<path class="st13" d="M101.1,129.2c-1-1.9-1-3.8,0-5.8C101.1,125.4,101.1,127.3,101.1,129.2z"/>
		<path class="st29" d="M23.3,118.8c-0.1,0.2-0.2,0.3-0.3,0.4c-1,0.7-2.1,0.2-3.1,0.4c-0.2-0.1-0.4-0.2-0.6-0.4l-0.2,0
			C20.3,117.5,21.7,117.2,23.3,118.8z"/>
		<path class="st30" d="M22.3,125.6c0.2,0.2,0.4,0.3,0.5,0.5c-1.5,0.6-2.9,0.8-3.6-1c0.2,0,0.4,0,0.5-0.1
			C20.7,124.7,21.5,124.9,22.3,125.6z"/>
		<path class="st31" d="M106.9,122.4c0.2,0,0.3,0,0.5,0c-1.8,1.5-3.9,0.4-5.8,0.6C103.3,121.7,105.2,122.7,106.9,122.4z"/>
		<path class="st10" d="M107.4,130.4c-1.9-0.3-4,0.6-5.8-0.5C103.5,130.1,105.6,129.2,107.4,130.4z"/>
		<path class="st32" d="M49.7,26.5c0.8,1.9,0.7,3.9,0,5.8C49.4,30.4,49.4,28.4,49.7,26.5z"/>
		<path class="st2" d="M119.3,122.3c-1.9,0-3.7,0-5.6,0C115.6,121.8,117.4,121.7,119.3,122.3z"/>
		<path class="st10" d="M80.1,102c0.2,0.2,0.4,0.3,0.5,0.5c-1.8,0.1-3.6,0.8-5.3-0.5C77,102,78.6,102,80.1,102z"/>
		<path class="st33" d="M44.9,58c-1.6-0.1-3.4,0.5-4.9-0.4C41.7,57.5,43.4,56.9,44.9,58z"/>
		<path class="st34" d="M80.1,57.6c0,0.2,0,0.3,0,0.5c-1.6,0-3.2,0-4.7,0C76.9,56.9,78.6,57.7,80.1,57.6z"/>
		<path class="st10" d="M103.2,73c1.6-0.8,3.2-0.8,4.8,0C106.4,73,104.8,73,103.2,73z"/>
		<path class="st35" d="M108,87c-1.6,0.8-3.2,0.7-4.8,0C104.8,87.1,106.4,87,108,87z"/>
		<path class="st36" d="M80.7,111.7c-0.2-0.1-0.3-0.3-0.5-0.4c1.6,0,3.2,0,4.8,0C83.6,112.1,82.1,111.4,80.7,111.7z"/>
		<path class="st37" d="M37.8,125.1c-0.2,1.4,0.4,2.9-0.4,4.2c0-0.3-0.1-0.7-0.1-1c-0.4-1-0.4-2.1,0-3.1
			C37.5,125.2,37.6,125.1,37.8,125.1z"/>
		<path class="st10" d="M95.7,102.5c1.4-0.7,2.8-0.7,4.3,0C98.5,102.7,97.1,102.8,95.7,102.5z"/>
		<path class="st32" d="M59.2,31.3c-0.8-1.4-0.8-2.9,0-4.3C59.3,28.4,59.3,29.8,59.2,31.3z"/>
		<path class="st30" d="M60.3,57.6c-1.4,0.7-2.8,0.7-4.2,0C57.5,57.4,58.9,57.4,60.3,57.6z"/>
		<path class="st10" d="M30.3,102.5c1.2-0.8,2.5-0.7,3.7-0.1C32.8,102.8,31.6,102.6,30.3,102.5z"/>
		<path class="st10" d="M56.1,102.4c1.2-0.7,2.5-0.7,3.7,0C58.5,102.7,57.3,102.7,56.1,102.4z"/>
		<path class="st38" d="M46.9,128.2c-0.7-1.1-0.7-2.1,0-3.2C47.1,126.1,47.1,127.2,46.9,128.2z"/>
		<path class="st4" d="M37.3,125.2c0,1,0,2.1,0,3.1C36.9,127.3,36.4,126.2,37.3,125.2z"/>
		<path class="st32" d="M101,30.7c-0.7-1.1-0.7-2.1,0-3.2C101,28.6,101,29.7,101,30.7z"/>
		<path class="st39" d="M117,125.2c0-0.2,0.1-0.5,0.1-0.7c0.6,0.9,1.2,1.7-0.1,2.6C117,126.4,117,125.8,117,125.2z"/>
		<path class="st40" d="M99.4,57.6c-1.1,0.7-2.1,0.7-3.2,0C97.3,57.6,98.4,57.6,99.4,57.6z"/>
		<path class="st31" d="M98.8,97.1c-0.6,1-1.3,0.9-2,0C97.5,97.1,98.1,97.1,98.8,97.1z"/>
		<path class="st22" d="M121.4,23.2c0,0.2,0,0.4-0.1,0.5c-0.2,0.3-0.4,0.1-0.4-0.2c0-0.6-0.2-1.3,0.5-1.8
			C121.4,22.2,121.4,22.7,121.4,23.2z"/>
		<path class="st32" d="M91.4,28.1c0.8,0.9,0.8,1.8,0,2.7C91.4,29.8,91.4,29,91.4,28.1z"/>
		<path class="st41" d="M39.5,127.7c-1.1-0.6-0.5-1.7-0.6-2.6C40.2,125.7,39.3,126.8,39.5,127.7z"/>
		<path class="st19" d="M28.2,115.9c-0.2-0.2-0.4-0.4-0.6-0.6c0.4-0.4,1.1-0.9,1.5-0.4C29.4,115.5,28.6,115.7,28.2,115.9z"/>
		<path class="st38" d="M46.9,118.1c-0.8-0.9-0.8-1.8-0.1-2.7C46.9,116.3,46.9,117.2,46.9,118.1z"/>
		<path class="st13" d="M117.7,117.5c-0.2,0.2-0.4,0.4-0.5,0.5c0-0.5,0-1-0.1-1.5c0.1-0.2,0.2-0.4,0.3-0.6
			C118,116.4,117.5,117,117.7,117.5z"/>
		<path class="st8" d="M118.3,96.5c0-4.4,0-8.8,0-13.2c0.1,0,0.2,0,0.3,0c0,4.4,0,8.8,0,13.2C118.5,96.5,118.4,96.5,118.3,96.5z"/>
		<path class="st8" d="M118.3,76.7c0-4.4,0-8.8,0-13.2c0.1,0,0.2,0,0.3,0c0,4.4,0,8.8,0,13.2C118.5,76.7,118.4,76.7,118.3,76.7z"/>
		<path class="st42" d="M54.3,119.4c0.2,1.2,0.6,2.4,0.7,3.6c0.1,1-0.6,1.5-1.5,1.4c-0.9-0.1-0.7-0.9-0.6-1.4
			c0.2-1.2,0.6-2.3,0.9-3.5C54,119.4,54.2,119.4,54.3,119.4z"/>
		<ellipse class="st7" cx="63.8" cy="125.8" rx="0.2" ry="7.9"/>
		<path class="st43" d="M129.4,127.6c-0.3,0.6-0.7,1.3-1,1.9c-0.8,0.8-1.7,0.9-2.6,0.2c-0.9-0.9-1.2-1.9-1.1-3.1c0-3.2,0-6.4,0-9.6
			c0-1.4,0-2.8,1.7-3.2c1.8-0.5,2.5,0.8,3.1,2.2C129.9,119.9,129.9,123.7,129.4,127.6z"/>
		<path class="st10" d="M129.4,127.6c0-3.9,0-7.7,0-11.6c0.3-0.2,0.6-0.1,0.6,0.2c0,3.8,0,7.5,0,11.3c0,0.1-0.1,0.2-0.1,0.2
			C129.7,127.7,129.5,127.6,129.4,127.6z"/>
		<path class="st44" d="M123.7,126c0-3,0-5.9,0-8.9c0.1,0,0.2,0,0.3,0c0,3,0,6,0,9C123.9,126,123.8,126,123.7,126z"/>
		<path class="st10" d="M125.7,129.7c0.9,0.2,1.8,0.2,2.6-0.2C127.6,130.9,126.7,130.7,125.7,129.7z"/>
		<path class="st45" d="M111.4,127c0-3.5,0-7,0-10.5c0.1,0,0.2,0,0.3,0c0,3.5,0,7,0,10.6C111.5,127,111.4,127,111.4,127z"/>
		<path class="st46" d="M82.5,113.8c3.8-0.1,4.1,0.3,4.2,4c0,2.8,0,5.7,0,8.5c0,1.3-0.2,2.5-1.2,3.4c-1,0.7-2.1,0.7-3.1,0l0,0.1
			l0.1,0c-0.8-0.7-0.4-1.6-0.4-2.5c-0.1-3.8,0-7.6,0-11.4C82.1,115.3,81.6,114.4,82.5,113.8z"/>
		<path class="st10" d="M82.5,113.8c0,5.3,0,10.7,0,16c-0.2-0.2-0.5-0.3-0.6-0.5c-0.3-5-0.3-10,0-14.9
			C81.9,114.2,82.3,114,82.5,113.8z"/>
		<path class="st44" d="M87.3,127c0-3.5,0-7,0-10.6c0.1,0,0.2,0,0.3,0c0,3.5,0,7,0,10.6C87.4,127.1,87.3,127,87.3,127z"/>
		<path class="st15" d="M82.3,129.7c1,0,2.1,0,3.1,0C84.4,130.8,83.4,130.8,82.3,129.7z"/>
		<path class="st47" d="M22.3,125.6c-0.9,0.1-1.8,0-2.6-0.6c-0.1-0.2-0.1-0.3-0.2-0.5c0-1.7-0.7-3.5,0.3-5.2c1-0.8,2.1-0.6,3.1-0.1
			C23.1,121.3,24.1,123.6,22.3,125.6z"/>
		<path class="st20" d="M19.9,119.2c-0.1,1.7-0.2,3.5-0.3,5.2c-0.9-1.7-0.4-3.5-0.2-5.3C19.5,119.2,19.7,119.2,19.9,119.2z"/>
		<path class="st3" d="M57.8,97.1c-3.6-1.1-4.4-1.9-4.5-5.8c-0.1-7.6-0.1-15.2,0-22.7c0.1-3.8,1.7-5.4,4.9-5.3
			c3.2,0,4.8,1.8,4.8,5.7c0.1,7.4,0.1,14.8,0,22.2c0,3.7-1,4.9-4.4,6C58.3,97.5,58,97.5,57.8,97.1z"/>
		<path class="st7" d="M52.4,90.7c0-7.1,0-14.2,0-21.3c0.1,0,0.2,0,0.3,0c0,7.1,0,14.1,0,21.2C52.6,90.6,52.5,90.6,52.4,90.7z"/>
		<path class="st44" d="M64,70c0,6.7,0,13.3,0,20c-0.1,0-0.2,0-0.3,0c0-6.7,0-13.4,0-20.1C63.8,70,63.9,70,64,70z"/>
		<path class="st39" d="M57.8,97.1c0.3,0,0.5,0,0.8,0c0.2,0.1,0.4,0.2,0.7,0.3c-0.7,0.5-1.4,0.5-2.1,0
			C57.4,97.3,57.6,97.2,57.8,97.1z"/>
		<path class="st8" d="M92.4,69c0,7.4,0,14.8,0,22.1c-0.1,0-0.2,0-0.3,0c0-7.4,0-14.8,0-22.3C92.2,68.9,92.3,68.9,92.4,69z"/>
	</g>
</g>
<rect id="_x3C_Slice_x3E_" class="st48" width="149" height="142"/>
</svg>
