<?xml version="1.0" encoding="utf-8"?>
<!-- Generator: Adobe Illustrator 22.0.1, SVG Export Plug-In . SVG Version: 6.00 Build 0)  -->
<svg version="1.1" id="Layer_1" xmlns="http://www.w3.org/2000/svg" xmlns:xlink="http://www.w3.org/1999/xlink" x="0px" y="0px"
	 viewBox="0 0 1312.1 444.5" style="enable-background:new 0 0 1312.1 444.5;" xml:space="preserve">
<style type="text/css">
	.st0{fill:#FDFDFD;}
	.st1{fill:#231F20;}
	.st2{fill:#D42029;}
	.st3{fill:#D5202A;}
	.st4{fill:#EB1C2F;}
	.st5{fill:#272425;}
	.st6{fill:#242021;}
	.st7{fill:#EB1B2F;}
	.st8{fill:#323031;}
	.st9{fill:#E51D2E;}
	.st10{fill:#363436;}
	.st11{fill:#2E2C2D;}
	.st12{fill:#2C292A;}
	.st13{fill:#616163;}
	.st14{fill:#393739;}
	.st15{fill:#E41D2D;}
	.st16{fill:#2A2728;}
	.st17{fill:#545456;}
	.st18{fill:#58585A;}
	.st19{fill:#2B2829;}
	.st20{fill:#5D5E60;}
	.st21{fill:#5A5B5D;}
	.st22{fill:#D91F2B;}
	.st23{fill:#353435;}
	.st24{fill:#252223;}
	.st25{fill:#DD1E2C;}
	.st26{fill:#333132;}
	.st27{fill:#312E30;}
	.st28{fill:#606163;}
	.st29{fill:#3E3D3F;}
	.st30{fill:#606062;}
	.st31{fill:#363536;}
	.st32{fill:#474749;}
	.st33{fill:#4C4C4E;}
	.st34{fill:#4D4D4F;}
	.st35{fill:#464648;}
	.st36{fill:#434244;}
	.st37{fill:#49494B;}
	.st38{fill:#3F3E40;}
	.st39{fill:#575759;}
	.st40{fill:#515153;}
	.st41{fill:#565658;}
	.st42{fill:#3C3B3C;}
	.st43{fill:#565759;}
	.st44{fill:#343233;}
	.st45{fill:#2E2B2D;}
	.st46{fill:#616264;}
	.st47{fill:#4B4B4D;}
	.st48{fill:#48484A;}
	.st49{fill:#4E4E50;}
	.st50{fill:#424143;}
	.st51{fill:#535355;}
	.st52{fill:#3C3B3D;}
	.st53{fill:#4F4F51;}
	.st54{fill:#525355;}
	.st55{fill:#545557;}
	.st56{fill:#5E5F61;}
	.st57{fill:#454547;}
	.st58{fill:#59595B;}
	.st59{fill:#5C5D5F;}
	.st60{fill:#3D3C3E;}
	.st61{fill:#312E2F;}
	.st62{fill:#595A5C;}
	.st63{fill:#4A4A4C;}
	.st64{fill:#505052;}
	.st65{fill:#3F3F40;}
	.st66{fill:#322F30;}
	.st67{fill:#3A383A;}
	.st68{fill:#5B5C5E;}
	.st69{fill:#FEFEFE;}
	.st70{fill:#262223;}
	.st71{fill:#FCFCFC;}
</style>
<g>
	<g>
		<path class="st0" d="M656.3,444.4c-217.6,0-435.3,0-652.9,0.1c-2.3,0-2.9-0.5-2.9-2.9c0.1-146.1,0.1-292.1,0-438.2
			c0-2.3,0.5-2.9,2.9-2.9c435.3,0.1,870.6,0.1,1305.8,0c2.3,0,2.9,0.5,2.9,2.9c-0.1,146.1-0.1,292.1,0,438.2c0,2.3-0.5,2.9-2.9,2.9
			C1091.6,444.4,874,444.4,656.3,444.4z"/>
		<path class="st1" d="M885.6,216.6c0,17.3,0.2,34.6,0.1,51.9c-0.1,11.4,0.6,22.7-0.6,34.1c-3.1,31.1-29.5,58.6-60.5,63
			c-4.3,0.6-8.7,0.9-13.1,0.9c-36.5,0-73,0.1-109.5,0c-42.5-0.1-79-15.2-108.8-45.5c-23.6-24-37.3-53.1-41.3-86.6
			c-0.7-5.9-1.2-11.8-1-17.8c1.2-1.2,2.7-1.1,4.1-1.1c20.2,0,40.3,0,60.5,0c1.4,0,2.9-0.1,4.1,1c0.7,10.4,2.2,20.6,6.2,30.4
			c12.1,30,42,50.4,74.4,50.4c37.8,0,75.5,0,113.3,0.1c2.8,0,3.4-0.8,3.4-3.4c-0.1-13.9-0.2-27.7,0-41.6c0-3-1-3.5-3.7-3.5
			c-43.7,0.1-87.4,0-131.1,0.1c-3,0-3.8-0.7-3.7-3.7c0.3-9.6,0.2-19.2,0.2-28.8c1.6-1.4,3.5-1,5.4-1c22.8,0,45.6,0,68.5,0
			c42.5,0,85,0,127.5,0C881.9,215.5,884,215.1,885.6,216.6z"/>
		<path class="st1" d="M1113.8,216.5c4.3,7.5,8.7,14.9,13,22.4c11.1,19.5,22.2,39,33.3,58.5c0.5,0.8,0.9,1.6,1.5,2.4
			c1.3,1.8,3,2.6,5.2,2c2.2-0.6,3.2-2.2,3.2-4.5c0-0.8,0-1.7,0-2.5c0-24.8-0.1-49.6-0.1-74.4c0-1.2,0.1-2.5,0.2-3.7
			c1.2-1.1,2.7-1,4.1-1c20,0,40,0,59.9,0c1.5,0,2.9,0,4.2,1c0.1,1.2,0.2,2.5,0.2,3.7c0,25.7,0,51.3,0,77c0,40.4-32.3,72.8-72.7,72.7
			c-28.9-0.1-50.6-12.7-65-38c-21.2-37.4-42.5-74.7-63.8-112c-0.6-1.1-1.1-2.2-1.6-3.3c1.2-1.2,2.7-1,4.1-1c23.3,0,46.7,0,70,0
			C1111,215.5,1112.5,215.6,1113.8,216.5z"/>
		<path class="st2" d="M218.1,397.1c-8.8,0-17.5-0.1-26.3,0.1c-2.2,0-3.3-0.7-4.2-2.7c-6.6-15.7-10.5-32.2-13.6-48.9
			c-2.3-12.7-3.9-25.5-5.3-38.4c-0.2-1.9,0.3-3.3,1.7-4.6c15.3-13.6,30.5-27.2,45.7-40.9c1.7-1.5,2.6-1.7,4.5,0
			c15.1,13.7,30.4,27.3,45.7,40.9c1.5,1.3,2.1,2.5,1.8,4.5c-3.5,29.6-7.7,59.1-19,87c-1,2.4-2.2,3.2-4.8,3.2
			C235.6,397,226.9,397.1,218.1,397.1z"/>
		<path class="st1" d="M979,216.6c0.1,1,0.2,2.1,0.2,3.1c0,47.9,0,95.7,0.1,143.6c0,2.6-0.5,3.5-3.3,3.5
			c-10.8-0.2-21.7-0.1-32.5-0.1c-18.3,0-32.5-14.2-32.5-32.5c0-38.3,0-76.5,0-114.8c0-0.9,0.1-1.9,0.1-2.8c1.2-1.2,2.7-1.1,4.1-1.1
			c19.9,0,39.9,0,59.8,0C976.3,215.5,977.8,215.5,979,216.6z"/>
		<path class="st1" d="M528.2,216.6c0,3,0.1,6,0.1,9.1c0,45.8,0,91.5,0.1,137.3c0,3.3-0.9,3.9-3.9,3.8c-10.5-0.2-21.1-0.1-31.6-0.1
			c-18.7,0-32.8-14.1-32.8-32.8c0-38.2,0-76.3,0-114.5c0-0.9,0.1-1.9,0.1-2.8c1.2-1.2,2.7-1,4.1-1.1c19.9,0,39.9,0,59.8,0
			C525.6,215.6,527.1,215.4,528.2,216.6z"/>
		<path class="st3" d="M175.2,134.1c-0.1,0-0.2-0.1-0.3-0.1c-6.1-3.4-6.4-8.4-5.5-14.8c2.3-17.5,4.7-34.9,8.9-52
			c2.4-9.8,5.4-19.4,9.3-28.8c0.9-2.2,2.1-2.8,4.4-2.8c17.5,0.1,35,0.1,52.6,0c2.7,0,3.7,0.9,4.7,3.2c6.6,16,10.6,32.6,13.7,49.5
			c2.2,11.8,3.6,23.7,5.2,35.5c0.4,3.2-0.1,5.7-2.9,7.4c-0.9,0.5-1.6,1.3-2.4,1.9c-1.6,0.9-3.3,1.1-5.1,1.1c-26.3,0-52.7,0-79,0
			C177.5,134.3,176.3,134.1,175.2,134.1z"/>
		<path class="st2" d="M174.6,216.6c-5.6,7.2-12,13.7-18.1,20.6c-7.8,8.9-15.9,17.6-23.7,26.6c-1.7,2-3.4,2.6-5.9,2.3
			c-15.6-1.9-31.1-4-46.5-7.2c-13.4-2.8-26.7-6.4-39.4-11.7c-1-0.4-2-1.1-3-1.6c-0.5-9.2-0.1-18.3-0.2-27.5c0-1.4,0.6-2.1,1.9-2.3
			c1.1-0.2,2.3-0.2,3.4-0.2c42.1,0,84.2,0,126.3,0C171.3,215.5,173.1,215.2,174.6,216.6z"/>
		<path class="st2" d="M398.7,245.7c-12,5.8-24.7,9.1-37.6,12.1c-16.2,3.8-32.8,5.8-49.3,8.1c-3.7,0.5-6.3-0.4-8.9-3.4
			c-12.9-14.7-26-29.2-39.1-43.8c-0.6-0.7-1.1-1.5-1.7-2.2c1.2-1.1,2.7-1,4.1-1c42.7,0,85.4,0,128.1,0c4.3,0,4.5,0.3,4.5,4.6
			c0,7.5,0,15,0,22.5C399,243.7,399.3,244.8,398.7,245.7z"/>
		<path class="st2" d="M366.3,274c-13.5,37.6-47.6,74.4-89.9,90.2c-0.8-0.7-0.3-1.5-0.1-2.3c3.2-14.4,5.6-29,7.3-43.7
			c0.2-1.6,0.8-2.6,2.1-3.5c12.4-8.4,22.7-18.9,31.2-31.2c0.6-0.9,1.2-1.8,2.6-1.9c15.2-1.8,30.3-4.2,45.3-7.5
			C365.2,274.1,365.6,274.1,366.3,274z"/>
		<path class="st2" d="M276,68.1c42.8,17.7,72.8,47.6,90.8,90.6c-5.9-1.1-11.1-2.1-16.2-3.1c-9.4-1.8-18.9-3.2-28.4-4.2
			c-2.6-0.3-4.5-1-6.1-3.4c-8.1-11.8-18.2-21.7-30-29.8c-1.2-0.9-2.2-1.7-2.4-3.4c-1.7-15.1-4.1-30.1-7.5-44.9
			C276,69.5,276,69.1,276,68.1z"/>
		<path class="st2" d="M161,364.7c-43-17.9-72.9-47.8-90.9-91c4.1,0.8,7.4,1.6,10.8,2.2c11.9,2.3,23.8,4.2,35.8,5.6
			c1.6,0.2,2.6,0.8,3.5,2.1c8.4,12.3,18.7,22.6,31,31c1.1,0.7,2,1.4,2.1,2.8C154.9,333.1,157.4,348.6,161,364.7z"/>
		<path class="st2" d="M70.2,158.7c17.9-43,47.9-72.9,90.5-90.6c-1.6,8.6-3.2,16.7-4.5,24.9c-1.1,6.9-2,13.8-2.8,20.7
			c-0.2,1.9-0.6,3.3-2.3,4.4c-12.1,8.2-22.3,18.4-30.6,30.5c-1,1.5-2.1,2.3-3.9,2.5c-14.9,1.6-29.7,4-44.4,7.2
			C71.8,158.5,71.4,158.5,70.2,158.7z"/>
		<path class="st4" d="M398.7,245.7c0-8.5-0.1-17.1,0.1-25.6c0.1-2.9-0.9-3.6-3.7-3.6c-44.3,0.1-88.5,0.1-132.8,0.1
			c0.1-0.4,0.1-0.8,0.4-1.1c8.3-9.3,16.7-18.5,25.1-27.8c1.5-0.6,3.1-0.3,4.6-0.3c33.5,0,67,0,100.5,0c2,0,4,0.1,5.8-0.7
			c0.9,0.6,0.5,1.5,0.5,2.3c0,18.1,0,36.3,0,54.4C399.2,244.2,399.6,245.1,398.7,245.7z"/>
		<path class="st5" d="M615.3,93.8c8.1-5.7,16.5-10.6,25.7-14.3c2.4,0.4,4.8,0.2,7.2,0.2c73.4,0,146.8,0,220.2,0
			c2,0,4.2-0.4,6.1,0.8c0.6,4.7,0.5,9.4,0.1,14.1c-1.8,1.3-3.8,0.9-5.8,0.9c-38.8,0-77.6,0-116.4,0c-43.5,0-87,0-130.4,0
			c-1.4,0-2.7,0.1-4.1-0.1C616.8,95.3,615.5,95.5,615.3,93.8z"/>
		<path class="st6" d="M874.3,80.7c-76.7,0-153.5,0-230.2,0c-1.1,0-2.6,0.7-3.1-1.2c9.1-4.5,18.7-7.2,28.6-9.4
			c11.1-2.5,22.4-3.3,33.8-3.3c55.8,0.1,111.6,0,167.4,0c1.2,0,2.5-0.3,3.7,0.3C874.9,71.6,875.2,76.2,874.3,80.7z"/>
		<path class="st7" d="M174.6,216.6c-44.1,0-88.2,0-132.3,0c-4.1,0-4.1,0-4.2,4.3c0,8.2,0,16.5-0.1,24.7c-0.8-0.8-0.4-1.8-0.4-2.7
			c0-17.8,0-35.7,0-53.5c0-0.9-0.4-1.9,0.5-2.6c1.1,1.1,1,2.5,1,3.8c-0.1,2.3,1.1,3.2,3.3,3.1c0.7,0,1.5,0,2.2,0
			c35.3,0,70.7,0,106,0c1.4,0,2.7,0.2,4.1,0.2c6.6,7.3,13.3,14.7,19.9,22C174.8,216,175,216.3,174.6,216.6z"/>
		<path class="st8" d="M584.6,122.5c2.6-3.6,5.5-6.9,8.8-10c2.8,0.3,5.6,0.3,8.4,0.3c88.8,0,177.7,0,266.5,0c2,0,4.2-0.4,6.1,0.8
			c0.7,3.3,0.5,6.5,0.1,9.8c-1.8,1.2-3.8,0.8-5.8,0.8c-34.1,0-68.2,0-102.3,0c-58.3,0-116.6,0-174.9,0c-1.5,0-2.9,0.1-4.4-0.1
			C586,124,584.6,124.2,584.6,122.5z"/>
		<path class="st9" d="M154.7,193.8c-0.9,1.3-2.3,0.8-3.4,0.8c-36.5,0-73,0-109.5,0.1c-2.8,0-4.1-0.6-3.7-3.6c0.2-1.4,0-2.9,0-4.4
			c10.3-5.1,21.4-8.1,32.5-10.9c18.5-4.6,37.4-7,56.3-9.2c2.3-0.3,4,0.2,5.7,2.1c5.8,6.7,11.8,13.2,17.6,19.9
			C151.8,190.3,153.2,192.1,154.7,193.8z"/>
		<path class="st10" d="M584.6,122.5c0.7,1.1,1.9,0.8,2.9,0.8c95.6,0,191.3,0,286.9,0c1,2.2,0.3,4.5,0.4,6.7c0.1,1.2-1,1.5-2,1.6
			c-1.3,0.3-2.7,0.2-4.1,0.2c-94.9,0-189.8,0-284.8,0c-1.9,0-4,0.5-5.7-1C580.1,127.8,582.1,125,584.6,122.5z"/>
		<path class="st11" d="M874.3,113.9c-92.5,0-185,0-277.5,0c-1.3,0-2.8,0.3-3.5-1.4c1.9-2.2,4-4.3,6.3-6.1c1.5-0.4,3.1-0.5,4.6-0.5
			c88.2,0,176.4,0,264.5,0c1.8,0,3.8-0.3,5.5,0.8C875,109.1,875.1,111.5,874.3,113.9z"/>
		<path class="st12" d="M874.3,107c-90.6,0-181.1,0-271.7,0c-1,0-2.1,0.3-3-0.6c2.5-2.6,5.2-4.9,8.1-7c1.5-0.3,3.1-0.4,4.7-0.4
			c85.3,0,170.5,0,255.8,0c2.1,0,4.2-0.4,6.1,0.8C875,102.2,875.1,104.6,874.3,107z"/>
		<path class="st13" d="M885.6,216.6c-69,0-138,0-207,0c0-2.7,0-5.4,0-8.2c1.6-1.4,3.6-1,5.4-1c28.1,0,56.1,0,84.2,0
			c37.4,0,74.9,0,112.3,0c1.4,0,2.7-0.1,4,0.4C885.6,210.6,885.9,213.6,885.6,216.6z"/>
		<path class="st14" d="M874.3,107c0-2.3,0-4.6,0-6.9c-1-1.9-1-3.8,0-5.6c0-4.6,0-9.2,0-13.8c0.1-4.5,0.1-9.1,0.2-13.6
			c0.7,0.7,0.4,1.6,0.4,2.4c0,20.9-0.1,41.9,0,62.8c0,2.8-0.6,3.6-3.5,3.6c-56.8-0.1-113.6,0-170.4-0.1c-6.3,0-12.4,1.1-18.6,2
			c-2.5-0.5-5-0.3-7.5-0.3c-31.1,0-62.2,0-93.4,0c-1.5,0-2.9,0.2-4.4-0.2c-1-0.2-2.5-0.2-1.9-2c0.7-1.7,1.8-3.1,3-4.5
			c66.7,0,133.5,0,200.2,0c30.4,0,60.9,0,91.3,0c5.2,0,4.6,0.6,4.6-4.7c0-0.9-0.1-1.9-0.1-2.8c0-3.1,0-6.3,0-9.4
			C874.3,111.6,874.3,109.3,874.3,107z"/>
		<path class="st15" d="M398.7,186.7c-0.9,2.2-2.9,1.7-4.6,1.7c-22.7,0-45.4,0-68.1,0c-11.4,0-22.7,0-34.1,0c-1.5,0-2.9,0.1-4.2-0.7
			c2.8-3.3,5.7-6.6,8.5-9.8c2.7-3.1,5.6-6.2,8.3-9.4c1.3-1.5,2.6-2.2,4.6-1.9c27.2,3.2,54.3,6.8,80.2,16.2
			C392.5,183.9,395.6,185.4,398.7,186.7z"/>
		<path class="st16" d="M874.3,94.5c0,1.9,0,3.8,0,5.6c-87.9,0-175.7,0-263.6,0c-1,0-2.1,0.3-2.9-0.7c2.2-2.3,5-3.8,7.5-5.6
			c0.8,1,1.9,0.7,2.9,0.7C703.6,94.5,788.9,94.5,874.3,94.5z"/>
		<path class="st17" d="M678.6,190.9c-0.5-7.4-0.5-7.4,6.7-7.4c56,0.1,112,0.1,168,0.2c7.1,0,13.8,1.8,19.3,6.7
			c-0.3,1.4-1.4,1.3-2.4,1.5c-1.2,0.2-2.5,0.1-3.8,0.1c-60.6,0-121.2,0-181.8,0C682.6,191.9,680.4,192.4,678.6,190.9z"/>
		<path class="st18" d="M678.6,190.9c63.5,0,126.9,0,190.4,0c1.2,0,2.5,0.4,3.6-0.5c2.8,1.3,4.7,3.5,6.4,6c0.6,1.7-0.6,2-1.7,2.2
			c-1.2,0.3-2.5,0.2-3.7,0.2c-63.2,0-126.3,0-189.5,0c-1.8,0-3.8,0.4-5.4-1C678.6,195.5,678.6,193.2,678.6,190.9z"/>
		<path class="st19" d="M1041,90.7c2.9,3.2,5.2,6.8,7.1,10.6c-0.5,1.2-1.7,1.5-2.8,1.6c-1.1,0.1-2.3,0.1-3.4,0.1
			c-38.5,0-77.1,0-115.6,0c-1.2,0-2.5,0.1-3.7-0.2c-1.2-0.3-2.5-0.6-2.4-2.3c1.5-3.4,3.6-6.5,6.1-9.3c1.4-0.9,2.9-0.9,4.5-0.9
			c35.6,0,71.3,0,106.9,0C1038.8,90.3,1039.9,90.5,1041,90.7z"/>
		<path class="st5" d="M1041,90.7c-0.6,0.8-1.4,0.7-2.3,0.7c-37.5,0-75,0-112.5-0.1c3.7-5.2,8.2-9.5,13.3-13.2
			c2.3,0.4,4.6,0.4,6.8,0.4c27.1,0,54.1-0.1,81.2,0.1c0.3,0,0.6-0.1,0.9-0.2C1033.3,81.8,1037.5,85.9,1041,90.7z"/>
		<path class="st20" d="M884.5,207.8c-1.1,1.1-2.6,0.6-3.9,0.6c-67.4,0-134.7,0-202.1,0c0-1.9,0-3.8,0-5.6c1.6-1.4,3.6-1,5.4-1
			c27.2,0,54.4,0,81.6,0c37,0,74,0,111,0c2.1,0,4.2-0.1,6.1,1C883.8,204.3,884.4,206,884.5,207.8z"/>
		<path class="st11" d="M920.1,100.6c0.6,1.5,1.8,1.4,3.1,1.4c40.5,0,81.1,0,121.6,0c1.2,0,2.3-0.2,3.3-0.7c1.7,2.3,2.9,4.9,4.2,7.5
			c0.1,1.7-1.2,2-2.4,2.2c-1.2,0.2-2.5,0.2-3.7,0.2c-41.2,0-82.4,0-123.6,0c-1.4,0-2.7,0.1-4.1-0.2c-1.4-0.3-2.7-0.8-2.1-2.7
			C917.1,105.4,918.5,102.9,920.1,100.6z"/>
		<path class="st14" d="M988.5,134.6c-3.4-4.5-5.7-4.5-9.4,0c-1.2,1-2.7,1-4.1,1c-20,0-39.9,0-59.9,0c-1.4,0-2.9,0.1-4.1-1
			c-0.1-2.3-0.2-4.6,0.5-6.9c1.8-1.5,4-1,6-1c45.6,0,91.2,0,136.7,0c2.7,0,5.4,0,8.1-0.3c1.5,2,2.7,4.2,3.7,6.4
			c0.7,1.7-0.8,1.9-1.7,2.3c-1.6,0.6-3.3,0.5-4.9,0.5c-21.9,0-43.8,0-65.7,0C991.9,135.6,990.1,135.7,988.5,134.6z"/>
		<path class="st6" d="M1028.5,78.3c-0.3,1.5-1.6,1.1-2.5,1.1c-27.9,0-55.8,0-83.7,0c-1.1,0-2.4,0.3-2.7-1.4
			c14.5-11.2,31-15.6,49.1-14.7c12.4,0.7,23.9,4.4,34.4,11C1024.9,75.6,1026.7,77,1028.5,78.3z"/>
		<path class="st21" d="M882.8,202.7c-32.4,0-64.8,0-97.2,0c-35.6,0-71.3,0-106.9,0c0-1.7,0-3.3,0-5c65.5,0,131,0,196.5,0
			c1.3,0,3.3,1,3.9-1.4C880.8,198.1,881.8,200.4,882.8,202.7z"/>
		<path class="st22" d="M175.2,134.1c1.1-1.3,2.5-0.7,3.8-0.7c27.9,0,55.8-0.1,83.8-0.1c-4.8,4.6-9.7,9.1-15,13.2
			c-0.9,0.6-1.9,0.7-3,0.7c-17.6-0.5-35.2-0.5-52.8,0c-1.1,0-2.1-0.2-3-0.7C184.2,142.5,179.6,138.5,175.2,134.1z"/>
		<path class="st23" d="M1062.3,126.3c-0.1,0.8-0.5,1.3-1.4,1.4c-0.9,0-1.9,0-2.8,0c-48.9,0-97.8,0-146.7,0c-0.1-2.4,0.4-4.8,1.1-7
			c1-0.2,2.1-0.3,3.1-0.3c46.4,0,92.8,0,139.1,0c1.5,0,2.9,0.1,4.3,0.4C1060.5,122.5,1061.6,124.3,1062.3,126.3z"/>
		<path class="st16" d="M460.2,103.9c0-4.4,0-8.8,0-13.1c1.2-1.2,2.7-1,4.1-1c19.9,0,39.8,0,59.8,0c1.4,0,3-0.1,4.1,1
			c0,4.4,0,8.8,0,13.1c-1.2,1.2-2.7,1-4.1,1c-19.9,0-39.8,0-59.8,0C462.9,104.9,461.4,105,460.2,103.9z"/>
		<path class="st24" d="M528.2,90.7c-22.7,0-45.3,0-68,0c0-4.4,0-8.8,0-13.1c1.2-1.2,2.7-1,4.1-1c19.9,0,39.8,0,59.8,0
			c1.4,0,3-0.1,4.1,1C528.2,82,528.2,86.3,528.2,90.7z"/>
		<path class="st16" d="M1170,101.4c0-4.4,0-8.8,0-13.1c1.2-1.1,2.7-1,4.1-1c19.8,0,39.6,0,59.4,0c0.9,0,1.9,0.1,2.8,0.4
			c1.4,2.7,1.9,5.7,1.9,8.7c0.3,1.8,0.6,3.6-0.2,5.4c-1.3,0.9-2.8,0.8-4.2,0.8c-19.8,0-39.6,0-59.4,0
			C1172.9,102.4,1171.3,102.6,1170,101.4z"/>
		<path class="st24" d="M1236.3,87.6c-1,1.1-2.3,0.6-3.5,0.6c-20.9,0-41.9,0-62.8,0c0-4.4,0-8.8,0-13.1c1.2-1.1,2.7-1,4.1-1
			c16.4,0,32.7,0,49.1,0c1.5,0,2.9,0.4,4.3,0.5C1231.7,78.1,1234.8,82.3,1236.3,87.6z"/>
		<path class="st25" d="M189,146.5c19.6-1.1,39.2-1,58.8,0c-2.3,3-5.4,5.1-8.1,7.6c-6.5,5.9-13.1,11.7-19.6,17.5
			c-1.1,1-1.7,1.4-3.1,0.2C207.7,163.3,198.3,154.9,189,146.5z"/>
		<path class="st26" d="M1059.2,120.7c-0.9,1.1-2.1,0.6-3.2,0.6c-46.6,0-93.3,0-139.9,0c-1.2,0-2.5,0.5-3.5-0.8
			c-0.1-1.8,0.3-3.4,1.2-4.9c1.4-1.1,3.1-1,4.8-1c44.6,0,89.1,0,133.7,0c1.3,0,2.5,0.1,3.7,0.5
			C1057.6,116.8,1057.9,119,1059.2,120.7z"/>
		<path class="st27" d="M1056,115.2c-0.6,0.7-1.5,0.6-2.3,0.6c-46.6,0-93.3,0-139.9,0c0.4-2.7,1.3-5.2,2.6-7.5
			c0.1,1.2,0.8,1.9,2,1.9c0.7,0,1.5,0,2.2,0c42.5,0,85.1,0,127.6,0c1.5,0,3.2,0.6,4.1-1.4C1053.8,110.8,1055,112.9,1056,115.2z"/>
		<path class="st1" d="M528.2,77.6c-22.7,0-45.3,0-68,0c0-3.6-1.3-8.3,0.4-10.6c1.7-2.2,6.6-0.6,10.1-0.6c18.2-0.1,36.5,0,54.7-0.1
			c2.3,0,3.1,0.5,2.9,2.9C528.1,71.9,528.2,74.8,528.2,77.6z"/>
		<path class="st28" d="M1238,101.4c0.1-1.7,0.2-3.4,0.3-5.1c0.6,0.8,0.4,1.8,0.4,2.7c-0.1,38.5-0.1,76.9-0.2,115.4
			c0,0.7-0.1,1.4-0.2,2.2c-22.7,0-45.5,0-68.2,0.1c0-2.9,0-5.9,0-8.8c1.5-1.3,3.3-1,5.1-1c18,0,36.1,0,54.1,0c0.9,0,1.9,0,2.8,0
			c4.9,0,4.9,0,5.2-5c-0.1-2-0.1-3.9,0-5.9c-0.1-2.5-0.1-5,0-7.5c-0.1-2.1-0.1-4.2,0-6.3c-0.1-2.1-0.1-4.2,0-6.3
			c-0.1-2.7-0.1-5.4,0-8.1c-0.1-2.1-0.1-4.2,0-6.3c-0.1-2.7-0.1-5.4,0-8c-0.1-2.1-0.1-4.2,0-6.3c-0.1-1.7-0.1-3.4,0-5.1
			c-0.1-2.1-0.1-4.2,0-6.2c-0.1-1.9-0.1-3.8,0-5.7c-0.1-2.3-0.1-4.6,0-6.9c-0.1-2.5-0.1-5,0-7.5c-0.1-1.9-0.1-3.9,0-5.8
			C1237.4,107.1,1236.6,104.2,1238,101.4z"/>
		<path class="st29" d="M669.2,142.1c-3.9,2.1-7.9,4.2-11.8,6.3c-1.7,0.8-3.6,1-5.5,1c-26.2,0-52.5,0-78.7,0c-1.1,0-2.3,0.1-3.4-0.3
			c-1-0.3-2.1-0.6-1.5-2.1c0.7-2.6,2.4-4.6,3.8-6.8c30.8,0.5,61.6,0.1,92.4,0.2C666.3,140.5,668.2,140.1,669.2,142.1z"/>
		<path class="st30" d="M619.7,216.6c-22.9,0-45.8,0-68.7,0c0-3.2-0.3-6.4,0.4-9.5c1-0.3,2.1-0.3,3.1-0.3c20.2,0,40.5,0,60.7,0
			c1.7,0,3.6-0.3,5.1,1C620.1,210.7,619.9,213.7,619.7,216.6z"/>
		<path class="st11" d="M1238,101.4c0,2.9,0,5.8,0,8.8c-1.2,1.2-2.7,1-4.1,1c-19.9,0-39.8,0-59.7,0c-1.4,0-2.9,0.1-4.1-1
			c0-2.9,0-5.8,0-8.8C1192.7,101.4,1215.3,101.4,1238,101.4z"/>
		<path class="st31" d="M528.2,123.9c0,2.9,0,5.8,0,8.8c-1.2,1.2-2.7,1-4.1,1c-19.9,0-39.8,0-59.8,0c-1.4,0-3,0.1-4.1-1
			c0-2.9,0-5.8,0-8.8c1.2-1.2,2.7-1,4.1-1c19.9,0,39.8,0,59.8,0C525.5,122.9,527,122.8,528.2,123.9z"/>
		<path class="st32" d="M460.2,163.3c0-2.9,0-5.8,0-8.8c1.2-1.2,2.7-1,4.1-1c19.9,0,39.8,0,59.8,0c1.4,0,3-0.1,4.1,1
			c0,2.9,0,5.8,0,8.8c-1.2,1.2-2.7,1-4.1,1c-19.9,0-39.8,0-59.8,0C462.9,164.4,461.4,164.5,460.2,163.3z"/>
		<path class="st21" d="M1028.5,204.7c-1.4-2.5-2.9-5-4.3-7.5c1.2-1.2,2.7-1,4.1-1c23.7,0,47.3,0,71,0c1.1,0,2.1,0.2,3.1,0.4
			c1.5,2.1,2.8,4.4,3.8,6.8c0.2,1.5-0.9,1.9-2.1,2.2c-0.9,0.2-1.9,0.2-2.8,0.2c-22.8,0-45.6,0-68.3,0
			C1031.4,205.7,1029.9,205.6,1028.5,204.7z"/>
		<path class="st33" d="M635.9,168.3c-1.7,2.5-3.3,5-5,7.5c-0.7,0.5-1.6,0.5-2.4,0.5c-22.3-0.2-44.6,0-66.8-0.1
			c-1.6,0-3.4,0.3-4.7-1.1c0.5-2.8,1.4-5.6,2.6-8.2c1-0.3,2-0.3,3.1-0.3c22.4,0,44.8,0,67.2,0C632,166.7,634.3,166.2,635.9,168.3z"
			/>
		<path class="st13" d="M528.2,216.6c-22.7,0-45.4,0-68,0c0-2.7,0-5.5,0-8.2c1.2-1.2,2.7-1,4.1-1c19.9,0,39.8,0,59.8,0
			c1.4,0,3-0.1,4.1,1C528.2,211.1,528.2,213.9,528.2,216.6z"/>
		<path class="st34" d="M1238,167.7c0,2.7,0,5.4,0,8.1c-1.2,1.2-2.7,1-4.1,1c-19.9,0-39.8,0-59.8,0c-1.4,0-3,0.1-4.1-1
			c0-2.7,0-5.4,0-8.1c1.2-1.1,2.7-1,4.1-1c19.9,0,39.8,0,59.8,0C1235.3,166.7,1236.9,166.6,1238,167.7z"/>
		<path class="st33" d="M979,166.5c0,2.7,0,5.4,0,8.1c-1.2,1.1-2.7,1-4.1,1c-20,0-39.9,0-59.9,0c-1.4,0-2.9,0.1-4.1-1
			c0-2.7,0-5.4,0-8.1c1.2-1.1,2.7-1,4.1-1c19.9,0,39.9,0,59.8,0C976.3,165.5,977.8,165.4,979,166.5z"/>
		<path class="st35" d="M1238,153.3c0,2.7,0,5.4,0,8.1c-1.2,1.2-2.7,1-4.1,1c-19.9,0-39.8,0-59.8,0c-1.4,0-3,0.1-4.1-1
			c0-2.7,0-5.4,0-8.1c1.2-1.1,2.7-1,4.1-1c19.9,0,39.8,0,59.7,0C1235.3,152.3,1236.8,152.2,1238,153.3z"/>
		<path class="st36" d="M568.3,147c0.4,2.1,2.1,1.3,3.3,1.3c24.5,0,49.1,0,73.6,0c4.1,0,8.1,0,12.2,0.1c-3.1,2.3-6.2,4.6-9.3,6.9
			c-2.2,0.5-4.4,0.3-6.5,0.3c-23.9,0-47.7,0-71.6,0c-1.8,0-3.8,0.4-5.4-1C565.5,151.9,566.8,149.4,568.3,147z"/>
		<path class="st37" d="M635.9,168.3c-1.6-0.5-3.2-0.6-4.9-0.6c-22.6,0-45.3,0-67.9,0c-1.2,0-2.5,0.5-3.5-0.7
			c0.5-2.2,1.3-4.3,2.3-6.2c1.4-1,2.9-1,4.5-1c23.4,0,46.8,0,70.2,0c1.8,0,3.8-0.4,5,1.6C639.7,163.8,637.8,166.1,635.9,168.3z"/>
		<path class="st38" d="M1069.9,139.5c1.6,2,2.7,4.3,3.7,6.6c0.5,1.6-0.8,1.7-1.8,1.9c-1.2,0.3-2.5,0.2-3.7,0.2
			c-22.3,0-44.6,0-66.9,0c-1.9,0-3.8,0.2-5.5-0.9c-1.4-2-2.7-4.1-3.6-6.3c1.2-2.1,3.2-1.6,5-1.6c14.5-0.1,28.9,0,43.4,0
			c8.6,0,17.3,0,25.9,0C1067.6,139.1,1068.7,139.1,1069.9,139.5z"/>
		<path class="st39" d="M1102.4,196.5c-1,1.1-2.3,0.7-3.5,0.7c-24.9,0-49.8,0-74.6,0c-1.5-2.2-2.9-4.4-3.9-6.9c1.6-1,3.4-1,5.1-1
			c23,0,46.1,0,69.1,0c1.5,0,2.9,0.1,4.2,0.9C1100,192.3,1101.2,194.4,1102.4,196.5z"/>
		<path class="st40" d="M1017.1,184.7c-1.2-2.1-2.4-4.2-3.5-6.3c1.5-2,3.7-1.6,5.7-1.6c20.8,0,41.5,0,62.3,0c3.2,0,6.5-0.3,9.7,0.2
			c1.6,1.9,2.5,4.2,3.7,6.4c0.6,1.5-0.5,1.8-1.5,2.1c-1.3,0.4-2.7,0.3-4,0.3c-22.3,0-44.6,0-66.8,0
			C1020.6,185.7,1018.7,185.9,1017.1,184.7z"/>
		<path class="st41" d="M552.7,195.3c0-2.6,0.5-5.1,1.3-7.5c1.2-1,2.7-1,4.2-1c20.5,0,41.1,0,61.6,0c1.8,0,3.8-0.2,5.1,1.7
			c-0.7,2.3-1.4,4.6-2.2,6.9c-0.8,1.4-2.2,1-3.4,1c-20.5,0-41.1,0-61.6,0C556,196.3,554.1,196.6,552.7,195.3z"/>
		<path class="st42" d="M669.2,142.1c-1.3-0.8-2.8-0.7-4.3-0.7c-29.4,0-58.8,0-88.2,0c-1.7,0-3.4,0.3-4.6-1.2c0.8-1.8,1.8-3.5,3.1-5
			c0.6,2,2.2,1.2,3.4,1.2c33,0,66.1,0,99.1,0c1.6,0,3.4-0.3,4.6,1.3C678,139.2,673.6,140.7,669.2,142.1z"/>
		<path class="st35" d="M641.7,161.5c-1.3-0.8-2.8-0.6-4.2-0.6c-25.2,0-50.3-0.1-75.5-0.1c0.7-2.2,1.4-4.3,2.7-6.2
			c26.3,0,52.6,0,78.9,0c1.6,0,3.1-0.2,4.5,0.7C645.9,157.4,643.8,159.4,641.7,161.5z"/>
		<path class="st43" d="M1238.1,188.4c0,2.5,0,5,0,7.5c-1.2,1.2-2.7,1-4.1,1c-19.9,0-39.9,0-59.8,0c-1.4,0-2.9,0.1-4.1-1
			c0-2.5,0-5,0-7.5c1.2-1.1,2.7-1,4.1-1c19.9,0,39.8,0,59.8,0C1235.4,187.4,1236.9,187.2,1238.1,188.4z"/>
		<path class="st44" d="M1238,115.8c0,2.5,0,5,0,7.5c-1.2,1.2-2.7,1-4.1,1c-19.9,0-39.8,0-59.7,0c-1.4,0-3,0.1-4.1-1
			c0-2.5,0-5,0-7.5c1.2-1.1,2.7-1,4.1-1c19.9,0,39.8,0,59.7,0C1235.3,114.8,1236.8,114.6,1238,115.8z"/>
		<path class="st45" d="M460.2,103.9c22.7,0,45.3,0,68,0c0,2.5,0,5,0,7.5c-1.2,1.2-2.7,1-4.1,1c-19.9,0-39.8,0-59.8,0
			c-1.4,0-3,0.1-4.1-1C460.2,108.9,460.2,106.4,460.2,103.9z"/>
		<path class="st34" d="M460.2,176.5c0-2.5,0-5,0-7.5c1.2-1.2,2.7-1,4.1-1c19.9,0,39.8,0,59.8,0c1.4,0,3-0.1,4.1,1c0,2.5,0,5,0,7.5
			c-1.2,1.2-2.7,1-4.1,1c-19.9,0-39.8,0-59.8,0C462.9,177.5,461.4,177.6,460.2,176.5z"/>
		<path class="st46" d="M1113.8,216.5c-8.8,0-17.7,0.1-26.5,0.1c-17.3,0-34.6,0-51.8,0c-1.6-1.9-2.6-4.1-3.7-6.3
			c1.6-1.4,3.6-1,5.4-1c22.1,0,44.2,0,66.3,0c2.2,0,4.4-0.7,6.5,0.4C1111.4,211.8,1112.8,214,1113.8,216.5z"/>
		<path class="st47" d="M1009.9,172.1c-1.2-2.1-2.3-4.1-3.5-6.2c1.2-2.1,3.2-1.7,5-1.7c12.1-0.1,24.2,0,36.2,0c10,0,20,0,30,0
			c2,0,4-0.1,5.8-0.8c2,2.4,2.7,5.5,4.6,8c-1.6,1.5-3.5,1-5.3,1c-22,0-44.1,0-66.1,0C1014.4,172.5,1012.1,173.3,1009.9,172.1z"/>
		<path class="st48" d="M1083.6,163.4c0.1,2.5-1.9,1.8-3.1,1.8c-23.2,0-46.5,0-69.7,0c-1.5,0-2.9-0.1-4.3,0.7
			c-1.4-2-2.7-4.1-3.6-6.3c1.3-2.2,3.5-1.6,5.3-1.6c16.4-0.1,32.9,0,49.3,0c6.6,0,13.1,0,19.7,0c1.2,0,2.3,0.1,3.4,0.4
			C1081.9,159.8,1082.8,161.6,1083.6,163.4z"/>
		<path class="st49" d="M1009.9,172.1c2.5-0.7,5.1-0.6,7.7-0.6c23.5,0,47,0,70.5,0c1.3,1.7,2.3,3.5,3.1,5.5c-1,1.4-2.5,0.8-3.8,0.8
			c-23,0-46,0-69,0c-1.7,0-3.3,0.1-4.9,0.6C1012.3,176.3,1011.1,174.2,1009.9,172.1z"/>
		<path class="st50" d="M995.7,147.2c24.8,0,49.5,0,74.3-0.1c1.2,0,2.8,0.8,3.5-1c1.9,1.8,2.2,4.6,3.8,6.6c0,1.4-1.1,1.4-1.9,1.6
			c-1,0.2-2.1,0.2-3.1,0.2c-22.7,0-45.4,0-68,0c-1.8,0-3.6,0.1-5.1-1C998,151.3,996.9,149.2,995.7,147.2z"/>
		<path class="st43" d="M460.2,195.9c0-2.3,0-4.6,0-6.9c1.2-1.2,2.7-1,4.1-1c19.9,0,39.8,0,59.8,0c1.4,0,3-0.1,4.1,1
			c0,2.3,0,4.6,0,6.9c-1.2,1.2-2.7,1-4.1,1c-19.9,0-39.8,0-59.8,0C462.9,196.9,461.4,197.1,460.2,195.9z"/>
		<path class="st41" d="M910.9,194.6c0-2.3,0-4.6,0-6.9c1.2-1.1,2.7-1,4.1-1c19.9,0,39.9,0,59.8,0c1.4,0,2.9-0.1,4.1,1
			c0,2.3,0,4.6,0,6.9c-1.2,1.1-2.7,1-4.1,1c-20,0-39.9,0-59.9,0C913.6,195.7,912.1,195.8,910.9,194.6z"/>
		<path class="st31" d="M1170,123.3c22.7,0,45.3,0,68,0c0,2.3,0,4.6,0,6.9c-1.2,1.2-2.7,1-4.1,1c-19.9,0-39.8,0-59.7,0
			c-1.4,0-3,0.1-4.1-1C1170,127.9,1170,125.6,1170,123.3z"/>
		<path class="st51" d="M528.2,189c-22.7,0-45.3,0-68,0c0-2.3,0-4.6,0-6.9c1.2-1.2,2.7-1,4.1-1c19.9,0,39.8,0,59.8,0
			c1.4,0,3-0.1,4.1,1C528.2,184.4,528.2,186.7,528.2,189z"/>
		<path class="st51" d="M979,187.8c-22.7,0-45.4,0-68.1,0c0-2.3,0-4.6,0-6.9c1.2-1.1,2.7-1,4.1-1c19.9,0,39.9,0,59.8,0
			c1.4,0,2.9-0.1,4.1,1C979,183.2,979,185.5,979,187.8z"/>
		<path class="st37" d="M979,166.5c-22.7,0-45.4,0-68.1,0c0-2.3,0-4.6,0-6.9c1.2-1.1,2.7-1,4.1-1c20,0,39.9,0,59.9,0
			c1.4,0,2.9-0.1,4.1,1C979,161.9,979,164.2,979,166.5z"/>
		<path class="st52" d="M910.9,134.6c22.7,0,45.5,0,68.2,0c0,2.3-0.1,4.6-0.1,6.9c-1.2,1.1-2.7,1-4.1,1c-20,0-39.9,0-59.9,0
			c-1.4,0-2.9,0.1-4.1-1C910.9,139.1,910.9,136.8,910.9,134.6z"/>
		<path class="st53" d="M556.9,175.2c23,0,46,0,69.1,0c1.7,0,3.3,0.1,4.9,0.6c-1.1,2.1-2.2,4.2-3.3,6.3c-0.8,0.6-1.8,0.5-2.7,0.5
			c-21.4-0.2-42.9,0-64.3-0.1c-1.8,0-3.8,0.4-5.4-1C555.3,179.3,556.2,177.2,556.9,175.2z"/>
		<path class="st54" d="M555.3,181.5c22.6,0,45.2,0,67.8,0c1.6,0,3.1,0.1,4.6,0.6c-0.9,2.1-1.9,4.2-2.8,6.3
			c-1.8-0.6-3.6-0.7-5.5-0.7c-21.8,0-43.6,0-65.4,0C554,185.6,554.5,183.5,555.3,181.5z"/>
		<path class="st42" d="M1069.9,139.5c-1,1.2-2.3,0.7-3.5,0.7c-23.3,0-46.6,0-70,0c-1.4,0-2.9-0.2-4.3,0.6c-1.2-2.1-2.4-4.2-3.6-6.3
			c24.1,0,48.2,0,72.4,0c1.9,0,4,0.3,5.1-1.8C1067.6,134.8,1068.8,137.1,1069.9,139.5z"/>
		<path class="st6" d="M1227.5,74.6c-1.1,0.9-2.4,0.5-3.6,0.5c-18,0-35.9,0-53.9,0c-0.6-8.5-0.6-8.5,7.8-8.4
			c11,0.1,22.1-0.5,33.1,0.3C1217.2,67.4,1222.8,70.2,1227.5,74.6z"/>
		<path class="st55" d="M1017.1,184.7c24.8,0,49.6,0,74.5-0.1c1.2,0,2.9,0.8,3.3-1.3c1.6,2.1,2.8,4.5,4,6.9
			c-24.4,0-48.8,0.1-73.3,0.1c-1.7,0-3.5,0-5.2,0C1019,188.6,1018,186.6,1017.1,184.7z"/>
		<path class="st56" d="M1109.9,209.7c-1.6,0.5-3.2,0.7-4.9,0.7c-24.4,0-48.9,0-73.3,0c-1.1-1.9-2.1-3.8-3.2-5.6
			c24.5,0,49.1,0,73.6,0c1.5,0,3.2,0.5,4.1-1.4C1107.8,205.2,1108.8,207.5,1109.9,209.7z"/>
		<path class="st57" d="M999.2,153.3c24.9,0,49.8,0,74.7,0c1.2,0,2.5,0.5,3.5-0.7c1.5,1.7,2.1,3.8,3.2,5.7c-1.3,0.8-2.8,0.7-4.2,0.7
			c-23.1,0-46.2,0-69.3,0c-1.4,0-2.9-0.2-4.3,0.6C1001.6,157.5,1000.4,155.4,999.2,153.3z"/>
		<path class="st58" d="M552.7,195.3c21.7,0,43.4,0,65.2,0c1.6,0,3.3,0,4.9,0c-0.4,1.7-0.8,3.3-1.2,5c-0.4,1.8-1.8,2.1-3.3,2.2
			c-2.1,0.1-4.2,0.1-6.2,0.1c-18.1,0-36.2,0-54.3,0c-1.4,0-2.7,0.1-4-0.2c-1.5-0.3-2.2-1.1-1.5-2.7
			C552.1,198.1,551.9,196.6,552.7,195.3z"/>
		<path class="st59" d="M552.1,199.6c-0.1,2.4,1.7,1.9,3,1.9c14.1,0,28.1,0,42.2,0c7,0,13.9,0,20.9,0c1.3,0,2.5,0,3.3-1.2
			c-0.4,2.5-0.8,5-1.2,7.5c-21.8,0-43.6,0-65.3,0c-1.2,0-2.5,0.5-3.5-0.7C551.5,204.6,551.2,202,552.1,199.6z"/>
		<path class="st60" d="M460.2,143.9c0-2.1,0-4.2,0-6.3c1.2-1.2,2.7-1,4.1-1c19.9,0,39.8,0,59.8,0c1.4,0,3-0.1,4.1,1
			c0,2.1,0,4.2,0,6.3c-1.2,1.2-2.7,1-4.1,1c-19.9,0-39.8,0-59.8,0C462.9,145,461.4,145.1,460.2,143.9z"/>
		<path class="st20" d="M528.2,208.4c-22.7,0-45.3,0-68,0c0-2.1,0-4.2,0-6.3c1.2-1.2,2.7-1,4.1-1c19.9,0,39.8,0,59.8,0
			c1.4,0,3-0.1,4.1,1C528.2,204.2,528.2,206.3,528.2,208.4z"/>
		<path class="st59" d="M1238.1,201.5c0.4,6.3,0.4,6.3-5.7,6.3c-20.8,0-41.6,0-62.3,0c0-2.1,0-4.2,0-6.3c1.2-1.1,2.7-1,4.1-1
			c19.9,0,39.9,0,59.8,0C1235.4,200.5,1236.9,200.4,1238.1,201.5z"/>
		<path class="st36" d="M910.9,153.3c0-2.1,0-4.2,0-6.3c1.2-1.1,2.7-1,4.1-1c20,0,39.9,0,59.9,0c1.4,0,2.9-0.1,4.1,1
			c0,2.1,0,4.2,0,6.3c-1.2,1.1-2.7,1-4.1,1c-20,0-39.9,0-59.9,0C913.6,154.3,912.1,154.5,910.9,153.3z"/>
		<path class="st61" d="M460.2,111.4c22.7,0,45.3,0,68,0c0,2.1,0,4.2,0,6.3c-1.2,1.2-2.7,1-4.1,1c-19.9,0-39.8,0-59.8,0
			c-1.4,0-3,0.1-4.1-1C460.2,115.6,460.2,113.5,460.2,111.4z"/>
		<path class="st52" d="M1238,135.8c0,2.1,0,4.2,0,6.3c-1.2,1.2-2.7,1-4.1,1c-19.9,0-39.8,0-59.8,0c-1.4,0-3,0.1-4.1-1
			c0-2.1,0-4.2,0-6.3c1.2-1.1,2.7-1,4.1-1c19.9,0,39.8,0,59.7,0C1235.3,134.8,1236.8,134.6,1238,135.8z"/>
		<path class="st62" d="M528.2,202.2c-22.7,0-45.3,0-68,0c0-2.1,0-4.2,0-6.3c22.7,0,45.3,0,68,0C528.2,198,528.2,200.1,528.2,202.2z
			"/>
		<path class="st58" d="M910.9,194.6c22.7,0,45.4,0,68.1,0c0,2.1,0,4.2,0,6.3c-1.2,1.1-2.7,1-4.1,1c-20,0-39.9,0-59.8,0
			c-1.4,0-2.9,0.1-4.1-1C910.9,198.8,910.9,196.7,910.9,194.6z"/>
		<path class="st36" d="M1238,153.3c-22.7,0-45.3,0-68,0c0-2.1,0-4.2,0-6.3c1.2-1.1,2.7-1,4.1-1c19.9,0,39.8,0,59.7,0
			c1.4,0,3-0.2,4.1,1C1238,149.1,1238,151.2,1238,153.3z"/>
		<path class="st36" d="M528.2,154.6c-22.7,0-45.4,0-68,0c0-2.1,0-4.2,0-6.3c1.2-1.2,2.7-1,4.1-1c19.9,0,39.8,0,59.8,0
			c1.4,0,3-0.1,4.1,1C528.2,150.4,528.2,152.5,528.2,154.6z"/>
		<path class="st35" d="M910.9,153.3c22.7,0,45.4,0,68.1,0c0,2.1,0,4.2,0,6.3c-22.7,0-45.4,0-68.1,0
			C910.9,157.5,910.9,155.4,910.9,153.3z"/>
		<path class="st63" d="M1170,161.5c22.7,0,45.4,0,68,0c0,2.1,0,4.2,0,6.3c-22.7,0-45.4,0-68,0C1170,165.6,1170,163.6,1170,161.5z"
			/>
		<path class="st26" d="M460.2,117.6c22.7,0,45.3,0,68,0c0,2.1,0,4.2,0,6.3c-22.7,0-45.3,0-68,0
			C460.2,121.8,460.2,119.7,460.2,117.6z"/>
		<path class="st51" d="M1238.1,188.4c-22.7,0-45.4,0-68.1,0c0-2.1,0-4.2,0-6.3c1.2-1.1,2.7-1,4.1-1c19.9,0,39.8,0,59.8,0
			c1.4,0,3-0.2,4.1,1C1238,184.2,1238.1,186.3,1238.1,188.4z"/>
		<path class="st53" d="M979,180.9c-22.7,0-45.4,0-68.1,0c0-2.1,0-4.2,0-6.3c22.7,0,45.4,0,68.1,0C979,176.7,979,178.8,979,180.9z"
			/>
		<path class="st64" d="M1238,182.1c-22.7,0-45.4,0-68,0c0-2.1,0-4.2,0-6.3c22.7,0,45.4,0,68,0C1238,177.9,1238,180,1238,182.1z"/>
		<path class="st46" d="M979,216.6c-22.7,0-45.4,0-68.1,0c0-1.9,0-3.8,0-5.7c1.2-1.1,2.7-1,4.1-1c19.9,0,39.9,0,59.8,0
			c1.4,0,2.9-0.1,4.1,1C979,212.8,979,214.7,979,216.6z"/>
		<path class="st65" d="M979,147.1c-22.7,0-45.4,0-68.1,0c0-1.9,0-3.8,0-5.6c22.7,0,45.4,0,68.1,0C979,143.3,979,145.2,979,147.1z"
			/>
		<path class="st66" d="M1238,115.8c-22.7,0-45.3,0-68,0c0-1.9,0-3.8,0-5.6c22.7,0,45.3,0,68,0C1238,112,1238,113.9,1238,115.8z"/>
		<path class="st62" d="M1238.1,201.5c-22.7,0-45.4,0-68.1,0c0-1.9,0-3.8,0-5.6c22.7,0,45.4,0,68.1,0
			C1238.1,197.8,1238.1,199.6,1238.1,201.5z"/>
		<ellipse class="st63" cx="494.2" cy="166.2" rx="48.1" ry="4"/>
		<path class="st67" d="M1238,135.8c-22.7,0-45.3,0-68,0c0-1.9,0-3.8,0-5.6c22.7,0,45.3,0,68,0C1238,132,1238,133.9,1238,135.8z"/>
		<ellipse class="st64" cx="494.2" cy="179.3" rx="48.1" ry="4"/>
		<path class="st65" d="M1238,147.1c-22.7,0-45.3,0-68,0c0-1.7,0-3.3,0-5c22.7,0,45.3,0,68,0C1238,143.7,1238,145.4,1238,147.1z"/>
		<path class="st56" d="M979,210.9c-22.7,0-45.4,0-68.1,0c0-1.7,0-3.3,0-5c1.2-1.1,2.7-1,4.1-1c19.9,0,39.9,0,59.8,0
			c1.4,0,2.9-0.1,4.1,1C979,207.6,979,209.3,979,210.9z"/>
		<path class="st68" d="M979,205.9c-22.7,0-45.4,0-68.1,0c0-1.7,0-3.3,0-5c22.7,0,45.4,0,68.1,0C979,202.6,979,204.2,979,205.9z"/>
		<path class="st67" d="M528.2,137.7c-22.7,0-45.3,0-68,0c0-1.7,0-3.3,0-5c22.7,0,45.3,0,68,0C528.2,134.3,528.2,136,528.2,137.7z"
			/>
		<path class="st65" d="M528.2,148.3c-22.7,0-45.4,0-68,0c0-1.5,0-2.9,0-4.4c22.7,0,45.3,0,68,0
			C528.2,145.4,528.2,146.9,528.2,148.3z"/>
		<path class="st6" d="M1269.5,97.6c-8.5,0-15.6-6.9-15.6-15.4c-0.1-8.6,7-15.8,15.6-15.8c8.4,0,15.5,7.2,15.6,15.6
			C1285.1,90.4,1277.9,97.6,1269.5,97.6z"/>
		<path class="st69" d="M1269.4,94.6c-7,0-12.4-5.4-12.4-12.5c0-7.3,5.4-12.7,12.6-12.6c6.9,0.1,12.5,5.8,12.3,12.7
			C1281.8,89.3,1276.4,94.6,1269.4,94.6z"/>
		<path class="st70" d="M1275.9,89.8c-2.7,0.9-4-0.1-4.7-2.4c-0.3-0.9-0.8-1.7-1.2-2.5c-0.4-1-1.1-1.5-2.2-1.3
			c-1.3,0.2-0.8,1.3-0.8,2c-0.1,1-0.1,2.1,0,3.1c0.1,1.1-0.4,1.5-1.4,1.4c-0.9,0-1.6-0.1-1.6-1.3c0-4.5,0-9,0-13.5
			c0-0.6,0.1-1.4,0.9-1.4c2.8,0.1,5.7-0.7,8.3,0.6c2.5,1.2,3.7,4.8,1.8,6.6c-2.2,2.1-1.3,3.7-0.4,5.7
			C1275,87.8,1275.4,88.7,1275.9,89.8z"/>
		<path class="st71" d="M1267,78.2c-0.4-1.4,0.4-2,2.2-1.9c1.9,0.1,3.5,0.5,3.4,2.7c-0.1,2.2-1.9,2.3-3.7,2.4
			C1266.3,81.6,1267.1,79.8,1267,78.2z"/>
	</g>
</g>
</svg>
