<?xml version="1.0" encoding="utf-8"?>
<!-- Generator: Adobe Illustrator 15.0.0, SVG Export Plug-In  -->
<!DOCTYPE svg PUBLIC "-//W3C//DTD SVG 1.1//EN" "http://www.w3.org/Graphics/SVG/1.1/DTD/svg11.dtd" [
	<!ENTITY ns_flows "http://ns.adobe.com/Flows/1.0/">
]>
<svg version="1.1"
	 xmlns="http://www.w3.org/2000/svg" xmlns:xlink="http://www.w3.org/1999/xlink" xmlns:a="http://ns.adobe.com/AdobeSVGViewerExtensions/3.0/"
	 x="0px" y="0px" width="573px" height="129px" viewBox="0 0 573 129" overflow="visible" enable-background="new 0 0 573 129"
	 xml:space="preserve">
<defs>
</defs>
<path d="M465.849,94.192h-11.57l-1.735-4.435c-5.745,3.811-15.119,6.361-24.777,6.361c-31.335,0-50.614-19.361-50.614-47.915
	C377.151,17.546,400.598,0,429.308,0c14.095,0,22.149,3.012,27.479,5.496l-0.869,19.186c-4.628-3.085-12.822-6.363-25.066-6.363
	c-18.605,0-31.814,11.376-31.814,29.79c0,17.367,11.856,29.598,29.693,29.598c6.846,0,11.596-1.005,16.775-3.664V58.616h-19.475
	V42.419h39.817V94.192z"/>
<rect x="179.321" y="1.832" width="21.016" height="92.552"/>
<polygon points="166.787,94.384 145.77,94.384 145.77,53.507 106.725,53.507 106.725,94.384 85.708,94.384 85.804,1.832 
	106.725,1.832 106.725,35.479 145.77,35.479 145.77,2.121 166.787,2.121 "/>
<path d="M573.056,47.915c0,30.272-24.2,48.204-50.423,48.204c-28.439,0-51.387-18.606-51.387-48.204
	C471.246,18.8,494.289,0,522.633,0C548.953,0,573.056,18.511,573.056,47.915z M552.135,47.915c0-18.028-13.884-29.597-29.502-29.597
	c-15.537,0-29.5,11.569-29.5,29.597c0,18.608,13.963,29.887,29.5,29.887C538.54,77.801,552.135,66.624,552.135,47.915z"/>
<path d="M383.997,94.384h-25.066l-5.015-12.822h-39.044l-5.109,12.822h-23.526l42.036-92.552h13.016L383.997,94.384z M346.88,63.533
	l-12.437-32.007l-12.629,32.007H346.88z"/>
<path d="M284.213,72.885l-1.061,18.703c-5.398,2.218-12.004,4.53-23.908,4.53c-28.664,0-51.581-17.062-51.581-48.011
	C207.664,15.33,234.252,0,259.533,0c13.189,0,19.685,2.958,24.583,4.917l-1.157,18.704c-4.821-2.507-11.858-5.303-23.715-5.303
	c-16.391,0-29.792,11.688-29.792,29.886c0,17.934,13.013,29.502,30.37,29.502C271.44,77.706,279.456,74.986,284.213,72.885z"/>
<path d="M76.548,72.885l-1.06,18.703c-5.399,2.218-12.004,4.53-23.909,4.53C22.916,96.119,0,79.056,0,48.107
	C0,15.33,26.588,0,51.868,0c13.19,0,19.685,2.958,24.583,4.917l-1.156,18.704c-4.821-2.507-11.858-5.303-23.716-5.303
	c-16.391,0-29.792,11.688-29.792,29.886c0,17.934,13.013,29.502,30.369,29.502C63.775,77.706,71.79,74.986,76.548,72.885z"/>
<text transform="matrix(1 0 0 1 220.3389 121.9761)" font-family="'Landmark-Inline'" font-size="26.7806">MAGAZINE</text>
</svg>
