<svg xmlns="http://www.w3.org/2000/svg" viewBox="0 0 375.91 177.9"><defs><style>.cls-1{fill:#fefefe;}.cls-2{fill:#fcfcfc;}.cls-3{fill:#205da4;}.cls-4{fill:#6d91c3;}.cls-5{fill:#9cb2d5;}.cls-6{fill:#99b1d4;}.cls-7{fill:#93add2;}.cls-8{fill:#12539f;}.cls-9{fill:#d5deed;}.cls-10{fill:#1f5ca4;}.cls-11{fill:#1656a1;}.cls-12{fill:#1c5aa3;}.cls-13{fill:#225ea5;}.cls-14{fill:#1957a2;}.cls-15{fill:#2660a7;}.cls-16{fill:#9ab2d5;}.cls-17{fill:#0f519e;}.cls-18{fill:#1d5aa3;}.cls-19{fill:#1756a1;}.cls-20{fill:#1a58a2;}.cls-21{fill:#1656a0;}.cls-22{fill:#1655a0;}.cls-23{fill:#9eb4d6;}.cls-24{fill:#7a99c8;}.cls-25{fill:#b1c2de;}.cls-26{fill:#2d65aa;}.cls-27{fill:#a3b8d8;}.cls-28{fill:#cbd5e8;}.cls-29{fill:#2962a9;}.cls-30{fill:#8ba5cf;}.cls-31{fill:#235fa6;}.cls-32{fill:#2b64a9;}.cls-33{fill:#1555a0;}.cls-34{fill:#517db8;}.cls-35{fill:#dee5f0;}.cls-36{fill:#b4c6df;}.cls-37{fill:#84a2cc;}.cls-38{fill:#1856a2;}.cls-39{fill:#4574b3;}.cls-40{fill:#fbfcfc;}.cls-41{fill:#1757a1;}.cls-42{fill:#1556a0;}.cls-43{fill:#f9fafb;}.cls-44{fill:#1858a1;}.cls-45{fill:#1857a2;}.cls-46{fill:#1454a0;}.cls-47{fill:#13549f;}.cls-48{fill:#f6f7fa;}.cls-49{fill:#f6f8fa;}.cls-50{fill:#f2f5f8;}.cls-51{fill:#94add3;}.cls-52{fill:#7496c6;}.cls-53{fill:#7c9cc9;}.cls-54{fill:#6f92c3;}.cls-55{fill:#5b84bc;}.cls-56{fill:#a3b7d9;}.cls-57{fill:#8ea8d0;}.cls-58{fill:#a8bbda;}.cls-59{fill:#7295c5;}.cls-60{fill:#84a1cc;}.cls-61{fill:#96afd3;}.cls-62{fill:#11529f;}</style></defs><title>Asset 2</title><g id="Layer_2" data-name="Layer 2"><g id="Layer_1-2" data-name="Layer 1"><path class="cls-1" d="M188.15,178.25q-92.41,0-184.81.06c-2.38,0-3.17-.23-3.17-3q.16-86,0-172.07C.18.82.86.45,3.1.45q185,.09,370,0c2.78,0,3,.83,3,3.18q-.11,85.85,0,171.69c0,2.65-.64,3-3.12,3Q280.55,178.19,188.15,178.25Z" transform="translate(-0.17 -0.42)"/><path class="cls-2" d="M299.66,61.21a20.1,20.1,0,0,1,4.77-.74c16.12.05,32.24.1,48.36,0,3,0,3.79.9,3.78,3.83q-.17,33,0,66c0,2.92-.76,3.83-3.77,3.82q-169.07-.11-338.14,0c-3.16,0-4-.95-4-4q.18-32.8,0-65.6c0-3.1.83-4.13,4-4,6.11.23,12.24.08,18.37.06a7.34,7.34,0,0,1,4,.76c.56,1.07.64,2.49,2.1,2.91a2.7,2.7,0,0,1,1.18.94,3.12,3.12,0,0,1-.36,2.51C39.09,70,39,72.14,41.5,73.67c1.48,2.19-1.68,3.47-1.06,5.49a2.68,2.68,0,0,1-.23,1,5.2,5.2,0,0,1-1.88,1.72,1.74,1.74,0,0,1-1.49-.22c-.7-.79-.72-1.9-1.3-2.75-2.12-3.06-4.14-6.23-8.12-7.19a13.61,13.61,0,0,0-6.73-.17c-1.74.06-2.87.58-2.55,2.7.57,3.75,2.23,7.14,3.43,10.67.45,1.32,1.78,1.14,2.91,1.16a2.47,2.47,0,0,1,1.46.57c1.19,2.16-.42,4.08-.59,6.12s1.68,3.95-.13,5.64c-1.54,1.45-3.73,1.13-5.68,1.43-.91.14-2,.62-1.79,1.56.82,4.27.69,8.74,2.47,12.82-.25-1.92-1.58-3.59-1.28-5.66-.23-2.27-.58-4.55.45-6.74,3.22-2.34,6.71-1.08,10.09-.63,1.36.18,1.8,1.63,2.23,2.8a54.69,54.69,0,0,1,3.13,10.37,18.38,18.38,0,0,1,0,5.41c-.28,1.29-1.1,2.4-1.38,3.92,2.25-2.45,2.37-2.85,1.93-6.49a15.58,15.58,0,0,0-.57-4.45c-.42-3.37-.37-6.57,3.15-8.47,2.17.47,4.15-.33,6.15-1a45.78,45.78,0,0,0,9-1.84c2.51-.85,3.8.11,4.73,2.56,1.44,3.77.34,6.71-2.24,9.4-1.71,2.85-3.58,5.66-2.19,9.66,1.91-2.9,0-6.27,1.8-8.81.86-1.64,1.92-3.07,3.85-3.54,1.39-.08,1.89-1.05,2.19-2.22a4.81,4.81,0,0,1,1.62-2.1,3.29,3.29,0,0,1,2.14-.6c3.93,1.9,7.22,4.37,8.08,9a14.72,14.72,0,0,1-.14,5.12c-.33,1.18-1.38,2-2,3.6,2.59-2,2.7-4.3,2.57-6.71a50,50,0,0,1,.1-5.15,91.17,91.17,0,0,1,2.26-17.65c.68-3.26-.46-6.34-3.25-7.07-4.75-1.25-9.48-3.19-14.58-1.8a4.39,4.39,0,0,1-2.8-.23c-1.52-1.11-.93-3.49-2.7-4.45a3.6,3.6,0,0,1-.92-1.29c-.36-1.33.32-2.43.82-3.56.87-2,1.28-3.55-1.21-5s-.45-3.13.56-4.58c1.18-1.23.17-2.11-.5-3a1.09,1.09,0,0,1,0-1c.88-2,2.66-1.53,4.23-1.53q24,0,47.93,0,85.19,0,170.39,0a20.38,20.38,0,0,1,6.26.79c.2,1.56-1.29,2-2,2.9-.54.71-1.19,1.38-.46,2.29a1.44,1.44,0,0,0,2,.21c2.81-1.75,5.49-.85,8.19.3,2.44,1,4.92,1.7,7.6.73C298.74,66.49,300,64.67,299.66,61.21Z" transform="translate(-0.17 -0.42)"/><path class="cls-3" d="M299.66,61.21c2.44,1.55,2.06,3,.1,4.79-3.12,2.79-6.45,4-10.58,2.49-3.34-1.19-6.62-3.83-10.32-.33-.94.89-2.17-.79-3-1.57s.07-1.56.64-2.11c1.14-1.12,2.38-2.15,3.58-3.22l1.42-.09a44.94,44.94,0,0,0,5.31,0,23.14,23.14,0,0,1,3.17.9c2.85,1.25,5.59,2.23,8-.87C298.37,60.62,299.07,61.16,299.66,61.21Z" transform="translate(-0.17 -0.42)"/><path class="cls-4" d="M42.29,64.37c1.49.42,3,.71,4.4-.17A1.36,1.36,0,0,1,48.2,64c.62.93.14,1.7-.36,2.47a2.29,2.29,0,0,1-1.38.61,5.6,5.6,0,0,1-1,0,3.39,3.39,0,0,0-1.76.39,1.49,1.49,0,0,1-.92-.14,3.48,3.48,0,0,1-1-1.67A1.26,1.26,0,0,1,42.29,64.37Z" transform="translate(-0.17 -0.42)"/><path class="cls-5" d="M48.18,64.25l-1.49-.05c.8-2.23,1.79-4.05,4.55-2.16a5.18,5.18,0,0,1,0,.74l-.2.46C50.24,64,49.62,65.3,48.18,64.25Z" transform="translate(-0.17 -0.42)"/><path class="cls-6" d="M38.39,64.9c-1.66-.76-2.57-1.81-1.38-3.65,1.82-1,2.37.67,3.3,1.54A6.65,6.65,0,0,1,38.39,64.9Z" transform="translate(-0.17 -0.42)"/><path class="cls-7" d="M42.29,64.37l0,1.37c-.12.9,0,1.89-.89,2.53a1.59,1.59,0,0,1-2.23-1.1L40,65c-.51-1-.38-1.6.83-1.74Z" transform="translate(-0.17 -0.42)"/><path class="cls-8" d="M286.78,61.19a4.15,4.15,0,0,1-5.31,0A5.85,5.85,0,0,1,286.78,61.19Z" transform="translate(-0.17 -0.42)"/><path class="cls-9" d="M40.8,63.28,40,65l-1.58-.11c0-1.31.23-2.35,1.92-2.11A.89.89,0,0,1,40.8,63.28Z" transform="translate(-0.17 -0.42)"/><path class="cls-10" d="M311.44,108.59c-2-9-1.72-17.85,1.81-26.37,3-7.13,8.85-10.22,16.38-10.18S343,75.19,345.91,82.37a43.35,43.35,0,0,1,1.73,26.38c-.94-1-.34-2.18-.46-3.28.07,1.27-.46,2.59.37,3.79-1.39,10.12-8.15,16.07-18.16,16s-16.77-6.3-18-16.69a2.12,2.12,0,0,0,.45-1.73c.08-.49-.08-.35-.07-.25A2.32,2.32,0,0,1,311.44,108.59Z" transform="translate(-0.17 -0.42)"/><path class="cls-10" d="M249.26,74c8.9.13,15.38,4.65,17.92,13a39.57,39.57,0,0,1-.75,26c-2.11,5.57-5.59,10-11.93,11.19-1-.69-2.07-.3-3.64-.41,1.39.21,2.37-.34,3.11.52-2.48,1.1-5.08.94-7.69.72-3.28-1-6.64-.4-10-.4-2.46,0-3.62-.57-3.6-3.29q.11-21.86,0-43.72c0-2.66,1-3.34,3.55-3.35C240.6,74.32,244.95,74.85,249.26,74Z" transform="translate(-0.17 -0.42)"/><path class="cls-10" d="M146.58,124.3c-10.08,3.24-19.64-.75-23.55-9.71-1-2.39-1.17-4,2-4.39a12.27,12.27,0,0,0,2.89-.8c2.6-1,4.55-1.24,5.59,2.25.75,2.51,3,3.88,5.72,4.29,3.81.58,7.21-1.13,7.89-4.09.86-3.75-1.55-5.54-4.47-6.8-3.21-1.39-6.58-2.41-9.72-3.94-7-3.39-9.87-9-8.61-16.17,1.23-7,6.09-11.58,13.45-12.64,9-1.3,16.13,2,19.29,8.86,1,2.26.74,3.45-1.73,4a13.37,13.37,0,0,0-2.81,1c-2.41,1.17-4.32,1.8-5.74-1.62-1.09-2.62-3.79-3.47-6.66-3.17a4.78,4.78,0,0,0-4.58,3.78,4.14,4.14,0,0,0,2.61,4.89c4,1.84,8.11,3.28,12,5.21,7.58,3.74,10.56,10.16,8.36,18-1.7,6-5.61,9.87-11.91,11.05a2.12,2.12,0,0,0-1.73-.44c-.49-.07-.34.08-.25.07A2.35,2.35,0,0,1,146.58,124.3Z" transform="translate(-0.17 -0.42)"/><path class="cls-10" d="M88.13,99.49c0-7.49.1-15-.05-22.47-.05-2.56.64-3.46,3.32-3.41q12.91.24,25.84,0c2.51,0,3.46.66,3.1,3.13a7.89,7.89,0,0,0,0,2.24c.39,2.7-.5,3.79-3.43,3.63-4.6-.25-9.24,0-13.85-.11-2.32-.07-3.26.47-3.27,3.07,0,8.83-.13,8.83,8.69,8.83H110c5.76,0,7.13,1.86,5.82,7.54-.39,1.68-1.51,1.38-2.56,1.39-3.62,0-7.24.1-10.86,0-2-.07-2.48.68-2.56,2.6-.41,10.16-.46,10.16,9.55,10.16h4.87c6.3,0,7.24,1.25,6.11,7.61-.29,1.62-1.21,1.62-2.36,1.62-9.11,0-18.22-.06-27.34,0-2.39,0-2.55-1.17-2.54-3C88.16,114.72,88.13,107.1,88.13,99.49Z" transform="translate(-0.17 -0.42)"/><path class="cls-10" d="M298.75,125c-1.62-2.3-1.73-5.1-2.41-7.69-.48-1.84-1.22-2.88-3.3-2.61-1.11.14-2.25,0-3.37,0-2.85.16-6.26-1.1-8.41.51s-1.83,5-2.36,7.68c-.47,2.4-1.9,2.44-3.78,2.45-7.69,0-7.7.08-5.46-7.24q6.26-20.41,12.57-40.81c.35-1.12.24-2.53,1.51-3.25,3.77.77,7.58.23,11.37.37q7.6,24,14.13,48.35c-.22,1.83-1.51,1.81-3,1.9C303.78,124.81,301.23,124.06,298.75,125Z" transform="translate(-0.17 -0.42)"/><path class="cls-10" d="M217,125c-2-2.14-1.81-5-2.53-7.59-.56-2-1.3-3.13-3.53-2.8a20.81,20.81,0,0,1-2.62,0c-3,.06-6.49-.81-8.83.46s-1.89,5.15-2.59,7.9c-.48,1.88-1.39,2.26-3.13,2.31-8.39.25-8.41.29-5.94-7.6q6.63-21.25,13.31-42.49c4-1.5,8.07-.83,12.14-.57q7.35,23.1,13.56,46.53c.24,2.75-1,3.63-3.72,3.47C221.1,124.56,219,124.12,217,125Z" transform="translate(-0.17 -0.42)"/><path class="cls-10" d="M190.74,83.09a55.41,55.41,0,0,1-6.34.14c-2.71-.23-3.33.88-3.3,3.42.12,11.6.09,23.2,0,34.81,0,1.2.87,2.78-.85,3.64-.93-1.65-.32-3.43-.33-5.13q-.09-17.42,0-34.84a.79.79,0,0,1,.39-.59l-.43-.07c0,11.9,0,23.77,0,35.64,0,1.37.8,3.35-1.21,3.86-2.26.57-4.7,1.19-7,.37-1.26-.46-.72-2-.72-3,0-12.12,0-24.24,0-36.36,0,12,0,23.94-.07,35.91,0,1.12,1,2.81-1,3.4-.06-12.44-.21-24.87-.09-37.31,0-3-.85-3.8-3.77-3.74-7.14.15-7.15,0-6.79-7.15,0-.8-.34-1.82.89-2.15.77,1.55.21,3.18.31,4.38.2-3.89.2-3.89,4.58-3.89,7.48,0,15,0,22.44,0,1.22,0,2.5-.3,3.67.38C191.69,77.58,192,80.36,190.74,83.09Z" transform="translate(-0.17 -0.42)"/><path class="cls-10" d="M72.25,114.5c-1.11-4-4.32-6.12-7.51-8.25-1.5-.73-2-2.15-2.6-3.56A20.78,20.78,0,0,0,61,100.05a5.81,5.81,0,0,1-.24-.6,4.14,4.14,0,0,0,.55,1.46,14.91,14.91,0,0,1,.77,1.86c.16,1.46,2.21,2.42,1.09,4.21l-1.46,1.52c-.47,1.21-.43,2.8-2.25,3s-2.68,1.76-3.73,3c-.76.05-1.27-.11-.89-1,1.75-3,3.81-5.86,1.83-9.8-.81-1.61-1.1-2-2.82-1.45-3.18,1-6.4,2.08-9.83,1.88a2.33,2.33,0,0,1-1.9,0c-1.77-4.06-1.1-7.85,1.3-11.44,1.71-1,2.52.89,3.83,1.2a13.23,13.23,0,0,0,2.41-.05A7,7,0,0,0,53,93.1c.29-.16.6-.3.89-.45,2.92-1.49.75-3.53.58-5.35a3,3,0,0,1,.14-1.61c.75-1.48,2.5-.2,3.42-1.24a11,11,0,0,1,8-.27,56.84,56.84,0,0,0,6.48,1.58c3.72.61,5.7,4.58,4.5,8.32-1.43,4.48-1.22,9.29-2.69,13.81-.26.79,1.71,2.23.23,3.62a10.05,10.05,0,0,0,0,6c.88,2.24-.69,3.95-1.25,5.88s-2,2.52-3.37,1.66S70,123,70.44,122c.27-.62,1-1,1.54-1.56C73.22,118.5,72.73,116.5,72.25,114.5Z" transform="translate(-0.17 -0.42)"/><path class="cls-10" d="M38.29,104.83c-3.21,1.83-2.4,5-2.71,7.87.68,1.53-.16,3.26.6,4.78,1.55,4.16-.56,8-4.25,7.47.28-1.66.59-3.3,2-4.48a8.23,8.23,0,0,0,.09-6c-1.11-3.5-2.36-7-3.27-10.52-.44-1.73-1-2.49-2.91-2.3-2.56.25-5.16-.66-7.73.15-1.43,2.39-.56,4.92-.43,7.41a6.81,6.81,0,0,0,1.8,3.53,2.34,2.34,0,0,1-.53,3.79c-1.34.78-1.55-1.12-2-2-2.09-4.27-.8-9.16-2.42-13.59-.45-1.22,1.1-2.16,2.5-2,2.17.19,4.16-.5,6.6-1-2.11-3.85-.53-7.48.14-11.17a7.33,7.33,0,0,1,1.29-3,1.78,1.78,0,0,1,.9-.31,4.71,4.71,0,0,0,2.8-.46c.93-.42,1.81-.93,2.72-1.41,1.18-.55,2.37-1,3.61-.14l1.41.39c.93.31,1.36,1.45,2.47,1.49a2.42,2.42,0,0,1,1.3,2.3c-.17,2.81-1.9,5.14-2.39,7.84a25.42,25.42,0,0,0,.4,10.75C39.91,105.26,39.15,105.2,38.29,104.83Z" transform="translate(-0.17 -0.42)"/><path class="cls-3" d="M41.59,85.45a1.63,1.63,0,0,0-1.66-1.73,3.43,3.43,0,0,1,.38-2.42,5.33,5.33,0,0,1,1.61-2c1.71-1.19,4-2,3.55-4.75a39.88,39.88,0,0,0,.2-4.89c1.85-.83-.39-2.09.32-3l1.55-.2c1.48-.61,2.83-1.73,4.62-1.2.46.26.86.56.52,1.18-1.33,1.24-2.43,2.35,0,3.7,1.87,1,1.7,2.9,1.07,4.64-.54,1.51-1.24,3-1.87,4.44-.83,1.53-2.46,2.24-3.52,3.5-.91,1.08.22,1,.87,1,1.83-.47,3.52-.45,4.67,1.38.44,1,.57,2.12,1,3.13,1.25,2.24.59,4-1.48,5.26l.05,0c-1.35.11-2.6.74-4,.76L47.4,95a12.8,12.8,0,0,1-2-2.92C44.06,89.89,43.7,87.16,41.59,85.45Z" transform="translate(-0.17 -0.42)"/><path class="cls-10" d="M27.8,83.75l-.31,0c-1.17-.74-1.31-.26-1.14.87.22,1.53-1.23,1.6-2.09,2.17-2,1.19-3.36.36-4-1.62-1.1-3.55-2.08-7.14-3-10.74S17,70.32,20.48,71c2.51,0,5,.13,7.52,0,4.18.94,6,4.46,8.19,7.54,1.08,2.6-1.44,2.38-2.55,3.27a19.11,19.11,0,0,0-3.34,1.53A5.21,5.21,0,0,1,27.8,83.75Z" transform="translate(-0.17 -0.42)"/><path class="cls-11" d="M249.26,74c-3.69,1.69-7.58.66-11.36.67-3.25,0-4.55.65-4.49,4.29.23,13.84.17,27.7,0,41.54,0,2.91.74,3.9,3.76,3.87s6.19-1,9.08.73c-4,.07-8,.05-11.92.23-2.1.1-2.44-.87-2.44-2.68q.08-23.15,0-46.29c0-1.46-.06-2.75,2-2.66C239.07,73.9,244.17,73.33,249.26,74Z" transform="translate(-0.17 -0.42)"/><path class="cls-12" d="M169.77,124.25c1.21-1.12.71-2.58.71-3.89,0-11,0-22,0-32.95,0-1.21-.35-2.48.73-4.36,0,6.8,0,12.88,0,19,0,6.36.12,12.73-.05,19.09-.08,2.85,1.13,3.38,3.61,3.09,3.42-.4,4.93-1.65,4.82-5.59q-.51-17.35.63-34.73V125.1C176.75,124.92,173.11,126.43,169.77,124.25Z" transform="translate(-0.17 -0.42)"/><path class="cls-13" d="M54.88,113.47l.89,1a10.57,10.57,0,0,0-.41,6.44c.67,2.43-1.19,3.18-2.37,3.38-1.57.27-.94-1.6-1.11-2.57A8.69,8.69,0,0,1,54.88,113.47Z" transform="translate(-0.17 -0.42)"/><path class="cls-14" d="M190.74,74.76H165.65c-4.83,0-4.83,0-4.9,4.8a2,2,0,0,1-.75,1.81V73.9c10.25-.36,20.5-.34,30.75,0a.52.52,0,0,1,.21.58Q190.85,74.76,190.74,74.76Z" transform="translate(-0.17 -0.42)"/><path class="cls-15" d="M39.19,67.17l2.27,1a2.65,2.65,0,0,1,.9,1.56c.59,1,1.69.38,2.47.79a1.9,1.9,0,0,1,.8.68,2,2,0,0,1-1.09,2.76,6.27,6.27,0,0,1-1.56.56,2.16,2.16,0,0,1-1.56-.36C38,73.29,37.29,71.11,39.19,67.17Z" transform="translate(-0.17 -0.42)"/><path class="cls-9" d="M49.1,84.66c-1.59,1-2.41-.34-2.79-1.32s1-1.16,1.69-1.5c1.42-.72,2.25-2.3,3.93-2.61l.86,1C53.53,83.39,50.06,83,49.1,84.66Z" transform="translate(-0.17 -0.42)"/><path class="cls-16" d="M49.1,84.66c.33-2.22,3.45-2.09,3.68-4.39,3.3.07,1.86,2.61,2.22,4.22a1.68,1.68,0,0,1-.5.56,2.13,2.13,0,0,1-1.08.35C52.25,83.66,50.63,84.44,49.1,84.66Z" transform="translate(-0.17 -0.42)"/><path class="cls-17" d="M190.74,74.76v-.87c1.83,1.89,1.83,7.31,0,9.2Q190.74,78.92,190.74,74.76Z" transform="translate(-0.17 -0.42)"/><path class="cls-18" d="M217,125c1.11-2.17,3-.67,4.37-.68,2.58,0,4.7-.23,5.46-3.14,1.59,4.07,1.59,4.1-2.43,4.07C221.93,125.27,219.46,125.13,217,125Z" transform="translate(-0.17 -0.42)"/><path class="cls-19" d="M213.27,74.68l-.21,1.45c-3.89-2.5-7.82-1.69-11.76-.16l-.18-.72c.09-.35.13-1,.27-1C205.38,73.62,209.38,72.81,213.27,74.68Z" transform="translate(-0.17 -0.42)"/><path class="cls-20" d="M298.75,125c.21-.54-.62-1.59,1.18-1.2,3.11.68,6.48,1.65,9.32-1,.92,1.46,1.16,2.65-1.19,2.53C305,125.13,301.83,125.69,298.75,125Z" transform="translate(-0.17 -0.42)"/><path class="cls-21" d="M28,71a8.2,8.2,0,0,1-7.52,0A9,9,0,0,1,28,71Z" transform="translate(-0.17 -0.42)"/><path class="cls-22" d="M295.12,74.4a2.34,2.34,0,0,1-.07.35c-3.77-.23-7.62.81-11.3-.72C287.56,73.71,291.37,73,295.12,74.4Z" transform="translate(-0.17 -0.42)"/><path class="cls-23" d="M41.42,74.12,43,74c.77,2.21-1.2,3.62-1.62,5.49A1.16,1.16,0,0,1,40,79.25C37.83,76.81,42,76.11,41.42,74.12Z" transform="translate(-0.17 -0.42)"/><path class="cls-24" d="M24.26,86.77c2.16-1.37,1.11-3.8,1.8-6,1.21.88-.17,2.7,1.42,3-.14,1.26-.39,2.46-1.73,3Z" transform="translate(-0.17 -0.42)"/><path class="cls-25" d="M40.9,81.52l-1,2.2c-1.6.18-1-1.3-1.45-1.95,0-1,.24-1.78,1.44-1.82A1.21,1.21,0,0,1,40.9,81.52Z" transform="translate(-0.17 -0.42)"/><path class="cls-26" d="M19.63,109.23c-.79-2.52-1.51-5,.43-7.41C19.14,104.25,19.88,106.76,19.63,109.23Z" transform="translate(-0.17 -0.42)"/><path class="cls-27" d="M33.24,81.49c1-.92,3.12-.83,2.95-3,1.13.69.65,1.88.88,2.85l-3.83,1a.63.63,0,0,1-.18-.62Q33.15,81.49,33.24,81.49Z" transform="translate(-0.17 -0.42)"/><path class="cls-28" d="M63.21,107c.16-1.75-1.58-2.8-1.64-4.47a.61.61,0,0,1,.88,0l2.3,3.74Z" transform="translate(-0.17 -0.42)"/><path class="cls-29" d="M38.29,104.83l1.71-.72a1.35,1.35,0,0,1,2.07-.19l2,.17C42.16,104.49,40.5,106.86,38.29,104.83Z" transform="translate(-0.17 -0.42)"/><path class="cls-30" d="M52.69,66.45l-.75-.79c-.7-.86-1.28-1.75-.67-2.91l-.05,0C53.73,63.19,54.18,64.43,52.69,66.45Z" transform="translate(-0.17 -0.42)"/><path class="cls-31" d="M34,114.49a5.21,5.21,0,0,1-.09,6Z" transform="translate(-0.17 -0.42)"/><path class="cls-32" d="M74.48,117.5a5.6,5.6,0,0,1,0-6Z" transform="translate(-0.17 -0.42)"/><path class="cls-32" d="M72.25,114.5c1,2,1.46,4-.27,5.93C72.73,118.48,72.28,116.48,72.25,114.5Z" transform="translate(-0.17 -0.42)"/><path class="cls-11" d="M347.54,109.26c-1.35-1.31-.71-2.86-.24-4.39l.33,3.88A.34.34,0,0,1,347.54,109.26Z" transform="translate(-0.17 -0.42)"/><path class="cls-33" d="M254,124.36l-4-.31c2.13-.67,3.38-.91,4.55.19l-.24.17Z" transform="translate(-0.17 -0.42)"/><path class="cls-31" d="M36.18,117.49c-1.26-1.46-.5-3.17-.6-4.78Z" transform="translate(-0.17 -0.42)"/><path class="cls-13" d="M59.5,111.51l2.25-3C61.75,110.06,62.11,111.89,59.5,111.51Z" transform="translate(-0.17 -0.42)"/><path class="cls-3" d="M54.4,84.55a.89.89,0,0,0,.6-.06l3,0c-.64,1.28-2.55.35-3.1,1.78C53.93,85.9,53.49,85.42,54.4,84.55Z" transform="translate(-0.17 -0.42)"/><path class="cls-34" d="M40.9,81.52l-1-1.57a1.42,1.42,0,0,0,.08-.71l1.46,0c.67-.37.85,0,.94.59Z" transform="translate(-0.17 -0.42)"/><path class="cls-35" d="M51.27,62.75a3.37,3.37,0,0,1,.67,2.91c-1.7-1-2.46,3.11-4.39.81l.64-2.22C49.56,64.47,49.83,62.39,51.27,62.75Z" transform="translate(-0.17 -0.42)"/><path class="cls-36" d="M45.26,70.88l-.6.07c-.69-.93-2.1.21-2.72-.94,0-1.06-.27-2.18,1.06-2.7l.82-.2c1.1-.13,1.35.76,1.78,1.45a1.94,1.94,0,0,1,0,1C45.64,70,45.72,70.53,45.26,70.88Z" transform="translate(-0.17 -0.42)"/><path class="cls-37" d="M43,67.31A3.1,3.1,0,0,0,42.31,70q-.25.83-.77.13l-.08-1.95c.11-.86-.14-1.86.86-2.4A1.64,1.64,0,0,1,43,67.31Z" transform="translate(-0.17 -0.42)"/><path class="cls-38" d="M45.26,69.47a3.45,3.45,0,0,1-.09-.63,2.09,2.09,0,0,1,.08-2.34l.74.16c-.28.95,2.36,1.93,0,2.86C45.7,69.88,45.47,69.85,45.26,69.47Z" transform="translate(-0.17 -0.42)"/><path class="cls-39" d="M45.25,66.5l-.08,2.34c-.56-.49-.44-1.52-1.35-1.74C43.94,66.05,44.24,65.44,45.25,66.5Z" transform="translate(-0.17 -0.42)"/><path class="cls-40" d="M336.49,98.9c-.16,4,.07,8-1.06,11.88-.86,3-2.4,5.24-5.92,5.22s-5.23-2.29-5.83-5.29a60.28,60.28,0,0,1,0-24.13c.62-3,2.36-5.23,5.89-5.21s5,2.3,5.87,5.27C336.59,90.66,336.33,94.8,336.49,98.9Z" transform="translate(-0.17 -0.42)"/><path class="cls-41" d="M328.3,80l4.34.24C330.49,80.86,329.24,80.94,328.3,80Z" transform="translate(-0.17 -0.42)"/><path class="cls-19" d="M327.1,116.67l4.59.28A4.45,4.45,0,0,1,327.1,116.67Z" transform="translate(-0.17 -0.42)"/><path class="cls-42" d="M311.44,108.59l.23-3.53c.83,1.54.8,2.59-.24,3.52Z" transform="translate(-0.17 -0.42)"/><path class="cls-43" d="M256.76,98c-.39,3.83-.32,7.72-1.53,11.44a9.64,9.64,0,0,1-4,5.66,7.79,7.79,0,0,1-6.83.92c-2.08-.84-.92-3.33-.95-5-.11-8.47,0-16.95-.11-25.42,0-2.6.94-3.21,3.28-3,4.5.33,7.14,2.17,8.57,6.51.66,2,1,4.09,1.47,6.15A2.42,2.42,0,0,1,256.76,98Z" transform="translate(-0.17 -0.42)"/><path class="cls-44" d="M242.31,83.78v31.29H242V83.78Z" transform="translate(-0.17 -0.42)"/><path class="cls-33" d="M256.76,98l-.1-2.82L257,92C257.25,94,258.22,96.09,256.76,98Z" transform="translate(-0.17 -0.42)"/><path class="cls-45" d="M245,116.91h4.23A4.51,4.51,0,0,1,245,116.91Z" transform="translate(-0.17 -0.42)"/><path class="cls-41" d="M143,80.33a5.81,5.81,0,0,1-4.21.07A5.74,5.74,0,0,1,143,80.33Z" transform="translate(-0.17 -0.42)"/><path class="cls-46" d="M125.18,85.07c.35,2.28.5,3.45-.06,5A8.4,8.4,0,0,1,125.18,85.07Z" transform="translate(-0.17 -0.42)"/><path class="cls-19" d="M141.91,117.36H139C139.93,116.18,141,117.13,141.91,117.36Z" transform="translate(-0.17 -0.42)"/><path class="cls-33" d="M146.58,124.3l-3.54-.21c1.55-.84,2.59-.82,3.52.21Z" transform="translate(-0.17 -0.42)"/><path class="cls-47" d="M98.69,115.23v-11H99v11Z" transform="translate(-0.17 -0.42)"/><path class="cls-47" d="M99.06,83.06V93.36h-.34V83.06Z" transform="translate(-0.17 -0.42)"/><path class="cls-48" d="M288.62,86.41,293,103.73c.06.24.26.58.16.71-2.13,2.86-5.14.65-7.68,1.26-1.41.34-2.39-.09-1.9-2,1.48-5.76,2.84-11.55,4.24-17.32Z" transform="translate(-0.17 -0.42)"/><path class="cls-19" d="M292.39,106.86h-8.5v-.36h8.81Z" transform="translate(-0.17 -0.42)"/><path class="cls-49" d="M206.59,86.21q2.27,9,4.54,17.93c.15.61.27,1.45-.56,1.47a84.75,84.75,0,0,1-8.57-.07c-1-.07-.51-1.18-.34-1.87Q203.77,95,205.9,86.3Z" transform="translate(-0.17 -0.42)"/><path class="cls-19" d="M210.95,106.83h-8.79v-.34h8.79Z" transform="translate(-0.17 -0.42)"/><path class="cls-50" d="M42.06,103.93l-2.07.19c-1.59-.57-1.64-1.79-1.68-3.27a36.13,36.13,0,0,1,3.28-15.4c.62-.66,1.26-1.34,1.8.06.84,2.15,1.66,4.31,2.49,6.47-.35.61-1,.42-1.52.55-2.37,1.12-1.44,3.41-1.76,5.2C42.25,99.77,42.23,101.86,42.06,103.93Z" transform="translate(-0.17 -0.42)"/><path class="cls-51" d="M72.6,89.65c2.32,2.64,2.38,3.24.64,6.83C72.82,93.91,73.42,91.72,72.6,89.65Z" transform="translate(-0.17 -0.42)"/><path class="cls-52" d="M53.48,93.53c.94-1.67,2.16-3.3.91-5.35a1.3,1.3,0,0,1,.66-.74C57.31,91.93,57.25,92.17,53.48,93.53Z" transform="translate(-0.17 -0.42)"/><path class="cls-53" d="M44.37,92.53c.34-.63.91-.65,1.52-.55,1.18.65,1.38,1.8,1.52,3C45.62,95.11,45.45,93.25,44.37,92.53Z" transform="translate(-0.17 -0.42)"/><path class="cls-54" d="M49.56,94.25c1.2-.91,2.44-1.57,4-.76C52.32,94.31,51.14,95.35,49.56,94.25Z" transform="translate(-0.17 -0.42)"/><path class="cls-55" d="M60.85,101.09,59,98.28a2.45,2.45,0,0,1,2.66,1.28C61.17,99.93,61.64,100.86,60.85,101.09Z" transform="translate(-0.17 -0.42)"/><path class="cls-56" d="M60.85,101.09c.16-.58.07-1.3.86-1.53l.74,3h-.88Z" transform="translate(-0.17 -0.42)"/><path class="cls-57" d="M55,87.44l-.66.74-1-2.77,1-.85a1.38,1.38,0,0,0,.48,1.67Z" transform="translate(-0.17 -0.42)"/><path class="cls-58" d="M31.46,101.75c-.64-1.93-.08-2.83,1.43-3.47A3.73,3.73,0,0,1,31.46,101.75Z" transform="translate(-0.17 -0.42)"/><path class="cls-8" d="M37.54,98v5.21h-.35V98Z" transform="translate(-0.17 -0.42)"/><path class="cls-59" d="M33.24,81.49q0,.46,0,.93L31,83.7c-.31-.22-.76-.29-.82-.77A5.78,5.78,0,0,1,33.24,81.49Z" transform="translate(-0.17 -0.42)"/><path class="cls-60" d="M30.16,82.93l.82.77c-1.05.61-2.1,1.21-3.18,0A3.35,3.35,0,0,1,30.16,82.93Z" transform="translate(-0.17 -0.42)"/><path class="cls-50" d="M42.39,79.88l-.94-.59C39.57,76.82,43.36,76,43,74l.65-.58a3.29,3.29,0,0,1,2.43,1.21C47.8,78.49,44.25,78.59,42.39,79.88Z" transform="translate(-0.17 -0.42)"/><path class="cls-61" d="M46.1,74.66l-2.43-1.21c1.46-.28,1.91-1.18,1.59-2.57V69.47a5.1,5.1,0,0,0,.69,0C47.8,71.19,46,73,46.1,74.66Z" transform="translate(-0.17 -0.42)"/><path class="cls-62" d="M41.54,70.09l.77-.13c.81.27,2.09-.57,2.35,1C43.71,70.33,41.94,72.68,41.54,70.09Z" transform="translate(-0.17 -0.42)"/></g></g></svg>