<?xml version="1.0" encoding="utf-8"?>
<!-- Generator: Adobe Illustrator 22.0.0, SVG Export Plug-In . SVG Version: 6.00 Build 0)  -->
<svg version="1.1" id="Layer_1" xmlns="http://www.w3.org/2000/svg" xmlns:xlink="http://www.w3.org/1999/xlink" x="0px" y="0px"
	 viewBox="0 0 88.1 88" style="enable-background:new 0 0 88.1 88;" xml:space="preserve">
<style type="text/css">
	.st0{fill:#FFFFFF;}
	.st1{clip-path:url(#SVGID_2_);fill:none;stroke:#00A88E;stroke-width:1.661;}
	.st2{clip-path:url(#SVGID_2_);}
	.st3{fill:none;stroke:#000000;stroke-width:0.208;}
</style>
<g>
	<rect x="10" y="19" class="st0" width="64.8" height="56.3"/>
	<g>
		<defs>
			<rect id="SVGID_1_" x="10" y="20" width="64.8" height="54.3"/>
		</defs>
		<clipPath id="SVGID_2_">
			<use xlink:href="#SVGID_1_"  style="overflow:visible;"/>
		</clipPath>
		<path class="st1" d="M28.1,28.5c0.9,1.5,2.1,3,3.5,4.4c2.7,2.6,6.3,5,10.4,6.8c6.4,2.7,12.9,3.4,17.7,2.3 M52.7,26.9
			c-1.3,0.3-3.1,0.1-5-0.7c-3-1.3-4.9-3.4-4.3-4.8c0.1-0.2,0.2-0.3,0.3-0.4 M54.3,25.4c0,0.2,0,0.4-0.1,0.5c-0.2,0.5-0.7,0.8-1.4,1
			 M49.2,26.7c0.2,6.2-1.7,17.5-11.7,28.5 M46.3,25.5c-4.6,4.2-11.4,13.5-12.4,28.2 M52.7,26.9c2,3.9,3,11.2,1.2,15.7
			c0,0-2.3,8.9-12.9,13.3 M43.7,23.1c-4.2,1.3-10.1,5.7-12.1,10c0,0-4.7,7.8-0.6,18.6 M25.1,36.3c2.4,4.5,7.2,8.7,13.5,11.4
			c6.3,2.7,12.7,3.2,17.5,1.8 M35.3,22.5c1.3,3.6,5,7.1,10.1,9.3c5.1,2.2,10.2,2.3,13.7,0.8 M35.7,54.6c8.9,3.8,19.2-0.4,23-9.3
			c3.8-8.9-0.4-19.2-9.3-23c-8.9-3.8-19.2,0.4-23,9.3C22.6,40.5,26.8,50.8,35.7,54.6L35.7,54.6z"/>
		<path class="st2" d="M75.3,26.9v-6h-6v6h4.3c0,2.4-1.9,4.3-4.3,4.3v1.7C72.6,32.9,75.3,30.2,75.3,26.9"/>
		<path class="st2" d="M67.6,26.9v-6h-6v6h4.3c0,2.4-1.9,4.3-4.3,4.3v1.7C64.9,32.9,67.6,30.2,67.6,26.9"/>
		<path class="st2" d="M9.8,26v6h6v-6h-4.3c0-2.4,1.9-4.3,4.3-4.3V20C12.5,20,9.8,22.7,9.8,26"/>
		<path class="st2" d="M17.5,26v6h6v-6h-4.3c0-2.4,1.9-4.3,4.3-4.3V20C20.2,20,17.5,22.7,17.5,26"/>
	</g>
	<path d="M33.3,74.3h-3.4v-11h4.5c1.1,0,2.3,0,3.2,0.6c1,0.6,1.6,1.7,1.6,2.9c0,1-0.4,2-1.2,2.7c-0.9,0.7-1.9,0.9-3,0.9h-1.7V74.3
		 M34.2,67.9c0.8,0,1.7,0,1.7-1.1c0-1-0.8-1.1-1.6-1.1h-1v2.1H34.2"/>
	<path d="M46.2,74.3l-1.6-4.2h-1.1v4.2h-3.4v-11h5.6c1,0,2,0.1,2.8,0.7c0.9,0.6,1.4,1.6,1.4,2.6c0,1.4-0.6,2.3-1.9,2.9l2,4.8H46.2
		 M44.8,67.7c0.7,0,1.6-0.1,1.6-1.1c0-0.4-0.2-0.7-0.5-0.9c-0.3-0.1-0.6-0.1-1-0.1h-1.4v2.1H44.8"/>
	<rect x="51.2" y="63.2" width="3.4" height="11"/>
	<path d="M58.6,65.3l-0.4-0.9h-0.6v0.9h-0.3v-2.2h0.8c0.2,0,0.3,0,0.5,0.1c0.1,0.1,0.2,0.3,0.2,0.5c0,0.3-0.2,0.5-0.4,0.6l0.4,1
		H58.6 M58.1,64.1c0.1,0,0.3,0,0.4-0.1c0.1-0.1,0.1-0.2,0.1-0.3c0-0.1,0-0.2-0.2-0.3c-0.1-0.1-0.2-0.1-0.3-0.1h-0.5v0.8H58.1"/>
	<path class="st3" d="M58,62.6c0.9,0,1.6,0.7,1.6,1.5c0,0.9-0.7,1.5-1.6,1.5c-0.9,0-1.5-0.7-1.5-1.5C56.5,63.3,57.2,62.6,58,62.6
		L58,62.6z"/>
</g>
</svg>
