<svg xmlns="http://www.w3.org/2000/svg" viewBox="0 0 26.42 26.18" style="width: 2rem;"><line x1="1" y1="1" x2="25.42" y2="1" style="fill:none;stroke:#fff;stroke-linecap:round;stroke-miterlimit:10;stroke-width:2px"/><line x1="1" y1="7.6" x2="25.42" y2="7.6" style="fill:none;stroke:#fff;stroke-linecap:round;stroke-miterlimit:10;stroke-width:2px"/><line x1="1" y1="14.19" x2="25.42" y2="14.19" style="fill:none;stroke:#fff;stroke-linecap:round;stroke-miterlimit:10;stroke-width:2px"/><path d="M3.62,26.13,2,21H2q.09,1.58.09,2.11v3.07H.83v-6.6h1.9l1.56,5h0l1.66-5h1.9v6.6H6.58V23q0-.22,0-.51T6.65,21h0L4.9,26.13Z" transform="translate(-0.47 -0.04)" style="fill:#fff"/><path d="M13,26.13H9.17v-6.6H13v1.15h-2.4v1.45H12.8v1.15H10.57V25H13Z" transform="translate(-0.47 -0.04)" style="fill:#fff"/><path d="M20,26.13H18.24l-2.87-5h0q.09,1.32.09,1.89v3.1H14.16v-6.6h1.76l2.86,4.94h0q-.07-1.29-.07-1.82V19.54H20Z" transform="translate(-0.47 -0.04)" style="fill:#fff"/><path d="M26.86,19.54v4.27a2.46,2.46,0,0,1-.33,1.28,2.13,2.13,0,0,1-.95.84,3.38,3.38,0,0,1-1.46.29,2.8,2.8,0,0,1-2-.65,2.31,2.31,0,0,1-.7-1.78V19.54h1.39v4a1.69,1.69,0,0,0,.31,1.12,1.27,1.27,0,0,0,1,.36,1.25,1.25,0,0,0,1-.36,1.7,1.7,0,0,0,.31-1.13v-4Z" transform="translate(-0.47 -0.04)" style="fill:#fff"/></svg>
