<svg xmlns="http://www.w3.org/2000/svg" viewBox="0 0 543.32 344.59"><defs><style>.cls-1{fill:#fefdfd;}.cls-2{fill:#a0a0a0;}.cls-3{fill:#ec2b30;}.cls-4{fill:#ec232b;}.cls-5{fill:#eb0000;}.cls-6{fill:#ec181f;}.cls-7{fill:#e80000;}.cls-8{fill:#0d0d0d;}.cls-9{fill:#ec1c25;}.cls-10{fill:#ec2128;}.cls-11{fill:#f2f2f2;}.cls-12{fill:#f3f3f3;}.cls-13{fill:#fcfbfc;}.cls-14{fill:#eb0a0a;}.cls-15{fill:#ec272d;}.cls-16{fill:#ec1414;}.cls-17{fill:#ec0000;}.cls-18{fill:#eb0e19;}.cls-19{fill:#ec2229;}.cls-20{fill:#ec282e;}.cls-21{fill:#ec2d32;}.cls-22{fill:#ec2329;}.cls-23{fill:#eb000c;}.cls-24{fill:#ec0513;}.cls-25{fill:#ec0d0e;}.cls-26{fill:#ec262c;}.cls-27{fill:#eb0202;}.cls-28{fill:#ec292f;}.cls-29{fill:#ed3031;}.cls-30{fill:#ec2a2f;}.cls-31{fill:#ec0818;}.cls-32{fill:#eb0303;}.cls-33{fill:#ec252b;}.cls-34{fill:#ec0112;}.cls-35{fill:#ec0f10;}.cls-36{fill:#eb0001;}.cls-37{fill:#ed2224;}.cls-38{fill:#ed151a;}.cls-39{fill:#ec0c0f;}.cls-40{fill:#ec0c12;}.cls-41{fill:#ed1c20;}.cls-42{fill:#ec0b0f;}.cls-43{fill:#ec030f;}.cls-44{fill:#eb0002;}.cls-45{fill:#eb0006;}.cls-46{fill:#eb0003;}.cls-47{fill:#eb0105;}.cls-48{fill:#ed1a1c;}.cls-49{fill:#121212;}.cls-50{fill:#141414;}.cls-51{fill:#ec1014;}.cls-52{fill:#ec232a;}.cls-53{fill:#ed2c2d;}.cls-54{fill:#ec0108;}.cls-55{fill:#dedede;}.cls-56{fill:#ec2a30;}.cls-57{fill:#ec0b1a;}</style></defs><title>frontline</title><g id="Layer_2" data-name="Layer 2"><g id="Layer_1-2" data-name="Layer 1"><path class="cls-1" d="M543.54,339.38c0,1.81.71,4.32-.2,5.23s-3.42.2-5.23.2q-267.52,0-535,.07c-2.31,0-2.58-.6-2.58-2.7Q.58,172.65.48,3.12C.48.92.92.48,3.12.48Q272,.58,540.88.47c2.44,0,2.71.68,2.71,2.84q-.08,166.4,0,332.81a.6.6,0,0,1-.71.05c-1.56-2.49-3.43-4.39-6.76-3.77a5,5,0,0,0-4.27,4.24,5.39,5.39,0,0,0,2.59,5.76,5.33,5.33,0,0,0,6-.62c.9-.76,1.39-1.88,2.41-2.53A.68.68,0,0,1,543.54,339.38Z" transform="translate(-0.48 -0.47)"/><path class="cls-2" d="M543.54,339.38h-.25l-.25,0a2.24,2.24,0,0,1,0-3.34.52.52,0,0,1,.45.05Z" transform="translate(-0.48 -0.47)"/><path class="cls-3" d="M6.48,3.24c.78-1,1.85-.43,2.75-.43q258.81,0,517.63,0c1,0,2.14-.55,3,.48a3.29,3.29,0,0,1-2.53.73c-1.27,0-2.53,0-3.8,0q-255,0-510,0C12,4,10.43,3.7,9,4.45a3,3,0,0,0-.36.92,25.07,25.07,0,0,0-.13,3.8q0,164.2,0,328.4a26.49,26.49,0,0,0,.12,3.52A2.72,2.72,0,0,0,9,342c1.46.78,3,.41,4.54.41q255.13,0,510.26,0a26.76,26.76,0,0,1,5.14.18,2.39,2.39,0,0,1,.92.58c-.84,1-2,.48-3,.48q-258.85,0-517.7,0c-.9,0-2,.57-2.74-.44.66-.8.33-1.74.33-2.61q0-167.37,0-334.73C6.78,5,7.06,4.06,6.48,3.24Z" transform="translate(-0.48 -0.47)"/><path class="cls-4" d="M7.61,4.35V3.8a5.89,5.89,0,0,1,2.93-.25q258.2,0,516.39,0a6.38,6.38,0,0,1,2.94.23c0,1,.1,2,.1,3q0,163.46,0,326.91c0,.81-.05,1.62-.08,2.44-1.21-.26-1.11-1.28-1.18-2.14-.1-1.26,0-2.53,0-3.8q0-160.1,0-320.2c0-1.42.33-2.9-.41-4.25a3.06,3.06,0,0,0-.93-.36A30.23,30.23,0,0,0,523,5.24q-254.65,0-509.31,0C11.62,5.21,9.46,5.75,7.61,4.35Z" transform="translate(-0.48 -0.47)"/><path class="cls-5" d="M529.87,3.78l-44.79,0H7.6c1.1-1,2.43-.48,3.64-.48q258.75,0,517.51,0h1.09A.4.4,0,0,1,529.87,3.78Z" transform="translate(-0.48 -0.47)"/><path class="cls-6" d="M528.88,4.34c1,1.09.52,2.42.52,3.63q0,162.36,0,324.73c0,1.13-.4,2.36.44,3.4v3.29c-.54,1.08.3,2.4-.59,3.42a.92.92,0,0,1-.79-.49,3.05,3.05,0,0,1-.3-1c-.11-1.36-.07-2.72-.07-4.07q0-163.84,0-327.67C528.13,7.83,527.64,6,528.88,4.34Z" transform="translate(-0.48 -0.47)"/><path class="cls-7" d="M6.48,3.24C7.43,4,7,5.08,7,6q0,167.21,0,334.42c0,.94.4,2-.59,2.77,0-1-.12-2-.12-3q0-167,0-334C6.33,5.21,6.43,4.23,6.48,3.24Z" transform="translate(-0.48 -0.47)"/><path class="cls-8" d="M543.1,336.07l0,3.34c-1.63,3.33-4.05,4.84-7,4.33a6.1,6.1,0,0,1-5.11-5.52,6.17,6.17,0,0,1,4.5-6.53C538.86,330.87,541.37,332.32,543.1,336.07Z" transform="translate(-0.48 -0.47)"/><path class="cls-4" d="M529.41,342.65c.17-1.08-.36-2.27.46-3.26q0,1.89,0,3.78l-.5,0q-.23-.18-.13-.34C529.29,342.7,529.35,342.65,529.41,342.65Z" transform="translate(-0.48 -0.47)"/><path class="cls-9" d="M7.61,4.35H528.34a5.85,5.85,0,0,1,.25,2.93q0,165.95,0,331.9a9.1,9.1,0,0,1-.17,3c-1,.79-2.27.48-3.41.48q-257,0-514,0c-1.15,0-2.37.27-3.41-.53Q7.6,173.22,7.61,4.35Z" transform="translate(-0.48 -0.47)"/><path class="cls-5" d="M529.41,342.65a1.28,1.28,0,0,1,0,.48H336.12q-162.58,0-325.15,0c-1.12,0-2.36.46-3.36-.5a5.87,5.87,0,0,1,2.93-.25q257.71,0,515.41,0a5.87,5.87,0,0,1,2.93.25Z" transform="translate(-0.48 -0.47)"/><path class="cls-4" d="M528.88,342.63H7.6v-.54H528.34a.36.36,0,0,1,.54,0Q528.88,342.36,528.88,342.63Z" transform="translate(-0.48 -0.47)"/><path class="cls-10" d="M528.88,342.09h-.54q0-168.87,0-337.74h.54Z" transform="translate(-0.48 -0.47)"/><path class="cls-11" d="M540.73,341c-2.6,2.27-5.46,2.25-7.46,0s-1.54-5.16,1.07-7.4c1.5.1,3.18-1,4.43.67-.24.9-1,.82-1.72.95-1.88.37-2.47,1.4-1.9,3.32a.22.22,0,0,0,.19.09,1.42,1.42,0,0,0,.42-.34c2-1.3,2.44,1.5,4,1.4A1.18,1.18,0,0,1,540.73,341Z" transform="translate(-0.48 -0.47)"/><path class="cls-12" d="M538.66,334.48c-1.24-1.25-3,.11-4.32-1,2.74-1.45,4.88-1.14,6.65,1s1.61,3.93-.26,6.49l-.84-1.06c-1.3-.34-1.55-1.35-1.62-2.48C538.58,336.48,538.2,335.42,538.66,334.48Z" transform="translate(-0.48 -0.47)"/><path class="cls-13" d="M236.89,224.7c-2.33-3.65-2.49-8-3.86-12-1.28-3.72-2.22-7.56-3.31-11.34-.29-.67-.78-1.3-.58-2.1a112.34,112.34,0,0,0-3.73-14.23,3.15,3.15,0,0,1-.57-2.08,69.37,69.37,0,0,0-3.26-12c-1.27-1-1.19-2.56-1.61-3.86.46,2.7-.08,5.34-.07,8q0,23,0,46.07c0,1.2.43,2.55-.74,3.53l.06-.09a1.64,1.64,0,0,1-1.63.73c-4.5,0-9,0-13.5,0a1.7,1.7,0,0,1-1.44-.59c-1-.56-.74-1.55-.74-2.41q0-49,0-98.1c0-.63.08-1.26.13-1.89a2.2,2.2,0,0,1,2-.68c5.6,0,11.2,0,16.81,0a2,2,0,0,1,1.73.58c2.23,4.43,2.87,9.35,4.33,14,.58,1.87,1.09,3.75,1.64,5.63.78.51,0,1.5.63,2.05a52.24,52.24,0,0,0,2.67,10.92c.56.47.19,1.23.56,1.76a31,31,0,0,0,2.14,8.6,1.61,1.61,0,0,1,.64.6,11.76,11.76,0,0,1,.93,3.45c.07.27.09.54.17.8s.1.22,0-.05c-.71-3.15,0-6.3,0-9.45-.07-11.65,0-23.31,0-35,0-1.36-.12-2.75,1.23-3.65,5.51-.64,11-.21,16.54-.23a1.28,1.28,0,0,1,1.1.66l-.07-.09c1,.81.73,2,.73,3q0,48.07,0,96.15a5.69,5.69,0,0,1-.31,2.66,2.31,2.31,0,0,1-2,1.21c-5.13,0-10.27.08-15.4,0A1.55,1.55,0,0,1,236.89,224.7Z" transform="translate(-0.48 -0.47)"/><path class="cls-13" d="M435.1,224.69c-2.29-3.56-2.31-7.86-3.78-11.69-.83-2.16-1.34-4.45-2-6.68a1.79,1.79,0,0,1-.48-2.11l-2.1-7.66a3.88,3.88,0,0,1-.78-2.12c-.15-.72-.76-1.38-.31-2.19a8.73,8.73,0,0,0-1-3.37c-.57-.44-.15-1.2-.56-1.69a103.06,103.06,0,0,0-4.31-16.27c-1.15-1.16-1.29-2.72-1.67-4.17a4,4,0,0,1,0-.52s-.1-.06-.15-.09c.76,3.13.1,6.29.11,9.43,0,15.16,0,30.33,0,45.49,0,1.44.19,2.93-1.13,4-5.07.59-10.16.22-15.23.2a1.23,1.23,0,0,1-.9-.53c-.78-.44-.69-1.18-.69-1.9q0-50.1.06-100.2c0-.09,0-.18,0-.27.56-.78,1.41-.7,2.21-.7q8.35,0,16.71,0c.79,0,1.65-.1,2.16.75L430.66,158a5.37,5.37,0,0,1,1.16,4.31c.32.93.23,2,.92,2.81,1.55,1,1.2,2.74,1.63,4.16-.35-.13.19-.07,0,.25s.05-.09,0,.27l.15.06c-.77-3.22-.07-6.47-.09-9.7-.06-11.37,0-22.73,0-34.1,0-1.16-.23-2.36.44-3.44a3.06,3.06,0,0,1,2.42-1c4.69,0,9.39,0,14.08,0,.72,0,1.47,0,1.91.73l-.07-.09c1.05.8.74,2,.74,3q0,48.08,0,96.15a5.76,5.76,0,0,1-.31,2.66,2.25,2.25,0,0,1-2,1.21c-5.13,0-10.27.08-15.4,0A1.52,1.52,0,0,1,435.1,224.69Z" transform="translate(-0.48 -0.47)"/><path class="cls-13" d="M118.43,224.6c-2.71-4.68-3.05-9.79-2.93-15.06.16-6.83.05-13.66,0-20.49,0-1,.27-2-.36-2.88a.72.72,0,0,1-.17-1,5,5,0,0,0-3.14-3.17,5.5,5.5,0,0,1-3.35.3c-.26-.11-.53-.21-.8-.3-1.66-.42-3.46.38-5.05-.57-2,0-1.06,1.6-1.07,2.39-.07,12.62,0,25.25-.07,37.87,0,1,.45,2.2-.62,3a1.68,1.68,0,0,1-1.43.6c-5.12.05-10.23,0-15.35,0a2.7,2.7,0,0,1-2.31-1.16,6.91,6.91,0,0,1-.33-3.2q0-47.45,0-94.91a7.07,7.07,0,0,1,.32-3.2c.75-1.13,1.89-1.22,3.1-1.22q14.28,0,28.57,0a7.24,7.24,0,0,1,3.84,1.06,33.08,33.08,0,0,1,12.17,5.59c2.19,1.6,3.41,4.09,4.42,6.61.33.83.62,1.69.93,2.53a10.73,10.73,0,0,1,.81,3.34c.35,1.15.39,2.35.65,3.52-.08,4,.5,7.95-.75,11.83-.14.6.18,1.29-.37,1.81-.91,4.09-2,8.11-4.87,11.37a4.23,4.23,0,0,1-2.26,2.28c-1.54,1-2.54,1.34-.13,3.07,3.1,2.22,6,5.17,6.32,9.47.5,1.7-.17,3.49.42,5.18a.78.78,0,0,0,0,1c-.55,3.36-.1,6.75-.24,10.12s.85,6.5-.19,9.71a12.24,12.24,0,0,0,.9,4.58c.6.39.37.9.19,1.4a11.71,11.71,0,0,0,3.85,6.45c.64.52,1.5,1,1.45,2.06-.55.78-1.41.72-2.2.72-5.93,0-11.86,0-17.78,0C119.81,225.33,119,225.42,118.43,224.6Z" transform="translate(-0.48 -0.47)"/><path class="cls-13" d="M142.21,138.48c1.58-3.07,2.94-6.24,5.41-8.8A28,28,0,0,1,161,122.23c.51-.14,1-.33,1.5-.5.63-.62,1.32-.37,2-.17h7.65c.69-.21,1.39-.47,2,.17,5.1,1.41,9.91,3.29,13.95,6.95,3.35,3,5.21,6.89,6.93,10.9.7,1.17.57,2.56,1,3.81a12.7,12.7,0,0,1,.21,3.5q0,26.55,0,53.09c0,1.42.3,2.91-.67,4.19a23.1,23.1,0,0,1-5.28,11.77c-3.9,4.7-9.23,6.92-14.93,8.48-1,1-2.08.69-3.21.46-5,.36-10.17.25-14.82-1.45-4.34-1.58-8.45-4-11.37-8.06A31.58,31.58,0,0,1,141.26,204c-.87-.79-.61-1.84-.61-2.8q0-27.75,0-55.49c0-1-.27-2,.62-2.8l.4-1.78C141.23,140.14,141.88,139.35,142.21,138.48Z" transform="translate(-0.48 -0.47)"/><path class="cls-13" d="M460.59,224.72c-.85-.55-.65-1.42-.65-2.21q0-50.06,0-100.13c.7-1,1.77-.74,2.73-.74q20,0,40,0c1,0,2-.24,2.76.7q0,8,0,16.08a3.62,3.62,0,0,1-2.78.8c-6.59,0-13.19.06-19.78,0-3.76,0-3.82-.13-3.75,3.73.11,6.13-.32,12.26.24,18.38h0c3.58.56,7.18.14,10.77.25,4.95.15,9.9-.25,14.84.21.9,1.7.48,3.53.45,5.29-.07,3.48.44,7-.32,10.45-.87,1.21-2.15,1.15-3.43,1.15-6.42,0-12.85.07-19.27,0-2.17,0-2.83.76-2.81,2.85q.11,11.4,0,22.8c0,2.17.6,3,3,3,7.69-.15,15.38-.07,23.07,0,.65,0,1.47-.4,1.95.46l-.11-.1c.9.63.7,1.59.71,2.46,0,4,0,7.9,0,11.85,0,1.2-.07,2.35-1.16,3.13a6.65,6.65,0,0,1-3.19.34q-20,0-40,0C462.79,225.32,461.55,225.7,460.59,224.72Z" transform="translate(-0.48 -0.47)"/><path class="cls-13" d="M50.46,224.25l-.63.46c-.13.13-.25.35-.39.36-6,.34-12,.65-18-.16-1-.85-1-2-1-3.21q0-48.34,0-96.69c0-1-.25-2,.74-2.73l-.07.09c.7-1,1.78-.73,2.73-.73q20.62,0,41.25,0a4,4,0,0,1,3.26,1,71.88,71.88,0,0,1,0,16.34c-.87,1.19-2.15,1.13-3.43,1.13-7.21,0-14.42.05-21.63,0-2,0-2.62.54-2.61,2.59,0,5.84.31,11.69-.15,17.53.65,1,1.63.45,2.43.46,7.63.08,15.26.09,22.88.13a1.32,1.32,0,0,1,.57.88c.2,4.93.15,9.86,0,14.8a1.2,1.2,0,0,1-.71,1.06l-.16-.07-.13.13c-3.47.58-7,.18-10.44.25-4.57.09-9.15,0-13.73.05-1,.74-.52,1.83-.52,2.73,0,13.59,0,27.17,0,40.76C50.75,222.32,51,223.34,50.46,224.25Z" transform="translate(-0.48 -0.47)"/><path class="cls-13" d="M317,138.42c-5.48,0-11,0-16.44.12-.81,0-1.79-.5-2.46.45a4.91,4.91,0,0,1,.58,3.13q0,39.66,0,79.32a5.7,5.7,0,0,1-.31,2.66c-.73,1.16-1.88,1.24-3.09,1.24H281.18c-1.12,0-2.18-.06-2.82-1.17a6.14,6.14,0,0,1-.33-2.93q0-39.39,0-78.77a7.16,7.16,0,0,1,.47-3.45c-.6-1.07-1.6-.47-2.39-.48-5.48-.09-11-.08-16.44-.11A1.85,1.85,0,0,1,259,137c-.05-4.37-.06-8.73,0-13.1a1.63,1.63,0,0,1,.72-1.62l-.07.09c.61-.94,1.58-.73,2.45-.73q26.09,0,52.17,0a4.23,4.23,0,0,1,2.11.32,2.71,2.71,0,0,1,1.2,2.31c0,4.25,0,8.49,0,12.74A1.71,1.71,0,0,1,317,138.42Z" transform="translate(-0.48 -0.47)"/><path class="cls-13" d="M322.12,224.72c-.86-.55-.65-1.42-.65-2.21q0-50.07,0-100.13a1.73,1.73,0,0,1,1.65-.72c5.42,0,10.84-.07,16.26,0a2.29,2.29,0,0,1,1,.32c1.1.81,1.1,2,1.1,3.18q0,40.1,0,80.2A4,4,0,0,1,341,208c.75.77,1.7.36,2.55.37,8,0,16,.08,24,0,1.87,0,2.53.46,2.41,2.39-.3,4.66.36,9.34-.37,14-.78.88-1.83.63-2.79.63q-21,0-41.92,0C324,225.33,322.9,225.59,322.12,224.72Z" transform="translate(-0.48 -0.47)"/><path class="cls-13" d="M375.33,224.72c-1.07-.51-.82-1.5-.82-2.37q0-49.08,0-98.17a18,18,0,0,1,.19-1.88,2.27,2.27,0,0,1,2-.66q7.51,0,15,0a2.26,2.26,0,0,1,2,.66c.06,1,.18,2,.18,3q0,48.13,0,96.26c0,1.08.57,2.4-.78,3.2a1.27,1.27,0,0,1-.9.53q-7.94.22-15.88,0A1.27,1.27,0,0,1,375.33,224.72Z" transform="translate(-0.48 -0.47)"/><path class="cls-14" d="M341,208c-.54-.83-.23-1.75-.23-2.62q0-39.95,0-79.9a7,7,0,0,0-.3-3.2.36.36,0,0,1-.14-.4q.08-.2.15-.2a1.8,1.8,0,0,1,1.12,1.08,6.38,6.38,0,0,1,.23,2.94q0,39.2,0,78.4c0,3.08,0,3.08,3,3.08,7.42,0,14.83,0,22.25,0a5.35,5.35,0,0,1,2.66.24c-.53,1-1.47.49-2.19.49C358.71,208,349.85,208,341,208Z" transform="translate(-0.48 -0.47)"/><path class="cls-15" d="M369.77,207.41c-8.51,0-17-.06-25.52.05-2.15,0-2.75-.6-2.74-2.75q.11-41,.06-82c.92.9.5,2.06.5,3.09q0,38.88,0,77.76c0,2.54.56,3.43,3.25,3.36,7.22-.19,14.45-.08,21.67,0C367.9,206.9,369,206.53,369.77,207.41Z" transform="translate(-0.48 -0.47)"/><path class="cls-16" d="M507.63,207.65c-8.67,0-17.34-.16-26-.07-2.09,0-2.54-.61-2.51-2.58.11-8,.13-16.08,0-24.12,0-2.27.38-3.11,2.91-3,6.68.21,13.37.08,20.06.06,1,0,2,.28,2.87-.44q.26.14.21.33t-.12.2l-.62.69c-6.57.52-13.16.12-19.74.22-4.39.06-4.39,0-4.39,4.44,0,7,0,13.91,0,20.86a5,5,0,0,0,.25,2.66c8.16,0,16.32,0,24.48,0C505.92,206.9,507,206.42,507.63,207.65Z" transform="translate(-0.48 -0.47)"/><path class="cls-5" d="M31.17,122.29c0,1.08-.14,2.16-.14,3.24q0,48.07.07,96.13c0,1-.39,2.19.53,3.09q-.22.36-.52.06l-.71-.56a4.46,4.46,0,0,1-.24-2.39q0-48.37,0-96.74a4.48,4.48,0,0,1,.24-2.39Z" transform="translate(-0.48 -0.47)"/><path class="cls-5" d="M373.57,122.73c1,0,.47.78.47,1.13q0,49.62,0,99.25c0,.35,0,.71-.06,1.06a.24.24,0,0,1-.17.16.67.67,0,0,1-.26-.08,4.45,4.45,0,0,1-.25-2.39q0-48.37,0-96.74A4.56,4.56,0,0,1,373.57,122.73Z" transform="translate(-0.48 -0.47)"/><path class="cls-5" d="M255.21,224.27q0-49.24-.06-98.48c0-1.17-.1-2.34-.15-3.51l.77.46a4.62,4.62,0,0,1,.24,2.39q0,48.36,0,96.71a4.65,4.65,0,0,1-.23,2.39l-.54.39Z" transform="translate(-0.48 -0.47)"/><path class="cls-17" d="M453.4,224.26q0-47.46-.07-94.93c0-2.35-.09-4.69-.14-7l.78.45a4.62,4.62,0,0,1,.24,2.39q0,48.37,0,96.73a4.61,4.61,0,0,1-.24,2.39h-.06C453.74,224.47,453.58,224.49,453.4,224.26Z" transform="translate(-0.48 -0.47)"/><path class="cls-5" d="M394.62,122.91V223.66h-.24V122.81Z" transform="translate(-0.48 -0.47)"/><path class="cls-15" d="M278,224.26c-.91-.91-.51-2.06-.51-3.09q0-38.48,0-77c0-4.69.51-4.09-4.25-4.12-3.52,0-7,0-10.57,0-.87,0-1.83.3-2.55-.52a113.43,113.43,0,0,1,17.36,0H278c.48.65.29,1.4.29,2.1q0,40.25,0,80.5A3.36,3.36,0,0,1,278,224.26Z" transform="translate(-0.48 -0.47)"/><path class="cls-15" d="M316.57,139.56c-.72.81-1.68.51-2.55.52-3.88,0-7.78.18-11.65,0-2.71-.16-3.31.83-3.24,3.37.17,6.5.06,13,.06,19.51q0,29.13,0,58.26c0,1,.4,2.19-.51,3.09a4,4,0,0,1-.27-2.38q0-40,0-80a3.76,3.76,0,0,1,.28-2.37h.52A113.52,113.52,0,0,1,316.57,139.56Z" transform="translate(-0.48 -0.47)"/><path class="cls-5" d="M200.9,122.73c1.18.39.46,1.35.46,1.94q.08,48.52,0,97c0,.86.31,1.83-.49,2.55a4.49,4.49,0,0,1-.24-2.39q0-48.37,0-96.75A4.45,4.45,0,0,1,200.9,122.73Z" transform="translate(-0.48 -0.47)"/><path class="cls-5" d="M82.06,122.89c0,.63.12,1.26.12,1.88q0,48.92,0,97.83c0,.54-.06,1.08-.09,1.62a.35.35,0,0,1-.6,0h-.06a4.61,4.61,0,0,1-.24-2.39q0-48.37,0-96.73a4.64,4.64,0,0,1,.24-2.39l.56-.43a.38.38,0,0,1,.17.37Q82.12,122.89,82.06,122.89Z" transform="translate(-0.48 -0.47)"/><path class="cls-18" d="M320.37,122.72c.88.8.52,1.86.52,2.81q0,48,0,95.92c0,.95.36,2-.52,2.81a5.07,5.07,0,0,1-.25-2.66q0-48.11,0-96.22A5.07,5.07,0,0,1,320.37,122.72Z" transform="translate(-0.48 -0.47)"/><path class="cls-19" d="M320.37,122.72q0,50.77,0,101.54c-.89-.8-.53-1.86-.53-2.81q0-48,0-95.92C319.84,124.58,319.48,123.52,320.37,122.72Z" transform="translate(-0.48 -0.47)"/><path class="cls-20" d="M373.57,122.73q0,50.76,0,101.52c-.88-.8-.52-1.86-.52-2.81q0-47.94,0-95.89C373.06,124.6,372.69,123.54,373.57,122.73Z" transform="translate(-0.48 -0.47)"/><path class="cls-21" d="M255.77,224.24q0-50.75,0-101.5c.88.81.51,1.87.51,2.81q0,47.93,0,95.87C256.28,222.37,256.65,223.43,255.77,224.24Z" transform="translate(-0.48 -0.47)"/><path class="cls-22" d="M399.11,224.26c-.89-.8-.53-1.86-.53-2.81q0-48,0-95.92c0-.95-.36-2,.53-2.81a5,5,0,0,1,.25,2.66q0,48.11,0,96.23A5.11,5.11,0,0,1,399.11,224.26Z" transform="translate(-0.48 -0.47)"/><path class="cls-15" d="M200.9,122.73q0,50.76,0,101.53c-.87-.81-.52-1.87-.52-2.82q0-48,0-95.9C200.38,124.59,200,123.53,200.9,122.73Z" transform="translate(-0.48 -0.47)"/><path class="cls-3" d="M81.43,122.74q0,50.76,0,101.52c-.87-.81-.51-1.87-.51-2.82q0-47.94,0-95.88C80.92,124.61,80.56,123.55,81.43,122.74Z" transform="translate(-0.48 -0.47)"/><path class="cls-22" d="M30.4,122.73q0,50.76,0,101.52c-.88-.8-.52-1.87-.52-2.81q0-47.95,0-95.9C29.88,124.59,29.52,123.53,30.4,122.73Z" transform="translate(-0.48 -0.47)"/><path class="cls-23" d="M399.11,224.26q0-50.77,0-101.54c.86.81.5,1.87.5,2.82q0,47.95,0,95.9C399.6,222.38,400,223.44,399.11,224.26Z" transform="translate(-0.48 -0.47)"/><path class="cls-20" d="M454,224.25q0-50.76,0-101.52c.87.81.51,1.87.51,2.82q0,47.94,0,95.88C454.48,222.38,454.83,223.44,454,224.25Z" transform="translate(-0.48 -0.47)"/><path class="cls-19" d="M458.83,224.26c-.88-.8-.53-1.86-.53-2.81q0-48,0-95.92c0-.95-.36-2,.53-2.81a5,5,0,0,1,.25,2.66q0,48.11,0,96.23A5,5,0,0,1,458.83,224.26Z" transform="translate(-0.48 -0.47)"/><path class="cls-24" d="M458.83,224.26q0-50.77,0-101.54c.88.8.52,1.87.52,2.81q0,48,0,95.92C459.35,222.39,459.71,223.45,458.83,224.26Z" transform="translate(-0.48 -0.47)"/><path class="cls-17" d="M278,224.26q0-42.35,0-84.7l.5-.53a2.7,2.7,0,0,1,.11.53q0,42.35,0,84.7c-.17.21-.33.22-.49,0Z" transform="translate(-0.48 -0.47)"/><path class="cls-5" d="M298.68,139.56q0,42.35,0,84.7h-.06a.38.38,0,0,1-.63,0c0-6.22-.09-12.45-.1-18.67q0-31.67,0-63.33c0-1.07.12-2.15.18-3.22Z" transform="translate(-0.48 -0.47)"/><path class="cls-25" d="M50.56,160.18c-.05-6.48-.07-13-.18-19.43,0-1.84,1.2-1.42,2.18-1.42,7.56,0,15.13,0,22.69,0,1,0,2,.27,2.85-.46q.28.16.23.37t-.13.22l-.59.67c-5.63.54-11.28.07-16.92.25-3.21.1-6.44-.33-9.64.26q0,9.24,0,18.49c3.2.59,6.42.15,9.63.26,4.92.18,9.85-.3,14.76.26-.51,1.06-1.46.5-2.17.51C65.71,160.19,58.13,160.17,50.56,160.18Z" transform="translate(-0.48 -0.47)"/><path class="cls-22" d="M140.67,205.78c-.81-.59-.56-1.47-.57-2.25q0-30.22,0-60.44a12.84,12.84,0,0,1,.1-1.32c0-.05.12-.12.19-.13a.73.73,0,0,1,.25.08,3.65,3.65,0,0,1,.25,2.11q0,29.91,0,59.81A4.09,4.09,0,0,1,140.67,205.78Z" transform="translate(-0.48 -0.47)"/><path class="cls-26" d="M418.73,167.13a8,8,0,0,1,1.07,3.78,5.86,5.86,0,0,0-1.18,4q.07,23.12,0,46.25c0,1,.41,2.18-.51,3.08a4.68,4.68,0,0,1-.27-2.65q0-25.65,0-51.29C417.87,169.21,417.39,167.9,418.73,167.13Z" transform="translate(-0.48 -0.47)"/><path class="cls-17" d="M418.73,167.13a5.36,5.36,0,0,0-.63,3.13q0,27,0,54l-.74.57a.29.29,0,0,1-.46-.07c1-.85.57-2,.57-3q0-27.32,0-54.64v-3L418,164Z" transform="translate(-0.48 -0.47)"/><path class="cls-5" d="M140.67,205.78q0-32,0-64l.63,1.22q0,30.55,0,61.09C141,204.61,141.29,205.35,140.67,205.78Z" transform="translate(-0.48 -0.47)"/><path class="cls-5" d="M219.16,224.68c.06-1.08.17-2.16.17-3.24q0-27.13,0-54.25,0-1.44,0-2.89l.43-.08.75,2.93c-.67,18.77-.17,37.55-.34,56.32a2.11,2.11,0,0,1-.23.77Z" transform="translate(-0.48 -0.47)"/><path class="cls-20" d="M219.93,224.24q0-26.83,0-53.65a12.08,12.08,0,0,1,.62-3.44,8,8,0,0,1,1.07,3.81,5.66,5.66,0,0,0-1.15,4q.06,23.07,0,46.15C220.44,222.18,220.85,223.34,219.93,224.24Z" transform="translate(-0.48 -0.47)"/><path class="cls-15" d="M196.56,142.81c.9.79.54,1.86.54,2.8q0,27.87,0,55.75c0,.95.36,2-.53,2.81-.75-.95-.53-2.07-.53-3.14q0-27.54,0-55.08C196,144.89,195.82,143.76,196.56,142.81Z" transform="translate(-0.48 -0.47)"/><path class="cls-27" d="M196.56,142.81q0,30.68,0,61.36h-.5c-.45-.55-.29-1.21-.29-1.82q0-28.84,0-57.68a2.87,2.87,0,0,1,.27-1.84Z" transform="translate(-0.48 -0.47)"/><path class="cls-15" d="M196,142.81q0,30.67,0,61.34h-.49q0-30.69,0-61.38c.16-.23.32-.24.47,0Z" transform="translate(-0.48 -0.47)"/><path class="cls-5" d="M316.49,122.2l-46,.11c-3.61,0-7.21,0-10.82.07l-.15-.74a3.52,3.52,0,0,1,2.11-.26h52.77a3.88,3.88,0,0,1,2.12.24l.39.55C316.81,122.37,316.66,122.39,316.49,122.2Z" transform="translate(-0.48 -0.47)"/><path class="cls-28" d="M316.55,121.61l-57,0c.7-.84,1.67-.54,2.53-.54q26,0,51.93,0C314.87,121.1,315.84,120.8,316.55,121.61Z" transform="translate(-0.48 -0.47)"/><path class="cls-5" d="M237.37,122.21c-.84.93-.47,2.07-.47,3.12q0,22,0,44v3l-.39.11-1.28-3.49a4.67,4.67,0,0,0,.41-1.45c.69-14.73.12-29.46.35-44.19a1.39,1.39,0,0,1,.21-.5l.73-.58C237.09,122,237.25,122,237.37,122.21Z" transform="translate(-0.48 -0.47)"/><path class="cls-5" d="M435,122.87v49.9a9.69,9.69,0,0,1-1.22-3.78c.68-14.43.23-28.87.37-43.31a6.46,6.46,0,0,1,.23-2.94l.56-.41a.34.34,0,0,1,.16.35Q435.06,122.87,435,122.87Z" transform="translate(-0.48 -0.47)"/><path class="cls-20" d="M434.38,122.74q0,21.56,0,43.12a5.44,5.44,0,0,1-.63,3.13,10.69,10.69,0,0,1-1-3.84,5.52,5.52,0,0,0,1.14-3.76q-.07-17.91,0-35.82C433.88,124.61,433.51,123.55,434.38,122.74Z" transform="translate(-0.48 -0.47)"/><path class="cls-3" d="M480.54,206.86c-.76-.63-.5-1.49-.51-2.27,0-7.76.07-15.52-.06-23.28,0-2.22.71-2.72,2.78-2.69,7.22.11,14.43.05,21.65.06-.81.87-1.87.49-2.82.49-5.77,0-11.55,0-17.32,0-3.71,0-3.71,0-3.71,3.58Q480.55,194.82,480.54,206.86Z" transform="translate(-0.48 -0.47)"/><path class="cls-5" d="M322.12,224.72l47.5,0,.7.1h0l-.55.55a3.13,3.13,0,0,1-1.84.25H323.29a2.94,2.94,0,0,1-1.84-.26Z" transform="translate(-0.48 -0.47)"/><path class="cls-29" d="M479.44,161.31c-.78-3.82-.2-7.68-.33-11.52-.1-3,.09-6-.06-8.93-.09-1.87.43-2.45,2.37-2.42,8,.09,16.06,0,24.09,0v.64a3.18,3.18,0,0,1-2.06.48q-10.39,0-20.78,0a3,3,0,0,1-2.06-.46c-1.8.21-1.08,1.62-1.1,2.52C479.45,148.17,479.46,154.74,479.44,161.31Z" transform="translate(-0.48 -0.47)"/><path class="cls-3" d="M321.46,225.34l48.32,0c-.71.83-1.67.52-2.54.52q-21.63,0-43.25,0C323.12,225.88,322.16,226.18,321.46,225.34Z" transform="translate(-0.48 -0.47)"/><path class="cls-30" d="M236.19,122.74q0,21.54,0,43.08c0,.86.31,1.83-.54,2.53-.37-.9-.3-2-1-2.72a.28.28,0,0,1-.12-.42,4,4,0,0,0,1.18-3.39q-.05-18.14,0-36.27C235.68,124.6,235.31,123.55,236.19,122.74Z" transform="translate(-0.48 -0.47)"/><path class="cls-5" d="M460.59,224.72l46.44,0a.32.32,0,0,1,.52.05l-.4.55a3.22,3.22,0,0,1-1.85.24H461.76a3,3,0,0,1-1.84-.26Z" transform="translate(-0.48 -0.47)"/><path class="cls-5" d="M78.13,122.85a2.14,2.14,0,0,0-1.74-.55l-45.29.08-.15-.74a3,3,0,0,1,1.84-.26h43a3.2,3.2,0,0,1,1.85.24l.56.7A.35.35,0,0,1,78.13,122.85Z" transform="translate(-0.48 -0.47)"/><path class="cls-19" d="M108.06,182.45c-4.89,0-4.89,0-4.89,4.85q0,17.07,0,34.15c0,.95.36,2-.53,2.81a3,3,0,0,1-.26-1.84q0-19.34,0-38.68a3,3,0,0,1,.26-1.84h0a12.74,12.74,0,0,1,5.5,0v-.06A.44.44,0,0,1,108.06,182.45Z" transform="translate(-0.48 -0.47)"/><path class="cls-3" d="M459.92,225.34l47.23,0c-.71.82-1.68.51-2.54.51q-21.08,0-42.16,0C461.59,225.88,460.62,226.17,459.92,225.34Z" transform="translate(-0.48 -0.47)"/><path class="cls-28" d="M77.63,121.62l-46.68,0c.7-.84,1.67-.54,2.53-.54q20.81,0,41.62,0C76,121.1,76.92,120.8,77.63,121.62Z" transform="translate(-0.48 -0.47)"/><path class="cls-17" d="M50.46,224.25q0-22.43,0-44.86c0-.59-.5-1.5.59-1.78q.29.16.19.32c-.06.11-.13.17-.19.17q0,21.55,0,43.09C51,222.22,51.47,223.39,50.46,224.25Z" transform="translate(-0.48 -0.47)"/><path class="cls-5" d="M505.49,122.34l-45.51,0-.05-.74a2.91,2.91,0,0,1,1.84-.27h41.94a3,3,0,0,1,1.84.26Z" transform="translate(-0.48 -0.47)"/><path class="cls-28" d="M505.53,121.63H459.92c.7-.84,1.67-.54,2.53-.54q20.28,0,40.55,0C503.86,121.1,504.83,120.8,505.53,121.63Z" transform="translate(-0.48 -0.47)"/><path class="cls-29" d="M480.56,140.1c0,5.6.12,11.2-.06,16.79-.08,2.54.55,3.44,3.24,3.36a185.8,185.8,0,0,1,20,.46H482.22c-1.11,0-2.21.1-2.2-1.57,0-6.23,0-12.46.06-18.68,0-.31.32-.61.48-.92l.2.28Z" transform="translate(-0.48 -0.47)"/><path class="cls-31" d="M102.63,181.9q0,21.18,0,42.36c-.76-.62-.53-1.48-.53-2.26q0-18.91,0-37.83C102.1,183.39,101.87,182.52,102.63,181.9Z" transform="translate(-0.48 -0.47)"/><path class="cls-32" d="M82.06,122.89l-.07-.58.57-.69a7.26,7.26,0,0,1,3.19-.23q14,0,28.09,0c1,0,2-.26,2.91.26l.53,1c-11.16-.81-22.34-.16-33.51-.38A2,2,0,0,0,82.06,122.89Z" transform="translate(-0.48 -0.47)"/><path class="cls-28" d="M116.74,121.65l-34.19,0c.62-.75,1.48-.52,2.26-.52q14.84,0,29.68,0C115.28,121.1,116.14,120.87,116.74,121.65Z" transform="translate(-0.48 -0.47)"/><path class="cls-33" d="M114.58,216.11c-.77-.61-.54-1.47-.54-2.26q0-13.23,0-26.46c0-.77-.25-1.65.61-2.21C114.91,195.5,115.05,205.81,114.58,216.11Z" transform="translate(-0.48 -0.47)"/><path class="cls-5" d="M114.58,216.11q0-15.46.07-30.92a1,1,0,0,0,.34,0l.17,1c0,9-.05,18.07-.12,27.1C115,214.23,115.4,215.28,114.58,216.11Z" transform="translate(-0.48 -0.47)"/><path class="cls-15" d="M51.07,140.62c.71-.83,1.67-.5,2.53-.51,8,0,16,0,24,0-.71.82-1.68.51-2.54.51Q63.08,140.65,51.07,140.62Z" transform="translate(-0.48 -0.47)"/><path class="cls-29" d="M504.9,161.94c-5.46-.68-10.94-.1-16.41-.32-3-.12-6.06.43-9.06-.32H505A.38.38,0,0,1,504.9,161.94Z" transform="translate(-0.48 -0.47)"/><path class="cls-23" d="M480.62,139.08l24.91,0q0,.24,0,.48c-2.66.59-5.36.27-8,.24-5.65-.06-11.3.36-16.94-.23h0A1.76,1.76,0,0,1,480.62,139.08Z" transform="translate(-0.48 -0.47)"/><path class="cls-4" d="M480.56,139.55h25c-.79.9-1.85.53-2.8.54-7.39,0-14.78,0-22.18,0Z" transform="translate(-0.48 -0.47)"/><path class="cls-34" d="M51,178.11q0-.24,0-.49l24.44-.06c-.8.89-1.86.52-2.8.53C65.46,178.12,58.25,178.11,51,178.11Z" transform="translate(-0.48 -0.47)"/><path class="cls-26" d="M75.46,159.63c-7.2,0-14.39,0-21.59,0-.94,0-2,.38-2.8-.5,7.29,0,14.57,0,21.86,0C73.79,159.11,74.75,158.81,75.46,159.63Z" transform="translate(-0.48 -0.47)"/><path class="cls-5" d="M118.43,224.6h22.17l-.52.76a180.16,180.16,0,0,1-21.7,0Z" transform="translate(-0.48 -0.47)"/><path class="cls-5" d="M298,224.22l.63,0a1.77,1.77,0,0,1-1.06,1.11,138.52,138.52,0,0,1-19,0l-.5-1.08h.49c5.42.8,10.86.16,16.29.34C295.89,224.64,297,224.86,298,224.22Z" transform="translate(-0.48 -0.47)"/><path class="cls-3" d="M118.37,225.33l21.7,0a3.49,3.49,0,0,1-1.18.5q-9.68,0-19.36,0C119.15,225.85,118.76,225.51,118.37,225.33Z" transform="translate(-0.48 -0.47)"/><path class="cls-28" d="M400.19,121.63c.39-.18.78-.51,1.17-.51q9.42,0,18.83,0c.39,0,.78.34,1.17.53A176.81,176.81,0,0,1,400.19,121.63Z" transform="translate(-0.48 -0.47)"/><path class="cls-5" d="M400.19,121.63h21.17l-.05.75-21.08-.05Z" transform="translate(-0.48 -0.47)"/><path class="cls-28" d="M202,121.63c.3-.17.61-.48.91-.49q9.68,0,19.36,0c.3,0,.6.32.9.5A172.42,172.42,0,0,1,202,121.63Z" transform="translate(-0.48 -0.47)"/><path class="cls-5" d="M202,121.63h21.18l-.63.59-20.5.09Z" transform="translate(-0.48 -0.47)"/><path class="cls-5" d="M81.49,224.25l.6,0c2.91.87,5.88.25,8.82.37,3.32.13,6.64.09,10,.12l.67.62a141.38,141.38,0,0,1-19,0A1.76,1.76,0,0,1,81.49,224.25Z" transform="translate(-0.48 -0.47)"/><path class="cls-5" d="M453.4,224.26h.51l-.5,1.09a131.76,131.76,0,0,1-18.45,0c-.5-.34-.1-.49.14-.67,5.14,0,10.27,0,15.41-.09C451.48,224.6,452.5,224.88,453.4,224.26Z" transform="translate(-0.48 -0.47)"/><path class="cls-5" d="M255.21,224.27a2.2,2.2,0,0,0,0,.36l0,.7a129.78,129.78,0,0,1-18.45,0c-.48-.33-.1-.48.14-.65,5.23,0,10.46,0,15.69-.09C253.47,224.6,254.4,224.86,255.21,224.27Z" transform="translate(-0.48 -0.47)"/><path class="cls-5" d="M31.11,224.81l.52-.06,18.21,0,.67.62a142,142,0,0,1-19,0Z" transform="translate(-0.48 -0.47)"/><path class="cls-5" d="M375.33,224.72H393l.65.63a146.31,146.31,0,0,1-19,0Z" transform="translate(-0.48 -0.47)"/><path class="cls-3" d="M278.56,225.33l19,0c-.61.75-1.47.52-2.25.52q-7.25,0-14.5,0C280,225.88,279.16,226.1,278.56,225.33Z" transform="translate(-0.48 -0.47)"/><path class="cls-5" d="M340.45,121.66v.6l-18.93.12-.05-.74a140.21,140.21,0,0,1,19,0Z" transform="translate(-0.48 -0.47)"/><path class="cls-5" d="M393.64,122.31H374.71l0-.68a145.87,145.87,0,0,1,19,0Z" transform="translate(-0.48 -0.47)"/><path class="cls-3" d="M31.51,225.36l19,0c-.52.68-1.27.54-2,.54h-15C32.8,225.88,32,226,31.51,225.36Z" transform="translate(-0.48 -0.47)"/><path class="cls-3" d="M374.67,225.36h19c-.62.74-1.47.52-2.25.52q-7.25,0-14.49,0C376.15,225.88,375.29,226.1,374.67,225.36Z" transform="translate(-0.48 -0.47)"/><path class="cls-28" d="M340.46,121.62l-19,0c.52-.68,1.27-.55,2-.55h15C339.17,121.09,339.92,121,340.46,121.62Z" transform="translate(-0.48 -0.47)"/><path class="cls-3" d="M82.55,225.36l19,0c-.52.68-1.27.54-2,.54h-15C83.84,225.88,83.08,226,82.55,225.36Z" transform="translate(-0.48 -0.47)"/><path class="cls-5" d="M435,122.87l-.06-.54.56-.7a124.13,124.13,0,0,1,17.9,0l-.15.73L437,122.31A2.31,2.31,0,0,0,435,122.87Z" transform="translate(-0.48 -0.47)"/><path class="cls-28" d="M393.67,121.62h-19c.62-.74,1.47-.52,2.25-.52q7.25,0,14.49,0C392.2,121.1,393.05,120.88,393.67,121.62Z" transform="translate(-0.48 -0.47)"/><path class="cls-5" d="M237.37,122.21l-.46-.05.39-.55a123.71,123.71,0,0,1,17.9,0l-.14.72Z" transform="translate(-0.48 -0.47)"/><path class="cls-3" d="M236.76,225.35l18.45,0c-.52.69-1.27.55-2,.55h-14.5C238,225.88,237.28,226,236.76,225.35Z" transform="translate(-0.48 -0.47)"/><path class="cls-3" d="M435,225.36l18.45,0c-.52.68-1.27.55-2,.55h-14.5C436.24,225.88,435.49,226,435,225.36Z" transform="translate(-0.48 -0.47)"/><path class="cls-35" d="M135.24,156.39l.44-12.26a9.92,9.92,0,0,1-.16-3.11l.23-.38.56.56a82,82,0,0,1,0,14.07l-.58,1.12C135.57,156.63,135.4,156.64,135.24,156.39Z" transform="translate(-0.48 -0.47)"/><path class="cls-23" d="M277.46,139.55l-17.36,0a2.69,2.69,0,0,1,.06-.43q8.32,0,16.64,0C277,139.13,277.24,139.4,277.46,139.55Z" transform="translate(-0.48 -0.47)"/><path class="cls-28" d="M255.21,121.65l-17.9,0c.71-.81,1.66-.51,2.52-.51q6.44,0,12.88,0C253.56,121.11,254.52,120.8,255.21,121.65Z" transform="translate(-0.48 -0.47)"/><path class="cls-5" d="M507.55,224.81l-.52-.05a1.93,1.93,0,0,0,.58-1.69q-.05-7.76-.08-15.52l.72-.12a111.5,111.5,0,0,1,0,16.82Z" transform="translate(-0.48 -0.47)"/><path class="cls-28" d="M453.41,121.64l-17.9,0c.71-.82,1.66-.51,2.52-.51q6.44,0,12.88,0C451.76,121.11,452.72,120.8,453.41,121.64Z" transform="translate(-0.48 -0.47)"/><path class="cls-3" d="M219.37,225.33c-.6.77-1.46.55-2.24.55q-6.44,0-12.89,0c-.78,0-1.64.22-2.25-.53A117.3,117.3,0,0,1,219.37,225.33Z" transform="translate(-0.48 -0.47)"/><path class="cls-23" d="M316.57,139.56l-17.37,0c2.93-1.1,6-.45,9-.45C311,139.11,313.83,138.39,316.57,139.56Z" transform="translate(-0.48 -0.47)"/><path class="cls-5" d="M416.93,224.76l.46.07.18.51a112.7,112.7,0,0,1-17.38,0l.66-.62Z" transform="translate(-0.48 -0.47)"/><path class="cls-5" d="M219.37,225.33l-17.37,0,.66-.63,16.57-.13Z" transform="translate(-0.48 -0.47)"/><path class="cls-3" d="M400.19,225.35h17.38c-.6.77-1.46.54-2.24.55q-6.45,0-12.89,0C401.66,225.88,400.8,226.1,400.19,225.35Z" transform="translate(-0.48 -0.47)"/><path class="cls-5" d="M78.13,122.85l.06-.54.54-.14a112.09,112.09,0,0,1,0,16.81l-.54.46-.1-.59Z" transform="translate(-0.48 -0.47)"/><path class="cls-21" d="M78.75,139q0-8.41,0-16.81c.89.79.57,1.85.52,2.77C79,129.63,79.92,134.34,78.75,139Z" transform="translate(-0.48 -0.47)"/><path class="cls-5" d="M316.49,122.2l.46,0,.72.57a97.58,97.58,0,0,1,0,15.73l-.69,0c0-4.65,0-9.3,0-13.95C317,123.69,317.18,122.84,316.49,122.2Z" transform="translate(-0.48 -0.47)"/><path class="cls-36" d="M504.9,161.94l.14-.65.5.53a100.57,100.57,0,0,1,0,15.72L505,178a2,2,0,0,0-.09-.53Z" transform="translate(-0.48 -0.47)"/><path class="cls-3" d="M76.56,160.73c.93.88.51,2,.52,3.05.05,3.76,0,7.51,0,11.27,0,.86.3,1.82-.54,2.51A110.78,110.78,0,0,1,76.56,160.73Z" transform="translate(-0.48 -0.47)"/><path class="cls-5" d="M76.56,160.73q0,8.42,0,16.83l-.79-.06.11-16.74Z" transform="translate(-0.48 -0.47)"/><path class="cls-3" d="M508.26,224.24q0-8.41,0-16.82c.89.79.57,1.85.52,2.77C508.51,214.88,509.43,219.6,508.26,224.24Z" transform="translate(-0.48 -0.47)"/><path class="cls-5" d="M370.33,224.8c0-4.58,0-9.16.08-13.74,0-.86-.31-1.82.47-2.55a100.42,100.42,0,0,1,0,15.73l-.56.56Z" transform="translate(-0.48 -0.47)"/><path class="cls-5" d="M259.77,122.29l-.11,16.14-.65,0a97.79,97.79,0,0,1,0-15.73Z" transform="translate(-0.48 -0.47)"/><path class="cls-15" d="M317.65,138.47q0-7.87,0-15.73c1.14,3.29.38,6.68.47,10C318.19,134.64,318.81,136.65,317.65,138.47Z" transform="translate(-0.48 -0.47)"/><path class="cls-33" d="M259,122.73q0,7.87,0,15.73c-1-1.16-.57-2.58-.5-3.84C258.72,130.66,257.8,126.65,259,122.73Z" transform="translate(-0.48 -0.47)"/><path class="cls-3" d="M370.88,224.24q0-7.87,0-15.73c1.07,1.35.55,2.94.49,4.38C371.2,216.68,372,220.51,370.88,224.24Z" transform="translate(-0.48 -0.47)"/><path class="cls-5" d="M506.62,138.47c-1.11-3.65-.31-7.39-.45-11.09-.06-1.53-.59-3.2.46-4.66A96.82,96.82,0,0,1,506.62,138.47Z" transform="translate(-0.48 -0.47)"/><path class="cls-26" d="M506.62,138.47q0-7.87,0-15.75c1.16,3.29.39,6.68.48,10C507.15,134.63,507.77,136.65,506.62,138.47Z" transform="translate(-0.48 -0.47)"/><path class="cls-15" d="M135.6,185.21v14.45h-.2V185.22Z" transform="translate(-0.48 -0.47)"/><path class="cls-20" d="M505.55,177.55q0-7.86,0-15.72c1.07,1.35.55,2.94.49,4.38C505.87,170,506.71,173.81,505.55,177.55Z" transform="translate(-0.48 -0.47)"/><path class="cls-20" d="M136.31,155.27q0-7,0-14.07c1.1,2.09.48,4.34.47,6.5C136.77,150.22,137.41,152.81,136.31,155.27Z" transform="translate(-0.48 -0.47)"/><path class="cls-17" d="M134.19,210.12a59.92,59.92,0,0,1,0-9.74c.16-.25.31-.26.47,0l0,2.72a15.58,15.58,0,0,1,0,5.92Z" transform="translate(-0.48 -0.47)"/><path class="cls-37" d="M134.66,200.38h-.47c.1-3.37-.22-6.75.44-10.09Q134.64,195.34,134.66,200.38Z" transform="translate(-0.48 -0.47)"/><path class="cls-38" d="M431.82,162.33,430.66,158A3.12,3.12,0,0,1,431.82,162.33Z" transform="translate(-0.48 -0.47)"/><path class="cls-30" d="M134.69,209q0-3,0-5.92A7.28,7.28,0,0,1,134.69,209Z" transform="translate(-0.48 -0.47)"/><path class="cls-17" d="M108.13,181.87l-5.5,0a4.56,4.56,0,0,0,0-.47C104.47,181.51,106.38,180.7,108.13,181.87Z" transform="translate(-0.48 -0.47)"/><path class="cls-37" d="M134.63,189.27c-.66-1.68-.23-3.45-.42-5.18C135.13,185.76,134.48,187.54,134.63,189.27Z" transform="translate(-0.48 -0.47)"/><path class="cls-39" d="M135.26,140.63l-.46-3.22c1.32.78.88,2.08,1,3.23h0C135.59,140.89,135.42,140.88,135.26,140.63Z" transform="translate(-0.48 -0.47)"/><path class="cls-40" d="M196,142.81h-.47l-.52-3.22C196.4,140.34,195.94,141.66,196,142.81Z" transform="translate(-0.48 -0.47)"/><path class="cls-41" d="M108.06,182.45l.07-.64c1.23.23,2.51-.48,3.72.21l-.54.45a4.49,4.49,0,0,1-3.24,0Z" transform="translate(-0.48 -0.47)"/><path class="cls-42" d="M142.21,138.48l-.55,2.68C140.74,140,141.14,139.19,142.21,138.48Z" transform="translate(-0.48 -0.47)"/><path class="cls-5" d="M224.84,183a3.16,3.16,0,0,1,.57,2.08C224.54,184.55,224,183.94,224.84,183Z" transform="translate(-0.48 -0.47)"/><path class="cls-43" d="M128,171.55l2.26-2.28A2.13,2.13,0,0,1,128,171.55Z" transform="translate(-0.48 -0.47)"/><path class="cls-44" d="M172.16,224.88l3.21-.46C174.5,226,173.32,225.37,172.16,224.88Z" transform="translate(-0.48 -0.47)"/><path class="cls-5" d="M229.15,199.28a3.42,3.42,0,0,1,.58,2.1c-.18.17-.43.72-.42.53C229.35,201,228.18,200.19,229.15,199.28Z" transform="translate(-0.48 -0.47)"/><path class="cls-45" d="M229.14,143.93a2.46,2.46,0,0,1-.63-2.05,1.57,1.57,0,0,1,.19-.5c.22-.25.42-.21.43.15C229.15,142.33,229.14,143.13,229.14,143.93Z" transform="translate(-0.48 -0.47)"/><path class="cls-44" d="M425.65,192.24l.5,2.15h-.33C424.92,193.74,425,193,425.65,192.24Z" transform="translate(-0.48 -0.47)"/><path class="cls-19" d="M108.06,182.45h3.24A2.45,2.45,0,0,1,108.06,182.45Z" transform="translate(-0.48 -0.47)"/><path class="cls-46" d="M232.36,156.61a1.92,1.92,0,0,1-.56-1.76c.06-.16.07-.36.18-.47s.4-.15.4.19C232.38,155.25,232.37,155.93,232.36,156.61Z" transform="translate(-0.48 -0.47)"/><path class="cls-47" d="M135.24,156.39h.49c0,.61,0,1.21,0,1.82,0,.31-.17.44-.41.17a1.4,1.4,0,0,1-.18-.48Z" transform="translate(-0.48 -0.47)"/><path class="cls-44" d="M428.84,204.21l.48,2.11C428,205.87,428.29,205.07,428.84,204.21Z" transform="translate(-0.48 -0.47)"/><path class="cls-48" d="M135.29,216.1l-.19-1.4c.09-.24.11-.6.28-.69.36-.19.35.2.35.4C135.76,215,135.85,215.64,135.29,216.1Z" transform="translate(-0.48 -0.47)"/><path class="cls-5" d="M425.81,194.39h.33l.6,2.15A1.72,1.72,0,0,1,425.81,194.39Z" transform="translate(-0.48 -0.47)"/><path class="cls-5" d="M174.16,121.73l-2-.17C172.87,121,173.58,120.61,174.16,121.73Z" transform="translate(-0.48 -0.47)"/><path class="cls-44" d="M164.51,121.56l-2,.17C163.07,120.6,163.79,121,164.51,121.56Z" transform="translate(-0.48 -0.47)"/><path class="cls-5" d="M424.12,187.18a1.78,1.78,0,0,1,.56,1.69c-.17.17-.22.93-.49.43S424.12,187.9,424.12,187.18Z" transform="translate(-0.48 -0.47)"/><path class="cls-49" d="M538.66,334.48c.6.91,1.19,1.82,0,2.72-.38.22-.67,0-1-.2-.48-.43-.93-.61-1.29.13a4.1,4.1,0,0,0-.36,1.2,5.57,5.57,0,0,1-.15,1.85c-.32.73-1.25.73-1.35,0a34.51,34.51,0,0,1-.16-5.32c0-.53.62-.53,1.07-.51Z" transform="translate(-0.48 -0.47)"/><path class="cls-50" d="M536,338.33c-.64-.41-.61-.8,0-1.18a2.28,2.28,0,0,1,1.93-.7l.66.74c-.23,1.2.83,1.81,1.24,2.72-.63,1.3-1.26.87-1.77-.06S537.29,338.09,536,338.33Z" transform="translate(-0.48 -0.47)"/><path class="cls-51" d="M234.62,165.63c1.21.58,1,1.68,1,2.72l-.44.52Z" transform="translate(-0.48 -0.47)"/><path class="cls-9" d="M116.82,158.25c-.49,3.42-2.21,4.89-6.61,5.64a4.53,4.53,0,0,0-1.39-.42c-1.08-.05-2.16,0-3.24,0-2.67-.06-3.1-.43-3.13-3.19q-.1-8.24,0-16.48c0-2.74.6-3.21,3.4-3.35,1.53-.07,3.05.11,4.58.14a2.38,2.38,0,0,0,.89-.42c2.71.81,5.12,1.95,5.5,5.21A86,86,0,0,1,116.82,158.25Z" transform="translate(-0.48 -0.47)"/><path class="cls-52" d="M111.31,140.62c-1.73,1.14-3.67.51-5.49.5s-2.75.39-2.69,2.53q.21,8.37,0,16.75c-.05,2.11.72,2.64,2.67,2.55,1.28-.06,2.7-.53,3.89.47a25.22,25.22,0,0,1-8.07,0q-.05-11.07-.11-22.15c0-1,0-1.92,1.34-1.73,2.31.32,4.68-.27,7,.44-2,.72-4,.16-6,.34-1.8-.13-1.44,1.2-1.44,2.21,0,5.51,0,11,0,16.53,0,.8.25,1.63,0,2,0-5.84,0-12.09,0-18.34,0-.94-.56-2.35,1.28-2.37C106.21,140.52,108.78,140.06,111.31,140.62Z" transform="translate(-0.48 -0.47)"/><path class="cls-53" d="M116.82,158.25q0-6.45,0-12.89C117.59,149.66,117.12,154,116.82,158.25Z" transform="translate(-0.48 -0.47)"/><path class="cls-5" d="M101.62,163.46l8.07,0,.52.47C107.34,163.84,104.42,164.71,101.62,163.46Z" transform="translate(-0.48 -0.47)"/><path class="cls-5" d="M111.31,140.62h-7.59q-.29-.17-.17-.31a.29.29,0,0,1,.21-.13l6-.16,1.5.13Q111.3,140.38,111.31,140.62Z" transform="translate(-0.48 -0.47)"/><path class="cls-9" d="M135.26,140.63h.49l-.08,3.5Z" transform="translate(-0.48 -0.47)"/><path class="cls-9" d="M175.89,202.53c-.43,2.16-2,3.28-3.78,4.28-.79-.3-1.49.43-2.28.2a8.05,8.05,0,0,0-2.71-.05,4.6,4.6,0,0,0-.94.39c-2.6-.41-4.6-1.58-5.38-4.27a1.92,1.92,0,0,0,.36-.93c-.23-13-.07-26-.09-38.94,0-6.49-.14-13,.08-19.47a1.93,1.93,0,0,0-.36-.92c.87-2.61,2.85-3.81,5.42-4.25a10.44,10.44,0,0,0,4.28,0,6.59,6.59,0,0,1,5.32,4.29,5.5,5.5,0,0,0-.38,1.44q-.06,28.42,0,56.84A3.56,3.56,0,0,0,175.89,202.53Z" transform="translate(-0.48 -0.47)"/><path class="cls-54" d="M161.24,203.08h-.45a12.58,12.58,0,0,1-.51-4.27q0-26,0-52a11.7,11.7,0,0,1,.5-4h.48a3.42,3.42,0,0,1,.27,2.11q0,28,0,56.06A3.25,3.25,0,0,1,161.24,203.08Z" transform="translate(-0.48 -0.47)"/><path class="cls-5" d="M175.89,202.53l-.52-.55a3.93,3.93,0,0,1-.24-2.12q0-27.18,0-54.37a3.88,3.88,0,0,1,.24-2.12l.42-.52a23.12,23.12,0,0,1,.3,2.67q0,27.3,0,54.6C176.1,200.92,176,201.72,175.89,202.53Z" transform="translate(-0.48 -0.47)"/><path class="cls-5" d="M170.47,138.56a4.65,4.65,0,0,1-4.28,0A11.29,11.29,0,0,1,170.47,138.56Z" transform="translate(-0.48 -0.47)"/><path class="cls-5" d="M169.93,206.86c.72-.21,1.43-.94,2.17,0a4,4,0,0,1-2.69.6.44.44,0,0,1-.18-.38c0-.15,0-.22.08-.22A.47.47,0,0,1,169.93,206.86Z" transform="translate(-0.48 -0.47)"/><path class="cls-5" d="M169.42,206.92v.49a7.14,7.14,0,0,1-3.24-.06l.54-.48A3,3,0,0,1,169.42,206.92Z" transform="translate(-0.48 -0.47)"/><path class="cls-55" d="M538,336.46a1.77,1.77,0,0,1-1.93.7c0-.59-.46-1.34.32-1.68S537.67,335.77,538,336.46Z" transform="translate(-0.48 -0.47)"/><path class="cls-56" d="M115.8,157.86v-12.3h.27v12.34Z" transform="translate(-0.48 -0.47)"/><path class="cls-57" d="M103.76,140.18a1.71,1.71,0,0,0,0,.44c-1.5.26-1.07,1.45-1.08,2.36,0,5.58,0,11.17,0,16.75a4.84,4.84,0,0,1-.52,3.1c0-7.4,0-14.31,0-21.22C102.08,140.4,102.64,140,103.76,140.18Z" transform="translate(-0.48 -0.47)"/><path class="cls-4" d="M161.24,203.08q0-30.14,0-60.27c.91.79.54,1.85.54,2.8q0,27.34,0,54.68C161.8,201.23,162.17,202.3,161.24,203.08Z" transform="translate(-0.48 -0.47)"/><path class="cls-3" d="M175.37,143.37q0,29.3,0,58.6c-.82-.72-.51-1.68-.51-2.54q0-26.76,0-53.52C174.86,145,174.55,144.09,175.37,143.37Z" transform="translate(-0.48 -0.47)"/><path class="cls-21" d="M169.42,206.92l-2.69-.06a2.46,2.46,0,0,1,3.21,0Z" transform="translate(-0.48 -0.47)"/></g></g></svg>