<svg xmlns="http://www.w3.org/2000/svg" viewBox="0 0 489.6 257.08"><defs><style>.cls-1{fill:#fefefe;}.cls-2{fill:#fdfdfd;}.cls-3{fill:#f8f8f8;}.cls-4{fill:#010101;}.cls-5{fill:#030303;}.cls-6{fill:#020202;}</style></defs><title>wtf</title><g id="Layer_2" data-name="Layer 2"><g id="Layer_1-2" data-name="Layer 1"><path d="M245.17,257.41q-121.46,0-242.93,0c-1.53,0-1.87-.34-1.87-1.87Q.43,128.91.37,2.24C.37.71.71.37,2.24.37Q245.17.43,488.1.37c1.53,0,1.87.34,1.87,1.87q-.06,126.66,0,253.33c0,1.53-.34,1.87-1.87,1.87Q366.63,257.38,245.17,257.41Z" transform="translate(-0.37 -0.37)"/><path class="cls-1" d="M57.54,123.66c-1.68,6.49-3.38,13-5,19.47-.31,1.21-1.21.76-1.95.87-1.06.17-1.37-.41-1.61-1.32-1.38-5.23-2.81-10.45-4.24-15.72-.9.5-.76,1.45-1,2.17-1.29,4.49-2.57,9-3.7,13.53-.32,1.28-1,1.3-2,1.37-1.19.08-1.47-.53-1.7-1.47-1.5-6-3-12-4.52-17.94-.12-.47-1-1.39.29-1.52.86-.08,2-.59,2.39,1,.81,3.78,1.75,7.53,2.64,11.29a19.67,19.67,0,0,0,1.42,4.34l3-11.17a40.37,40.37,0,0,0,1.09-4.13c.2-1.25.84-1.42,1.94-1.46s1.63.41,1.91,1.52c1.32,5.18,2.73,10.34,4.24,16,1.37-5.53,2.71-10.54,3.8-15.6.43-2,1.32-2.25,3-1.64q.22.11.16.24C57.63,123.62,57.59,123.66,57.54,123.66Z" transform="translate(-0.37 -0.37)"/><path class="cls-2" d="M281.48,127.1c0,5.56,0,10.51,0,15.45,0,.85.09,1.54-1.21,1.5s-1.46-.37-1.44-1.51c.06-5.78,0-11.55.06-17.33,0-.7-.58-1.83.54-2.08s2.32-.37,3.18,1c2.87,4.61,5.86,9.13,8.82,13.69.39.59.8,1.17,1.48,2.16,0-5.43,0-10.36,0-15.29,0-.83-.29-1.71,1.21-1.71s1.47.68,1.46,1.75c0,5.78,0,11.55,0,17.33,0,.63.55,1.74-.55,1.85s-2.24.56-3.08-.8c-2.22-3.57-4.56-7.07-6.86-10.59Z" transform="translate(-0.37 -0.37)"/><path class="cls-2" d="M362.58,133.44c.13-4.15,1.43-7.78,5.36-9.78a9.8,9.8,0,0,1,10.25.54c4.65,3,5.9,10.83,2.62,15.91a9.94,9.94,0,0,1-13.64,2.81C363.77,140.71,362.67,137.32,362.58,133.44Z" transform="translate(-0.37 -0.37)"/><path class="cls-1" d="M318.06,133.46c0-3,0-6,0-9,0-.6-.3-1.47.85-1.43,3.32.12,6.66-.35,9.94.47a7.77,7.77,0,0,1,6.09,6.36,16,16,0,0,1-.23,7.66c-1,3.87-3.92,6.1-8.23,6.36-2.37.14-4.76,0-7.13.11-1.12,0-1.34-.37-1.32-1.39C318.1,139.58,318.06,136.52,318.06,133.46Z" transform="translate(-0.37 -0.37)"/><path class="cls-1" d="M386.19,133.47c0-3,0-6,0-9,0-.6-.31-1.48.84-1.43,3.32.12,6.66-.35,9.94.46a7.78,7.78,0,0,1,6.1,6.36,16,16,0,0,1-.22,7.66c-1,3.81-3.83,6.06-8,6.35-2.5.18-5,0-7.54.13-1.16,0-1.12-.58-1.11-1.38C386.2,139.58,386.19,136.53,386.19,133.47Z" transform="translate(-0.37 -0.37)"/><path class="cls-2" d="M146,144.41c-4.37,0-7.44-1.81-8.35-5.07-.2-.71-1-1.81.3-2.19,1-.31,2-.27,2.27,1.36.32,2.07,2,3,3.9,3.37,2.27.4,4.65.6,6.45-1.38,1.59-1.75.93-4.18-1.49-5-2.1-.74-4.32-1.12-6.46-1.76-3.86-1.14-5.34-3.44-4.4-6.71a4.22,4.22,0,0,1,.55-1.3c2.26-3.12,5.47-3.46,8.92-2.93a6,6,0,0,1,5.33,4.85c.1.53.8,1.48-.45,1.54-.74,0-1.67.53-2.18-.78a5.4,5.4,0,0,0-7.44-3,3.14,3.14,0,0,0-2.21,3.09A2.66,2.66,0,0,0,143,131c1.81.54,3.66,1,5.48,1.49,4.34,1.21,6.06,3.16,5.67,6.42-.36,3.07-3.17,5.25-7.09,5.49C146.72,144.43,146.38,144.41,146,144.41Z" transform="translate(-0.37 -0.37)"/><path class="cls-2" d="M131.72,130.54c0-2,.05-4.08,0-6.12,0-1,.23-1.46,1.34-1.39.91.06,1.53.07,1.5,1.29-.07,4.08.1,8.16-.08,12.24-.26,6.09-4.43,9-10.69,7.7-3.84-.81-5.77-2.69-6-6.61-.26-4.47-.11-9-.21-13.45,0-1.35.85-1.05,1.63-1.14,1-.12,1.22.38,1.21,1.29,0,4-.06,8,0,12,.06,3.59,1.75,5.44,5,5.69,4.07.31,6.13-1.51,6.26-5.61.06-2,0-3.94,0-5.91Z" transform="translate(-0.37 -0.37)"/><path class="cls-2" d="M220.58,143.85c-2,.66-3.09,0-3.76-2.15-1.27-4-1.4-4-5.67-4-4.61,0-4.74,0-6.13,4.22-.62,1.9-1.53,2.51-3.55,1.88.44-1.18.87-2.42,1.35-3.64,2-5.18,4.05-10.34,6-15.53.4-1,.81-1.68,2.13-1.62a2.05,2.05,0,0,1,2.23,1.51c2.4,6.33,4.9,12.63,7.36,18.94A1.18,1.18,0,0,1,220.58,143.85Z" transform="translate(-0.37 -0.37)"/><path class="cls-2" d="M404.58,143.79c2.58-6.62,5.17-13.16,7.66-19.74.41-1.07,1.1-1,1.91-1s1.56-.21,2,.9c2.53,6.63,5.14,13.23,7.73,19.86-2.15.66-3.24,0-3.9-2.12-1.25-4-1.39-4-5.67-4-4.6,0-4.73,0-6.12,4.23C407.55,143.84,406.62,144.41,404.58,143.79Z" transform="translate(-0.37 -0.37)"/><path class="cls-1" d="M261,133.58c0-3.06,0-6.12,0-9.18,0-1.08.3-1.39,1.37-1.37,3.87.06,7.75,0,11.62,0,.9,0,1.52,0,1.5,1.23s-.68,1.08-1.44,1.07c-2.92,0-5.85,0-8.77,0-1.12,0-1.51.27-1.55,1.46-.17,5.3-.21,5.3,5,5.3,1.56,0,3.13,0,4.69,0,.81,0,1.22.11,1.23,1.08s-.32,1.27-1.28,1.25c-2.72-.06-5.44,0-8.16,0-1.17,0-1.57.35-1.5,1.51.11,1.82-.57,4.17.33,5.33s3.42.32,5.22.4,3.4.06,5.1,0c.93,0,1.14.36,1.14,1.2s-.07,1.23-1.07,1.22q-6.22-.08-12.44,0c-1,0-1-.52-1-1.26C261,139.7,261,136.64,261,133.58Z" transform="translate(-0.37 -0.37)"/><path class="cls-1" d="M300.11,133.52c0-3,0-6,0-9,0-1.1.23-1.54,1.44-1.51,3.87.07,7.75,0,11.62,0,.77,0,1.41-.1,1.43,1.08s-.62,1.23-1.5,1.22c-2.85,0-5.71,0-8.57,0-1.15,0-1.67.18-1.7,1.52-.11,5.23-.16,5.23,5.1,5.23,1.56,0,3.13,0,4.69,0,.9,0,1.17.26,1.16,1.15s-.21,1.2-1.14,1.18c-2.65-.06-5.3.05-8,0-1.38-.05-2,.3-1.84,1.78.18,1.74-.71,4,.33,5.12s3.34.29,5.08.35,3.4.06,5.1,0c1,0,1.26.29,1.3,1.27s-.51,1.15-1.35,1.15c-3.94,0-7.89-.07-11.83,0-1.27,0-1.4-.49-1.38-1.54C300.15,139.5,300.11,136.51,300.11,133.52Z" transform="translate(-0.37 -0.37)"/><path class="cls-1" d="M182.63,133.58c0-3.05,0-6.11,0-9.16,0-1.06.27-1.42,1.36-1.39s1.48.19,1.43,1.34c-.09,2,0,4.07,0,6.11,0,1.19.24,1.7,1.56,1.65,2.71-.11,5.43-.07,8.14,0,1.06,0,1.44-.31,1.4-1.38-.07-2.1,0-4.21,0-6.31,0-1.08.32-1.4,1.38-1.39s1.42.21,1.41,1.34q-.08,9.16,0,18.33c0,1.1-.35,1.36-1.38,1.34s-1.47-.14-1.42-1.31c.1-2.24,0-4.48,0-6.72,0-1.19-.23-1.7-1.56-1.66-2.71.1-5.43.07-8.14,0-1.05,0-1.45.3-1.41,1.38.07,2.24,0,4.48,0,6.72,0,1,0,1.61-1.35,1.59s-1.46-.39-1.43-1.51C182.68,139.56,182.63,136.57,182.63,133.58Z" transform="translate(-0.37 -0.37)"/><path class="cls-1" d="M223,133.57c0-3.06,0-6.11,0-9.17,0-1.08.3-1.4,1.38-1.37,2.92.09,5.84,0,8.76.12,3.51.18,5.47,2.42,5.49,6s-1.94,5.92-5.37,6.18a57.47,57.47,0,0,1-6.11,0c-1,0-1.45.25-1.4,1.35.08,1.9,0,3.8,0,5.7,0,1,0,1.62-1.35,1.59s-1.46-.39-1.43-1.51C223.06,139.55,223,136.56,223,133.57Z" transform="translate(-0.37 -0.37)"/><path class="cls-1" d="M247.86,123.13c1.49,0,3-.08,4.48,0,3.49.24,5.45,2.47,5.45,6.08s-2,5.89-5.42,6.14a56.65,56.65,0,0,1-6.11,0c-1.11,0-1.39.36-1.35,1.4.07,2,0,4.08,0,6.11.05,1.19-.63,1.09-1.4,1.1s-1.4.06-1.39-1.11c.06-6.25,0-12.5,0-18.75,0-.94.38-1.14,1.21-1.11,1.49,0,3,0,4.48,0Z" transform="translate(-0.37 -0.37)"/><path class="cls-2" d="M424.11,123.31c2.16-.71,3.43-.12,4.45,1.75,1.46,2.67,3.21,5.18,4.94,7.93,1.66-2.69,3.36-5.21,4.81-7.87.94-1.73,2.08-2.56,4.09-1.92.25.57-.31.9-.56,1.3a45.19,45.19,0,0,1-3.1,4.77c-3.12,3.86-4.73,8.11-3.92,13.11.18,1.12-.07,1.66-1.46,1.68-1.55,0-1.48-.82-1.35-1.76.73-4.93-.82-9.1-3.91-12.91A69.75,69.75,0,0,1,424.11,123.31Z" transform="translate(-0.37 -0.37)"/><path class="cls-1" d="M77.38,133.53c0-3,0-6,0-9,0-1.08.2-1.55,1.42-1.53,3.67.08,7.34.05,11,0,.9,0,1.33.15,1.34,1.2s-.62,1.12-1.42,1.11c-2.65,0-5.3,0-8,0-1.18,0-1.65.22-1.67,1.54-.09,5.22-.14,5.21,5.11,5.21,1.09,0,2.18,0,3.26,0,.89,0,1.34.11,1.34,1.18s-.55,1.15-1.38,1.14c-2.31,0-4.62,0-6.93,0-1.09,0-1.41.37-1.38,1.42.06,2.31,0,4.62,0,6.93,0,1.13-.4,1.32-1.4,1.33s-1.42-.21-1.4-1.33C77.43,139.64,77.38,136.59,77.38,133.53Z" transform="translate(-0.37 -0.37)"/><path class="cls-2" d="M57.54,123.66q0-.19,0-.37c5.42-.52,10.85-.08,16.28-.24.92,0,.94.48.94,1.15s0,1.2-.92,1.17c-1.42-.06-2.86.08-4.28,0s-1.85.32-1.82,1.78c.09,5,0,9.92,0,14.87,0,1,.49,2.13-1.43,2.09S65,142.78,65,141.86c0-4.89-.09-9.78,0-14.67,0-1.58-.45-2.05-1.94-1.86-.87.11-1.77-.06-2.64,0C59,125.53,57.87,125.27,57.54,123.66Z" transform="translate(-0.37 -0.37)"/><path class="cls-2" d="M354.53,134.68c0,2.58,0,5.15,0,7.73,0,.9.16,1.68-1.27,1.64-1.24,0-1.59-.34-1.58-1.6.08-5.08,0-10.17.07-15.25,0-1.57-.43-2-1.93-1.88-1.28.13-2.57,0-3.86,0-.77,0-1.25-.08-1.26-1.07s.35-1.26,1.3-1.25q7.12.06,14.24,0c.94,0,1.31.22,1.29,1.23s-.4,1.12-1.22,1.09c-1.35,0-2.72.09-4.07,0-1.49-.14-1.81.47-1.76,1.84C354.6,129.66,354.53,132.17,354.53,134.68Z" transform="translate(-0.37 -0.37)"/><path class="cls-2" d="M162.44,134.75c0-2.71,0-5.43,0-8.14,0-1-.28-1.33-1.27-1.28-1.49.07-3,0-4.47,0-1,0-1.29-.27-1.28-1.26s.52-1.06,1.27-1.06c4.81,0,9.63,0,14.44,0,1,0,1.08.4,1.11,1.21s-.34,1.15-1.19,1.12c-1.42-.05-2.85.07-4.27,0s-1.59.38-1.57,1.61c.07,5,0,10,0,15.05,0,1,.48,2.13-1.43,2.09s-1.32-1.29-1.35-2.2C162.4,139.5,162.44,137.12,162.44,134.75Z" transform="translate(-0.37 -0.37)"/><path class="cls-2" d="M110.12,131.43c0-2.44,0-4.89,0-7.33,0-1,.47-1.13,1.24-1s1.63-.35,1.59.92c-.13,5.29.38,10.6-.26,15.87-.42,3.51-3.46,5.21-7.5,4.51a5.59,5.59,0,0,1-4.58-6.44c.09-.78.46-.93,1-.82s1.6-.53,1.72.75c0,.47.11.94.17,1.42a2.85,2.85,0,0,0,3.08,2.84c2.09,0,3.26-.84,3.4-2.93.16-2.57,0-5.16,0-7.74Z" transform="translate(-0.37 -0.37)"/><path class="cls-2" d="M456.95,128.66c.1,1.71-.93,3.19-2.26,4.51s-2.84,2.72-2.77,5c0,1.12-1,.63-1.54.72s-.91-.27-.93-.94a6.22,6.22,0,0,1,1.89-4.56,17.43,17.43,0,0,0,2.4-2.75,4,4,0,0,0-.07-4.4,3.26,3.26,0,0,0-3.56-1.38,3.64,3.64,0,0,0-3.08,2.85c-.14.45-.15.94-.3,1.39-.32,1-1.15.43-1.75.52s-.71-.38-.73-.9c-.13-3.19,3-6.14,6.56-6.17A5.71,5.71,0,0,1,456.95,128.66Z" transform="translate(-0.37 -0.37)"/><path class="cls-3" d="M449.1,142.26c-.46-1.72.68-1.44,1.71-1.56,1.58-.18,1.43.74,1.55,1.81.18,1.65-.81,1.4-1.84,1.52C448.91,144.22,448.88,143.35,449.1,142.26Z" transform="translate(-0.37 -0.37)"/><path d="M379.81,133.62c0,5.67-3.45,9.06-8.49,8.36A6.28,6.28,0,0,1,366,137.1c-1.06-3.68-1-7.31,1.85-10.27,2-2.07,4.5-2.38,7.14-1.55C378,126.25,379.84,129.45,379.81,133.62Z" transform="translate(-0.37 -0.37)"/><path class="cls-4" d="M320.81,133.41c0-2.24,0-4.47,0-6.71,0-1.08.35-1.44,1.41-1.37,1.35.09,2.71,0,4.06.12,3.78.36,5.62,2.09,6.11,5.83a16,16,0,0,1,0,4.05c-.53,4.15-2.91,6.2-7.1,6.28-4.47.09-4.47.09-4.47-4.34Q320.81,135.34,320.81,133.41Z" transform="translate(-0.37 -0.37)"/><path class="cls-4" d="M388.93,133.55c0-2.3,0-4.61,0-6.91,0-.93.25-1.37,1.26-1.31,1.42.09,2.85,0,4.26.12,3.7.36,5.49,2,6,5.69a15.65,15.65,0,0,1,0,4.25c-.56,4.15-2.93,6.14-7.15,6.22-4.41.08-4.41.08-4.41-4.4Q388.93,135.38,388.93,133.55Z" transform="translate(-0.37 -0.37)"/><path class="cls-5" d="M211,125.46l3.47,9.79h-7Z" transform="translate(-0.37 -0.37)"/><path class="cls-5" d="M417.67,135.37c-2.13,0-4,0-5.9,0-.75,0-1.2-.11-.87-1,1.06-2.84,2.1-5.68,3.27-8.87Z" transform="translate(-0.37 -0.37)"/><path class="cls-6" d="M229.32,133c-3.56.09-3.56.09-3.56-3.52,0-4.1,0-4.11,4.14-4.07a18.86,18.86,0,0,1,2.82.24,3.71,3.71,0,0,1-.16,7.33A30.89,30.89,0,0,1,229.32,133Z" transform="translate(-0.37 -0.37)"/><path class="cls-6" d="M244.93,129c0-3.64,0-3.66,3.56-3.63a24.07,24.07,0,0,1,3.23.23,3.7,3.7,0,0,1-.23,7.37c-1.62.12-3.25,0-4.87.11-1.28.09-1.9-.24-1.72-1.65A18.76,18.76,0,0,0,244.93,129Z" transform="translate(-0.37 -0.37)"/></g></g></svg>