<svg xmlns="http://www.w3.org/2000/svg" viewBox="0 0 446.19 299.19"><defs><style>.cls-1{fill:#fefefe;}.cls-2{fill:#6c6c6c;}.cls-3{fill:#51d69f;}.cls-4{fill:#3dd194;}.cls-5{fill:#21ca85;}.cls-6{fill:#e49ddd;}.cls-7{fill:#25cb87;}.cls-8{fill:#2acd8a;}.cls-9{fill:#30cf8d;}.cls-10{fill:#1dca82;}.cls-11{fill:#6d6d6d;}.cls-12{fill:#f7a8aa;}.cls-13{fill:#abebd0;}.cls-14{fill:#a2a2f6;}.cls-15{fill:#b5edd5;}.cls-16{fill:#c5f1de;}.cls-17{fill:#e8ace2;}.cls-18{fill:#65daab;}.cls-19{fill:#6edcaf;}.cls-20{fill:#cef3e4;}.cls-21{fill:#7ee0b8;}.cls-22{fill:#69dbad;}.cls-23{fill:#96e5c6;}.cls-24{fill:#74deb3;}.cls-25{fill:#85e2bb;}.cls-26{fill:#8be3bf;}.cls-27{fill:#a2e9cc;}.cls-28{fill:#9ce7c9;}.cls-29{fill:#adadf7;}.cls-30{fill:#bbefd9;}.cls-31{fill:#fdfdfd;}.cls-32{fill:#2625ea;}.cls-33{fill:#5ed9a7;}.cls-34{fill:#2929ea;}.cls-35{fill:#4247e9;}.cls-36{fill:#37d090;}.cls-37{fill:#e293da;}.cls-38{fill:#d972ce;}.cls-39{fill:#de83d4;}.cls-40{fill:#f69c9f;}.cls-41{fill:#db7ed2;}.cls-42{fill:#b883bb;}.cls-43{fill:#18c980;}.cls-44{fill:#1ac981;}.cls-45{fill:#733a76;}.cls-46{fill:#874489;}.cls-47{fill:#905897;}.cls-48{fill:#9a61a0;}.cls-49{fill:#a26ba7;}.cls-50{fill:#ab75af;}.cls-51{fill:#9595f4;}.cls-52{fill:#f69093;}.cls-53{fill:#f69da0;}.cls-54{fill:#7e7ef2;}.cls-55{fill:#7574f1;}.cls-56{fill:#7070f1;}.cls-57{fill:#a9a9f6;}.cls-58{fill:#b47ab6;}.cls-59{fill:#3d3dec;}.cls-60{fill:#4142ed;}.cls-61{fill:#78dfb5;}.cls-62{fill:#6463f0;}.cls-63{fill:#5252ee;}.cls-64{fill:#6060f0;}.cls-65{fill:#90e5c2;}.cls-66{fill:#1c1dea;}.cls-67{fill:#201fe9;}.cls-68{fill:#2322e9;}.cls-69{fill:#de242b;}.cls-70{fill:#ea1d25;}.cls-71{fill:#e51f27;}.cls-72{fill:#2c2bea;}.cls-73{fill:#d02a31;}.cls-74{fill:#302feb;}.cls-75{fill:#3636eb;}.cls-76{fill:#3333eb;}.cls-77{fill:#da78d1;}.cls-78{fill:#f48286;}.cls-79{fill:#d666cb;}.cls-80{fill:#d45dc7;}.cls-81{fill:#b36cb3;}.cls-82{fill:#f58a8e;}.cls-83{fill:#5b1e5f;}.cls-84{fill:#541c5a;}.cls-85{fill:#79087d;}.cls-86{fill:#491750;}.cls-87{fill:#4f1754;}.cls-88{fill:#642667;}.cls-89{fill:#5e2463;}.cls-90{fill:#5c2562;}.cls-91{fill:#69286d;}.cls-92{fill:#924495;}.cls-93{fill:#9a549e;}.cls-94{fill:#a75ea8;}.cls-95{fill:#f37579;}.cls-96{fill:#6968f0;}.cls-97{fill:#b73237;}.cls-98{fill:#4747e1;}.cls-99{fill:#4743d2;}.cls-100{fill:#4a4aed;}.cls-101{fill:#f1666b;}.cls-102{fill:#ee595e;}.cls-103{fill:#e32129;}.cls-104{fill:#d4282f;}.cls-105{fill:#d8262d;}.cls-106{fill:#850e75;}.cls-107{fill:#c82d32;}.cls-108{fill:#981a8c;}.cls-109{fill:#d153c5;}.cls-110{fill:#d267c8;}.cls-111{fill:#cd41be;}.cls-112{fill:#ce48c0;}.cls-113{fill:#d04dc3;}.cls-114{fill:#b958b4;}.cls-115{fill:#622165;}.cls-116{fill:#752875;}.cls-117{fill:#6a226b;}.cls-118{fill:#7b2879;}.cls-119{fill:#6f2870;}.cls-120{fill:#883d8c;}.cls-121{fill:#833180;}.cls-122{fill:#7d2f7b;}.cls-123{fill:#772e78;}.cls-124{fill:#a852a7;}.cls-125{fill:#b03438;}.cls-126{fill:#c13035;}.cls-127{fill:#ac20a1;}.cls-128{fill:#a61d93;}.cls-129{fill:#a1373b;}.cls-130{fill:#97393c;}.cls-131{fill:#822c7f;}.cls-132{fill:#a42d9b;}.cls-133{fill:#c937bb;}.cls-134{fill:#cb3cbd;}.cls-135{fill:#af32a5;}.cls-136{fill:#9a3993;}.cls-137{fill:#a23b99;}.cls-138{fill:#95388f;}.cls-139{fill:#8d3589;}.cls-140{fill:#722b74;}.cls-141{fill:#873284;}.cls-142{fill:#8a3187;}.cls-143{fill:#c72db7;}.cls-144{fill:#bd25af;}.cls-145{fill:#b424a8;}.cls-146{fill:#bb2cae;}.cls-147{fill:#91358c;}.cls-148{fill:#c831b8;}</style></defs><title>univision</title><g id="Layer_2" data-name="Layer 2"><g id="Layer_1-2" data-name="Layer 1"><path class="cls-1" d="M224,300q-109.5,0-219,.1c-3.42,0-4.1-.67-4.1-4.1Q1.08,150.5.9,5C.9,1.58,1.58.9,5,.91q219,.17,438,0c3.42,0,4.1.67,4.1,4.09q-.18,145.5,0,291c0,3.42-.67,4.1-4.1,4.1Q333.5,299.91,224,300Z" transform="translate(-0.9 -0.91)"/><path class="cls-2" d="M312.64,242.8c10.88,0,19.33,8.3,19.16,18.8a18.76,18.76,0,0,1-19,18.46c-10.84.06-19.43-8.14-19.45-18.57S301.81,242.78,312.64,242.8Z" transform="translate(-0.9 -0.91)"/><path class="cls-3" d="M263,22a5.88,5.88,0,0,1,4.85.92,2,2,0,0,1,2.67.3c1.83,2.21,2,4.86,2,7.54q0,44.3,0,88.6a12.81,12.81,0,0,1-1,5.83,6.7,6.7,0,0,1-.91,1.74,4.16,4.16,0,0,1-1.67,1,6.18,6.18,0,0,1-5.68-1c-1.88-2-1.79-4.58-1.8-7.06q-.08-45.65,0-91.3C261.4,26.31,261.28,23.93,263,22Z" transform="translate(-0.9 -0.91)"/><path class="cls-2" d="M74.23,255a44,44,0,0,0,0-6c-.7-4.68,1.22-6,5.77-5.81,3.31.16,4.3,1.11,4.13,4.34-.26,4.81-.12,9.65,0,14.48.08,5.65,3,8.93,7.79,9,5.09.09,8-3.18,8.07-9.21.06-5,.22-10-.05-15-.2-3.58,1.77-3.76,4.32-3.51,2.37.23,5.73-1.22,5.5,3.42-.32,6.47.57,13-.49,19.43-1.42,8.66-7.66,13.71-16.83,13.84s-15.64-4.77-17.53-13.11C73.9,262.81,74.41,258.65,74.23,255Z" transform="translate(-0.9 -0.91)"/><path class="cls-2" d="M152.7,268a34,34,0,0,0,0,5.48c.81,5-1.39,6.23-6.08,6-3.23-.18-3.88-1.29-3.77-4.16.19-5,.14-10,0-15-.12-5.32-3.05-8.41-7.78-8.48-5-.08-7.93,3.06-8,8.69-.08,5.32-.13,10.65,0,16,.09,3.23-2.06,3.08-4,2.73-2.06-.37-5.73,1.88-5.78-2.4-.08-7-.76-14,.52-20.92,1.52-8.22,7.78-13,16.91-13.1s15.47,4.73,17.28,12.75C153,259.67,152.58,263.83,152.7,268Z" transform="translate(-0.9 -0.91)"/><path class="cls-2" d="M338.85,266.94c0-2.17,0-4.33,0-6.5.1-11.2,6.65-17.71,17.73-17.65,10.55.06,17.25,6.84,17.38,17.68.06,5.16-.18,10.34.07,15.49.21,4.31-2.73,3.24-5,3.3s-5.13.72-4.92-3.45c.26-5.15.13-10.33,0-15.49-.1-5.36-3-8.46-7.69-8.52s-7.76,2.76-8,8.24c-.24,5.32-.23,10.66,0,16,.15,4.32-2.87,3.1-5.12,3.24s-4.78.44-4.47-3.33C339.05,273,338.85,269.94,338.85,266.94Z" transform="translate(-0.9 -0.91)"/><path class="cls-4" d="M263,22q0,49.2,0,98.4c0,2.12-.5,4.36,1,6.27-3,2.56-6.05,2.07-9.2.42-1-3.09-.38-6.27-.38-9.39q-.07-43.6,0-87.19c0-2.79-.45-5.68,1.13-8.27,1.81-1.22,3.72-.82,5.63-.32Z" transform="translate(-0.9 -0.91)"/><path class="cls-2" d="M256.88,242.71a51.76,51.76,0,0,1,5.55,1.06c6,1.74,6.2,2.56,2.54,7.42-1.1,1.47-2,2-3.63.94a5.5,5.5,0,0,0-2.31-.9c-2.58-.28-6-1.28-6.82,2-.73,3,2.82,3,4.8,3.88,2.56,1.17,5.36,2,7.67,3.5a9.85,9.85,0,0,1,.51,16.16c-5.54,4.42-17.59,4.16-23.08-.3-1.75-1.42-1.24-2.66-.12-3.7,1.42-1.3,1.31-5.17,4.9-3.15a14.36,14.36,0,0,0,8.56,2.18c1.69-.17,3.39-.65,3.67-2.71.24-1.84-1.14-2.64-2.57-3.22-2.15-.87-4.36-1.6-6.51-2.48-6-2.46-8.5-5.81-8-10.62.56-5.06,5.09-9.13,11-9.86C254.06,242.84,255.06,242.82,256.88,242.71Z" transform="translate(-0.9 -0.91)"/><path class="cls-2" d="M197.27,265.13c3.21-7.08,5.92-13.15,8.72-19.19,1-2.12,8.48-3.82,10.13-2.38,1.07.93.15,1.86-.21,2.66-4.7,10.29-9.37,20.6-14.23,30.82-1.55,3.27-7.21,3.23-8.79-.08-4.87-10.21-9.52-20.53-14.3-30.79-.85-1.83-.68-2.74,1.59-2.85,4.28-.21,8-.29,9.71,5.13S194.53,259,197.27,265.13Z" transform="translate(-0.9 -0.91)"/><path class="cls-5" d="M235,20.86l5,.14c1.71,1.91,1.61,4.29,1.61,6.6q0,46.55,0,93.1c0,2.15.06,4.34-1.21,6.26a4.33,4.33,0,0,1-5.69.16c-1.43-1.88-1.19-4.09-1.19-6.24q0-46.69,0-93.37C233.51,25.18,233.31,22.81,235,20.86Z" transform="translate(-0.9 -0.91)"/><path class="cls-6" d="M137.32,121q-.16-34.8-.33-69.61c0-4.81,0-9.61,0-14.42,3-2.22,6.48-1.53,9.67-1.19C167.52,38,186,45.54,200.51,61.17c1.3,1.4,3.18,2.61,2.53,5a3.6,3.6,0,0,1-3.78.41c-12.91-12.89-28-21.66-46.19-24.81a52.48,52.48,0,0,0-10.93-.42c-1,0-2.07.05-2.1,1.49a12.46,12.46,0,0,0,.78,3.32c.32,1,.49,2,.76,2.93a14.8,14.8,0,0,1,.72,3.32c.4,21.61.09,43.22.17,64.83a10.51,10.51,0,0,1-.42,3.45,2.49,2.49,0,0,1-1.82,1.83A3,3,0,0,1,137.32,121Z" transform="translate(-0.9 -0.91)"/><path class="cls-7" d="M240,127q0-53,0-106l4,.08c1.74,1.91,1.61,4.3,1.61,6.61q.05,46.37,0,92.75c0,2.15.09,4.34-1.08,6.31A3.06,3.06,0,0,1,240,127Z" transform="translate(-0.9 -0.91)"/><path class="cls-8" d="M244,126.94V21.08c1.59-.62,2.55,1.15,4,1,1.8,1.89,1.6,4.29,1.6,6.59q.06,45.87,0,91.74c0,2.15.09,4.34-1.09,6.31A3,3,0,0,1,244,126.94Z" transform="translate(-0.9 -0.91)"/><path class="cls-9" d="M248,126.91q0-52.39,0-104.79l1.83-.22a2,2,0,0,1,2.67.41c1.14,1.78,1.08,3.81,1.09,5.79.1,32.07-.1,64.14.11,96.21a7.3,7.3,0,0,1-.38,2.45C251.59,128.47,249.82,128.49,248,126.91Z" transform="translate(-0.9 -0.91)"/><path class="cls-10" d="M235,20.86V127a2.38,2.38,0,0,1-3.49-.23c-1.51-2.61-1.08-5.5-1.09-8.29,0-29.61,0-59.22-.08-88.83,0-2.74,1.05-6.36-3.42-7.11-3,.11-6,0-9,0-8.38,0-8.39,0-8.4,8.64q0,25.87,0,51.74c0,2.47.25,5-.79,7.36a1.64,1.64,0,0,1-1.43,1c-2.69-2.34-1.46-5.51-1.76-8.35,0-.55,0-1.12,0-1.67q0-2.4.06-4.82c0-.77,0-1.55,0-2.33,0-1,0-2,0-3.06,0-.77,0-1.54,0-2.31.09-1.31.1-2.64,1.18-3.62.06-13.43.25-26.85.09-40.28,0-3.69.88-5,4.68-4.73C219.44,20.56,227.26,19.71,235,20.86Z" transform="translate(-0.9 -0.91)"/><path class="cls-11" d="M233,261c0,5-.19,10,.06,15,.22,4.4-2.82,3.14-5,3.2s-5.07.9-5-3.34q.33-14.47,0-28.95c-.1-4.59,3-3.38,5.39-3.54,2.64-.18,4.93-.29,4.63,3.69C232.74,251.67,233,256.35,233,261Z" transform="translate(-0.9 -0.91)"/><path class="cls-11" d="M286.83,261.43c0,4.65-.28,9.32.08,13.95.35,4.38-2.34,3.83-5,3.86s-5.12.44-5-3.86c.32-9.46.3-18.94,0-28.4-.12-4,2.13-3.74,4.7-3.64s5.53-.85,5.28,3.65C286.62,251.79,286.83,256.62,286.83,261.43Z" transform="translate(-0.9 -0.91)"/><path class="cls-11" d="M171,261.5c0,4.82-.19,9.65.06,14.46.22,4.37-2.79,3.16-5,3.22s-5.06.86-5-3.36q.32-14.45,0-28.92c-.1-4.56,2.92-3.41,5.37-3.56,2.65-.17,4.91-.25,4.63,3.71C170.77,251.84,171,256.68,171,261.5Z" transform="translate(-0.9 -0.91)"/><path class="cls-12" d="M137.32,121l1.69,1c1.72,2.22,1.84,4.94,2.15,7.53,2.1,17.92,9.74,33.2,22,46.27,4.75,5.07,9.53,10.18,16.09,13.07a12.08,12.08,0,0,1,3.75,2.44,64.69,64.69,0,0,0,31.22,10.17,4.3,4.3,0,0,1,1.4,0,4.23,4.23,0,0,1,1.93,1.89c.44.77,1,1.52.5,2.48-18.8-.29-34.81-7.86-49-19.51-16.33-13.43-27-30.48-30.51-51.54C137.77,130.3,136.66,125.72,137.32,121Z" transform="translate(-0.9 -0.91)"/><path class="cls-13" d="M298,25.91l2,.17c3,1.83,2.45,4.85,2.46,7.62q0,40.69,0,81.38c0,2.15-.25,4.33.32,6.45a3.75,3.75,0,0,1,.59,1.71c-.09,1.11-.94,1.45-1.81,1.78a8.5,8.5,0,0,1-1.8.3,2.52,2.52,0,0,1-2.83-1.95,20.81,20.81,0,0,1-.37-5.46q0-42.45,0-84.89C296.62,30.6,296,28,298,25.91Z" transform="translate(-0.9 -0.91)"/><path class="cls-14" d="M216.94,204c-.87-.4-1-1.19-1-2,2.42-2.15,5.39-1.35,8.12-1.3,33.61.6,64.54-21.5,76.53-51.83,3.19-8.08,5.33-16.42,5.28-25.2a3.57,3.57,0,0,1,3.74-3.11,1.43,1.43,0,0,1,1.25.56,76.37,76.37,0,0,1-7.67,31.91c-4.63,9.2-9.73,18.11-17.07,25.48-14,14.06-30.64,23.06-50.56,25.46-2.22-.27-4.29.47-6.4.94C225.09,204.68,220.9,205.87,216.94,204Z" transform="translate(-0.9 -0.91)"/><path class="cls-15" d="M303,123c-3.29-.79-2-3.48-2-5.34C301,89.24,301,60.81,301,32.38c0-2.15.29-4.35-1-6.29l3,.95c2,1.17,2.37,3.09,2.37,5.16q.08,43.42,0,86.83a7.18,7.18,0,0,1-.69,3.39A1.21,1.21,0,0,1,303,123Z" transform="translate(-0.9 -0.91)"/><path class="cls-16" d="M310.07,121.07c-.78,1.05-1.92.94-3,1-2.48-.33-2-2.33-2-3.84Q305,75,305,31.79c0-1.33,0-2.68,1-3.77l3,1c1.69,2.33,1.55,5,1.51,7.68C310.06,64.85,309.79,93,310.07,121.07Z" transform="translate(-0.9 -0.91)"/><path class="cls-17" d="M206.91,65.1l0,3.81a1.38,1.38,0,0,1-1.65.54,3.43,3.43,0,0,1-1-.73c-.56-.81-1.67-1.36-1.24-2.63-12.81-16-29.73-24.63-49.65-28.14-5.44-1-10.87-.89-16.32-.95.26-3.56,3-3,5.2-3,15.53.52,29.79,5.25,43.27,12.85C193.83,51.61,200.09,58.64,206.91,65.1Z" transform="translate(-0.9 -0.91)"/><path class="cls-18" d="M270,23l-2.13-.09c2.72-1.82,5.43-.72,8.15,0,1.6,1.8,1.4,4,1.4,6.16q0,45.4,0,90.79c0,2,.23,4-.94,5.82a2,2,0,0,1-2.69.31c-1.7-2.18-1.24-4.75-1.24-7.2q0-44.36,0-88.73C272.53,27.39,272.58,24.76,270,23Z" transform="translate(-0.9 -0.91)"/><path class="cls-19" d="M278,23.07l2,.08c1.94,2.08,1.39,4.68,1.39,7.11q.06,42.54,0,85.07a30.87,30.87,0,0,0,.31,6.92,2.57,2.57,0,0,0,1.67,1.39,10.92,10.92,0,0,1,2.05.67,1.86,1.86,0,0,1,.88,1.1,1.59,1.59,0,0,1-.77,1.19,5.15,5.15,0,0,1-1.47.47,16.06,16.06,0,0,1-4.08.06c-1.24-.23-2.35-.65-2.79-2-.48-19-.11-37.92-.2-56.88C277,55.12,277,42,277,28.84,277,26.88,276.59,24.81,278,23.07Z" transform="translate(-0.9 -0.91)"/><path class="cls-20" d="M310.07,121.07c-1.79-1.61-1-3.75-1-5.65q-.08-43.18,0-86.36c2.56,1.09,3.1,3.16,3,5.71-1,28.78-1,57.58-1.13,86.38A6.41,6.41,0,0,0,310.07,121.07Z" transform="translate(-0.9 -0.91)"/><path class="cls-21" d="M286,125h-2c-1.87-2.11-1.39-4.7-1.39-7.14q-.05-42.62,0-85.23c0-2.31.34-4.67-.66-6.88a3.9,3.9,0,0,1-.89-2.53,8,8,0,0,1,5,.79c1.6,1.79,1.4,4,1.4,6.16q0,44.37,0,88.74C287.39,121,287.77,123.24,286,125Z" transform="translate(-0.9 -0.91)"/><path class="cls-22" d="M278,23.07q0,51.39,0,102.78a1.3,1.3,0,0,1-2,.06q0-51.48,0-103Z" transform="translate(-0.9 -0.91)"/><path class="cls-23" d="M289,24.13a7.8,7.8,0,0,1,5,.91c1.88,2.11,1.39,4.71,1.39,7.16q.05,41.74,0,83.48c0,2.32-.23,4.67.48,6.95a3.82,3.82,0,0,1,.37,1.83,2.51,2.51,0,0,1-2.29,1.41,4.06,4.06,0,0,1-1.84-.45A3.59,3.59,0,0,1,291,123.9c-.66-2.45-.42-5-.42-7.45q0-41.47,0-82.94c0-2.31.37-4.68-.71-6.88A3,3,0,0,1,289,24.13Z" transform="translate(-0.9 -0.91)"/><path class="cls-24" d="M281,23.18l1,.83c1.4,1.74,1,3.81,1,5.77q0,44.71,0,89.43c0,2,.41,4-1,5.78-3.3-.81-1.93-3.51-1.94-5.37q-.13-48.23-.07-96.47Z" transform="translate(-0.9 -0.91)"/><path class="cls-25" d="M286,125l0-101,2,.13c1.5,2,1.42,4.36,1.42,6.7q0,44.14,0,88.28c0,1.82.13,3.67-.71,5.39a1.83,1.83,0,0,1-2.58.67Z" transform="translate(-0.9 -0.91)"/><path class="cls-26" d="M288,125q0-50.45,0-100.89l1,0,1,.88c1.19,1.41,1,3.12,1,4.77q0,45.64,0,91.29a8.79,8.79,0,0,1-.43,3.44C289.88,125.58,289,125.56,288,125Z" transform="translate(-0.9 -0.91)"/><path class="cls-27" d="M296.06,124.74q0-.37-.07-.74c-1.38-1.74-1-3.81-1-5.76q0-46.57,0-93.15c1.1-.06,2.2-.17,3,.82q0,49.45-.07,98.9l-.38.5a1.82,1.82,0,0,1-1.21,0Z" transform="translate(-0.9 -0.91)"/><path class="cls-28" d="M295,25.09c1.27,1.95,1,4.14,1,6.29q0,46.31,0,92.62c-3.28-.81-1.93-3.5-1.93-5.35Q293.93,71.84,294,25Z" transform="translate(-0.9 -0.91)"/><path class="cls-29" d="M236,203c13.93-1.31,26.13-7,37.37-15,12.25-8.68,22-19.53,28-33.47.28-.65,1.21-1,1.84-1.52-2.5,8.63-7.63,15.77-13.28,22.49-18.76,22.34-43.42,30.92-71.9,30.34L216.94,204,230,204C231.85,202.75,234.16,204.3,236,203Z" transform="translate(-0.9 -0.91)"/><path class="cls-30" d="M306,28q0,44.18,0,88.35c0,1.9-.76,4,1,5.66a7.86,7.86,0,0,0-.07.86,1.92,1.92,0,0,1-3,0q0-44.79,0-89.58c0-2.15.25-4.33-1-6.28Z" transform="translate(-0.9 -0.91)"/><path class="cls-3" d="M252,22l-2.17-.1c3.78-1.73,7.56-.9,11.33,0l-5.19.17A3,3,0,0,1,252,22Z" transform="translate(-0.9 -0.91)"/><path class="cls-31" d="M322,261.53a9.24,9.24,0,0,1-9.41,9.52,9.63,9.63,0,0,1,.23-19.26C318.14,251.88,322,256,322,261.53Z" transform="translate(-0.9 -0.91)"/><path class="cls-32" d="M232,127h8l4-.05,4,0,5,0a1.54,1.54,0,0,1,2.06,0l9-.17,5,.29c1.8,2.15,1,4.36.21,6.6a48.5,48.5,0,0,1-56.15,31.48c-4.5-1-5.33-2.23-4.55-6.9,2.82-2.17,5.8-.52,8.59-.09,18,2.77,34.85-5.83,42.95-22.07.22-.45.45-.89.65-1.35,1.86-4.34,1.55-4.83-3.42-5.26-2.25.1-4.49.09-6.73,0-11.29.25-22.58,0-33.86.12-6.81,0-7.06.31-7.14,6.92,0,2.32.11,4.65-.14,7a5.48,5.48,0,0,1-1.15,3.47,1.28,1.28,0,0,1-1.66-.33c-2-6.09-1.18-12.26-.53-18.43a4,4,0,0,1,1.09-1.53c6.41-2.25,13-.77,19.53-1C228.58,125.55,230.48,125.6,232,127Z" transform="translate(-0.9 -0.91)"/><path class="cls-33" d="M270,23C274,22.4,274,24.95,274,27.88q-.07,49,0,98.09a2.78,2.78,0,0,1-3.94.18,35.37,35.37,0,0,0,1-8.86q-.08-40,0-79.92C271,32.56,271.27,27.73,270,23Z" transform="translate(-0.9 -0.91)"/><path class="cls-34" d="M209,158c-.8,4.16,1.53,5.34,5.15,6,12.32,2.37,24,.34,34.28-6.43,10.94-7.18,19.14-16.79,20.56-30.64a.92.92,0,0,1,.8-.1,2.4,2.4,0,0,1,2.37,0c1.69,2.21.6,4.5,0,6.68-5,18.77-26.73,36.05-45.41,34.84-5.92-.38-12,.83-17.67-1.82a5.56,5.56,0,0,1-1.9-2.72c-.56-2.21-.86-4.4.34-6.52C208.48,156.57,209,156.84,209,158Z" transform="translate(-0.9 -0.91)"/><path class="cls-35" d="M272,127.15l-2.19-.28a3.62,3.62,0,0,0,.26-.72L274,126l2-.06,2-.06,3,.28a1,1,0,0,1-.12,1.23,4.31,4.31,0,0,1-2,.7,11.39,11.39,0,0,1-1.41.11c-1,0-1.9,0-2.85,0A4.57,4.57,0,0,1,272,127.15Z" transform="translate(-0.9 -0.91)"/><path class="cls-36" d="M255,126.85l-2.06,0c-1.29-1.95-1-4.15-1-6.29Q252,71.3,252,22l4,.08q0,49.72,0,99.45C256,123.37,256.11,125.21,255,126.85Z" transform="translate(-0.9 -0.91)"/><path class="cls-37" d="M141,122q0-35.5,0-71a1,1,0,0,1,1.37.13A28.28,28.28,0,0,1,145,56.75a10.34,10.34,0,0,1,.36,2.56c.6,20.79-.29,41.58.6,62.36a2.56,2.56,0,0,1-1.61,2,3.75,3.75,0,0,1-1.7.07A2.22,2.22,0,0,1,141,122Z" transform="translate(-0.9 -0.91)"/><path class="cls-37" d="M139,43c-1.9-2.79.07-2.9,2.08-3,13.64-.68,26.11,3.17,38,9.61a107.72,107.72,0,0,1,15.84,11c1.75,1.4,3.87,2.71,4.13,5.35-1,.67-2,.42-3,.28-2.44-.4-4-2.1-5.79-3.63-12.91-11.27-27.79-17.7-45-18.28C143,44.23,140.78,44.67,139,43Z" transform="translate(-0.9 -0.91)"/><path class="cls-38" d="M142,51l-1,0-1-2c1.19-2.41,3.47-2.43,5.58-2.26A73.7,73.7,0,0,1,189.18,65a4.55,4.55,0,0,1,1.08,1.65,1.9,1.9,0,0,1-.23,1.57,4.42,4.42,0,0,1-3.09.84c-2.26-.21-4-1.52-5.74-2.8C171,58.72,159.66,54,146.81,53.24A6.31,6.31,0,0,1,142,51Z" transform="translate(-0.9 -0.91)"/><path class="cls-39" d="M139,43c18.2-1.19,34,5.08,48.64,15.31,3.16,2.21,4.64,6.76,9.39,6.72-.65,2.77-2.81,2-4.66,2-5.43-3.15-9.81-7.75-15.35-10.85C165.46,49.74,153,47,140,46,138.83,45.28,139,44.1,139,43Z" transform="translate(-0.9 -0.91)"/><path class="cls-40" d="M141,122l1.06,1c1.45,10.79,3.23,21.49,8.48,31.24.43.88.85,1.77,1.27,2.65,5.63,11.55,14.23,20.55,24.19,28.42,1.48,1.17,4.32,1.71,3,4.75-9.79-4.26-16.38-12.21-22.68-20.28C145.42,155.74,140,139.65,139,122Z" transform="translate(-0.9 -0.91)"/><path class="cls-41" d="M140,46c3-2.23,6-.4,9-.08a69.42,69.42,0,0,1,41.79,19.28A7.33,7.33,0,0,0,192,66a.94.94,0,0,1-.07,1.25,1.56,1.56,0,0,1-2-.26c-11.87-10-25.31-16.56-40.75-18.73-3.09-.43-6.26-.88-9.22.74Q140,47.51,140,46Z" transform="translate(-0.9 -0.91)"/><path class="cls-42" d="M192,67q0-.49,0-1c1.69-.22,3.58.6,5-1l2,.9,4,.15,2,1.93C200.48,69.63,196.21,68.76,192,67Z" transform="translate(-0.9 -0.91)"/><path class="cls-43" d="M227,127l-19.88-.06-.58-.48a4.27,4.27,0,0,1-.56-1.4,30.41,30.41,0,0,1-.3-3.83c0-2.39-.07-4.78,0-7.16,0-1.37,0-2.73-.05-4.1,0-1.95.1-3.9,0-5.85a19.53,19.53,0,0,1,.43-4.21c1.24-2.84-.31-6.29,1.93-8.91,0-21.38.18-42.76-.07-64.14-.06-4.92,1.49-6.37,6.17-5.93,4.27.4,8.61.15,12.92.19,1.81,1.88,1.62,4.28,1.62,6.58q.06,46.34,0,92.68C228.61,122.7,228.72,125.08,227,127Z" transform="translate(-0.9 -0.91)"/><path class="cls-44" d="M227,127q0-52.94,0-105.87c3.9-.77,5.12.72,5.1,4.76C231.93,59.59,232,93.29,232,127Z" transform="translate(-0.9 -0.91)"/><path class="cls-45" d="M206.92,82l.45,9a23.74,23.74,0,0,1,0,4.69c-1,1.48-2.23.84-3.41.24-1.71-1.46-3.52-2.86-4.4-5.06a3,3,0,0,1,.22-1.49c.86-1.74,1.31-3.67,2.19-5.39C203,82,204.33,80.3,206.92,82Z" transform="translate(-0.9 -0.91)"/><path class="cls-46" d="M206.92,82c-2.79-.3-3.58,1.5-4.4,3.73-.55,1.49.28,4-2.5,4.27-1.33.72-2.33,0-3.32-.77A4.91,4.91,0,0,1,196,87.9c-1.38-3.89.66-6.13,3.79-7.84,2.57-1.31,4.9-.78,7.08.93Z" transform="translate(-0.9 -0.91)"/><path class="cls-47" d="M206.9,81c-2.3.63-4.61-1.66-6.9,0a2.87,2.87,0,0,1-1.38-2.52,4.51,4.51,0,0,1,3-3.34c1.89-.5,3.72-.58,5.31.84Q206.9,78.49,206.9,81Z" transform="translate(-0.9 -0.91)"/><path class="cls-48" d="M206.9,76H201c-1.54,1-2.51.29-3.29-1.06a2.73,2.73,0,0,1,1.65-2.67c2.78-.63,5.59-1.42,7.53,1.69Z" transform="translate(-0.9 -0.91)"/><path class="cls-49" d="M206.89,74c-2.48-1.52-5.24-.79-7.88-1-1.76.08-2.6-.54-1.8-2.4a4.3,4.3,0,0,1,1.51-.72c2.81-.26,5.64-.68,8.17,1.11Z" transform="translate(-0.9 -0.91)"/><path class="cls-50" d="M206.89,71H198a1.63,1.63,0,0,1,.17-2.38c2.35-.8,4.63-.11,6.92.33l1.77,0Z" transform="translate(-0.9 -0.91)"/><path class="cls-44" d="M206.93,96l.44-5h.6c-.24,3,.7,6.07-.61,9a1.63,1.63,0,0,1-1.08-1.05A3.09,3.09,0,0,1,206.93,96Z" transform="translate(-0.9 -0.91)"/><path class="cls-51" d="M304,122.9h3c.08,20.27-8,37.16-21.31,52A83.64,83.64,0,0,1,253,197c-12,4.65-24.44,5.52-37.1,5l-.83-.18a2.72,2.72,0,0,1-1.48-3.65,1.79,1.79,0,0,1,1.28-.71c14.36,1.2,28.27-.67,41.46-6.58a78.13,78.13,0,0,0,34.36-29.52,73.48,73.48,0,0,0,12.14-37.53q.06-.44.14-.87A4.53,4.53,0,0,0,304,122.9Z" transform="translate(-0.9 -0.91)"/><path class="cls-52" d="M213.94,199a1.53,1.53,0,0,1,.23.81c0,2.81-2.13,2.24-3.55,2A109.7,109.7,0,0,1,182,192l-3-2c-2.95-4.25-7.64-6.55-11.21-10.11C161,173.13,154.38,166.25,151,157c4.15.12,3.83,5.11,7,6.35a110.56,110.56,0,0,0,19.82,20.1c9.21,7,19.74,10.68,30.79,13.25C210.5,197.16,212.49,197.43,213.94,199Z" transform="translate(-0.9 -0.91)"/><path class="cls-53" d="M182,192c7.15,2.42,14.22,5.1,21.47,7.16,3.38,1,7,3,10.7.66l.94,2c-.89,1.32-2.3,1.34-3.56,1.1-10-1.91-19.75-4.76-28.72-9.77C182.46,193,182.28,192.4,182,192Z" transform="translate(-0.9 -0.91)"/><path class="cls-54" d="M302.88,123.88c2.85,4.18.66,8.47-.26,12.43-5.81,24.93-20.55,43.27-43.19,54.75-13.18,6.68-27.64,9.08-42.52,7.88a12.05,12.05,0,0,1-2.8-.94,2.06,2.06,0,0,1-1.61-2.37,1.35,1.35,0,0,1,1-1.05c10.82.4,21.65.47,32.11-2.87a79,79,0,0,0,35.94-23.19c10.66-12,16.31-26,18.19-41.75a4.54,4.54,0,0,1,1.19-2.68Z" transform="translate(-0.9 -0.91)"/><path class="cls-55" d="M301,124.08c-.56,16.64-6.57,31-17.24,43.81a76.33,76.33,0,0,1-43.59,26.45c-8.86,1.93-17.93,2.91-27,.66a1.54,1.54,0,0,1-.14-2.28,2.93,2.93,0,0,1,1.87-.58c13.17,1.66,25.79-.66,38.1-5.25,4.25-.12,7.41-2.77,10.69-4.91,18.87-12.29,30.51-29.43,34.28-51.76.36-2.1.65-4.28,2-6.08Z" transform="translate(-0.9 -0.91)"/><path class="cls-56" d="M300,124.14c-1,15.82-7.08,29.59-16.64,42.08C276.66,175,267.88,181,258.68,186.6A7.51,7.51,0,0,1,254,188c-.57-2.17,1.23-2.71,2.51-3.49,1.63-1,3.43-1.74,4.64-3.33a5.64,5.64,0,0,1,1.13-.92C272.69,175,280,166.56,286.12,157a75.37,75.37,0,0,0,10.33-27.73c.26-1.45.33-3,1.6-4.07l-.09-.35Z" transform="translate(-0.9 -0.91)"/><path class="cls-57" d="M236,203c-1.76,1.81-4,.68-6,1C231.75,202.19,234,203.32,236,203Z" transform="translate(-0.9 -0.91)"/><path class="cls-58" d="M205.1,68.95,198,69c-2.91,1.6-5.51.72-8-1q0-.5,0-1h2c4.37-.43,8.64.56,12.94,1Q205,68.48,205.1,68.95Z" transform="translate(-0.9 -0.91)"/><path class="cls-59" d="M281,127q0-.43,0-.86l4-.1c1.92,4.43-.06,8.58-1.49,12.47-8,21.89-23.43,36-46.18,41.3-7.73,1.81-15.82,2-23.83,1.44a6.89,6.89,0,0,1-2.38-.59,3.91,3.91,0,0,1-1.69-1.75,3.12,3.12,0,0,1,.39-3.06,12.66,12.66,0,0,1,6.36-.6c24.46,2.3,43.54-6.6,57-27.33C277.32,141.5,278.85,134.14,281,127Z" transform="translate(-0.9 -0.91)"/><path class="cls-60" d="M213,180c10.26.24,20.59.19,30.36-3.18,9.23-3.18,17.45-8,24.31-15.49,6-6.62,11-13.48,14.16-21.85,1.63-4.38,2.33-8.91,3.17-13.45a1.39,1.39,0,0,1,.87-.14,1,1,0,0,1,1.45.07c1.38,2.19.81,4.46.33,6.76-5.35,25.57-26.74,46.61-53.62,50.5-4.95.72-9.87,1.56-14.89.85C216.87,183.05,213.54,183.63,213,180Z" transform="translate(-0.9 -0.91)"/><path class="cls-61" d="M282,125q0-50.49,0-101c3.31.78,1.94,3.48,1.95,5.33q.13,47.81.06,95.62Z" transform="translate(-0.9 -0.91)"/><path class="cls-62" d="M287,126.14l-1.1-.24a7.25,7.25,0,0,0,.24-.76L288,125l2-.09a1.62,1.62,0,0,1,2-.09l1,.32c-.1,2-1.69,1.78-3,2A4.69,4.69,0,0,1,287,126.14Z" transform="translate(-0.9 -0.91)"/><path class="cls-63" d="M290,126c1.07-.08,2.22.14,3-.91l1,0c1.5,1.6.83,3.38.53,5.19a71.45,71.45,0,0,1-61.89,59.2c-7,.88-13.86,1.43-20.6-1.24a1.31,1.31,0,0,1,0-1.51c2.6-1.74,5.78-.76,8.52-1.81,7.31-1.47,14.88-1.14,22.1-3.55,25.27-8.45,40.47-25.72,46-51.68C288.86,128.39,289,127.06,290,126Z" transform="translate(-0.9 -0.91)"/><path class="cls-64" d="M212,187.93a65.85,65.85,0,0,0,30.41-1.83c27.6-8.05,44-26.52,50.5-54.15.53-2.24.7-4.56,1-6.84l2.08-.36-.1.34a3.75,3.75,0,0,1,.92,3.69c-3.6,20.64-13.49,37.43-30.55,49.82-1.35,1-3,1.43-4.33,2.41q0,.5,0,1c-10.09,5.67-20.67,9.65-32.37,10.63a65.65,65.65,0,0,1-16.83-1,5.22,5.22,0,0,1-1.39-.77,2.17,2.17,0,0,1-.77-1.32A1.81,1.81,0,0,1,212,187.93Z" transform="translate(-0.9 -0.91)"/><path class="cls-65" d="M292,124.81l-2,.09Q290,75,290,25c3.31.8,1.94,3.5,1.95,5.36Q292.07,77.59,292,124.81Z" transform="translate(-0.9 -0.91)"/><path class="cls-62" d="M262,181c3.75-3.19,7.58-6.3,11.25-9.6C287,159,294.53,143.53,296,125.08l2.08.09c-2.3,22.85-13.14,40.78-31.38,54.42A6.66,6.66,0,0,1,262,181Z" transform="translate(-0.9 -0.91)"/><path class="cls-66" d="M208.15,144c0-4,.07-7.94-.2-11.89-.23-3.39,1.25-4.18,4.36-4.15,12.89.14,25.79.07,38.68.08,1.41,3.47-.44,6.4-2.42,8.56-7.28,7.95-15.85,13.74-27.31,12.63C216.51,148.75,211.86,147.38,208.15,144Z" transform="translate(-0.9 -0.91)"/><path class="cls-67" d="M208.15,144c5.21.87,9.65,4.2,15.26,4.09,12.19-.24,23.74-8.42,27.59-20.06l7,0c1.14,1.33.77,2.75.29,4.21-3.78,11.67-17,22.27-29.37,23-7.25.44-14.62.82-21.28-3.14-1-1.68-1.09-3.32.25-4.88Z" transform="translate(-0.9 -0.91)"/><path class="cls-68" d="M208.06,152c6.5,1.28,13,2.69,19.67,2,14.84-1.54,26.67-10.9,30.27-26,6.31.12,6.74.79,4.23,6.5-8.68,19.72-28.59,29.21-50.3,24-1-.23-1.94-.32-2.92-.47l-.84-1C206.51,155.37,206.56,153.7,208.06,152Z" transform="translate(-0.9 -0.91)"/><path class="cls-69" d="M208.06,152l.12,5,0,6.93-.59.49c-4.91-.06-9-2.64-12.43-5.47-7.57-6.2-14.27-13.35-17.66-22.85-1.08-3-2.73-6.17-.55-9.45a3.84,3.84,0,0,1,3.65-.32c1.87,1,1.83,3,2.31,4.72,3,10.59,10.18,18,18.76,24.22,3,2.21,4.47,1.56,4.11-2.3a17.34,17.34,0,0,1,.46-5,2.26,2.26,0,0,1,1-1.05,3.19,3.19,0,0,1,.7.34Z" transform="translate(-0.9 -0.91)"/><path class="cls-70" d="M206.86,128l.34,18.87-.31.19c-1.53,1-3,.37-4.17-.5a31.62,31.62,0,0,1-11.13-14.43c-1.23-3.18.05-5.4,3.61-5.34C199.09,126.86,203.19,125.52,206.86,128Z" transform="translate(-0.9 -0.91)"/><path class="cls-71" d="M206.86,128c-3.81,0-7.63,0-11.44,0-2.44,0-4.11.48-2.72,3.41,3.15,6.64,6.71,12.93,14.19,15.66q0,3,.06,5.93a2.76,2.76,0,0,1-3.65.13c-7.95-5.4-14.61-11.89-17.39-21.46-.52-1.78-1.47-3.87.71-5.42,2.83-1.05,5.8-.44,8.69-.69,3.92.32,8.05-1.09,11.67,1.49l.14-.12Z" transform="translate(-0.9 -0.91)"/><path class="cls-72" d="M272,127.15l3-.07c1,2.67.42,5.29-.47,7.79-9.08,25.57-31.93,39-58.19,36.29a17.75,17.75,0,0,1-7.37-2.89A1.87,1.87,0,0,1,209,166c9.23,1.16,18.54,2.15,27.69,0C254.7,161.74,270.69,143.93,272,127.15Z" transform="translate(-0.9 -0.91)"/><path class="cls-73" d="M209,166l.1,2a4.75,4.75,0,0,1,.74,1.39,3.21,3.21,0,0,1-.78,3c-2.32,1.35-4.6.52-6.67-.45-15.36-7.19-27.11-17.81-32.15-34.59-1.11-3.68-3.88-7.21-1.53-11.38a2.21,2.21,0,0,1,2.12-.33c3.36,4.86,3.79,10.85,6.29,16.1,5.73,12,15.14,19.93,26.81,25.58,1.05.51,2.26.92,2.79-.78a5.58,5.58,0,0,1,1.16-2.43l.27-.14Z" transform="translate(-0.9 -0.91)"/><path class="cls-74" d="M209.13,169l0-1c4.68.61,9.09,2.25,14,2.12,22.16-.55,38.1-10.36,47.95-30.36,2-4.12,2.54-8.48,3.9-12.68l3-.06c1.7,3.12-.35,5.86-1.18,8.53-7.18,23-30,39.26-54,38.69-4.24-.1-8.61-.21-12.53-2.35C209.48,171.1,209.68,169.92,209.13,169Z" transform="translate(-0.9 -0.91)"/><path class="cls-75" d="M209.13,169l.88,2c5.19,3.81,11.31,3.36,17,2.8,22.62-2.22,38.82-13.86,48.35-34.56,1.79-3.88,2.39-8.16,3.61-12.23l2,0c1.37,5.11-1,9.73-2.83,14-6.88,15.94-18.6,27.2-35.12,33a55.52,55.52,0,0,1-25.91,2.74c-2.39-.33-4.94,1-7.15-.65a2.17,2.17,0,0,1-1.6-1.31,2.69,2.69,0,0,1,.52-2.69Z" transform="translate(-0.9 -0.91)"/><path class="cls-76" d="M279,127c.88,4.68-.92,9-2.73,12.93-8.49,18.34-23.23,29.57-42.57,34.29a31.15,31.15,0,0,1-15,.26c-3.1-.81-7.05,1-8.65-3.48,17.15,4.68,32.6.76,46.78-9.33,12-8.52,17.69-20.92,21.2-34.65Z" transform="translate(-0.9 -0.91)"/><path class="cls-77" d="M145,122.92c-2.12-21.62-.45-43.29-1-64.94a1,1,0,0,1,1.24-.05c1.14,1.48,1.54,3.32,2.4,4.94.42,1.08.75,2.19,1.16,3.27s.82,2.32,1.19,3.5a46.34,46.34,0,0,1,1.3,5.67c.21,14.11.09,28.21.06,42.31,0,2.42.37,5.16-2.75,6.28A3.57,3.57,0,0,1,145,122.92Z" transform="translate(-0.9 -0.91)"/><path class="cls-78" d="M145,122.92l2.94.12a1.17,1.17,0,0,1,.31,1.35c-1.85,3.65-.36,7.33.48,10.73,7.76,31.05,27.14,50.72,58.25,58.66,2.08.53,4.31.63,6,2.22l1.16,2-.18,1c-24.06-3.41-42.88-15.34-56.94-35-5.43-7-8.63-15.15-12.22-23.11-.53-6-3-11.74-1.77-17.87Z" transform="translate(-0.9 -0.91)"/><path class="cls-79" d="M142,51a86.44,86.44,0,0,1,31.77,8.68c4.78,2.34,8,6.94,13.27,8.34.38,1.23-.28,2-1.22,2.57a4.83,4.83,0,0,1-2.28.38c-2.23-.29-3.92-1.66-5.67-2.88C167.66,61,156.57,56.38,144,56A6.06,6.06,0,0,1,142,51Z" transform="translate(-0.9 -0.91)"/><path class="cls-80" d="M144,56c7.38-3,13.66,1.21,20.28,3.08C171.66,61.21,177,67,184,70c-.2,2.61-2.12,2.7-4.06,2.78-2.81-.77-4.78-2.94-7.18-4.39A61,61,0,0,0,151,60c-2.09-.35-4.34-.46-6.05-2h-1Z" transform="translate(-0.9 -0.91)"/><path class="cls-52" d="M143,123c1.83,5.86,1,12.15,3,18,1.65,3.69,2.36,7.73,4.31,11.31A2.13,2.13,0,0,1,150,155c-5-7.27-6.79-15.62-7.9-24.12-.33-2.56-2.66-5.31,0-7.94A7.08,7.08,0,0,1,143,123Z" transform="translate(-0.9 -0.91)"/><path class="cls-81" d="M186,70,187,68l3,0c2.77-.49,5.3.95,8,1q0,1,0,2h-1c-1.71,2.29-4.12,2.31-6.62,2.06C188.53,72.59,186.74,72,186,70Z" transform="translate(-0.9 -0.91)"/><path class="cls-82" d="M150,155c-.48-4.91-3.82-9-4-14l11,23c-3.33-1.2-3-5.5-6-7A2.07,2.07,0,0,1,150,155Z" transform="translate(-0.9 -0.91)"/><path class="cls-83" d="M206.92,99l.44,1-.42,4c-3.65,7.19-7.25,14.41-14.18,19.28-.52-.11-.1,1.12-.11.46,0-.19.14-.18.4-.22,1.13-.19,1.94,0,1.94,1.39-2,1.79-4.32,1.06-6.58.69-2-1.85-.7-3.5.71-4.55,3.16-2.34,5-5.69,7.28-8.7a16.16,16.16,0,0,0,5.35-11.65,6.45,6.45,0,0,1,.94-3.73C205.08,95.58,205.92,97.44,206.92,99Z" transform="translate(-0.9 -0.91)"/><path class="cls-84" d="M195,124c-1.08-.18-2.29.35-3.81-1.05,7.81-4.28,9.86-13.11,15.73-19q0,3,0,6c-2.31,5.78-7.26,9.42-11.23,13.85Z" transform="translate(-0.9 -0.91)"/><path class="cls-85" d="M188,125c2.34-.3,4.87.88,7-.92h0a6.14,6.14,0,0,1,2-1,8.28,8.28,0,0,1,2.29-.28c3,0,5.65.78,7.58,3.26l.06,1-12-.18a29.38,29.38,0,0,0-11.8.33c-2.45-.95-5-.69-7.54-.66a1.21,1.21,0,0,1-.88-1.27,2.8,2.8,0,0,1,2-1.36,18.09,18.09,0,0,1,3.3-.25c1.36,0,2.73-.06,4.09,0A5.72,5.72,0,0,1,188,125Z" transform="translate(-0.9 -0.91)"/><path class="cls-86" d="M199,124h-2a17.13,17.13,0,0,1,9.92-10q0,4,0,8C204.93,125.22,201.45,122.48,199,124Z" transform="translate(-0.9 -0.91)"/><path class="cls-87" d="M206.93,114c-4.05,2.58-6.66,6.6-9.92,10l-2,.05c3.18-5.35,8-9.29,11.93-14Q206.93,112,206.93,114Z" transform="translate(-0.9 -0.91)"/><path class="cls-87" d="M199,124c2.38-1.68,5.43-.7,7.92-2l0,4C204.23,125.53,202,123.47,199,124Z" transform="translate(-0.9 -0.91)"/><path class="cls-88" d="M197,89l3,1q0,.5,0,1c2.54,7.26,2.42,14.21-2.35,20.63-1.71.94-1.89,4.57-5.09,2.89,3-7.54,3.27-15.45,3.3-23.41A2.86,2.86,0,0,1,197,89Z" transform="translate(-0.9 -0.91)"/><path class="cls-89" d="M197,112c4.06-6.57,2.88-13.89,3-21a10.72,10.72,0,0,1,4,4,2.64,2.64,0,0,1-1,2c.21,6.16-.28,12.06-6,16q-.46-.33-.31-.67T197,112Z" transform="translate(-0.9 -0.91)"/><path class="cls-90" d="M203,97a2.08,2.08,0,0,1,1-2l2.9,1q0,1.5,0,3C205.59,98.37,204.71,96.86,203,97Z" transform="translate(-0.9 -0.91)"/><path class="cls-91" d="M197,89c-.15,8.85,1.33,18-4,26-.65,1-1.31,1.88-2.49.59a3.81,3.81,0,0,1-.36-1.6c3.88-7.47,1.85-15.64,2.73-23.46a4.48,4.48,0,0,1,1.78-2.78A1.92,1.92,0,0,1,197,88Q197,88.52,197,89Z" transform="translate(-0.9 -0.91)"/><path class="cls-92" d="M197,88l-2,0c-2-.65-3.83.94-5.81.44a5.31,5.31,0,0,1-2.12-1.76c-.75-.93-1.65-1.78-1.59-3.13a2.27,2.27,0,0,1,.75-1.24A52.78,52.78,0,0,1,199,79a2.06,2.06,0,0,1,1,2C197.26,82.61,195.88,84.8,197,88Z" transform="translate(-0.9 -0.91)"/><path class="cls-93" d="M199,79c-3.82,3-8.51,3.16-13,4a1.3,1.3,0,0,1-.08-1.29c2.28-2.64,5.61-3.93,8.09-6.33,1.28-.67,2.53-1.59,4-.37l3,1Z" transform="translate(-0.9 -0.91)"/><path class="cls-94" d="M198,75l-4,1a6.66,6.66,0,0,1-6.07-.73c-1.17-2.27.53-2.73,2.08-3.27,2.42.31,4.69-.44,7-1a3.46,3.46,0,0,0,2,2Z" transform="translate(-0.9 -0.91)"/><path class="cls-95" d="M213,196c-16.24-1.8-30.07-8.82-42.07-19.64-14.16-12.76-21.88-28.95-24.71-47.6-.27-1.77-1.16-4.17,1.89-4.81a.9.9,0,0,1,1.33.15c2.12,5.79,2.14,12,4.26,17.91,9.78,27,28.76,43.34,56.6,49.67a13,13,0,0,1,1.44.42,2.55,2.55,0,0,1,1.15,1l.33,1.93Z" transform="translate(-0.9 -0.91)"/><path class="cls-96" d="M212.85,193.07l-.72-.11a2,2,0,0,1-.29-2.88c15.16,3.89,29.37.55,43.23-5.6,2.24-1,4.25-2.69,6.93-2.47-1.69,3.3-6.31,2.7-8,6-10.58,4-21.45,6.44-32.83,6C218.39,193.85,215.62,193.38,212.85,193.07Z" transform="translate(-0.9 -0.91)"/><path class="cls-97" d="M209.15,174.74,210,176l.19,3a2.1,2.1,0,0,1,0,2.22c-5.89,1.48-10.74-1.76-15.38-4.2-18.84-9.91-30.74-25.31-34.83-46.41-.37-1.89-1.21-3.88.09-5.78,1.62-1.27,3.47-1.15,5.35-.91a4.06,4.06,0,0,1,1.43.61,1.41,1.41,0,0,1,.49,1.35,4.17,4.17,0,0,1-1.63,1.41c-1.94,1.24-1,3-.65,4.48,3.62,15.8,12.41,28,25.71,37.16a69.11,69.11,0,0,0,12.77,6.61c1.45.61,3.06,1.67,4.53-.09A3,3,0,0,1,209.15,174.74Z" transform="translate(-0.9 -0.91)"/><path class="cls-98" d="M221,186c-2.83,1.64-5.93.8-8.92,1,.28-1.58,1.44-3.23-.83-4.45A1.55,1.55,0,0,1,211,180l2,0c1.49,2,4.1,1.79,6,3C219.82,183.9,221.77,184,221,186Z" transform="translate(-0.9 -0.91)"/><path class="cls-99" d="M211,180c.24,2.77,3.45,2.8,4.5,4.92-.42,1.84-2.86.47-3.45,2.06a3.45,3.45,0,0,0-.05,1l-.73,1c-1.09-.44-1.23-1.43-1.44-2.4-.14-1.18-.29-2.37-.52-3.54a2.59,2.59,0,0,1,.59-2l.25-2Z" transform="translate(-0.9 -0.91)"/><path class="cls-100" d="M221,186l-2-3c19.76.4,37.47-5.22,51.07-19.86,9.51-10.24,16.72-22.19,16.9-37l3-.1c-.57,12.93-5.74,24.2-13.69,34a67.09,67.09,0,0,1-41.5,24.55C230.23,185.37,225.51,184.68,221,186Z" transform="translate(-0.9 -0.91)"/><path class="cls-101" d="M211.84,190.07l.29,2.88c-10.43-1.11-19.77-5.13-28.57-10.63-17.32-10.83-27.72-26.62-32.89-46.08A38.5,38.5,0,0,1,149,124a2.35,2.35,0,0,1,2.88-.29c1.64,1.64,1.9,3.84,2.18,5.94,2.43,18.83,11.72,33.47,27,44.46a33.46,33.46,0,0,1,4,3.28c6,5.32,13.49,7.59,20.89,10,1.88.61,4,.62,5.13,2.59Z" transform="translate(-0.9 -0.91)"/><path class="cls-102" d="M211.08,190C202.2,188,193.71,185,186,180a4.32,4.32,0,0,1-2-2.12c1.26-1,2.58-.54,3.72.08,6.72,3.67,14,5.58,21.45,7a3.41,3.41,0,0,1,1.64,1l.46,2.87Z" transform="translate(-0.9 -0.91)"/><path class="cls-103" d="M186,127c1.72,11.3,9.08,18.63,17.67,25.1a4.92,4.92,0,0,0,3.27.86c-.26,1.85,1.11,4.39-.95,5.39-1.55.76-3.44-.89-4.83-1.93-10-7.52-18.67-16-20.15-29.4.58-.64,1.36-.52,2.11-.54C184.09,126.62,185.15,126.22,186,127Z" transform="translate(-0.9 -0.91)"/><path class="cls-104" d="M183.12,126.92l-2.11.13-4,0c-2.11,1.51-1.37,3.42-.82,5.36,4.17,14.54,13.44,24.72,26.78,31.43,1.77.89,3.67,1.54,4.95,3.17.39,3-1.09,3-3.21,2.08a57.3,57.3,0,0,1-15.16-9.2c-10.43-8.83-16.4-20.31-18.54-33.79,1.28-1.28,2.62-1.13,4-.18l7.85.18q.51.15.46.48C183.28,126.8,183.21,126.92,183.12,126.92Z" transform="translate(-0.9 -0.91)"/><path class="cls-105" d="M207.92,167c-17.56-6.15-28.55-18.35-33.52-36.18-.69-2.47-.31-3.93,2.61-3.78,0,9,4.63,16,10.06,22.46,5.59,6.71,12.3,12,20.81,14.59Q207.89,165.52,207.92,167Z" transform="translate(-0.9 -0.91)"/><path class="cls-106" d="M183.12,126.92q-.13-.43-.27-.85c4,.27,8.17-1,12.1.8l-9,.15Z" transform="translate(-0.9 -0.91)"/><path class="cls-107" d="M209.15,174.74l-.27,1.19c-4.77.86-8.89-1.5-12.58-3.61-16.45-9.36-27.76-22.8-31.27-41.93-.27-1.45-.81-2.91,0-4.36l2.09-.1A1.32,1.32,0,0,1,169,126c.46,8.78,3.66,16.74,8.44,23.85a58.37,58.37,0,0,0,24.76,20.67,12.54,12.54,0,0,0,6.71,1.47Z" transform="translate(-0.9 -0.91)"/><path class="cls-108" d="M169,126l-1.89-.07q-.13-.43-.23-.87c1.58-2,4.6-1.62,6.15-3.69a3.41,3.41,0,0,1,1.16-.71,1.58,1.58,0,0,1,1.23.51,3.53,3.53,0,0,1,.5,2A2.88,2.88,0,0,1,175,125q0,.43,0,.87l-4,.18Z" transform="translate(-0.9 -0.91)"/><path class="cls-109" d="M145,58c13.22.8,24.78,5.76,35,14,.23,2.24-1.22,2.66-3,2.76-5.61-2.72-10.51-6.73-16.63-8.62C156,64.77,151.62,63.35,147,63A6.11,6.11,0,0,1,145,58Z" transform="translate(-0.9 -0.91)"/><path class="cls-110" d="M152,124.12l-3-.1a4,4,0,0,0-.94-.07q-.08-.46-.15-.92c3-.58,2-3,2-4.8.07-14.75,0-29.49,0-44.24a1,1,0,0,1,1.39.1A10.09,10.09,0,0,1,153,77.75a16.41,16.41,0,0,1,.4,4.29c0,11.7,0,23.39,0,35.08,0,2.12.29,4.3-.76,6.31Z" transform="translate(-0.9 -0.91)"/><path class="cls-111" d="M151,74l-1,0a8.21,8.21,0,0,1-1-5c-.32-1.76,1.12-2.06,2.1-1.88,7.75,1.43,15.27,3.43,20.43,10.12a3,3,0,0,1-.09,1.55A3.45,3.45,0,0,1,169,80.42c-3.87-.64-6.52-3.8-10.24-4.88C156.17,74.78,153.69,73.9,151,74Z" transform="translate(-0.9 -0.91)"/><path class="cls-112" d="M171,78.05c-4.37-5.53-17-10.7-22-9-1.12-.73-1-1.9-1-3-.38-1.8,1.08-2,2.08-1.9,9,.83,17.18,3.83,23.95,10.06a2.89,2.89,0,0,1,.59,1.35,3.14,3.14,0,0,1-.19,1.57C173.52,78.29,172.51,79,171,78.05Z" transform="translate(-0.9 -0.91)"/><path class="cls-113" d="M174.05,76.13c-5-6.44-19.86-12.21-26.08-10.1-1.12-.73-1-1.9-1-3,1.88-1.77,4-1.09,6.07-.52,8.65,2.42,17,5.43,24,11.47a1.37,1.37,0,0,1,.06,1.32C176.26,76.39,175.35,77,174.05,76.13Z" transform="translate(-0.9 -0.91)"/><path class="cls-114" d="M177,74.8q0-.4,0-.81a3.08,3.08,0,0,0,3-2,5.57,5.57,0,0,0,4-2h2l4,2c-.62,1-2.17,1.44-2,3-1.37,2.64-3.89,2.78-6.39,3a7,7,0,0,1-4.33-2.48Z" transform="translate(-0.9 -0.91)"/><path class="cls-115" d="M191,116l2-1,4-3v1c-1.83,3.31-3.42,6.78-7,8.7a3.59,3.59,0,0,0-2,3.25l-4,0C184.66,120.68,189.08,119.31,191,116Z" transform="translate(-0.9 -0.91)"/><path class="cls-116" d="M180,125h-3c.45-4.38,4.8-6.31,6.28-10.05a12.94,12.94,0,0,1,2.38-2.53c.81-.52,1.63-1,2.61-.38a3,3,0,0,1,.53,2c-.53,3.42-3.45,5.33-5.09,8C182.86,123.54,181.29,124.08,180,125Z" transform="translate(-0.9 -0.91)"/><path class="cls-117" d="M180,125a6.26,6.26,0,0,1,3-3c2.67-2.32,3.73-6.5,8-7v1c0,4.77-5.13,5.61-7,9Z" transform="translate(-0.9 -0.91)"/><path class="cls-118" d="M184,115c-.91,4.33-4.78,6.58-7,10l-2,0v-2c1.49-3,4-5.17,6.38-7.41C182.18,115,183,114.49,184,115Z" transform="translate(-0.9 -0.91)"/><path class="cls-119" d="M191,115l-8,7c.45-3.42,4.35-4.7,5-8,5-6.93,3-15.12,4.11-22.74.39-.78.83-1.49,1.88-1.27a93.14,93.14,0,0,0,.08,10.34C194.67,105.63,193,110.3,191,115Z" transform="translate(-0.9 -0.91)"/><path class="cls-120" d="M194,90l-1,1c-.56.76-1.08,1.59-2.25,1.21-1.42-1.06-2.44-2.28-1.72-4.21,2,1,4.07-4.14,6,.1Z" transform="translate(-0.9 -0.91)"/><path class="cls-121" d="M186,82q0,.48.05,1l0,1c.82,7.61.27,15.24.41,22.86.06,3.51-1.57,6-4.08,8.12a2,2,0,0,1-2.48,0c1.69-10.21-.16-20.62,1.81-30.81a5.56,5.56,0,0,1,1.28-3.13C184.27,80.31,185.17,81,186,82Z" transform="translate(-0.9 -0.91)"/><path class="cls-122" d="M182,115c4.55-6.1,2.54-13.17,3-19.89.28-3.7-1.16-7.55.93-11.09l2,2c2,6.5.78,13.07.54,19.64-.1,2.76-.6,5.24-2.48,7.32a3.45,3.45,0,0,1-2,2l-2,1q-.38-.33-.26-.67T182,115Z" transform="translate(-0.9 -0.91)"/><path class="cls-123" d="M186,113c.83-7.75,2.78-15.44,1.13-23.32-.26-1.25-.43-2.65.82-3.64L189,88l2,4c.18,6.85,2.45,14-3,20Z" transform="translate(-0.9 -0.91)"/><path class="cls-124" d="M186,82a2.17,2.17,0,0,1-2-1,6.76,6.76,0,0,1-2.52-1.74c-.47-.69-1-1.38-.45-2.27,2.53,0,4.75-1.08,7-2,2.06,0,4.14-.19,6,1C192.23,79.23,189,80.56,186,82Z" transform="translate(-0.9 -0.91)"/><path class="cls-125" d="M209.92,181l.23,1.79c-.44,3.44-2.81,2-4.39,1.5-14.43-4.56-26.67-12.33-35.87-24.6a70.66,70.66,0,0,1-12.52-27.9c-.46-2.12-.92-4.22,0-6.35a1.76,1.76,0,0,1,2-.84l.64.46c.92,3.86,1.77,7.74,2.77,11.58,4.15,15.9,14,27.58,27.46,36.41A51.94,51.94,0,0,0,209.92,181Z" transform="translate(-0.9 -0.91)"/><path class="cls-126" d="M165,126c.84,3.35,1.45,6.78,2.56,10,6.26,18.41,18,31.61,36.66,38.13,1.56.55,3.1,1.15,4.65,1.73-.4,3.1-2.42,2.1-4.06,1.47-22.27-8.52-36.45-24.15-41.66-47.6C162.82,128.24,162.48,126.33,165,126Z" transform="translate(-0.9 -0.91)"/><path class="cls-127" d="M166,125l-6,0,0-.23c-1.77-.37-3.1-1.28-3.18-3.21-.22-5.06-1.06-10.16.64-15.14,2.28-1.49,2.13.7,2.71,1.79.29,1.83.05,3.72.68,5.51a13,13,0,0,1,.38,2.24c.11,1.43,0,2.86.2,4.28.67,3,2.39,1.11,3.76.81,3-.67,5.56-3.71,9.13-2.06a1.64,1.64,0,0,1-.3,2h0C172.26,124.19,168.72,123.79,166,125Z" transform="translate(-0.9 -0.91)"/><path class="cls-128" d="M166,125c2.36-2,5.77-1.81,8-4-.84,4-4.36,3.38-7.12,4.06h-.45Z" transform="translate(-0.9 -0.91)"/><path class="cls-129" d="M158,125c.72,13.57,6.13,25.31,14.4,35.8,8.67,11,20.22,17.84,33.35,22.22,1.45.48,3.07,1.83,4.43-.24a3.84,3.84,0,0,1,.69,3.26,51.94,51.94,0,0,1-21.82-6c-1.62-.81-3.32-1.44-5-2.16l-3.16-2.83c-2.52-3.33-5.92-5.76-8.81-8.72A63.52,63.52,0,0,1,154.3,131c-.36-2.3-1.44-5,1.56-6.63A2.24,2.24,0,0,1,158,125Z" transform="translate(-0.9 -0.91)"/><path class="cls-130" d="M156.07,125c-2.28,6.63.75,12.57,2.77,18.47,3.79,11.06,11,19.84,19.6,27.63,1.09,1,3.43,1.63,2.43,4-15.81-10.17-24.54-24.93-27.86-43.16-.47-2.58-.7-5.21-1-7.81l.13-.14a3.45,3.45,0,0,1,1.3-.76C154.68,123.2,156,123,156.07,125Z" transform="translate(-0.9 -0.91)"/><path class="cls-131" d="M182,115v1a29.3,29.3,0,0,1-7,7l0-2a.92.92,0,0,1-.34-.78c0-.29.08-.44.14-.44,1.47-1.88,2.28-4.5,5.22-4.77Z" transform="translate(-0.9 -0.91)"/><path class="cls-132" d="M175,120q0,.5,0,1h-1v-2a4.24,4.24,0,0,1-1.07-2,13.9,13.9,0,0,1-.14-3.1,4.8,4.8,0,0,1,1-2.94,1.35,1.35,0,0,1,1.49.06,6,6,0,0,1,1,3.77,10.53,10.53,0,0,1-.28,3.11A7.29,7.29,0,0,1,175,120Z" transform="translate(-0.9 -0.91)"/><path class="cls-133" d="M152.15,81.08,152,77c.51-2.61,2.27-1.52,3.58-1.07a47.88,47.88,0,0,1,10.73,5.64c1.44,1.91,2.48,3.95,1.93,6.45-2.4,1.7-4.36.25-6.18-1a23.5,23.5,0,0,0-7.76-3.95A3.44,3.44,0,0,1,152.15,81.08Z" transform="translate(-0.9 -0.91)"/><path class="cls-134" d="M166.07,82c-4.13-.72-7.12-3.95-11.09-5.06-1-.29-2-1.36-3,.05-1.13-.73-1-1.9-1-3,2-2.88,4.31-.8,6.31-.27,4.34,1.13,8.08,3.57,11.65,6.24C169.09,82.23,168.13,82.9,166.07,82Z" transform="translate(-0.9 -0.91)"/><path class="cls-135" d="M152.15,81.08,154,82a3.52,3.52,0,0,1,.76,2.66c-.66,10.73.1,21.47-.19,32.2-.07,2.45.28,5-1.59,7.06l-.43,0h-.43Q152.13,102.53,152.15,81.08Z" transform="translate(-0.9 -0.91)"/><path class="cls-136" d="M171,78.05l3-1a4,4,0,0,1,1.29,3.09c.16,5.57.06,11.14-.07,16.71a5.79,5.79,0,0,1-1.65,4,1.67,1.67,0,0,1-1.61.38,20.8,20.8,0,0,1-3.15-10.54c1.38-3.76-.3-8.11,2.18-11.66Q171,78.52,171,78.05Z" transform="translate(-0.9 -0.91)"/><path class="cls-137" d="M171,79c-.06,4,.43,8.1-1,12-2.25,0-2-1.57-2-3l-1.93-6a3,3,0,0,0,2.87-2A2.23,2.23,0,0,1,171,79Z" transform="translate(-0.9 -0.91)"/><path class="cls-138" d="M173,101c1.86-7.94.58-16,1-24q0-.45,0-.9l3-1.32,0,.25c3,6.43,1.1,13.16,1.21,19.77-1.61,4.33-1.18,8.93-1.63,13.41-.12,1.18.57,2.77-1.58,2.77l-.94,0C172.09,107.83,170.84,104.61,173,101Z" transform="translate(-0.9 -0.91)"/><path class="cls-139" d="M177,96q0-10.47,0-20.94c1.81-.33,2.61,1.41,4,2L182,79c-.88,9.19-.9,18.41-1.17,27.62C180.75,111,180,115.77,175,118v-3C177.85,108.89,176.59,102.36,177,96Z" transform="translate(-0.9 -0.91)"/><path class="cls-140" d="M188,112c2.21-4.59,2.07-9.49,2-14.41,0-1.88-.76-4,1-5.6l2-1a79.83,79.83,0,0,0,.06,8.85A16.55,16.55,0,0,1,188,114Z" transform="translate(-0.9 -0.91)"/><path class="cls-141" d="M175,118c3.36-2.87,4.57-6.94,4.85-11,.46-6.69.15-13.44.12-20.17,0-2.83.09-5.6,2.05-7.91A3.35,3.35,0,0,1,184,81c-2.45,7.82-2,15.88-1.92,23.9A21.42,21.42,0,0,1,180,115c-1.68,1.64-2.7,3.95-5,5Q175,119,175,118Z" transform="translate(-0.9 -0.91)"/><path class="cls-142" d="M153,123.94c0-11.57,0-23.15.07-34.72,0-1.74-.67-3.67.92-5.16,1.88,1.5,2,3.76,2.61,5.85,1,3.62,1.6,7.35,2.31,11,.34,1.77.6,3.59-.85,5.08,0,4.72.08,9.45-.05,14.17-.05,2,.37,3.5,2,4.62l-2,.19-1.92-.05C155.27,123.88,154.06,124.09,153,123.94Z" transform="translate(-0.9 -0.91)"/><path class="cls-143" d="M158,106c-.26-5.48-1.68-10.75-2.94-16,1.57-2.7,3.43-1.69,5.45-.54,4.9,2.8,7.64,7.71,11.51,11.52l1,.07L174,111q0,1.51-.07,3c-2.61,3.61-6.94,3.56-10.59,4.83-2.05.72-2.71-1.3-3.37-2.83l0-2c-1.16-1.51.2-3.51-1-5C159,107.91,159.2,106.72,158,106Z" transform="translate(-0.9 -0.91)"/><path class="cls-144" d="M160,116c1.52,1.71,3,2.52,5.42,1.17,2.64-1.44,5.68-2.15,8.54-3.18q0,1.5,0,3c-3.16,2.94-7.58,3.25-11.16,5.34-1.29.75-2.14-.31-2.8-1.34Z" transform="translate(-0.9 -0.91)"/><path class="cls-145" d="M160,121c3.76,1.77,6.12-2.09,9.42-2.36,1.55-.12,3-1.07,4.54-1.65q0,1,0,2c-3.32,1.33-6.7,2.54-9.94,4C161.64,124.13,160.3,123.8,160,121Z" transform="translate(-0.9 -0.91)"/><path class="cls-146" d="M159,109c1.61,1.42.75,3.32,1,5C158.35,112.59,159.22,110.69,159,109Z" transform="translate(-0.9 -0.91)"/><path class="cls-147" d="M177,96c1.34,6.54,2.55,13.07-2,19q0-2,0-4C176.24,106.08,174.48,100.75,177,96Z" transform="translate(-0.9 -0.91)"/><path class="cls-148" d="M172,101c-2.81.28-3.81-2.09-4.86-3.8-2-3.27-5.33-4.91-8-7.36-1.41-1.3-2.77-.48-4.12.19l-1.12-5.92q0-1,0-2c3.13,0,5.62,1.52,7.89,3.41,1.81,1.51,3.67,2.7,6.13,2.58l2,3C169.91,94.48,172.48,97.41,172,101Z" transform="translate(-0.9 -0.91)"/></g></g></svg>