<svg xmlns="http://www.w3.org/2000/svg" viewBox="0 0 525.57 169.21"><defs><style>.cls-1{fill:#fbfbfb;}.cls-2{fill:#070809;}.cls-3{fill:#ec1c24;}</style></defs><title>click on detroit</title><g id="Layer_2" data-name="Layer 2"><g id="Layer_1-2" data-name="Layer 1"><path class="cls-1" d="M263.44,169.8q-129.72,0-259.43.07c-2.73,0-3.35-.62-3.35-3.35Q.8,85.08.66,3.64c0-2.5.49-3,3-3q259.8.11,519.6,0c2.49,0,3,.49,3,3q-.14,81.62,0,163.24c0,2.5-.49,3-3,3Q393.34,169.74,263.44,169.8Zm.39-16.1q123.51,0,247,.08c3.21,0,4-.75,3.94-4q-.19-63.21,0-126.42c0-3-.79-3.73-3.79-3.72q-247.2.12-494.4,0c-3.06,0-3.75.79-3.75,3.77q.15,63,0,126.06c0,3.58.92,4.29,4.36,4.28Q140.5,153.62,263.83,153.7Z" transform="translate(-0.66 -0.66)"/><path class="cls-2" d="M263.83,153.7q-123.33,0-246.65.08c-3.45,0-4.38-.7-4.36-4.28q.22-63,0-126.06c0-3,.68-3.77,3.75-3.77q247.2.13,494.4,0c3,0,3.8.68,3.79,3.72q-.16,63.21,0,126.42c0,3.21-.73,4-3.94,4Q387.34,153.63,263.83,153.7Zm-.15-57.42q122.43,0,244.85.08c3.23,0,3.92-.78,3.9-3.95q-.23-33.52,0-67c0-2.73-.65-3.4-3.39-3.4q-245.22.11-490.43,0c-2.81,0-3.36.77-3.34,3.44.12,22.23.16,44.45,0,66.68,0,3.57.88,4.28,4.34,4.28Q141.62,96.2,263.68,96.28Zm29.07,45.51-10.51-14.63c4.1-1.1,6.88-3.14,7.87-7.11,2-7.93-2.7-13.89-11.51-14.15-7.76-.23-15.53,0-23.3-.14-2.39-.05-2.42,1.08-2.41,2.86.06,8.62,0,17.23,0,25.85,0,7.65,0,7.65,7.71,7.31a2.09,2.09,0,0,1,.36,0c1.61.21,2.09-.53,2-2.09-.1-3.15-.06-6.31,0-9.47,0-.77-.36-1.7.63-2.25,2.13-1.17,8.28.41,9.69,2.5,2.09,3.12,4.19,6.23,6.23,9.39.76,1.18,1.51,2,3.14,1.95C285.81,141.69,288.93,141.79,292.75,141.79ZM119.29,123.46c0,5.22.08,10.44,0,15.65,0,2,.35,2.76,2.55,2.73,9.83-.12,19.66-.15,29.48,0,3.91.06,2.12-2.67,2.34-4.29s.75-3.61-2.42-3.49c-6.42.25-12.87-.12-19.29.16-3.12.13-2.58-1.65-2.56-3.41s-.68-3.63,2.49-3.47c5.45.27,10.93-.11,16.37.15,3,.15,3.87-.77,3.8-3.78-.06-2.74-.28-4.16-3.63-4-5.44.31-10.93-.11-16.37.16-3,.15-2.64-1.47-2.7-3.35s0-3.13,2.59-3c6.06.22,12.14-.12,18.19.15,3.42.15,2.66-2,2.57-3.75s1.23-4.23-2.55-4.15c-9.46.2-18.93.14-28.39,0-2.28,0-2.52.91-2.48,2.77C119.36,113.51,119.29,118.48,119.29,123.46Zm-72.37.2c0,5.21,0,10.43,0,15.64,0,1.44-.06,2.59,2,2.52,7.27-.23,14.56.37,21.81-.38,9.11-.94,15-7.82,15.17-17.36.14-9.82-5.26-16.53-14.53-17.79-7.48-1-15-.16-22.53-.49-2.13-.09-1.94,1.2-1.93,2.58C46.93,113.47,46.92,118.56,46.92,123.66Zm299.36-18.9c-1.8.09-3,.1-4.22.21-11.1,1-18,7.76-18.41,17.9-.43,10.59,5.66,17.7,16.9,19.61a29.61,29.61,0,0,0,10.5-.09c10.47-2,16.17-8.55,16.2-18.73,0-9.94-5.58-16.36-16.11-18.36C349.34,105,347.51,104.89,346.28,104.75Zm-144.16,1.06c-4.86,0-9.73.22-14.56-.08-3.1-.19-3.4,1.2-3.15,3.61.22,2.07-1,4.88,3.08,4.36,2.27-.29,4.62.1,6.91-.1s2.93.46,2.86,2.76c-.17,6.07-.06,12.14-.06,18.21,0,7.42,0,7.33,7.46,7.26,2.14,0,2.63-.7,2.59-2.69-.12-5.95,0-11.9,0-17.85,0-7.65,0-7.58,7.71-7.67,5.88-.07,4.89,1.25,5.12-5.19.07-2.07-.52-2.73-2.62-2.67C212.32,105.91,207.22,105.82,202.12,105.82Zm261.54,0c-4.73,0-9.47.18-14.19-.07-3-.16-4.16.44-4.12,3.87s1,4.48,4.24,4.08c2-.25,4.13.1,6.18-.09s2.62.66,2.59,2.66c-.12,6.06,0,12.13,0,18.2,0,7.67,0,7.59,7.72,7.37,2-.06,2.43-.68,2.4-2.53-.1-6.07,0-12.13,0-18.2,0-7.45,0-7.45,7.49-7.45,5.28,0,5.14,0,5.21-5.1,0-2.3-.67-2.87-2.88-2.79C473.38,105.93,468.52,105.82,463.67,105.82Zm-50.95,17.8q0-5.46,0-10.92c0-7,0-6.86-7.07-7-2.59,0-2.94.9-2.91,3.14.12,8.61,0,17.23,0,25.85,0,7.23,0,7.1,7.24,7.13,2.41,0,2.79-.85,2.73-3C412.63,133.81,412.72,128.71,412.72,123.62Z" transform="translate(-0.66 -0.66)"/><path class="cls-1" d="M263.68,96.28q-122.06,0-244.12.08c-3.46,0-4.37-.71-4.34-4.28.19-22.22.15-44.45,0-66.68,0-2.67.53-3.44,3.34-3.44q245.22.11,490.43,0c2.75,0,3.41.67,3.39,3.4q-.18,33.52,0,67c0,3.16-.67,4-3.9,3.95Q386.11,96.21,263.68,96.28ZM469.45,57.6c-4.51-5-9.3-9.21-12.8-14.34-5.29-7.76-12.17-10.19-21.05-8.9-1.88.27-2.73.43-2.71,2.62q.14,22.2,0,44.4c0,2.16.7,2.63,2.69,2.57,4.48-.13,9-.17,13.46,0,2.23.09,2.91-.52,2.82-2.81-.21-5.33-.12-10.67-.15-16,0-1.47,0-2.94,0-4.94,4.57,5.19,9.18,9.46,12.59,14.53,5.25,7.82,12.05,10.81,21.14,9.18a1.14,1.14,0,0,1,.36,0c1.84.27,2.49-.37,2.48-2.35q-.13-22.38,0-44.77c0-2-.73-2.42-2.54-2.38-4.49.11-9,.15-13.46,0-2.19-.08-3,.46-2.89,2.8C469.56,43.85,469.45,50.52,469.45,57.6Zm-77.58,28c5.14-.09,10-.37,14.65-1.87A25.49,25.49,0,0,0,424.7,58.87c-.1-11.78-7.18-21.3-18.65-24.38a50.23,50.23,0,0,0-28.71.45c-11.4,3.62-17.76,13-17.51,25.53.22,11.36,7.12,20.14,18.29,23.41A53.38,53.38,0,0,0,391.88,85.63ZM276.48,50.46c0-4.75-.15-8.58.05-12.39.14-2.68-.36-4-3.48-3.7a77.37,77.37,0,0,1-11.28,0c-2.64-.17-3.18.78-3.16,3.26.13,11.65,0,23.31.07,35,0,3.62-1.29,8.49.54,10.54,2.09,2.36,7.06.66,10.77.73,6.4.12,6.38,0,6.41-6.35,0-3.43-.71-7,3-9.45,1.48-1,2-1.14,3,.36,3,4.54,6.16,9,9.3,13.47.66.94,1.15,2.06,2.72,2,7-.07,14,0,21.54,0-5-7.06-9.6-13.66-14.22-20.28-2.28-3.27-6.42-6.69-6.26-9.86.18-3.46,5.28-5.82,8.08-8.8l9.89-10.53c-6.56,0-13.08.09-19.59,0a5.76,5.76,0,0,0-5,2.21C285,41.07,281,45.39,276.48,50.46ZM71.72,85.85c2.09-.19,5.14-.28,8.12-.77,9.64-1.59,17.43-5.73,21.18-15.5.88-2.3.3-2.91-2-3.08-4.48-.33-8.94-.84-13.4-1.36A2.24,2.24,0,0,0,83,66.36a13.3,13.3,0,0,1-14.92,6.27c-5.54-1.31-9-5.8-9.58-12.28s2.66-11.76,8.38-13.84c6.14-2.24,12-.53,15.65,4.77a2.25,2.25,0,0,0,2.68,1.1c4.53-.88,9.05-1.78,13.61-2.48,1.9-.3,2-1,1.44-2.62a19.38,19.38,0,0,0-13-12.3,50.33,50.33,0,0,0-31.16,0C45.39,38.5,38.95,47.56,38.73,58.92S44.44,79,55.06,83.17C60.11,85.17,65.42,85.61,71.72,85.85ZM220.17,32.7a45.18,45.18,0,0,0-15.41,2.24c-11,3.8-17.47,12.85-17.45,24.62,0,11.49,6.43,20.53,17.57,24.07a48.57,48.57,0,0,0,30.1-.19,22.24,22.24,0,0,0,14.67-14.1c.68-1.84.4-2.6-1.67-2.77-4.72-.39-9.43-.89-14.12-1.46-1.41-.17-1.78.51-2.39,1.56-2.85,4.92-8.48,7.22-14.42,6.05-5.16-1-8.68-4.81-9.74-10.5-1.13-6.09,1.16-11.91,5.76-14.63,5-3,13.39-2.81,16.16,1.38,2.6,3.94,5.34,3.42,8.8,2.66,3.08-.68,6.18-1.27,9.3-1.74,1.73-.26,2.17-.67,1.49-2.52-2.28-6.3-6.71-10.24-12.88-12.41A45.54,45.54,0,0,0,220.17,32.7ZM107.64,59c0,7.27.14,14.55-.07,21.82-.08,2.66.78,3.14,3.24,3.11,9.7-.15,19.39,0,29.09-.07,3.5,0,8.21,1.2,10.17-.57,2.26-2,.35-6.85.75-10.42.28-2.5-.94-2.72-2.95-2.69-6.06.09-12.12-.07-18.18.09-2.31.06-3.08-.48-3-2.94.15-9.94,0-19.88.13-29.82,0-2.64-.78-3.26-3.27-3.15-4.35.2-8.73.19-13.09,0-2.26-.09-2.88.59-2.84,2.83C107.73,44.49,107.64,51.76,107.64,59ZM320.84,27V90.84c.75.32,1-.15,1.36-.47,9.31-9.35,19.4-17.91,28.28-27.71,1.75-1.93,1.7-3,0-4.71C340.75,47.88,331.09,37.71,320.84,27ZM158.31,58.66c0,7.53.06,15.05,0,22.58,0,2,.41,2.79,2.58,2.71,4.61-.16,9.23-.13,13.84,0,1.94.05,2.71-.35,2.7-2.53q-.15-22.22,0-44.43c0-2.19-.75-2.64-2.73-2.58-4.49.13-9,.2-13.47,0-2.59-.13-3,.92-2.91,3.16C158.39,44.58,158.31,51.62,158.31,58.66Z" transform="translate(-0.66 -0.66)"/><path class="cls-1" d="M292.75,141.79c-3.82,0-6.94-.1-10,0-1.64.08-2.38-.77-3.14-1.95-2-3.15-4.15-6.26-6.23-9.39-1.4-2.1-7.56-3.67-9.69-2.5-1,.55-.62,1.47-.63,2.25,0,3.15-.09,6.31,0,9.47,0,1.56-.43,2.3-2,2.09a2.09,2.09,0,0,0-.36,0c-7.71.34-7.71.34-7.71-7.31,0-8.62,0-17.23,0-25.85,0-1.78,0-2.91,2.41-2.86,7.76.16,15.54-.09,23.3.14,8.81.26,13.49,6.22,11.51,14.15-1,4-3.77,6-7.87,7.11ZM270.7,120.32h4.71c2.42,0,4.86-.12,5-3.32s-2.25-3.56-4.72-3.56c-3.38,0-6.77.13-10.14-.06-2.15-.12-2.42.74-2.59,2.66-.29,3.32.48,5,4.17,4.32A20.22,20.22,0,0,1,270.7,120.32Z" transform="translate(-0.66 -0.66)"/><path class="cls-1" d="M119.29,123.46c0-5,.06-10,0-14.92,0-1.87.2-2.81,2.48-2.77,9.46.13,18.93.19,28.39,0,3.78-.08,2.45,2.41,2.55,4.15s.85,3.9-2.57,3.75c-6.06-.27-12.14.07-18.19-.15-2.6-.09-2.65,1.13-2.59,3s-.27,3.5,2.7,3.35c5.45-.27,10.93.15,16.37-.16,3.35-.19,3.57,1.23,3.63,4,.07,3-.75,3.92-3.8,3.78-5.45-.26-10.93.12-16.37-.15-3.17-.16-2.47,1.76-2.49,3.47s-.56,3.55,2.56,3.41c6.42-.28,12.86.09,19.29-.16,3.18-.12,2.64,1.82,2.42,3.49s1.57,4.35-2.34,4.29c-9.83-.14-19.66-.11-29.48,0-2.2,0-2.6-.78-2.55-2.73C119.37,133.9,119.29,128.68,119.29,123.46Z" transform="translate(-0.66 -0.66)"/><path class="cls-1" d="M46.92,123.66c0-5.09,0-10.19,0-15.28,0-1.38-.2-2.68,1.93-2.58,7.5.33,15-.52,22.53.49,9.27,1.26,14.67,8,14.53,17.79-.13,9.54-6.06,16.42-15.17,17.36-7.25.75-14.54.15-21.81.38-2.07.07-2-1.08-2-2.52C46.94,134.09,46.92,128.87,46.92,123.66Zm10,.17c0,2.79,0,5.57,0,8.36,0,1-.07,2,1.38,2,3.86-.13,7.76.39,11.59-.37A6.66,6.66,0,0,0,75,129.08a16.11,16.11,0,0,0,.18-10.34,6.65,6.65,0,0,0-6.33-5.09c-3.14-.17-6.3,0-9.44-.19-2.23-.15-2.6.84-2.5,2.74C57,118.73,56.92,121.28,56.92,123.82Z" transform="translate(-0.66 -0.66)"/><path class="cls-1" d="M346.28,104.75c1.23.13,3.06.21,4.84.55,10.53,2,16.14,8.42,16.11,18.36,0,10.19-5.73,16.77-16.2,18.73a29.61,29.61,0,0,1-10.5.09c-11.24-1.91-17.33-9-16.9-19.61.41-10.14,7.31-16.86,18.41-17.9C343.27,104.86,344.48,104.84,346.28,104.75ZM357,123.91a11.54,11.54,0,0,0-23.07.07c0,6.68,4.74,11.36,11.57,11.31S357,130.69,357,123.91Z" transform="translate(-0.66 -0.66)"/><path class="cls-1" d="M202.12,105.82c5.1,0,10.2.1,15.3,0,2.1-.06,2.7.6,2.62,2.67-.23,6.44.76,5.12-5.12,5.19-7.7.09-7.71,0-7.71,7.67,0,5.95-.07,11.9,0,17.85,0,2-.45,2.68-2.59,2.69-7.46.06-7.46.16-7.46-7.26,0-6.07-.11-12.14.06-18.21.06-2.31-.66-3-2.86-2.76s-4.64-.19-6.91.1c-4.07.52-2.86-2.3-3.08-4.36-.25-2.41.05-3.8,3.15-3.61C192.4,106,197.27,105.82,202.12,105.82Z" transform="translate(-0.66 -0.66)"/><path class="cls-1" d="M463.67,105.82c4.85,0,9.71.12,14.56-.05,2.21-.08,2.91.5,2.88,2.79-.08,5.1.06,5.1-5.21,5.1-7.49,0-7.49,0-7.49,7.45,0,6.07-.06,12.14,0,18.2,0,1.85-.43,2.48-2.4,2.53-7.72.22-7.72.3-7.72-7.37,0-6.07-.08-12.14,0-18.2,0-2-.44-2.85-2.59-2.66s-4.15-.16-6.18.09c-3.28.4-4.21-.69-4.24-4.08s1.08-4,4.12-3.87C454.19,106,458.93,105.82,463.67,105.82Z" transform="translate(-0.66 -0.66)"/><path class="cls-1" d="M412.72,123.62c0,5.1-.09,10.2,0,15.29.06,2.1-.33,3-2.73,3-7.24,0-7.24.1-7.24-7.13,0-8.62.07-17.23,0-25.85,0-2.24.32-3.17,2.91-3.14,7.06.09,7.07-.05,7.07,7Q412.72,118.16,412.72,123.62Z" transform="translate(-0.66 -0.66)"/><path class="cls-2" d="M469.45,57.6c0-7.08.11-13.75-.06-20.41-.06-2.34.71-2.87,2.89-2.8,4.48.16,9,.12,13.46,0,1.81,0,2.55.35,2.54,2.38q-.13,22.38,0,44.77c0,2-.64,2.63-2.48,2.35a1.14,1.14,0,0,0-.36,0c-9.09,1.64-15.88-1.36-21.14-9.18-3.41-5.07-8-9.34-12.59-14.53,0,2,0,3.47,0,4.94,0,5.34-.06,10.68.15,16C452,83.44,451.28,84,449,84c-4.48-.18-9-.14-13.46,0-2,.06-2.71-.41-2.69-2.57q.15-22.2,0-44.4c0-2.19.83-2.34,2.71-2.62,8.89-1.29,15.76,1.13,21.05,8.9C460.15,48.38,464.95,52.63,469.45,57.6Z" transform="translate(-0.66 -0.66)"/><path class="cls-2" d="M391.88,85.63a53.38,53.38,0,0,1-13.74-1.77c-11.18-3.27-18.07-12-18.29-23.41-.24-12.51,6.11-21.9,17.51-25.53a50.23,50.23,0,0,1,28.71-.45c11.46,3.09,18.55,12.6,18.65,24.38a25.49,25.49,0,0,1-18.17,24.89C401.85,85.26,397,85.54,391.88,85.63ZM392.58,73c7.82,0,12.52-5.11,12.57-13.64s-4.93-13.86-12.85-13.95-13,5.45-13.06,13.78C379.23,67.7,384.32,73,392.58,73Z" transform="translate(-0.66 -0.66)"/><path class="cls-2" d="M276.48,50.46C281,45.39,285,41.07,288.82,36.6a5.76,5.76,0,0,1,5-2.21c6.51.14,13,0,19.59,0L303.5,45c-2.8,3-7.9,5.34-8.08,8.8-.17,3.17,4,6.58,6.26,9.86,4.62,6.62,9.27,13.22,14.22,20.28-7.56,0-14.55,0-21.54,0-1.57,0-2.06-1.1-2.72-2-3.13-4.47-6.27-8.93-9.3-13.47-1-1.5-1.5-1.35-3-.36-3.68,2.47-2.95,6-3,9.45,0,6.39,0,6.47-6.41,6.35-3.71-.07-8.67,1.63-10.77-.73-1.83-2.06-.53-6.92-.54-10.54,0-11.65.06-23.31-.07-35,0-2.47.51-3.42,3.16-3.26a77.37,77.37,0,0,0,11.28,0c3.11-.26,3.62,1,3.48,3.7C276.33,41.88,276.48,45.72,276.48,50.46Z" transform="translate(-0.66 -0.66)"/><path class="cls-2" d="M71.72,85.85c-6.3-.24-11.6-.68-16.66-2.68C44.44,79,38.52,70.2,38.73,58.92S45.39,38.5,56.14,35a50.33,50.33,0,0,1,31.16,0,19.38,19.38,0,0,1,13,12.3c.61,1.64.46,2.32-1.44,2.62-4.55.71-9.08,1.6-13.61,2.48a2.25,2.25,0,0,1-2.68-1.1c-3.7-5.3-9.51-7-15.65-4.77-5.72,2.08-8.9,7.35-8.38,13.84s4,11,9.58,12.28A13.3,13.3,0,0,0,83,66.36a2.24,2.24,0,0,1,2.62-1.21c4.46.51,8.93,1,13.4,1.36,2.28.17,2.86.78,2,3.08-3.75,9.77-11.55,13.91-21.18,15.5C76.86,85.57,73.81,85.66,71.72,85.85Z" transform="translate(-0.66 -0.66)"/><path class="cls-2" d="M220.17,32.7A45.55,45.55,0,0,1,235.94,35c6.18,2.16,10.6,6.1,12.88,12.41.67,1.86.23,2.26-1.49,2.52-3.12.47-6.22,1.06-9.3,1.74-3.46.76-6.19,1.28-8.8-2.66-2.77-4.19-11.14-4.35-16.16-1.38-4.6,2.72-6.89,8.54-5.76,14.63,1.06,5.69,4.58,9.48,9.74,10.5,5.93,1.17,11.56-1.13,14.42-6.05.61-1.05,1-1.74,2.39-1.56,4.7.58,9.41,1.08,14.12,1.46,2.07.17,2.35.93,1.67,2.77A22.24,22.24,0,0,1,235,83.43a48.57,48.57,0,0,1-30.1.19C193.75,80.09,187.34,71,187.31,59.55c0-11.77,6.4-20.82,17.45-24.62A45.18,45.18,0,0,1,220.17,32.7Z" transform="translate(-0.66 -0.66)"/><path class="cls-2" d="M107.64,59c0-7.27.09-14.55-.05-21.82,0-2.24.58-2.93,2.84-2.83,4.36.18,8.73.2,13.09,0,2.48-.11,3.31.51,3.27,3.15-.17,9.94,0,19.88-.13,29.82,0,2.46.73,3,3,2.94,6.06-.16,12.12,0,18.18-.09,2,0,3.23.19,2.95,2.69-.4,3.57,1.51,8.37-.75,10.42-2,1.77-6.67.56-10.17.57-9.7,0-19.4-.08-29.09.07-2.46,0-3.31-.44-3.24-3.11C107.78,73.59,107.64,66.31,107.64,59Z" transform="translate(-0.66 -0.66)"/><path class="cls-3" d="M320.84,27c10.25,10.73,19.9,20.9,29.65,31,1.7,1.76,1.75,2.78,0,4.71-8.89,9.8-19,18.35-28.28,27.71-.32.32-.61.78-1.36.47Z" transform="translate(-0.66 -0.66)"/><path class="cls-2" d="M158.31,58.66c0-7,.08-14.08,0-21.12,0-2.24.32-3.29,2.91-3.16,4.48.22,9,.15,13.47,0,2-.06,2.75.39,2.73,2.58q-.14,22.22,0,44.43c0,2.18-.76,2.58-2.7,2.53-4.61-.12-9.23-.15-13.84,0-2.17.08-2.61-.72-2.58-2.71C158.37,73.72,158.31,66.19,158.31,58.66Z" transform="translate(-0.66 -0.66)"/><path class="cls-2" d="M270.7,120.32a20.21,20.21,0,0,0-3.61,0c-3.69.68-4.46-1-4.17-4.32.17-1.91.44-2.77,2.59-2.66,3.37.18,6.76.05,10.14.06,2.47,0,4.82.37,4.72,3.56s-2.54,3.34-5,3.32Z" transform="translate(-0.66 -0.66)"/><path class="cls-2" d="M56.92,123.82c0-2.54.1-5.09,0-7.63-.1-1.9.27-2.9,2.5-2.74,3.14.21,6.3,0,9.44.19a6.65,6.65,0,0,1,6.33,5.09A16.11,16.11,0,0,1,75,129.08a6.66,6.66,0,0,1-5.09,4.71c-3.83.75-7.73.23-11.59.37-1.45.05-1.39-1-1.38-2C56.93,129.39,56.92,126.61,56.92,123.82Z" transform="translate(-0.66 -0.66)"/><path class="cls-2" d="M357,123.91c0,6.78-4.57,11.32-11.5,11.37s-11.61-4.63-11.57-11.31a11.54,11.54,0,0,1,23.07-.07Z" transform="translate(-0.66 -0.66)"/><path class="cls-1" d="M392.58,73c-8.26,0-13.35-5.26-13.34-13.81,0-8.33,5.27-13.87,13.06-13.78s12.89,5.49,12.85,13.95S400.4,72.95,392.58,73Z" transform="translate(-0.66 -0.66)"/></g></g></svg>