<svg xmlns="http://www.w3.org/2000/svg" viewBox="0 0 418.61 219.2"><defs><style>.cls-1{fill:#fefefe;}.cls-2{fill:#fe5831;}.cls-3{fill:#fe6845;}.cls-4{fill:#fe7a5b;}.cls-5{fill:#fe7e60;}</style></defs><title>Asset 1</title><g id="Layer_2" data-name="Layer 2"><g id="Layer_1-2" data-name="Layer 1"><path class="cls-1" d="M352.41.47c21.39,0,42.77,0,64.16,0,1.74,0,2.16.3,2.16,2.12q-.09,107.43,0,214.86c0,1.59-.09,2.22-2.05,2.22q-207.25-.1-414.51,0c-1.62,0-2-.28-2-2Q.22,110.06.12,2.48c0-2.39,1.09-2,2.54-2q154.58,0,309.17,0h40c-.19,1.64-1.55,1.29-2.51,1.34a63,63,0,0,0-42.54,18.46c-11.33,11.18-18,24.84-19.28,40.94-1.62,20.63,5,38.24,19.78,52.56a62.47,62.47,0,0,0,40.63,17.89c16.6,1.08,31.49-3.42,44.49-13.72a63.51,63.51,0,0,0,24.29-42.1,65.13,65.13,0,0,0-61.15-74C354.37,1.77,352.82,2.34,352.41.47Z" transform="translate(-0.12 -0.43)"/><path class="cls-2" d="M352.41.47c2.66,1.28,5.57.68,8.35,1,29.61,3.77,53.59,27.92,56.8,57.42,3.81,35-18.59,66-53.22,72.59A65.83,65.83,0,0,1,337.63,2.63,56.41,56.41,0,0,1,349.72,1c.71,0,1.63.43,2.1-.58Z" transform="translate(-0.12 -0.43)"/><path d="M258,187.6c10.24,6.18,9.55,18.29,3.81,25.42a14,14,0,0,1-9,4.72c-9.25,1.33-18.58.33-27.86.66-1.86.07-1.47-1.11-1.47-2.14q0-13.42,0-26.84c0-9.44,0-18.88,0-28.33,0-1.87.37-2.51,2.4-2.48,7.85.13,15.72-.23,23.55.13,8.21.37,15.37,5.71,15.4,15.37C264.78,179.92,262.82,184.25,258,187.6Z" transform="translate(-0.12 -0.43)"/><path d="M279,188.53c0-9.15.06-18.3,0-27.45,0-1.92.45-2.47,2.42-2.46q16.71.15,33.42,0c1.91,0,2.49.43,2.46,2.42-.08,6,0,6-6,6-6.86,0-13.73.05-20.59,0-1.67,0-2.2.41-2.15,2.12q.19,6.26,0,12.53c0,1.67.41,2.17,2.12,2.15,6.76-.1,13.53,0,20.29-.08,1.67,0,2.14.42,2.15,2.12,0,6.28.12,6.28-6,6.28-5.47,0-10.94.07-16.41,0-1.68,0-2.19.43-2.14,2.13q.18,6.56,0,13.13c0,1.68.44,2.16,2.13,2.14,8.06-.09,16.11,0,24.17-.09,1.94,0,2.47.48,2.45,2.43-.06,6.57,0,6.57-6.62,6.57-9.75,0-19.5-.06-29.24,0-1.94,0-2.47-.48-2.44-2.44C279,206.84,279,197.68,279,188.53Z" transform="translate(-0.12 -0.43)"/><path d="M372.28,218.37c-4.7,0-4.7,0-6.14-4.53-2.37-7.41-2.37-7.41-10.06-7.41-4.48,0-9,.1-13.42-.05-1.61-.06-2.15.55-2.56,1.92-.79,2.66-1.86,5.24-2.56,7.91-.46,1.75-1.27,2.34-3,2.2a58.73,58.73,0,0,0-6,0c-1.48,0-2.17,0-1.43-2,3.29-8.67,6.34-17.42,9.52-26.13,3.45-9.43,7-18.8,10.36-28.27.86-2.43,1.84-3.59,4.66-3.42,4.63.29,4.53.12,6.17,4.58,6.25,17.05,12.57,34.07,18.86,51.11.13.36.07.81.25,1.13,1.26,2.27.63,3.21-2,3C374.08,218.3,373.18,218.37,372.28,218.37Z" transform="translate(-0.12 -0.43)"/><path d="M118.53,158.67C112,178.09,105.61,197,99.38,216c-.61,1.86-1.27,2.44-3.15,2.41-4.85-.09-4.88,0-6.56-5.09-5.79-17.53-11.49-35.08-17.41-52.56-.73-2.14-.07-2.13,1.5-2.1a19.09,19.09,0,0,0,4.17,0c3.18-.64,4.28.93,5.08,3.73,2.34,8.08,4.93,16.09,7.45,24.12,1.43,4.56,2.9,9.11,4.43,13.9,1.39-4.22,2.79-8.32,4.09-12.44,2.53-8,5-16.08,7.51-24.11,1.62-5.16,1.66-5.15,7.31-5.15Z" transform="translate(-0.12 -0.43)"/><path d="M39.6,165.66c-.7.65-1.43,1.32-2.15,2C36.1,169,35,170.9,33.37,171.5c-1.78.66-2.57-1.9-4-2.78a12.3,12.3,0,0,0-13-.26c-4,2.12-5.15,5.95-5.34,9.91-.31,6.54-.23,13.12,0,19.67.14,4.7,1.92,8.61,6.51,10.81,5.26,2.53,9.86,1,13.89-2.43,1.72-1.45,2.38-.88,3.47.32a30.07,30.07,0,0,0,3.38,3.36c1.36,1.08,1.22,1.77,0,2.84a23.57,23.57,0,0,1-27.82,2.35,18.72,18.72,0,0,1-9-14.55A95.35,95.35,0,0,1,.89,183.3c.44-5.58.13-11.36,3.77-16.41a20.44,20.44,0,0,1,14.7-8.71C27.13,157.28,34.27,159.11,39.6,165.66Z" transform="translate(-0.12 -0.43)"/><path d="M392.41,192.71c0-7.76-.07-15.52,0-23.27,0-1.93-.46-2.52-2.43-2.45-4.17.16-8.35,0-12.53.08-1.43,0-1.79-.39-1.84-1.82-.23-6.57-.28-6.57,6.31-6.57,11.24,0,22.48,0,33.72,0,1.94,0,2.47.47,2.45,2.43-.07,6,0,6-6,6-2.59,0-5.18.13-7.76,0-2-.13-2.45.5-2.44,2.44.08,15.42,0,30.83.1,46.25,0,2.22-.5,2.8-2.74,2.76-6.86-.14-6.87,0-6.87-6.93Z" transform="translate(-0.12 -0.43)"/><path d="M155.4,188.5c0-9.15.06-18.3-.05-27.45,0-2,.56-2.43,2.46-2.42,7.14,0,7.14,0,7.14,7.24,0,13.63.06,27.26-.06,40.88,0,2.28.59,2.76,2.78,2.72,7.86-.14,15.72,0,23.57-.11,2,0,2.43.57,2.42,2.47-.05,6.54,0,6.54-6.65,6.54-9.75,0-19.5-.06-29.24.05-2,0-2.43-.58-2.41-2.47C155.46,206.8,155.4,197.65,155.4,188.5Z" transform="translate(-0.12 -0.43)"/><path d="M51.53,188.23c0-9.05.06-18.1,0-27.16,0-1.94.48-2.46,2.43-2.45,7.16,0,7.16,0,7.16,7.22,0,16.61,0,33.22.06,49.84,0,2.22-.5,2.8-2.74,2.76-6.86-.14-6.86,0-6.86-6.93Q51.53,199.87,51.53,188.23Z" transform="translate(-0.12 -0.43)"/><path d="M129.14,188.53c0-9.15.06-18.3,0-27.45,0-1.94.47-2.46,2.43-2.45,7.17,0,7.17,0,7.17,7.22,0,16.61,0,33.22.06,49.84,0,2.22-.49,2.8-2.74,2.76-6.86-.14-6.87,0-6.87-6.93Z" transform="translate(-0.12 -0.43)"/><path d="M91.53,117.22c0-5.82.12-11-.06-16.14-.07-2.09.85-2.16,2.44-2.14s2.5,0,2.46,2.13c-.15,7.56,0,15.12-.1,22.67,0,.89.84,2.56-.83,2.6s-3.29,1-4.65-1.29c-3.38-5.56-7.15-10.88-11.19-16.94,0,5.75,0,10.83,0,15.92,0,1.53,0,2.51-2.09,2.5s-2.15-.86-2.14-2.46c.06-7.36,0-14.72.08-22.08,0-1-1-2.63.8-2.95s3.37-.33,4.56,1.66c2.41,4,5.12,7.92,7.7,11.86C89.41,113.91,90.27,115.27,91.53,117.22Z" transform="translate(-0.12 -0.43)"/><path d="M5,112.58c0-3.88.11-7.76,0-11.63-.08-1.89.73-2.13,2.26-2,1.31.12,2.82-.45,2.61,1.94-.22,2.57,0,5.17-.08,7.75,0,1.27.31,1.64,1.64,1.71,8.53.49,8.49.53,8.57-7.93,0-1.45-1.15-3.71,2.18-3.55,2,.1,2.65.48,2.61,2.61-.14,7.56-.15,15.12,0,22.67,0,2.19-.85,2.28-2.57,2.33s-2.45-.37-2.31-2.28c.18-2.67,0-5.37.07-8.05,0-1.27-.3-1.89-1.64-1.67a2.27,2.27,0,0,1-.3,0c-2.66.07-6.07-.82-7.76.5s-.09,4.88-.56,7.37c-.26,1.39,1.83,4-1.83,4.13-2.29.09-3.06-.49-2.92-2.88C5.13,120,5,116.26,5,112.58Z" transform="translate(-0.12 -0.43)"/><path d="M131.43,114.11c-.4,2.34.31,6.27-2.58,9.37-3.32,3.57-7.3,3.46-11.55,2.41s-5.67-4.59-5.94-8.22a43.24,43.24,0,0,1,.37-11.73A8.4,8.4,0,0,1,118.49,99c6.12-.71,10.33,1.06,11.89,5.2C131.4,106.91,131.66,109.87,131.43,114.11Z" transform="translate(-0.12 -0.43)"/><path d="M59.89,113.16c-.22,2.31.41,5.07-.58,7.75a8.94,8.94,0,0,1-7.76,5.57c-4.65.31-8.51-.66-10.72-5.23a6.66,6.66,0,0,1-.66-3.08c0-3.57,0-7.14,0-10.71A8.48,8.48,0,0,1,48.67,99c8.43,0,11.22,2.71,11.22,11.1Z" transform="translate(-0.12 -0.43)"/><path d="M262.86,109.93c-.41,3,.64,6.61-.58,10.2-1.79,5.25-4.8,6.91-11.82,6.31-3.95-.33-6.41-3-7.32-7.55-1.23-6.18-.28-12.41-.55-18.6-.1-2.4,1.86-1,2.85-1.26,1.22-.32,2,0,1.94,1.64-.11,5.26-.07,10.53,0,15.79a5.28,5.28,0,0,0,3.33,5.3c1.91.8,3.67.94,5.38-.62a6,6,0,0,0,2-4.74c0-5.16.12-10.33-.07-15.49-.09-2.37,1.31-1.82,2.62-1.94,1.51-.13,2.39.07,2.26,2C262.73,103.71,262.86,106.5,262.86,109.93Z" transform="translate(-0.12 -0.43)"/><path d="M196.6,109.82c0,2.68,0,5.36,0,8,0,4.86-3.78,8.39-8.69,8.63-4.73.23-8.44-.94-10.5-5.59a5.93,5.93,0,0,1-.51-2.52c0-5.76.11-11.52-.05-17.28-.06-2,.78-2.22,2.41-2.16s2.56-.09,2.48,2.09c-.19,5.26-.07,10.52-.06,15.79,0,3.58,1.69,5.41,5,5.44,3.46,0,5.17-1.78,5.18-5.52,0-5.26.09-10.53,0-15.79,0-1.88.73-2.13,2.26-2,1.3.12,2.79-.46,2.62,1.93C196.43,103.85,196.6,106.84,196.6,109.82Z" transform="translate(-0.12 -0.43)"/><path d="M146.45,113c0-4.08.13-8.16-.05-12.23-.1-2.24,1.26-1.74,2.46-1.77s2.47-.34,2.42,1.81c-.15,6.36,0,12.73-.11,19.1,0,2,.56,2.51,2.47,2.41,3-.16,6,.1,8.95-.09,1.91-.12,1.76.9,1.79,2.16s0,2.17-1.84,2.12c-4.77-.15-9.55-.11-14.32,0-1.47,0-1.83-.45-1.8-1.85C146.51,120.74,146.45,116.86,146.45,113Z" transform="translate(-0.12 -0.43)"/><path d="M212.72,112.49c0-3.58.05-7.16,0-10.74,0-1.71-.14-2.81,2.33-2.89,2.74-.1,2.5,1.27,2.49,3,0,5.77.18,11.55-.1,17.3-.13,2.8.83,3.34,3.29,3.12,2.27-.21,4.57,0,6.86-.05,1.43,0,2.6-.22,2.56,2,0,2-.69,2.25-2.4,2.2-4.27-.11-8.56-.16-12.83,0-2,.08-2.26-.65-2.21-2.37C212.8,120.25,212.72,116.37,212.72,112.49Z" transform="translate(-0.12 -0.43)"/><path class="cls-3" d="M405.44,109.07c1.31-.35,2.72-1.42,3.74.48.9.67,2,1.26,1.19,2.68-3.27,1.72-1.89-2-3.1-2.66C406.68,109.33,405.9,109.81,405.44,109.07Z" transform="translate(-0.12 -0.43)"/><path class="cls-4" d="M410.37,112.23c.08-1.1-1-1.68-1.19-2.68.91-.07,1-2.09,1.9-1.23.69.66.72,2.17.78,3.31S411,112.35,410.37,112.23Z" transform="translate(-0.12 -0.43)"/><path class="cls-5" d="M406.82,109.77v3.73c-1.29-1.23-1.1-2.55-1.47-3.63A.93.93,0,0,1,406.82,109.77Z" transform="translate(-0.12 -0.43)"/><path class="cls-2" d="M406.82,109.77l-1.47.1-.6-.48.69-.32c.62.14,1.33-.07,1.83.49A.9.9,0,0,1,406.82,109.77Z" transform="translate(-0.12 -0.43)"/><path class="cls-1" d="M352.56,6.2c33.84.18,61,28.38,60.33,62.31-.65,32.43-28.32,59.32-61.58,59-32.69-.29-60-28.09-59.79-60.88A60.91,60.91,0,0,1,352.56,6.2Z" transform="translate(-0.12 -0.43)"/><path class="cls-1" d="M233.21,200.67c0-2.76-1.09-6.53.28-8,1.62-1.76,5.42-.52,8.26-.5,3.18,0,6.4-.55,9.5,1.06,3.61,1.87,5.84,5.23,5,8.87-1.11,4.82-3.63,7-8.13,7.28s-8.94,0-13.41.11c-1.59,0-1.76-.64-1.72-1.93.08-2.28,0-4.57,0-6.86Z" transform="translate(-0.12 -0.43)"/><path class="cls-1" d="M233,174.92c.25-2.26-1.2-5.91.56-7.47,1.51-1.34,5.08-.43,7.74-.41,3.75,0,7.48-.35,10.93,2.05,3.06,2.12,2.95,5,2.83,8A6.25,6.25,0,0,1,251,182.4c-5.47,2.33-11.39,1.14-17.13,1.33-1.1,0-.86-.86-.86-1.5C233,180,233,177.67,233,174.92Z" transform="translate(-0.12 -0.43)"/><path class="cls-1" d="M360.93,198.08c-5.44,0-10.4,0-15.36,0-1.34,0-1.82-.33-1.32-1.71,2.68-7.4,5.31-14.81,8.2-22.85Z" transform="translate(-0.12 -0.43)"/><path class="cls-1" d="M116,112.23c.22-1.67-.31-3.61.53-5.54,1-2.29,2.31-3.74,5-3.55a4.64,4.64,0,0,1,4.61,4,21.28,21.28,0,0,1,0,10.37c-1,3.84-2.27,5-5.71,4.73-2.24-.15-4.3-2.69-4.47-5.61C115.94,115.26,116,113.87,116,112.23Z" transform="translate(-0.12 -0.43)"/><path class="cls-1" d="M55.11,112.94c-.29,2,.53,4.35-.67,6.62a4.86,4.86,0,0,1-5.81,2.62c-2.27-.5-3.46-2.13-3.71-4.6a34.74,34.74,0,0,1,0-9.55c.51-2.94,1.88-4.62,4.71-4.91,3.37-.35,5.2,2.51,5.48,4.71A42.88,42.88,0,0,1,55.11,112.94Z" transform="translate(-0.12 -0.43)"/><path class="cls-2" d="M379.58,63.17c5.51,2.23,8.25,6.06,8.62,11.52.53,7.65-3.4,13.12-11,14.64-5.93,1.19-12,1.71-18,2.68-1.66.27-1.82-.54-2-1.75q-2.4-17.41-4.84-34.82c-.49-3.54-.93-7.09-1.57-10.61-.31-1.69.15-2.29,1.83-2.5,5.32-.64,10.62-1.53,16-2.11,10.09-1.1,17.44,6.57,15.46,16A12.65,12.65,0,0,1,379.58,63.17Z" transform="translate(-0.12 -0.43)"/><path class="cls-2" d="M323.1,65a105.61,105.61,0,0,0,2.34,14.77c.91,3.86,2.92,6.83,7,7.72s7.68.07,10.6-3.13c.6-.66,1.15-2.18,2.13-1.62a34.66,34.66,0,0,1,5.13,4,4.62,4.62,0,0,1-.85,1.42c-4.72,5.63-10.93,7.53-17.91,6.37-6.79-1.13-11.7-5-13.44-11.94a88.9,88.9,0,0,1-3-22.08c0-7,3.75-11.86,9.93-14.65,6.49-2.92,12.93-2.62,19,1.52,1,.69,1,1.3.23,2.13a6.36,6.36,0,0,0-.86,1.21c-1.45,2.46-2.73,3.66-5.86,1.52-3.34-2.29-7.29-1.51-10.68.71C323.08,55.41,322.69,59.23,323.1,65Z" transform="translate(-0.12 -0.43)"/><path class="cls-1" d="M380.46,75.62a7.2,7.2,0,0,1-6,7.12c-2.71.56-5.49.78-8.21,1.29-1.59.29-2.11-.39-2.29-1.8-.46-3.63-.94-7.26-1.49-10.88-.22-1.47.14-2.15,1.76-2.28,2.56-.21,5.09-.77,7.64-1C376.81,67.5,380.48,70.8,380.46,75.62Z" transform="translate(-0.12 -0.43)"/><path class="cls-1" d="M359.42,49.5c-.17-.76.54-1.14,1.72-1.28,2.55-.3,5.08-.8,7.64-1,4.07-.38,7,2,7.79,6.06.65,3.5-1.2,6.54-5,7.54-2.95.77-6,1-9,1.54-1.19.21-1.33-.6-1.44-1.38C360.51,57.32,360,53.7,359.42,49.5Z" transform="translate(-0.12 -0.43)"/></g></g></svg>