<svg xmlns="http://www.w3.org/2000/svg" viewBox="0 0 516.11 78.57"><defs><style>.cls-1{fill:#fefefe;}.cls-2{fill:#fdfdfd;}</style></defs><title>deseret </title><g id="Layer_2" data-name="Layer 2"><g id="Layer_1-2" data-name="Layer 1"><path class="cls-1" d="M258.15,78.67q-127.84,0-255.69.06c-2.13,0-2.4-.55-2.4-2.49Q.19,39.16.08,2.08C.07.44.53.18,2,.18Q258.1.24,514.16.16c1.81,0,2,.48,2,2.11q-.09,37.21,0,74.42c0,1.78-.43,2-2.09,2Q386.12,78.64,258.15,78.67Z" transform="translate(-0.07 -0.16)"/><path d="M23.39,4.72c9-.1,17.9-.54,26.74,1.54,16,3.77,24.6,15.1,23.66,31.53-1.16,20.33-16.59,34.86-37,34.88-9.37,0-18.75-.61-28.12,0-1.09.07-2.62.45-2.83-1.23-.18-1.52,1.25-1.8,2.35-2.15,4.31-1.39,5.27-2.47,5.29-7q.09-22.74,0-45.48c0-5.1-1.6-6.9-6.54-8.44C5.5,7.94,3.09,8,3.36,6c.31-2.38,2.7-1.24,4.2-1.26C12.83,4.66,18.11,4.72,23.39,4.72Z" transform="translate(-0.07 -0.16)"/><path d="M324,41.54c.32,5.54-.59,12.35.51,19.09.77,4.7,3.37,7.66,8.21,8.6,1.33.26,3.59.12,3.34,2.2-.23,1.92-2.3,1.2-3.58,1.19-6.7,0-13.39-.43-20.09.05-.86.06-2,.34-2.28-.93-.22-1,.49-1.71,1.3-2.23a4.62,4.62,0,0,1,.88-.48c5.43-2,7.15-6,7-11.64-.27-12.23-.15-24.47-.2-36.7a19.54,19.54,0,0,0-1-5.92A8.46,8.46,0,0,0,312,8.72a14.67,14.67,0,0,1-2.57-.95,1.64,1.64,0,0,1-.89-1.9,1.41,1.41,0,0,1,1.63-1.23c5.44.49,10.89-.09,16.33,0a2.2,2.2,0,0,1,1.66.91q20.1,22.31,40.28,44.54c.67.74,1.39,2.11,2.51,1.6.87-.4.56-1.82.56-2.79,0-10.64,0-21.29.06-31.93,0-3.88-1.87-6.29-5.36-7.61-1.56-.59-3.17-1.05-4.75-1.61-.91-.32-1.75-.82-1.55-2s1.17-1.22,2.15-1.17c6.7.31,13.4.33,20.1,0,.81,0,1.85-.2,2.13.83s-.63,1.63-1.54,1.91c-5.13,1.54-6.55,5.22-6.51,10.22.13,17.51.06,35,0,52.54,0,1.07.59,2.57-.92,3.06s-2.27-.66-3.14-1.61q-22.48-24.4-45-48.76c-.74-.8-1.37-2.37-2.67-1.83-1.08.45-.52,1.95-.53,3C323.93,29.42,324,34.87,324,41.54Z" transform="translate(-0.07 -0.16)"/><path d="M450.45,50.32c-3.81,7.35-7.48,14.47-11.17,21.57-.47.91-.49,2.36-1.92,2.3s-1.69-1.49-2.12-2.52c-4.53-10.68-9-21.37-13.48-32.09-.81-2-1.77-3.54-3.89-4.26-.95-.32-1.95-.94-1.63-2.18s1.5-1.21,2.5-1.1a73.28,73.28,0,0,0,15.3,0c1-.1,2.2-.16,2.43,1.15.2,1.11-.75,1.62-1.66,1.89-2.47.74-2.73,2.42-2,4.52q3.48,9.66,7,19.3c.16.44.26,1.06.85,1.13.74.1,1-.6,1.21-1.07,2.1-3.89,4.3-7.74,6.21-11.73,1.59-3.34-1.31-10.15-4.82-11.89-1-.47-2.29-.79-1.86-2.22s1.72-1.11,2.79-1a77.26,77.26,0,0,0,14.8,0,6,6,0,0,1,1.5,0c.66.1,1.4.24,1.56,1a1.48,1.48,0,0,1-1,1.6c-.66.35-1.37.62-2,1-1.48.73-2.18,1.89-1.57,3.49q3.63,9.6,7.36,19.16c.56,1.44,1.32,1.07,1.79,0,2.45-5.85,5.38-11.51,7.21-17.59,1.13-3.75.37-4.85-3.31-5.71-1.09-.26-2.05-.58-1.88-1.85S470,32,470.9,32.12a36.88,36.88,0,0,0,10,0c.75-.12,1.63-.18,2,.66s-.25,1.46-.94,1.85a7.45,7.45,0,0,0-3,3.89q-7.51,16.94-15,33.87c-.37.83-.54,1.87-1.73,1.86s-1.48-1-1.84-1.81c-2.7-6.38-5.38-12.77-8.07-19.15A6.5,6.5,0,0,0,450.45,50.32Z" transform="translate(-0.07 -0.16)"/><path d="M244.1,49.06c-3.77,0-7.54,0-11.31,0-1,0-1.79-.09-1.9,1.29-.71,8.33,5.2,16.79,13.7,16.93,3.36.05,6.15-1.33,8.84-3.11a5.13,5.13,0,0,1,.85-.53c1.07-.43,2.13-2.15,3.19-1s-.3,2.47-1.14,3.44a22.17,22.17,0,0,1-25.51,5.23c-6.6-3.21-10.31-10.19-9.78-18.6.36-5.71,1.87-11.07,5.65-15.53,4.76-5.61,10.89-7.29,17.89-5.49s11.29,6.6,12.94,13.61c.78,3.29.25,3.77-3.11,3.77Z" transform="translate(-0.07 -0.16)"/><path d="M404.71,49.06H393.4c-.92,0-1.87-.21-2,1.21-.7,8.11,5.08,17.25,14.41,17,3.34-.09,6-1.79,8.76-3.43,1.06-.63,2.28-2.61,3.54-1.07,1,1.27-.57,2.57-1.5,3.57-8.23,8.84-22.86,9.44-30.31,1.13-5.48-6.11-5.41-13.4-3.75-20.85a21.82,21.82,0,0,1,3.29-7.54c4.35-6.4,10.35-9.08,18-7.66,7.27,1.35,11.82,5.84,14,12.83a7.09,7.09,0,0,1,.23,1c.57,3.53.3,3.86-3.27,3.86Z" transform="translate(-0.07 -0.16)"/><path d="M99.45,49.06c-3.77,0-7.54,0-11.32,0-1.06,0-1.8.12-1.89,1.37-.6,8.65,5.94,18.21,16.09,16.69,2.71-.41,4.94-1.94,7.22-3.35,1-.64,2.27-2.34,3.38-1.06s-.48,2.59-1.38,3.59c-8.11,9-23,9.54-30.49,1.09-5.25-5.89-5.3-12.95-3.79-20.16a21.87,21.87,0,0,1,5-10.25c4.9-5.48,11-7.1,18-5.14s11.18,6.74,12.65,13.83c.64,3.09.26,3.44-2.93,3.44Z" transform="translate(-0.07 -0.16)"/><path d="M171.69,49.06c-3.77,0-7.54,0-11.31,0-1.06,0-1.74.12-1.83,1.41-.56,8.07,5.07,16.7,13.86,16.82,3.64,0,6.54-1.71,9.47-3.54,1-.62,2.22-2.38,3.36-1s-.52,2.58-1.42,3.57c-6.67,7.26-18.49,9.21-26.44,4.39-6.11-3.71-8.55-9.41-8.59-16.29,0-6.37,1.5-12.29,5.69-17.27,4.62-5.48,10.62-7.15,17.43-5.55,7,1.64,11.26,6.26,13.21,13.08a11.63,11.63,0,0,1,.24,2.24c.12,1.5-.32,2.27-2.09,2.21C179.4,49,175.54,49.06,171.69,49.06Z" transform="translate(-0.07 -0.16)"/><path d="M203.07,39.5c2.48-2.61,4.23-5,6.54-6.74,3-2.31,4.45-2.27,7.78.33s4,4.29,2.45,7.64a13.47,13.47,0,0,1-1.54,2.57c-1.79,2.33-2.71,2.42-4.78.41s-4.39-2.91-7.08-1.94-3.19,3.53-3.25,6c-.13,4.94-.17,9.89,0,14.83.11,4.05,1.49,5.44,5.5,6.69,1.19.37,3.41,0,3.17,2-.27,2.28-2.41,1.3-3.71,1.25q-8.8-.38-17.58.07c-.77,0-1.85.38-2.15-.72s.57-1.65,1.45-2c2.32-1,3-2.93,3-5.29,0-7.54,0-15.08,0-22.62,0-2.21-1-3.21-3.08-3.49a14.48,14.48,0,0,1-1.72-.32c-.67-.18-1.31-.45-1.3-1.3a1.47,1.47,0,0,1,1.17-1.45c1.76-.51,3.54-1,5.31-1.46a26.7,26.7,0,0,0,7.15-3c2-1.25,2.6-.91,2.65,1.51C203.11,34.59,203.07,36.68,203.07,39.5Z" transform="translate(-0.07 -0.16)"/><path d="M484,64.65c0-1.67,0-3.35,0-5,0-.81.25-1.53,1.15-1.71s1.26.59,1.56,1.29c1.11,2.52,2,5.13,3.75,7.34a9.91,9.91,0,0,0,9.42,4.11,6.36,6.36,0,0,0,5.58-4.71c.69-2.6,0-4.4-2.61-6.2-3.66-2.54-7.85-4.06-11.88-5.87C485,51.21,483,46.79,485,39.25c1.06-4,4.27-6.08,8-7.26,5-1.6,10.09-1,15.09.34.85.23,1.61.55,1.7,1.57q.34,3.63.66,7.25a1.06,1.06,0,0,1-.73,1.18,1.14,1.14,0,0,1-1.32-.5c-.83-1.16-1.57-2.37-2.41-3.51a10.32,10.32,0,0,0-10.61-4.07c-2.12.51-3.68,1.54-4,3.89s.42,4.22,2.59,5.19c3.73,1.67,7.6,3,11.3,4.76,7.3,3.39,10,11.09,6.3,18-2.38,4.5-6.59,6.3-11.3,7a35.7,35.7,0,0,1-13.21-.87c-2.49-.59-3.87-1.74-3.35-4.52a16.64,16.64,0,0,0,0-3Z" transform="translate(-0.07 -0.16)"/><path d="M116.32,64.92c.11-2,.19-3.77.31-5.52,0-.68.23-1.33,1.08-1.48s1.19.45,1.47,1.06c.92,2,1.67,4,2.74,5.9,2.25,3.92,5.53,6.22,10.28,5.8A6.17,6.17,0,0,0,138,65.91c.71-2.81.06-4.4-2.77-6.32-3.55-2.41-7.61-3.79-11.44-5.64-6.06-2.93-8.07-7.23-6.5-13.74a10.6,10.6,0,0,1,6.25-7.37c5.74-2.66,11.57-2,17.42-.44.75.2,1.42.55,1.49,1.47q.29,3.5.56,7c0,.59.07,1.24-.65,1.45a1.32,1.32,0,0,1-1.49-.69c-.77-1.09-1.46-2.25-2.27-3.31a10.24,10.24,0,0,0-10.85-4,4.81,4.81,0,0,0-1.19,9c1.94,1,4,1.73,6,2.56,1.39.57,2.82,1.05,4.19,1.65,7.22,3.16,9.77,7.51,8.73,14.77-.82,5.68-5.7,9.94-12.57,10.76a34.51,34.51,0,0,1-13-.88c-3.56-.94-3.66-1.09-3.61-4.77C116.33,66.51,116.32,65.58,116.32,64.92Z" transform="translate(-0.07 -0.16)"/><path d="M264.63,52.19c0-4-.1-8,0-12.07.07-2-.27-3.08-2.51-2.64a5.19,5.19,0,0,1-1,0,1.9,1.9,0,0,1-1.87-1,1.92,1.92,0,0,1,.65-2.26c1.41-1.31,2.94-2.49,4.33-3.82a76.38,76.38,0,0,0,7.62-9c.53-.69,1.06-1.71,2.19-1.25s.66,1.43.67,2.23c0,2.51.13,5,0,7.54-.12,1.95.7,2.52,2.48,2.44s3.52-.05,5.28,0c1.24,0,2.33-.14,3-1.33.25-.43.6-.89,1.2-.63.86.38.31,1,.15,1.49-.51,1.5-1.09,3-1.64,4.47-.34.95-1,1.16-2,1.14-2.26,0-4.53.05-6.79,0-1.28-.05-1.73.28-1.72,1.65.07,8,0,15.92.06,23.88,0,3.94,1.57,5.19,5.54,4.85a13.14,13.14,0,0,0,5.21-1.66c.62-.34,1.38-1,2-.21s.29,1.76-.4,2.47a15.82,15.82,0,0,1-9.74,4.69,25.07,25.07,0,0,1-5.26,0c-4.56-.39-7.35-3.28-7.48-7.87-.13-4.35,0-8.71,0-13.07Z" transform="translate(-0.07 -0.16)"/><path class="cls-1" d="M25.28,38.2c0-7.45,0-14.91,0-22.36,0-6,1.6-7.56,7.62-7.59,14.61-.08,24.91,8.43,28,23.35,1.77,8.67,1.16,17.19-2.95,25.18-6,11.75-19.17,13.6-27.22,11.6-3.93-1-5.42-3.15-5.43-7.31q0-11.43,0-22.87Z" transform="translate(-0.07 -0.16)"/><path class="cls-2" d="M238.78,45.76c-2,0-4-.08-6,0-1.52.09-2.16-.43-2-2a16.29,16.29,0,0,1,1-5.13c1.72-4.08,5.55-5.84,9.61-4.39,3.9,1.39,6.86,6.68,5.85,10.26-.31,1.1-1,1.18-1.89,1.19C243.13,45.78,241,45.76,238.78,45.76Z" transform="translate(-0.07 -0.16)"/><path class="cls-2" d="M399.18,45.77a40,40,0,0,0-5,0c-2.62.33-3-.84-2.84-3.13.46-5.42,3.48-8.85,8-8.8s8.28,3.94,8.56,9.09c.11,2-.54,3-2.7,2.83C403.2,45.66,401.19,45.77,399.18,45.77Z" transform="translate(-0.07 -0.16)"/><path class="cls-2" d="M94.05,45.77c-1.93,0-3.86-.11-5.77,0s-2.31-.69-2.16-2.35A16.57,16.57,0,0,1,87,39c1.59-4.23,5.27-6.15,9.38-4.88s7.24,6.56,6.27,10.3c-.31,1.18-1.14,1.3-2.1,1.3Z" transform="translate(-0.07 -0.16)"/><path class="cls-2" d="M166.38,45.77c-1.92,0-3.86-.12-5.77,0s-2.31-.65-2.15-2.33a17.09,17.09,0,0,1,.6-3.7c1-3.07,2.73-5.39,6.14-5.86a8.07,8.07,0,0,1,8.51,4.47,11.42,11.42,0,0,1,.87,2.07c1.29,4.38.6,5.31-3.94,5.31Z" transform="translate(-0.07 -0.16)"/></g></g></svg>