<svg xmlns="http://www.w3.org/2000/svg" viewBox="0 0 198.08 29.53"><title>logo-knifo</title><path d="M38.59,22.46V20.87c.33-.08.68-.14,1-.17L35.63,16v4.64a7.31,7.31,0,0,1,1.28.23v1.59h-5.5V20.89a11,11,0,0,1,1.69-.25V11.17a11,11,0,0,1-1.69-.25V9.35h5.5v1.59a7.4,7.4,0,0,1-1.28.23v4.35l3.89-4.41a4.4,4.4,0,0,1-1-.18V9.35h5.32v1.59c-.39.08-.85.16-1.2.19l-4.16,4.51,4.43,5c.37,0,.84.12,1.22.19v1.59Z" style="fill:#4b4b4b"/><path d="M52.4,22.46V16.28c0-1-.27-1.59-1.18-1.59C50,14.69,49,16.11,49,17.8v2.84a8.19,8.19,0,0,1,1.42.23v1.59h-5.6V20.89a11,11,0,0,1,1.69-.25V14.71c-.47-.08-1.13-.16-1.69-.19V13a27.81,27.81,0,0,1,4-.17,11.31,11.31,0,0,1-.14,1.75h0A3.55,3.55,0,0,1,52,12.61c2.18,0,2.88,1.38,2.88,3.07v5a8.85,8.85,0,0,1,1.57.25v1.57Z" style="fill:#4b4b4b"/><path d="M57,22.46V20.89a11,11,0,0,1,1.69-.25V14.71c-.47-.08-1.13-.16-1.69-.19V13a28.85,28.85,0,0,1,4.18-.17v7.85a9.47,9.47,0,0,1,1.57.25v1.57Zm2.93-11.1a1.52,1.52,0,0,1-1.53-1.5,1.55,1.55,0,1,1,1.53,1.5Z" style="fill:#4b4b4b"/><path d="M67.58,27.34c-2.57,0-4.14-1-4.14-2.88a2.84,2.84,0,0,1,1.5-2.37,1.6,1.6,0,0,1-1-1.48,1.92,1.92,0,0,1,1.15-1.73,2.82,2.82,0,0,1-1.44-2.64c0-1.94,1.44-3.65,4.26-3.65a5.71,5.71,0,0,1,1.57.21h3.28v1.94H71.48A1.64,1.64,0,0,1,72,16c0,2.06-1.38,3.48-4.14,3.48a3.35,3.35,0,0,1-.76-.08.71.71,0,0,0-.47.62c0,.45.37.56,1.5.6l1.5.06c2.08.08,3.28,1,3.28,2.84C72.88,25.57,70.78,27.34,67.58,27.34Zm1.32-4.76-1.67-.06h-.45A1.89,1.89,0,0,0,65.89,24c0,.89.82,1.44,2.06,1.44,1.61,0,2.47-.7,2.47-1.61C70.42,23.12,70,22.62,68.9,22.58Zm-1-8.18a1.64,1.64,0,0,0-1.79,1.69,1.77,1.77,0,0,0,3.54,0A1.58,1.58,0,0,0,67.85,14.4Z" style="fill:#4b4b4b"/><path d="M80.91,22.46V16.28c0-1-.27-1.59-1.19-1.59-1.26,0-2.25,1.42-2.25,3.13v2.82a7.9,7.9,0,0,1,1.42.23v1.59H73.43V20.89A9.45,9.45,0,0,1,75,20.63V10.18c-.47-.08-1.11-.16-1.63-.19V8.43a27.6,27.6,0,0,1,4.1-.17v4.18a11.11,11.11,0,0,1-.16,2h0a3.44,3.44,0,0,1,3.19-1.79c2.18,0,2.88,1.38,2.88,3.07v5a9.92,9.92,0,0,1,1.55.25v1.57Z" style="fill:#4b4b4b"/><path d="M89.59,22.65c-2.14,0-2.8-.78-2.8-3v-4.9H85.12V12.8H86.8v-3l2.47-.66V12.8h2.35v1.92H89.26V19c0,1.24.29,1.59,1.15,1.59a3.94,3.94,0,0,0,1.11-.14l.17,2A9.23,9.23,0,0,1,89.59,22.65Z" style="fill:#4b4b4b"/><path d="M103.62,12.71c-.08-.45-.16-.87-.19-1.34H100.8V15H103a6.08,6.08,0,0,1,.21-1.07h1.61V18h-1.61A5.74,5.74,0,0,1,103,16.9h-2.2v3.73a10.93,10.93,0,0,1,1.69.25v1.57H96.59V20.89a11,11,0,0,1,1.69-.25V11.17a11,11,0,0,1-1.69-.25V9.35h8.92v3.36Z" style="fill:#4b4b4b"/><path d="M111.08,22.65c-2.74,0-4.51-1.42-4.51-4.82,0-3.05,2-5.23,4.93-5.23,2.74,0,4.51,1.5,4.51,4.82A4.88,4.88,0,0,1,111.08,22.65Zm.25-7.95c-1.13,0-2.2.86-2.2,2.9s.7,2.93,2.16,2.93c1.22,0,2.16-1,2.16-2.9S112.76,14.71,111.34,14.71Z" style="fill:#4b4b4b"/><path d="M124.37,22.48a13.92,13.92,0,0,1,.12-1.75h0a3.49,3.49,0,0,1-3.26,1.92c-2.2,0-2.9-1.38-2.9-3.07V14.71c-.47-.08-1-.16-1.55-.19V12.94a29.2,29.2,0,0,1,4-.16V19c0,1,.27,1.59,1.19,1.59,1.26,0,2.25-1.42,2.25-3.11V14.69c-.41-.06-.93-.14-1.42-.18V12.92a31.1,31.1,0,0,1,3.89-.14v7.77c.47.08,1.07.16,1.57.19v1.57A27.92,27.92,0,0,1,124.37,22.48Z" style="fill:#4b4b4b"/><path d="M136.42,22.46V16.28c0-1-.27-1.59-1.19-1.59-1.26,0-2.25,1.42-2.25,3.11v2.84a8.18,8.18,0,0,1,1.42.23v1.59h-5.6V20.89a11,11,0,0,1,1.69-.25V14.71c-.47-.08-1.13-.16-1.69-.19V13a27.8,27.8,0,0,1,4-.17,11.22,11.22,0,0,1-.14,1.75h0A3.54,3.54,0,0,1,136,12.61c2.18,0,2.88,1.38,2.88,3.07v5a8.84,8.84,0,0,1,1.57.25v1.57Z" style="fill:#4b4b4b"/><path d="M147.67,22.48a12,12,0,0,1,.12-1.63h0a3.23,3.23,0,0,1-3.05,1.83c-2.35,0-3.52-1.77-3.52-4.53,0-3.26,1.9-5.52,5.11-5.52a8.84,8.84,0,0,1,1.22.08V10.18c-.47-.08-1.13-.16-1.69-.19V8.43A28.53,28.53,0,0,1,150,8.26v12.3c.47.08,1.11.16,1.59.19v1.56A25.3,25.3,0,0,1,147.67,22.48Zm-.16-7.73a6.07,6.07,0,0,0-1.3-.16c-1.42,0-2.43.89-2.43,3.28,0,1.81.52,2.74,1.65,2.74,1.3,0,2.08-1.51,2.08-3.17Z" style="fill:#4b4b4b"/><path d="M158.07,22.48a11.26,11.26,0,0,1,.08-1.65l0,0A3.27,3.27,0,0,1,155,22.65,2.52,2.52,0,0,1,152.28,20c0-2.31,2.29-3.4,5.58-3.44V16c0-1-.41-1.61-1.71-1.61a4.83,4.83,0,0,0-1.42.23,10.86,10.86,0,0,1-.19,1.26H153V13.1a11.69,11.69,0,0,1,3.34-.5c3.17,0,4,1.24,4,3.36v4.6c.47.08,1.07.16,1.57.19v1.57A27.77,27.77,0,0,1,158.07,22.48Zm-.21-4.29c-2.21,0-3.21.49-3.21,1.48a1.08,1.08,0,0,0,1.17,1.11,2.2,2.2,0,0,0,2-2.33Z" style="fill:#4b4b4b"/><path d="M166.56,22.65c-2.14,0-2.8-.78-2.8-3v-4.9h-1.67V12.8h1.67v-3l2.47-.66V12.8h2.35v1.92h-2.35V19c0,1.24.29,1.59,1.15,1.59a3.93,3.93,0,0,0,1.11-.14l.18,2A9.24,9.24,0,0,1,166.56,22.65Z" style="fill:#4b4b4b"/><path d="M169.55,22.46V20.89a11,11,0,0,1,1.69-.25V14.71c-.47-.08-1.13-.16-1.69-.19V13a28.85,28.85,0,0,1,4.18-.17v7.85a9.47,9.47,0,0,1,1.57.25v1.57Zm2.93-11.1A1.52,1.52,0,0,1,171,9.87a1.55,1.55,0,1,1,1.53,1.5Z" style="fill:#4b4b4b"/><path d="M180.53,22.65c-2.74,0-4.51-1.42-4.51-4.82,0-3.05,2-5.23,4.93-5.23,2.74,0,4.51,1.5,4.51,4.82A4.88,4.88,0,0,1,180.53,22.65Zm.25-7.95c-1.13,0-2.2.86-2.2,2.9s.7,2.93,2.16,2.93c1.22,0,2.16-1,2.16-2.9S182.2,14.71,180.78,14.71Z" style="fill:#4b4b4b"/><path d="M194,22.46V16.28c0-1-.27-1.59-1.18-1.59-1.26,0-2.25,1.42-2.25,3.11v2.84a8.18,8.18,0,0,1,1.42.23v1.59h-5.6V20.89a10.93,10.93,0,0,1,1.69-.25V14.71c-.47-.08-1.13-.16-1.69-.19V13a27.79,27.79,0,0,1,4-.17,11.22,11.22,0,0,1-.14,1.75h0a3.54,3.54,0,0,1,3.28-1.92c2.18,0,2.88,1.38,2.88,3.07v5a8.87,8.87,0,0,1,1.57.25v1.57Z" style="fill:#4b4b4b"/><polygon points="0 1.24 6.64 1.24 0 11.35 6.64 22.38 0 22.38 0 1.24" style="fill:#4b4b4b"/><polygon points="12.24 1.24 24.16 1.24 24.16 5.57 12.24 5.57 12.24 9.29 24.16 9.29 24.16 13.62 12.24 13.62 12.24 22.38 5.14 11.35 12.24 1.24" style="fill:#4b4b4b"/></svg>