<?xml version="1.0" encoding="utf-8"?>
<!-- Generator: Adobe Illustrator 19.2.1, SVG Export Plug-In . SVG Version: 6.00 Build 0)  -->
<svg version="1.1" id="Layer_1" xmlns="http://www.w3.org/2000/svg" xmlns:xlink="http://www.w3.org/1999/xlink" x="0px" y="0px"
	 viewBox="0 0 144 31.1" style="enable-background:new 0 0 144 31.1;" xml:space="preserve">
<style type="text/css">
	.st0{fill:#4B4B4B;}
</style>
<g>
	<path class="st0" d="M129.9,24.8c-0.3,0.1-0.5,0.1-0.7,0.1c-0.8,0-1.1-0.3-1.1-1.3v-7c0-3.7-3-5.5-6.4-5.5c-2.6,0-4.1,0.3-6.9,1.4
		l-0.7,3.7l3.7,0.4l0.5-1.8c0.8-0.4,1.5-0.4,2.5-0.4c2.6,0,2.6,1.9,2.6,3.6v0.5c-0.8-0.1-1.8-0.2-2.6-0.2c-3.7,0-7.5,0.9-7.5,4.9
		c0,3.4,2.6,4.7,5,4.7c2.6,0,4.2-1.5,5.2-3.2c0.3,1.9,1.4,3.2,3.6,3.2c1,0,2-0.3,2.9-0.8L129.9,24.8z M120,24.7
		c-1.4,0-1.9-0.8-1.9-1.9c0-1.8,1.4-2.2,3.1-2.2c0.8,0,1.5,0.1,2.3,0.3C123.3,23.6,121.6,24.7,120,24.7z M113.8,3l-7,24.7h-4.6
		L109.1,3C109.2,3,113.8,3,113.8,3z M104.3,3l-6.9,24.7h-4.6L99.7,3C99.8,3,104.3,3,104.3,3z M84.9,11.5h4.8v5.8h-4.8V11.5z
		 M84.9,21.9h4.8v5.8h-4.8V21.9z M77.8,21.7l3.6,0.3l-1,5.7H66.4l-0.5-2.5l8.9-10.2h-5.1L69,17.5l-3.4-0.3l0.6-5.7h14.2l0.3,2.5
		l-9,10.2h5.3L77.8,21.7z M54.7,11.2c-5.8,0-8.7,3.9-8.7,8.6c0,5.2,3.5,8.2,8.5,8.2c5.2,0,8.9-3.3,8.9-8.5
		C63.3,15.1,60.5,11.2,54.7,11.2z M54.5,24.5c-2.5,0-3.8-2.1-3.8-4.9c0-3.1,1.4-4.8,3.8-4.8c2.2,0,4,1.4,4,4.7
		C58.5,22.5,56.9,24.5,54.5,24.5z M41.8,24.2h2.1v3.6h-6.8v-9.2c0-2.8-0.9-3.9-2.7-3.9c-2.2,0-3.1,1.5-3.1,3.8v5.6h2.1v3.6h-6.8
		v-9.1c0-2.8-0.9-3.9-2.8-3.9c-2.2,0-3.1,1.5-3.1,3.8v5.6h3.1v3.6H14v-3.6h2.1V15H14v-3.6h6.8v2.5c0.9-1.7,2.6-2.7,4.9-2.7
		s4.5,1.1,5.3,3.5c0.9-2.1,2.7-3.5,5.3-3.5c3,0,5.6,1.8,5.6,5.6V24.2z"/>
</g>
</svg>
