<svg viewBox="0 0 300 60"><path d="M66.71,43.88V41.63c.47-.11,1-.19,1.37-.25l-5.53-6.63V41.3a10.3,10.3,0,0,1,1.81.33v2.25H56.61V41.66A15.44,15.44,0,0,1,59,41.3V28a15.56,15.56,0,0,1-2.38-.36V25.39h7.75v2.24a10.43,10.43,0,0,1-1.81.33V34.1L68,27.88a6.21,6.21,0,0,1-1.42-.25V25.39h7.5v2.24c-.55.11-1.2.22-1.7.27l-5.86,6.35,6.24,7.09c.52.06,1.18.17,1.73.27v2.25Z" style="fill:#231f20"/><path d="M86.18,43.88V35.17c0-1.4-.38-2.25-1.67-2.25-1.78,0-3.18,2-3.18,4.38v4a11.55,11.55,0,0,1,2,.33v2.25H75.44V41.66a15.45,15.45,0,0,1,2.38-.36V32.95c-.66-.11-1.59-.22-2.38-.27V30.48a39.19,39.19,0,0,1,5.7-.25,15.94,15.94,0,0,1-.19,2.46h0A5,5,0,0,1,85.6,30c3.07,0,4.05,1.94,4.05,4.33v7a12.46,12.46,0,0,1,2.22.36v2.22Z" style="fill:#231f20"/><path d="M92.61,43.88V41.66A15.45,15.45,0,0,1,95,41.3V32.95c-.66-.11-1.59-.22-2.38-.27V30.48a40.65,40.65,0,0,1,5.89-.25V41.3a13.34,13.34,0,0,1,2.22.36v2.22Zm4.13-15.64a2.14,2.14,0,0,1-2.16-2.11,2.18,2.18,0,1,1,2.16,2.11Z" style="fill:#231f20"/><path d="M107.56,50.75c-3.61,0-5.83-1.4-5.83-4.05a4,4,0,0,1,2.11-3.34,2.26,2.26,0,0,1-1.34-2.08,2.71,2.71,0,0,1,1.62-2.44,4,4,0,0,1-2-3.72c0-2.74,2-5.15,6-5.15a8.05,8.05,0,0,1,2.22.3h4.63V33h-1.86a2.31,2.31,0,0,1,.68,1.73c0,2.9-1.94,4.9-5.83,4.9a4.72,4.72,0,0,1-1.07-.11,1,1,0,0,0-.66.87c0,.63.52.79,2.11.85l2.11.08c2.93.11,4.63,1.37,4.63,4C115,48.25,112.08,50.75,107.56,50.75ZM109.43,44,107.07,44h-.63A2.67,2.67,0,0,0,105.18,46c0,1.26,1.15,2,2.9,2,2.27,0,3.48-1,3.48-2.27C111.56,44.8,110.93,44.09,109.43,44Zm-1.48-11.53a2.31,2.31,0,0,0-2.52,2.38,2.49,2.49,0,1,0,2.52-2.38Z" style="fill:#231f20"/><path d="M126.35,43.88V35.17c0-1.4-.38-2.25-1.67-2.25-1.78,0-3.18,2-3.18,4.41v4a11.13,11.13,0,0,1,2,.33v2.25h-7.69V41.66A13.32,13.32,0,0,1,118,41.3V26.57c-.66-.11-1.56-.22-2.3-.27V24.11a38.89,38.89,0,0,1,5.78-.25v5.89a15.66,15.66,0,0,1-.22,2.76h0A4.84,4.84,0,0,1,125.8,30c3.07,0,4.05,1.94,4.05,4.33v7a14,14,0,0,1,2.19.36v2.22Z" style="fill:#231f20"/><path d="M138.59,44.15c-3,0-3.94-1.09-3.94-4.27V33h-2.36V30.27h2.36V26.08l3.48-.93v5.12h3.31V33h-3.31v6c0,1.75.41,2.25,1.61,2.25A5.55,5.55,0,0,0,141.3,41l.25,2.76A13,13,0,0,1,138.59,44.15Z" style="fill:#231f20"/><path d="M158.36,30.13c-.11-.63-.22-1.23-.27-1.89h-3.7v5.09h3.09a8.57,8.57,0,0,1,.3-1.51h2.27v5.72h-2.27a8.09,8.09,0,0,1-.3-1.51h-3.09V41.3a15.41,15.41,0,0,1,2.38.36v2.22h-8.32V41.66a15.43,15.43,0,0,1,2.38-.36V28a15.55,15.55,0,0,1-2.38-.36V25.39H161v4.74Z" style="fill:#231f20"/><path d="M168.87,44.15c-3.86,0-6.35-2-6.35-6.79,0-4.3,2.82-7.37,7-7.37,3.86,0,6.35,2.11,6.35,6.79C175.83,41.08,173,44.15,168.87,44.15Zm.36-11.2c-1.59,0-3.09,1.21-3.09,4.08,0,2.71,1,4.13,3,4.13,1.73,0,3-1.4,3-4.08S171.23,32.95,169.23,32.95Z" style="fill:#231f20"/><path d="M187.6,43.9a19.61,19.61,0,0,1,.17-2.46h-.05a4.92,4.92,0,0,1-4.6,2.71c-3.09,0-4.08-1.94-4.08-4.33V32.95c-.66-.11-1.48-.22-2.19-.27V30.46a41.14,41.14,0,0,1,5.7-.22V39c0,1.4.38,2.25,1.67,2.25,1.78,0,3.18-2,3.18-4.38V32.92c-.58-.08-1.32-.19-2-.25V30.43a43.83,43.83,0,0,1,5.48-.19v11c.66.11,1.51.22,2.22.27v2.22A39.34,39.34,0,0,1,187.6,43.9Z" style="fill:#231f20"/><path d="M204.58,43.88V35.17c0-1.4-.38-2.25-1.67-2.25-1.78,0-3.18,2-3.18,4.38v4a11.52,11.52,0,0,1,2,.33v2.25h-7.88V41.66a15.45,15.45,0,0,1,2.38-.36V32.95c-.66-.11-1.59-.22-2.38-.27V30.48a39.18,39.18,0,0,1,5.69-.25,15.82,15.82,0,0,1-.19,2.46h0A5,5,0,0,1,204,30c3.07,0,4.05,1.94,4.05,4.33v7a12.46,12.46,0,0,1,2.22.36v2.22Z" style="fill:#231f20"/><path d="M220.43,43.9a16.87,16.87,0,0,1,.16-2.3h-.05a4.55,4.55,0,0,1-4.3,2.57c-3.31,0-5-2.49-5-6.38,0-4.6,2.68-7.78,7.2-7.78a12.46,12.46,0,0,1,1.73.11V26.57c-.66-.11-1.59-.22-2.38-.27V24.11a40.2,40.2,0,0,1,5.86-.25V41.19c.66.11,1.56.22,2.25.27v2.19A35.66,35.66,0,0,1,220.43,43.9ZM220.21,33a8.56,8.56,0,0,0-1.83-.22c-2,0-3.42,1.26-3.42,4.63,0,2.55.74,3.86,2.33,3.86,1.83,0,2.93-2.13,2.93-4.46Z" style="fill:#231f20"/><path d="M235.08,43.9a15.87,15.87,0,0,1,.11-2.33l0,0a4.61,4.61,0,0,1-4.35,2.6,3.55,3.55,0,0,1-3.89-3.7c0-3.26,3.23-4.79,7.86-4.85v-.79c0-1.45-.58-2.27-2.41-2.27a6.8,6.8,0,0,0-2,.33,15.3,15.3,0,0,1-.27,1.78h-2.19v-4a16.48,16.48,0,0,1,4.71-.71c4.46,0,5.7,1.75,5.7,4.74v6.49c.66.11,1.51.22,2.22.27v2.22A39.13,39.13,0,0,1,235.08,43.9Zm-.3-6.05c-3.12,0-4.52.68-4.52,2.08a1.52,1.52,0,0,0,1.64,1.56,3.1,3.1,0,0,0,2.87-3.29Z" style="fill:#231f20"/><path d="M247,44.15c-3,0-3.94-1.09-3.94-4.27V33h-2.35V30.27h2.35V26.08l3.48-.93v5.12h3.31V33h-3.31v6c0,1.75.41,2.25,1.62,2.25a5.54,5.54,0,0,0,1.56-.19l.25,2.76A13,13,0,0,1,247,44.15Z" style="fill:#231f20"/><path d="M251.27,43.88V41.66a15.44,15.44,0,0,1,2.38-.36V32.95c-.66-.11-1.59-.22-2.38-.27V30.48a40.65,40.65,0,0,1,5.89-.25V41.3a13.35,13.35,0,0,1,2.22.36v2.22Zm4.13-15.64a2.14,2.14,0,0,1-2.16-2.11,2.18,2.18,0,1,1,2.16,2.11Z" style="fill:#231f20"/><path d="M266.74,44.15c-3.86,0-6.35-2-6.35-6.79,0-4.3,2.82-7.37,7-7.37,3.86,0,6.35,2.11,6.35,6.79C273.69,41.08,270.84,44.15,266.74,44.15Zm.36-11.2c-1.59,0-3.09,1.21-3.09,4.08,0,2.71,1,4.13,3,4.13,1.73,0,3-1.4,3-4.08S269.09,32.95,267.09,32.95Z" style="fill:#231f20"/><path d="M285.77,43.88V35.17c0-1.4-.38-2.25-1.67-2.25-1.78,0-3.18,2-3.18,4.38v4a11.53,11.53,0,0,1,2,.33v2.25H275V41.66a15.41,15.41,0,0,1,2.38-.36V32.95c-.66-.11-1.59-.22-2.38-.27V30.48a39.16,39.16,0,0,1,5.69-.25,15.82,15.82,0,0,1-.19,2.46h0A5,5,0,0,1,285.19,30c3.07,0,4.05,1.94,4.05,4.33v7a12.49,12.49,0,0,1,2.22.36v2.22Z" style="fill:#231f20"/><polygon points="12.33 13.96 21.68 13.96 12.33 28.21 21.68 43.76 12.33 43.76 12.33 13.96" style="fill:#231f20"/><polygon points="29.58 13.96 46.37 13.96 46.37 20.07 29.58 20.07 29.58 25.32 46.37 25.32 46.37 31.41 29.58 31.41 29.58 43.76 19.58 28.21 29.58 13.96" style="fill:#231f20"/><rect width="300" height="60" style="fill:none"/></svg>
