<svg xmlns="http://www.w3.org/2000/svg" viewBox="0 0 478.53 156"><defs><style>.cls-1{fill:#fff;}</style></defs><title>100days</title><g id="Layer_2" data-name="Layer 2"><g id="Layer_1-2" data-name="Layer 1"><path class="cls-1" d="M.48,156.48q0-78,0-156H479q0,78,0,156Zm166.41-92c10.83,0,21.39.57,31.85-.16,10.73-.74,19.65-5.62,23.71-16.23,4.21-11,4.13-22-3.56-31.71C212.94,8.9,204.56,6,195.27,5.71c-8.92-.25-17.86-.07-26.78-.07a15.31,15.31,0,0,0-1.57.17v11h5V53.48l-5,.23ZM18.78,91.72c-.19.73-.28,1.18-.42,1.62q-4.63,15.09-9.27,30.17c-1.24,4-1.24,4-5.52,4.22a6.6,6.6,0,0,0-1.11.25v10.39H28.33V127.67H22.08a42.16,42.16,0,0,1,1.43-4.46,2.11,2.11,0,0,1,1.56-1q7.18-.12,14.35,0a2.09,2.09,0,0,1,1.49,1.11,44,44,0,0,1,1.38,4.42c-2.23,0-4.13-.11-6,.06-.62.06-1.66.81-1.69,1.28-.15,3.07-.08,6.16-.08,9.3H67.61c0-2.67-.14-5.14,0-7.59s-.44-3.57-3-3c-2.35.49-3.11-.78-3.73-2.8C56.68,111,52.28,97.06,48,83.12c-.49-1.6-1.13-2.3-2.94-2.28-9.09.1-18.18,0-27.27.06-.69,0-1.38.11-2.08.17V91.38ZM96,35.53c-.61-4.24-.93-8.55-1.87-12.72C91.82,12.47,85.25,6.25,75.57,4.75,65.73,3.23,56.94,7,52.25,15.62c-7,13-6.91,26.39-.2,39.39,4.12,8,11.57,11.06,20.36,10.88,8.48-.18,15-3.82,19.14-11.36C94.76,48.65,95.64,42.19,96,35.53Zm50.41-.07a43,43,0,0,0-2.68-16.64c-3.19-8.09-9-13-17.71-14.12s-16.23,1.23-21.26,8.49C95.91,26,96.07,39.91,102.17,53.66c4.06,9.14,12.14,12.69,21.93,12.19,9.46-.48,16-5.3,19.57-14A40.52,40.52,0,0,0,146.45,35.46Zm247.34,92c0-2.57.05-5,0-7.5-.11-4.14,0-8.3-.5-12.4-.83-7.1-4.75-10.74-11.84-11.58-5.22-.62-9.46,1.57-13.38,4.67-.45.35-.91.68-1.75,1.31V76.8h-19.7V87.33l3,.31v39.92l-3,.34v10.52h25.5V127.83l-5.6-.26c0-4.65,0-9,0-13.4a7.35,7.35,0,0,1,.53-2.32,4.58,4.58,0,0,1,4.93-3.33c2.32.17,3.82,1.57,4.19,4.15a35.36,35.36,0,0,1,.29,4.77c0,6.14,0,12.28,0,18.41,0,.84.09,1.68.14,2.51h20.89a5.57,5.57,0,0,0,.19-.89q0-2.75,0-5.5C397.73,128,397.72,128,393.79,127.41Zm-266.89-19v36l-3.15.26v10.54H148.1V144.48H144v-7.79l2.08,1a18.63,18.63,0,0,0,26-11.07,27.16,27.16,0,0,0,.1-16.49c-2.58-8.61-9.42-13.79-18.4-13.35-3.36.16-6.66,1.61-10.18,2.52-1.28-2-1.28-2-4.43-2H123.71v10.79Zm-35.8-8.34c-.47-3.05-2.59-2.84-4.72-2.77-2.39.08-4.78,0-7.17,0H71.1v10.76l3.23.39v35.95l-3.22.27v10.54H95.42V144.67l-4.09-.21v-7.9c.73.41,1.2.7,1.69.94,7.94,3.92,20.84,2.63,25.84-9.31a26.41,26.41,0,0,0,1.62-13.61C118.64,99.26,104.72,92.19,91.09,100.1ZM464.58,53.6c0-1.26,0-2.36,0-3.45-.13-5.57,0-11.18-.51-16.71s-3.1-9.83-8.65-11.53c-6.51-2-12.48-1.16-17.17,4.36A14.36,14.36,0,0,1,437,27.38a21.61,21.61,0,0,0-1.35-3.47,2.84,2.84,0,0,0-1.86-1.37c-5-.11-10-.09-15.07,0-.53,0-1.5.61-1.51,1-.12,3.3-.07,6.6-.07,9.86l3.33.27V53.54L417.3,54V64.76h25.95c0-3.31.07-6.49-.08-9.65,0-.47-1-1.19-1.68-1.29a30.17,30.17,0,0,0-4.24-.06c0-5-.07-9.52,0-14.05a8.69,8.69,0,0,1,1-3.4c1-2.07,2.84-2.68,5-2.39a4,4,0,0,1,3.56,3.64,23.05,23.05,0,0,1,.27,3.81c0,6.94,0,13.87,0,20.81,0,.84.08,1.69.13,2.59h21.14V53.91ZM305.46,22.54V33l3.58.38-5.38,12.91-5.37-12.93,3.8-.38c0-3.16.08-6.17-.08-9.18,0-.49-1.06-1.31-1.64-1.32q-11.35-.13-22.71,0a2.17,2.17,0,0,0-1.59,1.39c-.15,3-.07,6-.07,9.46,3.72-1.1,4.39,1.72,5.55,3.93l12.83,24.31a8.34,8.34,0,0,1-1.23,9.57,3.83,3.83,0,0,1-4.93,1.12c-1.27-.63-2.45-1.44-3.87-2.29l-6.6,10.39c3,1.25,5.53,2.9,8.23,3.31,10.79,1.63,17.17-2.93,20.83-11.87,4.71-11.5,9.47-23,14.18-34.48,1-2.56,1.57-5.65,5.64-4.3V22.54ZM252.93,39a5.67,5.67,0,0,1-.87-.3c-6.67-3.54-13.06-2.42-18.93,1.64-5,3.44-6.7,8.6-5.77,14.52.89,5.67,4.61,9,9.83,10.62,6.71,2.09,12.94,1.41,18.41-4.39.51,4.56,3.66,3.88,6.53,3.83,1.91,0,3.83,0,5.74,0h7.54V54.15l-4.95-.31c0-1.17,0-2.12,0-3.06,0-4.86.06-9.73-.1-14.59a14.38,14.38,0,0,0-6.73-12C254.36,18,237.86,19,229,26.27l3.48,9.54c1.18-.57,2-1,2.88-1.4a21.74,21.74,0,0,1,13-2.22C252.41,32.86,253.66,34.73,252.93,39Zm199.53,74.54c-6-3.57-11.85-2.93-17.53,0-5.42,2.8-8.15,8.36-7.51,14.59.55,5.33,4.21,9.45,10.11,11.14a23.91,23.91,0,0,0,5.41.86c4.62.22,8.54-1.48,12-5.15.67,3.56,2.94,3.84,5.63,3.64,2.38-.17,4.78,0,7.17,0h6.33V128.08l-4.41-.28a3,3,0,0,1-.24-.67q0-7.42-.07-14.83c0-7.69-3.57-12.83-10.83-15.45-9.92-3.57-19.31-2-28.22,3.25-.47.28-1,1.18-.89,1.59.91,2.86,2,5.66,3.07,8.59l2.88-1.33a21.51,21.51,0,0,1,12.31-2.14C451.78,107.41,452.94,109,452.46,113.52Zm-158.15,14.3c0-1,0-1.84,0-2.69,0-4.62.05-9.25,0-13.87a14.21,14.21,0,0,0-8.08-13.14,28.93,28.93,0,0,0-18.36-2.78A35.49,35.49,0,0,0,254,100.9l3.49,9.39,2.91-1.37a21.22,21.22,0,0,1,12.55-2.07c3.94.65,5.2,2.58,4.29,6.59-5.78-3.51-11.6-2.9-17.3,0a14.26,14.26,0,0,0-7.6,14.32c.56,5.57,4.11,9.68,10.09,11.42,6.41,1.87,12.31,1.13,17.06-3.83,1,1.11,1.89,2.95,2.85,3,5.55.28,11.12.14,16.74.14V128.05Zm-91.39,7.12c.72,4.34,3.85,3.65,6.68,3.62,1.83,0,3.67,0,5.5,0h7.25c0-2.21,0-4,0-5.86,0-4.49,0-4.49-4.31-4.84-.14,0-.26-.16-.63-.39,0-5,0-10.19,0-15.36,0-5.69-2.09-10.23-6.94-13.36-8.92-5.77-25-4.69-33.32,2.35l3.4,9.21,2.81-1.34a21.43,21.43,0,0,1,12.31-2.17c4.22.61,5.37,2.23,4.69,6.68-6-3.62-12-3-17.7.24-5.55,3.13-7.88,8.18-7.14,14.51.7,6,4.49,9.36,9.95,11C191.87,141.11,197.8,140.44,202.92,134.95ZM327.4,49.57V64.9h5.82c4.22,0,4.21,0,5.29-4,0-.13.2-.22.39-.43.29.24.59.47.86.73a18.22,18.22,0,0,0,22.31,1.7A11.64,11.64,0,0,0,361.72,43,39.79,39.79,0,0,0,355.2,40c-3.2-1.22-6.53-2.11-9.66-3.48a4,4,0,0,1-2-3c0-1.78,1.68-2.44,3.31-2.31,3.6.29,6.66,1.54,8.21,5.17.21.49.75,1.19,1.16,1.21,3.31.1,6.63.06,10,.06V22.47h-5.88c-4.2,0-4.19,0-5,4,0,.19-.25.36-.39.54-6.09-5.49-11.75-6.92-18.38-4.53-4.9,1.76-8.54,4.77-9,10.36s1.95,10,7,12.52c3.33,1.63,7,2.54,10.54,3.75a43.71,43.71,0,0,1,4.73,1.62,2.54,2.54,0,0,1,1.29,2,3.2,3.2,0,0,1-1.55,2.13c-3.15,1.53-9.26-.83-10.82-3.93a2.43,2.43,0,0,0-1.59-1.27C334,49.5,330.86,49.57,327.4,49.57ZM36,53.59v-48c-4.59,0-8.88-.1-13.16.07a5,5,0,0,0-3.21,1.44,35.83,35.83,0,0,1-11.42,8.5c-.69.32-1.34.73-2.1,1.15L10,26.08l8.36-3.77V53.64H10.21v11.1H44V53.59Zm295.52,47.72c-3.14-2.94-6.15-4.52-9.84-4.66-9-.33-16.27,3.94-19.39,11.55-3.61,8.79-1.63,20.07,4.79,25.72,7.19,6.33,15.62,7,24.48,4.57a24.74,24.74,0,0,0,12-7.2c-2.21-2.58-4.27-5-6.34-7.4a10.68,10.68,0,0,0-.93-.85c-.79.68-1.48,1.32-2.22,1.91-4.52,3.61-10.63,3.54-13.87-.16-3.48-4-3-12.32.82-15.83,3-2.76,6.78-1.94,8.24,1.87.45,1.18.48,2.52,1,3.68a2.48,2.48,0,0,0,1.61,1.43c3,.14,6.05.13,9.08,0,.54,0,1.51-.78,1.51-1.22.1-5.7.07-11.41.07-17.38-2.19,0-4.09.12-6,0C333.82,97.1,331.59,97.27,331.52,101.31ZM229.07,87.46v40l-3.22.45v10.38h23.78a3.76,3.76,0,0,0,.19-.69c0-1.83,0-3.67,0-5.5,0-4.2,0-4.2-4.18-4.53-.14,0-.27-.14-.72-.38V76.84H225.92V87.11Zm179.68-34c0-.87,0-1.8,0-2.73q0-13,0-26.06c0-1.13.14-2.25-1.61-2.24-5.5.05-11,0-16.49.06-.53,0-1.49.62-1.5,1-.12,3.3-.07,6.61-.07,9.9l3.28.2V52.94c-1.39.83-3.11,1.33-3.17,2-.28,3.22-.13,6.47-.13,9.79h23.75c0-2.34,0-4.48,0-6.61C412.81,54.13,412.81,54.13,408.75,53.44Zm-7.66,74.45v10.48h23c0-2.42,0-4.64,0-6.86,0-3.52,0-3.52-3.36-3.92-.14,0-.25-.17-.61-.42V97.43h-19V108l3.06.28v19.32Zm-.51-109.24c5.46,0,9.33-3.44,9.36-8.41,0-4.77-4.09-8.68-9.22-8.74s-9.26,3.69-9.26,8.57C391.46,14.7,395.62,18.62,400.58,18.65Zm12,74.94c5.34-.16,8.69-3.47,8.59-8.48-.09-4.76-4.14-8.34-9.29-8.21a8.53,8.53,0,0,0-8.61,8.64C403.45,90.07,407.7,93.74,412.57,93.6Z" transform="translate(-0.48 -0.48)"/><path d="M166.89,64.52V53.7l5-.23V16.79h-5v-11a15.31,15.31,0,0,1,1.57-.17c8.93,0,17.86-.17,26.78.07,9.29.26,17.67,3.19,23.61,10.71,7.69,9.72,7.77,20.71,3.56,31.71-4.06,10.62-13,15.49-23.71,16.23C188.28,65.08,177.72,64.52,166.89,64.52Zm22.76-11c5.56.53,10.23-.71,12.74-5.65a27,27,0,0,0,.42-24.88c-2.44-5.07-7.48-7.09-13.16-5.85Z" transform="translate(-0.48 -0.48)"/><path d="M18.78,91.72l-3.08-.34V81.07c.7-.06,1.39-.17,2.08-.17,9.09,0,18.18,0,27.27-.06,1.82,0,2.45.68,2.94,2.28,4.29,13.94,8.68,27.85,13,41.8.62,2,1.38,3.29,3.73,2.8,2.54-.53,3.15.72,3,3s0,4.92,0,7.59H34.53c0-3.14-.07-6.23.08-9.3,0-.47,1.07-1.22,1.69-1.28,1.87-.17,3.76-.06,6-.06a44,44,0,0,0-1.38-4.42,2.09,2.09,0,0,0-1.49-1.11q-7.17-.13-14.35,0a2.11,2.11,0,0,0-1.56,1,42.16,42.16,0,0,0-1.43,4.46h6.25v10.71H2.45V128a6.6,6.6,0,0,1,1.11-.25c4.28-.21,4.28-.2,5.52-4.22q4.64-15.08,9.27-30.17C18.49,92.9,18.59,92.44,18.78,91.72Zm18.75,20.4L32.4,95.39l-.51,0-5,16.69Z" transform="translate(-0.48 -0.48)"/><path d="M96,35.53c-.4,6.66-1.27,13.12-4.48,19C87.45,62.07,80.9,65.71,72.42,65.89,63.62,66.08,56.17,63,52.05,55c-6.71-13-6.8-26.43.2-39.39C56.94,7,65.73,3.23,75.57,4.75c9.68,1.5,16.25,7.72,18.59,18.06C95.11,27,95.43,31.29,96,35.53Zm-17-.51c-.83-3.75-1.56-8-2.76-12.07-.69-2.37-2.16-4.78-5.07-4.72s-3.93,2.53-4.8,4.76a32.46,32.46,0,0,0,.21,24.7,11.85,11.85,0,0,0,1.85,3c2.19,2.66,4.74,2.59,6.68-.23A11.3,11.3,0,0,0,77,46.66C77.78,43,78.31,39.32,79.05,35Z" transform="translate(-0.48 -0.48)"/><path d="M146.45,35.46a40.53,40.53,0,0,1-2.78,16.38c-3.6,8.72-10.12,13.54-19.57,14-9.79.5-17.87-3-21.93-12.19-6.1-13.75-6.26-27.65,2.62-40.47,5-7.26,12.58-9.64,21.26-8.49s14.53,6,17.71,14.12A43,43,0,0,1,146.45,35.46Zm-16.66.42c-.38-5-.9-9.81-3.24-14.24-1-1.8-2.33-3.79-4.48-3.33a6.94,6.94,0,0,0-4,3.24c-3.5,6.37-3.76,13.3-2.34,20.23a26.82,26.82,0,0,0,3.41,8.56c2.08,3.36,5.05,3.12,7.17-.21a10.22,10.22,0,0,0,1.47-3.25C128.54,43.23,129.13,39.55,129.79,35.88Z" transform="translate(-0.48 -0.48)"/><path d="M393.79,127.41c3.94.63,3.94.63,3.94,4.56q0,2.75,0,5.5a5.57,5.57,0,0,1-.19.89H376.61c0-.84-.13-1.67-.14-2.51,0-6.14,0-12.28,0-18.41a35.36,35.36,0,0,0-.29-4.77c-.37-2.58-1.86-4-4.19-4.15a4.58,4.58,0,0,0-4.93,3.33,7.35,7.35,0,0,0-.53,2.32c-.05,4.37,0,8.75,0,13.4l5.6.26v10.58H346.6V127.89l3-.34V87.63l-3-.31V76.8h19.7v25.12c.84-.63,1.3-1,1.75-1.31,3.92-3.1,8.16-5.29,13.38-4.67,7.09.84,11,4.48,11.84,11.58.48,4.1.39,8.26.5,12.4C393.84,122.38,393.79,124.84,393.79,127.41Z" transform="translate(-0.48 -0.48)"/><path d="M126.89,108.45l-3.18-.3V97.35h15.47c3.15,0,3.15,0,4.43,2,3.51-.91,6.81-2.36,10.18-2.52,9-.44,15.81,4.74,18.4,13.35a27.16,27.16,0,0,1-.1,16.49,18.63,18.63,0,0,1-26,11.07l-2.08-1v7.79h4.11v10.77H123.74V144.72l3.15-.26Zm16.26,10c1,2.8,1.6,5.67,3,8,2,3.24,5.52,2.94,7.57-.25,2.57-4,2.41-11.65-.33-15.54-2.19-3.11-5.65-3.28-7.58,0C144.54,112.94,144.08,115.69,143.16,118.46Z" transform="translate(-0.48 -0.48)"/><path d="M91.09,100.1c13.63-7.91,27.55-.84,29.4,14.48a26.41,26.41,0,0,1-1.62,13.61c-5,11.93-17.9,13.23-25.84,9.31-.49-.24-1-.53-1.69-.94v7.9l4.09.21v10.58H71.1V144.72l3.22-.27V108.5l-3.23-.39V97.35h8.1c2.39,0,4.78.06,7.17,0C88.5,97.26,90.62,97,91.09,100.1Zm12.38,18.49c-.86-2.62-1.35-5.35-2.62-7.64-2-3.56-5.55-3.46-7.85-.1-2.66,3.88-2.43,12,.44,15.68,2.33,3,5.78,3,7.58-.35C102.22,123.94,102.63,121.28,103.47,118.59Z" transform="translate(-0.48 -0.48)"/><path d="M464.58,53.6l3.86.3V64.77H447.3c0-.9-.13-1.74-.13-2.59,0-6.94,0-13.87,0-20.81a23.05,23.05,0,0,0-.27-3.81,4,4,0,0,0-3.56-3.64c-2.17-.29-4,.32-5,2.39a8.69,8.69,0,0,0-1,3.4c-.11,4.53,0,9.07,0,14.05a30.17,30.17,0,0,1,4.24.06c.63.09,1.66.81,1.68,1.29.15,3.16.08,6.34.08,9.65H417.3V54l3.18-.43V33.62l-3.33-.27c0-3.25,0-6.56.07-9.86,0-.35,1-1,1.51-1,5-.07,10-.09,15.07,0a2.84,2.84,0,0,1,1.86,1.37A21.61,21.61,0,0,1,437,27.38a14.36,14.36,0,0,0,1.23-1.11c4.7-5.51,10.66-6.35,17.17-4.36,5.55,1.7,8.13,6.13,8.65,11.53s.38,11.14.51,16.71C464.61,51.25,464.58,52.35,464.58,53.6Z" transform="translate(-0.48 -0.48)"/><path d="M305.46,22.54h21.17V33c-4.07-1.36-4.6,1.74-5.64,4.3-4.71,11.5-9.48,23-14.18,34.48-3.66,8.94-10,13.5-20.83,11.87-2.7-.41-5.21-2.06-8.23-3.31L284.34,70c1.42.85,2.6,1.66,3.87,2.29a3.83,3.83,0,0,0,4.93-1.12,8.34,8.34,0,0,0,1.23-9.57L281.54,37.28c-1.16-2.2-1.84-5-5.55-3.93,0-3.43-.08-6.45.07-9.46a2.17,2.17,0,0,1,1.59-1.39q11.35-.14,22.71,0c.58,0,1.61.83,1.64,1.32.15,3,.08,6,.08,9.18l-3.8.38,5.37,12.93L309,33.4,305.46,33Z" transform="translate(-0.48 -0.48)"/><path d="M252.93,39c.72-4.26-.53-6.12-4.6-6.78a21.74,21.74,0,0,0-13,2.22c-.86.41-1.71.83-2.88,1.4L229,26.27c8.89-7.32,25.38-8.3,34.65-2.12a14.38,14.38,0,0,1,6.73,12c.15,4.86.07,9.73.1,14.59,0,.94,0,1.89,0,3.06l4.95.31V64.9h-7.54c-1.91,0-3.83,0-5.74,0-2.87,0-6,.72-6.53-3.83-5.47,5.8-11.7,6.48-18.41,4.39-5.23-1.63-8.94-5-9.83-10.62-.93-5.92.81-11.08,5.77-14.52,5.87-4.07,12.27-5.18,18.93-1.64A5.67,5.67,0,0,0,252.93,39Zm.27,12.12c0-2.6-1.82-4.1-5-4.09s-4.89,1.6-4.89,4.32c0,2.38,1.74,4,4.36,4.07C250.74,55.46,253.19,53.56,253.21,51.1Z" transform="translate(-0.48 -0.48)"/><path d="M452.46,113.52c.48-4.57-.68-6.11-4.76-6.7A21.51,21.51,0,0,0,435.39,109l-2.88,1.33c-1.07-2.93-2.15-5.74-3.07-8.59-.13-.41.42-1.31.89-1.59,8.91-5.28,18.29-6.83,28.22-3.25,7.26,2.62,10.81,7.76,10.83,15.45q0,7.42.07,14.83a3,3,0,0,0,.24.67l4.41.28v10.48h-6.33c-2.39,0-4.79-.14-7.17,0-2.69.2-5-.08-5.63-3.64-3.46,3.67-7.39,5.37-12,5.15a23.91,23.91,0,0,1-5.41-.86c-5.9-1.69-9.56-5.81-10.11-11.14-.65-6.23,2.08-11.79,7.51-14.59C440.62,110.59,446.45,109.95,452.46,113.52Zm-5,15.82c3,0,5.19-1.81,5.18-4.3s-1.86-3.92-4.89-3.91c-2.79,0-4.72,1.75-4.7,4.26C443.08,127.72,444.9,129.35,447.48,129.34Z" transform="translate(-0.48 -0.48)"/><path d="M294.31,127.83l4.75.23v10.48c-5.63,0-11.2.14-16.74-.14-1,0-1.84-1.88-2.85-3-4.75,5-10.65,5.7-17.06,3.83-6-1.74-9.54-5.85-10.09-11.42a14.26,14.26,0,0,1,7.6-14.32c5.7-2.94,11.52-3.55,17.3,0,.91-4-.35-5.95-4.29-6.59a21.22,21.22,0,0,0-12.55,2.07l-2.91,1.37L254,100.9a35.49,35.49,0,0,1,13.87-5.56,28.93,28.93,0,0,1,18.36,2.78,14.21,14.21,0,0,1,8.08,13.14c.07,4.62,0,9.25,0,13.87C294.31,126,294.31,126.84,294.31,127.83Zm-21.95,1.53c3,0,5.2-1.81,5.2-4.27s-1.86-3.95-4.84-3.95c-2.82,0-4.72,1.69-4.73,4.22C268,127.71,269.76,129.33,272.37,129.35Z" transform="translate(-0.48 -0.48)"/><path d="M202.92,134.95c-5.12,5.49-11,6.17-17.44,4.27-5.46-1.62-9.25-5-9.95-11-.74-6.33,1.59-11.38,7.14-14.51,5.73-3.24,11.74-3.86,17.7-.24.69-4.45-.46-6.07-4.69-6.68A21.43,21.43,0,0,0,183.38,109l-2.81,1.34-3.4-9.21c8.37-7,24.4-8.12,33.32-2.35,4.85,3.13,7,7.67,6.94,13.36,0,5.17,0,10.34,0,15.36.36.23.49.38.63.39,4.31.35,4.31.35,4.31,4.84,0,1.83,0,3.65,0,5.86H215.1c-1.83,0-3.67,0-5.5,0C206.77,138.6,203.64,139.29,202.92,134.95Zm-2.29-9.72c0-2.59-1.66-4.06-4.72-4.09-2.87,0-4.76,1.61-4.81,4.19,0,2.35,1.79,4,4.39,4C198.41,129.35,200.6,127.59,200.63,125.23Z" transform="translate(-0.48 -0.48)"/><path d="M327.4,49.57c3.46,0,6.65-.06,9.82.06a2.43,2.43,0,0,1,1.59,1.27c1.56,3.11,7.67,5.46,10.82,3.93a3.2,3.2,0,0,0,1.55-2.13,2.54,2.54,0,0,0-1.29-2,43.71,43.71,0,0,0-4.73-1.62C341.63,47.9,338,47,334.62,45.36c-5.06-2.47-7.44-6.86-7-12.52s4.07-8.6,9-10.36c6.63-2.38,12.29-1,18.38,4.53.13-.18.35-.34.39-.54.77-4,.77-4,5-4h5.88V37.72c-3.34,0-6.66,0-10-.06-.41,0-.95-.71-1.16-1.21-1.56-3.63-4.62-4.88-8.21-5.17-1.64-.13-3.3.53-3.31,2.31a4,4,0,0,0,2,3c3.13,1.37,6.46,2.26,9.66,3.48A39.79,39.79,0,0,1,361.72,43a11.64,11.64,0,0,1,.36,19.92,18.22,18.22,0,0,1-22.31-1.7c-.27-.26-.57-.48-.86-.73-.2.21-.36.3-.39.43-1.08,4-1.08,4-5.29,4H327.4Z" transform="translate(-0.48 -0.48)"/><path d="M36,53.59h8V64.74H10.21V53.64h8.14V22.31L10,26.08,6.11,16.79c.77-.42,1.41-.83,2.1-1.15a35.83,35.83,0,0,0,11.42-8.5,5,5,0,0,1,3.21-1.44c4.28-.16,8.57-.07,13.16-.07Z" transform="translate(-0.48 -0.48)"/><path d="M331.52,101.31c.06-4,2.3-4.21,4.94-4,1.88.15,3.79,0,6,0,0,6,0,11.68-.07,17.38,0,.43-1,1.2-1.51,1.22-3,.12-6.06.13-9.08,0a2.48,2.48,0,0,1-1.61-1.43c-.48-1.16-.5-2.5-1-3.68C327.75,107,324,106.2,321,109c-3.87,3.52-4.3,11.86-.82,15.83,3.24,3.7,9.35,3.77,13.87.16.74-.59,1.43-1.23,2.22-1.91a10.68,10.68,0,0,1,.93.85c2.08,2.41,4.14,4.82,6.34,7.4a24.74,24.74,0,0,1-12,7.2c-8.86,2.43-17.29,1.75-24.48-4.57-6.42-5.65-8.4-16.92-4.79-25.72,3.12-7.61,10.35-11.88,19.39-11.55C325.37,96.79,328.38,98.37,331.52,101.31Z" transform="translate(-0.48 -0.48)"/><path d="M229.07,87.46l-3.14-.35V76.84H245v50.4c.44.24.58.37.72.38,4.18.33,4.19.33,4.18,4.53,0,1.83,0,3.67,0,5.5a3.76,3.76,0,0,1-.19.69H225.85V127.95l3.22-.45Z" transform="translate(-0.48 -0.48)"/><path d="M408.75,53.44c4.06.68,4.06.68,4.06,4.65,0,2.14,0,4.28,0,6.61H389.06c0-3.32-.15-6.57.13-9.79.06-.65,1.78-1.15,3.17-2V33.57l-3.28-.2c0-3.3,0-6.6.07-9.9,0-.36,1-1,1.5-1,5.5-.07,11,0,16.49-.06,1.75,0,1.61,1.1,1.61,2.24q0,13,0,26.06C408.75,51.65,408.75,52.58,408.75,53.44Z" transform="translate(-0.48 -0.48)"/><path d="M401.09,127.89l3.1-.33V108.23l-3.06-.28V97.43h19v29.73c.35.25.47.41.61.42,3.36.4,3.36.4,3.36,3.92,0,2.22,0,4.44,0,6.86h-23Z" transform="translate(-0.48 -0.48)"/><path d="M400.58,18.65c-5,0-9.13-4-9.12-8.57,0-4.88,4.06-8.64,9.26-8.57s9.25,4,9.22,8.74C409.91,15.22,406,18.69,400.58,18.65Z" transform="translate(-0.48 -0.48)"/><path d="M412.57,93.6c-4.87.15-9.12-3.53-9.31-8a8.53,8.53,0,0,1,8.61-8.64c5.15-.13,9.19,3.45,9.29,8.21C421.26,90.12,417.9,93.44,412.57,93.6Z" transform="translate(-0.48 -0.48)"/><path class="cls-1" d="M189.65,53.47V17.09c5.68-1.24,10.72.77,13.16,5.85a27,27,0,0,1-.42,24.88C199.88,52.76,195.22,54,189.65,53.47Z" transform="translate(-0.48 -0.48)"/><path class="cls-1" d="M37.52,112.11H26.88l5-16.69.51,0Z" transform="translate(-0.48 -0.48)"/><path class="cls-1" d="M79.05,35c-.74,4.29-1.27,8-2.05,11.63a11.3,11.3,0,0,1-1.83,3.86c-1.94,2.82-4.49,2.89-6.68.23a11.85,11.85,0,0,1-1.85-3A32.46,32.46,0,0,1,66.42,23c.87-2.23,2-4.7,4.8-4.76s4.38,2.36,5.07,4.72C77.49,27,78.22,31.27,79.05,35Z" transform="translate(-0.48 -0.48)"/><path class="cls-1" d="M129.79,35.88c-.66,3.67-1.25,7.35-2,11a10.22,10.22,0,0,1-1.47,3.25c-2.12,3.33-5.09,3.58-7.17.21a26.82,26.82,0,0,1-3.41-8.56c-1.42-6.93-1.16-13.87,2.34-20.23a6.94,6.94,0,0,1,4-3.24c2.15-.45,3.53,1.53,4.48,3.33C128.89,26.07,129.41,30.89,129.79,35.88Z" transform="translate(-0.48 -0.48)"/><path class="cls-1" d="M143.16,118.46c.92-2.77,1.38-5.52,2.69-7.76,1.93-3.29,5.4-3.12,7.58,0,2.73,3.89,2.9,11.55.33,15.54-2.05,3.19-5.6,3.49-7.57.25C144.75,124.13,144.17,121.26,143.16,118.46Z" transform="translate(-0.48 -0.48)"/><path class="cls-1" d="M103.47,118.59c-.83,2.69-1.25,5.35-2.45,7.59-1.79,3.35-5.25,3.35-7.58.35-2.88-3.7-3.11-11.8-.44-15.68,2.3-3.36,5.88-3.46,7.85.1C102.12,113.23,102.6,116,103.47,118.59Z" transform="translate(-0.48 -0.48)"/><path class="cls-1" d="M253.21,51.1c0,2.46-2.46,4.36-5.53,4.3-2.61-.06-4.36-1.69-4.36-4.07,0-2.72,1.81-4.32,4.89-4.32S253.22,48.5,253.21,51.1Z" transform="translate(-0.48 -0.48)"/><path class="cls-1" d="M447.48,129.34c-2.58,0-4.4-1.61-4.42-3.95,0-2.5,1.91-4.24,4.7-4.26,3,0,4.88,1.47,4.89,3.91S450.51,129.32,447.48,129.34Z" transform="translate(-0.48 -0.48)"/><path class="cls-1" d="M272.37,129.35c-2.61,0-4.39-1.65-4.38-4,0-2.53,1.91-4.22,4.73-4.22,3,0,4.84,1.51,4.84,3.95S275.34,129.37,272.37,129.35Z" transform="translate(-0.48 -0.48)"/><path class="cls-1" d="M200.63,125.23c0,2.35-2.22,4.12-5.14,4.12-2.6,0-4.44-1.68-4.39-4,.05-2.58,1.94-4.22,4.81-4.19C199,121.17,200.66,122.64,200.63,125.23Z" transform="translate(-0.48 -0.48)"/></g></g></svg>