<svg xmlns="http://www.w3.org/2000/svg" viewBox="0 0 196.75 29.53"><title>logo-wapo</title><g style="isolation:isolate"><path d="M11.07,9V19.37a5.57,5.57,0,0,0,2.46-3.42l.34.17C13.55,19.84,11,23.46,7,23.46s-7-3-7-7.71C0,12.14,2.17,9.91,5.28,8A4.54,4.54,0,0,0,4,7.79,3,3,0,0,0,.82,10.59H.42A4.14,4.14,0,0,1,.4,10c0-2.63,1.55-5.56,4.77-5.56,2.06,0,3.64,1.89,6,1.89a2.29,2.29,0,0,0,2.37-1.5h.34C13.89,6.66,13.35,8.44,11.07,9ZM5.7,8.1c-1.44,1.5-2.85,3.08-2.85,6.27A6,6,0,0,0,4.71,19l.88-.48V11.38l-.9.48-.28-.45L8.64,9C7.57,8.81,6.69,8.38,5.7,8.1Zm4.83,1a4.83,4.83,0,0,1-.65,0,4.92,4.92,0,0,1-1.13-.11v8.33l-3.61,2a4.4,4.4,0,0,0,2.79.85,6.36,6.36,0,0,0,2.6-.56V9.15ZM23,11.74v9.68c0,2.71-2.4,4.54-5.08,5.08l-.17-.28A3.61,3.61,0,0,0,19.9,23V12.9l-1.38-1.27-.73.73V20l.85.79v.11l-2.29,2.43-2.63-2.4v-.11l1-1.07V7.28l3-3.19.06,0v7.51L20.24,9l2.46,2.23.76-.73.37.37Zm4.69,5.76v1.27l2.54,2,2-2.06.37.37-4,4.29L24.9,20.49l-.79.79-.34-.37.87-.9V12.93L30,9l3,4.6Zm.06-6.38-.06,0v5.67L30.09,15Z" style="fill:#4b4b4b"/><path d="M50.81,23.35,46.89,20l-3,3.39-4.07-3.5V14.31H39a1.1,1.1,0,0,0-1.16,1H37.6a4.49,4.49,0,0,1-.14-1.07,2.42,2.42,0,0,1,2.37-2.65V7.28c0-1.67-1.1-1.75-1.1-3.19C38.73,2.48,40.25,1,43,0l.25.23a2.4,2.4,0,0,0-1.69,2.23c0,1.86,1.81,1.38,1.81,4.32V7.9l3.3-3.47,3.47,3.42,3.27-3.42,3.16,3.11V18ZM46.69,9.26l-2-1.95-1.3,1.33v9.68l2.4,2.06.87-1Zm6.38-.37L51.49,7.31,50.27,8.53v9.77L53,20.72l0,0V8.89Z" style="fill:#4b4b4b"/><path d="M65.71,23.35l-2.65-2.43H63l-2.34,2.43-2.85-2.51-.65.65-.37-.37.82-.85V12.84L63,9l2.94,2.31.79-.79.42.37-1,1v7.65l1.3,1.19.82-.85.42.4ZM63.06,12.79,60.72,11l-.06.06v8.24l1.72,1.52.68-.65V12.79Zm11.46,1.36h2.65v6l-4.49,3.16a3.25,3.25,0,0,0-2.48-1.16A2.92,2.92,0,0,0,68,23.32l-.4-.14,3.9-5.59H69.1V12.34L73.79,9a2.58,2.58,0,0,0,1.75.73,3.21,3.21,0,0,0,2-.62l.28.2Zm-.4,2.48H72.8l-3.13,4.49,0,.06a3.49,3.49,0,0,1,2.15-.71,2.94,2.94,0,0,1,2.26,1.07l0,0V16.63Zm1.81-5.53a2.75,2.75,0,0,1-1.95.65,2.52,2.52,0,0,1-1.78-.82l-.06,0v4.12h1.07l2.74-4Zm11.29.65v9.68c0,2.71-2.4,4.54-5.08,5.08L82,26.23A3.61,3.61,0,0,0,84.18,23V12.9l-1.38-1.27-.73.73V20l.85.79v.11l-2.29,2.43L78,20.95v-.11l1-1.07V7.28l3-3.19.06,0v7.51L84.52,9,87,11.26l.76-.73.37.37Zm5.53,11.6L90.42,21.2l-.79.79-.37-.37.93-1v-8l-1-.93-.76.73L88,12.05,90.9,9,93,11l.76-.79.4.4-1,1v8.07l1.19,1.1.85-.87.37.4ZM91.94,8.78,89.63,6.66,91.74,4.4l2.31,2.12Z" style="fill:#4b4b4b"/><path d="M105,23.35l-2.46-2.23V12.87l-1.33-1.24-1,1V20l.87.82v.11l-2.32,2.43-2.63-2.4v-.08l1-1.07V12.68l-1.16-1-.85.85-.4-.37L97.64,9l2.57,2.29v.56L102.89,9l2.46,2.2.82-.82.37.4-1,1v7.9l1.1,1,.93-1,.34.37Zm12.14-11.57v9.57c0,1.47.82,1.41.82,2.51,0,1.27-1.84,2.46-4.66,4.57-.93-1-1.58-1.44-2.46-1.44a5.6,5.6,0,0,0-3,1l-.28-.23,3.87-4.55-2.54-2L108,22l-.37-.37,1-1V12.84L114,9l2.88,2.26.85-.82.37.37Zm-2.17,11.77c-.71-.45-.87-.93-.87-2.15V21l-4.55,5.28,0,0a4.94,4.94,0,0,1,2.91-.87,3.9,3.9,0,0,1,2.68,1.13,2.06,2.06,0,0,0,.93-1.61C116,24.36,115.62,24,114.92,23.54ZM114,12.79,111.7,11l-.06.06v8.67l1.67,1.3.73-.85V12.79Zm8.89,10.56-2.48-1.95-.76.76-.37-.37.87-.9V11.12h-1.64l-.06-.06,1-1.47h.71V7.71l3-3.19.06.06v5h2.26l.06.06-1,1.47h-1.33v8.55l1.36,1,.93-1,.37.4ZM135.27,12v7.82l-4.77,3.53L127,20.75l-.79.79-.37-.37.9-.93V12.62l5-3.59L135,11.55l.82-.82.37.4Zm-3,.85L129.85,11l0,0v8.41l2.4,1.81Zm14.23,10.45L144,21.09V12.84l-1.33-1.24-1,1V20l.87.82v.11l-2.31,2.43-2.63-2.4v-.08l1-1.07V12.65l-1.16-1-.85.85-.4-.37L139.14,9l2.57,2.29v.56L144.39,9l2.46,2.2.82-.82.37.4-1,1v7.9l1.1,1,.93-1,.34.37Z" style="fill:#4b4b4b"/><path d="M163.78,23.35A3.66,3.66,0,0,0,162,22v5.87l-.06,0-1.55-1.44-3.28,3-.06,0V21.91a5.31,5.31,0,0,0-2.88,1.86l-.23-.14a4.75,4.75,0,0,1,3.11-4.4v-5.5h-.59A1.48,1.48,0,0,0,155,14.9h-.34a3.47,3.47,0,0,1-.2-1.3,2.32,2.32,0,0,1,2.46-2.43h.17v-3l-1-.9-.79.79-.4-.37L158,4.43l2.65,2.43V9.63l.82-.87V5.5H162V8.19l3.53-3.75,3.19,2.91V19.62ZM161.46,9.29l-.82.85V26l.82.76Zm3.7-.65-1.67-1.52L162,8.69V18.94a4.85,4.85,0,0,1,3.13,1.5l0,0V8.64ZM178.91,12v7.82l-4.77,3.53-3.47-2.63-.79.79-.37-.37.9-.93V12.62l5-3.59,3.22,2.51.82-.82.37.4Zm-3,.85L173.49,11l0,0v8.41l2.4,1.81Zm10,1.27h2.65v6l-4.49,3.16a3.25,3.25,0,0,0-2.48-1.16,2.92,2.92,0,0,0-2.2,1.13l-.4-.14,3.9-5.59h-2.4V12.34L185.18,9a2.58,2.58,0,0,0,1.75.73,3.21,3.21,0,0,0,2-.62l.28.2Zm-.4,2.48h-1.33l-3.13,4.49,0,.06a3.49,3.49,0,0,1,2.15-.71,2.94,2.94,0,0,1,2.26,1.07l0,0V16.63Zm1.81-5.53a2.75,2.75,0,0,1-1.95.65,2.52,2.52,0,0,1-1.78-.82l-.06,0v4.12h1.07l2.74-4Zm6.46,12.25L191.3,21.4l-.76.76-.37-.37.87-.9V11.12h-1.64l-.06-.06,1-1.47H191V7.71l3-3.19.06.06v5h2.26l.06.06-1,1.47H194.1v8.55l1.36,1,.93-1,.37.4Z" style="fill:#4b4b4b"/></g></svg>