<svg viewBox="0 0 196.75 29.53"><g style="isolation:isolate"><path d="M23.63,18.68V29a5.57,5.57,0,0,0,2.46-3.42l.34.17c-.31,3.73-2.91,7.34-6.86,7.34s-7-3-7-7.71c0-3.61,2.17-5.84,5.28-7.79a4.54,4.54,0,0,0-1.24-.17,3,3,0,0,0-3.22,2.79H13a4.14,4.14,0,0,1,0-.59c0-2.63,1.55-5.56,4.77-5.56,2.06,0,3.64,1.89,6,1.89a2.29,2.29,0,0,0,2.37-1.5h.34C26.46,16.3,25.92,18.08,23.63,18.68Zm-5.36-.93c-1.44,1.5-2.85,3.08-2.85,6.27a6,6,0,0,0,1.86,4.63l.88-.48V21l-.9.48L17,21l4.23-2.37C20.13,18.45,19.26,18,18.27,17.74Zm4.83,1a4.83,4.83,0,0,1-.65,0,4.92,4.92,0,0,1-1.13-.11V27L17.7,29a4.4,4.4,0,0,0,2.79.85,6.36,6.36,0,0,0,2.6-.56V18.79Zm12.42,2.6v9.68c0,2.71-2.4,4.54-5.08,5.08l-.17-.28a3.61,3.61,0,0,0,2.2-3.22V22.54l-1.38-1.27-.73.73v7.65l.85.79v.11L28.91,33l-2.63-2.4v-.11l1-1.07V16.92l3-3.19.06,0v7.51l2.46-2.6,2.46,2.23.76-.73.37.37Zm4.69,5.76v1.27l2.54,2,2-2.06.37.37-4,4.29-3.61-2.88-.79.79-.34-.37.87-.9V22.57l5.34-3.9,3,4.6Zm.06-6.38-.06,0v5.67l2.46-1.81Z" transform="translate(-12.57 -9.64)" style="fill:#4b4b4b"/><path d="M63.38,33,59.45,29.6l-3,3.39-4.07-3.5V24h-.79a1.1,1.1,0,0,0-1.16,1h-.28A4.49,4.49,0,0,1,50,23.87a2.42,2.42,0,0,1,2.37-2.65V16.92c0-1.67-1.1-1.75-1.1-3.19,0-1.61,1.52-3.11,4.32-4.09l.25.23a2.4,2.4,0,0,0-1.69,2.23C54.17,14,56,13.48,56,16.42v1.13l3.3-3.47,3.47,3.42L66,14.07l3.16,3.11V27.62ZM59.26,18.9l-2-1.95L56,18.28V28L58.38,30l.87-1Zm6.38-.37L64.06,17l-1.21,1.21v9.77l2.77,2.43,0,0V18.53Z" transform="translate(-12.57 -9.64)" style="fill:#4b4b4b"/><path d="M78.28,33l-2.65-2.43h-.06L73.23,33l-2.85-2.51-.65.65-.37-.37.82-.85V22.49l5.36-3.84L78.48,21l.79-.79.42.37-1,1v7.65L80,30.33l.82-.85.42.4ZM75.63,22.43,73.28,20.6l-.06.06V28.9l1.72,1.52.68-.65V22.43Zm11.46,1.36h2.65v6L85.25,33a3.25,3.25,0,0,0-2.48-1.16A2.92,2.92,0,0,0,80.57,33l-.4-.14,3.9-5.59h-2.4V22l4.69-3.3a2.58,2.58,0,0,0,1.75.73,3.21,3.21,0,0,0,2-.62l.28.2Zm-.4,2.48H85.37l-3.13,4.49,0,.06a3.49,3.49,0,0,1,2.15-.71,2.94,2.94,0,0,1,2.26,1.07l0,0V26.27Zm1.81-5.53a2.75,2.75,0,0,1-1.95.65,2.52,2.52,0,0,1-1.78-.82l-.06,0v4.12h1.07l2.74-4Zm11.29.65v9.68c0,2.71-2.4,4.54-5.08,5.08l-.17-.28a3.61,3.61,0,0,0,2.2-3.22V22.54l-1.38-1.27-.73.73v7.65l.85.79v.11L93.19,33l-2.63-2.4v-.11l1-1.07V16.92l3-3.19.06,0v7.51l2.46-2.6,2.46,2.23.76-.73.37.37ZM105.33,33,103,30.84l-.79.79-.37-.37.93-1v-8l-1-.93-.76.73-.37-.37,2.85-3,2.15,1.95.76-.79.4.4-1,1v8.07l1.19,1.1.85-.87.37.4Zm-.82-14.57-2.32-2.12L104.31,14l2.31,2.12Z" transform="translate(-12.57 -9.64)" style="fill:#4b4b4b"/><path d="M117.52,33l-2.46-2.23V22.52l-1.33-1.24-1,1v7.37l.87.82v.11L111.33,33l-2.63-2.4V30.5l1-1.07V22.32l-1.16-1-.85.85-.4-.37,2.88-3.08L112.77,21v.56l2.68-2.85,2.46,2.2.82-.82.37.4-1,1v7.9l1.1,1,.93-1,.34.37Zm12.14-11.57V31c0,1.47.82,1.41.82,2.51,0,1.27-1.84,2.46-4.66,4.57-.93-1-1.58-1.44-2.46-1.44a5.6,5.6,0,0,0-3,1l-.28-.23,3.87-4.55-2.54-2-.82.82-.37-.37,1-1V22.49l5.36-3.84,2.88,2.26.85-.82.37.37Zm-2.17,11.77c-.71-.45-.87-.93-.87-2.15v-.42l-4.55,5.28,0,0A4.94,4.94,0,0,1,125,35a3.9,3.9,0,0,1,2.68,1.13,2.06,2.06,0,0,0,.93-1.61C128.61,34,128.19,33.64,127.48,33.19Zm-.87-10.76-2.34-1.83-.06.06v8.67l1.67,1.3.73-.85V22.43ZM135.5,33,133,31l-.76.76-.37-.37.87-.9V20.76h-1.64l-.06-.06,1-1.47h.71V17.35l3-3.19.06.06v5h2.26l.06.06-1,1.47h-1.33v8.55l1.36,1,.93-1,.37.4Zm12.34-11.32v7.82L143.07,33l-3.47-2.63-.79.79-.37-.37.9-.93V22.26l5-3.59,3.22,2.51.82-.82.37.4Zm-3,.85-2.37-1.86,0,0v8.41l2.4,1.81ZM159,33l-2.46-2.23V22.49l-1.33-1.24-1,1V29.6l.87.82v.11L152.83,33l-2.63-2.4v-.08l1-1.07V22.29l-1.16-1-.85.85-.4-.37,2.88-3.08,2.57,2.29v.56L157,18.65l2.46,2.2.82-.82.37.4-1,1v7.9l1.1,1,.93-1,.34.37Z" transform="translate(-12.57 -9.64)" style="fill:#4b4b4b"/><path d="M176.34,33a3.66,3.66,0,0,0-1.78-1.3v5.87l-.06,0L173,36.15l-3.28,3-.06,0V31.55a5.31,5.31,0,0,0-2.88,1.86l-.23-.14a4.75,4.75,0,0,1,3.11-4.4v-5.5H169a1.48,1.48,0,0,0-1.5,1.19h-.34a3.47,3.47,0,0,1-.2-1.3,2.32,2.32,0,0,1,2.46-2.43h.17v-3l-1-.9-.79.79-.4-.37,3.13-3.22,2.65,2.43v2.77l.82-.87V15.15h.54v2.68l3.53-3.75L181.28,17V29.26ZM174,18.93l-.82.85V35.67l.82.76Zm3.7-.65-1.67-1.52-1.5,1.58V28.58a4.85,4.85,0,0,1,3.13,1.5l0,0V18.28Zm13.75,3.39v7.82L186.7,33l-3.47-2.63-.79.79-.37-.37.9-.93V22.26l5-3.59,3.22,2.51.82-.82.37.4Zm-3,.85-2.37-1.86,0,0v8.41l2.4,1.81Zm10,1.27h2.65v6L196.64,33a3.25,3.25,0,0,0-2.48-1.16A2.92,2.92,0,0,0,192,33l-.4-.14,3.9-5.59h-2.4V22l4.69-3.3a2.58,2.58,0,0,0,1.75.73,3.21,3.21,0,0,0,2-.62l.28.2Zm-.4,2.48h-1.33l-3.13,4.49,0,.06a3.49,3.49,0,0,1,2.15-.71,2.94,2.94,0,0,1,2.26,1.07l0,0V26.27Zm1.81-5.53a2.75,2.75,0,0,1-1.95.65,2.52,2.52,0,0,1-1.78-.82l-.06,0v4.12h1.07l2.74-4ZM206.35,33,203.87,31l-.76.76-.37-.37.87-.9V20.76H202l-.06-.06,1-1.47h.71V17.35l3-3.19.06.06v5h2.26l.06.06-1,1.47h-1.33v8.55l1.36,1,.93-1,.37.4Z" transform="translate(-12.57 -9.64)" style="fill:#4b4b4b"/></g></svg>
