<svg xmlns="http://www.w3.org/2000/svg" viewBox="0 0 559.66 175.56"><defs><style>.cls-1{fill:#fff;}</style></defs><title>kqed</title><g id="Layer_2" data-name="Layer 2"><g id="Layer_1-2" data-name="Layer 1"><path class="cls-1" d="M.21,175.79V.23H559.88V175.79ZM242,134c25.85-23.88,28.72-66.55,5.06-94C224.29,13.5,187.24,8.1,158.17,26.82c-28.61,18.44-39,55.06-24.4,86.55A66,66,0,0,0,168,146.92c20.48,9,40.62,7.15,60.3-2.78l21.3,25.56,12.73-10.24ZM416.3,18.43V150.9c.5,0,.91.06,1.32.06H469a76,76,0,0,0,17.58-2c16.49-3.91,30.09-12.34,39.86-26.3,11.91-17,15-35.84,9.78-55.87-4.65-17.87-15.07-31.45-31.52-40.17-10.68-5.65-22.2-8-34.16-8.14-17.74-.17-35.49-.07-53.24-.08C417,18.37,416.7,18.41,416.3,18.43ZM293,150.87h95.08V134.79H310.92V90.57h65.23V74.41H310.91V33.6h74.68v-16H293ZM70.23,72.76l53.53-55.25H122c-6,0-12,0-18,0a3.19,3.19,0,0,0-2.54,1.09Q70.76,50.14,40,81.66c-.33.34-.7.66-1.28,1.2V17.63H21V150.88H38.78v-1.72q0-21.38,0-42.76a3.06,3.06,0,0,1,.93-2.33q8.49-8.8,16.92-17.66a7.19,7.19,0,0,0,.68-1.09c.6.8,1,1.27,1.31,1.75q22.8,31.35,45.59,62.71a2.2,2.2,0,0,0,2,1.21c6.29-.06,12.58,0,18.87,0a11.45,11.45,0,0,0,1.17-.13Z" transform="translate(-0.21 -0.23)"/><path d="M242,134l20.34,25.42L249.64,169.7l-21.3-25.56c-19.68,9.93-39.82,11.77-60.3,2.78a66,66,0,0,1-34.27-33.55c-14.63-31.49-4.21-68.11,24.4-86.55C187.24,8.1,224.29,13.5,247.1,40,270.75,67.5,267.88,110.17,242,134Zm-46.85.83c27.88.08,50.91-22.92,51-50.95a51,51,0,1,0-51,50.95Z" transform="translate(-0.21 -0.23)"/><path d="M416.3,18.43c.4,0,.72-.06,1-.06,17.75,0,35.49-.09,53.24.08,12,.12,23.48,2.48,34.16,8.14,16.45,8.71,26.87,22.29,31.52,40.17,5.21,20,2.13,38.83-9.78,55.87-9.77,14-23.38,22.39-39.86,26.3A76,76,0,0,1,469,151H417.62c-.41,0-.82,0-1.32-.06ZM435,134.81c.51,0,1,.07,1.42.07,9.64,0,19.29,0,28.93,0A73.57,73.57,0,0,0,481,133.29c12.77-2.81,23.28-9.13,30.42-20.28,8-12.48,10.26-26.1,7.18-40.56a44.43,44.43,0,0,0-16.93-27.11c-9.44-7.13-20.33-10.25-31.94-10.65-11.26-.39-22.54-.18-33.81-.23a6.13,6.13,0,0,0-.93.14Z" transform="translate(-0.21 -0.23)"/><path d="M293,150.87V17.6h92.57v16H310.91V74.41h65.24V90.57H310.92v44.22h77.17v16.09Z" transform="translate(-0.21 -0.23)"/><path d="M70.23,72.76l56,78.06A11.45,11.45,0,0,1,125,151c-6.29,0-12.58,0-18.87,0a2.2,2.2,0,0,1-2-1.21Q81.41,118.42,58.61,87.07c-.35-.48-.71-1-1.31-1.75a7.19,7.19,0,0,1-.68,1.09q-8.44,8.85-16.92,17.66a3.06,3.06,0,0,0-.93,2.33q0,21.38,0,42.76v1.72H21V17.63H38.75V82.86c.58-.54.94-.85,1.28-1.2q30.72-31.53,61.41-63.09A3.19,3.19,0,0,1,104,17.49c6,0,12,0,18,0h1.76Z" transform="translate(-0.21 -0.23)"/><path class="cls-1" d="M195.18,134.87a51.05,51.05,0,1,1,51-50.95C246.09,112,223.06,135,195.18,134.87Z" transform="translate(-0.21 -0.23)"/><path class="cls-1" d="M435,134.81V34.6a6.13,6.13,0,0,1,.93-.14c11.27,0,22.55-.16,33.81.23,11.61.4,22.51,3.52,31.94,10.65a44.43,44.43,0,0,1,16.93,27.11c3.08,14.46.82,28.08-7.18,40.56-7.15,11.15-17.65,17.46-30.42,20.28a73.57,73.57,0,0,1-15.67,1.58c-9.64,0-19.29,0-28.93,0C436,134.88,435.5,134.84,435,134.81Z" transform="translate(-0.21 -0.23)"/></g></g></svg>