<svg xmlns="http://www.w3.org/2000/svg" viewBox="0 0 197.04 29.53"><title>logo-nyt</title><path d="M12.18,1.92a3.87,3.87,0,0,1,2.07.89,2.67,2.67,0,0,1,.61,2.62,2.66,2.66,0,0,1-1.3,1.82,3.4,3.4,0,0,1-1.89.53v3.58l1.74,1.41-1.74,1.4v4.88a8,8,0,0,0,2.83-3.24s0-.13.15-.36A6.49,6.49,0,0,1,14,18.84a6.34,6.34,0,0,1-2.61,3,7.58,7.58,0,0,1-3.55,1.08,7.25,7.25,0,0,1-1.72-.17,7.5,7.5,0,0,1-4.93-3.4A8.16,8.16,0,0,1,0,14.71,8.24,8.24,0,0,1,5.36,7.5a2.8,2.8,0,0,1,1-.26c-.22.15-.48.35-.8.56a6,6,0,0,0-2,2.72L9,8.07v7.7L4.57,18A5.7,5.7,0,0,0,7.92,19.9a5.26,5.26,0,0,0,3.54-.73v-5l-1.73-1.4,1.73-1.41V7.79A24,24,0,0,1,8.7,7.2C7.72,7,4.43,6,3.91,6a2,2,0,0,0-1.54.29,1.59,1.59,0,0,0-.51,1.14,1.23,1.23,0,0,0,.05.37,1.62,1.62,0,0,0,.47.67,1.49,1.49,0,0,1-.54-.22,2.5,2.5,0,0,1-1.15-2,3.33,3.33,0,0,1,1.38-3A4.21,4.21,0,0,1,5,2.52c1.62.23,3.8,1.15,5.74,1.62a2.43,2.43,0,0,0,1.86-.07.91.91,0,0,0,.33-1.24C12.5,2.11,11.71,2.13,11,2A2.88,2.88,0,0,1,12.18,1.92ZM5.64,17.22V9.79l-2.24,1a7.33,7.33,0,0,0-.47,3.13,7.65,7.65,0,0,0,1.51,3.89Z" style="fill:#4b4b4b"/><path d="M33.52,9.43s-1.68,1-2.82,1.7-2.65,1.42-2.65,1.42v7.09l-1,.81.13.16,1-.8,3.1,2.8,5.39-4.27-.13-.16-3,2.34L31.1,18.23v-.85L36,13.76Zm.07,5.86-2.5,1.83V11Z" style="fill:#4b4b4b"/><path d="M19.4,25.28a5,5,0,0,0,3.46-.48,4.78,4.78,0,0,0,2.49-4.42l.07-2.57V12.18l1.07-.81-.12-.16-1,.8L22.9,9.31,19.79,12V2.92l-3.88,3a1,1,0,0,1,.74,1V19.59L15,20.81l.11.17.79-.59,2.21,2.06,3.48-2.77-.12-.16-.82.65-.87-.86V12.23l1-.86,1.51,1.88s0,4.57,0,6.1,0,3.64-.87,4.62A3.3,3.3,0,0,1,19.4,25.28Z" style="fill:#4b4b4b"/><path d="M43.53,24.64c-1.39-.16-2-1-2-1.67a1.52,1.52,0,0,1,1.24-1.38,2.76,2.76,0,0,1,2.44,1.14l3.21-3.55L48.31,19l-.86,1a5.64,5.64,0,0,0-3.36-1.8V7.4l8.34,15.19s.08.17.42.17.22-.24.22-.24V7.24a3.82,3.82,0,0,0,2.22-.91,3.1,3.1,0,0,0,.77-3.62,1.73,1.73,0,0,1-1.71,1.58,3,3,0,0,1-2.13-1L49,7l.15.14.92-1a3.93,3.93,0,0,0,2.79,1.18v8.87L46.68,4.87a3.19,3.19,0,0,0-2.74-1.75,2.9,2.9,0,0,0-2.77,2.5,3.45,3.45,0,0,0,0,1.63s.22-1.47,1.13-1.45,1.23.76,1.56,1.32v3.26c-.84.06-3,.15-3.17,2.43a2.7,2.7,0,0,0,1,2,2,2,0,0,0,1.06.38,1,1,0,0,1-.5-1.13c.19-.66,1.58-.77,1.63-.49v4.59a4.08,4.08,0,0,0-3.78,1.91,3.07,3.07,0,0,0,.07,3.22A3.22,3.22,0,0,0,43.53,24.64Z" style="fill:#4b4b4b"/><path d="M61.14,9.43l-2.82,1.7c-1.14.67-2.65,1.42-2.65,1.42v7.09l-1,.81.14.16,1-.8,3.1,2.8,5.39-4.27-.13-.16-3,2.34-2.45-2.29v-.85l4.92-3.62Zm.07,5.86-2.5,1.83V11Z" style="fill:#4b4b4b"/><path d="M68.67,22.66,66,20.47l-1.16.84-.11-.16,1.18-.86V14.14c.06-2.53-2.31-1.9-2.19-4.59A3.22,3.22,0,0,1,65.52,7.2a3.15,3.15,0,0,1,1.28-.31s-1.08.68-.82,1.65c.4,1.5,3,1.63,3,3.63v7l1.9,1.51.5-.39V12.71l-1-1L73,9.38l2.4,2.12-.92,1v6.68L76.73,21l.4-.25v-8l-1-1,2.64-2.41,2.46,2,1-.87.14.16-2.22,1.94v6.56l-5.66,3.49-2.9-2.29Z" style="fill:#4b4b4b"/><path d="M184.5,9.43l-2.82,1.7c-1.13.67-2.65,1.42-2.65,1.42v7.09l-1,.81.14.16,1-.8,3.1,2.8,5.39-4.27-.13-.16-3,2.34-2.45-2.29v-.85L187,13.76Zm.07,5.86-2.5,1.83V11Z" style="fill:#4b4b4b"/><polygon points="159.19 12.4 159.32 12.54 160.34 11.68 161.85 13.38 161.85 19.24 161.12 19.91 163.47 22.56 165.88 20.19 164.88 19.16 164.88 12.07 165.48 11.6 167.15 13.54 167.15 19.39 166.52 20.01 168.74 22.5 171.1 20.13 170.23 19.22 170.21 12.1 170.84 11.59 172.58 13.5 172.58 19.31 172.01 19.88 174.45 22.54 177.73 19.51 177.6 19.36 176.8 20.1 175.58 18.74 175.58 12.11 176.75 11.22 176.63 11.05 175.45 11.95 173.22 9.45 170.03 11.97 167.8 9.54 164.72 11.95 162.47 9.55 159.19 12.4" style="fill:#4b4b4b"/><polygon points="152.52 12.21 152.65 12.37 153.5 11.63 154.85 13.21 154.85 19.91 153.91 20.74 154.04 20.89 155.03 20.04 157.2 22.54 160.32 19.75 160.19 19.6 159.27 20.41 157.98 18.92 157.98 12.37 159.07 11.42 158.94 11.27 157.9 12.16 155.62 9.51 152.52 12.21" style="fill:#4b4b4b"/><polygon points="153.42 6.67 155.78 4.52 157.69 6.63 155.33 8.78 153.42 6.67" style="fill:#4b4b4b"/><path d="M150.26,1.92a3.84,3.84,0,0,1,2.06.89,2.64,2.64,0,0,1,.61,2.62,2.65,2.65,0,0,1-1.3,1.82,3.41,3.41,0,0,1-1.89.53v3.58l1.74,1.41-1.74,1.4v4.88a8,8,0,0,0,2.83-3.24s0-.13.15-.36a6.47,6.47,0,0,1-.64,3.38,6.32,6.32,0,0,1-2.61,3,7.08,7.08,0,0,1-5.28.91,7.48,7.48,0,0,1-4.92-3.4,8.11,8.11,0,0,1-1.19-4.59,8.22,8.22,0,0,1,5.37-7.21,2.73,2.73,0,0,1,1-.26c-.23.15-.48.35-.8.56a6,6,0,0,0-2,2.72l5.5-2.45v7.7L142.64,18A5.71,5.71,0,0,0,146,19.9a5.27,5.27,0,0,0,3.55-.73v-5l-1.73-1.4,1.73-1.41V7.79a23.88,23.88,0,0,1-2.76-.59C145.79,7,142.5,6,142,6a2,2,0,0,0-1.54.29A1.53,1.53,0,0,0,140,7.76a1.69,1.69,0,0,0,.47.67,1.42,1.42,0,0,1-.53-.22,2.47,2.47,0,0,1-1.15-2,3.33,3.33,0,0,1,1.38-3,4.21,4.21,0,0,1,2.92-.73c1.62.23,3.79,1.15,5.74,1.62a2.44,2.44,0,0,0,1.87-.07A.91.91,0,0,0,151,2.82c-.41-.71-1.21-.69-1.87-.82A2.89,2.89,0,0,1,150.26,1.92Zm-6.55,15.3V9.79l-2.23,1a7.34,7.34,0,0,0-.47,3.13,7.66,7.66,0,0,0,1.51,3.89Z" style="fill:#4b4b4b"/><path d="M190.5,23.53a2.33,2.33,0,0,1-2.29-1.88c-.35-1.56.73-2.63,2.37-4.3l-1.94-1.77V12.19s1.42-.71,2.55-1.41,2.26-1.45,2.26-1.45.83,1.05,1.77,1a1.32,1.32,0,0,0,1.37-1.57c.26.45.93,1.79-1.67,4.78L197,15.2v4.4a41.92,41.92,0,0,0-4.77,3s-1.29-1.62-2.42-.84C189.08,22.25,189.44,23.13,190.5,23.53Zm-1.83-3.39a3.08,3.08,0,0,1,3-1.45A3.66,3.66,0,0,1,194.18,21V16.54l-1.28-1.11C191.5,16.84,189,18.89,188.67,20.13Zm2.84-9.33v3.52l1.17,1a15.09,15.09,0,0,0,3.47-3.93S195,13,193.48,12.5A3.72,3.72,0,0,1,191.52,10.8Z" style="fill:#4b4b4b"/><path d="M111.23,12.35l1-.88.14.16-.93.86v7s-1.75.94-3,1.63-2.54,1.51-2.54,1.51l-3.23-2.72-.85.75-.14-.16.89-.78V12.19h0s1.52-.69,2.81-1.41,2.44-1.4,2.44-1.4Zm-5.63,6.17L108.33,21V13.44l-2.73-2.52Z" style="fill:#4b4b4b"/><path d="M117.57,11.65l2.05-2.1a2.94,2.94,0,0,0,.55.38,1.47,1.47,0,0,0,1.34.08,2.63,2.63,0,0,0,.7-.53,3.32,3.32,0,0,1-1.69,3.25c-.4.19-1.57.57-2.79-.92v7.53l1.3,1.14,1.08-.89.13.15-3.4,2.83-2.58-2.35-.93.88-.16-.16,1.41-1.28v-6.5l-1.08-1.44-.93.82-.13-.15,3.28-3Z" style="fill:#4b4b4b"/><path d="M126.22,14.79,130,9.27a2.88,2.88,0,0,0,1.37.82,2.54,2.54,0,0,0,2.22-.84c-.2,1.47-.95,3.16-2.49,3.41a3.72,3.72,0,0,1-2.62-.83l-.24.38,5.26,7.95,1.06-.92.14.15-3.61,3.16Z" style="fill:#4b4b4b"/><path d="M123.09,7.42c0-1.19-.49-1.92-1.13-1.87l4.14-2.9V19.08h0l1.09,1.15.82-.72.13.15-3.33,2.91-2.26-2.12-.9.8-.15-.15,1.58-1.38Z" style="fill:#4b4b4b"/><path d="M88.52,7.14c0-1.11-.46-1.73-1.19-1.74-1,0-1.3,1.46-1.3,1.46a2.78,2.78,0,0,1,.77-2.18,3.07,3.07,0,0,1,3.11-1A2.62,2.62,0,0,1,92,6.42v15.3s.61.07,1,.16.95.24.95.24V3.67h.2V6.16L97.5,3.49l2.43,2.16,1.14-1,.13.16-1.19,1V20.06a2.75,2.75,0,0,1-1.08,2.41c-2,1.17-4.31-.17-6.41-.48-1.56-.23-4-.52-4.62.91a1.32,1.32,0,0,0,.52,1.67c1.42,1,7.73-1.59,9.91-.58A2.61,2.61,0,0,1,100,27.36c-.51,1.87-2.89,2.21-2.89,2.21a1.68,1.68,0,0,0,.83-1.78c-.16-.57-.55-.73-1.79-.58-2.71.3-5.95,1.62-8.12.71a3.4,3.4,0,0,1-1.84-3.25c.06-2,2.35-2.77,2.35-2.77V14.57c-.08-.3-1.29-.21-1.56.32a.87.87,0,0,0,.5,1.19,1.66,1.66,0,0,1-1.39-.62A2.31,2.31,0,0,1,86,12.71a3.13,3.13,0,0,1,2.56-1.24Zm5.64,15a2.05,2.05,0,0,0,1.67-.32,2,2,0,0,0,.7-1.55v-5.7A1.63,1.63,0,0,0,95.37,14a1.7,1.7,0,0,0-1.2.59Zm2.38-15-1.6-1.4-.78.61V11.7a1.7,1.7,0,0,0,1.2.6,1.63,1.63,0,0,0,1.18-.58Zm0,4.83a1.71,1.71,0,0,1-1.18.52A1.77,1.77,0,0,1,94.17,12v2.24a1.77,1.77,0,0,1,1.19-.52,1.74,1.74,0,0,1,1.18.5Z" style="fill:#4b4b4b"/></svg>