<svg viewBox="0 0 179.08 25.15"><path d="M23.49,12.61a3.51,3.51,0,0,1,1.88.81,2.43,2.43,0,0,1,.55,2.38,2.41,2.41,0,0,1-1.18,1.66,3.09,3.09,0,0,1-1.71.48V21.2l1.58,1.28L23,23.76v4.44a7.24,7.24,0,0,0,2.57-2.94s0-.12.13-.33A5.89,5.89,0,0,1,25.16,28a5.76,5.76,0,0,1-2.37,2.69,6.89,6.89,0,0,1-3.23,1A6.59,6.59,0,0,1,18,31.5a6.82,6.82,0,0,1-4.48-3.09A7.3,7.3,0,0,1,17.3,17.68a2.55,2.55,0,0,1,.88-.23c-.2.14-.44.31-.73.51a5.49,5.49,0,0,0-1.84,2.47l5-2.23v7l-4,2a5.18,5.18,0,0,0,3.05,1.74,4.78,4.78,0,0,0,3.22-.66V23.76l-1.57-1.28,1.57-1.28V17.94a21.8,21.8,0,0,1-2.51-.53c-.9-.22-3.89-1.06-4.36-1.13a1.78,1.78,0,0,0-1.4.26,1.44,1.44,0,0,0-.46,1,1.12,1.12,0,0,0,0,.33,1.47,1.47,0,0,0,.43.61,1.36,1.36,0,0,1-.49-.2,2.27,2.27,0,0,1-1-1.82,3,3,0,0,1,1.26-2.68A3.83,3.83,0,0,1,17,13.15c1.47.21,3.45,1,5.22,1.47a2.2,2.2,0,0,0,1.69-.06.83.83,0,0,0,.3-1.13c-.38-.65-1.1-.63-1.71-.75A2.62,2.62,0,0,1,23.49,12.61Zm-5.94,13.9V19.76l-2,.91a6.66,6.66,0,0,0-.43,2.84,7,7,0,0,0,1.37,3.54Z" transform="translate(-12.42 -12.59)" style="fill:#231f20"/><path d="M42.89,19.43s-1.53.93-2.56,1.55-2.41,1.29-2.41,1.29v6.44l-.92.74.12.15.9-.73,2.82,2.54,4.9-3.88-.12-.14-2.71,2.13-2.23-2.08v-.78l4.47-3.29ZM43,24.76l-2.27,1.66V20.89Z" transform="translate(-12.42 -12.59)" style="fill:#231f20"/><path d="M30.06,33.84a4.53,4.53,0,0,0,3.15-.44,4.34,4.34,0,0,0,2.26-4L35.53,27V21.94l1-.74-.11-.14-1,.72-2.2-2.45-2.82,2.43V13.51l-3.53,2.73a.93.93,0,0,1,.67.9V28.67l-1.5,1.11.1.15.72-.54,2,1.87,3.16-2.52-.11-.15-.74.59-.79-.78V22l.92-.79,1.37,1.71s0,4.16,0,5.54,0,3.31-.79,4.2A3,3,0,0,1,30.06,33.84Z" transform="translate(-12.42 -12.59)" style="fill:#231f20"/><path d="M52,33.26c-1.26-.15-1.79-.91-1.78-1.52a1.38,1.38,0,0,1,1.12-1.25,2.51,2.51,0,0,1,2.22,1l2.91-3.22-.14-.13-.78.88a5.12,5.12,0,0,0-3.05-1.64V17.59l7.58,13.8s.07.15.38.15.2-.22.2-.22V17.45a3.47,3.47,0,0,0,2-.83,2.82,2.82,0,0,0,.7-3.29,1.58,1.58,0,0,1-1.56,1.44,2.69,2.69,0,0,1-1.94-.89L57,17.19l.14.13.83-1a3.57,3.57,0,0,0,2.54,1.08V25.5L54.85,15.29a2.9,2.9,0,0,0-2.49-1.59A2.63,2.63,0,0,0,49.84,16a3.13,3.13,0,0,0,0,1.48s.2-1.34,1-1.32,1.12.69,1.42,1.2v3c-.77.06-2.75.14-2.88,2.21a2.45,2.45,0,0,0,.89,1.85,1.85,1.85,0,0,0,1,.35.91.91,0,0,1-.46-1c.18-.6,1.44-.7,1.49-.45V27.4a3.71,3.71,0,0,0-3.43,1.73,2.79,2.79,0,0,0,.06,2.93A2.93,2.93,0,0,0,52,33.26Z" transform="translate(-12.42 -12.59)" style="fill:#231f20"/><path d="M68,19.43,65.43,21c-1,.61-2.41,1.29-2.41,1.29v6.44l-.92.74.12.15.9-.73,2.81,2.54,4.9-3.88-.12-.14L68,29.52l-2.23-2.08v-.78l4.47-3.29Zm.06,5.32-2.27,1.66V20.89Z" transform="translate(-12.42 -12.59)" style="fill:#231f20"/><path d="M74.84,31.46l-2.4-2-1.06.76-.1-.14,1.07-.78V23.72c.05-2.3-2.1-1.73-2-4.17A2.92,2.92,0,0,1,72,17.41a2.86,2.86,0,0,1,1.16-.29s-1,.62-.75,1.5c.37,1.36,2.69,1.48,2.74,3.3v6.33l1.73,1.38.45-.36V22.42l-.93-.92,2.39-2.1L81,21.32l-.84.9v6.07l2,1.69.36-.23V22.44l-.93-.87L84,19.38l2.23,1.85.89-.79.12.14-2,1.76v6l-5.15,3.18-2.64-2.08Z" transform="translate(-12.42 -12.59)" style="fill:#231f20"/><path d="M180.11,19.43,177.55,21c-1,.61-2.41,1.29-2.41,1.29v6.44l-.92.74.12.15.9-.73,2.81,2.54,4.9-3.88-.12-.14-2.71,2.13-2.23-2.08v-.78l4.47-3.29Zm.07,5.32-2.27,1.66V20.89Z" transform="translate(-12.42 -12.59)" style="fill:#231f20"/><polygon points="144.69 9.54 144.81 9.68 145.73 8.89 147.1 10.44 147.1 15.77 146.44 16.37 148.57 18.78 150.76 16.63 149.86 15.69 149.86 9.25 150.4 8.81 151.92 10.59 151.92 15.89 151.35 16.46 153.36 18.72 155.51 16.57 154.72 15.74 154.7 9.27 155.28 8.81 156.86 10.55 156.86 15.82 156.34 16.34 158.56 18.77 161.54 16.01 161.41 15.88 160.69 16.55 159.58 15.31 159.58 9.28 160.65 8.47 160.54 8.32 159.46 9.14 157.44 6.86 154.54 9.16 152.51 6.95 149.71 9.13 147.66 6.95 144.69 9.54" style="fill:#231f20"/><polygon points="138.62 9.38 138.74 9.51 139.52 8.84 140.74 10.28 140.74 16.37 139.89 17.13 140 17.26 140.91 16.49 142.87 18.77 145.72 16.23 145.59 16.09 144.76 16.82 143.58 15.47 143.58 9.52 144.57 8.66 144.45 8.52 143.51 9.33 141.44 6.92 138.62 9.38" style="fill:#231f20"/><polygon points="139.44 4.34 141.58 2.38 143.32 4.3 141.17 6.25 139.44 4.34" style="fill:#231f20"/><path d="M149,12.61a3.49,3.49,0,0,1,1.88.81,2.4,2.4,0,0,1,.55,2.38,2.41,2.41,0,0,1-1.18,1.66,3.1,3.1,0,0,1-1.71.48V21.2l1.58,1.28-1.58,1.28v4.44a7.22,7.22,0,0,0,2.57-2.94s0-.12.13-.33a5.88,5.88,0,0,1-.58,3.07,5.75,5.75,0,0,1-2.37,2.69,6.43,6.43,0,0,1-4.8.82A6.8,6.8,0,0,1,139,28.41a7.37,7.37,0,0,1-1.09-4.17,7.48,7.48,0,0,1,4.88-6.55,2.48,2.48,0,0,1,.88-.23c-.21.14-.44.31-.73.51a5.47,5.47,0,0,0-1.84,2.47l5-2.23v7l-4,2a5.19,5.19,0,0,0,3,1.74,4.79,4.79,0,0,0,3.23-.66V23.76l-1.58-1.28,1.58-1.28V17.94a21.7,21.7,0,0,1-2.51-.53c-.9-.22-3.89-1.06-4.36-1.13a1.78,1.78,0,0,0-1.4.26,1.39,1.39,0,0,0-.42,1.37,1.54,1.54,0,0,0,.42.61,1.29,1.29,0,0,1-.48-.2,2.24,2.24,0,0,1-1-1.82,3,3,0,0,1,1.26-2.68,3.83,3.83,0,0,1,2.65-.67c1.47.21,3.45,1,5.21,1.47a2.21,2.21,0,0,0,1.7-.06.83.83,0,0,0,.29-1.13c-.38-.65-1.1-.63-1.7-.75A2.62,2.62,0,0,1,149,12.61Zm-6,13.9V19.76l-2,.91a6.67,6.67,0,0,0-.43,2.84A7,7,0,0,0,142,27.05Z" transform="translate(-12.42 -12.59)" style="fill:#231f20"/><path d="M185.57,32.25a2.12,2.12,0,0,1-2.08-1.71c-.32-1.42.66-2.39,2.15-3.91L183.88,25V21.94s1.29-.65,2.31-1.29,2.06-1.32,2.06-1.32.76,1,1.61.88a1.2,1.2,0,0,0,1.24-1.43c.23.41.85,1.62-1.52,4.34l1.92,1.55v4a38.1,38.1,0,0,0-4.34,2.7S186,29.9,185,30.61C184.28,31.09,184.6,31.89,185.57,32.25Zm-1.66-3.08a2.8,2.8,0,0,1,2.76-1.31A3.33,3.33,0,0,1,188.91,30V25.9l-1.16-1C186.47,26.17,184.19,28,183.9,29.16Zm2.59-8.48v3.2l1.07.93a13.71,13.71,0,0,0,3.15-3.57,2.44,2.44,0,0,1-2.43,1A3.38,3.38,0,0,1,186.49,20.68Z" transform="translate(-12.42 -12.59)" style="fill:#231f20"/><path d="M113.52,22.09l.87-.8.12.14-.85.78v6.36s-1.59.85-2.71,1.48-2.31,1.37-2.31,1.37L105.71,29l-.78.68-.12-.14.81-.71V21.94h0s1.39-.63,2.55-1.29,2.21-1.27,2.21-1.27ZM108.4,27.7l2.48,2.24V23.08l-2.48-2.29Z" transform="translate(-12.42 -12.59)" style="fill:#231f20"/><path d="M119.29,21.45l1.86-1.91a2.67,2.67,0,0,0,.5.35,1.33,1.33,0,0,0,1.22.07,2.39,2.39,0,0,0,.63-.49,3,3,0,0,1-1.54,3,2,2,0,0,1-2.53-.84v6.85l1.18,1,1-.81.11.14-3.09,2.58-2.34-2.14-.84.8-.14-.15,1.29-1.16V22.83l-1-1.3-.84.75-.12-.14,3-2.69Z" transform="translate(-12.42 -12.59)" style="fill:#231f20"/><path d="M127.15,24.3l3.44-5a2.62,2.62,0,0,0,1.25.74,2.31,2.31,0,0,0,2-.76c-.18,1.34-.86,2.87-2.26,3.1a3.38,3.38,0,0,1-2.38-.75L129,22l4.78,7.22,1-.84.12.14-3.28,2.87Z" transform="translate(-12.42 -12.59)" style="fill:#231f20"/><path d="M124.3,17.61c0-1.08-.45-1.75-1-1.7L127,13.27V28.21h0l1,1,.75-.65.12.14-3,2.64-2.05-1.93-.82.73-.13-.14,1.44-1.25Z" transform="translate(-12.42 -12.59)" style="fill:#231f20"/><path d="M92.88,17.36c0-1-.41-1.57-1.08-1.59-1,0-1.18,1.33-1.18,1.33a2.52,2.52,0,0,1,.7-2,2.79,2.79,0,0,1,2.83-.93A2.38,2.38,0,0,1,96,16.7V30.61s.56.07.94.15.86.22.86.22V14.2H98v2.26L101,14l2.2,2,1-.89.12.14-1.08.93V29.1a2.5,2.5,0,0,1-1,2.19c-1.78,1.06-3.92-.16-5.83-.44-1.42-.21-3.64-.47-4.2.83a1.2,1.2,0,0,0,.47,1.52c1.29.86,7-1.45,9-.53a2.37,2.37,0,0,1,1.51,3.07c-.47,1.7-2.62,2-2.62,2a1.52,1.52,0,0,0,.75-1.62c-.15-.52-.5-.66-1.63-.53-2.46.27-5.4,1.47-7.38.65a3.09,3.09,0,0,1-1.67-3c.05-1.8,2.14-2.52,2.14-2.52V24.11c-.07-.27-1.17-.19-1.41.29a.79.79,0,0,0,.45,1.08,1.51,1.51,0,0,1-1.26-.56,2.1,2.1,0,0,1-.1-2.51,2.85,2.85,0,0,1,2.33-1.12ZM98,31a1.86,1.86,0,0,0,1.52-.29,1.77,1.77,0,0,0,.64-1.41V24.14a1.48,1.48,0,0,0-1.07-.53,1.55,1.55,0,0,0-1.09.54Zm2.16-13.59-1.45-1.27L98,16.7v4.8A1.54,1.54,0,0,0,99.1,22a1.48,1.48,0,0,0,1.07-.53Zm0,4.39a1.55,1.55,0,0,1-1.08.47A1.61,1.61,0,0,1,98,21.81v2a1.61,1.61,0,0,1,1.08-.47,1.58,1.58,0,0,1,1.08.45Z" transform="translate(-12.42 -12.59)" style="fill:#231f20"/></svg>
