<svg xmlns="http://www.w3.org/2000/svg" viewBox="0 0 575.26 301.16"><defs><style>.cls-1{fill:#192645;}.cls-2{fill:#263250;}.cls-3{fill:#192646;}.cls-4{fill:#fefefe;}.cls-5{fill:#fdfdfd;}.cls-6{fill:#fcfcfd;}.cls-7{fill:#1b2847;}.cls-8{fill:#222e4d;}.cls-9{fill:#1a2747;}.cls-10{fill:#273351;}</style></defs><title>Brisbane</title><g id="Layer_2" data-name="Layer 2"><g id="Layer_1-2" data-name="Layer 1"><path class="cls-1" d="M301.4,301.4H208.92c-.4-1.66.89-2.47,1.81-3.37a123.44,123.44,0,0,0,14.89-16.81,116.9,116.9,0,0,0,20.19-50.38,118.45,118.45,0,0,0,1.45-18.8,133.24,133.24,0,0,0-3.49-29.37c-.47-2-.91-3.85.7-5.6a3.92,3.92,0,0,0,.63-2.74q0-9.33,0-18.66a10.56,10.56,0,0,0-.54-3,20.73,20.73,0,0,0-1.76-5.4c-2.41-4.08-6.19-5.61-10.73-5.91-2.27-.15-4.57.8-6.8-.19-2.46-2.19-4.22-5-6.38-7.44-14.86-17-33.22-28.06-55.38-32.27-25.05-4.76-48.54-.66-69.86,13.88A74.48,74.48,0,0,0,81.77,126a13.41,13.41,0,0,1-.95,1.08c-.61.52-1.23,1.17-2.1.86s-1-1.2-1.06-2a27.46,27.46,0,0,1-.06-3.11q0-56.39,0-112.78c0-4.28,0-4.28-4.36-4.29H4.53c-1.41,0-2.91.24-4-1C.48,3.35-.08,1.36.64.64S3.35.48,4.79.48Q289,.48,573.19.43c1.92,0,2.34.35,2.34,2.32q-.09,148.27,0,296.54c0,1.89-.53,2.16-2.25,2.15q-89-.07-178,0a7.09,7.09,0,0,1-2-2.93c-2.77-7.05-5.47-14.13-8.29-21.16-1.06-2.64-1.25-2.76-3.86-1.65a50.86,50.86,0,0,1-20.46,4.21c-14.73-.07-20.4-7.36-23.31-18.87a65,65,0,0,1-1.6-14.21c-.93-32.38-.18-64.77-.42-97.15,0-5.65.27-6,6-5.88,2.35,0,4.8-.6,7.05.64.92,1.58,1.45,3.35,3.8,3.73,1.41.23,1.41,2,1.42,3.25,0,4.31-.05,8.62,0,12.93a18.56,18.56,0,0,0,2.12,9.22c2.46,4.22,8.75,5.16,13.27,3.11.93-.42.89-1.24.56-2-.47-1.13-.56-2.49-2.3-2.65-6.15-.57-7-1.51-7-7.63,0-4.07,0-8.14,0-12.22,0-3.82.69-4.43,4.44-4.55,1.55,0,3.21.49,4.63-.6.91-2.55,2.69-3.47,5.37-3.25,2.88.24,3.51.7,3.52,3.57,0,8,0,16.09,0,24.13,0,.64,0,1.27,0,1.91,0,3.53,1.49,4.75,5,4.15a4.05,4.05,0,0,0,1.54-.6,2.56,2.56,0,0,0,.53-.62,7.22,7.22,0,0,0,.65-3.74q0-12.46,0-24.91c0-3.26.47-3.72,3.71-3.87,2.94-.14,3.17-.32,3.18-3.18q0-17.13,0-34.25c0-3-.28-3.21-3.38-3.21q-23.47,0-46.95,0c-1,0-2.08,0-3.11,0-3-.12-4-1.13-4-4.15-.07-9.74,0-19.48,0-29.22,0-4.47,0-8.94,0-13.41,0-2.65-.33-3-2.85-3q-18.92-.06-37.85,0c-2.55,0-3,.54-3.29,3.06-1.22,11.16-2.35,22.33-3.72,33.48-.39,3.16-.57,6.35-1.06,9.5-.45,2.93-1.25,3.72-4.2,3.75-6.39.08-12.77,0-19.16,0-3.9,0-4,.07-4,4.07,0,9.74-.09,19.48.05,29.22,0,2.84-.5,5-3.32,6.12a3.87,3.87,0,0,0-.57,2.74q0,14.22,0,28.44c0,2.79,2.76,4.27,5.28,2.87,1.06-.58.87-1.63.87-2.55,0-5.66.15-11.32,0-17-.14-4.25,1.88-6.95,5.39-8.79,6.16-3.24,11.74.07,12,7-.6,6.46-.17,12.92-.23,19.38,0,1.82,1.13,2.71,2.9,2.86a20.49,20.49,0,0,0,2.15,0c1.8,0,2.62.95,2.79,2.61.1,1,.06,2.07.06,3.11,0,22.52-.14,45,.06,67.56.1,11.87,2,23.51,6.61,34.56a67.72,67.72,0,0,0,7,12.76C300.95,299.1,301.82,300,301.4,301.4Z" transform="translate(-0.27 -0.27)"/><path class="cls-2" d="M.48,4.79H75.43c3.15,0,3.16,0,3.16,3.13q0,58.3,0,116.61v3.11c1.78-.66,2.3-2.23,3.26-3.27,11.23-12.07,25.19-19.24,41-23.25a90.38,90.38,0,0,1,29.65-2.3,96.44,96.44,0,0,1,53.79,21.39A108.06,108.06,0,0,1,224.53,139c.43.57.77,1.2,1.16,1.81-.38,1.08-1.39,1.23-2.28,1.52-1.29.42-2.6.77-3.85,1.29-1.84.76-2,1.38-1.13,3.61.59,1.61,1.48,1.82,2.93,1.11a20.47,20.47,0,0,1,7.15-1.78c1-.09,1.92-.23,2.68.6,1.08,2.08,2.4,4,3.32,6.19.37.88,1.09,1.83,0,2.76-2.58.49-5.24-.22-7.82.49-1,.27-2,.42-3,.75-5.89,2-8.26,5.7-7.54,11.86.54,4.64,4.88,8.19,10.37,8.55a13.1,13.1,0,0,0,8.43-2.07c1.49-1,2.71-1.3,4.11.37,1.15,1.37,3,.94,4.49.49,1.24-.38.8-1.77.8-2.75,0-6,0-12,0-17.94,0-1.23-.25-2.6,1-3.5a3.75,3.75,0,0,1,.44,2.54q0,10.41,0,20.82c0,1.08.24,2.21-1.28,2.7-1.06.34-.52,1.32-.33,2.06a128.32,128.32,0,0,1,3.93,35.2,120.7,120.7,0,0,1-9.53,44,117.82,117.82,0,0,1-16,27.06c-1.48,1.87-3.09,3.63-4.73,5.36-3,3.12-6,6.17-9,9.25h-127c-2-.72-3.25-2.38-4.67-4.3-.52,1.65-.28,3.3-1.56,4.3H27.79a3.31,3.31,0,0,1-1-2.6q0-2,0-4.07,0-118.31,0-236.62c0-4.85.51-5.22-4.88-5.5C15.7,52.28,9.49,52,3.31,51.33a4,4,0,0,1-2.83-1Z" transform="translate(-0.27 -0.27)"/><path class="cls-2" d="M386.2,177.75c-2.52,1.08-5.16.5-7.72.38-1.29-.06-.91-1.49-.91-2.37,0-9.4,0-18.8,0-28.2,0-.94.58-2.4-.79-2.68-1.76-.36-3.74-.66-5.37.19-1.16.61.15,2.5-1,3.46-1.2-1.13-.95-2.63-.95-4s-.59-2.21-2.13-2.17a37.59,37.59,0,0,1-3.81,0c-2.17-.17-2.94-.95-3.14-3.12-.07-.71,0-1.43,0-2.14,0-3.09-1.57-4.16-4.56-3.23a1.53,1.53,0,0,0-1.16,1.34,21.12,21.12,0,0,0-.48,3.05c0,2.25-.91,3.89-3.36,4.13-1.51.15-1.34,1.89-2.44,2.38-3.19,0-6.38.07-9.57,0-1.72-.06-2.39.46-2.39,2.29,0,30.4-.17,60.79.18,91.18.08,7.41-.35,15,1.75,22.3,1.76,6.14,3.75,12.09,9.78,15.49a22.93,22.93,0,0,0,10.23,2.92,51,51,0,0,0,24.55-5c.73-.34,1.5-1.09,2.06.35,3.44,8.91,6.92,17.81,10.39,26.71a1.57,1.57,0,0,1,0,.48H301.4C293.33,290.91,288.8,279,286.95,266a150.05,150.05,0,0,1-1.39-21.65c.06-21,0-42,.07-63,0-2.38-.56-3.18-3-3.11-5.33.14-4.66.75-4.67-4.67,0-6.14.05-12.29.08-18.43,1.57.6,1.36,2,1.37,3.23.06,5.1,0,10.2,0,15.3a3.41,3.41,0,0,0,5.29,2.89,2,2,0,0,0,.84-2.1c-.3-8.49.92-17-1-25.47a4.22,4.22,0,0,1,.26-1.61c.45-1.4-.28-1.84-1.53-1.85-1.72-.85-2.89-2.49-4.72-3.19-5-1.92-9.34-.9-13.32,2.49-2.62,2.24-3,2.14-4-1.21-.38-1.29-1.22-1.24-2.18-1.32-1.55-.12-3.23.38-4.55-.89a2.23,2.23,0,0,1,.35-.31c1-.56,2.45.34,3.14-.69s.31-2.64.31-4c0-10.3,0-20.6,0-30.9,0-3.44,0-3.44,3.33-3.44,6.95,0,13.89-.06,20.84,0,2.12,0,3-.42,3.23-2.85.7-7.91,1.81-15.78,2.68-23.67.73-6.55,1.41-13.11,2-19.68.3-3.45.39-3.66,3.76-3.66,13.1,0,26.19.07,39.29-.06,2.51,0,3,.78,3,3.14-.1,14.29-.05,28.59-.05,42.88,0,3.87,0,3.87,3.77,3.87,16.93,0,33.86,0,50.78,0,2.26,0,3,.56,3,2.92q-.17,18.56,0,37.13c0,2.14-.66,2.73-2.74,2.69-5-.08-4.47-.72-4.49,4.39,0,8.62,0,17.25,0,25.87,0,.93.28,1.94-.48,2.74-1.09-1-1-2.29-1-3.56,0-9.42,0-18.83,0-28.25,0-3.36-.43-3.7-3.71-3.61-1.72,0-2.45.75-2.44,2.46,0,3,0,5.9,0,8.86q0,9.58,0,19.15c0,3.88,0,3.88,3.81,4C384.07,176.8,385.29,176.74,386.2,177.75Z" transform="translate(-0.27 -0.27)"/><path class="cls-3" d="M.48,50.31c8.57.48,17.14,1,25.71,1.43,1.09.06,1.62.48,1.59,1.59,0,.8,0,1.6,0,2.39q0,122.83,0,245.67H.48Q.48,175.85.48,50.31Z" transform="translate(-0.27 -0.27)"/><path class="cls-3" d="M75.71,301.4l.76-6.39,5.47,6.39Z" transform="translate(-0.27 -0.27)"/><path class="cls-4" d="M424.24,146.67c3.67-4.87,8.37-6.95,14.15-6.06s9.27,5.2,10.12,11.75c.89,6.92.31,13.87.44,20.8.08,4.69,0,4.69-4.68,4.69-3.73,0-3.72,0-3.74-3.8,0-6.22,0-12.45-.15-18.67-.11-4.27-1.73-6.62-4.58-7.26-3.24-.72-7.79,1.36-9.52,4.28a2.89,2.89,0,0,0-.25,1.84c.5,7.26.09,14.52.27,21.78,0,1.5-.44,2-1.9,1.85-2.11-.23-4.86.9-6.16-.5-1-1.09-.33-3.78-.35-5.76,0-5.19.05-10.38-.08-15.56-.08-3.05-.36-6.27-3.79-7.61s-6.16.34-8.67,2.52a5,5,0,0,0-1.81,4.16c.1,6.94,0,13.89.08,20.83,0,1.6-.47,2.08-2,2a21.79,21.79,0,0,0-4.3,0c-1.79.2-2-.56-2-2.15.07-10.77.09-21.55,0-32.32,0-1.89.58-2.41,2.28-2.13a4.47,4.47,0,0,0,.72,0c4.32,0,4.32,0,5.2,4.43,3-3.2,6.34-5.44,10.75-5.3S421.89,142.73,424.24,146.67Z" transform="translate(-0.27 -0.27)"/><path class="cls-4" d="M476.69,161.77c-3.67,0-7.35.07-11,0-1.67,0-1.82.51-1.44,1.95,1,3.83,3.13,6.77,7.08,7.66,4.11.93,8.1.28,10.77-3.36,1.28-1.74,2.05-1.71,3.65-.52,3.83,2.84,3.94,2.81.46,6.24-5.56,5.48-12.28,6.25-19.31,3.9s-10.29-7.78-11.16-14.79c-.75-6.1.51-11.76,4.67-16.52a17.21,17.21,0,0,1,20.5-4.17c6.57,3.2,10.2,10.69,9,18.26-.19,1.15-.61,1.42-1.67,1.41C484.35,161.74,480.52,161.77,476.69,161.77Z" transform="translate(-0.27 -0.27)"/><path class="cls-4" d="M245.41,152.37c0,7.73,0,15.46.14,23.19,0,2-.6,2.54-2.4,2.3a10,10,0,0,0-1.91,0c-2,.13-4.05.23-3.25-3.44-4.45,4.34-9.23,5-14.39,3.8a10.63,10.63,0,0,1-8.57-9.9c-.37-5.53,2-9.48,7.06-11.49a25,25,0,0,1,12.7-1.21c2.13-1.77,1.45-5-1.38-6.61-.81-.45-1.83-.56-2.36-1.48-3.88-.65-7.38.6-10.77,2.23-1.21.58-1.67.51-2.16-.81-1.95-5.27-2-5.32,3.43-7,1.36-.42,2.76-.76,4.14-1.14a52.53,52.53,0,0,1,7.12-.39C240,140.94,243.68,144.41,245.41,152.37Z" transform="translate(-0.27 -0.27)"/><path class="cls-4" d="M254.45,141.39c.4,0,.79-.07,1.19-.08,1.83,0,3.77-.4,5.46.08,2.28.64.21,3.31,1.57,4.59,7.77-7.33,14.57-7.59,21-.78,1.52.41,1.44,1.67,1.51,2.85a34.16,34.16,0,0,1,1.43,10.57c-.05,5.81-.07,11.62,0,17.43,0,1.51-.42,2-1.88,1.81-2-.2-4.7.83-6-.38s-.36-3.91-.39-6c-.07-4.46,0-8.91,0-13.37a6.58,6.58,0,0,0-.34-3c-.36-6.42-5.25-9.11-10.81-5.88-2.9,1.69-4.72,3.87-4.54,7.68.3,6.29,0,12.6.11,18.91,0,1.41-.13,2.24-1.88,2.08-2-.19-4.75.64-6-.39s-.4-3.89-.41-5.93C254.42,161.5,254.45,151.45,254.45,141.39Z" transform="translate(-0.27 -0.27)"/><path class="cls-4" d="M506.92,178.74a17.64,17.64,0,0,1-12.52-5.06c-.7-.67-1-1.2,0-1.84a2.85,2.85,0,0,0,.34-.33c1.14-1.11,2.11-2.7,3.47-3.22,1.57-.59,2.35,1.58,3.71,2.24a9.23,9.23,0,0,0,6.68,1,4,4,0,0,0,3.27-3.1c.38-1.87-.59-3.08-2-3.95-1.3-.77-2.68-1.39-4-2.05s-2.63-1.16-3.87-1.85c-4.86-2.69-6.64-6.11-5.9-11.17.64-4.42,4-7.68,9-8.69a16.66,16.66,0,0,1,13.36,3c1,.74,1.48,1.4.3,2.35a6.4,6.4,0,0,0-.64.71c-.91,1-1.65,2.4-2.79,2.89s-2.06-1.12-3.24-1.52a9.48,9.48,0,0,0-5.13-.7,3.39,3.39,0,0,0-2.87,2.52,3.21,3.21,0,0,0,1.36,3.55,17.83,17.83,0,0,0,4,2.17c1.81.83,3.66,1.59,5.4,2.54,4.06,2.22,5.83,5.63,5.38,10.3-.43,4.47-2.84,7.32-6.81,9A14.86,14.86,0,0,1,506.92,178.74Z" transform="translate(-0.27 -0.27)"/><path class="cls-4" d="M348.31,144.71a5.18,5.18,0,0,0,.08-1.18c-.27-1.72.29-2.58,2.16-2.23s2.61-.44,2.58-2.28c0-1.11.39-2.23.3-3.32-.23-2.71,1.19-3,3.44-2.91,4.39.16,4.39,0,4.39,4.36,0,4.15,0,4.15,4,4.15,5.27,0,5.28,0,5.22,5.34,0,.63-.1,1.26-.15,1.89-2.55,0-5.1,0-7.65,0-1.12,0-1.51.28-1.5,1.46.07,5.42,0,10.84.07,16.25.08,4.27,2.1,5.79,6.21,4.59,1.35-.4,1.89-.14,2.22,1.1a13.73,13.73,0,0,0,.5,1.34c1.52,4,1.44,4.16-2.76,5-8.48,1.74-13.65-2-14.46-10.61-.54-5.72-.09-11.46-.23-17.2,0-.72.52-2.17-1-1.87C348.28,149.29,348.19,147.16,348.31,144.71Z" transform="translate(-0.27 -0.27)"/><path class="cls-3" d="M126,177.71c2.51,1.18,5.14.51,7.71.42,1.3,0,.92-1.47.93-2.36q0-14.59,0-29.19c0-3.32,0-3.29,3.43-3.33a21.37,21.37,0,0,1,7,.87c.61.93,0,1.68-.39,2.44-2.54,5.64-1,10.36,4.48,13.3,1.4.76,2.84,1.46,4.31,2.08a16.7,16.7,0,0,1,2.35,1.18c3,1.84,4,3.94,3.22,6.23s-3.89,3.7-6.84,3.24a13.62,13.62,0,0,1-5.45-2.34c-1.54-1-2.76-.51-4.21,1.55-1,1.47.18,2.06,1,2.66,5.47,3.91,11.33,4.6,17.37,1.54,6.33-3.21,6.79-12.27,1-16.32a25.16,25.16,0,0,0-4.63-2.48,23.57,23.57,0,0,1-5.72-3,4.05,4.05,0,0,1,.67-7.08c2.89-1.53,8,0,9.69,2.83,3.41.89,5.84,3.41,8.73,5.16,2.53,1.53,3.4,3.56,3.24,6.51-.25,4.69,0,9.4-.11,14.09-.05,2,.69,2.71,2.63,2.54,1.26-.12,2.55,0,3.82,0,.79,0,1.68.07,1.69-1.13a2,2,0,0,1-.08-3c.9-.89,1.85,0,2.5.57,1.5,1.38,3.92,1.48,4.85,3.6a92.8,92.8,0,0,1,5.48,16.52A80.59,80.59,0,0,1,196.07,219a77.07,77.07,0,0,1-8.58,29.37c-9,17-22.66,27.75-41.73,31-18.47,3.15-35.64-.44-51.23-11A67.35,67.35,0,0,1,80,255.05a6.24,6.24,0,0,1-1.41-4.18q.07-36,0-72.07c.65-1.12,1.86-1.16,2.91-1.39,8.76-2,12.49-10.06,12.93-16.45.11-1.61-.5-3.39.9-4.76,2.07-.83,3.42-2.91,5.72-3.35,1.17.82,1,2.08,1,3.26,0,5.82,0,11.64,0,17.46,0,1.06-.41,2.49.94,2.94a7,7,0,0,0,4.91-.08c1-.44.76-1.66.77-2.58,0-6.14,0-12.27,0-18.41a7.53,7.53,0,0,1,7.39-7.79c2-.07,3.58-.4,4.39-2.43.11-.28.47-.41.78-.5a15.22,15.22,0,0,1,4.65-1c1,.67,1,1.72,1,2.76q.07,14.18,0,28.36A3.36,3.36,0,0,1,126,177.71Z" transform="translate(-0.27 -0.27)"/><path class="cls-4" d="M95.33,156.21c0,3.25.19,6.48-.83,9.68-2.45,7.69-7.92,12.2-15.91,12.92-4.84-.36-5.71-.71-11.16-4.55-.78,3.59-.78,3.59-4.71,3.59a12.26,12.26,0,0,0-1.67,0c-1.39.19-1.74-.4-1.72-1.73.07-5.26,0-10.52,0-15.79,0-8.45-.06-16.9,0-25.36,0-1.88-.37-2.91-2.42-2.66-1.56.19-2-.47-2-2,0-5.73,0-5.78,5.59-5.71,2.28,0,5.32-1,6.63.44,1.12,1.26.35,4.24.36,6.46,0,4.38,0,8.77.05,13.15,0,0,.11.09.22.18a38.19,38.19,0,0,1,3.35-2.48c6.36-3.76,14.82-1.93,19.76,4.14C93.32,149.36,94.4,152.74,95.33,156.21Z" transform="translate(-0.27 -0.27)"/><path class="cls-4" d="M189.27,178.32a15.18,15.18,0,0,1-7.27-4.9v3.72c-2.35,1.46-4.9.5-7.35.55-.58,0-.37-.95-.37-1.47q0-25-.06-50c0-1.2.26-1.76,1.57-1.64,2.19.21,5-.92,6.41.48,1.05,1.08.34,3.92.35,6,0,4.6,0,9.19,0,14.27a14.4,14.4,0,0,1,9.21-4.8,15.18,15.18,0,0,1,9.63,2.14c6.24,3.69,9.94,12,8.78,19.61-1.32,8.72-6.44,14.62-14,16.22A18.85,18.85,0,0,1,189.27,178.32Z" transform="translate(-0.27 -0.27)"/><path class="cls-4" d="M162,150c-2-1.06-3.9-2.46-6.31-2.61-2.12-.13-4.08.11-4.88,2.45s.79,3.59,2.53,4.51c2,1,4,1.86,6,2.82,6.07,2.87,8.19,6.27,7.45,11.87-.69,5.16-4.33,8.6-10.45,9.51a17.44,17.44,0,0,1-14.8-4.5c-1-.87-1.45-1.51-.12-2.54s2.12-2.64,3.49-3.2c1.62-.66,2.36,1.55,3.71,2.22,2.31,1.14,4.63,1.76,7.13.93a3.82,3.82,0,0,0,2.89-3.17,3.42,3.42,0,0,0-1.85-3.59c-1.35-.82-2.8-1.5-4.22-2.2-.93-.46-1.9-.82-2.82-1.28-7.66-3.81-9.32-10-4.61-17.08a15.93,15.93,0,0,1,19.57-.69c1.3.93,2,1.65.41,3A36.19,36.19,0,0,0,162,150Z" transform="translate(-0.27 -0.27)"/><path class="cls-4" d="M121.31,144.71a3.72,3.72,0,0,0-.2.69c-.25,2.47-.91,3.64-4,3.1-4.17-.72-7.48,2.89-7.48,7.2,0,6.69-.06,13.38,0,20.07,0,1.68-.46,2.27-2.13,2.1-2-.21-4.71.84-6-.41s-.35-3.93-.38-6c-.07-6.21-.07-12.42-.1-18.63,0-3.27.12-6.54.06-9.81,0-1.32.3-2,1.71-1.75a4.92,4.92,0,0,0,.72,0c1.6,0,3.43-.47,4.72.16s.35,2.91,1.19,4.34c.91-1,1.74-2.06,2.7-3a8.91,8.91,0,0,1,7.5-2.35c1.9.19,2.73.91,2,2.86A7.79,7.79,0,0,0,121.31,144.71Z" transform="translate(-0.27 -0.27)"/><path class="cls-5" d="M126,177.71l-.08-34c-.31-2.15.72-2.55,2.7-2.51,5.71.13,5.72,0,5.72,5.87,0,9.33-.1,18.66.07,28,0,2.41-.68,3-2.91,2.77C129.72,177.66,127.88,177.75,126,177.71Z" transform="translate(-0.27 -0.27)"/><path class="cls-6" d="M130.11,135.24c-4.05,0-4.05,0-4.05-4.15,0-3.83,0-3.83,4.15-3.83s4.21,0,4.21,4S134.41,135.24,130.11,135.24Z" transform="translate(-0.27 -0.27)"/><path class="cls-7" d="M231,147.54a6.48,6.48,0,0,1,6.13,7.68c-.36,1.83-1.61.09-2.39.41-1.16-2.13-2.33-4.25-3.46-6.39C231.06,148.72,230.49,148.2,231,147.54Z" transform="translate(-0.27 -0.27)"/><path class="cls-4" d="M314.45,161.77c-3.59,0-7.18.1-10.77,0-1.91-.07-2.18.67-1.7,2.24,1.15,3.75,3.29,6.68,7.29,7.46s8,.13,10.53-3.44c1.29-1.78,2.07-1.67,3.65-.51,3.83,2.82,3.93,2.79.44,6.23-5.64,5.55-12.43,6.3-19.51,3.82s-10.44-8.35-11.06-15.63c-.85-9.89,4.31-18.12,12.66-20.71,10.93-3.38,23.36,4.3,21.64,19.11-.15,1.27-.79,1.5-1.92,1.49C321.95,161.73,318.2,161.77,314.45,161.77Z" transform="translate(-0.27 -0.27)"/><path class="cls-4" d="M386.2,177.75c-2.23,0-4.47,0-6.7.11-1.34.07-1.56-.5-1.55-1.67q0-16.64,0-33.29c0-1.24.34-1.59,1.6-1.63,6.68-.22,6.68-.26,6.68,6.32q0,15.09,0,30.18Z" transform="translate(-0.27 -0.27)"/><path class="cls-4" d="M382,135.24c-4,0-4,0-4-3.93s0-4,3.92-4c4.35,0,4.35,0,4.35,4.3C386.22,135.24,386.22,135.24,382,135.24Z" transform="translate(-0.27 -0.27)"/><path class="cls-8" d="M285.17,148.05l-1.51-2.85c.53-.5,1.23-.74,1.63-.08A2.72,2.72,0,0,1,285.17,148.05Z" transform="translate(-0.27 -0.27)"/><path class="cls-9" d="M472.93,155.6c-2.39,0-4.79,0-7.18,0-.88,0-1.28-.1-1.05-1.2a9.2,9.2,0,0,1,8.56-7.1c3.91-.11,7,2.52,8,6.52.35,1.43,0,1.85-1.41,1.8C477.56,155.54,475.25,155.6,472.93,155.6Z" transform="translate(-0.27 -0.27)"/><path class="cls-2" d="M237.2,165.77c.82,2.78-1.09,4.28-3.57,5.44-2.9,1.36-5.84,1.81-8.6-.15s-2.5-6.83.72-8.68c3.39-2,7-1.57,10.69-.88.77.15.75.7.76,1.26C237.21,163.63,237.2,164.51,237.2,165.77Z" transform="translate(-0.27 -0.27)"/><path class="cls-2" d="M67.61,160.08a24,24,0,0,0,0-3.11c-.52-3.94,1.48-6.39,4.77-7.94,3.59-1.69,7.15-1.55,10.35,1,5.53,4.36,5.68,14.31.35,18.92-4.19,3.62-11.82,2.72-14.94-1.82-1.12-1.63-.29-3.57-.5-5.35A14.38,14.38,0,0,1,67.61,160.08Z" transform="translate(-0.27 -0.27)"/><path class="cls-2" d="M182.55,160a21.82,21.82,0,0,0,0-2.87c-.53-4,1.32-6.57,4.76-8.16,3.61-1.66,7.16-1.49,10.34,1,5.58,4.4,5.6,14.55.09,19.07-4.11,3.38-11.38,2.46-14.62-1.81a3,3,0,0,1-.57-2C182.56,163.54,182.55,161.78,182.55,160Z" transform="translate(-0.27 -0.27)"/><path class="cls-10" d="M310.48,155.6c-2.31,0-4.61,0-6.92,0-.82,0-1.36-.08-1.19-1.17.55-3.53,4.34-6.83,8.28-7.11s7,2.09,8.18,5.94c.53,1.68.41,2.52-1.68,2.37S312.7,155.6,310.48,155.6Z" transform="translate(-0.27 -0.27)"/></g></g></svg>