<svg xmlns="http://www.w3.org/2000/svg" viewBox="0 0 523.08 274.66"><defs><style>.cls-1{fill:#0065b2;}.cls-2{fill:#e7eaec;}.cls-3{fill:#0768b3;}</style></defs><title>miamiherald</title><g id="Layer_2" data-name="Layer 2"><g id="Layer_1-2" data-name="Layer 1"><path class="cls-1" d="M261.94,275q-129.77,0-259.54,0c-1.63,0-2-.37-2-2Q.46,137.72.4,2.4c0-1.63.37-2,2-2Q261.94.46,521.47.4c1.63,0,2,.37,2,2q-.07,135.33,0,270.65c0,1.63-.37,2-2,2Q391.71,275,261.94,275ZM44.28,173.46c5.3-3.14,6.58-3.52,10.87-2.73,2.5.46,4.93,1.23,7.43,1.67,7.15,1.25,13.91-1.31,13.64-11.07-.19-6.68,0-13.36-.06-20,0-1.42.4-1.91,1.84-1.85,2.68.1,5.38.14,8.06,0,1.72-.09,2,.57,2,2.13-.09,5.45-.15,10.9,0,16.34a4.86,4.86,0,0,1-2.51,4.92,15.39,15.39,0,0,0-6.47,8.69c7.8-4.52,14.9-3.58,21.83.66.88.54,1.33-.08,1.89-.5,2.85-2.13,5.76-4.19,8.5-6.45,1.43-1.18,2.38-1,3.7.12,2.45,2.16,5,4.15,7.6,6.19.52.42,1,1.25,1.8.38l7.12-7.65a20.18,20.18,0,0,1-5-2.4,2.64,2.64,0,0,1-1.48-2.61q.07-21.9,0-43.8a2.76,2.76,0,0,1,1.3-2.51,10,10,0,0,0,3.56-5.34c.39-1.26.38-1.88-1.33-1.46-5.07,1.24-9.68.51-13.28-3.67-.71-.82-1.35-.54-2.09-.1-1.94,1.14-3.88,2.29-5.87,3.34-2.36,1.25-4.54,3.74-7,3.55s-4.73-2.5-6.62-4.33c-3.48-3.38-6.49-3.43-10.48-.59-4.89,3.48-10.38,6.11-15.48,9.3-4.48,2.8-7.42,6.68-7.38,12.29,0,1.38.34,2.91-.15,4.1-.65,1.59-2.57.62-3.87,1.09-2.73,1-4.75,2.58-5.25,5.54a6.52,6.52,0,0,0,2.42,6.76,4.9,4.9,0,0,1,4.58-3.95c1.57-.18,2.45.1,2.3,2a64.57,64.57,0,0,0,0,6.53c.1,3.8,0,7.54-3.14,10.56,8.34-.06,13.41-5.08,13.41-13,0-10,.07-19.9-.06-29.85,0-2,.52-3.16,2.29-3.86.59-.23,1.12-1,1.72-.71s.33,1.31.33,2q0,22.22,0,44.45a17,17,0,0,1-.08,2.17c-.38,2.91-1.78,4.21-4.72,4.41a26.59,26.59,0,0,1-8-1,26.27,26.27,0,0,0-9-1C47.53,162.76,43.33,168.12,44.28,173.46Zm141.17-41.52c.65.28,1.18.48,1.68.74,2.43,1.26,4,2.78,3.88,6-.26,9.21-.09,18.44-.09,27.66a2.81,2.81,0,0,0,.67,2.39c4.28,4.09,4.26,4.12,8.5.13.48-.45.91-.94,1.42-1.35.95-.75,1.49-1.41-.09-2.06-1.1-.45-1.29-1.37-1.28-2.49,0-8.93,0-17.86,0-26.79a2.41,2.41,0,0,1,.67-2c3.33-3.3,3.48-3.34,7.29-.74a8.51,8.51,0,0,0,1.08.73c1.5.71,1.91,1.85,1.89,3.5-.09,8.42.23,16.85-.16,25.26-.19,4.08,1.08,6.68,4.45,8.69,1.07.63,1.57.58,2.36-.22,1.37-1.4,2.8-2.75,4.24-4.06.74-.67,1.05-1.25-.09-1.72-1.4-.58-1.54-1.67-1.53-3,0-8.64.16-17.28-.06-25.92-.07-2.59,1.43-3.6,3-4.75s2.28.68,3.38,1.11,1.82,1.21,2.8,1.66c1.33.61,1.63,1.56,1.62,3-.06,8.93,0,17.86-.06,26.79a3,3,0,0,0,1.43,2.89,52.61,52.61,0,0,1,5.61,4.13c1.19,1,1.77.68,2.57-.37a63.07,63.07,0,0,1,4-4.84c1.06-1.13,1.13-1.54-.53-2-3.64-1.08-3.74-1.36-3.74-5.18,0-8.42,0-16.84,0-25.26a3.13,3.13,0,0,0-1.75-3.13c-2.7-1.57-5.36-3.2-7.92-5-1.1-.76-1.69-.54-2.58.24-2.06,1.83-4.29,3.47-6.34,5.31-1,.93-1.75.82-2.79,0-2.43-1.84-5-3.49-7.41-5.36a1.72,1.72,0,0,0-2.59.1c-2.17,1.81-4.47,3.48-6.64,5.29a1.7,1.7,0,0,1-2.61,0c-2.27-1.92-4.66-3.7-7-5.56-.61-.49-1.07-.86-1.79,0C189.3,127.81,187.41,129.8,185.45,131.94Zm123.4,39.17c.57.11.92-.32,1.36-.55,4.52-2.35,9.15-3,14.07-1.22,1.51.56,2.66,2.63,4.22,1.91s2.46-2.39,3.66-3.65l.3-.32c3.48-3.73,3.49-3.79-1.53-5.44a1.86,1.86,0,0,1-1.53-2.15q.06-23.2,0-46.39a2.66,2.66,0,0,1,1.28-2.5,11.2,11.2,0,0,0,4.45-5.75c.13-.4.31-1,.14-1.25-.34-.58-.92-.12-1.37,0a16.24,16.24,0,0,1-11.28-.52c-1.28-.56-2.26-2.37-3.68-1.74-1.22.55-2,2-3,3.06-4.47,4.72-4.45,4.87,1.83,7,1.05.36,1.52.79,1.5,2-.06,4.94-.07,9.87,0,14.81,0,1.46-.52,1.85-1.91,1.82-4.28-.08-8.57-.1-12.85,0-1.64,0-2.1-.45-2.08-2.08.08-8.13.05-16.26,0-24.39,0-.72.63-2.14-.67-2.09s-.55,1.42-.55,2.15q-.06,27.88,0,55.76c0,1.93-.41,2.12-2.11,1.41a23.47,23.47,0,0,0-12-1.39c-6.39.78-12.18,5.69-13.06,11,.13,0,.3.11.4.06,7.94-3.73,15.79-4,23.5.65.56.33,1,.44,1.49-.16,2.55-3.16,5.14-6.3,7.72-9.44.22-.27.53-.56.19-.93-.48-.52-.74,0-1,.26s-.49.53-.75.79a2.22,2.22,0,0,1-2.35.74c-1.09-.35-.73-1.3-.73-2,0-6.61,0-13.21,0-19.82,0-1.44.32-2.07,1.92-2,4.35.1,8.71.09,13.07,0,1.46,0,1.85.49,1.84,1.88-.05,6-.06,12.05,0,18.08,0,1.44-.5,1.93-1.86,2.33C312.88,162.27,309.11,166.87,308.85,171.11Zm139.7-60.76a28.9,28.9,0,0,1,3.34,2.42c3.7,3.59,7.29,7.28,11,10.88,1,1,.54,1.37-.38,1.89-3.55,2-7.07,4-10.65,5.93a2.48,2.48,0,0,0-1.55,2.51q.09,13.83,0,27.66a2.65,2.65,0,0,0,1.34,2.48c3.24,2.2,6.49,4.4,9.61,6.76,1.15.87,1.79.67,2.71-.2a77.54,77.54,0,0,1,14.6-10.95,2.37,2.37,0,0,0,1.33-2.42c0-9.15,0-18.29,0-27.44a3.25,3.25,0,0,0-.85-2.56q-10.9-11.11-21.72-22.3c-.62-.64-1-.77-1.8-.15C453.26,106.69,451,108.45,448.56,110.35ZM161.17,146.78c-3,1.41-5.46,2.75-7.21,5.06-4.25,5.62-2.52,14.6,3.64,19.38,1.38,1.07,2.5,1.36,4,.14a45.5,45.5,0,0,1,4.36-2.86c5-3.26,5-3.26,9.83.38,1.49,1.13,3,3.07,4.55,3.07s2.51-2.52,3.8-3.86c.4-.42.73-.9,1.14-1.31.88-.89.76-1.34-.48-1.72-2.61-.79-3.56-2.45-3.48-5.35.24-8.19.05-16.39.12-24.59a2.87,2.87,0,0,0-1.52-2.8c-3.37-2.13-6.69-4.34-10-6.59a1.7,1.7,0,0,0-2.29,0A87.86,87.86,0,0,1,156,132.46a1.86,1.86,0,0,0-1.23,2c.07,2.25.11,4.5,0,6.74a2.47,2.47,0,0,0,1.57,2.71C157.84,144.66,159.28,145.65,161.17,146.78Zm241.19-.59c-.77.38-1.29.63-1.8.9-3.86,2-6.86,4.82-7.36,9.34A14.94,14.94,0,0,0,399.67,171a2,2,0,0,0,2.7.09c2.58-1.75,5.3-3.3,7.86-5.08,1.58-1.11,2.78-1.25,4.32.15,1.87,1.7,4,3.08,6,4.67.89.72,1.51.89,2.3-.16a58.36,58.36,0,0,1,3.79-4.48c.95-1,.78-1.39-.52-1.83-2.28-.77-3.51-2.05-3.42-4.92.27-8.27.06-16.55.13-24.82a3.07,3.07,0,0,0-1.58-3q-5-3.12-9.81-6.48a2,2,0,0,0-2.7.08,76.32,76.32,0,0,1-10.9,6.34,2.42,2.42,0,0,0-1.68,2.64,45.48,45.48,0,0,1,0,5.88c-.11,1.64.29,2.73,1.93,3.37A15.57,15.57,0,0,1,402.35,146.19Zm44.89,18.24c-.84-.32-1.58-.59-2.3-.89-3.28-1.38-3.32-1.44-3.32-4.91q0-25.8,0-51.59,0-.76,0-1.52c0-1-.35-1.19-1.16-.59q-4.82,3.54-9.66,7.07c-.44.32-.89.69-.2,1.16,1.88,1.26,1.75,3.16,1.75,5.07q0,22.75,0,45.5c0,1-.17,2,.91,2.7,2.22,1.51,4.36,3.13,6.5,4.74.62.47,1.07.57,1.64-.09C443.29,168.88,445.22,166.72,447.24,164.43Zm-78.47-15.17h0c0,4.36,0,8.71,0,13.07a2.73,2.73,0,0,0,1.4,2.64c2.91,1.91,5.76,3.91,8.58,6,.89.65,1.47.87,2.34-.09,2.24-2.47,4.61-4.83,6.91-7.25.32-.34,1-.69.57-1.22s-.89,0-1.24.36a3.57,3.57,0,0,1-4.43.36,34.27,34.27,0,0,0-3.09-1.59,2.64,2.64,0,0,1-1.72-2.87c.06-8.13,0-16.26,0-24.39,0-.63-.22-1.42.45-1.8s1.13.42,1.58.8c5,4.14,11.64,2.65,14.34-3.19.48-1,.33-1.39-.81-1.52a12.89,12.89,0,0,1-7.61-3.4c-.74-.7-1.13-.55-1.75.08-1.53,1.55-3.19,3-4.68,4.54-1,1.06-1.74,1.17-2.87.17-1.9-1.69-4-3.19-5.89-4.83-.81-.68-1.37-.8-2.12.12a51.59,51.59,0,0,1-4.06,4.54c-1.21,1.18-1,1.67.47,2.33,2.56,1.15,4,2.89,3.69,6.08C368.5,141.84,368.77,145.57,368.77,149.27Zm-30.26.22c0,4.35,0,8.7,0,13.05a2.25,2.25,0,0,0,1,2.2c3.07,2.06,6.09,4.2,9.09,6.35.77.55,1.26.63,2-.14,2.74-2.89,5.58-5.69,8.36-8.55.37-.38,1.2-.8.7-1.37-.68-.77-1.12.2-1.54.58-3,2.78-3.25,2.82-6.73.79-.69-.4-1.34-.87-2.06-1.21a2.68,2.68,0,0,1-1.59-3c.12-2.61.1-5.22,0-7.83a2.72,2.72,0,0,1,1.52-2.78c4.42-2.64,8.75-5.43,13.17-8.06,1.23-.73,1.4-1.31.58-2.52q-3.76-5.59-7.3-11.33c-.7-1.14-1.13-1.31-2.29-.51q-6.62,4.56-13.41,8.88a2.85,2.85,0,0,0-1.51,2.8C338.56,141.07,338.51,145.28,338.51,149.49ZM284.7,157a14.87,14.87,0,0,0,12-14.43c0-8.06.07-16.11.05-24.17a40.27,40.27,0,0,1,1-6.57c-7.53,1.93-11.21,6.73-11.27,14.43,0,3.6,0,3.6-3.64,4a7.08,7.08,0,0,0-6.26,5.24,6.42,6.42,0,0,0,2.24,7c.81-3,3.16-3.68,5.87-3.83,1.31-.07,1.83.35,1.8,1.69-.06,2.61,0,5.23,0,7.84C286.54,151.23,287,154.35,284.7,157Zm-148.77-6.59c0,3.48.27,7-.07,10.43-.39,4,.51,7,4.38,8.79a13.71,13.71,0,0,1,2.95,2.21c.71.61,1.18.56,1.77-.17,1.32-1.64,2.64-3.28,4.09-4.8,1.27-1.33,1.67-2-.6-2.74-3.42-1.13-3.36-1.32-3.36-5,0-7.32-.39-14.67.13-22,.37-5.24-1-8.92-5.75-11.17a.57.57,0,0,1-.17-.13c-.77-.84-1.37-.73-2.1.15-1.28,1.57-2.63,3.09-4,4.55-.92,1-1.14,1.52.34,2.1,1.88.74,2.57,2.13,2.49,4.25C135.81,141.38,135.93,145.88,135.93,150.37ZM245.79,132c3.45.89,4.1,3,4,6-.2,8.85,0,17.7-.1,26.56a3,3,0,0,0,1.41,2.89c2,1.32,3.9,2.77,5.78,4.26.87.69,1.38.7,2.1-.22,1.29-1.66,2.66-3.26,4.1-4.79,1.12-1.19,1.52-1.79-.54-2.47C259,163,259,162.81,259,159.11q0-13.61,0-27.21c0-.92.14-1.83-.87-2.5-1.75-1.16-3.43-2.43-5.09-3.73-.73-.57-1.17-.53-1.78.19C249.58,127.84,247.81,129.75,245.79,132Zm27.95-17.82c2.88-4.44,6.61-4.7,10.78-3.38.9.29,1.8.56,2.71.8,4.7,1.24,10.86-3.59,10.9-8.55-3.54,1.75-4.88,1.85-8.74.64-1-.3-1.93-.62-2.92-.85C279.53,101.18,273.34,106.42,273.74,114.18ZM73.18,103.6c-4.71,1.74-4.85,1.74-9.79.25a28.18,28.18,0,0,0-3.16-.83c-6.29-1.13-12.67,5-11.64,11.59,2.08-3.73,5.2-4.56,8.83-3.88a40,40,0,0,1,5,1.41,5.6,5.6,0,0,0,4.24-.32C70.2,110.18,71.89,107,73.18,103.6ZM258.93,113c-.5-1-1.46-1.47-2.21-2.1-1.21-1-2.45-2.74-3.72-2.78s-2.17,2.07-3.26,3.21c-2.21,2.32-2.18,2.36.39,4.28,1.26.95,2.56,2.6,3.83,2.59s2.13-2.13,3.24-3.25C257.81,114.28,258.35,113.61,258.93,113Zm-119.78-5.14a2.45,2.45,0,0,0-.59.34c-1.47,1.61-2.92,3.23-4.38,4.85-.62.69,0,1,.41,1.36a27.21,27.21,0,0,1,3.44,2.65c1.59,1.68,2.65,1.34,3.8-.44.89-1.38,3.13-2.46,2.89-3.8s-2.3-2.21-3.56-3.29C140.52,108.92,139.84,108.37,139.16,107.81Z" transform="translate(-0.4 -0.4)"/><path class="cls-2" d="M44.28,173.46c-.95-5.33,3.25-10.7,8.82-11.31a26.27,26.27,0,0,1,9,1,26.59,26.59,0,0,0,8,1c2.94-.19,4.34-1.5,4.72-4.41a17,17,0,0,0,.08-2.17q0-22.22,0-44.45c0-.67.42-1.59-.33-2s-1.13.47-1.72.71c-1.76.7-2.31,1.89-2.29,3.86.13,9.95.06,19.9.06,29.85,0,7.89-5.07,12.91-13.41,13,3.14-3,3.24-6.76,3.14-10.56a64.57,64.57,0,0,1,0-6.53c.15-1.91-.73-2.19-2.3-2a4.9,4.9,0,0,0-4.58,3.95,6.52,6.52,0,0,1-2.42-6.76c.5-3,2.52-4.56,5.25-5.54,1.31-.47,3.22.5,3.87-1.09.49-1.19.16-2.72.15-4.1,0-5.6,2.9-9.49,7.38-12.29,5.11-3.19,10.59-5.82,15.48-9.3,4-2.84,7-2.79,10.48.59,1.89,1.83,4.13,4.14,6.62,4.33s4.68-2.3,7-3.55c2-1,3.93-2.2,5.87-3.34.75-.44,1.39-.72,2.09.1,3.6,4.18,8.21,4.91,13.28,3.67,1.71-.42,1.72.2,1.33,1.46a10,10,0,0,1-3.56,5.34,2.76,2.76,0,0,0-1.3,2.51q.07,21.9,0,43.8a2.64,2.64,0,0,0,1.48,2.61,20.18,20.18,0,0,0,5,2.4l-7.12,7.65c-.81.87-1.28,0-1.8-.38-2.55-2-5.14-4-7.6-6.19-1.32-1.16-2.27-1.3-3.7-.12-2.74,2.26-5.65,4.32-8.5,6.45-.55.42-1,1-1.89.5-6.93-4.24-14-5.18-21.83-.66a15.39,15.39,0,0,1,6.47-8.69,4.86,4.86,0,0,0,2.51-4.92c-.17-5.44-.11-10.89,0-16.34,0-1.56-.3-2.22-2-2.13-2.68.14-5.38.11-8.06,0-1.44-.06-1.86.43-1.84,1.85.06,6.68-.13,13.37.06,20,.27,9.76-6.49,12.32-13.64,11.07-2.5-.44-4.94-1.21-7.43-1.67C50.86,169.94,49.58,170.31,44.28,173.46Zm59.23-22.53c0,3.26,0,6.53,0,9.79,0,.7-.17,1.47.63,1.94a14.09,14.09,0,0,0,4.53,2c2.05.36,6.23-3,6.24-5,0-6.24,0-12.47,0-18.71,0-1.27-.46-1.62-1.66-1.59-2.68.07-5.37.08-8,0-1.31,0-1.79.37-1.76,1.72C103.57,144.4,103.52,147.66,103.51,150.92ZM76.17,120.18h0c0,3,0,6,0,8.92,0,1.16.24,1.73,1.55,1.7,2.9-.07,5.81-.07,8.71,0,1.25,0,1.63-.43,1.6-1.65-.07-2.68,0-5.37,0-8.05,0-8,0-8-6.56-12.42-.68-.46-1.36-1.25-2.29-.43-1.1,1-3.11,1-3,3.23C76.27,114.37,76.17,117.28,76.17,120.18Zm27.35-.35c0,3.12,0,6.24,0,9.36,0,1.22.4,1.66,1.63,1.63,2.68-.07,5.37-.08,8.05,0,1.3,0,1.79-.36,1.78-1.71-.06-4.64-.05-9.28,0-13.93,0-1.1-.27-1.7-1.41-2a14.29,14.29,0,0,1-6.18-3.91c-.54-.54-.89-1.66-2.07-1-1,.6-1.87,1.16-1.81,2.64C103.61,113.88,103.52,116.85,103.52,119.83Zm-1.31-9.54C98.1,112,98.1,112,98.1,115.87q0,21,0,42a12.59,12.59,0,0,0,0,1.74c.29,2,2.21,1.61,3.38,1.89s.67-1.16.67-1.81c0-9.65,0-19.3,0-29C102.21,124,102.21,117.27,102.21,110.29Z" transform="translate(-0.4 -0.4)"/><path class="cls-2" d="M185.45,131.94c2-2.14,3.84-4.13,5.64-6.2.71-.82,1.17-.45,1.79,0,2.32,1.86,4.71,3.64,7,5.56a1.7,1.7,0,0,0,2.61,0c2.17-1.81,4.47-3.47,6.64-5.29a1.72,1.72,0,0,1,2.59-.1c2.41,1.87,5,3.52,7.41,5.36,1,.79,1.76.9,2.79,0,2.05-1.84,4.28-3.48,6.34-5.31.89-.79,1.49-1,2.58-.24,2.56,1.77,5.23,3.41,7.92,5a3.13,3.13,0,0,1,1.75,3.13c-.07,8.42,0,16.84,0,25.26,0,3.82.1,4.1,3.74,5.18,1.67.5,1.59.91.53,2a63.07,63.07,0,0,0-4,4.84c-.8,1-1.38,1.4-2.57.37a52.61,52.61,0,0,0-5.61-4.13,3,3,0,0,1-1.43-2.89c0-8.93,0-17.86.06-26.79,0-1.39-.3-2.34-1.62-3-1-.45-1.8-1.28-2.8-1.66s-1.89-2.17-3.38-1.11-3.11,2.17-3,4.75c.22,8.63.1,17.28.06,25.92,0,1.33.13,2.42,1.53,3,1.15.47.83,1.05.09,1.72-1.45,1.32-2.88,2.66-4.24,4.06-.78.8-1.29.86-2.36.22-3.38-2-4.64-4.61-4.45-8.69.39-8.4.07-16.84.16-25.26,0-1.66-.39-2.79-1.89-3.5a8.51,8.51,0,0,1-1.08-.73c-3.81-2.6-4-2.56-7.29.74a2.41,2.41,0,0,0-.67,2c0,8.93,0,17.86,0,26.79,0,1.12.18,2,1.28,2.49,1.58.65,1,1.31.09,2.06-.51.41-.95.9-1.42,1.35-4.23,4-4.21,4-8.5-.13a2.81,2.81,0,0,1-.67-2.39c0-9.22-.18-18.44.09-27.66.09-3.23-1.45-4.75-3.88-6C186.63,132.41,186.1,132.22,185.45,131.94Z" transform="translate(-0.4 -0.4)"/><path class="cls-2" d="M308.85,171.1c.26-4.23,4-8.83,8.56-10.15,1.36-.4,1.87-.89,1.86-2.33-.07-6-.07-12.05,0-18.08,0-1.38-.38-1.91-1.84-1.88-4.35.09-8.71.1-13.07,0-1.6,0-1.94.59-1.92,2,.06,6.61,0,13.21,0,19.82,0,.73-.36,1.69.73,2a2.22,2.22,0,0,0,2.35-.74c.26-.26.48-.54.75-.79s.55-.78,1-.26c.34.37,0,.66-.19.93-2.57,3.15-5.16,6.28-7.72,9.44-.49.61-.93.5-1.49.16-7.71-4.6-15.56-4.38-23.5-.65-.1,0-.26,0-.4-.07.87-5.3,6.67-10.21,13.06-11a23.47,23.47,0,0,1,12,1.39c1.7.7,2.12.52,2.11-1.41q-.1-27.88,0-55.76c0-.74-.6-2.11.55-2.15s.66,1.37.67,2.09c.06,8.13.08,16.26,0,24.39,0,1.63.45,2.12,2.08,2.08,4.28-.11,8.57-.08,12.85,0,1.39,0,1.93-.37,1.91-1.82-.07-4.94-.06-9.87,0-14.81,0-1.17-.45-1.59-1.5-2-6.28-2.13-6.3-2.28-1.83-7,1-1.05,1.81-2.52,3-3.06,1.42-.63,2.4,1.18,3.68,1.74a16.24,16.24,0,0,0,11.28.52c.45-.13,1-.59,1.37,0,.17.29,0,.85-.14,1.25a11.2,11.2,0,0,1-4.45,5.75,2.66,2.66,0,0,0-1.28,2.5q.05,23.2,0,46.39a1.86,1.86,0,0,0,1.53,2.15c5,1.65,5,1.7,1.53,5.44l-.3.32c-1.2,1.26-2.19,3-3.66,3.65s-2.72-1.36-4.22-1.91c-4.92-1.81-9.55-1.13-14.07,1.22C309.78,170.78,309.42,171.21,308.85,171.1Z" transform="translate(-0.4 -0.4)"/><path class="cls-2" d="M448.56,110.35c2.41-1.9,4.71-3.66,6.93-5.5.75-.62,1.17-.49,1.8.15q10.83,11.18,21.72,22.3a3.25,3.25,0,0,1,.85,2.56c0,9.15,0,18.3,0,27.44a2.37,2.37,0,0,1-1.33,2.42A77.54,77.54,0,0,0,464,170.68c-.93.88-1.56,1.07-2.71.2-3.12-2.36-6.37-4.57-9.61-6.76a2.65,2.65,0,0,1-1.34-2.48q.07-13.83,0-27.66a2.48,2.48,0,0,1,1.55-2.51c3.58-1.92,7.09-4,10.65-5.93.92-.51,1.36-.93.38-1.89-3.68-3.6-7.28-7.29-11-10.88A28.9,28.9,0,0,0,448.56,110.35Zm22.14,37.19h0c0-3.34-.26-6.7.06-10,.41-4.24-.57-7.66-4.25-10.06-.83-.54-1.29-2.27-2.56-1.34-1.65,1.2-4.47,1.16-4.4,4.34.13,6.52,0,13.05.06,19.58,0,2.82-1,6.06.41,8.33,1.51,2.48,4.77,3.64,7.35,5.24q3.33,2.05,3.34-2C470.71,157,470.69,152.25,470.69,147.54Z" transform="translate(-0.4 -0.4)"/><path class="cls-2" d="M161.17,146.78c-1.89-1.13-3.33-2.12-4.88-2.89a2.47,2.47,0,0,1-1.57-2.71c.12-2.24.08-4.5,0-6.74a1.86,1.86,0,0,1,1.23-2,87.86,87.86,0,0,0,11.65-6.76,1.7,1.7,0,0,1,2.29,0c3.29,2.25,6.61,4.47,10,6.59a2.87,2.87,0,0,1,1.52,2.8c-.06,8.2.12,16.4-.12,24.59-.08,2.9.87,4.56,3.48,5.35,1.25.38,1.37.84.48,1.72-.41.41-.74.9-1.14,1.31-1.29,1.35-2.21,3.86-3.8,3.86s-3.06-1.93-4.55-3.07c-4.79-3.64-4.78-3.65-9.83-.38a45.5,45.5,0,0,0-4.36,2.86c-1.48,1.22-2.59.92-4-.14-6.16-4.78-7.89-13.76-3.64-19.38C155.7,149.53,158.18,148.19,161.17,146.78Zm11,9.06c0-2,0-4.05,0-6.08,0-.54.15-1.12-.45-1.56-2.3-1.68-8.13-.52-9.63,2-2.55,4.19-1,12.76,2.82,15.85a1.71,1.71,0,0,0,2.13.29c5.13-2.55,5.15-2.52,5.15-8.28Q172.14,156.92,172.14,155.84Zm-10.38-17.4c0,2.25,0,4.5,0,6.75,0,1,.16,1.55,1.33,1.3a19.15,19.15,0,0,1,8,0c.73.15,1.08,0,1.07-.83,0-2.54,0-5.08,0-7.62a1.46,1.46,0,0,0-.76-1.24l-8.24-5.69c-1-.69-1.4-.43-1.39.76C161.78,134.09,161.76,136.26,161.76,138.44Z" transform="translate(-0.4 -0.4)"/><path class="cls-2" d="M402.35,146.19a15.57,15.57,0,0,0-4.25-2.79c-1.65-.64-2-1.72-1.93-3.37a45.48,45.48,0,0,0,0-5.88,2.42,2.42,0,0,1,1.68-2.64,76.32,76.32,0,0,0,10.9-6.34,2,2,0,0,1,2.7-.08q4.83,3.35,9.81,6.48a3.07,3.07,0,0,1,1.58,3c-.06,8.27.14,16.56-.13,24.82-.09,2.87,1.14,4.15,3.42,4.92,1.3.44,1.47.81.52,1.83a58.36,58.36,0,0,0-3.79,4.48c-.79,1.05-1.41.88-2.3.16-2-1.59-4.14-3-6-4.67-1.54-1.4-2.74-1.26-4.32-.15-2.55,1.79-5.27,3.34-7.86,5.08a2,2,0,0,1-2.7-.09,14.94,14.94,0,0,1-6.47-14.55c.49-4.53,3.49-7.34,7.36-9.34C401.06,146.83,401.58,146.58,402.35,146.19Zm11.22,9c0-2,0-4.06,0-6.08,0-.55.13-1.15-.45-1.58-3-2.27-9.2-.32-10.22,3.36a15,15,0,0,0,1.35,12c1.93,3.33,2.78,3.53,6,1.66a7.5,7.5,0,0,1,.94-.54,3.4,3.4,0,0,0,2.4-4A38.74,38.74,0,0,1,413.58,155.17Zm0-13.82c0-1.29,0-2.38,0-3.46a2,2,0,0,0-1-2q-3.87-2.63-7.67-5.37c-1.25-.9-1.74-.72-1.72.88,0,4.28.07,8.57,0,12.85,0,1.57.44,1.81,1.9,1.45a26.83,26.83,0,0,1,4.1-.31c1.43-.12,3.22,1.11,4.11.14S413.44,142.66,413.58,141.35Z" transform="translate(-0.4 -0.4)"/><path class="cls-2" d="M447.24,164.43c-2,2.29-4,4.44-5.84,6.64-.57.67-1,.56-1.64.09-2.14-1.61-4.29-3.24-6.5-4.74-1.08-.73-.91-1.71-.91-2.7q0-22.75,0-45.5c0-1.91.12-3.81-1.75-5.07-.69-.46-.24-.84.2-1.16q4.83-3.53,9.66-7.07c.82-.6,1.16-.36,1.16.59q0,.76,0,1.52,0,25.8,0,51.59c0,3.47,0,3.53,3.32,4.91C445.66,163.85,446.4,164.11,447.24,164.43Z" transform="translate(-0.4 -0.4)"/><path class="cls-2" d="M368.77,149.27c0-3.7-.27-7.43.08-11.1.3-3.19-1.13-4.93-3.69-6.08-1.46-.65-1.69-1.15-.47-2.33a51.59,51.59,0,0,0,4.06-4.54c.75-.92,1.31-.8,2.12-.12,1.94,1.64,4,3.14,5.89,4.83,1.13,1,1.87.89,2.87-.17,1.49-1.58,3.15-3,4.68-4.54.63-.63,1-.78,1.75-.08a12.89,12.89,0,0,0,7.61,3.4c1.14.13,1.29.48.81,1.52-2.7,5.83-9.39,7.33-14.34,3.19-.45-.38-.8-1.24-1.58-.8s-.45,1.17-.45,1.8c0,8.13,0,16.26,0,24.39a2.64,2.64,0,0,0,1.72,2.87,34.27,34.27,0,0,1,3.09,1.59,3.57,3.57,0,0,0,4.43-.36c.35-.31.77-.94,1.24-.36s-.25.88-.57,1.22c-2.3,2.42-4.67,4.78-6.91,7.25-.87,1-1.45.74-2.34.09-2.82-2-5.67-4-8.58-6a2.73,2.73,0,0,1-1.4-2.64c.07-4.35,0-8.71,0-13.07Z" transform="translate(-0.4 -0.4)"/><path class="cls-2" d="M338.51,149.49c0-4.21,0-8.41,0-12.62a2.85,2.85,0,0,1,1.51-2.8q6.78-4.33,13.41-8.88c1.16-.8,1.59-.63,2.29.51q3.53,5.74,7.3,11.33c.81,1.21.64,1.79-.58,2.52-4.42,2.64-8.75,5.42-13.17,8.06a2.72,2.72,0,0,0-1.52,2.78c.1,2.61.12,5.22,0,7.83a2.68,2.68,0,0,0,1.59,3c.72.33,1.38.8,2.06,1.21,3.48,2,3.69,2,6.73-.79.42-.38.86-1.34,1.54-.58.51.57-.33,1-.7,1.37-2.78,2.86-5.62,5.66-8.36,8.55-.73.77-1.22.7-2,.14-3-2.15-6-4.29-9.09-6.35a2.25,2.25,0,0,1-1-2.2C338.53,158.19,338.51,153.84,338.51,149.49Zm9.38-2.43c2.4-1.5,4.57-2.87,6.76-4.21,1-.6.44-1.17.08-1.8-1.88-3.25-3.75-6.51-5.65-9.74-.22-.38-.33-1-1.19-.82Z" transform="translate(-0.4 -0.4)"/><path class="cls-2" d="M284.7,157c2.29-2.61,1.83-5.73,1.85-8.75,0-2.61,0-5.23,0-7.84,0-1.34-.49-1.76-1.8-1.69-2.72.15-5.06.78-5.87,3.83a6.42,6.42,0,0,1-2.24-7,7.08,7.08,0,0,1,6.26-5.24c3.61-.42,3.61-.42,3.64-4,.06-7.71,3.74-12.51,11.27-14.43a40.27,40.27,0,0,0-1,6.57c0,8.06,0,16.11-.05,24.17A14.87,14.87,0,0,1,284.7,157Z" transform="translate(-0.4 -0.4)"/><path class="cls-2" d="M135.93,150.37c0-4.5-.12-9,.05-13.48.08-2.12-.61-3.51-2.49-4.25-1.48-.58-1.26-1.15-.34-2.1,1.41-1.46,2.76-3,4-4.55.72-.89,1.33-1,2.1-.15a.57.57,0,0,0,.17.13c4.79,2.25,6.13,5.93,5.75,11.17-.52,7.29-.13,14.64-.13,22,0,3.68-.06,3.87,3.36,5,2.27.75,1.86,1.41.6,2.74-1.45,1.52-2.77,3.16-4.09,4.8-.59.73-1.06.79-1.77.17a13.71,13.71,0,0,0-2.95-2.21c-3.87-1.79-4.77-4.79-4.38-8.79C136.2,157.36,135.93,153.85,135.93,150.37Z" transform="translate(-0.4 -0.4)"/><path class="cls-2" d="M245.79,132c2-2.25,3.79-4.16,5.47-6.14.61-.72,1-.76,1.78-.19,1.66,1.3,3.34,2.57,5.09,3.73,1,.67.87,1.57.87,2.5q0,13.61,0,27.21c0,3.7,0,3.93,3.58,5.1,2.06.67,1.66,1.28.54,2.47-1.44,1.53-2.81,3.13-4.1,4.79-.71.92-1.23.91-2.1.22-1.87-1.49-3.78-2.94-5.78-4.26a3,3,0,0,1-1.41-2.89c.05-8.85-.1-17.71.1-26.56C249.9,135,249.25,132.9,245.79,132Z" transform="translate(-0.4 -0.4)"/><path class="cls-2" d="M273.74,114.18c-.4-7.76,5.79-13,12.73-11.34,1,.23,2,.55,2.92.85,3.87,1.21,5.2,1.12,8.74-.64,0,5-6.2,9.79-10.9,8.55-.91-.24-1.81-.51-2.71-.8C280.35,109.48,276.62,109.74,273.74,114.18Z" transform="translate(-0.4 -0.4)"/><path class="cls-2" d="M73.18,103.6c-1.29,3.44-3,6.57-6.49,8.22a5.6,5.6,0,0,1-4.24.32,40,40,0,0,0-5-1.41c-3.63-.68-6.75.15-8.83,3.88-1-6.64,5.35-12.72,11.64-11.59a28.18,28.18,0,0,1,3.16.83C68.33,105.34,68.47,105.34,73.18,103.6Z" transform="translate(-0.4 -0.4)"/><path class="cls-2" d="M258.93,113c-.59.66-1.13,1.33-1.73,1.94-1.11,1.12-1.9,3.24-3.24,3.25s-2.56-1.64-3.83-2.59c-2.57-1.92-2.59-2-.39-4.28,1.08-1.14,1.91-3.26,3.26-3.21s2.51,1.75,3.72,2.78C257.48,111.49,258.43,111.92,258.93,113Z" transform="translate(-0.4 -0.4)"/><path class="cls-2" d="M139.16,107.81c.69.57,1.36,1.11,2,1.67,1.27,1.08,3.33,2,3.56,3.29s-2,2.42-2.89,3.8c-1.15,1.78-2.21,2.12-3.8.44a27.21,27.21,0,0,0-3.44-2.65c-.46-.35-1-.68-.41-1.36,1.46-1.62,2.91-3.24,4.38-4.85A2.45,2.45,0,0,1,139.16,107.81Z" transform="translate(-0.4 -0.4)"/><path class="cls-3" d="M103.52,150.92c0-3.26.05-6.53,0-9.79,0-1.34.44-1.76,1.76-1.72,2.68.08,5.37.07,8,0,1.2,0,1.67.32,1.66,1.59,0,6.24,0,12.47,0,18.71,0,2-4.18,5.34-6.24,5a14.09,14.09,0,0,1-4.53-2c-.8-.47-.63-1.24-.63-1.94C103.5,157.45,103.51,154.19,103.52,150.92Z" transform="translate(-0.4 -0.4)"/><path class="cls-1" d="M76.17,120.18c0-2.9.1-5.81,0-8.71-.1-2.24,1.91-2.25,3-3.23.92-.82,1.61,0,2.29.43C88,113.11,88,113.11,88,121.1c0,2.68-.05,5.37,0,8.05,0,1.22-.34,1.68-1.6,1.65-2.9-.07-5.81-.07-8.71,0-1.31,0-1.57-.54-1.55-1.7.06-3,0-5.95,0-8.92Z" transform="translate(-0.4 -0.4)"/><path class="cls-3" d="M103.52,119.83c0-3,.09-6,0-8.92-.06-1.47.78-2,1.81-2.64,1.18-.7,1.54.43,2.07,1a14.29,14.29,0,0,0,6.18,3.91c1.14.33,1.42.92,1.41,2-.05,4.64-.06,9.28,0,13.93,0,1.35-.47,1.75-1.78,1.71-2.68-.08-5.37-.08-8.05,0-1.24,0-1.66-.41-1.63-1.63C103.56,126.07,103.52,122.95,103.52,119.83Z" transform="translate(-0.4 -0.4)"/><path class="cls-3" d="M102.21,110.29c0,7,0,13.72,0,20.47,0,9.65,0,19.3,0,29,0,.65.44,2.07-.67,1.81s-3.1.13-3.38-1.89a12.59,12.59,0,0,1,0-1.74q0-21,0-42C98.1,112,98.1,112,102.21,110.29Z" transform="translate(-0.4 -0.4)"/><path class="cls-3" d="M470.69,147.54c0,4.71,0,9.43,0,14.14q0,4-3.34,2c-2.59-1.59-5.84-2.75-7.35-5.24-1.38-2.28-.38-5.52-.41-8.33-.06-6.53.08-13.06-.06-19.58-.07-3.18,2.75-3.14,4.4-4.34,1.27-.93,1.74.8,2.56,1.34,3.68,2.39,4.66,5.82,4.25,10.06-.32,3.3-.06,6.67-.06,10Z" transform="translate(-0.4 -0.4)"/><path class="cls-3" d="M172.14,155.84q0,1.09,0,2.17c0,5.76,0,5.73-5.15,8.28a1.71,1.71,0,0,1-2.13-.29c-3.84-3.09-5.37-11.66-2.82-15.85,1.51-2.47,7.33-3.63,9.63-2,.6.44.44,1,.45,1.56C172.16,151.79,172.14,153.81,172.14,155.84Z" transform="translate(-0.4 -0.4)"/><path class="cls-3" d="M161.76,138.44c0-2.18,0-4.35,0-6.53,0-1.19.39-1.45,1.39-.76l8.24,5.69a1.46,1.46,0,0,1,.76,1.24c0,2.54,0,5.08,0,7.62,0,.82-.34,1-1.07.83a19.15,19.15,0,0,0-8,0c-1.18.25-1.35-.33-1.33-1.3C161.79,142.94,161.76,140.69,161.76,138.44Z" transform="translate(-0.4 -0.4)"/><path class="cls-3" d="M413.57,155.17a39,39,0,0,0,0,4.77,3.4,3.4,0,0,1-2.4,4,7.5,7.5,0,0,0-.94.54c-3.24,1.87-4.09,1.67-6-1.66a15,15,0,0,1-1.35-12c1-3.68,7.24-5.62,10.22-3.36.57.43.44,1,.45,1.58C413.59,151.11,413.58,153.14,413.57,155.17Z" transform="translate(-0.4 -0.4)"/><path class="cls-3" d="M413.58,141.35c-.14,1.31.64,3.22-.3,4.22s-2.69-.27-4.11-.14a26.83,26.83,0,0,0-4.1.31c-1.46.36-1.93.12-1.9-1.45.08-4.28.05-8.56,0-12.85,0-1.6.47-1.78,1.72-.88q3.8,2.73,7.67,5.37a2,2,0,0,1,1,2C413.53,139,413.58,140.06,413.58,141.35Z" transform="translate(-0.4 -0.4)"/><path class="cls-3" d="M347.9,147.06V130.49c.87-.2,1,.44,1.19.82,1.9,3.24,3.77,6.5,5.65,9.74.36.62.9,1.2-.08,1.8C352.46,144.18,350.29,145.56,347.9,147.06Z" transform="translate(-0.4 -0.4)"/></g></g></svg>