<svg xmlns="http://www.w3.org/2000/svg" viewBox="0 0 86.19 29.53"><path d="M3.55,7.79a3.81,3.81,0,0,1,.52,1.52A5.14,5.14,0,0,1,7.73,7.79a4,4,0,0,1,3,1.23,4.78,4.78,0,0,1,.59.73,5.49,5.49,0,0,1,4.24-2,4.67,4.67,0,0,1,3,.93c.85.73,1.12,1.61,1.12,3.66V23H15.88v-9.9c0-1.79-.21-2.14-1.23-2.14A4.46,4.46,0,0,0,12,12.26V23H8.33V13.28C8.33,11.41,8.06,11,7,11a4.13,4.13,0,0,0-2.57,1.14V23H.56V12.58c0-2.16-.15-3.1-.56-3.84Z" style="fill:#4b4b4b"/><path d="M33.7,10a7.8,7.8,0,0,1,1.73,5.47,8.12,8.12,0,0,1-1.88,5.8,6.11,6.11,0,0,1-4.94,2.08c-4.08,0-6.73-3-6.73-7.76s2.69-7.85,6.73-7.85A6.28,6.28,0,0,1,33.7,10Zm-7.05,2.16a10.55,10.55,0,0,0-.41,3.34,10.66,10.66,0,0,0,.5,3.78,2.18,2.18,0,0,0,2,1.23c1.7,0,2.43-1.52,2.43-5.06,0-2-.26-3.34-.79-4a2.14,2.14,0,0,0-3.71.73Z" style="fill:#4b4b4b"/><path d="M48.06,8v2.69l-6.62,9.57h6.88L47.38,23h-11V20.61l7-9.81H36.93V8Z" style="fill:#4b4b4b"/><path d="M54.69,3.92a2.41,2.41,0,1,1-4.82,0,2.45,2.45,0,0,1,2.46-2.43A2.39,2.39,0,0,1,54.69,3.92Zm-.46,3.77V23H50.31V8.31Z" style="fill:#4b4b4b"/><path d="M61.38,5.27V16.95c0,2.58,0,2.93.27,3.34a.89.89,0,0,0,.79.41,1.43,1.43,0,0,0,.44-.05L63.54,23a6.55,6.55,0,0,1-2.34.41,3.51,3.51,0,0,1-3.49-2c-.29-.76-.36-1.23-.36-3.37V6.79a39,39,0,0,0-.2-4.51l4-.91A23.06,23.06,0,0,1,61.38,5.27Z" style="fill:#4b4b4b"/><path d="M69.51,5.27V16.95c0,2.58,0,2.93.27,3.34a.86.86,0,0,0,.78.41,1.43,1.43,0,0,0,.45-.05L71.68,23a6.53,6.53,0,0,1-2.34.41,3.52,3.52,0,0,1-3.49-2c-.3-.76-.35-1.23-.35-3.37V6.79a37.58,37.58,0,0,0-.21-4.51l4-.91A20.74,20.74,0,0,1,69.51,5.27Z" style="fill:#4b4b4b"/><path d="M75.67,8.6a10.06,10.06,0,0,1,4.09-.88c2.52,0,4.25.93,4.84,2.6A7.39,7.39,0,0,1,84.87,13l-.09,5v.27a3.05,3.05,0,0,0,1.41,3.07L84.1,23.8A4.2,4.2,0,0,1,82,22a6.74,6.74,0,0,1-.91.79,5.17,5.17,0,0,1-3,.82c-3.34,0-5.15-1.7-5.15-4.68,0-3.52,2.44-5.16,7.21-5.16a8.13,8.13,0,0,1,.88,0v-.61c0-1.67-.32-2.23-1.77-2.23a8.25,8.25,0,0,0-4.33,1.7L73.23,9.83A14.42,14.42,0,0,1,75.67,8.6Zm5.08,7.88c-2.71,0-3.66.49-3.66,2.29a1.78,1.78,0,0,0,1.74,2,2.84,2.84,0,0,0,2-1l.06-3.22Z" style="fill:#4b4b4b"/></svg>
