<svg xmlns="http://www.w3.org/2000/svg" viewBox="0 0 346.88 146.34"><defs><style>.cls-1{fill:#fdfdfd;}.cls-2{fill:#f58025;}.cls-3{fill:#262324;}.cls-4{fill:#fff;}.cls-5{fill:#fffffe;}.cls-6{fill:#efeff0;}.cls-7{fill:#eeeff0;}.cls-8{fill:#eeefef;}.cls-9{fill:#eeeeef;}.cls-10{fill:#fed9bb;}.cls-11{fill:#ffebdb;}.cls-12{fill:#faab6d;}.cls-13{fill:#f7964a;}.cls-14{fill:#faab6f;}.cls-15{fill:#fcc291;}.cls-16{fill:#fcc293;}.cls-17{fill:#faaa6d;}.cls-18{fill:#fee1c7;}.cls-19{fill:#747578;}.cls-20{fill:#616264;}.cls-21{fill:#838587;}.cls-22{fill:#6b6c6f;}.cls-23{fill:#fedbc1;}.cls-24{fill:#fcc599;}.cls-25{fill:#535355;}.cls-26{fill:#85878a;}.cls-27{fill:#c7c8ca;}.cls-28{fill:#c9cbcd;}.cls-29{fill:#cbcdcf;}.cls-30{fill:#d3d5d6;}.cls-31{fill:#909295;}.cls-32{fill:#cbcdce;}.cls-33{fill:#272324;}.cls-34{fill:#272425;}</style></defs><title>rita allen</title><g id="Layer_2" data-name="Layer 2"><g id="Layer_1-2" data-name="Layer 1"><path class="cls-1" d="M224.45,146.56h-20a.22.22,0,0,1,.05-.31,10,10,0,0,1,2.47-.43,12.75,12.75,0,0,0,5.89-1.9c3.08-2.05,4-5.11,3.72-8.58-.34-3.65-2.43-6.08-5.84-7.4a20.82,20.82,0,0,0-6-1c-1.67-.13-3.36,0-5,0a1,1,0,0,0-.89.31,2.68,2.68,0,0,0-.15,1.4q0,8.19,0,16.39a2.14,2.14,0,0,1-.3,1.57H187.81a1.66,1.66,0,0,1-.21-.33,5.48,5.48,0,0,1-.11-1.63c0-5.37,0-10.75,0-16.12,0-.51.22-1.24-.45-1.44a3.81,3.81,0,0,0-2.57.07c-.28.12-.27.5-.27.79,0,3.95-.15,7.89.1,11.84,0,.11,0,.22,0,.33,0,.36.08.82-.33,1s-.62-.3-.82-.59c-2.87-4.24-6.16-8.17-9.24-12.26a3.87,3.87,0,0,0-4.12-1.19.78.78,0,0,0-.53.75,9.8,9.8,0,0,0,0,1.21q0,7.79,0,15.57a10.09,10.09,0,0,1,0,1.53,1.14,1.14,0,0,1-.27.52H152.49a.28.28,0,0,1,0-.35,2.08,2.08,0,0,1,.86-.46,6.49,6.49,0,0,0,4.66-6.47c.13-3.76,0-7.52,0-11.29,0-.81-.36-1.07-1.13-1.09-2.19-.06-2.19-.09-2.19,2.12q0,4.16,0,8.33c0,.33,0,.66,0,1-.1,4.43-3.55,6.74-7.71,5.16-2-.74-3-2.35-3-4.88,0-3.29,0-6.58,0-9.86,0-.59.3-1.39-.39-1.69a4.13,4.13,0,0,0-2.48,0c-.4.08-.41.48-.41.81,0,4-.14,8,.05,12.05a6.3,6.3,0,0,0,4.12,5.72,3.57,3.57,0,0,1,1.16.61.28.28,0,0,1,0,.35H123.31a.24.24,0,0,1,0-.31,2,2,0,0,1,.86-.46c4.8-1.63,6.68-5.89,6.24-10.39-.47-4.87-3.17-7.84-7.8-8.59a12.11,12.11,0,0,0-7.2.75,8.67,8.67,0,0,0-5.22,8c-.17,3,.31,5.77,2.51,8a8.8,8.8,0,0,0,3.39,2.17,2.55,2.55,0,0,1,1.07.53.24.24,0,0,1,0,.31h-25a1,1,0,0,1-.28-.69c0-2.61-.15-5.23.08-7.84.34-.64,1-.56,1.54-.57,1.83,0,3.65,0,5.48,0,.84,0,1.17-.4,1.16-1.22s-.43-1.16-1.23-1.16c-1.75,0-3.5,0-5.26,0s-1.82-.22-1.84-1.84c0-.8,0-1.61,0-2.41.05-1.15.3-1.43,1.45-1.46,2-.05,4.09,0,6.13,0h1.09c.89,0,1-.58,1-1.26s-.19-1.12-1-1.12c-3.76,0-7.52,0-11.28,0a1,1,0,0,0-.61.2c-.41.38-.29.88-.29,1.34q0,8.25,0,16.5a2.14,2.14,0,0,1-.3,1.57H.22V112.77a1.43,1.43,0,0,1,1-.29c.37,0,.73,0,1.1,0,1.08-.08,2.43.47,3.18-.27s.28-2.16.3-3.28c0-2.59,0-5.19,0-7.79,0-.33,0-.66,0-1a.94.94,0,0,1,1-1q1.26,0,2.52,0a1.8,1.8,0,0,1,1.48,1c2.37,3.65,4.7,7.32,7,11a2.46,2.46,0,0,0,2.47,1.39c1.09-.08,2.19,0,3.29,0,.34,0,.82.17,1-.22s-.22-.66-.42-1c-2.44-3.6-4.74-7.3-7.18-10.9-1.35-2-1.35-2,.8-3,3.87-1.78,5.33-4.93,5.38-9,.07-6.31-4.38-8.93-8.53-9.54-4.3-.63-8.61-.33-12.92-.42-.54,0-1.11.11-1.58-.3V.22H298.83a.25.25,0,0,1-.11.35,8,8,0,0,1-2.59.39c-5.22.16-10.43.64-15.64,1-2.62.16-5.25.39-7.87.61-.88.07-1.06.58-1.16,1.29-.71,5.29-1.46,10.58-2.15,15.87-.73,5.62-1.42,11.24-1.92,16.89a60.58,60.58,0,0,0,.25,8.43c.13,2.48.18,5,.29,7.44.13,3,.21,6.06.33,9.09.2,4.93.23,9.86.58,14.78.16,2.22.14,4.46.19,6.68.09,3.36.21,6.72.33,10.08.18,5,.22,10.08.59,15.11.06.77,0,1.54,0,2.3s.28,1.07,1,1.08c4.39,0,8.76.41,13.13.7,4.08.27,8.17.5,12.24.81a75.81,75.81,0,0,0,15.53-.45c4.56-.59,9.17-.86,13.75-1.27,4.8-.43,9.61-.81,14.41-1.25.55-.05,1.09-.07,1.64-.09.88,0,1.28-.44,1.32-1.37.15-4.23.41-8.46.69-12.69.44-6.64,1.09-13.25,2-19.85a92.72,92.72,0,0,0,.75-17c-.23-5.33-.79-10.65-.57-16,.17-4.31,0-8.63.24-12.93.22-4.13,0-8.26.39-12.38a2.5,2.5,0,0,1,.2-1.07.25.25,0,0,1,.35-.11V146.56h-7.68a1.66,1.66,0,0,1-.21-.33,5.46,5.46,0,0,1-.11-1.63c0-5.37,0-10.74,0-16.11,0-.51.23-1.24-.43-1.45a4,4,0,0,0-2.58.05c-.29.11-.28.5-.28.78.06,3.61-.19,7.23.15,10.84a5.86,5.86,0,0,1,0,1.85c-.13.57-.42.63-.83.21a4.37,4.37,0,0,1-.47-.61c-2.85-4.25-6.12-8.19-9.23-12.25a4,4,0,0,0-3.89-.92.7.7,0,0,0-.39.61,7.83,7.83,0,0,0,0,1.09q0,8,0,16a5.07,5.07,0,0,1-.11,1.52,1.63,1.63,0,0,1-.21.33H303.66a.24.24,0,0,1,0-.31,3.52,3.52,0,0,1,1.26-.63,8.9,8.9,0,0,0,5.7-8.44,10.63,10.63,0,0,0-1.77-6.85,9.09,9.09,0,0,0-6.52-3.6,13.89,13.89,0,0,0-4.47.12,9.09,9.09,0,0,0-7.51,8.77,10.55,10.55,0,0,0,2.31,7.67,9.51,9.51,0,0,0,3.71,2.45c.33.14.71.19.95.51a.27.27,0,0,1,0,.32H280.4a1.26,1.26,0,0,1-.28-.55c-.13-3.73,0-7.45-.06-11.18,0-2.19,0-4.39,0-6.58,0-1.12-.18-1.28-1.27-1.3a3.6,3.6,0,0,0-1.93.2c-.41.38-.3.88-.3,1.34q0,8.25,0,16.5a2.14,2.14,0,0,1-.3,1.57H260.87a1.51,1.51,0,0,1-.22-.35,1.18,1.18,0,0,1-.08-.32c-.09-5.08,0-10.15,0-15.23,0-.91.48-1.31,1.37-1.33,1.46,0,2.92,0,4.38,0,1.07,0,1.32-.36,1.23-1.44,0-.57-.28-.88-.87-.9l-1,0h-14c-.74,0-1.4,0-1.4,1.06s.17,1.29,1.25,1.31c1.46,0,2.92,0,4.38,0,.89,0,1.37.42,1.37,1.33,0,5.08.06,10.15,0,15.23a1.29,1.29,0,0,1-.08.32,1.46,1.46,0,0,1-.23.35H245.3c-.24-.22-.3-.55-.51-.78-1.42-2.92-2.64-5.93-3.94-8.91s-2.52-5.83-3.78-8.74a2.93,2.93,0,0,0-3.62-1.12,1.66,1.66,0,0,0-.58.9c-2.28,5.26-4.57,10.51-6.83,15.77A24.91,24.91,0,0,1,225,146,5.17,5.17,0,0,1,224.45,146.56Z" transform="translate(-0.22 -0.22)"/><path class="cls-2" d="M346.9,16.68c-.07,2.08-.17,4.16-.21,6.24-.12,5.81-.27,11.62-.35,17.43-.06,4.28-.13,8.55.12,12.82.2,3.36.39,6.71.38,10.08a113.43,113.43,0,0,1-1.37,17.36c-.54,3.43-.78,6.9-1,10.36-.47,6.16-.84,12.32-1.09,18.49,0,.59-.26.74-.78.78-2.15.17-4.3.37-6.44.55-4.88.42-9.76.84-14.63,1.27-4.22.38-8.46.65-12.66,1.2-5.75.75-11.46.1-17.18-.19-3.72-.19-7.44-.48-11.16-.7-3.36-.2-6.71-.45-10.07-.5-.73,0-.74,0-.77-.85q-.1-2.47-.18-4.93c-.18-5.55-.35-11.11-.54-16.66q-.43-12.66-.89-25.31c-.27-7.45-.46-14.91-.9-22.35a71.72,71.72,0,0,1,.67-12.45q.76-6.58,1.62-13.16c.56-4.35,1.18-8.69,1.78-13,.12-.86.14-.84,1.15-.92C281.17,1.5,290,.93,298.83.43c.35-.19.73-.06,1.09-.1h1.29A6,6,0,0,0,303,.22h5.49c.43.24.89.06,1.33.11h1.46c4.53.11,9,.41,13.55.81,5.28.47,10.55.93,15.81,1.61,1.74.22,3.47.49,5.19.84a2.24,2.24,0,0,1,1.28.57V5.49A6.16,6.16,0,0,0,347,7.3q0,.86,0,1.72t0,1.78q0,1.72,0,3.44A13.84,13.84,0,0,1,346.9,16.68Z" transform="translate(-0.22 -0.22)"/><path class="cls-3" d="M.22,78.11c3.25,0,6.51,0,9.76,0A25.08,25.08,0,0,1,16.7,79a9,9,0,0,1,6.82,8.53,12.48,12.48,0,0,1-.36,4.24,9,9,0,0,1-5.05,5.87c-.59.28-1.21.51-2,.83l9.21,14c-.28.29-.55.19-.79.19-1.72,0-3.44,0-5.15,0A1.33,1.33,0,0,1,18.1,112c-2.48-3.92-5-7.82-7.46-11.75A1.56,1.56,0,0,0,9,99.31a15.82,15.82,0,0,1-1.75,0c-1.22,0-1.07-.07-1.08,1q0,5.32,0,10.64c0,1.66,0,1.64-1.67,1.67a28.46,28.46,0,0,0-4.26.1Z" transform="translate(-0.22 -0.22)"/><path class="cls-3" d="M297.29,146.36c-.14-.05-.27-.11-.41-.15-4.38-1.26-6.68-4.81-6.83-9.24a11.6,11.6,0,0,1,.55-4.21c1.33-3.87,4.19-5.85,8.13-6.35a13.1,13.1,0,0,1,5.42.37,9.15,9.15,0,0,1,6.72,8.16,13.07,13.07,0,0,1-.35,4.88,9,9,0,0,1-6,6.27l-.84.26a.59.59,0,0,1-.41.09c-.23,0-.48-.08-.69.11h-3.73c-.2-.19-.45-.08-.68-.11h-.44C297.56,146.45,297.41,146.47,297.29,146.36Z" transform="translate(-0.22 -0.22)"/><path class="cls-3" d="M117.15,146.37A9.47,9.47,0,0,1,109.83,136a11.31,11.31,0,0,1,.43-2.92,9.22,9.22,0,0,1,8.2-6.73,13.74,13.74,0,0,1,5.65.43,8.89,8.89,0,0,1,6.21,6.38,12,12,0,0,1,0,6.39,8.94,8.94,0,0,1-6.09,6.5c-.31.11-.63.19-.95.28a.74.74,0,0,1-.42.07c-.23,0-.48-.08-.69.11h-3.95c-.2-.19-.46-.08-.69-.11A.63.63,0,0,1,117.15,146.37Z" transform="translate(-0.22 -0.22)"/><path class="cls-3" d="M146.12,146.36l-.52-.18a6.82,6.82,0,0,1-5.17-6.79c-.08-2.41,0-4.82,0-7.23,0-1.57,0-3.14,0-4.71,0-.79,0-.8.76-.81s1.68,0,2.52,0c.54,0,.68.19.68.7,0,2.23,0,4.46,0,6.69,0,1.46,0,2.92,0,4.38.07,3.75,2.12,5.56,5.84,5.16,2.54-.27,3.86-1.6,4.2-4.24a12.11,12.11,0,0,0,.06-1.53c0-3.43,0-6.87,0-10.3,0-.83,0-.84.84-.84s1.61,0,2.41,0c.5,0,.72.11.71.66,0,4,.06,8,0,12.06-.1,3.54-1.89,6.06-5.87,7a.76.76,0,0,1-.42.07c-.23,0-.48-.08-.69.11h-4.17c-.2-.19-.46-.08-.69-.11A.62.62,0,0,1,146.12,146.36Z" transform="translate(-0.22 -0.22)"/><path class="cls-4" d="M335.25,146.56H324.72a1.1,1.1,0,0,1-.25-.48c-.1-2.37-.06-4.74,0-7.12,0-1.79-.12-3.57-.23-5.35a3.65,3.65,0,0,1,.06-1.09c.12-.49.37-.6.77-.26a2.51,2.51,0,0,1,.42.51c2.9,4.26,6.19,8.23,9.3,12.32a2.27,2.27,0,0,1,.62,1.14A.53.53,0,0,1,335.25,146.56Z" transform="translate(-0.22 -0.22)"/><path class="cls-4" d="M183.64,146.56H172.89l-.09-.18,0-.2c0-4.29.05-8.58,0-12.87a1.45,1.45,0,0,1-.07-.32c0-.33-.1-.75.26-.87s.56.26.73.53c.69,1.08,1.45,2.1,2.21,3.13,2.34,3.17,4.81,6.24,7.19,9.38a2.82,2.82,0,0,1,.68,1.11A.46.46,0,0,1,183.64,146.56Z" transform="translate(-0.22 -0.22)"/><path class="cls-5" d="M347.1,4.17c-4.4-.9-8.85-1.4-13.3-1.87-3.41-.36-6.82-.66-10.24-.94C319.41,1,315.27.73,311.12.42Q311,.36,311,.29s0-.07.07-.07h36Z" transform="translate(-0.22 -0.22)"/><path class="cls-4" d="M240.91,146.56H228.84a.82.82,0,0,1-.16-.34,27.44,27.44,0,0,1,1.79-4.57,1,1,0,0,1,1-.63c2.3-.07,4.6-.06,6.9,0a1.18,1.18,0,0,1,1.13.74,26.72,26.72,0,0,1,1.67,4.27A.85.85,0,0,1,240.91,146.56Z" transform="translate(-0.22 -0.22)"/><path class="cls-6" d="M88,146.56q0-9.59,0-19.19c0-.28-.08-.6.27-.76a2.46,2.46,0,0,1,.31,1.69c0,5.34,0,10.67,0,16a1.7,1.7,0,0,0,2.62,1.59c.46-.23.4-.66.41-1,0-1.83,0-3.66,0-5.48,0-.51-.15-1.13.53-1.41l0,8.6Z" transform="translate(-0.22 -0.22)"/><path class="cls-7" d="M198.34,146.56q0-9.54,0-19.08c0-.31-.12-.68.27-.87a2.49,2.49,0,0,1,.3,1.69c0,5.33,0,10.66,0,16,0,1.67,0,1.69,1.72,1.7.88,0,1.75,0,2.63,0a1.53,1.53,0,0,1,1.22.36v.2Z" transform="translate(-0.22 -0.22)"/><path class="cls-7" d="M280.38,146.08l0,.48h-4.17q0-9.54,0-19.08c0-.31-.12-.68.27-.87a2.5,2.5,0,0,1,.3,1.69q0,8,0,16c0,1.67,0,1.68,1.73,1.7A5.84,5.84,0,0,1,280.38,146.08Z" transform="translate(-0.22 -0.22)"/><path class="cls-8" d="M240.91,146.56v-.45a13.79,13.79,0,0,1,2.58-.07,2.75,2.75,0,0,0,1.55-.35c.37.21.24.56.25.87Z" transform="translate(-0.22 -0.22)"/><path class="cls-9" d="M228.82,146.3l0,.27h-4.39c0-.24,0-.51.24-.65a17.37,17.37,0,0,0,2.79.11A2.06,2.06,0,0,1,228.82,146.3Z" transform="translate(-0.22 -0.22)"/><path class="cls-7" d="M172.88,146.33v.23h-3.95l0-.48C170.28,146,171.61,145.76,172.88,146.33Z" transform="translate(-0.22 -0.22)"/><path class="cls-7" d="M324.7,146.08l0,.48h-3.95v-.24C322.05,145.76,323.38,146,324.7,146.08Z" transform="translate(-0.22 -0.22)"/><path class="cls-8" d="M183.64,146.56v-.24a6.12,6.12,0,0,1,4.14,0l0,.27Z" transform="translate(-0.22 -0.22)"/><path class="cls-7" d="M335.25,146.56l0-.27a6.16,6.16,0,0,1,4.14,0v.25Z" transform="translate(-0.22 -0.22)"/><path class="cls-8" d="M260.85,146.29l0,.27h-3.95l0-.27A5.73,5.73,0,0,1,260.85,146.29Z" transform="translate(-0.22 -0.22)"/><path class="cls-10" d="M346.9,14.27a33.62,33.62,0,0,1,0-3.5c.05-.11.11-.12.18,0v3.51Q347,14.41,346.9,14.27Z" transform="translate(-0.22 -0.22)"/><path class="cls-11" d="M346.9,14.27h.2v2.41h-.2A15.05,15.05,0,0,1,346.9,14.27Z" transform="translate(-0.22 -0.22)"/><path class="cls-12" d="M303,.22c-.55.4-1.17.18-1.76.21q-.1-.07-.06-.14s0-.07.07-.07Z" transform="translate(-0.22 -0.22)"/><path class="cls-13" d="M346.9,7.26c0-.59-.22-1.22.2-1.77V7.24C347,7.33,347,7.34,346.9,7.26Z" transform="translate(-0.22 -0.22)"/><path class="cls-14" d="M346.9,7.26l.2,0V9q-.08.14-.19,0Z" transform="translate(-0.22 -0.22)"/><path class="cls-15" d="M346.91,9h.19v1.76h-.18A9.16,9.16,0,0,1,346.91,9Z" transform="translate(-0.22 -0.22)"/><path class="cls-16" d="M301.24.22q0,.1,0,.21h-1.32q-.1-.07-.07-.14s0-.07.07-.07Z" transform="translate(-0.22 -0.22)"/><path class="cls-17" d="M309.8.44c-.45,0-.93.16-1.32-.22h1.32q.11.07.07.14S309.83.44,309.8.44Z" transform="translate(-0.22 -0.22)"/><path class="cls-18" d="M299.93.22q0,.1,0,.21a3.41,3.41,0,0,1-1.09,0q0-.1,0-.21Z" transform="translate(-0.22 -0.22)"/><path class="cls-19" d="M117.58,146.36a.61.61,0,0,1,.68.2h-.66q-.1-.06-.08-.13S117.56,146.36,117.58,146.36Z" transform="translate(-0.22 -0.22)"/><path class="cls-20" d="M122.21,146.56c.17-.26.43-.25.69-.2q.07.08,0,.14s0,.06-.07.06Z" transform="translate(-0.22 -0.22)"/><path class="cls-21" d="M146.54,146.37a.67.67,0,0,1,.68.19h-.66q-.1-.05-.07-.12S146.52,146.37,146.54,146.37Z" transform="translate(-0.22 -0.22)"/><path class="cls-22" d="M151.39,146.56a.61.61,0,0,1,.69-.19q.07.08,0,.14s0,.05-.06.05Z" transform="translate(-0.22 -0.22)"/><path class="cls-23" d="M311.12.22q0,.1,0,.2h-.66q-.11-.07-.07-.14s0-.07.07-.07Z" transform="translate(-0.22 -0.22)"/><path class="cls-24" d="M310.46.22q0,.11,0,.21h-.66q0-.11,0-.22Z" transform="translate(-0.22 -0.22)"/><path class="cls-25" d="M298.15,146.37c.26,0,.51-.06.68.2h-.66q-.1-.05-.08-.12S298.13,146.37,298.15,146.37Z" transform="translate(-0.22 -0.22)"/><path class="cls-26" d="M302.56,146.56a.67.67,0,0,1,.68-.19q.09.07,0,.13s0,.06-.07.06Z" transform="translate(-0.22 -0.22)"/><path class="cls-27" d="M117.58,146.36a.34.34,0,0,1,0,.2h-.44a1.62,1.62,0,0,0,0-.2Z" transform="translate(-0.22 -0.22)"/><path class="cls-28" d="M122.87,146.56a.35.35,0,0,1,0-.2h.42a1.57,1.57,0,0,1,0,.19Z" transform="translate(-0.22 -0.22)"/><path class="cls-29" d="M146.54,146.37a.49.49,0,0,1,0,.19h-.44a2,2,0,0,0,0-.2Z" transform="translate(-0.22 -0.22)"/><path class="cls-28" d="M152,146.56a.49.49,0,0,1,0-.19h.42a1.09,1.09,0,0,1,0,.18Z" transform="translate(-0.22 -0.22)"/><path class="cls-30" d="M297.29,146.36l.42,0q.12.05.09.12s0,.07-.07.07h-.44A1.27,1.27,0,0,0,297.29,146.36Z" transform="translate(-0.22 -0.22)"/><path class="cls-31" d="M297.73,146.56a.6.6,0,0,0,0-.19h.43a.64.64,0,0,1,0,.2Z" transform="translate(-0.22 -0.22)"/><path class="cls-32" d="M303.22,146.56a.51.51,0,0,1,0-.19h.43a1.66,1.66,0,0,0,0,.2Z" transform="translate(-0.22 -0.22)"/><path class="cls-3" d="M231.75,87.47c.41,8,.24,15.92.28,23.85,0,.26,0,.51,0,.77,0,.42-.14.59-.57.59-1.54,0-3.07,0-4.61,0-.48,0-.66-.19-.61-.65a5,5,0,0,0,0-.55q0-16.07,0-32.14c0-1.32-.13-1.18,1.16-1.19s2.64.05,3.95,0a1.46,1.46,0,0,1,1.48.83q4.29,6.75,8.64,13.47c2.22,3.44,4.39,6.9,6.29,10.53.06.11.1.27.32.3.15-.21.07-.47.06-.7-.37-7.75-.19-15.5-.23-23.25,0-.18,0-.37,0-.55-.05-.49.18-.62.64-.61q2.25,0,4.5,0c.47,0,.68.14.63.62,0,.22,0,.44,0,.66q0,16,0,32c0,1.38.17,1.21-1.23,1.22s-2.56,0-3.84,0a1.47,1.47,0,0,1-1.5-.81q-4.4-6.94-8.88-13.83c-2.11-3.25-4.11-6.56-5.94-10C232.18,87.86,232.16,87.55,231.75,87.47Z" transform="translate(-0.22 -0.22)"/><path class="cls-3" d="M139.25,112.67c-1.74,0-3.46,0-5.17,0a.89.89,0,0,1-1-.71c-.8-2.39-1.65-4.75-2.48-7.13-.41-1.15-.19-1-1.34-1h-9.75c-1,0-1,0-1.3.9-.84,2.37-1.7,4.74-2.49,7.13a1,1,0,0,1-1.17.81c-1.42,0-2.85,0-4.27,0a1.23,1.23,0,0,1-.91-.17c.29-.83.58-1.68.88-2.52q5.55-15.38,11.11-30.76c.43-1.18.1-1.05,1.52-1.06.95,0,1.9,0,2.85,0,1.53,0,1.16-.29,1.72,1.24,1.84,5,3.64,10.08,5.46,15.12q3.1,8.59,6.19,17.19A1.37,1.37,0,0,1,139.25,112.67Z" transform="translate(-0.22 -0.22)"/><path class="cls-3" d="M98.29,112.67c-2,0-3.8,0-5.62,0-.52,0-.58-.35-.7-.68q-1.23-3.51-2.45-7a2.33,2.33,0,0,1-.14-.41c-.09-.6-.45-.72-1-.72-2.85,0-5.7,0-8.55,0-.58,0-1.17,0-1.75,0s-.76.19-.93.68c-.83,2.45-1.72,4.89-2.54,7.34a1,1,0,0,1-1.16.82c-1.71,0-3.41,0-5.21,0a10.19,10.19,0,0,1,.63-1.94l11.4-31.6c.44-1.23.28-1,1.35-1s2.19,0,3.29,0,1,0,1.31.91l5.2,14.41L98,111.78C98.09,112,98.16,112.26,98.29,112.67Z" transform="translate(-0.22 -0.22)"/><path class="cls-3" d="M198.12,95.42q0-8,0-16c0-.29,0-.58,0-.88a.36.36,0,0,1,.41-.39h19.52a.36.36,0,0,1,.41.4c0,1.5,0,3,0,4.5,0,.34-.19.44-.49.44H205.26a6,6,0,0,1-.66,0c-.57-.06-.76.16-.75.75,0,2,0,3.95,0,5.92,0,.72-.34,1.63.18,2.1s1.33.12,2,.12h9.32c1.06,0,1-.13,1,1s0,2.34,0,3.51c0,.74,0,.76-.79.76H205.27c-1.63,0-1.4-.22-1.4,1.37,0,2.49,0,5,0,7.46,0,.82,0,.84.84.84h13.6c.9,0,1-.23,1,1,0,1.1,0,2.19,0,3.29s0,1-1,1H198.57c-.32,0-.47-.14-.45-.47s0-.51,0-.77Q198.12,103.43,198.12,95.42Z" transform="translate(-0.22 -0.22)"/><path class="cls-3" d="M58.36,98.1q0,6.8,0,13.6c0,1,0,1-.93,1-1.39,0-2.78,0-4.17,0-.45,0-.69-.11-.64-.61,0-.25,0-.51,0-.77q0-13.16,0-26.32c0-.22,0-.44,0-.66,0-.82,0-.83-.86-.83H43.54c-1.05,0-1,.1-1-1,0-1.24,0-2.49,0-3.73,0-.46.14-.69.62-.63a4.9,4.9,0,0,0,.55,0H68c.33,0,.45.15.45.47,0,1.46,0,2.92,0,4.39,0,.6-.42.48-.76.48H61.33c-.77,0-1.54,0-2.3,0-.53,0-.69.16-.68.69,0,2,0,4,0,6Q58.36,94.15,58.36,98.1Z" transform="translate(-0.22 -0.22)"/><path class="cls-33" d="M171.42,95.36q0-8,0-16c0-.26,0-.51,0-.77s.16-.45.47-.45h4.82c.39,0,.51.18.5.54s0,.58,0,.88q0,13.21,0,26.42a4.42,4.42,0,0,1,0,.66c-.09.61.22.71.75.71,4.16,0,8.33,0,12.5,0a7.46,7.46,0,0,0,.77,0c.5-.05.62.2.61.65,0,1.35,0,2.7,0,4.06,0,.46-.12.67-.62.65-.69,0-1.39,0-2.08,0H172.25c-.82,0-.83,0-.83-.86Q171.42,103.59,171.42,95.36Z" transform="translate(-0.22 -0.22)"/><path class="cls-3" d="M144.77,95.42q0-8,0-16c0-.29,0-.58,0-.88a.35.35,0,0,1,.4-.39h4.93a.36.36,0,0,1,.4.4q0,.44,0,.88,0,13.21,0,26.42c0,.22,0,.44,0,.66,0,.8,0,.81.85.82h12.5c.26,0,.51,0,.77,0s.55.09.55.49q0,2.19,0,4.39c0,.33-.14.47-.45.47H145.21c-.33,0-.45-.16-.44-.47s0-.51,0-.77Q144.77,103.42,144.77,95.42Z" transform="translate(-0.22 -0.22)"/><path class="cls-3" d="M187.79,146.29l-4.14,0q-3.52-4.55-7-9.1c-1.27-1.64-2.44-3.35-3.61-5.13a1,1,0,0,0-.1.87,11.2,11.2,0,0,1,.09,2.6c0,3.24,0,6.48,0,9.71,0,.35.11.73-.12,1.06h0l-3,0c-.31,0-.66.1-.89-.23,0-.4,0-.8,0-1.2q0-8.49,0-17c0-.26,0-.51,0-.77s.09-.5.43-.49h3.4c.4,0,.56.31.75.56,3.34,4.43,6.93,8.67,10,13.3.1.14.15.34.45.35,0-.79-.12-1.57-.13-2.36q0-5.53,0-11.07c0-.77,0-.78.78-.79s1.61,0,2.41,0,.75,0,.76.81c0,.95,0,1.9,0,2.85Q187.8,138.3,187.79,146.29Z" transform="translate(-0.22 -0.22)"/><path class="cls-3" d="M339.41,146.32l-4.14,0c-2.11-2.75-4.22-5.5-6.34-8.23-1.36-1.76-2.68-3.55-3.89-5.42-.11-.17-.24-.34-.39-.54-.1.48,0,12.48,0,14-.23.33-.58.23-.89.23h-3c0-.36-.07-.73-.07-1.09q0-8.72,0-17.44c0-.11,0-.22,0-.33,0-.82,0-.83.85-.83a9,9,0,0,1,3.15.11c.93.37,1.39,1.54,2,2.37,2.58,3.36,5.27,6.64,7.69,10.13.37.53.73,1.07,1.22,1.8,0-.73,0-1.26,0-1.78-.25-3.95-.08-7.9-.12-11.84,0-.77,0-.78.78-.79s1.76,0,2.63,0c.37,0,.55.11.53.5,0,.15,0,.29,0,.44q0,9,0,18.1C339.45,145.88,339.42,146.1,339.41,146.32Z" transform="translate(-0.22 -0.22)"/><path class="cls-3" d="M37.15,95.55q0,8,0,15.9c0,.26,0,.51,0,.77s-.16.45-.47.45H31.85c-.31,0-.47-.14-.45-.47s0-.44,0-.66q0-16.12,0-32.24a4.91,4.91,0,0,0,0-.55c-.06-.5.19-.62.64-.61,1.46,0,2.93,0,4.39,0,.6,0,.75.2.74.75,0,1.83,0,3.66,0,5.48Q37.15,90,37.15,95.55Z" transform="translate(-0.22 -0.22)"/><path class="cls-3" d="M204.49,146.36l-5.15,0c-.8,0-.83,0-.83-.74q0-9.21,0-18.42a3.19,3.19,0,0,1,.09-.54c2.78.08,5.56-.11,8.33.19a15.59,15.59,0,0,1,4.45,1.07c4.33,1.82,6,5.71,5.52,9.83-.54,4.78-3.66,7-7.32,8A31.17,31.17,0,0,1,204.49,146.36Z" transform="translate(-0.22 -0.22)"/><path class="cls-3" d="M228.82,146.3c-1.22,0-2.45,0-3.67,0-.31,0-.48-.08-.46-.41,1.21-2.41,2.18-4.93,3.27-7.4,1.62-3.68,3.22-7.36,4.78-11.05a1.11,1.11,0,0,1,1.29-.84,8,8,0,0,0,1.64,0,1.24,1.24,0,0,1,1.46.92c1.44,3.43,2.93,6.85,4.43,10.25,1.16,2.64,2.21,5.31,3.49,7.9-.06.2.24.59-.18.6a23.79,23.79,0,0,1-3.77-.07c-.06,0-.12-.08-.18-.12-.59-1.44-1.18-2.88-1.75-4.33a.68.68,0,0,0-.74-.48c-2.33,0-4.66,0-7,0-.47,0-.63.23-.78.59Z" transform="translate(-0.22 -0.22)"/><path class="cls-34" d="M92.13,138A2,2,0,0,0,92,139c0,2.15,0,4.3,0,6.45,0,.82,0,.82-.85.83s-1.61,0-2.41,0c-.55,0-.72-.21-.67-.7,0-.14,0-.29,0-.44q0-8.7,0-17.39a2.34,2.34,0,0,1,.13-1.18l12.39,0h.77c.27,0,.39.15.4.41,0,.07,0,.15,0,.22,0,.76.31,1.72-.13,2.23s-1.44.18-2.19.19c-2.19,0-4.39,0-6.58,0-.82,0-.83,0-.84.85,0,1.1,0,2.19,0,3.29s0,.91.88.91h6.14c.22,0,.44,0,.66,0,.45,0,.69.09.67.59s0,1.24,0,1.86-.2.61-.65.61q-3.29,0-6.58,0C92.82,137.8,92.43,137.62,92.13,138Z" transform="translate(-0.22 -0.22)"/><path class="cls-33" d="M260.85,146.29h-3.9q0-7.68,0-15.36c0-1.4.18-1.24-1.2-1.25H251c-1.07,0-1,.09-1-1q0-.55,0-1.1c0-1,0-1,.94-1h16c.85,0,.85,0,.86.82s0,1.45,0,2.23h-5.27a9.06,9.06,0,0,1-1,0c-.56-.06-.71.21-.66.71,0,.25,0,.51,0,.77Q260.86,138.73,260.85,146.29Z" transform="translate(-0.22 -0.22)"/><path class="cls-34" d="M280.38,146.08a.54.54,0,0,1-.46.23c-1,0-2,0-3,0-.44,0-.57-.17-.57-.57q0-9.41,0-18.82a1.37,1.37,0,0,1,.08-.32l3,0c.87,0,.88,0,.88.92,0,4.2,0,8.41,0,12.61C280.34,142.14,280.36,144.11,280.38,146.08Z" transform="translate(-0.22 -0.22)"/><path class="cls-4" d="M317.38,75.75a20.86,20.86,0,0,0,6.46-1.28,50.19,50.19,0,0,1,8.26-2.14,9.94,9.94,0,0,1,4.45.15,3.56,3.56,0,0,1,2.24,5.31A10.78,10.78,0,0,1,332,83.09a9.16,9.16,0,0,1-3.17,0,129.23,129.23,0,0,0-13.69-.56,16.45,16.45,0,0,0-2.07.19,6.07,6.07,0,0,0-4.89,4.58,2.3,2.3,0,0,0,1.69,3,7.78,7.78,0,0,0,2.93.28c2.74-.16,5.43-.73,8.14-1.09a17.26,17.26,0,0,1,5.56-.17,3,3,0,0,1,2.75,2.44,3.48,3.48,0,0,1-1.55,3.7,8.27,8.27,0,0,1-3.73,1.16,20.18,20.18,0,0,1-5.56-.31,14.81,14.81,0,0,0-5.34.05,10.15,10.15,0,0,0-6,3.69c-.3.37-.58.75-.87,1.13a8.35,8.35,0,0,1-1.92,1.79c-2.13,1.42-4.14.72-4.92-1.7a8.93,8.93,0,0,1-.29-3.15,10.53,10.53,0,0,0-.87-4.92,8.75,8.75,0,0,0-6.35-4.91,19.72,19.72,0,0,0-4.68-.41c-4.82,0-8.29-2.22-10.52-6.43a6.66,6.66,0,0,1-.83-4.23,2.63,2.63,0,0,1,2.32-2.41,6.77,6.77,0,0,1,3.25.26,24.24,24.24,0,0,1,9.5,5.29,13.57,13.57,0,0,0,5.66,3.21,7.55,7.55,0,0,0,3.69.11,2.43,2.43,0,0,0,2.09-3.13A9.06,9.06,0,0,0,297.71,74a19.54,19.54,0,0,0-6.43-2.41A37.48,37.48,0,0,1,277.65,66a12.37,12.37,0,0,1-3.84-3.85,5,5,0,0,1-.68-4,3.32,3.32,0,0,1,3.67-2.76,10.66,10.66,0,0,1,3.71.88,26.28,26.28,0,0,1,7.14,4.22,30.8,30.8,0,0,0,7.23,4.73,8.28,8.28,0,0,0,4,.83,3.6,3.6,0,0,0,2.18-.92,2.8,2.8,0,0,0,.47-3.93A8.7,8.7,0,0,0,299.16,59a27.9,27.9,0,0,0-9.69-3.94,18.17,18.17,0,0,1-10.83-6.77,7.39,7.39,0,0,1-.58-8.63,2.41,2.41,0,0,1,2.73-1.33,7.18,7.18,0,0,1,1.87.6,24.5,24.5,0,0,1,4.71,3c2.12,1.63,4.1,3.42,6.06,5.23A21.74,21.74,0,0,0,298,50.36a6.73,6.73,0,0,0,1.85.68A1.56,1.56,0,0,0,302,49.6a4.76,4.76,0,0,0-.05-1.63,18,18,0,0,0-1.72-5.52,11.86,11.86,0,0,0-4.94-5,38,38,0,0,0-6.06-2.54c-.79-.28-1.6-.53-2.36-.89a9.36,9.36,0,0,1-5.49-6.82,4.6,4.6,0,0,1,4.92-5.69,4.89,4.89,0,0,1,2.33.88,15.1,15.1,0,0,1,3.31,3.17c.83,1,1.62,2.08,2.42,3.12a18.83,18.83,0,0,0,5.25,4.76,7.73,7.73,0,0,0,2.21.93c1.59.38,2.4-.3,2.32-1.92a8.23,8.23,0,0,0-.65-2.54,33,33,0,0,0-2.38-4.69,20.75,20.75,0,0,1-2.64-6.81c-.71-4,1-7.55,4.42-9a6.91,6.91,0,0,1,6.62.58c1.65,1.05,2.16,2.79,2.25,4.65a18.13,18.13,0,0,1-.76,5.62A52.47,52.47,0,0,1,309,26a14.48,14.48,0,0,0-.87,3,5.22,5.22,0,0,0-.07.87c0,1.36.73,1.93,2.06,1.64A10,10,0,0,0,313,30.29a17.53,17.53,0,0,0,5.43-4.52,27,27,0,0,1,4.9-5,9.57,9.57,0,0,1,2.32-1.44c1.65-.67,2.86-.18,3.34,1.51,1.07,3.8.5,7.24-2.43,10.1A13.72,13.72,0,0,1,321,34.2a21.15,21.15,0,0,0-8.29,5.18,20.38,20.38,0,0,0-3.58,4.27,6.43,6.43,0,0,0-.76,1.7A1.15,1.15,0,0,0,309.4,47a7,7,0,0,0,2.51-.11,27.66,27.66,0,0,0,10.71-5.09c.79-.59,1.56-1.22,2.37-1.78a7.92,7.92,0,0,1,3-1.29,3.73,3.73,0,0,1,2.16.15,2.18,2.18,0,0,1,1.61,2.1,15.92,15.92,0,0,1-.13,3.5A9.27,9.27,0,0,1,326,51.39a22.12,22.12,0,0,1-6.27,1.5c-3.55.46-7.1.88-10.66,1.32a8.18,8.18,0,0,0-2,.46A1.47,1.47,0,0,0,306,56.37a4,4,0,0,0,1.92,3,9.07,9.07,0,0,0,4.79,1.37,25.7,25.7,0,0,0,7.8-1,91.25,91.25,0,0,0,9.91-3.5A31,31,0,0,1,334.34,55a6.67,6.67,0,0,1,1.74-.2,2.17,2.17,0,0,1,2.28,1.69,6.64,6.64,0,0,1,.06,3.68,9.58,9.58,0,0,1-9.06,7.43c-3.65.09-7.31.27-11,.47a52.7,52.7,0,0,0-8.69,1.1,9.32,9.32,0,0,0-2.87,1,1.71,1.71,0,0,0-.38,2.92,5.56,5.56,0,0,0,2.14,1.3A24.94,24.94,0,0,0,317.38,75.75Z" transform="translate(-0.22 -0.22)"/><path class="cls-4" d="M6.14,88.72c0-1.53,0-3.07,0-4.6,0-.37,0-.64.51-.63,2.48.06,5-.21,7.42.35a4,4,0,0,1,3.38,3,6.46,6.46,0,0,1-.27,4A4.17,4.17,0,0,1,15.09,93a8.62,8.62,0,0,1-3.47.89c-1.57.09-3.14.1-4.7.13-.75,0-.76,0-.77-.8C6.14,91.71,6.14,90.22,6.14,88.72Z" transform="translate(-0.22 -0.22)"/><path class="cls-4" d="M294.15,136.44a8.08,8.08,0,0,1,.94-4.11,5.37,5.37,0,0,1,3.31-2.67,7.6,7.6,0,0,1,3.79-.11,5.55,5.55,0,0,1,4.3,4.08,9.54,9.54,0,0,1,.09,5.4,5.87,5.87,0,0,1-6.33,4.59,6,6,0,0,1-6-5.85C294.17,137.31,294.17,136.87,294.15,136.44Z" transform="translate(-0.22 -0.22)"/><path class="cls-4" d="M126.65,136.51a8.36,8.36,0,0,1-.69,3.62,5.59,5.59,0,0,1-4.61,3.4,7.5,7.5,0,0,1-2.83-.12,5.41,5.41,0,0,1-3.94-3.33,9.21,9.21,0,0,1-.06-7,5.47,5.47,0,0,1,5-3.63,7.72,7.72,0,0,1,2.5.14,6,6,0,0,1,4.55,5.63C126.63,135.63,126.63,136.07,126.65,136.51Z" transform="translate(-0.22 -0.22)"/><path class="cls-7" d="M172.87,146.34a3.89,3.89,0,0,0,.07-1.19c0-3.92.06-7.84-.07-11.75a3.64,3.64,0,0,1,0-.43c.32.29.21.68.21,1q0,5.68,0,11.36C173.12,145.68,173.27,146.09,172.87,146.34Z" transform="translate(-0.22 -0.22)"/><path class="cls-4" d="M124.36,86.74c1.33,3.89,2.59,7.79,4,11.74h-8C121.74,94.57,123.08,90.69,124.36,86.74Z" transform="translate(-0.22 -0.22)"/><path class="cls-4" d="M79.26,98.51c1.39-4,2.71-7.89,4-12.09,1.3,4.2,2.6,8.12,4,12.09Z" transform="translate(-0.22 -0.22)"/><path class="cls-4" d="M202.45,136.5c0-2,0-4,0-6,0-.77,0-.77.78-.79a17.61,17.61,0,0,1,4.78.42,6,6,0,0,1,4.86,6.27,9.25,9.25,0,0,1-.16,1.85c-.55,2.66-2.32,4.24-5.31,4.79a25.07,25.07,0,0,1-4.36.26c-.5,0-.61-.2-.6-.65,0-2,0-4.09,0-6.13Z" transform="translate(-0.22 -0.22)"/><path class="cls-1" d="M237.63,138.23h-5.38l2.67-6.74Z" transform="translate(-0.22 -0.22)"/></g></g></svg>