<svg viewBox="0 0 893.04 232.47"><path d="M83.53,99.58c2.71,4.18,3.9,7.9,5.41,15.76C99.52,105,112.56,99.58,126.8,99.58c12.86,0,23.41,4.18,31.58,12.7a49.51,49.51,0,0,1,6.15,7.6c14.21-14.56,26.94-20.3,44-20.3,12.14,0,23.65,3.63,30.68,9.68,8.78,7.58,11.56,16.7,11.56,37.93V257.63H211.3V155.09c0-18.59-2.2-22.18-12.78-22.18-7.58,0-18.24,5.17-27,13.06V257.63H133V156.55c0-19.38-2.81-23.93-14.1-23.93-7.5,0-17.9,3.89-26.65,11.81V257.63H52.56V149.29c0-22.43-1.54-32.12-5.81-39.74Z" transform="translate(-46.75 -33.08)" style="fill:#56575c"/><path d="M396,122.62c12.41,14.56,18,31.54,18,56.71,0,26.7-6.12,44.94-19.51,60.08C382.66,252.75,367.15,261,343.23,261c-42.24,0-69.78-31.57-69.78-80.39s27.84-81.35,69.78-81.35C365.37,99.23,382.66,106.84,396,122.62ZM322.9,145c-2.78,8.22-4.27,19.13-4.27,34.62,0,17.86,1.83,31.27,5.14,39.13,3.66,8.5,12.81,12.74,20.63,12.74,17.61,0,25.14-15.76,25.14-52.47,0-20.95-2.73-34.63-8.17-41.63-3.9-5.12-10.24-8.17-17.55-8.17C334.09,129.27,326.18,135.31,322.9,145Z" transform="translate(-46.75 -33.08)" style="fill:#56575c"/><path d="M544.71,102.28V130.2l-68.62,99.2h71.29l-9.73,28.23H423.33V232.45l73-101.64H429.43V102.28Z" transform="translate(-46.75 -33.08)" style="fill:#56575c"/><path d="M613.46,59.51a25,25,0,1,1-50,0A25.42,25.42,0,0,1,589,34.31C602.62,34.31,613.46,45.56,613.46,59.51Zm-4.77,39.11v159H568V105Z" transform="translate(-46.75 -33.08)" style="fill:#56575c"/><path d="M682.72,73.49v121c0,26.74.32,30.33,2.76,34.57,1.54,2.76,4.82,4.24,8.22,4.24a14.83,14.83,0,0,0,4.53-.56L705.18,257a67.89,67.89,0,0,1-24.26,4.23c-17.34,0-31.29-8.17-36.12-21.19-3-7.9-3.71-12.78-3.71-34.92V89.21c0-20.31-.53-32.72-2-46.73l41.58-9.4C682.08,41.56,682.72,51.58,682.72,73.49Z" transform="translate(-46.75 -33.08)" style="fill:#56575c"/><path d="M767,73.49v121c0,26.74.35,30.33,2.84,34.57,1.43,2.76,4.72,4.24,8.11,4.24a14.87,14.87,0,0,0,4.61-.56L789.52,257a67.71,67.71,0,0,1-24.26,4.23c-17.31,0-31.28-8.17-36.14-21.19-3.1-7.9-3.61-12.78-3.61-34.92V89.21c0-20.31-.61-32.72-2.17-46.73l41.52-9.4C766.53,41.56,767,51.58,767,73.49Z" transform="translate(-46.75 -33.08)" style="fill:#56575c"/><path d="M830.82,108.06c15.11-6.39,28.11-9.09,42.42-9.09,26.14,0,44,9.68,50.14,27,2,6.37,2.94,11.22,2.76,27.92l-1,52.16v2.76c0,16.68,2.76,23.07,14.64,31.85l-21.58,24.92c-9.5-4-18-11-21.9-18.84a69.83,69.83,0,0,1-9.44,8.18c-7.53,5.46-18.53,8.51-31.26,8.51-34.6,0-53.4-17.63-53.4-48.52,0-36.47,25.24-53.48,74.66-53.48a84.26,84.26,0,0,1,9.15.35v-6.34c0-17.33-3.37-23.09-18.32-23.09-12.89,0-28.19,6.34-44.84,17.59l-17.31-29.14C813.8,115.6,819.88,112.59,830.82,108.06Zm52.68,81.61c-28.11,0-38,5.12-38,23.7,0,12.09,7.69,20.28,18,20.28,7.56,0,15.19-4,21.21-10.61l.66-33.38Z" transform="translate(-46.75 -33.08)" style="fill:#56575c"/></svg>
