<svg xmlns="http://www.w3.org/2000/svg" viewBox="0 0 87.36 60.48"><defs><style>.cls-1{fill:#fefefe;}.cls-2{fill:#fd0000;}.cls-3{fill:#e46262;}.cls-4{fill:#e45557;}.cls-5{fill:#010101;}.cls-6{fill:#020202;}.cls-7{fill:#030303;}.cls-8{fill:#fefdfd;}.cls-9{fill:#fdfdfd;}.cls-10{fill:#fcfcfc;}.cls-11{fill:#f7f7f7;}.cls-12{fill:#f1f1f1;}.cls-13{fill:#f9f9f9;}.cls-14{fill:#eee;}</style></defs><title>rue89</title><g id="Layer_2" data-name="Layer 2"><g id="Layer_1-2" data-name="Layer 1"><path class="cls-1" d="M62.52.22H77a.31.31,0,0,1,0,.42c-5.14,1.87-6.34,6.2-6.76,10.95a14.76,14.76,0,0,0,1.34,8,4.88,4.88,0,0,0,5.39,3,5,5,0,0,0,2.74-1.5c.63-.61,1.09-.42,1.12.39a27,27,0,0,1-1,9.42,2.09,2.09,0,0,1-2.26,1.66c-1.14-.13-1.48-1.05-1.78-2s.08-2-.74-2.54-1.68.06-2.54.07c-1.7,0-1.94.33-1.58,2,.62,2.89,1.7,5.49,4.89,6.4a6.38,6.38,0,0,0,7-2.19,11.84,11.84,0,0,0,2.47-4.86,46.27,46.27,0,0,0,1.25-15.9c-.16-1.58-.3-3.16-.59-4.72-.68-3.7-2.15-6.8-6-8.18a.31.31,0,0,1,0-.42c2.17,0,4.34.05,6.5,0,.87,0,1,.18,1,1q0,29.71,0,59.41-43.08,0-86.16,0c-1,0-1.19-.19-1.18-1.18Q.1,30.44,0,1.38C0,.39.23.19,1.22.2Q30.14.25,59,.22c0,.72-.58.81-1,1a9.52,9.52,0,0,0-4.91,9.51,13.51,13.51,0,0,0,2.93,6.8c1.38,1.75,1.38,1.75-.29,3.17a9.79,9.79,0,0,0-3,10.59,7.74,7.74,0,0,0,7.92,5.53,8.31,8.31,0,0,0,8.05-6.25A11.57,11.57,0,0,0,66,19.71c-2.2-2.61-2.2-2.65,0-5.16C69.16,11,68.77,3.1,63.29,1.05a2.26,2.26,0,0,1-.75-.42A.29.29,0,0,1,62.52.22Z" transform="translate(-0.04 -0.19)"/><path class="cls-2" d="M62.55.49a6.85,6.85,0,0,1,5.08,4.27A9.52,9.52,0,0,1,65,16c-.87.75-.9,1.15-.1,2,2.76,2.83,4.79,6,4.55,10.22-.35,6.2-5,9.91-11.14,8.78-5.63-1-8.39-8.29-5.2-13.67a10.76,10.76,0,0,1,3-3.3c.82-.58.85-.91.14-1.7-3.33-3.67-4.42-7.9-2.74-12.67A7.5,7.5,0,0,1,58.26.75c.29-.1.69-.11.78-.53h.58C60.57.61,61.6.15,62.55.49Z" transform="translate(-0.04 -0.19)"/><path class="cls-3" d="M79.86.22a.79.79,0,0,0,0,.26,2.38,2.38,0,0,1-3,0A.7.7,0,0,1,77,.22Z" transform="translate(-0.04 -0.19)"/><path class="cls-4" d="M62.55.49c-1-.08-2,.31-2.93-.27h2.89A.33.33,0,0,0,62.55.49Z" transform="translate(-0.04 -0.19)"/><path class="cls-5" d="M.62,18.67c0-5.58,0-11.17,0-16.75C.59,1,.82.67,1.79.71,4.86.85,8,.48,11,1c4.37.7,6.74,3.26,7.33,7.67a14.2,14.2,0,0,1-1.09,8.16A4.29,4.29,0,0,1,16,18.56c-1.35.9-1.27,2-.93,3.34,1.12,4.52,2.1,9.08,3.18,13.61.24,1,.08,1.35-1,1.28a32,32,0,0,0-4.18,0c-1,.06-1.28-.35-1.45-1.27-.82-4.39-1.73-8.77-2.58-13.16-.13-.69-.29-1.14-1.16-1.09-1,.06-.64.8-.64,1.26,0,4.28-.06,8.57,0,12.85,0,1.18-.35,1.48-1.46,1.41a30.45,30.45,0,0,0-4,0c-1,.07-1.17-.33-1.17-1.23C.64,29.93.62,24.3.62,18.67Z" transform="translate(-0.04 -0.19)"/><path class="cls-2" d="M76.92.47h3a6.55,6.55,0,0,1,4.91,3.83c1.55,3,1.92,6.33,2.1,9.66a45.3,45.3,0,0,1-1.6,16.43,11.79,11.79,0,0,1-2.42,4.39,6.84,6.84,0,0,1-11.43-1.5,13.27,13.27,0,0,1-1.22-4.43c-.1-.79.13-1.2,1-1.15a5.7,5.7,0,0,0,.72,0c1.2-.07,2.67-.6,3.5-.08.65.4.48,2.1.72,3.21.16.74.47,1.4,1.35,1.48a1.73,1.73,0,0,0,1.78-1.2A8.88,8.88,0,0,0,80,28.46c.36-2.46.43-4.95.56-7.83a6.73,6.73,0,0,1-2.4,2.09c-2.61,1.15-5.46.09-6.93-2.71-1.58-3-1.68-6.29-1.33-9.58A13.64,13.64,0,0,1,72.4,3.31,6.83,6.83,0,0,1,76.92.47Z" transform="translate(-0.04 -0.19)"/><path class="cls-5" d="M28.73,34.43c-1,.74-1.67,1.38-2.47,1.89-3.26,2.05-6.69.37-7-3.47-.13-1.58-.06-3.18-.06-4.77,0-5.15,0-10.31,0-15.46,0-1.12.33-1.42,1.38-1.33a21.3,21.3,0,0,0,3.32,0c1-.08,1.21.29,1.2,1.23,0,5.44,0,10.89,0,16.33,0,.58,0,1.15.09,1.73.1,1.1.58,1.88,1.83,1.72s1.8-.6,1.79-2c-.06-5.88,0-11.75-.05-17.63,0-1.15.3-1.53,1.44-1.42a18.66,18.66,0,0,0,3.18,0c1-.08,1.3.26,1.29,1.28-.05,5,0,9.92,0,14.89,0,2.65-.07,5.3,0,7.95,0,1.2-.38,1.48-1.46,1.39a16.56,16.56,0,0,0-3,0c-1.15.12-1.59-.3-1.4-1.43A7,7,0,0,0,28.73,34.43Z" transform="translate(-0.04 -0.19)"/><path class="cls-5" d="M46.29,25.91c-1.2,0-2.41,0-3.61,0-.73,0-1.07.16-1,1,.13,1.14.12,2.31.33,3.44.18.95.58,1.89,1.77,2a2.51,2.51,0,0,0,2.59-1.45c.36-.63.2-1.72,1-1.85a5.29,5.29,0,0,1,2.06.56c1.86.56,1.86.56,1.23,2.39-1.16,3.37-3.44,5.13-6.8,5.25a6.85,6.85,0,0,1-7.11-4.82,23.55,23.55,0,0,1,0-16.65,6.84,6.84,0,0,1,8.54-4.5c2.33.7,3.57,2.48,4.45,4.59,1.25,3,1.27,6.18,1.29,9.36,0,.7-.37.76-.92.75C48.89,25.9,47.59,25.91,46.29,25.91Z" transform="translate(-0.04 -0.19)"/><path class="cls-5" d="M78.45,55.05c-2-1.55-1.93-2.83.26-4.75a4.46,4.46,0,0,1-1-5.51,3.45,3.45,0,0,1,4.17-2c.84.27,1.38.32,2-.42a1.33,1.33,0,0,1,1.54-.53c.6.29.19,1,.28,1.56,0,.24,0,.54-.33.53-1.5-.07-1,.77-.75,1.55a4.83,4.83,0,0,1-.5,4,3.33,3.33,0,0,1-3.54,1.38c-.39,0-.83,0-.92.47s.37.65.72.75c.92.27,1.88.42,2.77.75a3.2,3.2,0,0,1,2.32,3.68,3.38,3.38,0,0,1-2.73,3.28,7.33,7.33,0,0,1-3.7,0c-1.31-.31-2.36-.92-2.55-2.37S77.31,55.57,78.45,55.05Z" transform="translate(-0.04 -0.19)"/><path class="cls-5" d="M7.7,43c-1.17.23-1.71,0-1.6-1.18a1.15,1.15,0,0,0-1.29-1.37c-1,.07-1.22.81-1.18,1.66a2.91,2.91,0,0,0,1.11,2c.8.76,1.67,1.46,2.45,2.24A6.33,6.33,0,0,1,9.34,51c0,3-1.9,4.88-4.73,4.83C2,55.78.4,53.85.39,51c0-.6.21-.76.74-.73a8.06,8.06,0,0,0,1.3,0c.77-.08,1.15.14,1.09,1A1.53,1.53,0,0,0,4.45,53a1.13,1.13,0,0,0,1.4-.45,2,2,0,0,0,0-2.18,9.89,9.89,0,0,0-2.35-2.51,8.48,8.48,0,0,1-2.76-4c-.92-3.37,1.54-6.64,4.71-6.22a4.3,4.3,0,0,1,3.63,4.76C9,43.62,8,42.75,7.7,43Z" transform="translate(-0.04 -0.19)"/><path class="cls-6" d="M44,54.21a7.63,7.63,0,0,1-.64,1.09c-.28.33-.71.2-1.08.15s-.25-.31-.24-.55c.37-5.09.07-10.18.16-15.28,0-1.5,1-2.14,2.46-1.61.53.2.39.6.39,1,0,1.43,0,2.86,0,4.33,3-.94,4.24-.3,4.8,2.64a13.35,13.35,0,0,1-.37,7.25C48.43,56.19,46.34,56.63,44,54.21Z" transform="translate(-0.04 -0.19)"/><path class="cls-6" d="M68.67,49.42c0,1.78,0,3.56,0,5.33,0,.59-.15.86-.68.71-.8-.22-1.92.7-2.44-.67-.06-.16-.46.24-.68.4a2.37,2.37,0,0,1-2.56.42c-.92-.44-1-1.33-1-2.23,0-3.13.06-6.25,0-9.38,0-1.24.69-1,1.37-1s1.57-.35,1.52,1c-.09,2.64,0,5.29,0,7.93,0,.55-.14,1.31.72,1.29s.83-.65.82-1.28c0-2.64.06-5.29,0-7.93,0-1.35.8-1,1.5-1s1.54-.24,1.45,1.07c-.12,1.77,0,3.56,0,5.34Z" transform="translate(-0.04 -0.19)"/><path class="cls-5" d="M59.66,49.22A9.17,9.17,0,0,1,59,53.33a3.66,3.66,0,0,1-3.56,2.43,3.46,3.46,0,0,1-3.39-2.44,11.71,11.71,0,0,1,0-8.3,3.4,3.4,0,0,1,3.35-2.29A3.56,3.56,0,0,1,59,45,9,9,0,0,1,59.66,49.22Z" transform="translate(-0.04 -0.19)"/><path class="cls-6" d="M32,50.4c0,1.49,0,3,0,4.46,0,.45-.06.69-.48.6-.8-.18-1.8.56-2.42-.62-.22-.42-.53.16-.76.33-1.5,1.07-2.83.75-3.67-.89a4.34,4.34,0,0,1,2.94-6.42c.91-.22,1.49-.49,1.3-1.57-.08-.49,0-1-.65-1.12s-.73.29-.93.72c-.57,1.25-1.62.5-2.35.36s-.19-.91-.05-1.34c.51-1.61,2.09-2.41,4.08-2.17a2.85,2.85,0,0,1,2.84,3c.07,1.54,0,3.08,0,4.61Z" transform="translate(-0.04 -0.19)"/><path class="cls-6" d="M36.95,55.82a3.34,3.34,0,0,1-3.65-3.1c-.05-.83.35-1,1-1s1.25-.66,1.4.51c.08.61.32,1.23,1.17,1.2a1,1,0,0,0,1-.66c.24-.73-.23-1.19-.73-1.58a10.6,10.6,0,0,1-3.39-3.47,3.3,3.3,0,0,1,.43-3.65A3.62,3.62,0,0,1,38,42.81a2.94,2.94,0,0,1,2.42,2.38c.11.42.42,1.05-.34,1.14s-1.5.74-1.94-.35c-.21-.51-.36-1-1.06-1a.79.79,0,0,0-.76.56,1.22,1.22,0,0,0,.48,1.4c.95.81,2,1.51,2.89,2.38a3.72,3.72,0,0,1,.78,4.39A3.55,3.55,0,0,1,36.95,55.82Z" transform="translate(-0.04 -0.19)"/><path class="cls-6" d="M12.94,38.9c1.18-.3,1.42.31,1.3,1.32-.05.43,0,.87,0,1.3-.06.94-.06,1.71,1.29,1.52,1-.14.64.74.65,1.23s.31,1.36-.67,1.22c-1.38-.19-1.3.61-1.28,1.54,0,1.64,0,3.27,0,4.91,0,.84.32,1.33,1.12,1.35.59,0,1-.07.93.76-.08.62.19,1.28-.78,1.58-2.68.81-4.08-.17-4.1-3,0-2,0-4,0-6.07,0-.51.14-1.06-.72-1.07s-.51-.7-.49-1.11-.34-1.29.37-1.31c1,0,.87-.68,1-1.25a9.49,9.49,0,0,0,.12-1.73C11.56,39.12,11.9,38.63,12.94,38.9Z" transform="translate(-0.04 -0.19)"/><path class="cls-7" d="M20.54,44.5c.8-.61,1.36-1.3,2.24-1.49.56-.12,1-.1.9.64a8.25,8.25,0,0,0,0,1.44c.08.78-.18.94-1,.89-1.72-.1-2.21.46-2.22,2.19,0,2-.08,4,0,6.06.07,1.21-.48,1.32-1.44,1.27s-1.52.1-1.48-1.21c.11-3.22,0-6.44.07-9.66,0-.54-.62-1.62.69-1.6C19.33,43,20.78,42.39,20.54,44.5Z" transform="translate(-0.04 -0.19)"/><path class="cls-5" d="M73.45,44.51a5.7,5.7,0,0,1,2-1.46c.66-.2,1.15-.18,1,.73a6.4,6.4,0,0,0,0,1.3c.07.74-.15.94-1,.9-1.7-.1-2.23.5-2.23,2.21,0,2.12-.06,4.24,0,6.35.05,1.42-.93.85-1.56.94s-1.34.08-1.31-1.05c.08-3.41,0-6.83,0-10.25,0-.64-.09-1.38.9-1.14.7.17,2-.75,1.93,1A2.17,2.17,0,0,0,73.45,44.51Z" transform="translate(-0.04 -0.19)"/><path class="cls-8" d="M57.38,28.29a13.09,13.09,0,0,1,1.57-6c.2-.35.35-.91.91-.37,1.59,1.55,3.19,3.08,3.65,5.39a5.55,5.55,0,0,1-.38,3.52,2.85,2.85,0,0,1-3,1.77,2.65,2.65,0,0,1-2.46-2.25A14.05,14.05,0,0,1,57.38,28.29Z" transform="translate(-0.04 -0.19)"/><path class="cls-8" d="M58.34,8.21a2.82,2.82,0,0,1,2.29-3C62,5,63.11,5.94,63.45,7.65,63.9,10,63,12,61.87,13.92c-.4.69-.74.36-1.1,0A8.6,8.6,0,0,1,58.34,8.21Z" transform="translate(-0.04 -0.19)"/><path class="cls-9" d="M7.23,11c0-1.39,0-2.79,0-4.18,0-.62.17-.81.81-.83A3.25,3.25,0,0,1,11.7,8.83a9.67,9.67,0,0,1-.06,4.43,3.54,3.54,0,0,1-1.55,2.34,3,3,0,0,1-2.5.35c-.76-.28-.28-1.19-.33-1.81C7.18,13.08,7.23,12,7.23,11Z" transform="translate(-0.04 -0.19)"/><path class="cls-8" d="M80.42,13.34c0,1-.06,2,0,3a1.56,1.56,0,0,1-1.38,1.84,1.78,1.78,0,0,1-2.26-1,6.93,6.93,0,0,1-.56-1.92,35,35,0,0,1,0-7.47,7.25,7.25,0,0,1,.31-1.25,1.63,1.63,0,0,1,1.64-1.35,1.66,1.66,0,0,1,1.53,1.32,16.47,16.47,0,0,1,.65,5c0,.62,0,1.25,0,1.87Z" transform="translate(-0.04 -0.19)"/><path class="cls-10" d="M43.71,21.33c-2.05,0-2.08,0-2-1.9a15.5,15.5,0,0,1,.36-2.7,1.41,1.41,0,0,1,1.42-1.21A1.55,1.55,0,0,1,45,16.62a8.2,8.2,0,0,1,.42,4.12C45.32,22,44.19,21,43.71,21.33Z" transform="translate(-0.04 -0.19)"/><path class="cls-11" d="M80.9,57.89a8.62,8.62,0,0,1-1.17-.14A.84.84,0,0,1,79,56.7c.23-.9,1-1,1.73-1s1.73-.19,2.06.86a.85.85,0,0,1-.64,1.12A7.31,7.31,0,0,1,80.9,57.89Z" transform="translate(-0.04 -0.19)"/><path class="cls-12" d="M82,46.88c-.3.71.42,2-.89,2s-.9-1.29-.9-2.07-.35-2.17,1-2.11S81.7,46.12,82,46.88Z" transform="translate(-0.04 -0.19)"/><path class="cls-10" d="M45.11,49.28q0-1.73,0-3.46c0-.48.16-.88.65-1a.83.83,0,0,1,1,.8,21.86,21.86,0,0,1,0,7.15c-.08.47-.36.95-1,.89s-.66-.59-.67-1.08C45.1,51.49,45.11,50.39,45.11,49.28Z" transform="translate(-0.04 -0.19)"/><path class="cls-13" d="M54.41,49.13A12.6,12.6,0,0,1,54.7,46c.13-.42.34-.87.83-.87s.83.46.91,1a19.37,19.37,0,0,1,0,6.31c-.08.47-.28,1-.86,1s-.76-.5-.9-1A13.24,13.24,0,0,1,54.41,49.13Z" transform="translate(-0.04 -0.19)"/><path class="cls-14" d="M28.9,51.41c-.1.56.27,1.31-.49,1.77a.59.59,0,0,1-.79-.07,2.67,2.67,0,0,1,0-3,1,1,0,0,1,1-.51c.53.12.26.63.31,1A5.75,5.75,0,0,1,28.9,51.41Z" transform="translate(-0.04 -0.19)"/></g></g></svg>