<?xml version="1.0" encoding="utf-8"?>
<!-- Generator: Adobe Illustrator 19.2.1, SVG Export Plug-In . SVG Version: 6.00 Build 0)  -->
<svg version="1.1" id="Layer_1" xmlns="http://www.w3.org/2000/svg" xmlns:xlink="http://www.w3.org/1999/xlink" x="0px" y="0px"
	 viewBox="0 0 144 31.1" style="enable-background:new 0 0 144 31.1;" xml:space="preserve">
<style type="text/css">
	.st0{fill:#4B4B4B;}
</style>
<g>
	<path class="st0" d="M140.3,26.5c-0.3,0.1-0.6,0.1-0.8,0.1c-0.9,0-1.3-0.4-1.3-1.5v-8.3c0-4.4-3.5-6.5-7.6-6.5
		c-3.1,0-4.8,0.4-8.2,1.7l-0.8,4.4l4.4,0.5l0.6-2.1c0.9-0.5,1.8-0.5,2.9-0.5c3.1,0,3.1,2.3,3.1,4.3v0.6c-1-0.1-2.1-0.2-3.1-0.2
		c-4.4,0-8.9,1.1-8.9,5.8c0,4,3.1,5.5,5.9,5.5c3.1,0,5-1.8,6.1-3.8c0.3,2.3,1.6,3.8,4.2,3.8c1.2,0,2.4-0.3,3.4-0.9L140.3,26.5z
		 M128.6,26.4c-1.6,0-2.2-1-2.2-2.2c0-2.1,1.7-2.6,3.7-2.6c0.9,0,1.8,0.1,2.7,0.3C132.6,25,130.5,26.4,128.6,26.4z M121.3,0.8
		L113,29.9h-5.4l8.2-29.1C115.9,0.8,121.3,0.8,121.3,0.8z M110.1,0.8l-8.2,29.1h-5.4l8.2-29.1C104.8,0.8,110.1,0.8,110.1,0.8z
		 M87.2,10.8h5.7v6.9h-5.7V10.8z M87.2,23h5.7v6.9h-5.7V23z M78.9,22.8l4.3,0.4l-1.2,6.7H65.4L64.8,27L75.3,15h-6l-0.8,2.9l-4-0.4
		l0.7-6.7H82l0.4,2.9L71.8,25.7H78L78.9,22.8z M51.6,10.4c-6.9,0-10.3,4.6-10.3,10.2c0,6.1,4.1,9.7,10,9.7c6.1,0,10.5-3.9,10.5-10
		C61.7,15,58.4,10.4,51.6,10.4z M51.4,26.1c-2.9,0-4.5-2.5-4.5-5.8c0-3.6,1.7-5.7,4.5-5.7c2.6,0,4.7,1.7,4.7,5.6
		C56.1,23.8,54.2,26.1,51.4,26.1z M36.4,25.7h2.5v4.2h-8V19.1c0-3.3-1.1-4.6-3.2-4.6c-2.6,0-3.7,1.8-3.7,4.5v6.6h2.5v4.2h-8V19.1
		c0-3.3-1.1-4.6-3.3-4.6c-2.6,0-3.7,1.8-3.7,4.5v6.6h3.7v4.2H3.6v-4.2h2.5V14.9H3.6v-4.2h8v2.9c1.1-2,3.1-3.2,5.8-3.2
		c2.7,0,5.3,1.3,6.2,4.1c1.1-2.5,3.2-4.1,6.2-4.1c3.5,0,6.6,2.1,6.6,6.6C36.4,17,36.4,25.7,36.4,25.7z"/>
</g>
</svg>
