<svg viewBox="0 0 248.02 45.88" style="width: 100%;"><defs><style>.cls-1{fill:#1e0038;}.cls-2{fill:#fff;}</style></defs><path class="cls-1" d="M169.08,0L84.54,0,0,0S-0.08,2,0,4C23.4,4,11,45.88,46.65,45.88h75.79C158.1,45.88,145.68,4,169.08,4,169.16,2,169.08,0,169.08,0Z" transform="translate(0.03)"/><path class="cls-2" d="M45.76,15.76a3.81,3.81,0,0,1,.52,1.52,5.14,5.14,0,0,1,3.65-1.52A4,4,0,0,1,53,17a4.78,4.78,0,0,1,.59.73,5.49,5.49,0,0,1,4.24-2,4.67,4.67,0,0,1,3,.93c0.85,0.73,1.12,1.61,1.12,3.66V31H58.09v-9.9c0-1.79-.21-2.14-1.23-2.14a4.46,4.46,0,0,0-2.6,1.26V31H50.54V21.26c0-1.87-.27-2.31-1.36-2.31a4.13,4.13,0,0,0-2.57,1.14V31H42.77V20.56c0-2.16-.15-3.1-0.56-3.84Z" transform="translate(0.03)"/><path class="cls-2" d="M75.92,18a7.8,7.8,0,0,1,1.73,5.47,8.12,8.12,0,0,1-1.88,5.8,6.11,6.11,0,0,1-4.94,2.08c-4.08,0-6.73-3-6.73-7.76s2.69-7.85,6.73-7.85A6.28,6.28,0,0,1,75.92,18Zm-7.05,2.16a10.55,10.55,0,0,0-.41,3.34,10.66,10.66,0,0,0,.5,3.78,2.18,2.18,0,0,0,2,1.23c1.7,0,2.43-1.52,2.43-5.06,0-2-.26-3.34-0.79-4A2.14,2.14,0,0,0,68.86,20.15Z" transform="translate(0.03)"/><path class="cls-2" d="M90.27,16v2.69l-6.62,9.57h6.88L89.59,31h-11V28.59l7-9.81H79.14V16H90.27Z" transform="translate(0.03)"/><path class="cls-2" d="M96.91,11.9a2.41,2.41,0,1,1-4.82,0,2.45,2.45,0,0,1,2.46-2.43A2.39,2.39,0,0,1,96.91,11.9Zm-0.46,3.77V31H92.52V16.29Z" transform="translate(0.03)"/><path class="cls-2" d="M103.59,13.25V24.93c0,2.58,0,2.93.27,3.34a0.89,0.89,0,0,0,.79.41,1.43,1.43,0,0,0,.44-0.05L105.76,31a6.55,6.55,0,0,1-2.34.41,3.51,3.51,0,0,1-3.49-2c-0.29-.76-0.36-1.23-0.36-3.37V14.76a39,39,0,0,0-.2-4.51l4-.91A23.06,23.06,0,0,1,103.59,13.25Z" transform="translate(0.03)"/><path class="cls-2" d="M111.73,13.25V24.93c0,2.58,0,2.93.27,3.34a0.86,0.86,0,0,0,.78.41,1.43,1.43,0,0,0,.45-0.05L113.9,31a6.53,6.53,0,0,1-2.34.41,3.52,3.52,0,0,1-3.49-2c-0.3-.76-0.35-1.23-0.35-3.37V14.76a37.58,37.58,0,0,0-.21-4.51l4-.91A20.74,20.74,0,0,1,111.73,13.25Z" transform="translate(0.03)"/><path class="cls-2" d="M117.88,16.58a10.06,10.06,0,0,1,4.09-.88c2.52,0,4.25.93,4.84,2.6a7.39,7.39,0,0,1,.27,2.69L127,26V26.3a3.05,3.05,0,0,0,1.41,3.07l-2.08,2.41A4.2,4.2,0,0,1,124.2,30a6.74,6.74,0,0,1-.91.79,5.17,5.17,0,0,1-3,.82c-3.34,0-5.15-1.7-5.15-4.68,0-3.52,2.44-5.16,7.21-5.16a8.13,8.13,0,0,1,.88,0V21.15c0-1.67-.32-2.23-1.77-2.23a8.25,8.25,0,0,0-4.33,1.7l-1.67-2.81A14.42,14.42,0,0,1,117.88,16.58ZM123,24.46c-2.71,0-3.66.49-3.66,2.29a1.78,1.78,0,0,0,1.74,2,2.84,2.84,0,0,0,2-1l0.06-3.22H123Z" transform="translate(0.03)"/><text x="0.03"/></svg>
