<svg xmlns="http://www.w3.org/2000/svg" viewBox="0 0 220.55 89.22"><defs><style>.cls-1{fill:#bcbec0;}.cls-2{fill:#ef4235;}.cls-3{fill:#3e97d3;}.cls-4{fill:#59595b;}</style></defs><title>democracy</title><g id="Layer_2" data-name="Layer 2"><g id="Layer_1-2" data-name="Layer 1"><path class="cls-1" d="M167.26,15.75A18.43,18.43,0,0,1,181.87,23h4.28a22,22,0,0,0-37.79,0h4.28A18.43,18.43,0,0,1,167.26,15.75Z"/><path class="cls-2" d="M144.12,80.5a38.61,38.61,0,0,1-35.5-23.39H105a42,42,0,0,0,78.26,0h-3.64A38.73,38.73,0,0,1,144.12,80.5Z"/><path class="cls-3" d="M104,3.51A36.73,36.73,0,0,1,136.39,23h3.93a40.27,40.27,0,0,0-72.73,0h3.94A36.85,36.85,0,0,1,104,3.51Z"/><path class="cls-2" d="M68.83,10.07A31.32,31.32,0,0,1,94,23h4.28a34.64,34.64,0,0,0-59,0h4.27A31.31,31.31,0,0,1,68.83,10.07Z"/><path class="cls-3" d="M103.21,80.54a37.92,37.92,0,0,1-9-1.08v3.41a41.19,41.19,0,0,0,47.58-25.76h-3.57A38,38,0,0,1,103.21,80.54Z"/><g id="_Group_" data-name="&lt;Group&gt;"><g id="_Group_2" data-name="&lt;Group&gt;"><path id="_Compound_Path_" data-name="&lt;Compound Path&gt;" class="cls-4" d="M3.67,71.61H1V67.52H3.67V65.94a7.22,7.22,0,0,1,1.74-5.26A6.47,6.47,0,0,1,10.23,59a13.1,13.1,0,0,1,4,.57v4.13a8.6,8.6,0,0,0-2.87-.53c-1.86,0-2.83,1-2.83,3.24v1.17h5.67v4H8.57V88.77H3.67Z"/><path id="_Compound_Path_2" data-name="&lt;Compound Path&gt;" class="cls-4" d="M17.23,81V67.4h4.9V79.54c0,3.32,1.66,5.18,4.57,5.18s4.82-1.94,4.82-5.26V67.4h4.94V88.77H31.52V85.45a7.69,7.69,0,0,1-6.68,3.76C20,89.22,17.23,86,17.23,81Z"/><path id="_Compound_Path_3" data-name="&lt;Compound Path&gt;" class="cls-4" d="M42.24,67.4h4.9v3.28A7.75,7.75,0,0,1,53.82,67c4.82,0,7.61,3.24,7.61,8.18V88.77h-4.9V76.63c0-3.32-1.66-5.22-4.57-5.22s-4.82,2-4.82,5.3V88.77h-4.9Z"/><path id="_Compound_Path_4" data-name="&lt;Compound Path&gt;" class="cls-4" d="M65.92,78.13V78C65.92,71,70.74,67,75.84,67a8.74,8.74,0,0,1,7.29,3.76V59.23H88V88.77h-4.9V85.21a8.56,8.56,0,0,1-7.29,4C70.82,89.22,65.92,85.21,65.92,78.13Zm17.28,0V78c0-4.13-2.91-6.84-6.19-6.84S70.86,73.8,70.86,78v.08C70.86,82.26,73.69,85,77,85S83.2,82.22,83.2,78.13Z"/></g><path id="_Compound_Path_5" data-name="&lt;Compound Path&gt;" class="cls-4" d="M0,40.1V40c0-7.08,4.82-11.09,9.92-11.09a8.74,8.74,0,0,1,7.29,3.76V21.2h4.9V50.75H17.2V47.18a8.55,8.55,0,0,1-7.29,4C4.9,51.19,0,47.18,0,40.1Zm17.28,0V40c0-4.13-2.91-6.84-6.19-6.84S4.94,35.77,4.94,40v.08c0,4.13,2.83,6.84,6.15,6.84S17.28,44.19,17.28,40.1Z"/><path id="_Compound_Path_6" data-name="&lt;Compound Path&gt;" class="cls-4" d="M26.75,40.14v-.08c0-6.11,4.33-11.13,10.44-11.13,6.8,0,10.24,5.34,10.24,11.49,0,.44,0,.89-.08,1.38H31.65a6,6,0,0,0,6.15,5.42,7.76,7.76,0,0,0,5.79-2.55l2.87,2.55a10.81,10.81,0,0,1-8.74,4A10.66,10.66,0,0,1,26.75,40.14Zm15.83-1.58c-.32-3.16-2.19-5.63-5.42-5.63-3,0-5.1,2.31-5.54,5.63Z"/><path id="_Compound_Path_7" data-name="&lt;Compound Path&gt;" class="cls-4" d="M52,29.38h4.9v3.24c1.38-1.9,3.24-3.68,6.52-3.68a6.78,6.78,0,0,1,6.39,3.76,8.6,8.6,0,0,1,7.2-3.76c4.65,0,7.49,3,7.49,8.18V50.75h-4.9V38.6c0-3.4-1.58-5.22-4.33-5.22s-4.57,1.86-4.57,5.3V50.75h-4.9V38.56c0-3.32-1.62-5.18-4.33-5.18s-4.57,2-4.57,5.3V50.75H52Z"/><path id="_Compound_Path_8" data-name="&lt;Compound Path&gt;" class="cls-4" d="M89,40.18V40.1A11.4,11.4,0,0,1,111.79,40v.08a11.17,11.17,0,0,1-11.45,11.13A11.05,11.05,0,0,1,89,40.18Zm17.89,0V40.1a6.61,6.61,0,0,0-6.56-6.88c-3.93,0-6.44,3.08-6.44,6.8v.08a6.59,6.59,0,0,0,6.52,6.84C104.38,46.94,106.89,43.86,106.89,40.18Z"/><path id="_Compound_Path_9" data-name="&lt;Compound Path&gt;" class="cls-4" d="M115.27,40.18V40.1A11,11,0,0,1,126.4,28.93a10.79,10.79,0,0,1,8.54,3.68l-3.08,3.28a7.17,7.17,0,0,0-5.5-2.67c-3.56,0-6.19,3.08-6.19,6.8v.08c0,3.8,2.63,6.84,6.39,6.84a7.48,7.48,0,0,0,5.54-2.63l3,2.91a11.2,11.2,0,0,1-19.79-7Z"/><path id="_Compound_Path_10" data-name="&lt;Compound Path&gt;" class="cls-4" d="M139.23,29.38h4.9v4.82c1.34-3.2,3.8-5.38,7.57-5.22v5.18h-.28c-4.29,0-7.29,2.79-7.29,8.46v8.14h-4.9Z"/><path id="_Compound_Path_11" data-name="&lt;Compound Path&gt;" class="cls-4" d="M153.2,44.59v-.08c0-4.61,3.6-6.88,8.82-6.88a17.85,17.85,0,0,1,5.75.89V38c0-3-1.86-4.65-5.3-4.65a14.88,14.88,0,0,0-6.11,1.34l-1.3-3.84a18.23,18.23,0,0,1,8.05-1.74c3.2,0,5.58.85,7.08,2.39s2.31,3.8,2.31,6.6V50.75h-4.78V48.07a8.69,8.69,0,0,1-7,3.12C156.76,51.19,153.2,48.88,153.2,44.59Zm14.65-1.54V41.6a13.57,13.57,0,0,0-4.86-.85c-3.16,0-5,1.34-5,3.56v.08c0,2.06,1.82,3.24,4.17,3.24C165.38,47.63,167.85,45.77,167.85,43.06Z"/><path id="_Compound_Path_12" data-name="&lt;Compound Path&gt;" class="cls-4" d="M176.87,40.18V40.1A11,11,0,0,1,188,28.93a10.79,10.79,0,0,1,8.54,3.68l-3.08,3.28a7.17,7.17,0,0,0-5.5-2.67c-3.56,0-6.19,3.08-6.19,6.8v.08c0,3.8,2.63,6.84,6.39,6.84a7.48,7.48,0,0,0,5.54-2.63l3,2.91a11.2,11.2,0,0,1-19.79-7Z"/><path id="_Compound_Path_13" data-name="&lt;Compound Path&gt;" class="cls-4" d="M215.45,29.38h5.1l-8.5,22c-1.7,4.37-3.6,6-7,6a10.09,10.09,0,0,1-5.06-1.3l1.66-3.64a6,6,0,0,0,2.87.81c1.38,0,2.23-.61,3-2.43l-8.9-21.41h5.26l6,15.87Z"/></g></g></g></svg>