<?xml version="1.0" encoding="utf-8"?>
<!-- Generator: Adobe Illustrator 16.0.0, SVG Export Plug-In . SVG Version: 6.00 Build 0)  -->
<!DOCTYPE svg PUBLIC "-//W3C//DTD SVG 1.1//EN" "http://www.w3.org/Graphics/SVG/1.1/DTD/svg11.dtd">
<svg version="1.1" id="Layer_1" xmlns="http://www.w3.org/2000/svg" xmlns:xlink="http://www.w3.org/1999/xlink" x="0px" y="0px"
	 width="98px" height="60px" viewBox="0 0 98 60" enable-background="new 0 0 98 60" xml:space="preserve">
<g>
	<path fill="#4B4B4B" d="M65.646,32.273c-0.071,0.02-0.132,0.029-0.191,0.029c-0.212,0-0.312-0.09-0.312-0.353v-1.985
		c0-1.048-0.837-1.552-1.814-1.552c-0.745,0-1.159,0.091-1.955,0.413l-0.182,1.048l1.048,0.111l0.151-0.514
		c0.212-0.111,0.423-0.131,0.696-0.131c0.735,0,0.745,0.554,0.745,1.028v0.152c-0.231-0.031-0.493-0.041-0.745-0.041
		c-1.049,0-2.127,0.262-2.127,1.391c0,0.958,0.746,1.311,1.41,1.311c0.736,0,1.21-0.443,1.473-0.917
		c0.061,0.554,0.393,0.917,1.008,0.917c0.281,0,0.574-0.08,0.826-0.211L65.646,32.273z M62.834,32.242
		c-0.394,0-0.535-0.231-0.535-0.523c0-0.494,0.403-0.625,0.877-0.625c0.212,0,0.443,0.03,0.655,0.061
		C63.791,31.91,63.297,32.242,62.834,32.242z M61.08,26.104l-1.977,6.975h-1.289l1.975-6.975H61.08z M58.419,26.104l-1.976,6.975
		h-1.29l1.976-6.975H58.419z M52.926,28.503h1.371v1.643h-1.371V28.503z M52.926,31.436h1.371v1.644h-1.371V31.436z M50.93,31.376
		l1.039,0.101l-0.283,1.603h-4.001l-0.131-0.686l2.52-2.893h-1.431l-0.202,0.706l-0.947-0.101l0.161-1.603h4.021l0.102,0.685
		l-2.541,2.893h1.482L50.93,31.376z M44.379,28.413c-1.643,0-2.459,1.109-2.459,2.449c0,1.462,0.978,2.318,2.389,2.318
		c1.461,0,2.52-0.928,2.52-2.389C46.818,29.521,46.021,28.413,44.379,28.413z M44.349,32.172c-0.706,0-1.079-0.604-1.079-1.4
		c0-0.867,0.414-1.361,1.088-1.361c0.615,0,1.119,0.414,1.119,1.341C45.467,31.628,45.024,32.172,44.349,32.172z M40.74,32.081
		h0.605v0.998H39.43v-2.58c0-0.796-0.262-1.099-0.776-1.099c-0.625,0-0.887,0.443-0.887,1.088v1.592h0.604v0.998h-1.915v-2.58
		c0-0.796-0.262-1.099-0.786-1.099c-0.625,0-0.887,0.443-0.887,1.088v1.592h0.877v0.998h-2.782v-0.998h0.604v-2.59h-0.604v-0.998
		h1.915v0.686c0.272-0.484,0.746-0.776,1.391-0.776c0.655,0,1.27,0.312,1.492,0.988c0.252-0.604,0.766-0.988,1.492-0.988
		c0.827,0,1.572,0.494,1.572,1.583V32.081z"/>
</g>
</svg>
