<svg id="Layer_1" data-name="Layer 1" xmlns="http://www.w3.org/2000/svg" viewBox="0 0 565.5 122"><defs><style>.cls-1{fill:#4b4b4b;}</style></defs><title>moz-logo-main-rgb-gray</title><path class="cls-1" d="M567,107.36a12,12,0,0,1-3.29.5c-3.66,0-5.38-1.55-5.38-6.09V67.55c0-18.07-14.43-26.76-31.28-26.76-12.84,0-20,1.57-33.71,7.12L490.17,66l18.07,1.91,2.6-8.86c3.66-1.91,7.29-2.26,12-2.26,12.67,0,12.84,9.55,12.84,17.72v2.62a99.72,99.72,0,0,0-12.84-.71c-18.09,0-36.67,4.52-36.67,24,0,16.52,12.86,22.6,24.31,22.6,12.69,0,20.86-7.64,25.4-15.81,1.05,9.55,6.78,15.81,17.38,15.81a31.58,31.58,0,0,0,14.24-3.64Zm-48.48-.53c-6.79,0-9.22-4-9.22-9,0-8.52,6.95-10.78,15.12-10.78a80.67,80.67,0,0,1,11.29,1.05C535,101.1,526.47,106.83,518.48,106.83ZM488.24,1L454.16,121.26H431.93L466,1h22.26ZM442.36,1L408.29,121.26H386.05L420.12,1h22.24ZM347.66,42.36h23.64V70.69H347.66V42.36Zm0,50.57h23.64v28.34H347.66V92.93Zm-34.41-1,17.91,1.74-4.88,27.64h-69L255,109.45l43.45-49.88H273.81l-3.48,12.17L254,70l2.78-27.64H326.1l1.76,11.81-43.81,49.88H309.6ZM200.29,40.81C172,40.81,157.9,59.93,157.9,83c0,25.21,16.86,40,41.19,40,25.19,0,43.45-16,43.45-41.19C242.34,59.91,228.6,40.81,200.29,40.81Zm-0.52,64.81c-12.17,0-18.6-10.41-18.6-24.14,0-14.95,7.14-23.47,18.76-23.47,10.6,0,19.29,7.14,19.29,23.12C219.05,96.24,211.41,105.62,199.78,105.62Zm-62.22-1.57H148v17.21H115V76.78c0-13.72-4.52-18.95-13.38-18.95-10.78,0-15.29,7.64-15.29,18.76V104H96.71v17.21h-33V76.76c0-13.72-4.52-18.95-13.55-18.95-10.78,0-15.29,7.64-15.29,18.76V104H50v17.21H2V104H12.41V59.36H2V42.16H35V54C39.71,45.64,47.88,40.6,59,40.6c11.29,0,21.9,5.38,25.72,17,4.34-10.41,13.21-17,25.72-17,14.26,0,27.1,8.52,27.1,27.29v36.16Z" transform="translate(-2 -1)"/></svg>
