<svg xmlns="http://www.w3.org/2000/svg" viewBox="0 0 87.64 105.24"><title>prod-guides</title><line x1="33.08" y1="4.43" x2="33.08" y2="101.16" style="fill:none;stroke:#f37152;stroke-miterlimit:10;stroke-width:5px"/><path d="M77.67,5.85A10.62,10.62,0,0,1,88.25,16.44V90.51a10.62,10.62,0,0,1-10.59,10.59H29.37A10.62,10.62,0,0,1,18.79,90.51V84H14.5a3.89,3.89,0,1,1,0-7.79h4.28V57.09H14.5a3.89,3.89,0,1,1,0-7.79h4.28V30.7H14.5a3.89,3.89,0,1,1,0-7.79h4.28V16.44A10.62,10.62,0,0,1,29.37,5.85H77.67m0-5H29.37A15.6,15.6,0,0,0,13.79,16.44v1.5a8.89,8.89,0,0,0,0,17.73v8.66a8.9,8.9,0,0,0,0,17.73v9.21a8.9,8.9,0,0,0,0,17.73v1.5a15.6,15.6,0,0,0,15.59,15.59H77.67A15.6,15.6,0,0,0,93.25,90.51V16.44A15.6,15.6,0,0,0,77.67.85Z" transform="translate(-5.61 -0.85)" style="fill:#f37152"/><path d="M22.38,22.91a3.89,3.89,0,0,1,0,7.79H14.5a3.89,3.89,0,1,1,0-7.79h7.88m0-5H14.5a8.89,8.89,0,1,0,0,17.79h7.88a8.89,8.89,0,0,0,0-17.79Z" transform="translate(-5.61 -0.85)" style="fill:#f37152"/><path d="M22.38,49.31a3.91,3.91,0,0,1,3.89,3.89h0a3.91,3.91,0,0,1-3.89,3.89H14.5a3.91,3.91,0,0,1-3.89-3.89h0a3.91,3.91,0,0,1,3.89-3.89h7.88m0-5H14.5a8.89,8.89,0,1,0,0,17.79h7.88a8.89,8.89,0,0,0,0-17.79Z" transform="translate(-5.61 -0.85)" style="fill:#f37152"/><path d="M22.38,76.24a3.91,3.91,0,0,1,3.89,3.89h0A3.91,3.91,0,0,1,22.38,84H14.5a3.91,3.91,0,0,1-3.89-3.89h0a3.91,3.91,0,0,1,3.89-3.89h7.88m0-5H14.5A8.89,8.89,0,0,0,14.5,89h7.88a8.89,8.89,0,0,0,0-17.79Z" transform="translate(-5.61 -0.85)" style="fill:#f37152"/></svg>